%TF.GenerationSoftware,KiCad,Pcbnew,9.0.2+dfsg-1*%
%TF.CreationDate,2025-08-27T01:07:13+05:30*%
%TF.ProjectId,scopetester_v1,73636f70-6574-4657-9374-65725f76312e,rev?*%
%TF.SameCoordinates,Original*%
%TF.FileFunction,Legend,Top*%
%TF.FilePolarity,Positive*%
%FSLAX46Y46*%
G04 Gerber Fmt 4.6, Leading zero omitted, Abs format (unit mm)*
G04 Created by KiCad (PCBNEW 9.0.2+dfsg-1) date 2025-08-27 01:07:13*
%MOMM*%
%LPD*%
G01*
G04 APERTURE LIST*
%ADD10C,0.150000*%
%ADD11C,0.120000*%
G04 APERTURE END LIST*
D10*
X130054666Y-103206819D02*
X130054666Y-103921104D01*
X130054666Y-103921104D02*
X130007047Y-104063961D01*
X130007047Y-104063961D02*
X129911809Y-104159200D01*
X129911809Y-104159200D02*
X129768952Y-104206819D01*
X129768952Y-104206819D02*
X129673714Y-104206819D01*
X130435619Y-103206819D02*
X131054666Y-103206819D01*
X131054666Y-103206819D02*
X130721333Y-103587771D01*
X130721333Y-103587771D02*
X130864190Y-103587771D01*
X130864190Y-103587771D02*
X130959428Y-103635390D01*
X130959428Y-103635390D02*
X131007047Y-103683009D01*
X131007047Y-103683009D02*
X131054666Y-103778247D01*
X131054666Y-103778247D02*
X131054666Y-104016342D01*
X131054666Y-104016342D02*
X131007047Y-104111580D01*
X131007047Y-104111580D02*
X130959428Y-104159200D01*
X130959428Y-104159200D02*
X130864190Y-104206819D01*
X130864190Y-104206819D02*
X130578476Y-104206819D01*
X130578476Y-104206819D02*
X130483238Y-104159200D01*
X130483238Y-104159200D02*
X130435619Y-104111580D01*
X114310095Y-68508819D02*
X114310095Y-69318342D01*
X114310095Y-69318342D02*
X114357714Y-69413580D01*
X114357714Y-69413580D02*
X114405333Y-69461200D01*
X114405333Y-69461200D02*
X114500571Y-69508819D01*
X114500571Y-69508819D02*
X114691047Y-69508819D01*
X114691047Y-69508819D02*
X114786285Y-69461200D01*
X114786285Y-69461200D02*
X114833904Y-69413580D01*
X114833904Y-69413580D02*
X114881523Y-69318342D01*
X114881523Y-69318342D02*
X114881523Y-68508819D01*
X115881523Y-69508819D02*
X115310095Y-69508819D01*
X115595809Y-69508819D02*
X115595809Y-68508819D01*
X115595809Y-68508819D02*
X115500571Y-68651676D01*
X115500571Y-68651676D02*
X115405333Y-68746914D01*
X115405333Y-68746914D02*
X115310095Y-68794533D01*
X108581580Y-85236666D02*
X108629200Y-85284285D01*
X108629200Y-85284285D02*
X108676819Y-85427142D01*
X108676819Y-85427142D02*
X108676819Y-85522380D01*
X108676819Y-85522380D02*
X108629200Y-85665237D01*
X108629200Y-85665237D02*
X108533961Y-85760475D01*
X108533961Y-85760475D02*
X108438723Y-85808094D01*
X108438723Y-85808094D02*
X108248247Y-85855713D01*
X108248247Y-85855713D02*
X108105390Y-85855713D01*
X108105390Y-85855713D02*
X107914914Y-85808094D01*
X107914914Y-85808094D02*
X107819676Y-85760475D01*
X107819676Y-85760475D02*
X107724438Y-85665237D01*
X107724438Y-85665237D02*
X107676819Y-85522380D01*
X107676819Y-85522380D02*
X107676819Y-85427142D01*
X107676819Y-85427142D02*
X107724438Y-85284285D01*
X107724438Y-85284285D02*
X107772057Y-85236666D01*
X107676819Y-84379523D02*
X107676819Y-84569999D01*
X107676819Y-84569999D02*
X107724438Y-84665237D01*
X107724438Y-84665237D02*
X107772057Y-84712856D01*
X107772057Y-84712856D02*
X107914914Y-84808094D01*
X107914914Y-84808094D02*
X108105390Y-84855713D01*
X108105390Y-84855713D02*
X108486342Y-84855713D01*
X108486342Y-84855713D02*
X108581580Y-84808094D01*
X108581580Y-84808094D02*
X108629200Y-84760475D01*
X108629200Y-84760475D02*
X108676819Y-84665237D01*
X108676819Y-84665237D02*
X108676819Y-84474761D01*
X108676819Y-84474761D02*
X108629200Y-84379523D01*
X108629200Y-84379523D02*
X108581580Y-84331904D01*
X108581580Y-84331904D02*
X108486342Y-84284285D01*
X108486342Y-84284285D02*
X108248247Y-84284285D01*
X108248247Y-84284285D02*
X108153009Y-84331904D01*
X108153009Y-84331904D02*
X108105390Y-84379523D01*
X108105390Y-84379523D02*
X108057771Y-84474761D01*
X108057771Y-84474761D02*
X108057771Y-84665237D01*
X108057771Y-84665237D02*
X108105390Y-84760475D01*
X108105390Y-84760475D02*
X108153009Y-84808094D01*
X108153009Y-84808094D02*
X108248247Y-84855713D01*
X131366666Y-99494819D02*
X131366666Y-100209104D01*
X131366666Y-100209104D02*
X131319047Y-100351961D01*
X131319047Y-100351961D02*
X131223809Y-100447200D01*
X131223809Y-100447200D02*
X131080952Y-100494819D01*
X131080952Y-100494819D02*
X130985714Y-100494819D01*
X131842857Y-100494819D02*
X131842857Y-99494819D01*
X131842857Y-99494819D02*
X132223809Y-99494819D01*
X132223809Y-99494819D02*
X132319047Y-99542438D01*
X132319047Y-99542438D02*
X132366666Y-99590057D01*
X132366666Y-99590057D02*
X132414285Y-99685295D01*
X132414285Y-99685295D02*
X132414285Y-99828152D01*
X132414285Y-99828152D02*
X132366666Y-99923390D01*
X132366666Y-99923390D02*
X132319047Y-99971009D01*
X132319047Y-99971009D02*
X132223809Y-100018628D01*
X132223809Y-100018628D02*
X131842857Y-100018628D01*
X133366666Y-100494819D02*
X132795238Y-100494819D01*
X133080952Y-100494819D02*
X133080952Y-99494819D01*
X133080952Y-99494819D02*
X132985714Y-99637676D01*
X132985714Y-99637676D02*
X132890476Y-99732914D01*
X132890476Y-99732914D02*
X132795238Y-99780533D01*
X140752819Y-103232666D02*
X140276628Y-103565999D01*
X140752819Y-103804094D02*
X139752819Y-103804094D01*
X139752819Y-103804094D02*
X139752819Y-103423142D01*
X139752819Y-103423142D02*
X139800438Y-103327904D01*
X139800438Y-103327904D02*
X139848057Y-103280285D01*
X139848057Y-103280285D02*
X139943295Y-103232666D01*
X139943295Y-103232666D02*
X140086152Y-103232666D01*
X140086152Y-103232666D02*
X140181390Y-103280285D01*
X140181390Y-103280285D02*
X140229009Y-103327904D01*
X140229009Y-103327904D02*
X140276628Y-103423142D01*
X140276628Y-103423142D02*
X140276628Y-103804094D01*
X139752819Y-102327904D02*
X139752819Y-102804094D01*
X139752819Y-102804094D02*
X140229009Y-102851713D01*
X140229009Y-102851713D02*
X140181390Y-102804094D01*
X140181390Y-102804094D02*
X140133771Y-102708856D01*
X140133771Y-102708856D02*
X140133771Y-102470761D01*
X140133771Y-102470761D02*
X140181390Y-102375523D01*
X140181390Y-102375523D02*
X140229009Y-102327904D01*
X140229009Y-102327904D02*
X140324247Y-102280285D01*
X140324247Y-102280285D02*
X140562342Y-102280285D01*
X140562342Y-102280285D02*
X140657580Y-102327904D01*
X140657580Y-102327904D02*
X140705200Y-102375523D01*
X140705200Y-102375523D02*
X140752819Y-102470761D01*
X140752819Y-102470761D02*
X140752819Y-102708856D01*
X140752819Y-102708856D02*
X140705200Y-102804094D01*
X140705200Y-102804094D02*
X140657580Y-102851713D01*
X147737905Y-89022599D02*
X147737905Y-88022599D01*
X147737905Y-88022599D02*
X147976000Y-88022599D01*
X147976000Y-88022599D02*
X148118857Y-88070218D01*
X148118857Y-88070218D02*
X148214095Y-88165456D01*
X148214095Y-88165456D02*
X148261714Y-88260694D01*
X148261714Y-88260694D02*
X148309333Y-88451170D01*
X148309333Y-88451170D02*
X148309333Y-88594027D01*
X148309333Y-88594027D02*
X148261714Y-88784503D01*
X148261714Y-88784503D02*
X148214095Y-88879741D01*
X148214095Y-88879741D02*
X148118857Y-88974980D01*
X148118857Y-88974980D02*
X147976000Y-89022599D01*
X147976000Y-89022599D02*
X147737905Y-89022599D01*
X149261714Y-89022599D02*
X148690286Y-89022599D01*
X148976000Y-89022599D02*
X148976000Y-88022599D01*
X148976000Y-88022599D02*
X148880762Y-88165456D01*
X148880762Y-88165456D02*
X148785524Y-88260694D01*
X148785524Y-88260694D02*
X148690286Y-88308313D01*
X97578628Y-99126190D02*
X98054819Y-99126190D01*
X97054819Y-99459523D02*
X97578628Y-99126190D01*
X97578628Y-99126190D02*
X97054819Y-98792857D01*
X98054819Y-97935714D02*
X98054819Y-98507142D01*
X98054819Y-98221428D02*
X97054819Y-98221428D01*
X97054819Y-98221428D02*
X97197676Y-98316666D01*
X97197676Y-98316666D02*
X97292914Y-98411904D01*
X97292914Y-98411904D02*
X97340533Y-98507142D01*
X152704819Y-103922446D02*
X152228628Y-104255779D01*
X152704819Y-104493874D02*
X151704819Y-104493874D01*
X151704819Y-104493874D02*
X151704819Y-104112922D01*
X151704819Y-104112922D02*
X151752438Y-104017684D01*
X151752438Y-104017684D02*
X151800057Y-103970065D01*
X151800057Y-103970065D02*
X151895295Y-103922446D01*
X151895295Y-103922446D02*
X152038152Y-103922446D01*
X152038152Y-103922446D02*
X152133390Y-103970065D01*
X152133390Y-103970065D02*
X152181009Y-104017684D01*
X152181009Y-104017684D02*
X152228628Y-104112922D01*
X152228628Y-104112922D02*
X152228628Y-104493874D01*
X151704819Y-103589112D02*
X151704819Y-102970065D01*
X151704819Y-102970065D02*
X152085771Y-103303398D01*
X152085771Y-103303398D02*
X152085771Y-103160541D01*
X152085771Y-103160541D02*
X152133390Y-103065303D01*
X152133390Y-103065303D02*
X152181009Y-103017684D01*
X152181009Y-103017684D02*
X152276247Y-102970065D01*
X152276247Y-102970065D02*
X152514342Y-102970065D01*
X152514342Y-102970065D02*
X152609580Y-103017684D01*
X152609580Y-103017684D02*
X152657200Y-103065303D01*
X152657200Y-103065303D02*
X152704819Y-103160541D01*
X152704819Y-103160541D02*
X152704819Y-103446255D01*
X152704819Y-103446255D02*
X152657200Y-103541493D01*
X152657200Y-103541493D02*
X152609580Y-103589112D01*
X135583905Y-89082819D02*
X135583905Y-88082819D01*
X135583905Y-88082819D02*
X135822000Y-88082819D01*
X135822000Y-88082819D02*
X135964857Y-88130438D01*
X135964857Y-88130438D02*
X136060095Y-88225676D01*
X136060095Y-88225676D02*
X136107714Y-88320914D01*
X136107714Y-88320914D02*
X136155333Y-88511390D01*
X136155333Y-88511390D02*
X136155333Y-88654247D01*
X136155333Y-88654247D02*
X136107714Y-88844723D01*
X136107714Y-88844723D02*
X136060095Y-88939961D01*
X136060095Y-88939961D02*
X135964857Y-89035200D01*
X135964857Y-89035200D02*
X135822000Y-89082819D01*
X135822000Y-89082819D02*
X135583905Y-89082819D01*
X136488667Y-88082819D02*
X137107714Y-88082819D01*
X137107714Y-88082819D02*
X136774381Y-88463771D01*
X136774381Y-88463771D02*
X136917238Y-88463771D01*
X136917238Y-88463771D02*
X137012476Y-88511390D01*
X137012476Y-88511390D02*
X137060095Y-88559009D01*
X137060095Y-88559009D02*
X137107714Y-88654247D01*
X137107714Y-88654247D02*
X137107714Y-88892342D01*
X137107714Y-88892342D02*
X137060095Y-88987580D01*
X137060095Y-88987580D02*
X137012476Y-89035200D01*
X137012476Y-89035200D02*
X136917238Y-89082819D01*
X136917238Y-89082819D02*
X136631524Y-89082819D01*
X136631524Y-89082819D02*
X136536286Y-89035200D01*
X136536286Y-89035200D02*
X136488667Y-88987580D01*
X97218667Y-72865200D02*
X97361524Y-72912819D01*
X97361524Y-72912819D02*
X97599619Y-72912819D01*
X97599619Y-72912819D02*
X97694857Y-72865200D01*
X97694857Y-72865200D02*
X97742476Y-72817580D01*
X97742476Y-72817580D02*
X97790095Y-72722342D01*
X97790095Y-72722342D02*
X97790095Y-72627104D01*
X97790095Y-72627104D02*
X97742476Y-72531866D01*
X97742476Y-72531866D02*
X97694857Y-72484247D01*
X97694857Y-72484247D02*
X97599619Y-72436628D01*
X97599619Y-72436628D02*
X97409143Y-72389009D01*
X97409143Y-72389009D02*
X97313905Y-72341390D01*
X97313905Y-72341390D02*
X97266286Y-72293771D01*
X97266286Y-72293771D02*
X97218667Y-72198533D01*
X97218667Y-72198533D02*
X97218667Y-72103295D01*
X97218667Y-72103295D02*
X97266286Y-72008057D01*
X97266286Y-72008057D02*
X97313905Y-71960438D01*
X97313905Y-71960438D02*
X97409143Y-71912819D01*
X97409143Y-71912819D02*
X97647238Y-71912819D01*
X97647238Y-71912819D02*
X97790095Y-71960438D01*
X98123429Y-71912819D02*
X98361524Y-72912819D01*
X98361524Y-72912819D02*
X98552000Y-72198533D01*
X98552000Y-72198533D02*
X98742476Y-72912819D01*
X98742476Y-72912819D02*
X98980572Y-71912819D01*
X99885333Y-72912819D02*
X99313905Y-72912819D01*
X99599619Y-72912819D02*
X99599619Y-71912819D01*
X99599619Y-71912819D02*
X99504381Y-72055676D01*
X99504381Y-72055676D02*
X99409143Y-72150914D01*
X99409143Y-72150914D02*
X99313905Y-72198533D01*
X125983333Y-92209580D02*
X125935714Y-92257200D01*
X125935714Y-92257200D02*
X125792857Y-92304819D01*
X125792857Y-92304819D02*
X125697619Y-92304819D01*
X125697619Y-92304819D02*
X125554762Y-92257200D01*
X125554762Y-92257200D02*
X125459524Y-92161961D01*
X125459524Y-92161961D02*
X125411905Y-92066723D01*
X125411905Y-92066723D02*
X125364286Y-91876247D01*
X125364286Y-91876247D02*
X125364286Y-91733390D01*
X125364286Y-91733390D02*
X125411905Y-91542914D01*
X125411905Y-91542914D02*
X125459524Y-91447676D01*
X125459524Y-91447676D02*
X125554762Y-91352438D01*
X125554762Y-91352438D02*
X125697619Y-91304819D01*
X125697619Y-91304819D02*
X125792857Y-91304819D01*
X125792857Y-91304819D02*
X125935714Y-91352438D01*
X125935714Y-91352438D02*
X125983333Y-91400057D01*
X126316667Y-91304819D02*
X126983333Y-91304819D01*
X126983333Y-91304819D02*
X126554762Y-92304819D01*
X100417580Y-68766666D02*
X100465200Y-68814285D01*
X100465200Y-68814285D02*
X100512819Y-68957142D01*
X100512819Y-68957142D02*
X100512819Y-69052380D01*
X100512819Y-69052380D02*
X100465200Y-69195237D01*
X100465200Y-69195237D02*
X100369961Y-69290475D01*
X100369961Y-69290475D02*
X100274723Y-69338094D01*
X100274723Y-69338094D02*
X100084247Y-69385713D01*
X100084247Y-69385713D02*
X99941390Y-69385713D01*
X99941390Y-69385713D02*
X99750914Y-69338094D01*
X99750914Y-69338094D02*
X99655676Y-69290475D01*
X99655676Y-69290475D02*
X99560438Y-69195237D01*
X99560438Y-69195237D02*
X99512819Y-69052380D01*
X99512819Y-69052380D02*
X99512819Y-68957142D01*
X99512819Y-68957142D02*
X99560438Y-68814285D01*
X99560438Y-68814285D02*
X99608057Y-68766666D01*
X100512819Y-67814285D02*
X100512819Y-68385713D01*
X100512819Y-68099999D02*
X99512819Y-68099999D01*
X99512819Y-68099999D02*
X99655676Y-68195237D01*
X99655676Y-68195237D02*
X99750914Y-68290475D01*
X99750914Y-68290475D02*
X99798533Y-68385713D01*
X105601333Y-81203580D02*
X105553714Y-81251200D01*
X105553714Y-81251200D02*
X105410857Y-81298819D01*
X105410857Y-81298819D02*
X105315619Y-81298819D01*
X105315619Y-81298819D02*
X105172762Y-81251200D01*
X105172762Y-81251200D02*
X105077524Y-81155961D01*
X105077524Y-81155961D02*
X105029905Y-81060723D01*
X105029905Y-81060723D02*
X104982286Y-80870247D01*
X104982286Y-80870247D02*
X104982286Y-80727390D01*
X104982286Y-80727390D02*
X105029905Y-80536914D01*
X105029905Y-80536914D02*
X105077524Y-80441676D01*
X105077524Y-80441676D02*
X105172762Y-80346438D01*
X105172762Y-80346438D02*
X105315619Y-80298819D01*
X105315619Y-80298819D02*
X105410857Y-80298819D01*
X105410857Y-80298819D02*
X105553714Y-80346438D01*
X105553714Y-80346438D02*
X105601333Y-80394057D01*
X105982286Y-80394057D02*
X106029905Y-80346438D01*
X106029905Y-80346438D02*
X106125143Y-80298819D01*
X106125143Y-80298819D02*
X106363238Y-80298819D01*
X106363238Y-80298819D02*
X106458476Y-80346438D01*
X106458476Y-80346438D02*
X106506095Y-80394057D01*
X106506095Y-80394057D02*
X106553714Y-80489295D01*
X106553714Y-80489295D02*
X106553714Y-80584533D01*
X106553714Y-80584533D02*
X106506095Y-80727390D01*
X106506095Y-80727390D02*
X105934667Y-81298819D01*
X105934667Y-81298819D02*
X106553714Y-81298819D01*
X158604819Y-104408857D02*
X158128628Y-104742190D01*
X158604819Y-104980285D02*
X157604819Y-104980285D01*
X157604819Y-104980285D02*
X157604819Y-104599333D01*
X157604819Y-104599333D02*
X157652438Y-104504095D01*
X157652438Y-104504095D02*
X157700057Y-104456476D01*
X157700057Y-104456476D02*
X157795295Y-104408857D01*
X157795295Y-104408857D02*
X157938152Y-104408857D01*
X157938152Y-104408857D02*
X158033390Y-104456476D01*
X158033390Y-104456476D02*
X158081009Y-104504095D01*
X158081009Y-104504095D02*
X158128628Y-104599333D01*
X158128628Y-104599333D02*
X158128628Y-104980285D01*
X157700057Y-104027904D02*
X157652438Y-103980285D01*
X157652438Y-103980285D02*
X157604819Y-103885047D01*
X157604819Y-103885047D02*
X157604819Y-103646952D01*
X157604819Y-103646952D02*
X157652438Y-103551714D01*
X157652438Y-103551714D02*
X157700057Y-103504095D01*
X157700057Y-103504095D02*
X157795295Y-103456476D01*
X157795295Y-103456476D02*
X157890533Y-103456476D01*
X157890533Y-103456476D02*
X158033390Y-103504095D01*
X158033390Y-103504095D02*
X158604819Y-104075523D01*
X158604819Y-104075523D02*
X158604819Y-103456476D01*
X157938152Y-102599333D02*
X158604819Y-102599333D01*
X157557200Y-102837428D02*
X158271485Y-103075523D01*
X158271485Y-103075523D02*
X158271485Y-102456476D01*
X146704819Y-104472666D02*
X146228628Y-104805999D01*
X146704819Y-105044094D02*
X145704819Y-105044094D01*
X145704819Y-105044094D02*
X145704819Y-104663142D01*
X145704819Y-104663142D02*
X145752438Y-104567904D01*
X145752438Y-104567904D02*
X145800057Y-104520285D01*
X145800057Y-104520285D02*
X145895295Y-104472666D01*
X145895295Y-104472666D02*
X146038152Y-104472666D01*
X146038152Y-104472666D02*
X146133390Y-104520285D01*
X146133390Y-104520285D02*
X146181009Y-104567904D01*
X146181009Y-104567904D02*
X146228628Y-104663142D01*
X146228628Y-104663142D02*
X146228628Y-105044094D01*
X146038152Y-103615523D02*
X146704819Y-103615523D01*
X145657200Y-103853618D02*
X146371485Y-104091713D01*
X146371485Y-104091713D02*
X146371485Y-103472666D01*
X108630819Y-62563333D02*
X109345104Y-62563333D01*
X109345104Y-62563333D02*
X109487961Y-62610952D01*
X109487961Y-62610952D02*
X109583200Y-62706190D01*
X109583200Y-62706190D02*
X109630819Y-62849047D01*
X109630819Y-62849047D02*
X109630819Y-62944285D01*
X108726057Y-62134761D02*
X108678438Y-62087142D01*
X108678438Y-62087142D02*
X108630819Y-61991904D01*
X108630819Y-61991904D02*
X108630819Y-61753809D01*
X108630819Y-61753809D02*
X108678438Y-61658571D01*
X108678438Y-61658571D02*
X108726057Y-61610952D01*
X108726057Y-61610952D02*
X108821295Y-61563333D01*
X108821295Y-61563333D02*
X108916533Y-61563333D01*
X108916533Y-61563333D02*
X109059390Y-61610952D01*
X109059390Y-61610952D02*
X109630819Y-62182380D01*
X109630819Y-62182380D02*
X109630819Y-61563333D01*
X102721580Y-63855778D02*
X102769200Y-63903397D01*
X102769200Y-63903397D02*
X102816819Y-64046254D01*
X102816819Y-64046254D02*
X102816819Y-64141492D01*
X102816819Y-64141492D02*
X102769200Y-64284349D01*
X102769200Y-64284349D02*
X102673961Y-64379587D01*
X102673961Y-64379587D02*
X102578723Y-64427206D01*
X102578723Y-64427206D02*
X102388247Y-64474825D01*
X102388247Y-64474825D02*
X102245390Y-64474825D01*
X102245390Y-64474825D02*
X102054914Y-64427206D01*
X102054914Y-64427206D02*
X101959676Y-64379587D01*
X101959676Y-64379587D02*
X101864438Y-64284349D01*
X101864438Y-64284349D02*
X101816819Y-64141492D01*
X101816819Y-64141492D02*
X101816819Y-64046254D01*
X101816819Y-64046254D02*
X101864438Y-63903397D01*
X101864438Y-63903397D02*
X101912057Y-63855778D01*
X101816819Y-62951016D02*
X101816819Y-63427206D01*
X101816819Y-63427206D02*
X102293009Y-63474825D01*
X102293009Y-63474825D02*
X102245390Y-63427206D01*
X102245390Y-63427206D02*
X102197771Y-63331968D01*
X102197771Y-63331968D02*
X102197771Y-63093873D01*
X102197771Y-63093873D02*
X102245390Y-62998635D01*
X102245390Y-62998635D02*
X102293009Y-62951016D01*
X102293009Y-62951016D02*
X102388247Y-62903397D01*
X102388247Y-62903397D02*
X102626342Y-62903397D01*
X102626342Y-62903397D02*
X102721580Y-62951016D01*
X102721580Y-62951016D02*
X102769200Y-62998635D01*
X102769200Y-62998635D02*
X102816819Y-63093873D01*
X102816819Y-63093873D02*
X102816819Y-63331968D01*
X102816819Y-63331968D02*
X102769200Y-63427206D01*
X102769200Y-63427206D02*
X102721580Y-63474825D01*
X91273333Y-72844819D02*
X90940000Y-72368628D01*
X90701905Y-72844819D02*
X90701905Y-71844819D01*
X90701905Y-71844819D02*
X91082857Y-71844819D01*
X91082857Y-71844819D02*
X91178095Y-71892438D01*
X91178095Y-71892438D02*
X91225714Y-71940057D01*
X91225714Y-71940057D02*
X91273333Y-72035295D01*
X91273333Y-72035295D02*
X91273333Y-72178152D01*
X91273333Y-72178152D02*
X91225714Y-72273390D01*
X91225714Y-72273390D02*
X91178095Y-72321009D01*
X91178095Y-72321009D02*
X91082857Y-72368628D01*
X91082857Y-72368628D02*
X90701905Y-72368628D01*
X92225714Y-72844819D02*
X91654286Y-72844819D01*
X91940000Y-72844819D02*
X91940000Y-71844819D01*
X91940000Y-71844819D02*
X91844762Y-71987676D01*
X91844762Y-71987676D02*
X91749524Y-72082914D01*
X91749524Y-72082914D02*
X91654286Y-72130533D01*
X90133333Y-90259580D02*
X90085714Y-90307200D01*
X90085714Y-90307200D02*
X89942857Y-90354819D01*
X89942857Y-90354819D02*
X89847619Y-90354819D01*
X89847619Y-90354819D02*
X89704762Y-90307200D01*
X89704762Y-90307200D02*
X89609524Y-90211961D01*
X89609524Y-90211961D02*
X89561905Y-90116723D01*
X89561905Y-90116723D02*
X89514286Y-89926247D01*
X89514286Y-89926247D02*
X89514286Y-89783390D01*
X89514286Y-89783390D02*
X89561905Y-89592914D01*
X89561905Y-89592914D02*
X89609524Y-89497676D01*
X89609524Y-89497676D02*
X89704762Y-89402438D01*
X89704762Y-89402438D02*
X89847619Y-89354819D01*
X89847619Y-89354819D02*
X89942857Y-89354819D01*
X89942857Y-89354819D02*
X90085714Y-89402438D01*
X90085714Y-89402438D02*
X90133333Y-89450057D01*
X90990476Y-89688152D02*
X90990476Y-90354819D01*
X90752381Y-89307200D02*
X90514286Y-90021485D01*
X90514286Y-90021485D02*
X91133333Y-90021485D01*
X155061905Y-89054819D02*
X155061905Y-88054819D01*
X155061905Y-88054819D02*
X155300000Y-88054819D01*
X155300000Y-88054819D02*
X155442857Y-88102438D01*
X155442857Y-88102438D02*
X155538095Y-88197676D01*
X155538095Y-88197676D02*
X155585714Y-88292914D01*
X155585714Y-88292914D02*
X155633333Y-88483390D01*
X155633333Y-88483390D02*
X155633333Y-88626247D01*
X155633333Y-88626247D02*
X155585714Y-88816723D01*
X155585714Y-88816723D02*
X155538095Y-88911961D01*
X155538095Y-88911961D02*
X155442857Y-89007200D01*
X155442857Y-89007200D02*
X155300000Y-89054819D01*
X155300000Y-89054819D02*
X155061905Y-89054819D01*
X156490476Y-88388152D02*
X156490476Y-89054819D01*
X156252381Y-88007200D02*
X156014286Y-88721485D01*
X156014286Y-88721485D02*
X156633333Y-88721485D01*
X89811333Y-95059580D02*
X89763714Y-95107200D01*
X89763714Y-95107200D02*
X89620857Y-95154819D01*
X89620857Y-95154819D02*
X89525619Y-95154819D01*
X89525619Y-95154819D02*
X89382762Y-95107200D01*
X89382762Y-95107200D02*
X89287524Y-95011961D01*
X89287524Y-95011961D02*
X89239905Y-94916723D01*
X89239905Y-94916723D02*
X89192286Y-94726247D01*
X89192286Y-94726247D02*
X89192286Y-94583390D01*
X89192286Y-94583390D02*
X89239905Y-94392914D01*
X89239905Y-94392914D02*
X89287524Y-94297676D01*
X89287524Y-94297676D02*
X89382762Y-94202438D01*
X89382762Y-94202438D02*
X89525619Y-94154819D01*
X89525619Y-94154819D02*
X89620857Y-94154819D01*
X89620857Y-94154819D02*
X89763714Y-94202438D01*
X89763714Y-94202438D02*
X89811333Y-94250057D01*
X90144667Y-94154819D02*
X90763714Y-94154819D01*
X90763714Y-94154819D02*
X90430381Y-94535771D01*
X90430381Y-94535771D02*
X90573238Y-94535771D01*
X90573238Y-94535771D02*
X90668476Y-94583390D01*
X90668476Y-94583390D02*
X90716095Y-94631009D01*
X90716095Y-94631009D02*
X90763714Y-94726247D01*
X90763714Y-94726247D02*
X90763714Y-94964342D01*
X90763714Y-94964342D02*
X90716095Y-95059580D01*
X90716095Y-95059580D02*
X90668476Y-95107200D01*
X90668476Y-95107200D02*
X90573238Y-95154819D01*
X90573238Y-95154819D02*
X90287524Y-95154819D01*
X90287524Y-95154819D02*
X90192286Y-95107200D01*
X90192286Y-95107200D02*
X90144667Y-95059580D01*
X87804666Y-66002819D02*
X87804666Y-66717104D01*
X87804666Y-66717104D02*
X87757047Y-66859961D01*
X87757047Y-66859961D02*
X87661809Y-66955200D01*
X87661809Y-66955200D02*
X87518952Y-67002819D01*
X87518952Y-67002819D02*
X87423714Y-67002819D01*
X88804666Y-67002819D02*
X88233238Y-67002819D01*
X88518952Y-67002819D02*
X88518952Y-66002819D01*
X88518952Y-66002819D02*
X88423714Y-66145676D01*
X88423714Y-66145676D02*
X88328476Y-66240914D01*
X88328476Y-66240914D02*
X88233238Y-66288533D01*
X143361905Y-89082819D02*
X143361905Y-88082819D01*
X143361905Y-88082819D02*
X143600000Y-88082819D01*
X143600000Y-88082819D02*
X143742857Y-88130438D01*
X143742857Y-88130438D02*
X143838095Y-88225676D01*
X143838095Y-88225676D02*
X143885714Y-88320914D01*
X143885714Y-88320914D02*
X143933333Y-88511390D01*
X143933333Y-88511390D02*
X143933333Y-88654247D01*
X143933333Y-88654247D02*
X143885714Y-88844723D01*
X143885714Y-88844723D02*
X143838095Y-88939961D01*
X143838095Y-88939961D02*
X143742857Y-89035200D01*
X143742857Y-89035200D02*
X143600000Y-89082819D01*
X143600000Y-89082819D02*
X143361905Y-89082819D01*
X144314286Y-88178057D02*
X144361905Y-88130438D01*
X144361905Y-88130438D02*
X144457143Y-88082819D01*
X144457143Y-88082819D02*
X144695238Y-88082819D01*
X144695238Y-88082819D02*
X144790476Y-88130438D01*
X144790476Y-88130438D02*
X144838095Y-88178057D01*
X144838095Y-88178057D02*
X144885714Y-88273295D01*
X144885714Y-88273295D02*
X144885714Y-88368533D01*
X144885714Y-88368533D02*
X144838095Y-88511390D01*
X144838095Y-88511390D02*
X144266667Y-89082819D01*
X144266667Y-89082819D02*
X144885714Y-89082819D01*
D11*
%TO.C,J3*%
X123420000Y-92720000D02*
X124800000Y-92720000D01*
X123420000Y-94100000D02*
X123420000Y-92720000D01*
X123420000Y-95370000D02*
X123420000Y-105640000D01*
X123420000Y-95370000D02*
X126070000Y-95370000D01*
X123420000Y-105640000D02*
X128720000Y-105640000D01*
X126070000Y-92720000D02*
X128720000Y-92720000D01*
X126070000Y-95370000D02*
X126070000Y-92720000D01*
X128720000Y-92720000D02*
X128720000Y-105640000D01*
%TO.C,U1*%
X112422000Y-70054000D02*
X112422000Y-105734000D01*
X112422000Y-105734000D02*
X117722000Y-105734000D01*
X114072000Y-70054000D02*
X112422000Y-70054000D01*
X117722000Y-70054000D02*
X116072000Y-70054000D01*
X117722000Y-105734000D02*
X117722000Y-70054000D01*
X116072000Y-70054000D02*
G75*
G02*
X114072000Y-70054000I-1000000J0D01*
G01*
%TO.C,C6*%
X105252000Y-84305000D02*
X105252000Y-85835000D01*
X107092000Y-84305000D02*
X107092000Y-85835000D01*
%TO.C,JP1*%
X130830000Y-90420000D02*
X131160000Y-90420000D01*
X130830000Y-96960000D02*
X130830000Y-90420000D01*
X131160000Y-96960000D02*
X130830000Y-96960000D01*
X133240000Y-96960000D02*
X133570000Y-96960000D01*
X133570000Y-90420000D02*
X133240000Y-90420000D01*
X133570000Y-96960000D02*
X133570000Y-90420000D01*
%TO.C,R8*%
X124238000Y-75846000D02*
X130778000Y-75846000D01*
X124238000Y-76176000D02*
X124238000Y-75846000D01*
X124238000Y-78256000D02*
X124238000Y-78586000D01*
X124238000Y-78586000D02*
X130778000Y-78586000D01*
X130778000Y-75846000D02*
X130778000Y-76176000D01*
X130778000Y-78586000D02*
X130778000Y-78256000D01*
%TO.C,R5*%
X136778000Y-97296000D02*
X136778000Y-103836000D01*
X136778000Y-103836000D02*
X137108000Y-103836000D01*
X137108000Y-97296000D02*
X136778000Y-97296000D01*
X139188000Y-97296000D02*
X139518000Y-97296000D01*
X139518000Y-97296000D02*
X139518000Y-103836000D01*
X139518000Y-103836000D02*
X139188000Y-103836000D01*
%TO.C,D1*%
X148920000Y-90309780D02*
X148764000Y-90309780D01*
X151236000Y-90309780D02*
X151080000Y-90309780D01*
X148920000Y-92910741D02*
G75*
G02*
X148920000Y-90828819I1080000J1040961D01*
G01*
X148920000Y-93541217D02*
G75*
G02*
X148764484Y-90309780I1080000J1671437D01*
G01*
X151080000Y-90828819D02*
G75*
G02*
X151080000Y-92910741I-1080000J-1040961D01*
G01*
X151235516Y-90309780D02*
G75*
G02*
X151080000Y-93541217I-1235516J-1560000D01*
G01*
%TO.C,Y1*%
X98665000Y-90940000D02*
X98665000Y-97340000D01*
X103535000Y-90940000D02*
X103535000Y-97340000D01*
X98665000Y-90940000D02*
G75*
G02*
X103535000Y-90940000I2435000J0D01*
G01*
X103535000Y-97340000D02*
G75*
G02*
X98665000Y-97340000I-2435000J0D01*
G01*
%TO.C,R9*%
X124238000Y-80164000D02*
X130778000Y-80164000D01*
X124238000Y-80494000D02*
X124238000Y-80164000D01*
X124238000Y-82574000D02*
X124238000Y-82904000D01*
X124238000Y-82904000D02*
X130778000Y-82904000D01*
X130778000Y-80164000D02*
X130778000Y-80494000D01*
X130778000Y-82904000D02*
X130778000Y-82574000D01*
%TO.C,R23*%
X155602000Y-78518000D02*
X155932000Y-78518000D01*
X155602000Y-85058000D02*
X155602000Y-78518000D01*
X155932000Y-85058000D02*
X155602000Y-85058000D01*
X158012000Y-85058000D02*
X158342000Y-85058000D01*
X158342000Y-78518000D02*
X158012000Y-78518000D01*
X158342000Y-85058000D02*
X158342000Y-78518000D01*
%TO.C,R12*%
X135160000Y-66702000D02*
X141700000Y-66702000D01*
X135160000Y-67032000D02*
X135160000Y-66702000D01*
X135160000Y-69112000D02*
X135160000Y-69442000D01*
X135160000Y-69442000D02*
X141700000Y-69442000D01*
X141700000Y-66702000D02*
X141700000Y-67032000D01*
X141700000Y-69442000D02*
X141700000Y-69112000D01*
%TO.C,R21*%
X146082000Y-80164000D02*
X146082000Y-80494000D01*
X146082000Y-82904000D02*
X146082000Y-82574000D01*
X152622000Y-80164000D02*
X146082000Y-80164000D01*
X152622000Y-80494000D02*
X152622000Y-80164000D01*
X152622000Y-82574000D02*
X152622000Y-82904000D01*
X152622000Y-82904000D02*
X146082000Y-82904000D01*
%TO.C,R18*%
X146082000Y-66702000D02*
X146082000Y-67032000D01*
X146082000Y-69442000D02*
X146082000Y-69112000D01*
X152622000Y-66702000D02*
X146082000Y-66702000D01*
X152622000Y-67032000D02*
X152622000Y-66702000D01*
X152622000Y-69112000D02*
X152622000Y-69442000D01*
X152622000Y-69442000D02*
X146082000Y-69442000D01*
%TO.C,R3*%
X148630000Y-97235780D02*
X148630000Y-103775780D01*
X148630000Y-103775780D02*
X148960000Y-103775780D01*
X148960000Y-97235780D02*
X148630000Y-97235780D01*
X151040000Y-97235780D02*
X151370000Y-97235780D01*
X151370000Y-97235780D02*
X151370000Y-103775780D01*
X151370000Y-103775780D02*
X151040000Y-103775780D01*
%TO.C,R6*%
X124238000Y-66702000D02*
X130778000Y-66702000D01*
X124238000Y-67032000D02*
X124238000Y-66702000D01*
X124238000Y-69112000D02*
X124238000Y-69442000D01*
X124238000Y-69442000D02*
X130778000Y-69442000D01*
X130778000Y-66702000D02*
X130778000Y-67032000D01*
X130778000Y-69442000D02*
X130778000Y-69112000D01*
%TO.C,D3*%
X137020000Y-90370000D02*
X136864000Y-90370000D01*
X139336000Y-90370000D02*
X139180000Y-90370000D01*
X137020000Y-92970961D02*
G75*
G02*
X137020000Y-90889039I1080000J1040961D01*
G01*
X137020000Y-93601437D02*
G75*
G02*
X136864484Y-90370000I1080000J1671437D01*
G01*
X139180000Y-90889039D02*
G75*
G02*
X139180000Y-92970961I-1080000J-1040961D01*
G01*
X139335516Y-90370000D02*
G75*
G02*
X139180000Y-93601437I-1235516J-1560000D01*
G01*
%TO.C,R19*%
X146082000Y-71528000D02*
X146082000Y-71858000D01*
X146082000Y-74268000D02*
X146082000Y-73938000D01*
X152622000Y-71528000D02*
X146082000Y-71528000D01*
X152622000Y-71858000D02*
X152622000Y-71528000D01*
X152622000Y-73938000D02*
X152622000Y-74268000D01*
X152622000Y-74268000D02*
X146082000Y-74268000D01*
%TO.C,R16*%
X135160000Y-84228000D02*
X141700000Y-84228000D01*
X135160000Y-84558000D02*
X135160000Y-84228000D01*
X135160000Y-86638000D02*
X135160000Y-86968000D01*
X135160000Y-86968000D02*
X141700000Y-86968000D01*
X141700000Y-84228000D02*
X141700000Y-84558000D01*
X141700000Y-86968000D02*
X141700000Y-86638000D01*
%TO.C,R20*%
X146082000Y-75846000D02*
X146082000Y-76176000D01*
X146082000Y-78586000D02*
X146082000Y-78256000D01*
X152622000Y-75846000D02*
X146082000Y-75846000D01*
X152622000Y-76176000D02*
X152622000Y-75846000D01*
X152622000Y-78256000D02*
X152622000Y-78586000D01*
X152622000Y-78586000D02*
X146082000Y-78586000D01*
%TO.C,R7*%
X124238000Y-71528000D02*
X130778000Y-71528000D01*
X124238000Y-71858000D02*
X124238000Y-71528000D01*
X124238000Y-73938000D02*
X124238000Y-74268000D01*
X124238000Y-74268000D02*
X130778000Y-74268000D01*
X130778000Y-71528000D02*
X130778000Y-71858000D01*
X130778000Y-74268000D02*
X130778000Y-73938000D01*
%TO.C,R11*%
X135160000Y-62638000D02*
X141700000Y-62638000D01*
X135160000Y-62968000D02*
X135160000Y-62638000D01*
X135160000Y-65048000D02*
X135160000Y-65378000D01*
X135160000Y-65378000D02*
X141700000Y-65378000D01*
X141700000Y-62638000D02*
X141700000Y-62968000D01*
X141700000Y-65378000D02*
X141700000Y-65048000D01*
%TO.C,SW1*%
X95052000Y-75958000D02*
X95052000Y-77458000D01*
X96302000Y-79958000D02*
X100802000Y-79958000D01*
X100802000Y-73458000D02*
X96302000Y-73458000D01*
X102052000Y-77458000D02*
X102052000Y-75958000D01*
%TO.C,R14*%
X135160000Y-75846000D02*
X141700000Y-75846000D01*
X135160000Y-76176000D02*
X135160000Y-75846000D01*
X135160000Y-78256000D02*
X135160000Y-78586000D01*
X135160000Y-78586000D02*
X141700000Y-78586000D01*
X141700000Y-75846000D02*
X141700000Y-76176000D01*
X141700000Y-78586000D02*
X141700000Y-78256000D01*
%TO.C,C7*%
X126915000Y-88880000D02*
X125385000Y-88880000D01*
X126915000Y-90720000D02*
X125385000Y-90720000D01*
%TO.C,C1*%
X101188000Y-69365000D02*
X101188000Y-67835000D01*
X103028000Y-69365000D02*
X103028000Y-67835000D01*
%TO.C,R13*%
X135160000Y-71528000D02*
X141700000Y-71528000D01*
X135160000Y-71858000D02*
X135160000Y-71528000D01*
X135160000Y-73938000D02*
X135160000Y-74268000D01*
X135160000Y-74268000D02*
X141700000Y-74268000D01*
X141700000Y-71528000D02*
X141700000Y-71858000D01*
X141700000Y-74268000D02*
X141700000Y-73938000D01*
%TO.C,C2*%
X104998000Y-76979000D02*
X104998000Y-78509000D01*
X106838000Y-76979000D02*
X106838000Y-78509000D01*
%TO.C,R15*%
X135160000Y-80164000D02*
X141700000Y-80164000D01*
X135160000Y-80494000D02*
X135160000Y-80164000D01*
X135160000Y-82574000D02*
X135160000Y-82904000D01*
X135160000Y-82904000D02*
X141700000Y-82904000D01*
X141700000Y-80164000D02*
X141700000Y-80494000D01*
X141700000Y-82904000D02*
X141700000Y-82574000D01*
%TO.C,R24*%
X154530000Y-97296000D02*
X154530000Y-103836000D01*
X154530000Y-103836000D02*
X154860000Y-103836000D01*
X154860000Y-97296000D02*
X154530000Y-97296000D01*
X156940000Y-97296000D02*
X157270000Y-97296000D01*
X157270000Y-97296000D02*
X157270000Y-103836000D01*
X157270000Y-103836000D02*
X156940000Y-103836000D01*
%TO.C,R4*%
X142730000Y-97296000D02*
X142730000Y-103836000D01*
X142730000Y-103836000D02*
X143060000Y-103836000D01*
X143060000Y-97296000D02*
X142730000Y-97296000D01*
X145140000Y-97296000D02*
X145470000Y-97296000D01*
X145470000Y-97296000D02*
X145470000Y-103836000D01*
X145470000Y-103836000D02*
X145140000Y-103836000D01*
%TO.C,J2*%
X110126000Y-63610000D02*
X110126000Y-62230000D01*
X111506000Y-63610000D02*
X110126000Y-63610000D01*
X112776000Y-60850000D02*
X120506000Y-60850000D01*
X112776000Y-63610000D02*
X112776000Y-60850000D01*
X112776000Y-63610000D02*
X120506000Y-63610000D01*
X120506000Y-63610000D02*
X120506000Y-60850000D01*
%TO.C,R22*%
X146082000Y-84228000D02*
X152622000Y-84228000D01*
X146082000Y-84558000D02*
X146082000Y-84228000D01*
X146082000Y-86638000D02*
X146082000Y-86968000D01*
X146082000Y-86968000D02*
X152622000Y-86968000D01*
X152622000Y-84228000D02*
X152622000Y-84558000D01*
X152622000Y-86968000D02*
X152622000Y-86638000D01*
%TO.C,R2*%
X124238000Y-62638000D02*
X130778000Y-62638000D01*
X124238000Y-62968000D02*
X124238000Y-62638000D01*
X124238000Y-65048000D02*
X124238000Y-65378000D01*
X124238000Y-65378000D02*
X130778000Y-65378000D01*
X130778000Y-62638000D02*
X130778000Y-62968000D01*
X130778000Y-65378000D02*
X130778000Y-65048000D01*
%TO.C,R10*%
X124238000Y-84228000D02*
X130778000Y-84228000D01*
X124238000Y-84558000D02*
X124238000Y-84228000D01*
X124238000Y-86638000D02*
X124238000Y-86968000D01*
X124238000Y-86968000D02*
X130778000Y-86968000D01*
X130778000Y-84228000D02*
X130778000Y-84558000D01*
X130778000Y-86968000D02*
X130778000Y-86638000D01*
%TO.C,C5*%
X97258000Y-63720000D02*
X95729000Y-63720000D01*
X97258000Y-63760000D02*
X95733000Y-63760000D01*
X97258000Y-63800000D02*
X95738000Y-63800000D01*
X97258000Y-63840000D02*
X95743000Y-63840000D01*
X97258000Y-63880000D02*
X95749000Y-63880000D01*
X97258000Y-63920000D02*
X95755000Y-63920000D01*
X97258000Y-63960000D02*
X95762000Y-63960000D01*
X97258000Y-64000000D02*
X95770000Y-64000000D01*
X97258000Y-64040000D02*
X95779000Y-64040000D01*
X97258000Y-64080000D02*
X95788000Y-64080000D01*
X97258000Y-64120000D02*
X95797000Y-64120000D01*
X97258000Y-64160000D02*
X95808000Y-64160000D01*
X97258000Y-64200000D02*
X95819000Y-64200000D01*
X97258000Y-64240000D02*
X95831000Y-64240000D01*
X97258000Y-64280000D02*
X95843000Y-64280000D01*
X97258000Y-64320000D02*
X95856000Y-64320000D01*
X97258000Y-64360000D02*
X95870000Y-64360000D01*
X97258000Y-64400000D02*
X95885000Y-64400000D01*
X97258000Y-64440000D02*
X95900000Y-64440000D01*
X97258000Y-64480000D02*
X95916000Y-64480000D01*
X97258000Y-64520000D02*
X95933000Y-64520000D01*
X97258000Y-64560000D02*
X95951000Y-64560000D01*
X97258000Y-64600000D02*
X95969000Y-64600000D01*
X97258000Y-64640000D02*
X95989000Y-64640000D01*
X97258000Y-64680000D02*
X96009000Y-64680000D01*
X97258000Y-64720000D02*
X96030000Y-64720000D01*
X97258000Y-64760000D02*
X96052000Y-64760000D01*
X97258000Y-64800000D02*
X96075000Y-64800000D01*
X97258000Y-64840000D02*
X96099000Y-64840000D01*
X97258000Y-64880000D02*
X96123000Y-64880000D01*
X97258000Y-64920000D02*
X96149000Y-64920000D01*
X97258000Y-64960000D02*
X96176000Y-64960000D01*
X97258000Y-65000000D02*
X96204000Y-65000000D01*
X97258000Y-65040000D02*
X96233000Y-65040000D01*
X97258000Y-65080000D02*
X96263000Y-65080000D01*
X97258000Y-65120000D02*
X96295000Y-65120000D01*
X97258000Y-65160000D02*
X96328000Y-65160000D01*
X97258000Y-65200000D02*
X96362000Y-65200000D01*
X97258000Y-65240000D02*
X96397000Y-65240000D01*
X97258000Y-65280000D02*
X96434000Y-65280000D01*
X97258000Y-65320000D02*
X96473000Y-65320000D01*
X97258000Y-65360000D02*
X96513000Y-65360000D01*
X97258000Y-65400000D02*
X96555000Y-65400000D01*
X97258000Y-65440000D02*
X96599000Y-65440000D01*
X97258000Y-65480000D02*
X96646000Y-65480000D01*
X97258000Y-65520000D02*
X96694000Y-65520000D01*
X97258000Y-65560000D02*
X96745000Y-65560000D01*
X97258000Y-65600000D02*
X96799000Y-65600000D01*
X97258000Y-65640000D02*
X96855000Y-65640000D01*
X97258000Y-65680000D02*
X96915000Y-65680000D01*
X97258000Y-65720000D02*
X96979000Y-65720000D01*
X97258000Y-65760000D02*
X97047000Y-65760000D01*
X98581000Y-66080000D02*
X98015000Y-66080000D01*
X98815000Y-66040000D02*
X97781000Y-66040000D01*
X98975000Y-66000000D02*
X97621000Y-66000000D01*
X99103000Y-65960000D02*
X97493000Y-65960000D01*
X99212000Y-65920000D02*
X97384000Y-65920000D01*
X99309000Y-65880000D02*
X97287000Y-65880000D01*
X99396000Y-65840000D02*
X97200000Y-65840000D01*
X99475000Y-65800000D02*
X97121000Y-65800000D01*
X99549000Y-65760000D02*
X99338000Y-65760000D01*
X99617000Y-65720000D02*
X99338000Y-65720000D01*
X99681000Y-65680000D02*
X99338000Y-65680000D01*
X99741000Y-65640000D02*
X99338000Y-65640000D01*
X99773000Y-60675225D02*
X99773000Y-61175225D01*
X99797000Y-65600000D02*
X99338000Y-65600000D01*
X99851000Y-65560000D02*
X99338000Y-65560000D01*
X99902000Y-65520000D02*
X99338000Y-65520000D01*
X99950000Y-65480000D02*
X99338000Y-65480000D01*
X99997000Y-65440000D02*
X99338000Y-65440000D01*
X100023000Y-60925225D02*
X99523000Y-60925225D01*
X100041000Y-65400000D02*
X99338000Y-65400000D01*
X100083000Y-65360000D02*
X99338000Y-65360000D01*
X100123000Y-65320000D02*
X99338000Y-65320000D01*
X100162000Y-65280000D02*
X99338000Y-65280000D01*
X100199000Y-65240000D02*
X99338000Y-65240000D01*
X100234000Y-65200000D02*
X99338000Y-65200000D01*
X100268000Y-65160000D02*
X99338000Y-65160000D01*
X100301000Y-65120000D02*
X99338000Y-65120000D01*
X100333000Y-65080000D02*
X99338000Y-65080000D01*
X100363000Y-65040000D02*
X99338000Y-65040000D01*
X100392000Y-65000000D02*
X99338000Y-65000000D01*
X100420000Y-64960000D02*
X99338000Y-64960000D01*
X100447000Y-64920000D02*
X99338000Y-64920000D01*
X100473000Y-64880000D02*
X99338000Y-64880000D01*
X100497000Y-64840000D02*
X99338000Y-64840000D01*
X100521000Y-64800000D02*
X99338000Y-64800000D01*
X100544000Y-64760000D02*
X99338000Y-64760000D01*
X100566000Y-64720000D02*
X99338000Y-64720000D01*
X100587000Y-64680000D02*
X99338000Y-64680000D01*
X100607000Y-64640000D02*
X99338000Y-64640000D01*
X100627000Y-64600000D02*
X99338000Y-64600000D01*
X100645000Y-64560000D02*
X99338000Y-64560000D01*
X100663000Y-64520000D02*
X99338000Y-64520000D01*
X100680000Y-64480000D02*
X99338000Y-64480000D01*
X100696000Y-64440000D02*
X99338000Y-64440000D01*
X100711000Y-64400000D02*
X99338000Y-64400000D01*
X100726000Y-64360000D02*
X99338000Y-64360000D01*
X100740000Y-64320000D02*
X99338000Y-64320000D01*
X100753000Y-64280000D02*
X99338000Y-64280000D01*
X100765000Y-64240000D02*
X99338000Y-64240000D01*
X100777000Y-64200000D02*
X99338000Y-64200000D01*
X100788000Y-64160000D02*
X99338000Y-64160000D01*
X100799000Y-64120000D02*
X99338000Y-64120000D01*
X100808000Y-64080000D02*
X99338000Y-64080000D01*
X100817000Y-64040000D02*
X99338000Y-64040000D01*
X100826000Y-64000000D02*
X99338000Y-64000000D01*
X100834000Y-63960000D02*
X99338000Y-63960000D01*
X100841000Y-63920000D02*
X99338000Y-63920000D01*
X100847000Y-63880000D02*
X99338000Y-63880000D01*
X100853000Y-63840000D02*
X99338000Y-63840000D01*
X100858000Y-63800000D02*
X99338000Y-63800000D01*
X100863000Y-63760000D02*
X99338000Y-63760000D01*
X100867000Y-63720000D02*
X99338000Y-63720000D01*
X100870000Y-63680000D02*
X95726000Y-63680000D01*
X100873000Y-63640000D02*
X95723000Y-63640000D01*
X100875000Y-63600000D02*
X95721000Y-63600000D01*
X100877000Y-63560000D02*
X95719000Y-63560000D01*
X100878000Y-63480000D02*
X95718000Y-63480000D01*
X100878000Y-63520000D02*
X95718000Y-63520000D01*
X100918000Y-63480000D02*
G75*
G02*
X95678000Y-63480000I-2620000J0D01*
G01*
X95678000Y-63480000D02*
G75*
G02*
X100918000Y-63480000I2620000J0D01*
G01*
%TO.C,R1*%
X89440000Y-68480000D02*
X95980000Y-68480000D01*
X89440000Y-68810000D02*
X89440000Y-68480000D01*
X89440000Y-70890000D02*
X89440000Y-71220000D01*
X89440000Y-71220000D02*
X95980000Y-71220000D01*
X95980000Y-68480000D02*
X95980000Y-68810000D01*
X95980000Y-71220000D02*
X95980000Y-70890000D01*
%TO.C,C4*%
X91185000Y-90780000D02*
X92715000Y-90780000D01*
X91185000Y-92620000D02*
X92715000Y-92620000D01*
%TO.C,D4*%
X154820000Y-90370000D02*
X154664000Y-90370000D01*
X157136000Y-90370000D02*
X156980000Y-90370000D01*
X154820000Y-92970961D02*
G75*
G02*
X154820000Y-90889039I1080000J1040961D01*
G01*
X154820000Y-93601437D02*
G75*
G02*
X154664484Y-90370000I1080000J1671437D01*
G01*
X156980000Y-90889039D02*
G75*
G02*
X156980000Y-92970961I-1080000J-1040961D01*
G01*
X157135516Y-90370000D02*
G75*
G02*
X156980000Y-93601437I-1235516J-1560000D01*
G01*
%TO.C,C3*%
X91163000Y-95780000D02*
X92693000Y-95780000D01*
X91163000Y-97620000D02*
X92693000Y-97620000D01*
%TO.C,J1*%
X88282000Y-60850000D02*
X88282000Y-63610000D01*
X90932000Y-60850000D02*
X88282000Y-60850000D01*
X90932000Y-60850000D02*
X90932000Y-63610000D01*
X90932000Y-63610000D02*
X88282000Y-63610000D01*
X92202000Y-60850000D02*
X93582000Y-60850000D01*
X93582000Y-60850000D02*
X93582000Y-62230000D01*
%TO.C,R17*%
X146082000Y-62638000D02*
X146082000Y-62968000D01*
X146082000Y-65378000D02*
X146082000Y-65048000D01*
X152622000Y-62638000D02*
X146082000Y-62638000D01*
X152622000Y-62968000D02*
X152622000Y-62638000D01*
X152622000Y-65048000D02*
X152622000Y-65378000D01*
X152622000Y-65378000D02*
X146082000Y-65378000D01*
%TO.C,D2*%
X143020000Y-90370000D02*
X142864000Y-90370000D01*
X145336000Y-90370000D02*
X145180000Y-90370000D01*
X143020000Y-92970961D02*
G75*
G02*
X143020000Y-90889039I1080000J1040961D01*
G01*
X143020000Y-93601437D02*
G75*
G02*
X142864484Y-90370000I1080000J1671437D01*
G01*
X145180000Y-90889039D02*
G75*
G02*
X145180000Y-92970961I-1080000J-1040961D01*
G01*
X145335516Y-90370000D02*
G75*
G02*
X145180000Y-93601437I-1235516J-1560000D01*
G01*
%TD*%
M02*
