%TF.GenerationSoftware,KiCad,Pcbnew,9.0.2+dfsg-1*%
%TF.CreationDate,2025-09-03T01:51:33+05:30*%
%TF.ProjectId,scopetester_v1,73636f70-6574-4657-9374-65725f76312e,rev?*%
%TF.SameCoordinates,Original*%
%TF.FileFunction,Soldermask,Bot*%
%TF.FilePolarity,Negative*%
%FSLAX46Y46*%
G04 Gerber Fmt 4.6, Leading zero omitted, Abs format (unit mm)*
G04 Created by KiCad (PCBNEW 9.0.2+dfsg-1) date 2025-09-03 01:51:33*
%MOMM*%
%LPD*%
G01*
G04 APERTURE LIST*
G04 APERTURE END LIST*
G36*
X111494228Y-103638448D02*
G01*
X111639117Y-103698463D01*
X111769515Y-103785592D01*
X111880408Y-103896485D01*
X111967537Y-104026883D01*
X112027552Y-104171772D01*
X112058148Y-104325586D01*
X112058148Y-104482414D01*
X112027552Y-104636228D01*
X111967537Y-104781117D01*
X111880408Y-104911515D01*
X111769515Y-105022408D01*
X111639117Y-105109537D01*
X111494228Y-105169552D01*
X111340414Y-105200148D01*
X111183586Y-105200148D01*
X111029772Y-105169552D01*
X110884883Y-105109537D01*
X110754485Y-105022408D01*
X110643592Y-104911515D01*
X110556463Y-104781117D01*
X110496448Y-104636228D01*
X110465852Y-104482414D01*
X110465852Y-104325586D01*
X110496448Y-104171772D01*
X110556463Y-104026883D01*
X110643592Y-103896485D01*
X110754485Y-103785592D01*
X110884883Y-103698463D01*
X111029772Y-103638448D01*
X111183586Y-103607852D01*
X111340414Y-103607852D01*
X111494228Y-103638448D01*
G37*
G36*
X119114228Y-103638448D02*
G01*
X119259117Y-103698463D01*
X119389515Y-103785592D01*
X119500408Y-103896485D01*
X119587537Y-104026883D01*
X119647552Y-104171772D01*
X119678148Y-104325586D01*
X119678148Y-104482414D01*
X119647552Y-104636228D01*
X119587537Y-104781117D01*
X119500408Y-104911515D01*
X119389515Y-105022408D01*
X119259117Y-105109537D01*
X119114228Y-105169552D01*
X118960414Y-105200148D01*
X118803586Y-105200148D01*
X118649772Y-105169552D01*
X118504883Y-105109537D01*
X118374485Y-105022408D01*
X118263592Y-104911515D01*
X118176463Y-104781117D01*
X118116448Y-104636228D01*
X118085852Y-104482414D01*
X118085852Y-104325586D01*
X118116448Y-104171772D01*
X118176463Y-104026883D01*
X118263592Y-103896485D01*
X118374485Y-103785592D01*
X118504883Y-103698463D01*
X118649772Y-103638448D01*
X118803586Y-103607852D01*
X118960414Y-103607852D01*
X119114228Y-103638448D01*
G37*
G36*
X138380228Y-103610448D02*
G01*
X138525117Y-103670463D01*
X138655515Y-103757592D01*
X138766408Y-103868485D01*
X138853537Y-103998883D01*
X138913552Y-104143772D01*
X138944148Y-104297586D01*
X138944148Y-104454414D01*
X138913552Y-104608228D01*
X138853537Y-104753117D01*
X138766408Y-104883515D01*
X138655515Y-104994408D01*
X138525117Y-105081537D01*
X138380228Y-105141552D01*
X138226414Y-105172148D01*
X138069586Y-105172148D01*
X137915772Y-105141552D01*
X137770883Y-105081537D01*
X137640485Y-104994408D01*
X137529592Y-104883515D01*
X137442463Y-104753117D01*
X137382448Y-104608228D01*
X137351852Y-104454414D01*
X137351852Y-104297586D01*
X137382448Y-104143772D01*
X137442463Y-103998883D01*
X137529592Y-103868485D01*
X137640485Y-103757592D01*
X137770883Y-103670463D01*
X137915772Y-103610448D01*
X138069586Y-103579852D01*
X138226414Y-103579852D01*
X138380228Y-103610448D01*
G37*
G36*
X144332228Y-103610448D02*
G01*
X144477117Y-103670463D01*
X144607515Y-103757592D01*
X144718408Y-103868485D01*
X144805537Y-103998883D01*
X144865552Y-104143772D01*
X144896148Y-104297586D01*
X144896148Y-104454414D01*
X144865552Y-104608228D01*
X144805537Y-104753117D01*
X144718408Y-104883515D01*
X144607515Y-104994408D01*
X144477117Y-105081537D01*
X144332228Y-105141552D01*
X144178414Y-105172148D01*
X144021586Y-105172148D01*
X143867772Y-105141552D01*
X143722883Y-105081537D01*
X143592485Y-104994408D01*
X143481592Y-104883515D01*
X143394463Y-104753117D01*
X143334448Y-104608228D01*
X143303852Y-104454414D01*
X143303852Y-104297586D01*
X143334448Y-104143772D01*
X143394463Y-103998883D01*
X143481592Y-103868485D01*
X143592485Y-103757592D01*
X143722883Y-103670463D01*
X143867772Y-103610448D01*
X144021586Y-103579852D01*
X144178414Y-103579852D01*
X144332228Y-103610448D01*
G37*
G36*
X156132228Y-103610448D02*
G01*
X156277117Y-103670463D01*
X156407515Y-103757592D01*
X156518408Y-103868485D01*
X156605537Y-103998883D01*
X156665552Y-104143772D01*
X156696148Y-104297586D01*
X156696148Y-104454414D01*
X156665552Y-104608228D01*
X156605537Y-104753117D01*
X156518408Y-104883515D01*
X156407515Y-104994408D01*
X156277117Y-105081537D01*
X156132228Y-105141552D01*
X155978414Y-105172148D01*
X155821586Y-105172148D01*
X155667772Y-105141552D01*
X155522883Y-105081537D01*
X155392485Y-104994408D01*
X155281592Y-104883515D01*
X155194463Y-104753117D01*
X155134448Y-104608228D01*
X155103852Y-104454414D01*
X155103852Y-104297586D01*
X155134448Y-104143772D01*
X155194463Y-103998883D01*
X155281592Y-103868485D01*
X155392485Y-103757592D01*
X155522883Y-103670463D01*
X155667772Y-103610448D01*
X155821586Y-103579852D01*
X155978414Y-103579852D01*
X156132228Y-103610448D01*
G37*
G36*
X150232228Y-103550228D02*
G01*
X150377117Y-103610243D01*
X150507515Y-103697372D01*
X150618408Y-103808265D01*
X150705537Y-103938663D01*
X150765552Y-104083552D01*
X150796148Y-104237366D01*
X150796148Y-104394194D01*
X150765552Y-104548008D01*
X150705537Y-104692897D01*
X150618408Y-104823295D01*
X150507515Y-104934188D01*
X150377117Y-105021317D01*
X150232228Y-105081332D01*
X150078414Y-105111928D01*
X149921586Y-105111928D01*
X149767772Y-105081332D01*
X149622883Y-105021317D01*
X149492485Y-104934188D01*
X149381592Y-104823295D01*
X149294463Y-104692897D01*
X149234448Y-104548008D01*
X149203852Y-104394194D01*
X149203852Y-104237366D01*
X149234448Y-104083552D01*
X149294463Y-103938663D01*
X149381592Y-103808265D01*
X149492485Y-103697372D01*
X149622883Y-103610243D01*
X149767772Y-103550228D01*
X149921586Y-103519632D01*
X150078414Y-103519632D01*
X150232228Y-103550228D01*
G37*
G36*
X125046742Y-103446601D02*
G01*
X125200687Y-103510367D01*
X125339234Y-103602941D01*
X125457059Y-103720766D01*
X125549633Y-103859313D01*
X125613399Y-104013258D01*
X125645907Y-104176685D01*
X125645907Y-104343315D01*
X125613399Y-104506742D01*
X125549633Y-104660687D01*
X125457059Y-104799234D01*
X125339234Y-104917059D01*
X125200687Y-105009633D01*
X125046742Y-105073399D01*
X124883315Y-105105907D01*
X124716685Y-105105907D01*
X124553258Y-105073399D01*
X124399313Y-105009633D01*
X124260766Y-104917059D01*
X124142941Y-104799234D01*
X124050367Y-104660687D01*
X123986601Y-104506742D01*
X123954093Y-104343315D01*
X123954093Y-104176685D01*
X123986601Y-104013258D01*
X124050367Y-103859313D01*
X124142941Y-103720766D01*
X124260766Y-103602941D01*
X124399313Y-103510367D01*
X124553258Y-103446601D01*
X124716685Y-103414093D01*
X124883315Y-103414093D01*
X125046742Y-103446601D01*
G37*
G36*
X127586742Y-103446601D02*
G01*
X127740687Y-103510367D01*
X127879234Y-103602941D01*
X127997059Y-103720766D01*
X128089633Y-103859313D01*
X128153399Y-104013258D01*
X128185907Y-104176685D01*
X128185907Y-104343315D01*
X128153399Y-104506742D01*
X128089633Y-104660687D01*
X127997059Y-104799234D01*
X127879234Y-104917059D01*
X127740687Y-105009633D01*
X127586742Y-105073399D01*
X127423315Y-105105907D01*
X127256685Y-105105907D01*
X127093258Y-105073399D01*
X126939313Y-105009633D01*
X126800766Y-104917059D01*
X126682941Y-104799234D01*
X126590367Y-104660687D01*
X126526601Y-104506742D01*
X126494093Y-104343315D01*
X126494093Y-104176685D01*
X126526601Y-104013258D01*
X126590367Y-103859313D01*
X126682941Y-103720766D01*
X126800766Y-103602941D01*
X126939313Y-103510367D01*
X127093258Y-103446601D01*
X127256685Y-103414093D01*
X127423315Y-103414093D01*
X127586742Y-103446601D01*
G37*
G36*
X111494228Y-101098448D02*
G01*
X111639117Y-101158463D01*
X111769515Y-101245592D01*
X111880408Y-101356485D01*
X111967537Y-101486883D01*
X112027552Y-101631772D01*
X112058148Y-101785586D01*
X112058148Y-101942414D01*
X112027552Y-102096228D01*
X111967537Y-102241117D01*
X111880408Y-102371515D01*
X111769515Y-102482408D01*
X111639117Y-102569537D01*
X111494228Y-102629552D01*
X111340414Y-102660148D01*
X111183586Y-102660148D01*
X111029772Y-102629552D01*
X110884883Y-102569537D01*
X110754485Y-102482408D01*
X110643592Y-102371515D01*
X110556463Y-102241117D01*
X110496448Y-102096228D01*
X110465852Y-101942414D01*
X110465852Y-101785586D01*
X110496448Y-101631772D01*
X110556463Y-101486883D01*
X110643592Y-101356485D01*
X110754485Y-101245592D01*
X110884883Y-101158463D01*
X111029772Y-101098448D01*
X111183586Y-101067852D01*
X111340414Y-101067852D01*
X111494228Y-101098448D01*
G37*
G36*
X119114228Y-101098448D02*
G01*
X119259117Y-101158463D01*
X119389515Y-101245592D01*
X119500408Y-101356485D01*
X119587537Y-101486883D01*
X119647552Y-101631772D01*
X119678148Y-101785586D01*
X119678148Y-101942414D01*
X119647552Y-102096228D01*
X119587537Y-102241117D01*
X119500408Y-102371515D01*
X119389515Y-102482408D01*
X119259117Y-102569537D01*
X119114228Y-102629552D01*
X118960414Y-102660148D01*
X118803586Y-102660148D01*
X118649772Y-102629552D01*
X118504883Y-102569537D01*
X118374485Y-102482408D01*
X118263592Y-102371515D01*
X118176463Y-102241117D01*
X118116448Y-102096228D01*
X118085852Y-101942414D01*
X118085852Y-101785586D01*
X118116448Y-101631772D01*
X118176463Y-101486883D01*
X118263592Y-101356485D01*
X118374485Y-101245592D01*
X118504883Y-101158463D01*
X118649772Y-101098448D01*
X118803586Y-101067852D01*
X118960414Y-101067852D01*
X119114228Y-101098448D01*
G37*
G36*
X125046742Y-100906601D02*
G01*
X125200687Y-100970367D01*
X125339234Y-101062941D01*
X125457059Y-101180766D01*
X125549633Y-101319313D01*
X125613399Y-101473258D01*
X125645907Y-101636685D01*
X125645907Y-101803315D01*
X125613399Y-101966742D01*
X125549633Y-102120687D01*
X125457059Y-102259234D01*
X125339234Y-102377059D01*
X125200687Y-102469633D01*
X125046742Y-102533399D01*
X124883315Y-102565907D01*
X124716685Y-102565907D01*
X124553258Y-102533399D01*
X124399313Y-102469633D01*
X124260766Y-102377059D01*
X124142941Y-102259234D01*
X124050367Y-102120687D01*
X123986601Y-101966742D01*
X123954093Y-101803315D01*
X123954093Y-101636685D01*
X123986601Y-101473258D01*
X124050367Y-101319313D01*
X124142941Y-101180766D01*
X124260766Y-101062941D01*
X124399313Y-100970367D01*
X124553258Y-100906601D01*
X124716685Y-100874093D01*
X124883315Y-100874093D01*
X125046742Y-100906601D01*
G37*
G36*
X127586742Y-100906601D02*
G01*
X127740687Y-100970367D01*
X127879234Y-101062941D01*
X127997059Y-101180766D01*
X128089633Y-101319313D01*
X128153399Y-101473258D01*
X128185907Y-101636685D01*
X128185907Y-101803315D01*
X128153399Y-101966742D01*
X128089633Y-102120687D01*
X127997059Y-102259234D01*
X127879234Y-102377059D01*
X127740687Y-102469633D01*
X127586742Y-102533399D01*
X127423315Y-102565907D01*
X127256685Y-102565907D01*
X127093258Y-102533399D01*
X126939313Y-102469633D01*
X126800766Y-102377059D01*
X126682941Y-102259234D01*
X126590367Y-102120687D01*
X126526601Y-101966742D01*
X126494093Y-101803315D01*
X126494093Y-101636685D01*
X126526601Y-101473258D01*
X126590367Y-101319313D01*
X126682941Y-101180766D01*
X126800766Y-101062941D01*
X126939313Y-100970367D01*
X127093258Y-100906601D01*
X127256685Y-100874093D01*
X127423315Y-100874093D01*
X127586742Y-100906601D01*
G37*
G36*
X111494228Y-98558448D02*
G01*
X111639117Y-98618463D01*
X111769515Y-98705592D01*
X111880408Y-98816485D01*
X111967537Y-98946883D01*
X112027552Y-99091772D01*
X112058148Y-99245586D01*
X112058148Y-99402414D01*
X112027552Y-99556228D01*
X111967537Y-99701117D01*
X111880408Y-99831515D01*
X111769515Y-99942408D01*
X111639117Y-100029537D01*
X111494228Y-100089552D01*
X111340414Y-100120148D01*
X111183586Y-100120148D01*
X111029772Y-100089552D01*
X110884883Y-100029537D01*
X110754485Y-99942408D01*
X110643592Y-99831515D01*
X110556463Y-99701117D01*
X110496448Y-99556228D01*
X110465852Y-99402414D01*
X110465852Y-99245586D01*
X110496448Y-99091772D01*
X110556463Y-98946883D01*
X110643592Y-98816485D01*
X110754485Y-98705592D01*
X110884883Y-98618463D01*
X111029772Y-98558448D01*
X111183586Y-98527852D01*
X111340414Y-98527852D01*
X111494228Y-98558448D01*
G37*
G36*
X119114228Y-98558448D02*
G01*
X119259117Y-98618463D01*
X119389515Y-98705592D01*
X119500408Y-98816485D01*
X119587537Y-98946883D01*
X119647552Y-99091772D01*
X119678148Y-99245586D01*
X119678148Y-99402414D01*
X119647552Y-99556228D01*
X119587537Y-99701117D01*
X119500408Y-99831515D01*
X119389515Y-99942408D01*
X119259117Y-100029537D01*
X119114228Y-100089552D01*
X118960414Y-100120148D01*
X118803586Y-100120148D01*
X118649772Y-100089552D01*
X118504883Y-100029537D01*
X118374485Y-99942408D01*
X118263592Y-99831515D01*
X118176463Y-99701117D01*
X118116448Y-99556228D01*
X118085852Y-99402414D01*
X118085852Y-99245586D01*
X118116448Y-99091772D01*
X118176463Y-98946883D01*
X118263592Y-98816485D01*
X118374485Y-98705592D01*
X118504883Y-98618463D01*
X118649772Y-98558448D01*
X118803586Y-98527852D01*
X118960414Y-98527852D01*
X119114228Y-98558448D01*
G37*
G36*
X125046742Y-98366601D02*
G01*
X125200687Y-98430367D01*
X125339234Y-98522941D01*
X125457059Y-98640766D01*
X125549633Y-98779313D01*
X125613399Y-98933258D01*
X125645907Y-99096685D01*
X125645907Y-99263315D01*
X125613399Y-99426742D01*
X125549633Y-99580687D01*
X125457059Y-99719234D01*
X125339234Y-99837059D01*
X125200687Y-99929633D01*
X125046742Y-99993399D01*
X124883315Y-100025907D01*
X124716685Y-100025907D01*
X124553258Y-99993399D01*
X124399313Y-99929633D01*
X124260766Y-99837059D01*
X124142941Y-99719234D01*
X124050367Y-99580687D01*
X123986601Y-99426742D01*
X123954093Y-99263315D01*
X123954093Y-99096685D01*
X123986601Y-98933258D01*
X124050367Y-98779313D01*
X124142941Y-98640766D01*
X124260766Y-98522941D01*
X124399313Y-98430367D01*
X124553258Y-98366601D01*
X124716685Y-98334093D01*
X124883315Y-98334093D01*
X125046742Y-98366601D01*
G37*
G36*
X127586742Y-98366601D02*
G01*
X127740687Y-98430367D01*
X127879234Y-98522941D01*
X127997059Y-98640766D01*
X128089633Y-98779313D01*
X128153399Y-98933258D01*
X128185907Y-99096685D01*
X128185907Y-99263315D01*
X128153399Y-99426742D01*
X128089633Y-99580687D01*
X127997059Y-99719234D01*
X127879234Y-99837059D01*
X127740687Y-99929633D01*
X127586742Y-99993399D01*
X127423315Y-100025907D01*
X127256685Y-100025907D01*
X127093258Y-99993399D01*
X126939313Y-99929633D01*
X126800766Y-99837059D01*
X126682941Y-99719234D01*
X126590367Y-99580687D01*
X126526601Y-99426742D01*
X126494093Y-99263315D01*
X126494093Y-99096685D01*
X126526601Y-98933258D01*
X126590367Y-98779313D01*
X126682941Y-98640766D01*
X126800766Y-98522941D01*
X126939313Y-98430367D01*
X127093258Y-98366601D01*
X127256685Y-98334093D01*
X127423315Y-98334093D01*
X127586742Y-98366601D01*
G37*
G36*
X132432228Y-96734448D02*
G01*
X132577117Y-96794463D01*
X132707515Y-96881592D01*
X132818408Y-96992485D01*
X132905537Y-97122883D01*
X132965552Y-97267772D01*
X132996148Y-97421586D01*
X132996148Y-97578414D01*
X132965552Y-97732228D01*
X132905537Y-97877117D01*
X132818408Y-98007515D01*
X132707515Y-98118408D01*
X132577117Y-98205537D01*
X132432228Y-98265552D01*
X132278414Y-98296148D01*
X132121586Y-98296148D01*
X131967772Y-98265552D01*
X131822883Y-98205537D01*
X131692485Y-98118408D01*
X131581592Y-98007515D01*
X131494463Y-97877117D01*
X131434448Y-97732228D01*
X131403852Y-97578414D01*
X131403852Y-97421586D01*
X131434448Y-97267772D01*
X131494463Y-97122883D01*
X131581592Y-96992485D01*
X131692485Y-96881592D01*
X131822883Y-96794463D01*
X131967772Y-96734448D01*
X132121586Y-96703852D01*
X132278414Y-96703852D01*
X132432228Y-96734448D01*
G37*
G36*
X111494228Y-96018448D02*
G01*
X111639117Y-96078463D01*
X111769515Y-96165592D01*
X111880408Y-96276485D01*
X111967537Y-96406883D01*
X112027552Y-96551772D01*
X112058148Y-96705586D01*
X112058148Y-96862414D01*
X112027552Y-97016228D01*
X111967537Y-97161117D01*
X111880408Y-97291515D01*
X111769515Y-97402408D01*
X111639117Y-97489537D01*
X111494228Y-97549552D01*
X111340414Y-97580148D01*
X111183586Y-97580148D01*
X111029772Y-97549552D01*
X110884883Y-97489537D01*
X110754485Y-97402408D01*
X110643592Y-97291515D01*
X110556463Y-97161117D01*
X110496448Y-97016228D01*
X110465852Y-96862414D01*
X110465852Y-96705586D01*
X110496448Y-96551772D01*
X110556463Y-96406883D01*
X110643592Y-96276485D01*
X110754485Y-96165592D01*
X110884883Y-96078463D01*
X111029772Y-96018448D01*
X111183586Y-95987852D01*
X111340414Y-95987852D01*
X111494228Y-96018448D01*
G37*
G36*
X119114228Y-96018448D02*
G01*
X119259117Y-96078463D01*
X119389515Y-96165592D01*
X119500408Y-96276485D01*
X119587537Y-96406883D01*
X119647552Y-96551772D01*
X119678148Y-96705586D01*
X119678148Y-96862414D01*
X119647552Y-97016228D01*
X119587537Y-97161117D01*
X119500408Y-97291515D01*
X119389515Y-97402408D01*
X119259117Y-97489537D01*
X119114228Y-97549552D01*
X118960414Y-97580148D01*
X118803586Y-97580148D01*
X118649772Y-97549552D01*
X118504883Y-97489537D01*
X118374485Y-97402408D01*
X118263592Y-97291515D01*
X118176463Y-97161117D01*
X118116448Y-97016228D01*
X118085852Y-96862414D01*
X118085852Y-96705586D01*
X118116448Y-96551772D01*
X118176463Y-96406883D01*
X118263592Y-96276485D01*
X118374485Y-96165592D01*
X118504883Y-96078463D01*
X118649772Y-96018448D01*
X118803586Y-95987852D01*
X118960414Y-95987852D01*
X119114228Y-96018448D01*
G37*
G36*
X138380228Y-95990448D02*
G01*
X138525117Y-96050463D01*
X138655515Y-96137592D01*
X138766408Y-96248485D01*
X138853537Y-96378883D01*
X138913552Y-96523772D01*
X138944148Y-96677586D01*
X138944148Y-96834414D01*
X138913552Y-96988228D01*
X138853537Y-97133117D01*
X138766408Y-97263515D01*
X138655515Y-97374408D01*
X138525117Y-97461537D01*
X138380228Y-97521552D01*
X138226414Y-97552148D01*
X138069586Y-97552148D01*
X137915772Y-97521552D01*
X137770883Y-97461537D01*
X137640485Y-97374408D01*
X137529592Y-97263515D01*
X137442463Y-97133117D01*
X137382448Y-96988228D01*
X137351852Y-96834414D01*
X137351852Y-96677586D01*
X137382448Y-96523772D01*
X137442463Y-96378883D01*
X137529592Y-96248485D01*
X137640485Y-96137592D01*
X137770883Y-96050463D01*
X137915772Y-95990448D01*
X138069586Y-95959852D01*
X138226414Y-95959852D01*
X138380228Y-95990448D01*
G37*
G36*
X144332228Y-95990448D02*
G01*
X144477117Y-96050463D01*
X144607515Y-96137592D01*
X144718408Y-96248485D01*
X144805537Y-96378883D01*
X144865552Y-96523772D01*
X144896148Y-96677586D01*
X144896148Y-96834414D01*
X144865552Y-96988228D01*
X144805537Y-97133117D01*
X144718408Y-97263515D01*
X144607515Y-97374408D01*
X144477117Y-97461537D01*
X144332228Y-97521552D01*
X144178414Y-97552148D01*
X144021586Y-97552148D01*
X143867772Y-97521552D01*
X143722883Y-97461537D01*
X143592485Y-97374408D01*
X143481592Y-97263515D01*
X143394463Y-97133117D01*
X143334448Y-96988228D01*
X143303852Y-96834414D01*
X143303852Y-96677586D01*
X143334448Y-96523772D01*
X143394463Y-96378883D01*
X143481592Y-96248485D01*
X143592485Y-96137592D01*
X143722883Y-96050463D01*
X143867772Y-95990448D01*
X144021586Y-95959852D01*
X144178414Y-95959852D01*
X144332228Y-95990448D01*
G37*
G36*
X156132228Y-95990448D02*
G01*
X156277117Y-96050463D01*
X156407515Y-96137592D01*
X156518408Y-96248485D01*
X156605537Y-96378883D01*
X156665552Y-96523772D01*
X156696148Y-96677586D01*
X156696148Y-96834414D01*
X156665552Y-96988228D01*
X156605537Y-97133117D01*
X156518408Y-97263515D01*
X156407515Y-97374408D01*
X156277117Y-97461537D01*
X156132228Y-97521552D01*
X155978414Y-97552148D01*
X155821586Y-97552148D01*
X155667772Y-97521552D01*
X155522883Y-97461537D01*
X155392485Y-97374408D01*
X155281592Y-97263515D01*
X155194463Y-97133117D01*
X155134448Y-96988228D01*
X155103852Y-96834414D01*
X155103852Y-96677586D01*
X155134448Y-96523772D01*
X155194463Y-96378883D01*
X155281592Y-96248485D01*
X155392485Y-96137592D01*
X155522883Y-96050463D01*
X155667772Y-95990448D01*
X155821586Y-95959852D01*
X155978414Y-95959852D01*
X156132228Y-95990448D01*
G37*
G36*
X90910228Y-95934448D02*
G01*
X91055117Y-95994463D01*
X91185515Y-96081592D01*
X91296408Y-96192485D01*
X91383537Y-96322883D01*
X91443552Y-96467772D01*
X91474148Y-96621586D01*
X91474148Y-96778414D01*
X91443552Y-96932228D01*
X91383537Y-97077117D01*
X91296408Y-97207515D01*
X91185515Y-97318408D01*
X91055117Y-97405537D01*
X90910228Y-97465552D01*
X90756414Y-97496148D01*
X90599586Y-97496148D01*
X90445772Y-97465552D01*
X90300883Y-97405537D01*
X90170485Y-97318408D01*
X90059592Y-97207515D01*
X89972463Y-97077117D01*
X89912448Y-96932228D01*
X89881852Y-96778414D01*
X89881852Y-96621586D01*
X89912448Y-96467772D01*
X89972463Y-96322883D01*
X90059592Y-96192485D01*
X90170485Y-96081592D01*
X90300883Y-95994463D01*
X90445772Y-95934448D01*
X90599586Y-95903852D01*
X90756414Y-95903852D01*
X90910228Y-95934448D01*
G37*
G36*
X93410228Y-95934448D02*
G01*
X93555117Y-95994463D01*
X93685515Y-96081592D01*
X93796408Y-96192485D01*
X93883537Y-96322883D01*
X93943552Y-96467772D01*
X93974148Y-96621586D01*
X93974148Y-96778414D01*
X93943552Y-96932228D01*
X93883537Y-97077117D01*
X93796408Y-97207515D01*
X93685515Y-97318408D01*
X93555117Y-97405537D01*
X93410228Y-97465552D01*
X93256414Y-97496148D01*
X93099586Y-97496148D01*
X92945772Y-97465552D01*
X92800883Y-97405537D01*
X92670485Y-97318408D01*
X92559592Y-97207515D01*
X92472463Y-97077117D01*
X92412448Y-96932228D01*
X92381852Y-96778414D01*
X92381852Y-96621586D01*
X92412448Y-96467772D01*
X92472463Y-96322883D01*
X92559592Y-96192485D01*
X92670485Y-96081592D01*
X92800883Y-95994463D01*
X92945772Y-95934448D01*
X93099586Y-95903852D01*
X93256414Y-95903852D01*
X93410228Y-95934448D01*
G37*
G36*
X150232228Y-95930228D02*
G01*
X150377117Y-95990243D01*
X150507515Y-96077372D01*
X150618408Y-96188265D01*
X150705537Y-96318663D01*
X150765552Y-96463552D01*
X150796148Y-96617366D01*
X150796148Y-96774194D01*
X150765552Y-96928008D01*
X150705537Y-97072897D01*
X150618408Y-97203295D01*
X150507515Y-97314188D01*
X150377117Y-97401317D01*
X150232228Y-97461332D01*
X150078414Y-97491928D01*
X149921586Y-97491928D01*
X149767772Y-97461332D01*
X149622883Y-97401317D01*
X149492485Y-97314188D01*
X149381592Y-97203295D01*
X149294463Y-97072897D01*
X149234448Y-96928008D01*
X149203852Y-96774194D01*
X149203852Y-96617366D01*
X149234448Y-96463552D01*
X149294463Y-96318663D01*
X149381592Y-96188265D01*
X149492485Y-96077372D01*
X149622883Y-95990243D01*
X149767772Y-95930228D01*
X149921586Y-95899632D01*
X150078414Y-95899632D01*
X150232228Y-95930228D01*
G37*
G36*
X125046742Y-95826601D02*
G01*
X125200687Y-95890367D01*
X125339234Y-95982941D01*
X125457059Y-96100766D01*
X125549633Y-96239313D01*
X125613399Y-96393258D01*
X125645907Y-96556685D01*
X125645907Y-96723315D01*
X125613399Y-96886742D01*
X125549633Y-97040687D01*
X125457059Y-97179234D01*
X125339234Y-97297059D01*
X125200687Y-97389633D01*
X125046742Y-97453399D01*
X124883315Y-97485907D01*
X124716685Y-97485907D01*
X124553258Y-97453399D01*
X124399313Y-97389633D01*
X124260766Y-97297059D01*
X124142941Y-97179234D01*
X124050367Y-97040687D01*
X123986601Y-96886742D01*
X123954093Y-96723315D01*
X123954093Y-96556685D01*
X123986601Y-96393258D01*
X124050367Y-96239313D01*
X124142941Y-96100766D01*
X124260766Y-95982941D01*
X124399313Y-95890367D01*
X124553258Y-95826601D01*
X124716685Y-95794093D01*
X124883315Y-95794093D01*
X125046742Y-95826601D01*
G37*
G36*
X127586742Y-95826601D02*
G01*
X127740687Y-95890367D01*
X127879234Y-95982941D01*
X127997059Y-96100766D01*
X128089633Y-96239313D01*
X128153399Y-96393258D01*
X128185907Y-96556685D01*
X128185907Y-96723315D01*
X128153399Y-96886742D01*
X128089633Y-97040687D01*
X127997059Y-97179234D01*
X127879234Y-97297059D01*
X127740687Y-97389633D01*
X127586742Y-97453399D01*
X127423315Y-97485907D01*
X127256685Y-97485907D01*
X127093258Y-97453399D01*
X126939313Y-97389633D01*
X126800766Y-97297059D01*
X126682941Y-97179234D01*
X126590367Y-97040687D01*
X126526601Y-96886742D01*
X126494093Y-96723315D01*
X126494093Y-96556685D01*
X126526601Y-96393258D01*
X126590367Y-96239313D01*
X126682941Y-96100766D01*
X126800766Y-95982941D01*
X126939313Y-95890367D01*
X127093258Y-95826601D01*
X127256685Y-95794093D01*
X127423315Y-95794093D01*
X127586742Y-95826601D01*
G37*
G36*
X101317714Y-95862295D02*
G01*
X101453548Y-95918559D01*
X101575795Y-96000242D01*
X101679758Y-96104205D01*
X101761441Y-96226452D01*
X101817705Y-96362286D01*
X101846389Y-96506487D01*
X101846389Y-96653513D01*
X101817705Y-96797714D01*
X101761441Y-96933548D01*
X101679758Y-97055795D01*
X101575795Y-97159758D01*
X101453548Y-97241441D01*
X101317714Y-97297705D01*
X101173513Y-97326389D01*
X101026487Y-97326389D01*
X100882286Y-97297705D01*
X100746452Y-97241441D01*
X100624205Y-97159758D01*
X100520242Y-97055795D01*
X100438559Y-96933548D01*
X100382295Y-96797714D01*
X100353611Y-96653513D01*
X100353611Y-96506487D01*
X100382295Y-96362286D01*
X100438559Y-96226452D01*
X100520242Y-96104205D01*
X100624205Y-96000242D01*
X100746452Y-95918559D01*
X100882286Y-95862295D01*
X101026487Y-95833611D01*
X101173513Y-95833611D01*
X101317714Y-95862295D01*
G37*
G36*
X111494228Y-93478448D02*
G01*
X111639117Y-93538463D01*
X111769515Y-93625592D01*
X111880408Y-93736485D01*
X111967537Y-93866883D01*
X112027552Y-94011772D01*
X112058148Y-94165586D01*
X112058148Y-94322414D01*
X112027552Y-94476228D01*
X111967537Y-94621117D01*
X111880408Y-94751515D01*
X111769515Y-94862408D01*
X111639117Y-94949537D01*
X111494228Y-95009552D01*
X111340414Y-95040148D01*
X111183586Y-95040148D01*
X111029772Y-95009552D01*
X110884883Y-94949537D01*
X110754485Y-94862408D01*
X110643592Y-94751515D01*
X110556463Y-94621117D01*
X110496448Y-94476228D01*
X110465852Y-94322414D01*
X110465852Y-94165586D01*
X110496448Y-94011772D01*
X110556463Y-93866883D01*
X110643592Y-93736485D01*
X110754485Y-93625592D01*
X110884883Y-93538463D01*
X111029772Y-93478448D01*
X111183586Y-93447852D01*
X111340414Y-93447852D01*
X111494228Y-93478448D01*
G37*
G36*
X119114228Y-93478448D02*
G01*
X119259117Y-93538463D01*
X119389515Y-93625592D01*
X119500408Y-93736485D01*
X119587537Y-93866883D01*
X119647552Y-94011772D01*
X119678148Y-94165586D01*
X119678148Y-94322414D01*
X119647552Y-94476228D01*
X119587537Y-94621117D01*
X119500408Y-94751515D01*
X119389515Y-94862408D01*
X119259117Y-94949537D01*
X119114228Y-95009552D01*
X118960414Y-95040148D01*
X118803586Y-95040148D01*
X118649772Y-95009552D01*
X118504883Y-94949537D01*
X118374485Y-94862408D01*
X118263592Y-94751515D01*
X118176463Y-94621117D01*
X118116448Y-94476228D01*
X118085852Y-94322414D01*
X118085852Y-94165586D01*
X118116448Y-94011772D01*
X118176463Y-93866883D01*
X118263592Y-93736485D01*
X118374485Y-93625592D01*
X118504883Y-93538463D01*
X118649772Y-93478448D01*
X118803586Y-93447852D01*
X118960414Y-93447852D01*
X119114228Y-93478448D01*
G37*
G36*
X125650000Y-94950000D02*
G01*
X123950000Y-94950000D01*
X123950000Y-93250000D01*
X125650000Y-93250000D01*
X125650000Y-94950000D01*
G37*
G36*
X127586742Y-93286601D02*
G01*
X127740687Y-93350367D01*
X127879234Y-93442941D01*
X127997059Y-93560766D01*
X128089633Y-93699313D01*
X128153399Y-93853258D01*
X128185907Y-94016685D01*
X128185907Y-94183315D01*
X128153399Y-94346742D01*
X128089633Y-94500687D01*
X127997059Y-94639234D01*
X127879234Y-94757059D01*
X127740687Y-94849633D01*
X127586742Y-94913399D01*
X127423315Y-94945907D01*
X127256685Y-94945907D01*
X127093258Y-94913399D01*
X126939313Y-94849633D01*
X126800766Y-94757059D01*
X126682941Y-94639234D01*
X126590367Y-94500687D01*
X126526601Y-94346742D01*
X126494093Y-94183315D01*
X126494093Y-94016685D01*
X126526601Y-93853258D01*
X126590367Y-93699313D01*
X126682941Y-93560766D01*
X126800766Y-93442941D01*
X126939313Y-93350367D01*
X127093258Y-93286601D01*
X127256685Y-93254093D01*
X127423315Y-93254093D01*
X127586742Y-93286601D01*
G37*
G36*
X138361256Y-92338754D02*
G01*
X138524257Y-92406271D01*
X138670954Y-92504291D01*
X138795709Y-92629046D01*
X138893729Y-92775743D01*
X138961246Y-92938744D01*
X138995666Y-93111785D01*
X138995666Y-93288215D01*
X138961246Y-93461256D01*
X138893729Y-93624257D01*
X138795709Y-93770954D01*
X138670954Y-93895709D01*
X138524257Y-93993729D01*
X138361256Y-94061246D01*
X138188215Y-94095666D01*
X138011785Y-94095666D01*
X137838744Y-94061246D01*
X137675743Y-93993729D01*
X137529046Y-93895709D01*
X137404291Y-93770954D01*
X137306271Y-93624257D01*
X137238754Y-93461256D01*
X137204334Y-93288215D01*
X137204334Y-93111785D01*
X137238754Y-92938744D01*
X137306271Y-92775743D01*
X137404291Y-92629046D01*
X137529046Y-92504291D01*
X137675743Y-92406271D01*
X137838744Y-92338754D01*
X138011785Y-92304334D01*
X138188215Y-92304334D01*
X138361256Y-92338754D01*
G37*
G36*
X144361256Y-92338754D02*
G01*
X144524257Y-92406271D01*
X144670954Y-92504291D01*
X144795709Y-92629046D01*
X144893729Y-92775743D01*
X144961246Y-92938744D01*
X144995666Y-93111785D01*
X144995666Y-93288215D01*
X144961246Y-93461256D01*
X144893729Y-93624257D01*
X144795709Y-93770954D01*
X144670954Y-93895709D01*
X144524257Y-93993729D01*
X144361256Y-94061246D01*
X144188215Y-94095666D01*
X144011785Y-94095666D01*
X143838744Y-94061246D01*
X143675743Y-93993729D01*
X143529046Y-93895709D01*
X143404291Y-93770954D01*
X143306271Y-93624257D01*
X143238754Y-93461256D01*
X143204334Y-93288215D01*
X143204334Y-93111785D01*
X143238754Y-92938744D01*
X143306271Y-92775743D01*
X143404291Y-92629046D01*
X143529046Y-92504291D01*
X143675743Y-92406271D01*
X143838744Y-92338754D01*
X144011785Y-92304334D01*
X144188215Y-92304334D01*
X144361256Y-92338754D01*
G37*
G36*
X156161256Y-92338754D02*
G01*
X156324257Y-92406271D01*
X156470954Y-92504291D01*
X156595709Y-92629046D01*
X156693729Y-92775743D01*
X156761246Y-92938744D01*
X156795666Y-93111785D01*
X156795666Y-93288215D01*
X156761246Y-93461256D01*
X156693729Y-93624257D01*
X156595709Y-93770954D01*
X156470954Y-93895709D01*
X156324257Y-93993729D01*
X156161256Y-94061246D01*
X155988215Y-94095666D01*
X155811785Y-94095666D01*
X155638744Y-94061246D01*
X155475743Y-93993729D01*
X155329046Y-93895709D01*
X155204291Y-93770954D01*
X155106271Y-93624257D01*
X155038754Y-93461256D01*
X155004334Y-93288215D01*
X155004334Y-93111785D01*
X155038754Y-92938744D01*
X155106271Y-92775743D01*
X155204291Y-92629046D01*
X155329046Y-92504291D01*
X155475743Y-92406271D01*
X155638744Y-92338754D01*
X155811785Y-92304334D01*
X155988215Y-92304334D01*
X156161256Y-92338754D01*
G37*
G36*
X150261256Y-92278534D02*
G01*
X150424257Y-92346051D01*
X150570954Y-92444071D01*
X150695709Y-92568826D01*
X150793729Y-92715523D01*
X150861246Y-92878524D01*
X150895666Y-93051565D01*
X150895666Y-93227995D01*
X150861246Y-93401036D01*
X150793729Y-93564037D01*
X150695709Y-93710734D01*
X150570954Y-93835489D01*
X150424257Y-93933509D01*
X150261256Y-94001026D01*
X150088215Y-94035446D01*
X149911785Y-94035446D01*
X149738744Y-94001026D01*
X149575743Y-93933509D01*
X149429046Y-93835489D01*
X149304291Y-93710734D01*
X149206271Y-93564037D01*
X149138754Y-93401036D01*
X149104334Y-93227995D01*
X149104334Y-93051565D01*
X149138754Y-92878524D01*
X149206271Y-92715523D01*
X149304291Y-92568826D01*
X149429046Y-92444071D01*
X149575743Y-92346051D01*
X149738744Y-92278534D01*
X149911785Y-92244114D01*
X150088215Y-92244114D01*
X150261256Y-92278534D01*
G37*
G36*
X111494228Y-90938448D02*
G01*
X111639117Y-90998463D01*
X111769515Y-91085592D01*
X111880408Y-91196485D01*
X111967537Y-91326883D01*
X112027552Y-91471772D01*
X112058148Y-91625586D01*
X112058148Y-91782414D01*
X112027552Y-91936228D01*
X111967537Y-92081117D01*
X111880408Y-92211515D01*
X111769515Y-92322408D01*
X111639117Y-92409537D01*
X111494228Y-92469552D01*
X111340414Y-92500148D01*
X111183586Y-92500148D01*
X111029772Y-92469552D01*
X110884883Y-92409537D01*
X110754485Y-92322408D01*
X110643592Y-92211515D01*
X110556463Y-92081117D01*
X110496448Y-91936228D01*
X110465852Y-91782414D01*
X110465852Y-91625586D01*
X110496448Y-91471772D01*
X110556463Y-91326883D01*
X110643592Y-91196485D01*
X110754485Y-91085592D01*
X110884883Y-90998463D01*
X111029772Y-90938448D01*
X111183586Y-90907852D01*
X111340414Y-90907852D01*
X111494228Y-90938448D01*
G37*
G36*
X119114228Y-90938448D02*
G01*
X119259117Y-90998463D01*
X119389515Y-91085592D01*
X119500408Y-91196485D01*
X119587537Y-91326883D01*
X119647552Y-91471772D01*
X119678148Y-91625586D01*
X119678148Y-91782414D01*
X119647552Y-91936228D01*
X119587537Y-92081117D01*
X119500408Y-92211515D01*
X119389515Y-92322408D01*
X119259117Y-92409537D01*
X119114228Y-92469552D01*
X118960414Y-92500148D01*
X118803586Y-92500148D01*
X118649772Y-92469552D01*
X118504883Y-92409537D01*
X118374485Y-92322408D01*
X118263592Y-92211515D01*
X118176463Y-92081117D01*
X118116448Y-91936228D01*
X118085852Y-91782414D01*
X118085852Y-91625586D01*
X118116448Y-91471772D01*
X118176463Y-91326883D01*
X118263592Y-91196485D01*
X118374485Y-91085592D01*
X118504883Y-90998463D01*
X118649772Y-90938448D01*
X118803586Y-90907852D01*
X118960414Y-90907852D01*
X119114228Y-90938448D01*
G37*
G36*
X90932228Y-90934448D02*
G01*
X91077117Y-90994463D01*
X91207515Y-91081592D01*
X91318408Y-91192485D01*
X91405537Y-91322883D01*
X91465552Y-91467772D01*
X91496148Y-91621586D01*
X91496148Y-91778414D01*
X91465552Y-91932228D01*
X91405537Y-92077117D01*
X91318408Y-92207515D01*
X91207515Y-92318408D01*
X91077117Y-92405537D01*
X90932228Y-92465552D01*
X90778414Y-92496148D01*
X90621586Y-92496148D01*
X90467772Y-92465552D01*
X90322883Y-92405537D01*
X90192485Y-92318408D01*
X90081592Y-92207515D01*
X89994463Y-92077117D01*
X89934448Y-91932228D01*
X89903852Y-91778414D01*
X89903852Y-91621586D01*
X89934448Y-91467772D01*
X89994463Y-91322883D01*
X90081592Y-91192485D01*
X90192485Y-91081592D01*
X90322883Y-90994463D01*
X90467772Y-90934448D01*
X90621586Y-90903852D01*
X90778414Y-90903852D01*
X90932228Y-90934448D01*
G37*
G36*
X93432228Y-90934448D02*
G01*
X93577117Y-90994463D01*
X93707515Y-91081592D01*
X93818408Y-91192485D01*
X93905537Y-91322883D01*
X93965552Y-91467772D01*
X93996148Y-91621586D01*
X93996148Y-91778414D01*
X93965552Y-91932228D01*
X93905537Y-92077117D01*
X93818408Y-92207515D01*
X93707515Y-92318408D01*
X93577117Y-92405537D01*
X93432228Y-92465552D01*
X93278414Y-92496148D01*
X93121586Y-92496148D01*
X92967772Y-92465552D01*
X92822883Y-92405537D01*
X92692485Y-92318408D01*
X92581592Y-92207515D01*
X92494463Y-92077117D01*
X92434448Y-91932228D01*
X92403852Y-91778414D01*
X92403852Y-91621586D01*
X92434448Y-91467772D01*
X92494463Y-91322883D01*
X92581592Y-91192485D01*
X92692485Y-91081592D01*
X92822883Y-90994463D01*
X92967772Y-90934448D01*
X93121586Y-90903852D01*
X93278414Y-90903852D01*
X93432228Y-90934448D01*
G37*
G36*
X101317714Y-90982295D02*
G01*
X101453548Y-91038559D01*
X101575795Y-91120242D01*
X101679758Y-91224205D01*
X101761441Y-91346452D01*
X101817705Y-91482286D01*
X101846389Y-91626487D01*
X101846389Y-91773513D01*
X101817705Y-91917714D01*
X101761441Y-92053548D01*
X101679758Y-92175795D01*
X101575795Y-92279758D01*
X101453548Y-92361441D01*
X101317714Y-92417705D01*
X101173513Y-92446389D01*
X101026487Y-92446389D01*
X100882286Y-92417705D01*
X100746452Y-92361441D01*
X100624205Y-92279758D01*
X100520242Y-92175795D01*
X100438559Y-92053548D01*
X100382295Y-91917714D01*
X100353611Y-91773513D01*
X100353611Y-91626487D01*
X100382295Y-91482286D01*
X100438559Y-91346452D01*
X100520242Y-91224205D01*
X100624205Y-91120242D01*
X100746452Y-91038559D01*
X100882286Y-90982295D01*
X101026487Y-90953611D01*
X101173513Y-90953611D01*
X101317714Y-90982295D01*
G37*
G36*
X139000000Y-91560000D02*
G01*
X137200000Y-91560000D01*
X137200000Y-89760000D01*
X139000000Y-89760000D01*
X139000000Y-91560000D01*
G37*
G36*
X145000000Y-91560000D02*
G01*
X143200000Y-91560000D01*
X143200000Y-89760000D01*
X145000000Y-89760000D01*
X145000000Y-91560000D01*
G37*
G36*
X156800000Y-91560000D02*
G01*
X155000000Y-91560000D01*
X155000000Y-89760000D01*
X156800000Y-89760000D01*
X156800000Y-91560000D01*
G37*
G36*
X150900000Y-91499780D02*
G01*
X149100000Y-91499780D01*
X149100000Y-89699780D01*
X150900000Y-89699780D01*
X150900000Y-91499780D01*
G37*
G36*
X132432228Y-89114448D02*
G01*
X132577117Y-89174463D01*
X132707515Y-89261592D01*
X132818408Y-89372485D01*
X132905537Y-89502883D01*
X132965552Y-89647772D01*
X132996148Y-89801586D01*
X132996148Y-89958414D01*
X132965552Y-90112228D01*
X132905537Y-90257117D01*
X132818408Y-90387515D01*
X132707515Y-90498408D01*
X132577117Y-90585537D01*
X132432228Y-90645552D01*
X132278414Y-90676148D01*
X132121586Y-90676148D01*
X131967772Y-90645552D01*
X131822883Y-90585537D01*
X131692485Y-90498408D01*
X131581592Y-90387515D01*
X131494463Y-90257117D01*
X131434448Y-90112228D01*
X131403852Y-89958414D01*
X131403852Y-89801586D01*
X131434448Y-89647772D01*
X131494463Y-89502883D01*
X131581592Y-89372485D01*
X131692485Y-89261592D01*
X131822883Y-89174463D01*
X131967772Y-89114448D01*
X132121586Y-89083852D01*
X132278414Y-89083852D01*
X132432228Y-89114448D01*
G37*
G36*
X125132228Y-89034448D02*
G01*
X125277117Y-89094463D01*
X125407515Y-89181592D01*
X125518408Y-89292485D01*
X125605537Y-89422883D01*
X125665552Y-89567772D01*
X125696148Y-89721586D01*
X125696148Y-89878414D01*
X125665552Y-90032228D01*
X125605537Y-90177117D01*
X125518408Y-90307515D01*
X125407515Y-90418408D01*
X125277117Y-90505537D01*
X125132228Y-90565552D01*
X124978414Y-90596148D01*
X124821586Y-90596148D01*
X124667772Y-90565552D01*
X124522883Y-90505537D01*
X124392485Y-90418408D01*
X124281592Y-90307515D01*
X124194463Y-90177117D01*
X124134448Y-90032228D01*
X124103852Y-89878414D01*
X124103852Y-89721586D01*
X124134448Y-89567772D01*
X124194463Y-89422883D01*
X124281592Y-89292485D01*
X124392485Y-89181592D01*
X124522883Y-89094463D01*
X124667772Y-89034448D01*
X124821586Y-89003852D01*
X124978414Y-89003852D01*
X125132228Y-89034448D01*
G37*
G36*
X127632228Y-89034448D02*
G01*
X127777117Y-89094463D01*
X127907515Y-89181592D01*
X128018408Y-89292485D01*
X128105537Y-89422883D01*
X128165552Y-89567772D01*
X128196148Y-89721586D01*
X128196148Y-89878414D01*
X128165552Y-90032228D01*
X128105537Y-90177117D01*
X128018408Y-90307515D01*
X127907515Y-90418408D01*
X127777117Y-90505537D01*
X127632228Y-90565552D01*
X127478414Y-90596148D01*
X127321586Y-90596148D01*
X127167772Y-90565552D01*
X127022883Y-90505537D01*
X126892485Y-90418408D01*
X126781592Y-90307515D01*
X126694463Y-90177117D01*
X126634448Y-90032228D01*
X126603852Y-89878414D01*
X126603852Y-89721586D01*
X126634448Y-89567772D01*
X126694463Y-89422883D01*
X126781592Y-89292485D01*
X126892485Y-89181592D01*
X127022883Y-89094463D01*
X127167772Y-89034448D01*
X127321586Y-89003852D01*
X127478414Y-89003852D01*
X127632228Y-89034448D01*
G37*
G36*
X111494228Y-88398448D02*
G01*
X111639117Y-88458463D01*
X111769515Y-88545592D01*
X111880408Y-88656485D01*
X111967537Y-88786883D01*
X112027552Y-88931772D01*
X112058148Y-89085586D01*
X112058148Y-89242414D01*
X112027552Y-89396228D01*
X111967537Y-89541117D01*
X111880408Y-89671515D01*
X111769515Y-89782408D01*
X111639117Y-89869537D01*
X111494228Y-89929552D01*
X111340414Y-89960148D01*
X111183586Y-89960148D01*
X111029772Y-89929552D01*
X110884883Y-89869537D01*
X110754485Y-89782408D01*
X110643592Y-89671515D01*
X110556463Y-89541117D01*
X110496448Y-89396228D01*
X110465852Y-89242414D01*
X110465852Y-89085586D01*
X110496448Y-88931772D01*
X110556463Y-88786883D01*
X110643592Y-88656485D01*
X110754485Y-88545592D01*
X110884883Y-88458463D01*
X111029772Y-88398448D01*
X111183586Y-88367852D01*
X111340414Y-88367852D01*
X111494228Y-88398448D01*
G37*
G36*
X119114228Y-88398448D02*
G01*
X119259117Y-88458463D01*
X119389515Y-88545592D01*
X119500408Y-88656485D01*
X119587537Y-88786883D01*
X119647552Y-88931772D01*
X119678148Y-89085586D01*
X119678148Y-89242414D01*
X119647552Y-89396228D01*
X119587537Y-89541117D01*
X119500408Y-89671515D01*
X119389515Y-89782408D01*
X119259117Y-89869537D01*
X119114228Y-89929552D01*
X118960414Y-89960148D01*
X118803586Y-89960148D01*
X118649772Y-89929552D01*
X118504883Y-89869537D01*
X118374485Y-89782408D01*
X118263592Y-89671515D01*
X118176463Y-89541117D01*
X118116448Y-89396228D01*
X118085852Y-89242414D01*
X118085852Y-89085586D01*
X118116448Y-88931772D01*
X118176463Y-88786883D01*
X118263592Y-88656485D01*
X118374485Y-88545592D01*
X118504883Y-88458463D01*
X118649772Y-88398448D01*
X118803586Y-88367852D01*
X118960414Y-88367852D01*
X119114228Y-88398448D01*
G37*
G36*
X111494228Y-85858448D02*
G01*
X111639117Y-85918463D01*
X111769515Y-86005592D01*
X111880408Y-86116485D01*
X111967537Y-86246883D01*
X112027552Y-86391772D01*
X112058148Y-86545586D01*
X112058148Y-86702414D01*
X112027552Y-86856228D01*
X111967537Y-87001117D01*
X111880408Y-87131515D01*
X111769515Y-87242408D01*
X111639117Y-87329537D01*
X111494228Y-87389552D01*
X111340414Y-87420148D01*
X111183586Y-87420148D01*
X111029772Y-87389552D01*
X110884883Y-87329537D01*
X110754485Y-87242408D01*
X110643592Y-87131515D01*
X110556463Y-87001117D01*
X110496448Y-86856228D01*
X110465852Y-86702414D01*
X110465852Y-86545586D01*
X110496448Y-86391772D01*
X110556463Y-86246883D01*
X110643592Y-86116485D01*
X110754485Y-86005592D01*
X110884883Y-85918463D01*
X111029772Y-85858448D01*
X111183586Y-85827852D01*
X111340414Y-85827852D01*
X111494228Y-85858448D01*
G37*
G36*
X119114228Y-85858448D02*
G01*
X119259117Y-85918463D01*
X119389515Y-86005592D01*
X119500408Y-86116485D01*
X119587537Y-86246883D01*
X119647552Y-86391772D01*
X119678148Y-86545586D01*
X119678148Y-86702414D01*
X119647552Y-86856228D01*
X119587537Y-87001117D01*
X119500408Y-87131515D01*
X119389515Y-87242408D01*
X119259117Y-87329537D01*
X119114228Y-87389552D01*
X118960414Y-87420148D01*
X118803586Y-87420148D01*
X118649772Y-87389552D01*
X118504883Y-87329537D01*
X118374485Y-87242408D01*
X118263592Y-87131515D01*
X118176463Y-87001117D01*
X118116448Y-86856228D01*
X118085852Y-86702414D01*
X118085852Y-86545586D01*
X118116448Y-86391772D01*
X118176463Y-86246883D01*
X118263592Y-86116485D01*
X118374485Y-86005592D01*
X118504883Y-85918463D01*
X118649772Y-85858448D01*
X118803586Y-85827852D01*
X118960414Y-85827852D01*
X119114228Y-85858448D01*
G37*
G36*
X106404228Y-85554448D02*
G01*
X106549117Y-85614463D01*
X106679515Y-85701592D01*
X106790408Y-85812485D01*
X106877537Y-85942883D01*
X106937552Y-86087772D01*
X106968148Y-86241586D01*
X106968148Y-86398414D01*
X106937552Y-86552228D01*
X106877537Y-86697117D01*
X106790408Y-86827515D01*
X106679515Y-86938408D01*
X106549117Y-87025537D01*
X106404228Y-87085552D01*
X106250414Y-87116148D01*
X106093586Y-87116148D01*
X105939772Y-87085552D01*
X105794883Y-87025537D01*
X105664485Y-86938408D01*
X105553592Y-86827515D01*
X105466463Y-86697117D01*
X105406448Y-86552228D01*
X105375852Y-86398414D01*
X105375852Y-86241586D01*
X105406448Y-86087772D01*
X105466463Y-85942883D01*
X105553592Y-85812485D01*
X105664485Y-85701592D01*
X105794883Y-85614463D01*
X105939772Y-85554448D01*
X106093586Y-85523852D01*
X106250414Y-85523852D01*
X106404228Y-85554448D01*
G37*
G36*
X123930228Y-84832448D02*
G01*
X124075117Y-84892463D01*
X124205515Y-84979592D01*
X124316408Y-85090485D01*
X124403537Y-85220883D01*
X124463552Y-85365772D01*
X124494148Y-85519586D01*
X124494148Y-85676414D01*
X124463552Y-85830228D01*
X124403537Y-85975117D01*
X124316408Y-86105515D01*
X124205515Y-86216408D01*
X124075117Y-86303537D01*
X123930228Y-86363552D01*
X123776414Y-86394148D01*
X123619586Y-86394148D01*
X123465772Y-86363552D01*
X123320883Y-86303537D01*
X123190485Y-86216408D01*
X123079592Y-86105515D01*
X122992463Y-85975117D01*
X122932448Y-85830228D01*
X122901852Y-85676414D01*
X122901852Y-85519586D01*
X122932448Y-85365772D01*
X122992463Y-85220883D01*
X123079592Y-85090485D01*
X123190485Y-84979592D01*
X123320883Y-84892463D01*
X123465772Y-84832448D01*
X123619586Y-84801852D01*
X123776414Y-84801852D01*
X123930228Y-84832448D01*
G37*
G36*
X131550228Y-84832448D02*
G01*
X131695117Y-84892463D01*
X131825515Y-84979592D01*
X131936408Y-85090485D01*
X132023537Y-85220883D01*
X132083552Y-85365772D01*
X132114148Y-85519586D01*
X132114148Y-85676414D01*
X132083552Y-85830228D01*
X132023537Y-85975117D01*
X131936408Y-86105515D01*
X131825515Y-86216408D01*
X131695117Y-86303537D01*
X131550228Y-86363552D01*
X131396414Y-86394148D01*
X131239586Y-86394148D01*
X131085772Y-86363552D01*
X130940883Y-86303537D01*
X130810485Y-86216408D01*
X130699592Y-86105515D01*
X130612463Y-85975117D01*
X130552448Y-85830228D01*
X130521852Y-85676414D01*
X130521852Y-85519586D01*
X130552448Y-85365772D01*
X130612463Y-85220883D01*
X130699592Y-85090485D01*
X130810485Y-84979592D01*
X130940883Y-84892463D01*
X131085772Y-84832448D01*
X131239586Y-84801852D01*
X131396414Y-84801852D01*
X131550228Y-84832448D01*
G37*
G36*
X134852228Y-84832448D02*
G01*
X134997117Y-84892463D01*
X135127515Y-84979592D01*
X135238408Y-85090485D01*
X135325537Y-85220883D01*
X135385552Y-85365772D01*
X135416148Y-85519586D01*
X135416148Y-85676414D01*
X135385552Y-85830228D01*
X135325537Y-85975117D01*
X135238408Y-86105515D01*
X135127515Y-86216408D01*
X134997117Y-86303537D01*
X134852228Y-86363552D01*
X134698414Y-86394148D01*
X134541586Y-86394148D01*
X134387772Y-86363552D01*
X134242883Y-86303537D01*
X134112485Y-86216408D01*
X134001592Y-86105515D01*
X133914463Y-85975117D01*
X133854448Y-85830228D01*
X133823852Y-85676414D01*
X133823852Y-85519586D01*
X133854448Y-85365772D01*
X133914463Y-85220883D01*
X134001592Y-85090485D01*
X134112485Y-84979592D01*
X134242883Y-84892463D01*
X134387772Y-84832448D01*
X134541586Y-84801852D01*
X134698414Y-84801852D01*
X134852228Y-84832448D01*
G37*
G36*
X142472228Y-84832448D02*
G01*
X142617117Y-84892463D01*
X142747515Y-84979592D01*
X142858408Y-85090485D01*
X142945537Y-85220883D01*
X143005552Y-85365772D01*
X143036148Y-85519586D01*
X143036148Y-85676414D01*
X143005552Y-85830228D01*
X142945537Y-85975117D01*
X142858408Y-86105515D01*
X142747515Y-86216408D01*
X142617117Y-86303537D01*
X142472228Y-86363552D01*
X142318414Y-86394148D01*
X142161586Y-86394148D01*
X142007772Y-86363552D01*
X141862883Y-86303537D01*
X141732485Y-86216408D01*
X141621592Y-86105515D01*
X141534463Y-85975117D01*
X141474448Y-85830228D01*
X141443852Y-85676414D01*
X141443852Y-85519586D01*
X141474448Y-85365772D01*
X141534463Y-85220883D01*
X141621592Y-85090485D01*
X141732485Y-84979592D01*
X141862883Y-84892463D01*
X142007772Y-84832448D01*
X142161586Y-84801852D01*
X142318414Y-84801852D01*
X142472228Y-84832448D01*
G37*
G36*
X145774228Y-84832448D02*
G01*
X145919117Y-84892463D01*
X146049515Y-84979592D01*
X146160408Y-85090485D01*
X146247537Y-85220883D01*
X146307552Y-85365772D01*
X146338148Y-85519586D01*
X146338148Y-85676414D01*
X146307552Y-85830228D01*
X146247537Y-85975117D01*
X146160408Y-86105515D01*
X146049515Y-86216408D01*
X145919117Y-86303537D01*
X145774228Y-86363552D01*
X145620414Y-86394148D01*
X145463586Y-86394148D01*
X145309772Y-86363552D01*
X145164883Y-86303537D01*
X145034485Y-86216408D01*
X144923592Y-86105515D01*
X144836463Y-85975117D01*
X144776448Y-85830228D01*
X144745852Y-85676414D01*
X144745852Y-85519586D01*
X144776448Y-85365772D01*
X144836463Y-85220883D01*
X144923592Y-85090485D01*
X145034485Y-84979592D01*
X145164883Y-84892463D01*
X145309772Y-84832448D01*
X145463586Y-84801852D01*
X145620414Y-84801852D01*
X145774228Y-84832448D01*
G37*
G36*
X153394228Y-84832448D02*
G01*
X153539117Y-84892463D01*
X153669515Y-84979592D01*
X153780408Y-85090485D01*
X153867537Y-85220883D01*
X153927552Y-85365772D01*
X153958148Y-85519586D01*
X153958148Y-85676414D01*
X153927552Y-85830228D01*
X153867537Y-85975117D01*
X153780408Y-86105515D01*
X153669515Y-86216408D01*
X153539117Y-86303537D01*
X153394228Y-86363552D01*
X153240414Y-86394148D01*
X153083586Y-86394148D01*
X152929772Y-86363552D01*
X152784883Y-86303537D01*
X152654485Y-86216408D01*
X152543592Y-86105515D01*
X152456463Y-85975117D01*
X152396448Y-85830228D01*
X152365852Y-85676414D01*
X152365852Y-85519586D01*
X152396448Y-85365772D01*
X152456463Y-85220883D01*
X152543592Y-85090485D01*
X152654485Y-84979592D01*
X152784883Y-84892463D01*
X152929772Y-84832448D01*
X153083586Y-84801852D01*
X153240414Y-84801852D01*
X153394228Y-84832448D01*
G37*
G36*
X157204228Y-84832448D02*
G01*
X157349117Y-84892463D01*
X157479515Y-84979592D01*
X157590408Y-85090485D01*
X157677537Y-85220883D01*
X157737552Y-85365772D01*
X157768148Y-85519586D01*
X157768148Y-85676414D01*
X157737552Y-85830228D01*
X157677537Y-85975117D01*
X157590408Y-86105515D01*
X157479515Y-86216408D01*
X157349117Y-86303537D01*
X157204228Y-86363552D01*
X157050414Y-86394148D01*
X156893586Y-86394148D01*
X156739772Y-86363552D01*
X156594883Y-86303537D01*
X156464485Y-86216408D01*
X156353592Y-86105515D01*
X156266463Y-85975117D01*
X156206448Y-85830228D01*
X156175852Y-85676414D01*
X156175852Y-85519586D01*
X156206448Y-85365772D01*
X156266463Y-85220883D01*
X156353592Y-85090485D01*
X156464485Y-84979592D01*
X156594883Y-84892463D01*
X156739772Y-84832448D01*
X156893586Y-84801852D01*
X157050414Y-84801852D01*
X157204228Y-84832448D01*
G37*
G36*
X111494228Y-83318448D02*
G01*
X111639117Y-83378463D01*
X111769515Y-83465592D01*
X111880408Y-83576485D01*
X111967537Y-83706883D01*
X112027552Y-83851772D01*
X112058148Y-84005586D01*
X112058148Y-84162414D01*
X112027552Y-84316228D01*
X111967537Y-84461117D01*
X111880408Y-84591515D01*
X111769515Y-84702408D01*
X111639117Y-84789537D01*
X111494228Y-84849552D01*
X111340414Y-84880148D01*
X111183586Y-84880148D01*
X111029772Y-84849552D01*
X110884883Y-84789537D01*
X110754485Y-84702408D01*
X110643592Y-84591515D01*
X110556463Y-84461117D01*
X110496448Y-84316228D01*
X110465852Y-84162414D01*
X110465852Y-84005586D01*
X110496448Y-83851772D01*
X110556463Y-83706883D01*
X110643592Y-83576485D01*
X110754485Y-83465592D01*
X110884883Y-83378463D01*
X111029772Y-83318448D01*
X111183586Y-83287852D01*
X111340414Y-83287852D01*
X111494228Y-83318448D01*
G37*
G36*
X119114228Y-83318448D02*
G01*
X119259117Y-83378463D01*
X119389515Y-83465592D01*
X119500408Y-83576485D01*
X119587537Y-83706883D01*
X119647552Y-83851772D01*
X119678148Y-84005586D01*
X119678148Y-84162414D01*
X119647552Y-84316228D01*
X119587537Y-84461117D01*
X119500408Y-84591515D01*
X119389515Y-84702408D01*
X119259117Y-84789537D01*
X119114228Y-84849552D01*
X118960414Y-84880148D01*
X118803586Y-84880148D01*
X118649772Y-84849552D01*
X118504883Y-84789537D01*
X118374485Y-84702408D01*
X118263592Y-84591515D01*
X118176463Y-84461117D01*
X118116448Y-84316228D01*
X118085852Y-84162414D01*
X118085852Y-84005586D01*
X118116448Y-83851772D01*
X118176463Y-83706883D01*
X118263592Y-83576485D01*
X118374485Y-83465592D01*
X118504883Y-83378463D01*
X118649772Y-83318448D01*
X118803586Y-83287852D01*
X118960414Y-83287852D01*
X119114228Y-83318448D01*
G37*
G36*
X106404228Y-83054448D02*
G01*
X106549117Y-83114463D01*
X106679515Y-83201592D01*
X106790408Y-83312485D01*
X106877537Y-83442883D01*
X106937552Y-83587772D01*
X106968148Y-83741586D01*
X106968148Y-83898414D01*
X106937552Y-84052228D01*
X106877537Y-84197117D01*
X106790408Y-84327515D01*
X106679515Y-84438408D01*
X106549117Y-84525537D01*
X106404228Y-84585552D01*
X106250414Y-84616148D01*
X106093586Y-84616148D01*
X105939772Y-84585552D01*
X105794883Y-84525537D01*
X105664485Y-84438408D01*
X105553592Y-84327515D01*
X105466463Y-84197117D01*
X105406448Y-84052228D01*
X105375852Y-83898414D01*
X105375852Y-83741586D01*
X105406448Y-83587772D01*
X105466463Y-83442883D01*
X105553592Y-83312485D01*
X105664485Y-83201592D01*
X105794883Y-83114463D01*
X105939772Y-83054448D01*
X106093586Y-83023852D01*
X106250414Y-83023852D01*
X106404228Y-83054448D01*
G37*
G36*
X111494228Y-80778448D02*
G01*
X111639117Y-80838463D01*
X111769515Y-80925592D01*
X111880408Y-81036485D01*
X111967537Y-81166883D01*
X112027552Y-81311772D01*
X112058148Y-81465586D01*
X112058148Y-81622414D01*
X112027552Y-81776228D01*
X111967537Y-81921117D01*
X111880408Y-82051515D01*
X111769515Y-82162408D01*
X111639117Y-82249537D01*
X111494228Y-82309552D01*
X111340414Y-82340148D01*
X111183586Y-82340148D01*
X111029772Y-82309552D01*
X110884883Y-82249537D01*
X110754485Y-82162408D01*
X110643592Y-82051515D01*
X110556463Y-81921117D01*
X110496448Y-81776228D01*
X110465852Y-81622414D01*
X110465852Y-81465586D01*
X110496448Y-81311772D01*
X110556463Y-81166883D01*
X110643592Y-81036485D01*
X110754485Y-80925592D01*
X110884883Y-80838463D01*
X111029772Y-80778448D01*
X111183586Y-80747852D01*
X111340414Y-80747852D01*
X111494228Y-80778448D01*
G37*
G36*
X119114228Y-80778448D02*
G01*
X119259117Y-80838463D01*
X119389515Y-80925592D01*
X119500408Y-81036485D01*
X119587537Y-81166883D01*
X119647552Y-81311772D01*
X119678148Y-81465586D01*
X119678148Y-81622414D01*
X119647552Y-81776228D01*
X119587537Y-81921117D01*
X119500408Y-82051515D01*
X119389515Y-82162408D01*
X119259117Y-82249537D01*
X119114228Y-82309552D01*
X118960414Y-82340148D01*
X118803586Y-82340148D01*
X118649772Y-82309552D01*
X118504883Y-82249537D01*
X118374485Y-82162408D01*
X118263592Y-82051515D01*
X118176463Y-81921117D01*
X118116448Y-81776228D01*
X118085852Y-81622414D01*
X118085852Y-81465586D01*
X118116448Y-81311772D01*
X118176463Y-81166883D01*
X118263592Y-81036485D01*
X118374485Y-80925592D01*
X118504883Y-80838463D01*
X118649772Y-80778448D01*
X118803586Y-80747852D01*
X118960414Y-80747852D01*
X119114228Y-80778448D01*
G37*
G36*
X123930228Y-80768448D02*
G01*
X124075117Y-80828463D01*
X124205515Y-80915592D01*
X124316408Y-81026485D01*
X124403537Y-81156883D01*
X124463552Y-81301772D01*
X124494148Y-81455586D01*
X124494148Y-81612414D01*
X124463552Y-81766228D01*
X124403537Y-81911117D01*
X124316408Y-82041515D01*
X124205515Y-82152408D01*
X124075117Y-82239537D01*
X123930228Y-82299552D01*
X123776414Y-82330148D01*
X123619586Y-82330148D01*
X123465772Y-82299552D01*
X123320883Y-82239537D01*
X123190485Y-82152408D01*
X123079592Y-82041515D01*
X122992463Y-81911117D01*
X122932448Y-81766228D01*
X122901852Y-81612414D01*
X122901852Y-81455586D01*
X122932448Y-81301772D01*
X122992463Y-81156883D01*
X123079592Y-81026485D01*
X123190485Y-80915592D01*
X123320883Y-80828463D01*
X123465772Y-80768448D01*
X123619586Y-80737852D01*
X123776414Y-80737852D01*
X123930228Y-80768448D01*
G37*
G36*
X131550228Y-80768448D02*
G01*
X131695117Y-80828463D01*
X131825515Y-80915592D01*
X131936408Y-81026485D01*
X132023537Y-81156883D01*
X132083552Y-81301772D01*
X132114148Y-81455586D01*
X132114148Y-81612414D01*
X132083552Y-81766228D01*
X132023537Y-81911117D01*
X131936408Y-82041515D01*
X131825515Y-82152408D01*
X131695117Y-82239537D01*
X131550228Y-82299552D01*
X131396414Y-82330148D01*
X131239586Y-82330148D01*
X131085772Y-82299552D01*
X130940883Y-82239537D01*
X130810485Y-82152408D01*
X130699592Y-82041515D01*
X130612463Y-81911117D01*
X130552448Y-81766228D01*
X130521852Y-81612414D01*
X130521852Y-81455586D01*
X130552448Y-81301772D01*
X130612463Y-81156883D01*
X130699592Y-81026485D01*
X130810485Y-80915592D01*
X130940883Y-80828463D01*
X131085772Y-80768448D01*
X131239586Y-80737852D01*
X131396414Y-80737852D01*
X131550228Y-80768448D01*
G37*
G36*
X134852228Y-80768448D02*
G01*
X134997117Y-80828463D01*
X135127515Y-80915592D01*
X135238408Y-81026485D01*
X135325537Y-81156883D01*
X135385552Y-81301772D01*
X135416148Y-81455586D01*
X135416148Y-81612414D01*
X135385552Y-81766228D01*
X135325537Y-81911117D01*
X135238408Y-82041515D01*
X135127515Y-82152408D01*
X134997117Y-82239537D01*
X134852228Y-82299552D01*
X134698414Y-82330148D01*
X134541586Y-82330148D01*
X134387772Y-82299552D01*
X134242883Y-82239537D01*
X134112485Y-82152408D01*
X134001592Y-82041515D01*
X133914463Y-81911117D01*
X133854448Y-81766228D01*
X133823852Y-81612414D01*
X133823852Y-81455586D01*
X133854448Y-81301772D01*
X133914463Y-81156883D01*
X134001592Y-81026485D01*
X134112485Y-80915592D01*
X134242883Y-80828463D01*
X134387772Y-80768448D01*
X134541586Y-80737852D01*
X134698414Y-80737852D01*
X134852228Y-80768448D01*
G37*
G36*
X142472228Y-80768448D02*
G01*
X142617117Y-80828463D01*
X142747515Y-80915592D01*
X142858408Y-81026485D01*
X142945537Y-81156883D01*
X143005552Y-81301772D01*
X143036148Y-81455586D01*
X143036148Y-81612414D01*
X143005552Y-81766228D01*
X142945537Y-81911117D01*
X142858408Y-82041515D01*
X142747515Y-82152408D01*
X142617117Y-82239537D01*
X142472228Y-82299552D01*
X142318414Y-82330148D01*
X142161586Y-82330148D01*
X142007772Y-82299552D01*
X141862883Y-82239537D01*
X141732485Y-82152408D01*
X141621592Y-82041515D01*
X141534463Y-81911117D01*
X141474448Y-81766228D01*
X141443852Y-81612414D01*
X141443852Y-81455586D01*
X141474448Y-81301772D01*
X141534463Y-81156883D01*
X141621592Y-81026485D01*
X141732485Y-80915592D01*
X141862883Y-80828463D01*
X142007772Y-80768448D01*
X142161586Y-80737852D01*
X142318414Y-80737852D01*
X142472228Y-80768448D01*
G37*
G36*
X145774228Y-80768448D02*
G01*
X145919117Y-80828463D01*
X146049515Y-80915592D01*
X146160408Y-81026485D01*
X146247537Y-81156883D01*
X146307552Y-81301772D01*
X146338148Y-81455586D01*
X146338148Y-81612414D01*
X146307552Y-81766228D01*
X146247537Y-81911117D01*
X146160408Y-82041515D01*
X146049515Y-82152408D01*
X145919117Y-82239537D01*
X145774228Y-82299552D01*
X145620414Y-82330148D01*
X145463586Y-82330148D01*
X145309772Y-82299552D01*
X145164883Y-82239537D01*
X145034485Y-82152408D01*
X144923592Y-82041515D01*
X144836463Y-81911117D01*
X144776448Y-81766228D01*
X144745852Y-81612414D01*
X144745852Y-81455586D01*
X144776448Y-81301772D01*
X144836463Y-81156883D01*
X144923592Y-81026485D01*
X145034485Y-80915592D01*
X145164883Y-80828463D01*
X145309772Y-80768448D01*
X145463586Y-80737852D01*
X145620414Y-80737852D01*
X145774228Y-80768448D01*
G37*
G36*
X153394228Y-80768448D02*
G01*
X153539117Y-80828463D01*
X153669515Y-80915592D01*
X153780408Y-81026485D01*
X153867537Y-81156883D01*
X153927552Y-81301772D01*
X153958148Y-81455586D01*
X153958148Y-81612414D01*
X153927552Y-81766228D01*
X153867537Y-81911117D01*
X153780408Y-82041515D01*
X153669515Y-82152408D01*
X153539117Y-82239537D01*
X153394228Y-82299552D01*
X153240414Y-82330148D01*
X153083586Y-82330148D01*
X152929772Y-82299552D01*
X152784883Y-82239537D01*
X152654485Y-82152408D01*
X152543592Y-82041515D01*
X152456463Y-81911117D01*
X152396448Y-81766228D01*
X152365852Y-81612414D01*
X152365852Y-81455586D01*
X152396448Y-81301772D01*
X152456463Y-81156883D01*
X152543592Y-81026485D01*
X152654485Y-80915592D01*
X152784883Y-80828463D01*
X152929772Y-80768448D01*
X153083586Y-80737852D01*
X153240414Y-80737852D01*
X153394228Y-80768448D01*
G37*
G36*
X95592285Y-78001060D02*
G01*
X95773397Y-78076079D01*
X95936393Y-78184990D01*
X96075010Y-78323607D01*
X96183921Y-78486603D01*
X96258940Y-78667715D01*
X96297185Y-78859983D01*
X96297185Y-79056017D01*
X96258940Y-79248285D01*
X96183921Y-79429397D01*
X96075010Y-79592393D01*
X95936393Y-79731010D01*
X95773397Y-79839921D01*
X95592285Y-79914940D01*
X95400017Y-79953185D01*
X95203983Y-79953185D01*
X95011715Y-79914940D01*
X94830603Y-79839921D01*
X94667607Y-79731010D01*
X94528990Y-79592393D01*
X94420079Y-79429397D01*
X94345060Y-79248285D01*
X94306815Y-79056017D01*
X94306815Y-78859983D01*
X94345060Y-78667715D01*
X94420079Y-78486603D01*
X94528990Y-78323607D01*
X94667607Y-78184990D01*
X94830603Y-78076079D01*
X95011715Y-78001060D01*
X95203983Y-77962815D01*
X95400017Y-77962815D01*
X95592285Y-78001060D01*
G37*
G36*
X102092285Y-78001060D02*
G01*
X102273397Y-78076079D01*
X102436393Y-78184990D01*
X102575010Y-78323607D01*
X102683921Y-78486603D01*
X102758940Y-78667715D01*
X102797185Y-78859983D01*
X102797185Y-79056017D01*
X102758940Y-79248285D01*
X102683921Y-79429397D01*
X102575010Y-79592393D01*
X102436393Y-79731010D01*
X102273397Y-79839921D01*
X102092285Y-79914940D01*
X101900017Y-79953185D01*
X101703983Y-79953185D01*
X101511715Y-79914940D01*
X101330603Y-79839921D01*
X101167607Y-79731010D01*
X101028990Y-79592393D01*
X100920079Y-79429397D01*
X100845060Y-79248285D01*
X100806815Y-79056017D01*
X100806815Y-78859983D01*
X100845060Y-78667715D01*
X100920079Y-78486603D01*
X101028990Y-78323607D01*
X101167607Y-78184990D01*
X101330603Y-78076079D01*
X101511715Y-78001060D01*
X101703983Y-77962815D01*
X101900017Y-77962815D01*
X102092285Y-78001060D01*
G37*
G36*
X111494228Y-78238448D02*
G01*
X111639117Y-78298463D01*
X111769515Y-78385592D01*
X111880408Y-78496485D01*
X111967537Y-78626883D01*
X112027552Y-78771772D01*
X112058148Y-78925586D01*
X112058148Y-79082414D01*
X112027552Y-79236228D01*
X111967537Y-79381117D01*
X111880408Y-79511515D01*
X111769515Y-79622408D01*
X111639117Y-79709537D01*
X111494228Y-79769552D01*
X111340414Y-79800148D01*
X111183586Y-79800148D01*
X111029772Y-79769552D01*
X110884883Y-79709537D01*
X110754485Y-79622408D01*
X110643592Y-79511515D01*
X110556463Y-79381117D01*
X110496448Y-79236228D01*
X110465852Y-79082414D01*
X110465852Y-78925586D01*
X110496448Y-78771772D01*
X110556463Y-78626883D01*
X110643592Y-78496485D01*
X110754485Y-78385592D01*
X110884883Y-78298463D01*
X111029772Y-78238448D01*
X111183586Y-78207852D01*
X111340414Y-78207852D01*
X111494228Y-78238448D01*
G37*
G36*
X119114228Y-78238448D02*
G01*
X119259117Y-78298463D01*
X119389515Y-78385592D01*
X119500408Y-78496485D01*
X119587537Y-78626883D01*
X119647552Y-78771772D01*
X119678148Y-78925586D01*
X119678148Y-79082414D01*
X119647552Y-79236228D01*
X119587537Y-79381117D01*
X119500408Y-79511515D01*
X119389515Y-79622408D01*
X119259117Y-79709537D01*
X119114228Y-79769552D01*
X118960414Y-79800148D01*
X118803586Y-79800148D01*
X118649772Y-79769552D01*
X118504883Y-79709537D01*
X118374485Y-79622408D01*
X118263592Y-79511515D01*
X118176463Y-79381117D01*
X118116448Y-79236228D01*
X118085852Y-79082414D01*
X118085852Y-78925586D01*
X118116448Y-78771772D01*
X118176463Y-78626883D01*
X118263592Y-78496485D01*
X118374485Y-78385592D01*
X118504883Y-78298463D01*
X118649772Y-78238448D01*
X118803586Y-78207852D01*
X118960414Y-78207852D01*
X119114228Y-78238448D01*
G37*
G36*
X106150228Y-78228448D02*
G01*
X106295117Y-78288463D01*
X106425515Y-78375592D01*
X106536408Y-78486485D01*
X106623537Y-78616883D01*
X106683552Y-78761772D01*
X106714148Y-78915586D01*
X106714148Y-79072414D01*
X106683552Y-79226228D01*
X106623537Y-79371117D01*
X106536408Y-79501515D01*
X106425515Y-79612408D01*
X106295117Y-79699537D01*
X106150228Y-79759552D01*
X105996414Y-79790148D01*
X105839586Y-79790148D01*
X105685772Y-79759552D01*
X105540883Y-79699537D01*
X105410485Y-79612408D01*
X105299592Y-79501515D01*
X105212463Y-79371117D01*
X105152448Y-79226228D01*
X105121852Y-79072414D01*
X105121852Y-78915586D01*
X105152448Y-78761772D01*
X105212463Y-78616883D01*
X105299592Y-78486485D01*
X105410485Y-78375592D01*
X105540883Y-78288463D01*
X105685772Y-78228448D01*
X105839586Y-78197852D01*
X105996414Y-78197852D01*
X106150228Y-78228448D01*
G37*
G36*
X157204228Y-77212448D02*
G01*
X157349117Y-77272463D01*
X157479515Y-77359592D01*
X157590408Y-77470485D01*
X157677537Y-77600883D01*
X157737552Y-77745772D01*
X157768148Y-77899586D01*
X157768148Y-78056414D01*
X157737552Y-78210228D01*
X157677537Y-78355117D01*
X157590408Y-78485515D01*
X157479515Y-78596408D01*
X157349117Y-78683537D01*
X157204228Y-78743552D01*
X157050414Y-78774148D01*
X156893586Y-78774148D01*
X156739772Y-78743552D01*
X156594883Y-78683537D01*
X156464485Y-78596408D01*
X156353592Y-78485515D01*
X156266463Y-78355117D01*
X156206448Y-78210228D01*
X156175852Y-78056414D01*
X156175852Y-77899586D01*
X156206448Y-77745772D01*
X156266463Y-77600883D01*
X156353592Y-77470485D01*
X156464485Y-77359592D01*
X156594883Y-77272463D01*
X156739772Y-77212448D01*
X156893586Y-77181852D01*
X157050414Y-77181852D01*
X157204228Y-77212448D01*
G37*
G36*
X123930228Y-76450448D02*
G01*
X124075117Y-76510463D01*
X124205515Y-76597592D01*
X124316408Y-76708485D01*
X124403537Y-76838883D01*
X124463552Y-76983772D01*
X124494148Y-77137586D01*
X124494148Y-77294414D01*
X124463552Y-77448228D01*
X124403537Y-77593117D01*
X124316408Y-77723515D01*
X124205515Y-77834408D01*
X124075117Y-77921537D01*
X123930228Y-77981552D01*
X123776414Y-78012148D01*
X123619586Y-78012148D01*
X123465772Y-77981552D01*
X123320883Y-77921537D01*
X123190485Y-77834408D01*
X123079592Y-77723515D01*
X122992463Y-77593117D01*
X122932448Y-77448228D01*
X122901852Y-77294414D01*
X122901852Y-77137586D01*
X122932448Y-76983772D01*
X122992463Y-76838883D01*
X123079592Y-76708485D01*
X123190485Y-76597592D01*
X123320883Y-76510463D01*
X123465772Y-76450448D01*
X123619586Y-76419852D01*
X123776414Y-76419852D01*
X123930228Y-76450448D01*
G37*
G36*
X131550228Y-76450448D02*
G01*
X131695117Y-76510463D01*
X131825515Y-76597592D01*
X131936408Y-76708485D01*
X132023537Y-76838883D01*
X132083552Y-76983772D01*
X132114148Y-77137586D01*
X132114148Y-77294414D01*
X132083552Y-77448228D01*
X132023537Y-77593117D01*
X131936408Y-77723515D01*
X131825515Y-77834408D01*
X131695117Y-77921537D01*
X131550228Y-77981552D01*
X131396414Y-78012148D01*
X131239586Y-78012148D01*
X131085772Y-77981552D01*
X130940883Y-77921537D01*
X130810485Y-77834408D01*
X130699592Y-77723515D01*
X130612463Y-77593117D01*
X130552448Y-77448228D01*
X130521852Y-77294414D01*
X130521852Y-77137586D01*
X130552448Y-76983772D01*
X130612463Y-76838883D01*
X130699592Y-76708485D01*
X130810485Y-76597592D01*
X130940883Y-76510463D01*
X131085772Y-76450448D01*
X131239586Y-76419852D01*
X131396414Y-76419852D01*
X131550228Y-76450448D01*
G37*
G36*
X134852228Y-76450448D02*
G01*
X134997117Y-76510463D01*
X135127515Y-76597592D01*
X135238408Y-76708485D01*
X135325537Y-76838883D01*
X135385552Y-76983772D01*
X135416148Y-77137586D01*
X135416148Y-77294414D01*
X135385552Y-77448228D01*
X135325537Y-77593117D01*
X135238408Y-77723515D01*
X135127515Y-77834408D01*
X134997117Y-77921537D01*
X134852228Y-77981552D01*
X134698414Y-78012148D01*
X134541586Y-78012148D01*
X134387772Y-77981552D01*
X134242883Y-77921537D01*
X134112485Y-77834408D01*
X134001592Y-77723515D01*
X133914463Y-77593117D01*
X133854448Y-77448228D01*
X133823852Y-77294414D01*
X133823852Y-77137586D01*
X133854448Y-76983772D01*
X133914463Y-76838883D01*
X134001592Y-76708485D01*
X134112485Y-76597592D01*
X134242883Y-76510463D01*
X134387772Y-76450448D01*
X134541586Y-76419852D01*
X134698414Y-76419852D01*
X134852228Y-76450448D01*
G37*
G36*
X142472228Y-76450448D02*
G01*
X142617117Y-76510463D01*
X142747515Y-76597592D01*
X142858408Y-76708485D01*
X142945537Y-76838883D01*
X143005552Y-76983772D01*
X143036148Y-77137586D01*
X143036148Y-77294414D01*
X143005552Y-77448228D01*
X142945537Y-77593117D01*
X142858408Y-77723515D01*
X142747515Y-77834408D01*
X142617117Y-77921537D01*
X142472228Y-77981552D01*
X142318414Y-78012148D01*
X142161586Y-78012148D01*
X142007772Y-77981552D01*
X141862883Y-77921537D01*
X141732485Y-77834408D01*
X141621592Y-77723515D01*
X141534463Y-77593117D01*
X141474448Y-77448228D01*
X141443852Y-77294414D01*
X141443852Y-77137586D01*
X141474448Y-76983772D01*
X141534463Y-76838883D01*
X141621592Y-76708485D01*
X141732485Y-76597592D01*
X141862883Y-76510463D01*
X142007772Y-76450448D01*
X142161586Y-76419852D01*
X142318414Y-76419852D01*
X142472228Y-76450448D01*
G37*
G36*
X145774228Y-76450448D02*
G01*
X145919117Y-76510463D01*
X146049515Y-76597592D01*
X146160408Y-76708485D01*
X146247537Y-76838883D01*
X146307552Y-76983772D01*
X146338148Y-77137586D01*
X146338148Y-77294414D01*
X146307552Y-77448228D01*
X146247537Y-77593117D01*
X146160408Y-77723515D01*
X146049515Y-77834408D01*
X145919117Y-77921537D01*
X145774228Y-77981552D01*
X145620414Y-78012148D01*
X145463586Y-78012148D01*
X145309772Y-77981552D01*
X145164883Y-77921537D01*
X145034485Y-77834408D01*
X144923592Y-77723515D01*
X144836463Y-77593117D01*
X144776448Y-77448228D01*
X144745852Y-77294414D01*
X144745852Y-77137586D01*
X144776448Y-76983772D01*
X144836463Y-76838883D01*
X144923592Y-76708485D01*
X145034485Y-76597592D01*
X145164883Y-76510463D01*
X145309772Y-76450448D01*
X145463586Y-76419852D01*
X145620414Y-76419852D01*
X145774228Y-76450448D01*
G37*
G36*
X153394228Y-76450448D02*
G01*
X153539117Y-76510463D01*
X153669515Y-76597592D01*
X153780408Y-76708485D01*
X153867537Y-76838883D01*
X153927552Y-76983772D01*
X153958148Y-77137586D01*
X153958148Y-77294414D01*
X153927552Y-77448228D01*
X153867537Y-77593117D01*
X153780408Y-77723515D01*
X153669515Y-77834408D01*
X153539117Y-77921537D01*
X153394228Y-77981552D01*
X153240414Y-78012148D01*
X153083586Y-78012148D01*
X152929772Y-77981552D01*
X152784883Y-77921537D01*
X152654485Y-77834408D01*
X152543592Y-77723515D01*
X152456463Y-77593117D01*
X152396448Y-77448228D01*
X152365852Y-77294414D01*
X152365852Y-77137586D01*
X152396448Y-76983772D01*
X152456463Y-76838883D01*
X152543592Y-76708485D01*
X152654485Y-76597592D01*
X152784883Y-76510463D01*
X152929772Y-76450448D01*
X153083586Y-76419852D01*
X153240414Y-76419852D01*
X153394228Y-76450448D01*
G37*
G36*
X106150228Y-75728448D02*
G01*
X106295117Y-75788463D01*
X106425515Y-75875592D01*
X106536408Y-75986485D01*
X106623537Y-76116883D01*
X106683552Y-76261772D01*
X106714148Y-76415586D01*
X106714148Y-76572414D01*
X106683552Y-76726228D01*
X106623537Y-76871117D01*
X106536408Y-77001515D01*
X106425515Y-77112408D01*
X106295117Y-77199537D01*
X106150228Y-77259552D01*
X105996414Y-77290148D01*
X105839586Y-77290148D01*
X105685772Y-77259552D01*
X105540883Y-77199537D01*
X105410485Y-77112408D01*
X105299592Y-77001515D01*
X105212463Y-76871117D01*
X105152448Y-76726228D01*
X105121852Y-76572414D01*
X105121852Y-76415586D01*
X105152448Y-76261772D01*
X105212463Y-76116883D01*
X105299592Y-75986485D01*
X105410485Y-75875592D01*
X105540883Y-75788463D01*
X105685772Y-75728448D01*
X105839586Y-75697852D01*
X105996414Y-75697852D01*
X106150228Y-75728448D01*
G37*
G36*
X111494228Y-75698448D02*
G01*
X111639117Y-75758463D01*
X111769515Y-75845592D01*
X111880408Y-75956485D01*
X111967537Y-76086883D01*
X112027552Y-76231772D01*
X112058148Y-76385586D01*
X112058148Y-76542414D01*
X112027552Y-76696228D01*
X111967537Y-76841117D01*
X111880408Y-76971515D01*
X111769515Y-77082408D01*
X111639117Y-77169537D01*
X111494228Y-77229552D01*
X111340414Y-77260148D01*
X111183586Y-77260148D01*
X111029772Y-77229552D01*
X110884883Y-77169537D01*
X110754485Y-77082408D01*
X110643592Y-76971515D01*
X110556463Y-76841117D01*
X110496448Y-76696228D01*
X110465852Y-76542414D01*
X110465852Y-76385586D01*
X110496448Y-76231772D01*
X110556463Y-76086883D01*
X110643592Y-75956485D01*
X110754485Y-75845592D01*
X110884883Y-75758463D01*
X111029772Y-75698448D01*
X111183586Y-75667852D01*
X111340414Y-75667852D01*
X111494228Y-75698448D01*
G37*
G36*
X119114228Y-75698448D02*
G01*
X119259117Y-75758463D01*
X119389515Y-75845592D01*
X119500408Y-75956485D01*
X119587537Y-76086883D01*
X119647552Y-76231772D01*
X119678148Y-76385586D01*
X119678148Y-76542414D01*
X119647552Y-76696228D01*
X119587537Y-76841117D01*
X119500408Y-76971515D01*
X119389515Y-77082408D01*
X119259117Y-77169537D01*
X119114228Y-77229552D01*
X118960414Y-77260148D01*
X118803586Y-77260148D01*
X118649772Y-77229552D01*
X118504883Y-77169537D01*
X118374485Y-77082408D01*
X118263592Y-76971515D01*
X118176463Y-76841117D01*
X118116448Y-76696228D01*
X118085852Y-76542414D01*
X118085852Y-76385586D01*
X118116448Y-76231772D01*
X118176463Y-76086883D01*
X118263592Y-75956485D01*
X118374485Y-75845592D01*
X118504883Y-75758463D01*
X118649772Y-75698448D01*
X118803586Y-75667852D01*
X118960414Y-75667852D01*
X119114228Y-75698448D01*
G37*
G36*
X95592285Y-73501060D02*
G01*
X95773397Y-73576079D01*
X95936393Y-73684990D01*
X96075010Y-73823607D01*
X96183921Y-73986603D01*
X96258940Y-74167715D01*
X96297185Y-74359983D01*
X96297185Y-74556017D01*
X96258940Y-74748285D01*
X96183921Y-74929397D01*
X96075010Y-75092393D01*
X95936393Y-75231010D01*
X95773397Y-75339921D01*
X95592285Y-75414940D01*
X95400017Y-75453185D01*
X95203983Y-75453185D01*
X95011715Y-75414940D01*
X94830603Y-75339921D01*
X94667607Y-75231010D01*
X94528990Y-75092393D01*
X94420079Y-74929397D01*
X94345060Y-74748285D01*
X94306815Y-74556017D01*
X94306815Y-74359983D01*
X94345060Y-74167715D01*
X94420079Y-73986603D01*
X94528990Y-73823607D01*
X94667607Y-73684990D01*
X94830603Y-73576079D01*
X95011715Y-73501060D01*
X95203983Y-73462815D01*
X95400017Y-73462815D01*
X95592285Y-73501060D01*
G37*
G36*
X102092285Y-73501060D02*
G01*
X102273397Y-73576079D01*
X102436393Y-73684990D01*
X102575010Y-73823607D01*
X102683921Y-73986603D01*
X102758940Y-74167715D01*
X102797185Y-74359983D01*
X102797185Y-74556017D01*
X102758940Y-74748285D01*
X102683921Y-74929397D01*
X102575010Y-75092393D01*
X102436393Y-75231010D01*
X102273397Y-75339921D01*
X102092285Y-75414940D01*
X101900017Y-75453185D01*
X101703983Y-75453185D01*
X101511715Y-75414940D01*
X101330603Y-75339921D01*
X101167607Y-75231010D01*
X101028990Y-75092393D01*
X100920079Y-74929397D01*
X100845060Y-74748285D01*
X100806815Y-74556017D01*
X100806815Y-74359983D01*
X100845060Y-74167715D01*
X100920079Y-73986603D01*
X101028990Y-73823607D01*
X101167607Y-73684990D01*
X101330603Y-73576079D01*
X101511715Y-73501060D01*
X101703983Y-73462815D01*
X101900017Y-73462815D01*
X102092285Y-73501060D01*
G37*
G36*
X111494228Y-73158448D02*
G01*
X111639117Y-73218463D01*
X111769515Y-73305592D01*
X111880408Y-73416485D01*
X111967537Y-73546883D01*
X112027552Y-73691772D01*
X112058148Y-73845586D01*
X112058148Y-74002414D01*
X112027552Y-74156228D01*
X111967537Y-74301117D01*
X111880408Y-74431515D01*
X111769515Y-74542408D01*
X111639117Y-74629537D01*
X111494228Y-74689552D01*
X111340414Y-74720148D01*
X111183586Y-74720148D01*
X111029772Y-74689552D01*
X110884883Y-74629537D01*
X110754485Y-74542408D01*
X110643592Y-74431515D01*
X110556463Y-74301117D01*
X110496448Y-74156228D01*
X110465852Y-74002414D01*
X110465852Y-73845586D01*
X110496448Y-73691772D01*
X110556463Y-73546883D01*
X110643592Y-73416485D01*
X110754485Y-73305592D01*
X110884883Y-73218463D01*
X111029772Y-73158448D01*
X111183586Y-73127852D01*
X111340414Y-73127852D01*
X111494228Y-73158448D01*
G37*
G36*
X119114228Y-73158448D02*
G01*
X119259117Y-73218463D01*
X119389515Y-73305592D01*
X119500408Y-73416485D01*
X119587537Y-73546883D01*
X119647552Y-73691772D01*
X119678148Y-73845586D01*
X119678148Y-74002414D01*
X119647552Y-74156228D01*
X119587537Y-74301117D01*
X119500408Y-74431515D01*
X119389515Y-74542408D01*
X119259117Y-74629537D01*
X119114228Y-74689552D01*
X118960414Y-74720148D01*
X118803586Y-74720148D01*
X118649772Y-74689552D01*
X118504883Y-74629537D01*
X118374485Y-74542408D01*
X118263592Y-74431515D01*
X118176463Y-74301117D01*
X118116448Y-74156228D01*
X118085852Y-74002414D01*
X118085852Y-73845586D01*
X118116448Y-73691772D01*
X118176463Y-73546883D01*
X118263592Y-73416485D01*
X118374485Y-73305592D01*
X118504883Y-73218463D01*
X118649772Y-73158448D01*
X118803586Y-73127852D01*
X118960414Y-73127852D01*
X119114228Y-73158448D01*
G37*
G36*
X123930228Y-72132448D02*
G01*
X124075117Y-72192463D01*
X124205515Y-72279592D01*
X124316408Y-72390485D01*
X124403537Y-72520883D01*
X124463552Y-72665772D01*
X124494148Y-72819586D01*
X124494148Y-72976414D01*
X124463552Y-73130228D01*
X124403537Y-73275117D01*
X124316408Y-73405515D01*
X124205515Y-73516408D01*
X124075117Y-73603537D01*
X123930228Y-73663552D01*
X123776414Y-73694148D01*
X123619586Y-73694148D01*
X123465772Y-73663552D01*
X123320883Y-73603537D01*
X123190485Y-73516408D01*
X123079592Y-73405515D01*
X122992463Y-73275117D01*
X122932448Y-73130228D01*
X122901852Y-72976414D01*
X122901852Y-72819586D01*
X122932448Y-72665772D01*
X122992463Y-72520883D01*
X123079592Y-72390485D01*
X123190485Y-72279592D01*
X123320883Y-72192463D01*
X123465772Y-72132448D01*
X123619586Y-72101852D01*
X123776414Y-72101852D01*
X123930228Y-72132448D01*
G37*
G36*
X131550228Y-72132448D02*
G01*
X131695117Y-72192463D01*
X131825515Y-72279592D01*
X131936408Y-72390485D01*
X132023537Y-72520883D01*
X132083552Y-72665772D01*
X132114148Y-72819586D01*
X132114148Y-72976414D01*
X132083552Y-73130228D01*
X132023537Y-73275117D01*
X131936408Y-73405515D01*
X131825515Y-73516408D01*
X131695117Y-73603537D01*
X131550228Y-73663552D01*
X131396414Y-73694148D01*
X131239586Y-73694148D01*
X131085772Y-73663552D01*
X130940883Y-73603537D01*
X130810485Y-73516408D01*
X130699592Y-73405515D01*
X130612463Y-73275117D01*
X130552448Y-73130228D01*
X130521852Y-72976414D01*
X130521852Y-72819586D01*
X130552448Y-72665772D01*
X130612463Y-72520883D01*
X130699592Y-72390485D01*
X130810485Y-72279592D01*
X130940883Y-72192463D01*
X131085772Y-72132448D01*
X131239586Y-72101852D01*
X131396414Y-72101852D01*
X131550228Y-72132448D01*
G37*
G36*
X134852228Y-72132448D02*
G01*
X134997117Y-72192463D01*
X135127515Y-72279592D01*
X135238408Y-72390485D01*
X135325537Y-72520883D01*
X135385552Y-72665772D01*
X135416148Y-72819586D01*
X135416148Y-72976414D01*
X135385552Y-73130228D01*
X135325537Y-73275117D01*
X135238408Y-73405515D01*
X135127515Y-73516408D01*
X134997117Y-73603537D01*
X134852228Y-73663552D01*
X134698414Y-73694148D01*
X134541586Y-73694148D01*
X134387772Y-73663552D01*
X134242883Y-73603537D01*
X134112485Y-73516408D01*
X134001592Y-73405515D01*
X133914463Y-73275117D01*
X133854448Y-73130228D01*
X133823852Y-72976414D01*
X133823852Y-72819586D01*
X133854448Y-72665772D01*
X133914463Y-72520883D01*
X134001592Y-72390485D01*
X134112485Y-72279592D01*
X134242883Y-72192463D01*
X134387772Y-72132448D01*
X134541586Y-72101852D01*
X134698414Y-72101852D01*
X134852228Y-72132448D01*
G37*
G36*
X142472228Y-72132448D02*
G01*
X142617117Y-72192463D01*
X142747515Y-72279592D01*
X142858408Y-72390485D01*
X142945537Y-72520883D01*
X143005552Y-72665772D01*
X143036148Y-72819586D01*
X143036148Y-72976414D01*
X143005552Y-73130228D01*
X142945537Y-73275117D01*
X142858408Y-73405515D01*
X142747515Y-73516408D01*
X142617117Y-73603537D01*
X142472228Y-73663552D01*
X142318414Y-73694148D01*
X142161586Y-73694148D01*
X142007772Y-73663552D01*
X141862883Y-73603537D01*
X141732485Y-73516408D01*
X141621592Y-73405515D01*
X141534463Y-73275117D01*
X141474448Y-73130228D01*
X141443852Y-72976414D01*
X141443852Y-72819586D01*
X141474448Y-72665772D01*
X141534463Y-72520883D01*
X141621592Y-72390485D01*
X141732485Y-72279592D01*
X141862883Y-72192463D01*
X142007772Y-72132448D01*
X142161586Y-72101852D01*
X142318414Y-72101852D01*
X142472228Y-72132448D01*
G37*
G36*
X145774228Y-72132448D02*
G01*
X145919117Y-72192463D01*
X146049515Y-72279592D01*
X146160408Y-72390485D01*
X146247537Y-72520883D01*
X146307552Y-72665772D01*
X146338148Y-72819586D01*
X146338148Y-72976414D01*
X146307552Y-73130228D01*
X146247537Y-73275117D01*
X146160408Y-73405515D01*
X146049515Y-73516408D01*
X145919117Y-73603537D01*
X145774228Y-73663552D01*
X145620414Y-73694148D01*
X145463586Y-73694148D01*
X145309772Y-73663552D01*
X145164883Y-73603537D01*
X145034485Y-73516408D01*
X144923592Y-73405515D01*
X144836463Y-73275117D01*
X144776448Y-73130228D01*
X144745852Y-72976414D01*
X144745852Y-72819586D01*
X144776448Y-72665772D01*
X144836463Y-72520883D01*
X144923592Y-72390485D01*
X145034485Y-72279592D01*
X145164883Y-72192463D01*
X145309772Y-72132448D01*
X145463586Y-72101852D01*
X145620414Y-72101852D01*
X145774228Y-72132448D01*
G37*
G36*
X153394228Y-72132448D02*
G01*
X153539117Y-72192463D01*
X153669515Y-72279592D01*
X153780408Y-72390485D01*
X153867537Y-72520883D01*
X153927552Y-72665772D01*
X153958148Y-72819586D01*
X153958148Y-72976414D01*
X153927552Y-73130228D01*
X153867537Y-73275117D01*
X153780408Y-73405515D01*
X153669515Y-73516408D01*
X153539117Y-73603537D01*
X153394228Y-73663552D01*
X153240414Y-73694148D01*
X153083586Y-73694148D01*
X152929772Y-73663552D01*
X152784883Y-73603537D01*
X152654485Y-73516408D01*
X152543592Y-73405515D01*
X152456463Y-73275117D01*
X152396448Y-73130228D01*
X152365852Y-72976414D01*
X152365852Y-72819586D01*
X152396448Y-72665772D01*
X152456463Y-72520883D01*
X152543592Y-72390485D01*
X152654485Y-72279592D01*
X152784883Y-72192463D01*
X152929772Y-72132448D01*
X153083586Y-72101852D01*
X153240414Y-72101852D01*
X153394228Y-72132448D01*
G37*
G36*
X111816116Y-70584818D02*
G01*
X111867379Y-70590766D01*
X111884892Y-70598499D01*
X111907671Y-70603030D01*
X111932057Y-70619324D01*
X111952788Y-70628478D01*
X111966946Y-70642636D01*
X111988777Y-70657223D01*
X112003363Y-70679053D01*
X112017521Y-70693211D01*
X112026673Y-70713939D01*
X112042970Y-70738329D01*
X112047501Y-70761109D01*
X112055233Y-70778620D01*
X112061178Y-70829872D01*
X112062000Y-70834000D01*
X112062000Y-71934000D01*
X112061178Y-71938128D01*
X112055233Y-71989379D01*
X112047501Y-72006888D01*
X112042970Y-72029671D01*
X112026672Y-72054062D01*
X112017521Y-72074788D01*
X112003365Y-72088943D01*
X111988777Y-72110777D01*
X111966943Y-72125365D01*
X111952788Y-72139521D01*
X111932062Y-72148672D01*
X111907671Y-72164970D01*
X111884888Y-72169501D01*
X111867379Y-72177233D01*
X111816129Y-72183178D01*
X111812000Y-72184000D01*
X110712000Y-72184000D01*
X110707873Y-72183179D01*
X110656620Y-72177233D01*
X110639109Y-72169501D01*
X110616329Y-72164970D01*
X110591939Y-72148673D01*
X110571211Y-72139521D01*
X110557053Y-72125363D01*
X110535223Y-72110777D01*
X110520636Y-72088946D01*
X110506478Y-72074788D01*
X110497324Y-72054057D01*
X110481030Y-72029671D01*
X110476499Y-72006892D01*
X110468766Y-71989379D01*
X110462818Y-71938117D01*
X110462000Y-71934000D01*
X110462000Y-70834000D01*
X110462818Y-70829885D01*
X110468766Y-70778620D01*
X110476499Y-70761105D01*
X110481030Y-70738329D01*
X110497323Y-70713944D01*
X110506478Y-70693211D01*
X110520638Y-70679050D01*
X110535223Y-70657223D01*
X110557050Y-70642638D01*
X110571211Y-70628478D01*
X110591944Y-70619323D01*
X110616329Y-70603030D01*
X110639105Y-70598499D01*
X110656620Y-70590766D01*
X110707884Y-70584818D01*
X110712000Y-70584000D01*
X111812000Y-70584000D01*
X111816116Y-70584818D01*
G37*
G36*
X119114228Y-70618448D02*
G01*
X119259117Y-70678463D01*
X119389515Y-70765592D01*
X119500408Y-70876485D01*
X119587537Y-71006883D01*
X119647552Y-71151772D01*
X119678148Y-71305586D01*
X119678148Y-71462414D01*
X119647552Y-71616228D01*
X119587537Y-71761117D01*
X119500408Y-71891515D01*
X119389515Y-72002408D01*
X119259117Y-72089537D01*
X119114228Y-72149552D01*
X118960414Y-72180148D01*
X118803586Y-72180148D01*
X118649772Y-72149552D01*
X118504883Y-72089537D01*
X118374485Y-72002408D01*
X118263592Y-71891515D01*
X118176463Y-71761117D01*
X118116448Y-71616228D01*
X118085852Y-71462414D01*
X118085852Y-71305586D01*
X118116448Y-71151772D01*
X118176463Y-71006883D01*
X118263592Y-70876485D01*
X118374485Y-70765592D01*
X118504883Y-70678463D01*
X118649772Y-70618448D01*
X118803586Y-70587852D01*
X118960414Y-70587852D01*
X119114228Y-70618448D01*
G37*
G36*
X89132228Y-69084448D02*
G01*
X89277117Y-69144463D01*
X89407515Y-69231592D01*
X89518408Y-69342485D01*
X89605537Y-69472883D01*
X89665552Y-69617772D01*
X89696148Y-69771586D01*
X89696148Y-69928414D01*
X89665552Y-70082228D01*
X89605537Y-70227117D01*
X89518408Y-70357515D01*
X89407515Y-70468408D01*
X89277117Y-70555537D01*
X89132228Y-70615552D01*
X88978414Y-70646148D01*
X88821586Y-70646148D01*
X88667772Y-70615552D01*
X88522883Y-70555537D01*
X88392485Y-70468408D01*
X88281592Y-70357515D01*
X88194463Y-70227117D01*
X88134448Y-70082228D01*
X88103852Y-69928414D01*
X88103852Y-69771586D01*
X88134448Y-69617772D01*
X88194463Y-69472883D01*
X88281592Y-69342485D01*
X88392485Y-69231592D01*
X88522883Y-69144463D01*
X88667772Y-69084448D01*
X88821586Y-69053852D01*
X88978414Y-69053852D01*
X89132228Y-69084448D01*
G37*
G36*
X96752228Y-69084448D02*
G01*
X96897117Y-69144463D01*
X97027515Y-69231592D01*
X97138408Y-69342485D01*
X97225537Y-69472883D01*
X97285552Y-69617772D01*
X97316148Y-69771586D01*
X97316148Y-69928414D01*
X97285552Y-70082228D01*
X97225537Y-70227117D01*
X97138408Y-70357515D01*
X97027515Y-70468408D01*
X96897117Y-70555537D01*
X96752228Y-70615552D01*
X96598414Y-70646148D01*
X96441586Y-70646148D01*
X96287772Y-70615552D01*
X96142883Y-70555537D01*
X96012485Y-70468408D01*
X95901592Y-70357515D01*
X95814463Y-70227117D01*
X95754448Y-70082228D01*
X95723852Y-69928414D01*
X95723852Y-69771586D01*
X95754448Y-69617772D01*
X95814463Y-69472883D01*
X95901592Y-69342485D01*
X96012485Y-69231592D01*
X96142883Y-69144463D01*
X96287772Y-69084448D01*
X96441586Y-69053852D01*
X96598414Y-69053852D01*
X96752228Y-69084448D01*
G37*
G36*
X102340228Y-69084448D02*
G01*
X102485117Y-69144463D01*
X102615515Y-69231592D01*
X102726408Y-69342485D01*
X102813537Y-69472883D01*
X102873552Y-69617772D01*
X102904148Y-69771586D01*
X102904148Y-69928414D01*
X102873552Y-70082228D01*
X102813537Y-70227117D01*
X102726408Y-70357515D01*
X102615515Y-70468408D01*
X102485117Y-70555537D01*
X102340228Y-70615552D01*
X102186414Y-70646148D01*
X102029586Y-70646148D01*
X101875772Y-70615552D01*
X101730883Y-70555537D01*
X101600485Y-70468408D01*
X101489592Y-70357515D01*
X101402463Y-70227117D01*
X101342448Y-70082228D01*
X101311852Y-69928414D01*
X101311852Y-69771586D01*
X101342448Y-69617772D01*
X101402463Y-69472883D01*
X101489592Y-69342485D01*
X101600485Y-69231592D01*
X101730883Y-69144463D01*
X101875772Y-69084448D01*
X102029586Y-69053852D01*
X102186414Y-69053852D01*
X102340228Y-69084448D01*
G37*
G36*
X123930228Y-67306448D02*
G01*
X124075117Y-67366463D01*
X124205515Y-67453592D01*
X124316408Y-67564485D01*
X124403537Y-67694883D01*
X124463552Y-67839772D01*
X124494148Y-67993586D01*
X124494148Y-68150414D01*
X124463552Y-68304228D01*
X124403537Y-68449117D01*
X124316408Y-68579515D01*
X124205515Y-68690408D01*
X124075117Y-68777537D01*
X123930228Y-68837552D01*
X123776414Y-68868148D01*
X123619586Y-68868148D01*
X123465772Y-68837552D01*
X123320883Y-68777537D01*
X123190485Y-68690408D01*
X123079592Y-68579515D01*
X122992463Y-68449117D01*
X122932448Y-68304228D01*
X122901852Y-68150414D01*
X122901852Y-67993586D01*
X122932448Y-67839772D01*
X122992463Y-67694883D01*
X123079592Y-67564485D01*
X123190485Y-67453592D01*
X123320883Y-67366463D01*
X123465772Y-67306448D01*
X123619586Y-67275852D01*
X123776414Y-67275852D01*
X123930228Y-67306448D01*
G37*
G36*
X131550228Y-67306448D02*
G01*
X131695117Y-67366463D01*
X131825515Y-67453592D01*
X131936408Y-67564485D01*
X132023537Y-67694883D01*
X132083552Y-67839772D01*
X132114148Y-67993586D01*
X132114148Y-68150414D01*
X132083552Y-68304228D01*
X132023537Y-68449117D01*
X131936408Y-68579515D01*
X131825515Y-68690408D01*
X131695117Y-68777537D01*
X131550228Y-68837552D01*
X131396414Y-68868148D01*
X131239586Y-68868148D01*
X131085772Y-68837552D01*
X130940883Y-68777537D01*
X130810485Y-68690408D01*
X130699592Y-68579515D01*
X130612463Y-68449117D01*
X130552448Y-68304228D01*
X130521852Y-68150414D01*
X130521852Y-67993586D01*
X130552448Y-67839772D01*
X130612463Y-67694883D01*
X130699592Y-67564485D01*
X130810485Y-67453592D01*
X130940883Y-67366463D01*
X131085772Y-67306448D01*
X131239586Y-67275852D01*
X131396414Y-67275852D01*
X131550228Y-67306448D01*
G37*
G36*
X134852228Y-67306448D02*
G01*
X134997117Y-67366463D01*
X135127515Y-67453592D01*
X135238408Y-67564485D01*
X135325537Y-67694883D01*
X135385552Y-67839772D01*
X135416148Y-67993586D01*
X135416148Y-68150414D01*
X135385552Y-68304228D01*
X135325537Y-68449117D01*
X135238408Y-68579515D01*
X135127515Y-68690408D01*
X134997117Y-68777537D01*
X134852228Y-68837552D01*
X134698414Y-68868148D01*
X134541586Y-68868148D01*
X134387772Y-68837552D01*
X134242883Y-68777537D01*
X134112485Y-68690408D01*
X134001592Y-68579515D01*
X133914463Y-68449117D01*
X133854448Y-68304228D01*
X133823852Y-68150414D01*
X133823852Y-67993586D01*
X133854448Y-67839772D01*
X133914463Y-67694883D01*
X134001592Y-67564485D01*
X134112485Y-67453592D01*
X134242883Y-67366463D01*
X134387772Y-67306448D01*
X134541586Y-67275852D01*
X134698414Y-67275852D01*
X134852228Y-67306448D01*
G37*
G36*
X142472228Y-67306448D02*
G01*
X142617117Y-67366463D01*
X142747515Y-67453592D01*
X142858408Y-67564485D01*
X142945537Y-67694883D01*
X143005552Y-67839772D01*
X143036148Y-67993586D01*
X143036148Y-68150414D01*
X143005552Y-68304228D01*
X142945537Y-68449117D01*
X142858408Y-68579515D01*
X142747515Y-68690408D01*
X142617117Y-68777537D01*
X142472228Y-68837552D01*
X142318414Y-68868148D01*
X142161586Y-68868148D01*
X142007772Y-68837552D01*
X141862883Y-68777537D01*
X141732485Y-68690408D01*
X141621592Y-68579515D01*
X141534463Y-68449117D01*
X141474448Y-68304228D01*
X141443852Y-68150414D01*
X141443852Y-67993586D01*
X141474448Y-67839772D01*
X141534463Y-67694883D01*
X141621592Y-67564485D01*
X141732485Y-67453592D01*
X141862883Y-67366463D01*
X142007772Y-67306448D01*
X142161586Y-67275852D01*
X142318414Y-67275852D01*
X142472228Y-67306448D01*
G37*
G36*
X145774228Y-67306448D02*
G01*
X145919117Y-67366463D01*
X146049515Y-67453592D01*
X146160408Y-67564485D01*
X146247537Y-67694883D01*
X146307552Y-67839772D01*
X146338148Y-67993586D01*
X146338148Y-68150414D01*
X146307552Y-68304228D01*
X146247537Y-68449117D01*
X146160408Y-68579515D01*
X146049515Y-68690408D01*
X145919117Y-68777537D01*
X145774228Y-68837552D01*
X145620414Y-68868148D01*
X145463586Y-68868148D01*
X145309772Y-68837552D01*
X145164883Y-68777537D01*
X145034485Y-68690408D01*
X144923592Y-68579515D01*
X144836463Y-68449117D01*
X144776448Y-68304228D01*
X144745852Y-68150414D01*
X144745852Y-67993586D01*
X144776448Y-67839772D01*
X144836463Y-67694883D01*
X144923592Y-67564485D01*
X145034485Y-67453592D01*
X145164883Y-67366463D01*
X145309772Y-67306448D01*
X145463586Y-67275852D01*
X145620414Y-67275852D01*
X145774228Y-67306448D01*
G37*
G36*
X153394228Y-67306448D02*
G01*
X153539117Y-67366463D01*
X153669515Y-67453592D01*
X153780408Y-67564485D01*
X153867537Y-67694883D01*
X153927552Y-67839772D01*
X153958148Y-67993586D01*
X153958148Y-68150414D01*
X153927552Y-68304228D01*
X153867537Y-68449117D01*
X153780408Y-68579515D01*
X153669515Y-68690408D01*
X153539117Y-68777537D01*
X153394228Y-68837552D01*
X153240414Y-68868148D01*
X153083586Y-68868148D01*
X152929772Y-68837552D01*
X152784883Y-68777537D01*
X152654485Y-68690408D01*
X152543592Y-68579515D01*
X152456463Y-68449117D01*
X152396448Y-68304228D01*
X152365852Y-68150414D01*
X152365852Y-67993586D01*
X152396448Y-67839772D01*
X152456463Y-67694883D01*
X152543592Y-67564485D01*
X152654485Y-67453592D01*
X152784883Y-67366463D01*
X152929772Y-67306448D01*
X153083586Y-67275852D01*
X153240414Y-67275852D01*
X153394228Y-67306448D01*
G37*
G36*
X102340228Y-66584448D02*
G01*
X102485117Y-66644463D01*
X102615515Y-66731592D01*
X102726408Y-66842485D01*
X102813537Y-66972883D01*
X102873552Y-67117772D01*
X102904148Y-67271586D01*
X102904148Y-67428414D01*
X102873552Y-67582228D01*
X102813537Y-67727117D01*
X102726408Y-67857515D01*
X102615515Y-67968408D01*
X102485117Y-68055537D01*
X102340228Y-68115552D01*
X102186414Y-68146148D01*
X102029586Y-68146148D01*
X101875772Y-68115552D01*
X101730883Y-68055537D01*
X101600485Y-67968408D01*
X101489592Y-67857515D01*
X101402463Y-67727117D01*
X101342448Y-67582228D01*
X101311852Y-67428414D01*
X101311852Y-67271586D01*
X101342448Y-67117772D01*
X101402463Y-66972883D01*
X101489592Y-66842485D01*
X101600485Y-66731592D01*
X101730883Y-66644463D01*
X101875772Y-66584448D01*
X102029586Y-66553852D01*
X102186414Y-66553852D01*
X102340228Y-66584448D01*
G37*
G36*
X98530228Y-63964448D02*
G01*
X98675117Y-64024463D01*
X98805515Y-64111592D01*
X98916408Y-64222485D01*
X99003537Y-64352883D01*
X99063552Y-64497772D01*
X99094148Y-64651586D01*
X99094148Y-64808414D01*
X99063552Y-64962228D01*
X99003537Y-65107117D01*
X98916408Y-65237515D01*
X98805515Y-65348408D01*
X98675117Y-65435537D01*
X98530228Y-65495552D01*
X98376414Y-65526148D01*
X98219586Y-65526148D01*
X98065772Y-65495552D01*
X97920883Y-65435537D01*
X97790485Y-65348408D01*
X97679592Y-65237515D01*
X97592463Y-65107117D01*
X97532448Y-64962228D01*
X97501852Y-64808414D01*
X97501852Y-64651586D01*
X97532448Y-64497772D01*
X97592463Y-64352883D01*
X97679592Y-64222485D01*
X97790485Y-64111592D01*
X97920883Y-64024463D01*
X98065772Y-63964448D01*
X98219586Y-63933852D01*
X98376414Y-63933852D01*
X98530228Y-63964448D01*
G37*
G36*
X123930228Y-63242448D02*
G01*
X124075117Y-63302463D01*
X124205515Y-63389592D01*
X124316408Y-63500485D01*
X124403537Y-63630883D01*
X124463552Y-63775772D01*
X124494148Y-63929586D01*
X124494148Y-64086414D01*
X124463552Y-64240228D01*
X124403537Y-64385117D01*
X124316408Y-64515515D01*
X124205515Y-64626408D01*
X124075117Y-64713537D01*
X123930228Y-64773552D01*
X123776414Y-64804148D01*
X123619586Y-64804148D01*
X123465772Y-64773552D01*
X123320883Y-64713537D01*
X123190485Y-64626408D01*
X123079592Y-64515515D01*
X122992463Y-64385117D01*
X122932448Y-64240228D01*
X122901852Y-64086414D01*
X122901852Y-63929586D01*
X122932448Y-63775772D01*
X122992463Y-63630883D01*
X123079592Y-63500485D01*
X123190485Y-63389592D01*
X123320883Y-63302463D01*
X123465772Y-63242448D01*
X123619586Y-63211852D01*
X123776414Y-63211852D01*
X123930228Y-63242448D01*
G37*
G36*
X131550228Y-63242448D02*
G01*
X131695117Y-63302463D01*
X131825515Y-63389592D01*
X131936408Y-63500485D01*
X132023537Y-63630883D01*
X132083552Y-63775772D01*
X132114148Y-63929586D01*
X132114148Y-64086414D01*
X132083552Y-64240228D01*
X132023537Y-64385117D01*
X131936408Y-64515515D01*
X131825515Y-64626408D01*
X131695117Y-64713537D01*
X131550228Y-64773552D01*
X131396414Y-64804148D01*
X131239586Y-64804148D01*
X131085772Y-64773552D01*
X130940883Y-64713537D01*
X130810485Y-64626408D01*
X130699592Y-64515515D01*
X130612463Y-64385117D01*
X130552448Y-64240228D01*
X130521852Y-64086414D01*
X130521852Y-63929586D01*
X130552448Y-63775772D01*
X130612463Y-63630883D01*
X130699592Y-63500485D01*
X130810485Y-63389592D01*
X130940883Y-63302463D01*
X131085772Y-63242448D01*
X131239586Y-63211852D01*
X131396414Y-63211852D01*
X131550228Y-63242448D01*
G37*
G36*
X134852228Y-63242448D02*
G01*
X134997117Y-63302463D01*
X135127515Y-63389592D01*
X135238408Y-63500485D01*
X135325537Y-63630883D01*
X135385552Y-63775772D01*
X135416148Y-63929586D01*
X135416148Y-64086414D01*
X135385552Y-64240228D01*
X135325537Y-64385117D01*
X135238408Y-64515515D01*
X135127515Y-64626408D01*
X134997117Y-64713537D01*
X134852228Y-64773552D01*
X134698414Y-64804148D01*
X134541586Y-64804148D01*
X134387772Y-64773552D01*
X134242883Y-64713537D01*
X134112485Y-64626408D01*
X134001592Y-64515515D01*
X133914463Y-64385117D01*
X133854448Y-64240228D01*
X133823852Y-64086414D01*
X133823852Y-63929586D01*
X133854448Y-63775772D01*
X133914463Y-63630883D01*
X134001592Y-63500485D01*
X134112485Y-63389592D01*
X134242883Y-63302463D01*
X134387772Y-63242448D01*
X134541586Y-63211852D01*
X134698414Y-63211852D01*
X134852228Y-63242448D01*
G37*
G36*
X142472228Y-63242448D02*
G01*
X142617117Y-63302463D01*
X142747515Y-63389592D01*
X142858408Y-63500485D01*
X142945537Y-63630883D01*
X143005552Y-63775772D01*
X143036148Y-63929586D01*
X143036148Y-64086414D01*
X143005552Y-64240228D01*
X142945537Y-64385117D01*
X142858408Y-64515515D01*
X142747515Y-64626408D01*
X142617117Y-64713537D01*
X142472228Y-64773552D01*
X142318414Y-64804148D01*
X142161586Y-64804148D01*
X142007772Y-64773552D01*
X141862883Y-64713537D01*
X141732485Y-64626408D01*
X141621592Y-64515515D01*
X141534463Y-64385117D01*
X141474448Y-64240228D01*
X141443852Y-64086414D01*
X141443852Y-63929586D01*
X141474448Y-63775772D01*
X141534463Y-63630883D01*
X141621592Y-63500485D01*
X141732485Y-63389592D01*
X141862883Y-63302463D01*
X142007772Y-63242448D01*
X142161586Y-63211852D01*
X142318414Y-63211852D01*
X142472228Y-63242448D01*
G37*
G36*
X145774228Y-63242448D02*
G01*
X145919117Y-63302463D01*
X146049515Y-63389592D01*
X146160408Y-63500485D01*
X146247537Y-63630883D01*
X146307552Y-63775772D01*
X146338148Y-63929586D01*
X146338148Y-64086414D01*
X146307552Y-64240228D01*
X146247537Y-64385117D01*
X146160408Y-64515515D01*
X146049515Y-64626408D01*
X145919117Y-64713537D01*
X145774228Y-64773552D01*
X145620414Y-64804148D01*
X145463586Y-64804148D01*
X145309772Y-64773552D01*
X145164883Y-64713537D01*
X145034485Y-64626408D01*
X144923592Y-64515515D01*
X144836463Y-64385117D01*
X144776448Y-64240228D01*
X144745852Y-64086414D01*
X144745852Y-63929586D01*
X144776448Y-63775772D01*
X144836463Y-63630883D01*
X144923592Y-63500485D01*
X145034485Y-63389592D01*
X145164883Y-63302463D01*
X145309772Y-63242448D01*
X145463586Y-63211852D01*
X145620414Y-63211852D01*
X145774228Y-63242448D01*
G37*
G36*
X153394228Y-63242448D02*
G01*
X153539117Y-63302463D01*
X153669515Y-63389592D01*
X153780408Y-63500485D01*
X153867537Y-63630883D01*
X153927552Y-63775772D01*
X153958148Y-63929586D01*
X153958148Y-64086414D01*
X153927552Y-64240228D01*
X153867537Y-64385117D01*
X153780408Y-64515515D01*
X153669515Y-64626408D01*
X153539117Y-64713537D01*
X153394228Y-64773552D01*
X153240414Y-64804148D01*
X153083586Y-64804148D01*
X152929772Y-64773552D01*
X152784883Y-64713537D01*
X152654485Y-64626408D01*
X152543592Y-64515515D01*
X152456463Y-64385117D01*
X152396448Y-64240228D01*
X152365852Y-64086414D01*
X152365852Y-63929586D01*
X152396448Y-63775772D01*
X152456463Y-63630883D01*
X152543592Y-63500485D01*
X152654485Y-63389592D01*
X152784883Y-63302463D01*
X152929772Y-63242448D01*
X153083586Y-63211852D01*
X153240414Y-63211852D01*
X153394228Y-63242448D01*
G37*
G36*
X93052000Y-63080000D02*
G01*
X91352000Y-63080000D01*
X91352000Y-61380000D01*
X93052000Y-61380000D01*
X93052000Y-63080000D01*
G37*
G36*
X112356000Y-63080000D02*
G01*
X110656000Y-63080000D01*
X110656000Y-61380000D01*
X112356000Y-61380000D01*
X112356000Y-63080000D01*
G37*
G36*
X89908742Y-61416601D02*
G01*
X90062687Y-61480367D01*
X90201234Y-61572941D01*
X90319059Y-61690766D01*
X90411633Y-61829313D01*
X90475399Y-61983258D01*
X90507907Y-62146685D01*
X90507907Y-62313315D01*
X90475399Y-62476742D01*
X90411633Y-62630687D01*
X90319059Y-62769234D01*
X90201234Y-62887059D01*
X90062687Y-62979633D01*
X89908742Y-63043399D01*
X89745315Y-63075907D01*
X89578685Y-63075907D01*
X89415258Y-63043399D01*
X89261313Y-62979633D01*
X89122766Y-62887059D01*
X89004941Y-62769234D01*
X88912367Y-62630687D01*
X88848601Y-62476742D01*
X88816093Y-62313315D01*
X88816093Y-62146685D01*
X88848601Y-61983258D01*
X88912367Y-61829313D01*
X89004941Y-61690766D01*
X89122766Y-61572941D01*
X89261313Y-61480367D01*
X89415258Y-61416601D01*
X89578685Y-61384093D01*
X89745315Y-61384093D01*
X89908742Y-61416601D01*
G37*
G36*
X114292742Y-61416601D02*
G01*
X114446687Y-61480367D01*
X114585234Y-61572941D01*
X114703059Y-61690766D01*
X114795633Y-61829313D01*
X114859399Y-61983258D01*
X114891907Y-62146685D01*
X114891907Y-62313315D01*
X114859399Y-62476742D01*
X114795633Y-62630687D01*
X114703059Y-62769234D01*
X114585234Y-62887059D01*
X114446687Y-62979633D01*
X114292742Y-63043399D01*
X114129315Y-63075907D01*
X113962685Y-63075907D01*
X113799258Y-63043399D01*
X113645313Y-62979633D01*
X113506766Y-62887059D01*
X113388941Y-62769234D01*
X113296367Y-62630687D01*
X113232601Y-62476742D01*
X113200093Y-62313315D01*
X113200093Y-62146685D01*
X113232601Y-61983258D01*
X113296367Y-61829313D01*
X113388941Y-61690766D01*
X113506766Y-61572941D01*
X113645313Y-61480367D01*
X113799258Y-61416601D01*
X113962685Y-61384093D01*
X114129315Y-61384093D01*
X114292742Y-61416601D01*
G37*
G36*
X116832742Y-61416601D02*
G01*
X116986687Y-61480367D01*
X117125234Y-61572941D01*
X117243059Y-61690766D01*
X117335633Y-61829313D01*
X117399399Y-61983258D01*
X117431907Y-62146685D01*
X117431907Y-62313315D01*
X117399399Y-62476742D01*
X117335633Y-62630687D01*
X117243059Y-62769234D01*
X117125234Y-62887059D01*
X116986687Y-62979633D01*
X116832742Y-63043399D01*
X116669315Y-63075907D01*
X116502685Y-63075907D01*
X116339258Y-63043399D01*
X116185313Y-62979633D01*
X116046766Y-62887059D01*
X115928941Y-62769234D01*
X115836367Y-62630687D01*
X115772601Y-62476742D01*
X115740093Y-62313315D01*
X115740093Y-62146685D01*
X115772601Y-61983258D01*
X115836367Y-61829313D01*
X115928941Y-61690766D01*
X116046766Y-61572941D01*
X116185313Y-61480367D01*
X116339258Y-61416601D01*
X116502685Y-61384093D01*
X116669315Y-61384093D01*
X116832742Y-61416601D01*
G37*
G36*
X119372742Y-61416601D02*
G01*
X119526687Y-61480367D01*
X119665234Y-61572941D01*
X119783059Y-61690766D01*
X119875633Y-61829313D01*
X119939399Y-61983258D01*
X119971907Y-62146685D01*
X119971907Y-62313315D01*
X119939399Y-62476742D01*
X119875633Y-62630687D01*
X119783059Y-62769234D01*
X119665234Y-62887059D01*
X119526687Y-62979633D01*
X119372742Y-63043399D01*
X119209315Y-63075907D01*
X119042685Y-63075907D01*
X118879258Y-63043399D01*
X118725313Y-62979633D01*
X118586766Y-62887059D01*
X118468941Y-62769234D01*
X118376367Y-62630687D01*
X118312601Y-62476742D01*
X118280093Y-62313315D01*
X118280093Y-62146685D01*
X118312601Y-61983258D01*
X118376367Y-61829313D01*
X118468941Y-61690766D01*
X118586766Y-61572941D01*
X118725313Y-61480367D01*
X118879258Y-61416601D01*
X119042685Y-61384093D01*
X119209315Y-61384093D01*
X119372742Y-61416601D01*
G37*
G36*
X98852116Y-61430818D02*
G01*
X98903379Y-61436766D01*
X98920892Y-61444499D01*
X98943671Y-61449030D01*
X98968057Y-61465324D01*
X98988788Y-61474478D01*
X99002946Y-61488636D01*
X99024777Y-61503223D01*
X99039363Y-61525053D01*
X99053521Y-61539211D01*
X99062673Y-61559939D01*
X99078970Y-61584329D01*
X99083501Y-61607109D01*
X99091233Y-61624620D01*
X99097178Y-61675872D01*
X99098000Y-61680000D01*
X99098000Y-62780000D01*
X99097178Y-62784128D01*
X99091233Y-62835379D01*
X99083501Y-62852888D01*
X99078970Y-62875671D01*
X99062672Y-62900062D01*
X99053521Y-62920788D01*
X99039365Y-62934943D01*
X99024777Y-62956777D01*
X99002943Y-62971365D01*
X98988788Y-62985521D01*
X98968062Y-62994672D01*
X98943671Y-63010970D01*
X98920888Y-63015501D01*
X98903379Y-63023233D01*
X98852129Y-63029178D01*
X98848000Y-63030000D01*
X97748000Y-63030000D01*
X97743873Y-63029179D01*
X97692620Y-63023233D01*
X97675109Y-63015501D01*
X97652329Y-63010970D01*
X97627939Y-62994673D01*
X97607211Y-62985521D01*
X97593053Y-62971363D01*
X97571223Y-62956777D01*
X97556636Y-62934946D01*
X97542478Y-62920788D01*
X97533324Y-62900057D01*
X97517030Y-62875671D01*
X97512499Y-62852892D01*
X97504766Y-62835379D01*
X97498818Y-62784117D01*
X97498000Y-62780000D01*
X97498000Y-61680000D01*
X97498818Y-61675885D01*
X97504766Y-61624620D01*
X97512499Y-61607105D01*
X97517030Y-61584329D01*
X97533323Y-61559944D01*
X97542478Y-61539211D01*
X97556638Y-61525050D01*
X97571223Y-61503223D01*
X97593050Y-61488638D01*
X97607211Y-61474478D01*
X97627944Y-61465323D01*
X97652329Y-61449030D01*
X97675105Y-61444499D01*
X97692620Y-61436766D01*
X97743884Y-61430818D01*
X97748000Y-61430000D01*
X98848000Y-61430000D01*
X98852116Y-61430818D01*
G37*
M02*
