%TF.GenerationSoftware,KiCad,Pcbnew,9.0.2+dfsg-1*%
%TF.CreationDate,2025-08-15T21:43:56+05:30*%
%TF.ProjectId,scopetester_v1,73636f70-6574-4657-9374-65725f76312e,rev?*%
%TF.SameCoordinates,Original*%
%TF.FileFunction,Legend,Top*%
%TF.FilePolarity,Positive*%
%FSLAX46Y46*%
G04 Gerber Fmt 4.6, Leading zero omitted, Abs format (unit mm)*
G04 Created by KiCad (PCBNEW 9.0.2+dfsg-1) date 2025-08-15 21:43:56*
%MOMM*%
%LPD*%
G01*
G04 APERTURE LIST*
%ADD10C,0.150000*%
%ADD11C,0.120000*%
G04 APERTURE END LIST*
D10*
X129460666Y-103086819D02*
X129460666Y-103801104D01*
X129460666Y-103801104D02*
X129413047Y-103943961D01*
X129413047Y-103943961D02*
X129317809Y-104039200D01*
X129317809Y-104039200D02*
X129174952Y-104086819D01*
X129174952Y-104086819D02*
X129079714Y-104086819D01*
X129841619Y-103086819D02*
X130460666Y-103086819D01*
X130460666Y-103086819D02*
X130127333Y-103467771D01*
X130127333Y-103467771D02*
X130270190Y-103467771D01*
X130270190Y-103467771D02*
X130365428Y-103515390D01*
X130365428Y-103515390D02*
X130413047Y-103563009D01*
X130413047Y-103563009D02*
X130460666Y-103658247D01*
X130460666Y-103658247D02*
X130460666Y-103896342D01*
X130460666Y-103896342D02*
X130413047Y-103991580D01*
X130413047Y-103991580D02*
X130365428Y-104039200D01*
X130365428Y-104039200D02*
X130270190Y-104086819D01*
X130270190Y-104086819D02*
X129984476Y-104086819D01*
X129984476Y-104086819D02*
X129889238Y-104039200D01*
X129889238Y-104039200D02*
X129841619Y-103991580D01*
X114310095Y-68508819D02*
X114310095Y-69318342D01*
X114310095Y-69318342D02*
X114357714Y-69413580D01*
X114357714Y-69413580D02*
X114405333Y-69461200D01*
X114405333Y-69461200D02*
X114500571Y-69508819D01*
X114500571Y-69508819D02*
X114691047Y-69508819D01*
X114691047Y-69508819D02*
X114786285Y-69461200D01*
X114786285Y-69461200D02*
X114833904Y-69413580D01*
X114833904Y-69413580D02*
X114881523Y-69318342D01*
X114881523Y-69318342D02*
X114881523Y-68508819D01*
X115881523Y-69508819D02*
X115310095Y-69508819D01*
X115595809Y-69508819D02*
X115595809Y-68508819D01*
X115595809Y-68508819D02*
X115500571Y-68651676D01*
X115500571Y-68651676D02*
X115405333Y-68746914D01*
X115405333Y-68746914D02*
X115310095Y-68794533D01*
X108581580Y-85236666D02*
X108629200Y-85284285D01*
X108629200Y-85284285D02*
X108676819Y-85427142D01*
X108676819Y-85427142D02*
X108676819Y-85522380D01*
X108676819Y-85522380D02*
X108629200Y-85665237D01*
X108629200Y-85665237D02*
X108533961Y-85760475D01*
X108533961Y-85760475D02*
X108438723Y-85808094D01*
X108438723Y-85808094D02*
X108248247Y-85855713D01*
X108248247Y-85855713D02*
X108105390Y-85855713D01*
X108105390Y-85855713D02*
X107914914Y-85808094D01*
X107914914Y-85808094D02*
X107819676Y-85760475D01*
X107819676Y-85760475D02*
X107724438Y-85665237D01*
X107724438Y-85665237D02*
X107676819Y-85522380D01*
X107676819Y-85522380D02*
X107676819Y-85427142D01*
X107676819Y-85427142D02*
X107724438Y-85284285D01*
X107724438Y-85284285D02*
X107772057Y-85236666D01*
X107676819Y-84379523D02*
X107676819Y-84569999D01*
X107676819Y-84569999D02*
X107724438Y-84665237D01*
X107724438Y-84665237D02*
X107772057Y-84712856D01*
X107772057Y-84712856D02*
X107914914Y-84808094D01*
X107914914Y-84808094D02*
X108105390Y-84855713D01*
X108105390Y-84855713D02*
X108486342Y-84855713D01*
X108486342Y-84855713D02*
X108581580Y-84808094D01*
X108581580Y-84808094D02*
X108629200Y-84760475D01*
X108629200Y-84760475D02*
X108676819Y-84665237D01*
X108676819Y-84665237D02*
X108676819Y-84474761D01*
X108676819Y-84474761D02*
X108629200Y-84379523D01*
X108629200Y-84379523D02*
X108581580Y-84331904D01*
X108581580Y-84331904D02*
X108486342Y-84284285D01*
X108486342Y-84284285D02*
X108248247Y-84284285D01*
X108248247Y-84284285D02*
X108153009Y-84331904D01*
X108153009Y-84331904D02*
X108105390Y-84379523D01*
X108105390Y-84379523D02*
X108057771Y-84474761D01*
X108057771Y-84474761D02*
X108057771Y-84665237D01*
X108057771Y-84665237D02*
X108105390Y-84760475D01*
X108105390Y-84760475D02*
X108153009Y-84808094D01*
X108153009Y-84808094D02*
X108248247Y-84855713D01*
X129976666Y-99530819D02*
X129976666Y-100245104D01*
X129976666Y-100245104D02*
X129929047Y-100387961D01*
X129929047Y-100387961D02*
X129833809Y-100483200D01*
X129833809Y-100483200D02*
X129690952Y-100530819D01*
X129690952Y-100530819D02*
X129595714Y-100530819D01*
X130452857Y-100530819D02*
X130452857Y-99530819D01*
X130452857Y-99530819D02*
X130833809Y-99530819D01*
X130833809Y-99530819D02*
X130929047Y-99578438D01*
X130929047Y-99578438D02*
X130976666Y-99626057D01*
X130976666Y-99626057D02*
X131024285Y-99721295D01*
X131024285Y-99721295D02*
X131024285Y-99864152D01*
X131024285Y-99864152D02*
X130976666Y-99959390D01*
X130976666Y-99959390D02*
X130929047Y-100007009D01*
X130929047Y-100007009D02*
X130833809Y-100054628D01*
X130833809Y-100054628D02*
X130452857Y-100054628D01*
X131976666Y-100530819D02*
X131405238Y-100530819D01*
X131690952Y-100530819D02*
X131690952Y-99530819D01*
X131690952Y-99530819D02*
X131595714Y-99673676D01*
X131595714Y-99673676D02*
X131500476Y-99768914D01*
X131500476Y-99768914D02*
X131405238Y-99816533D01*
X139002819Y-102996666D02*
X138526628Y-103329999D01*
X139002819Y-103568094D02*
X138002819Y-103568094D01*
X138002819Y-103568094D02*
X138002819Y-103187142D01*
X138002819Y-103187142D02*
X138050438Y-103091904D01*
X138050438Y-103091904D02*
X138098057Y-103044285D01*
X138098057Y-103044285D02*
X138193295Y-102996666D01*
X138193295Y-102996666D02*
X138336152Y-102996666D01*
X138336152Y-102996666D02*
X138431390Y-103044285D01*
X138431390Y-103044285D02*
X138479009Y-103091904D01*
X138479009Y-103091904D02*
X138526628Y-103187142D01*
X138526628Y-103187142D02*
X138526628Y-103568094D01*
X138002819Y-102091904D02*
X138002819Y-102568094D01*
X138002819Y-102568094D02*
X138479009Y-102615713D01*
X138479009Y-102615713D02*
X138431390Y-102568094D01*
X138431390Y-102568094D02*
X138383771Y-102472856D01*
X138383771Y-102472856D02*
X138383771Y-102234761D01*
X138383771Y-102234761D02*
X138431390Y-102139523D01*
X138431390Y-102139523D02*
X138479009Y-102091904D01*
X138479009Y-102091904D02*
X138574247Y-102044285D01*
X138574247Y-102044285D02*
X138812342Y-102044285D01*
X138812342Y-102044285D02*
X138907580Y-102091904D01*
X138907580Y-102091904D02*
X138955200Y-102139523D01*
X138955200Y-102139523D02*
X139002819Y-102234761D01*
X139002819Y-102234761D02*
X139002819Y-102472856D01*
X139002819Y-102472856D02*
X138955200Y-102568094D01*
X138955200Y-102568094D02*
X138907580Y-102615713D01*
X144803905Y-88846819D02*
X144803905Y-87846819D01*
X144803905Y-87846819D02*
X145042000Y-87846819D01*
X145042000Y-87846819D02*
X145184857Y-87894438D01*
X145184857Y-87894438D02*
X145280095Y-87989676D01*
X145280095Y-87989676D02*
X145327714Y-88084914D01*
X145327714Y-88084914D02*
X145375333Y-88275390D01*
X145375333Y-88275390D02*
X145375333Y-88418247D01*
X145375333Y-88418247D02*
X145327714Y-88608723D01*
X145327714Y-88608723D02*
X145280095Y-88703961D01*
X145280095Y-88703961D02*
X145184857Y-88799200D01*
X145184857Y-88799200D02*
X145042000Y-88846819D01*
X145042000Y-88846819D02*
X144803905Y-88846819D01*
X146327714Y-88846819D02*
X145756286Y-88846819D01*
X146042000Y-88846819D02*
X146042000Y-87846819D01*
X146042000Y-87846819D02*
X145946762Y-87989676D01*
X145946762Y-87989676D02*
X145851524Y-88084914D01*
X145851524Y-88084914D02*
X145756286Y-88132533D01*
X97570628Y-99718190D02*
X98046819Y-99718190D01*
X97046819Y-100051523D02*
X97570628Y-99718190D01*
X97570628Y-99718190D02*
X97046819Y-99384857D01*
X98046819Y-98527714D02*
X98046819Y-99099142D01*
X98046819Y-98813428D02*
X97046819Y-98813428D01*
X97046819Y-98813428D02*
X97189676Y-98908666D01*
X97189676Y-98908666D02*
X97284914Y-99003904D01*
X97284914Y-99003904D02*
X97332533Y-99099142D01*
X149770819Y-103746666D02*
X149294628Y-104079999D01*
X149770819Y-104318094D02*
X148770819Y-104318094D01*
X148770819Y-104318094D02*
X148770819Y-103937142D01*
X148770819Y-103937142D02*
X148818438Y-103841904D01*
X148818438Y-103841904D02*
X148866057Y-103794285D01*
X148866057Y-103794285D02*
X148961295Y-103746666D01*
X148961295Y-103746666D02*
X149104152Y-103746666D01*
X149104152Y-103746666D02*
X149199390Y-103794285D01*
X149199390Y-103794285D02*
X149247009Y-103841904D01*
X149247009Y-103841904D02*
X149294628Y-103937142D01*
X149294628Y-103937142D02*
X149294628Y-104318094D01*
X148770819Y-103413332D02*
X148770819Y-102794285D01*
X148770819Y-102794285D02*
X149151771Y-103127618D01*
X149151771Y-103127618D02*
X149151771Y-102984761D01*
X149151771Y-102984761D02*
X149199390Y-102889523D01*
X149199390Y-102889523D02*
X149247009Y-102841904D01*
X149247009Y-102841904D02*
X149342247Y-102794285D01*
X149342247Y-102794285D02*
X149580342Y-102794285D01*
X149580342Y-102794285D02*
X149675580Y-102841904D01*
X149675580Y-102841904D02*
X149723200Y-102889523D01*
X149723200Y-102889523D02*
X149770819Y-102984761D01*
X149770819Y-102984761D02*
X149770819Y-103270475D01*
X149770819Y-103270475D02*
X149723200Y-103365713D01*
X149723200Y-103365713D02*
X149675580Y-103413332D01*
X134135905Y-88846819D02*
X134135905Y-87846819D01*
X134135905Y-87846819D02*
X134374000Y-87846819D01*
X134374000Y-87846819D02*
X134516857Y-87894438D01*
X134516857Y-87894438D02*
X134612095Y-87989676D01*
X134612095Y-87989676D02*
X134659714Y-88084914D01*
X134659714Y-88084914D02*
X134707333Y-88275390D01*
X134707333Y-88275390D02*
X134707333Y-88418247D01*
X134707333Y-88418247D02*
X134659714Y-88608723D01*
X134659714Y-88608723D02*
X134612095Y-88703961D01*
X134612095Y-88703961D02*
X134516857Y-88799200D01*
X134516857Y-88799200D02*
X134374000Y-88846819D01*
X134374000Y-88846819D02*
X134135905Y-88846819D01*
X135040667Y-87846819D02*
X135659714Y-87846819D01*
X135659714Y-87846819D02*
X135326381Y-88227771D01*
X135326381Y-88227771D02*
X135469238Y-88227771D01*
X135469238Y-88227771D02*
X135564476Y-88275390D01*
X135564476Y-88275390D02*
X135612095Y-88323009D01*
X135612095Y-88323009D02*
X135659714Y-88418247D01*
X135659714Y-88418247D02*
X135659714Y-88656342D01*
X135659714Y-88656342D02*
X135612095Y-88751580D01*
X135612095Y-88751580D02*
X135564476Y-88799200D01*
X135564476Y-88799200D02*
X135469238Y-88846819D01*
X135469238Y-88846819D02*
X135183524Y-88846819D01*
X135183524Y-88846819D02*
X135088286Y-88799200D01*
X135088286Y-88799200D02*
X135040667Y-88751580D01*
X97218667Y-72865200D02*
X97361524Y-72912819D01*
X97361524Y-72912819D02*
X97599619Y-72912819D01*
X97599619Y-72912819D02*
X97694857Y-72865200D01*
X97694857Y-72865200D02*
X97742476Y-72817580D01*
X97742476Y-72817580D02*
X97790095Y-72722342D01*
X97790095Y-72722342D02*
X97790095Y-72627104D01*
X97790095Y-72627104D02*
X97742476Y-72531866D01*
X97742476Y-72531866D02*
X97694857Y-72484247D01*
X97694857Y-72484247D02*
X97599619Y-72436628D01*
X97599619Y-72436628D02*
X97409143Y-72389009D01*
X97409143Y-72389009D02*
X97313905Y-72341390D01*
X97313905Y-72341390D02*
X97266286Y-72293771D01*
X97266286Y-72293771D02*
X97218667Y-72198533D01*
X97218667Y-72198533D02*
X97218667Y-72103295D01*
X97218667Y-72103295D02*
X97266286Y-72008057D01*
X97266286Y-72008057D02*
X97313905Y-71960438D01*
X97313905Y-71960438D02*
X97409143Y-71912819D01*
X97409143Y-71912819D02*
X97647238Y-71912819D01*
X97647238Y-71912819D02*
X97790095Y-71960438D01*
X98123429Y-71912819D02*
X98361524Y-72912819D01*
X98361524Y-72912819D02*
X98552000Y-72198533D01*
X98552000Y-72198533D02*
X98742476Y-72912819D01*
X98742476Y-72912819D02*
X98980572Y-71912819D01*
X99885333Y-72912819D02*
X99313905Y-72912819D01*
X99599619Y-72912819D02*
X99599619Y-71912819D01*
X99599619Y-71912819D02*
X99504381Y-72055676D01*
X99504381Y-72055676D02*
X99409143Y-72150914D01*
X99409143Y-72150914D02*
X99313905Y-72198533D01*
X124567333Y-92325580D02*
X124519714Y-92373200D01*
X124519714Y-92373200D02*
X124376857Y-92420819D01*
X124376857Y-92420819D02*
X124281619Y-92420819D01*
X124281619Y-92420819D02*
X124138762Y-92373200D01*
X124138762Y-92373200D02*
X124043524Y-92277961D01*
X124043524Y-92277961D02*
X123995905Y-92182723D01*
X123995905Y-92182723D02*
X123948286Y-91992247D01*
X123948286Y-91992247D02*
X123948286Y-91849390D01*
X123948286Y-91849390D02*
X123995905Y-91658914D01*
X123995905Y-91658914D02*
X124043524Y-91563676D01*
X124043524Y-91563676D02*
X124138762Y-91468438D01*
X124138762Y-91468438D02*
X124281619Y-91420819D01*
X124281619Y-91420819D02*
X124376857Y-91420819D01*
X124376857Y-91420819D02*
X124519714Y-91468438D01*
X124519714Y-91468438D02*
X124567333Y-91516057D01*
X124900667Y-91420819D02*
X125567333Y-91420819D01*
X125567333Y-91420819D02*
X125138762Y-92420819D01*
X100417580Y-68766666D02*
X100465200Y-68814285D01*
X100465200Y-68814285D02*
X100512819Y-68957142D01*
X100512819Y-68957142D02*
X100512819Y-69052380D01*
X100512819Y-69052380D02*
X100465200Y-69195237D01*
X100465200Y-69195237D02*
X100369961Y-69290475D01*
X100369961Y-69290475D02*
X100274723Y-69338094D01*
X100274723Y-69338094D02*
X100084247Y-69385713D01*
X100084247Y-69385713D02*
X99941390Y-69385713D01*
X99941390Y-69385713D02*
X99750914Y-69338094D01*
X99750914Y-69338094D02*
X99655676Y-69290475D01*
X99655676Y-69290475D02*
X99560438Y-69195237D01*
X99560438Y-69195237D02*
X99512819Y-69052380D01*
X99512819Y-69052380D02*
X99512819Y-68957142D01*
X99512819Y-68957142D02*
X99560438Y-68814285D01*
X99560438Y-68814285D02*
X99608057Y-68766666D01*
X100512819Y-67814285D02*
X100512819Y-68385713D01*
X100512819Y-68099999D02*
X99512819Y-68099999D01*
X99512819Y-68099999D02*
X99655676Y-68195237D01*
X99655676Y-68195237D02*
X99750914Y-68290475D01*
X99750914Y-68290475D02*
X99798533Y-68385713D01*
X105601333Y-81203580D02*
X105553714Y-81251200D01*
X105553714Y-81251200D02*
X105410857Y-81298819D01*
X105410857Y-81298819D02*
X105315619Y-81298819D01*
X105315619Y-81298819D02*
X105172762Y-81251200D01*
X105172762Y-81251200D02*
X105077524Y-81155961D01*
X105077524Y-81155961D02*
X105029905Y-81060723D01*
X105029905Y-81060723D02*
X104982286Y-80870247D01*
X104982286Y-80870247D02*
X104982286Y-80727390D01*
X104982286Y-80727390D02*
X105029905Y-80536914D01*
X105029905Y-80536914D02*
X105077524Y-80441676D01*
X105077524Y-80441676D02*
X105172762Y-80346438D01*
X105172762Y-80346438D02*
X105315619Y-80298819D01*
X105315619Y-80298819D02*
X105410857Y-80298819D01*
X105410857Y-80298819D02*
X105553714Y-80346438D01*
X105553714Y-80346438D02*
X105601333Y-80394057D01*
X105982286Y-80394057D02*
X106029905Y-80346438D01*
X106029905Y-80346438D02*
X106125143Y-80298819D01*
X106125143Y-80298819D02*
X106363238Y-80298819D01*
X106363238Y-80298819D02*
X106458476Y-80346438D01*
X106458476Y-80346438D02*
X106506095Y-80394057D01*
X106506095Y-80394057D02*
X106553714Y-80489295D01*
X106553714Y-80489295D02*
X106553714Y-80584533D01*
X106553714Y-80584533D02*
X106506095Y-80727390D01*
X106506095Y-80727390D02*
X105934667Y-81298819D01*
X105934667Y-81298819D02*
X106553714Y-81298819D01*
X155104819Y-104172857D02*
X154628628Y-104506190D01*
X155104819Y-104744285D02*
X154104819Y-104744285D01*
X154104819Y-104744285D02*
X154104819Y-104363333D01*
X154104819Y-104363333D02*
X154152438Y-104268095D01*
X154152438Y-104268095D02*
X154200057Y-104220476D01*
X154200057Y-104220476D02*
X154295295Y-104172857D01*
X154295295Y-104172857D02*
X154438152Y-104172857D01*
X154438152Y-104172857D02*
X154533390Y-104220476D01*
X154533390Y-104220476D02*
X154581009Y-104268095D01*
X154581009Y-104268095D02*
X154628628Y-104363333D01*
X154628628Y-104363333D02*
X154628628Y-104744285D01*
X154200057Y-103791904D02*
X154152438Y-103744285D01*
X154152438Y-103744285D02*
X154104819Y-103649047D01*
X154104819Y-103649047D02*
X154104819Y-103410952D01*
X154104819Y-103410952D02*
X154152438Y-103315714D01*
X154152438Y-103315714D02*
X154200057Y-103268095D01*
X154200057Y-103268095D02*
X154295295Y-103220476D01*
X154295295Y-103220476D02*
X154390533Y-103220476D01*
X154390533Y-103220476D02*
X154533390Y-103268095D01*
X154533390Y-103268095D02*
X155104819Y-103839523D01*
X155104819Y-103839523D02*
X155104819Y-103220476D01*
X154438152Y-102363333D02*
X155104819Y-102363333D01*
X154057200Y-102601428D02*
X154771485Y-102839523D01*
X154771485Y-102839523D02*
X154771485Y-102220476D01*
X144336819Y-104236666D02*
X143860628Y-104569999D01*
X144336819Y-104808094D02*
X143336819Y-104808094D01*
X143336819Y-104808094D02*
X143336819Y-104427142D01*
X143336819Y-104427142D02*
X143384438Y-104331904D01*
X143384438Y-104331904D02*
X143432057Y-104284285D01*
X143432057Y-104284285D02*
X143527295Y-104236666D01*
X143527295Y-104236666D02*
X143670152Y-104236666D01*
X143670152Y-104236666D02*
X143765390Y-104284285D01*
X143765390Y-104284285D02*
X143813009Y-104331904D01*
X143813009Y-104331904D02*
X143860628Y-104427142D01*
X143860628Y-104427142D02*
X143860628Y-104808094D01*
X143670152Y-103379523D02*
X144336819Y-103379523D01*
X143289200Y-103617618D02*
X144003485Y-103855713D01*
X144003485Y-103855713D02*
X144003485Y-103236666D01*
X108630819Y-62563333D02*
X109345104Y-62563333D01*
X109345104Y-62563333D02*
X109487961Y-62610952D01*
X109487961Y-62610952D02*
X109583200Y-62706190D01*
X109583200Y-62706190D02*
X109630819Y-62849047D01*
X109630819Y-62849047D02*
X109630819Y-62944285D01*
X108726057Y-62134761D02*
X108678438Y-62087142D01*
X108678438Y-62087142D02*
X108630819Y-61991904D01*
X108630819Y-61991904D02*
X108630819Y-61753809D01*
X108630819Y-61753809D02*
X108678438Y-61658571D01*
X108678438Y-61658571D02*
X108726057Y-61610952D01*
X108726057Y-61610952D02*
X108821295Y-61563333D01*
X108821295Y-61563333D02*
X108916533Y-61563333D01*
X108916533Y-61563333D02*
X109059390Y-61610952D01*
X109059390Y-61610952D02*
X109630819Y-62182380D01*
X109630819Y-62182380D02*
X109630819Y-61563333D01*
X102721580Y-63855778D02*
X102769200Y-63903397D01*
X102769200Y-63903397D02*
X102816819Y-64046254D01*
X102816819Y-64046254D02*
X102816819Y-64141492D01*
X102816819Y-64141492D02*
X102769200Y-64284349D01*
X102769200Y-64284349D02*
X102673961Y-64379587D01*
X102673961Y-64379587D02*
X102578723Y-64427206D01*
X102578723Y-64427206D02*
X102388247Y-64474825D01*
X102388247Y-64474825D02*
X102245390Y-64474825D01*
X102245390Y-64474825D02*
X102054914Y-64427206D01*
X102054914Y-64427206D02*
X101959676Y-64379587D01*
X101959676Y-64379587D02*
X101864438Y-64284349D01*
X101864438Y-64284349D02*
X101816819Y-64141492D01*
X101816819Y-64141492D02*
X101816819Y-64046254D01*
X101816819Y-64046254D02*
X101864438Y-63903397D01*
X101864438Y-63903397D02*
X101912057Y-63855778D01*
X101816819Y-62951016D02*
X101816819Y-63427206D01*
X101816819Y-63427206D02*
X102293009Y-63474825D01*
X102293009Y-63474825D02*
X102245390Y-63427206D01*
X102245390Y-63427206D02*
X102197771Y-63331968D01*
X102197771Y-63331968D02*
X102197771Y-63093873D01*
X102197771Y-63093873D02*
X102245390Y-62998635D01*
X102245390Y-62998635D02*
X102293009Y-62951016D01*
X102293009Y-62951016D02*
X102388247Y-62903397D01*
X102388247Y-62903397D02*
X102626342Y-62903397D01*
X102626342Y-62903397D02*
X102721580Y-62951016D01*
X102721580Y-62951016D02*
X102769200Y-62998635D01*
X102769200Y-62998635D02*
X102816819Y-63093873D01*
X102816819Y-63093873D02*
X102816819Y-63331968D01*
X102816819Y-63331968D02*
X102769200Y-63427206D01*
X102769200Y-63427206D02*
X102721580Y-63474825D01*
X91273333Y-72844819D02*
X90940000Y-72368628D01*
X90701905Y-72844819D02*
X90701905Y-71844819D01*
X90701905Y-71844819D02*
X91082857Y-71844819D01*
X91082857Y-71844819D02*
X91178095Y-71892438D01*
X91178095Y-71892438D02*
X91225714Y-71940057D01*
X91225714Y-71940057D02*
X91273333Y-72035295D01*
X91273333Y-72035295D02*
X91273333Y-72178152D01*
X91273333Y-72178152D02*
X91225714Y-72273390D01*
X91225714Y-72273390D02*
X91178095Y-72321009D01*
X91178095Y-72321009D02*
X91082857Y-72368628D01*
X91082857Y-72368628D02*
X90701905Y-72368628D01*
X92225714Y-72844819D02*
X91654286Y-72844819D01*
X91940000Y-72844819D02*
X91940000Y-71844819D01*
X91940000Y-71844819D02*
X91844762Y-71987676D01*
X91844762Y-71987676D02*
X91749524Y-72082914D01*
X91749524Y-72082914D02*
X91654286Y-72130533D01*
X90405333Y-90761580D02*
X90357714Y-90809200D01*
X90357714Y-90809200D02*
X90214857Y-90856819D01*
X90214857Y-90856819D02*
X90119619Y-90856819D01*
X90119619Y-90856819D02*
X89976762Y-90809200D01*
X89976762Y-90809200D02*
X89881524Y-90713961D01*
X89881524Y-90713961D02*
X89833905Y-90618723D01*
X89833905Y-90618723D02*
X89786286Y-90428247D01*
X89786286Y-90428247D02*
X89786286Y-90285390D01*
X89786286Y-90285390D02*
X89833905Y-90094914D01*
X89833905Y-90094914D02*
X89881524Y-89999676D01*
X89881524Y-89999676D02*
X89976762Y-89904438D01*
X89976762Y-89904438D02*
X90119619Y-89856819D01*
X90119619Y-89856819D02*
X90214857Y-89856819D01*
X90214857Y-89856819D02*
X90357714Y-89904438D01*
X90357714Y-89904438D02*
X90405333Y-89952057D01*
X91262476Y-90190152D02*
X91262476Y-90856819D01*
X91024381Y-89809200D02*
X90786286Y-90523485D01*
X90786286Y-90523485D02*
X91405333Y-90523485D01*
X151561905Y-88818819D02*
X151561905Y-87818819D01*
X151561905Y-87818819D02*
X151800000Y-87818819D01*
X151800000Y-87818819D02*
X151942857Y-87866438D01*
X151942857Y-87866438D02*
X152038095Y-87961676D01*
X152038095Y-87961676D02*
X152085714Y-88056914D01*
X152085714Y-88056914D02*
X152133333Y-88247390D01*
X152133333Y-88247390D02*
X152133333Y-88390247D01*
X152133333Y-88390247D02*
X152085714Y-88580723D01*
X152085714Y-88580723D02*
X152038095Y-88675961D01*
X152038095Y-88675961D02*
X151942857Y-88771200D01*
X151942857Y-88771200D02*
X151800000Y-88818819D01*
X151800000Y-88818819D02*
X151561905Y-88818819D01*
X152990476Y-88152152D02*
X152990476Y-88818819D01*
X152752381Y-87771200D02*
X152514286Y-88485485D01*
X152514286Y-88485485D02*
X153133333Y-88485485D01*
X89811333Y-95641580D02*
X89763714Y-95689200D01*
X89763714Y-95689200D02*
X89620857Y-95736819D01*
X89620857Y-95736819D02*
X89525619Y-95736819D01*
X89525619Y-95736819D02*
X89382762Y-95689200D01*
X89382762Y-95689200D02*
X89287524Y-95593961D01*
X89287524Y-95593961D02*
X89239905Y-95498723D01*
X89239905Y-95498723D02*
X89192286Y-95308247D01*
X89192286Y-95308247D02*
X89192286Y-95165390D01*
X89192286Y-95165390D02*
X89239905Y-94974914D01*
X89239905Y-94974914D02*
X89287524Y-94879676D01*
X89287524Y-94879676D02*
X89382762Y-94784438D01*
X89382762Y-94784438D02*
X89525619Y-94736819D01*
X89525619Y-94736819D02*
X89620857Y-94736819D01*
X89620857Y-94736819D02*
X89763714Y-94784438D01*
X89763714Y-94784438D02*
X89811333Y-94832057D01*
X90144667Y-94736819D02*
X90763714Y-94736819D01*
X90763714Y-94736819D02*
X90430381Y-95117771D01*
X90430381Y-95117771D02*
X90573238Y-95117771D01*
X90573238Y-95117771D02*
X90668476Y-95165390D01*
X90668476Y-95165390D02*
X90716095Y-95213009D01*
X90716095Y-95213009D02*
X90763714Y-95308247D01*
X90763714Y-95308247D02*
X90763714Y-95546342D01*
X90763714Y-95546342D02*
X90716095Y-95641580D01*
X90716095Y-95641580D02*
X90668476Y-95689200D01*
X90668476Y-95689200D02*
X90573238Y-95736819D01*
X90573238Y-95736819D02*
X90287524Y-95736819D01*
X90287524Y-95736819D02*
X90192286Y-95689200D01*
X90192286Y-95689200D02*
X90144667Y-95641580D01*
X87804666Y-66002819D02*
X87804666Y-66717104D01*
X87804666Y-66717104D02*
X87757047Y-66859961D01*
X87757047Y-66859961D02*
X87661809Y-66955200D01*
X87661809Y-66955200D02*
X87518952Y-67002819D01*
X87518952Y-67002819D02*
X87423714Y-67002819D01*
X88804666Y-67002819D02*
X88233238Y-67002819D01*
X88518952Y-67002819D02*
X88518952Y-66002819D01*
X88518952Y-66002819D02*
X88423714Y-66145676D01*
X88423714Y-66145676D02*
X88328476Y-66240914D01*
X88328476Y-66240914D02*
X88233238Y-66288533D01*
X140993905Y-88846819D02*
X140993905Y-87846819D01*
X140993905Y-87846819D02*
X141232000Y-87846819D01*
X141232000Y-87846819D02*
X141374857Y-87894438D01*
X141374857Y-87894438D02*
X141470095Y-87989676D01*
X141470095Y-87989676D02*
X141517714Y-88084914D01*
X141517714Y-88084914D02*
X141565333Y-88275390D01*
X141565333Y-88275390D02*
X141565333Y-88418247D01*
X141565333Y-88418247D02*
X141517714Y-88608723D01*
X141517714Y-88608723D02*
X141470095Y-88703961D01*
X141470095Y-88703961D02*
X141374857Y-88799200D01*
X141374857Y-88799200D02*
X141232000Y-88846819D01*
X141232000Y-88846819D02*
X140993905Y-88846819D01*
X141946286Y-87942057D02*
X141993905Y-87894438D01*
X141993905Y-87894438D02*
X142089143Y-87846819D01*
X142089143Y-87846819D02*
X142327238Y-87846819D01*
X142327238Y-87846819D02*
X142422476Y-87894438D01*
X142422476Y-87894438D02*
X142470095Y-87942057D01*
X142470095Y-87942057D02*
X142517714Y-88037295D01*
X142517714Y-88037295D02*
X142517714Y-88132533D01*
X142517714Y-88132533D02*
X142470095Y-88275390D01*
X142470095Y-88275390D02*
X141898667Y-88846819D01*
X141898667Y-88846819D02*
X142517714Y-88846819D01*
D11*
%TO.C,J3*%
X122826000Y-92600000D02*
X124206000Y-92600000D01*
X122826000Y-93980000D02*
X122826000Y-92600000D01*
X122826000Y-95250000D02*
X122826000Y-105520000D01*
X122826000Y-95250000D02*
X125476000Y-95250000D01*
X122826000Y-105520000D02*
X128126000Y-105520000D01*
X125476000Y-92600000D02*
X128126000Y-92600000D01*
X125476000Y-95250000D02*
X125476000Y-92600000D01*
X128126000Y-92600000D02*
X128126000Y-105520000D01*
%TO.C,U1*%
X112422000Y-70054000D02*
X112422000Y-105734000D01*
X112422000Y-105734000D02*
X117722000Y-105734000D01*
X114072000Y-70054000D02*
X112422000Y-70054000D01*
X117722000Y-70054000D02*
X116072000Y-70054000D01*
X117722000Y-105734000D02*
X117722000Y-70054000D01*
X116072000Y-70054000D02*
G75*
G02*
X114072000Y-70054000I-1000000J0D01*
G01*
%TO.C,C6*%
X105252000Y-84305000D02*
X105252000Y-85835000D01*
X107092000Y-84305000D02*
X107092000Y-85835000D01*
%TO.C,JP1*%
X129440000Y-90456000D02*
X129770000Y-90456000D01*
X129440000Y-96996000D02*
X129440000Y-90456000D01*
X129770000Y-96996000D02*
X129440000Y-96996000D01*
X131850000Y-96996000D02*
X132180000Y-96996000D01*
X132180000Y-90456000D02*
X131850000Y-90456000D01*
X132180000Y-96996000D02*
X132180000Y-90456000D01*
%TO.C,R8*%
X124238000Y-75846000D02*
X130778000Y-75846000D01*
X124238000Y-76176000D02*
X124238000Y-75846000D01*
X124238000Y-78256000D02*
X124238000Y-78586000D01*
X124238000Y-78586000D02*
X130778000Y-78586000D01*
X130778000Y-75846000D02*
X130778000Y-76176000D01*
X130778000Y-78586000D02*
X130778000Y-78256000D01*
%TO.C,R5*%
X135028000Y-97060000D02*
X135028000Y-103600000D01*
X135028000Y-103600000D02*
X135358000Y-103600000D01*
X135358000Y-97060000D02*
X135028000Y-97060000D01*
X137438000Y-97060000D02*
X137768000Y-97060000D01*
X137768000Y-97060000D02*
X137768000Y-103600000D01*
X137768000Y-103600000D02*
X137438000Y-103600000D01*
%TO.C,D1*%
X145986000Y-90134000D02*
X145830000Y-90134000D01*
X148302000Y-90134000D02*
X148146000Y-90134000D01*
X145986000Y-92734961D02*
G75*
G02*
X145986000Y-90653039I1080000J1040961D01*
G01*
X145986000Y-93365437D02*
G75*
G02*
X145830484Y-90134000I1080000J1671437D01*
G01*
X148146000Y-90653039D02*
G75*
G02*
X148146000Y-92734961I-1080000J-1040961D01*
G01*
X148301516Y-90134000D02*
G75*
G02*
X148146000Y-93365437I-1235516J-1560000D01*
G01*
%TO.C,Y1*%
X98657000Y-91532000D02*
X98657000Y-97932000D01*
X103527000Y-91532000D02*
X103527000Y-97932000D01*
X98657000Y-91532000D02*
G75*
G02*
X103527000Y-91532000I2435000J0D01*
G01*
X103527000Y-97932000D02*
G75*
G02*
X98657000Y-97932000I-2435000J0D01*
G01*
%TO.C,R9*%
X124238000Y-80164000D02*
X130778000Y-80164000D01*
X124238000Y-80494000D02*
X124238000Y-80164000D01*
X124238000Y-82574000D02*
X124238000Y-82904000D01*
X124238000Y-82904000D02*
X130778000Y-82904000D01*
X130778000Y-80164000D02*
X130778000Y-80494000D01*
X130778000Y-82904000D02*
X130778000Y-82574000D01*
%TO.C,R23*%
X155602000Y-78518000D02*
X155932000Y-78518000D01*
X155602000Y-85058000D02*
X155602000Y-78518000D01*
X155932000Y-85058000D02*
X155602000Y-85058000D01*
X158012000Y-85058000D02*
X158342000Y-85058000D01*
X158342000Y-78518000D02*
X158012000Y-78518000D01*
X158342000Y-85058000D02*
X158342000Y-78518000D01*
%TO.C,R12*%
X135160000Y-66702000D02*
X141700000Y-66702000D01*
X135160000Y-67032000D02*
X135160000Y-66702000D01*
X135160000Y-69112000D02*
X135160000Y-69442000D01*
X135160000Y-69442000D02*
X141700000Y-69442000D01*
X141700000Y-66702000D02*
X141700000Y-67032000D01*
X141700000Y-69442000D02*
X141700000Y-69112000D01*
%TO.C,R21*%
X146082000Y-80164000D02*
X146082000Y-80494000D01*
X146082000Y-82904000D02*
X146082000Y-82574000D01*
X152622000Y-80164000D02*
X146082000Y-80164000D01*
X152622000Y-80494000D02*
X152622000Y-80164000D01*
X152622000Y-82574000D02*
X152622000Y-82904000D01*
X152622000Y-82904000D02*
X146082000Y-82904000D01*
%TO.C,R18*%
X146082000Y-66702000D02*
X146082000Y-67032000D01*
X146082000Y-69442000D02*
X146082000Y-69112000D01*
X152622000Y-66702000D02*
X146082000Y-66702000D01*
X152622000Y-67032000D02*
X152622000Y-66702000D01*
X152622000Y-69112000D02*
X152622000Y-69442000D01*
X152622000Y-69442000D02*
X146082000Y-69442000D01*
%TO.C,R3*%
X145696000Y-97060000D02*
X145696000Y-103600000D01*
X145696000Y-103600000D02*
X146026000Y-103600000D01*
X146026000Y-97060000D02*
X145696000Y-97060000D01*
X148106000Y-97060000D02*
X148436000Y-97060000D01*
X148436000Y-97060000D02*
X148436000Y-103600000D01*
X148436000Y-103600000D02*
X148106000Y-103600000D01*
%TO.C,R6*%
X124238000Y-66702000D02*
X130778000Y-66702000D01*
X124238000Y-67032000D02*
X124238000Y-66702000D01*
X124238000Y-69112000D02*
X124238000Y-69442000D01*
X124238000Y-69442000D02*
X130778000Y-69442000D01*
X130778000Y-66702000D02*
X130778000Y-67032000D01*
X130778000Y-69442000D02*
X130778000Y-69112000D01*
%TO.C,D3*%
X135572000Y-90134000D02*
X135416000Y-90134000D01*
X137888000Y-90134000D02*
X137732000Y-90134000D01*
X135572000Y-92734961D02*
G75*
G02*
X135572000Y-90653039I1080000J1040961D01*
G01*
X135572000Y-93365437D02*
G75*
G02*
X135416484Y-90134000I1080000J1671437D01*
G01*
X137732000Y-90653039D02*
G75*
G02*
X137732000Y-92734961I-1080000J-1040961D01*
G01*
X137887516Y-90134000D02*
G75*
G02*
X137732000Y-93365437I-1235516J-1560000D01*
G01*
%TO.C,R19*%
X146082000Y-71528000D02*
X146082000Y-71858000D01*
X146082000Y-74268000D02*
X146082000Y-73938000D01*
X152622000Y-71528000D02*
X146082000Y-71528000D01*
X152622000Y-71858000D02*
X152622000Y-71528000D01*
X152622000Y-73938000D02*
X152622000Y-74268000D01*
X152622000Y-74268000D02*
X146082000Y-74268000D01*
%TO.C,R16*%
X135160000Y-84228000D02*
X141700000Y-84228000D01*
X135160000Y-84558000D02*
X135160000Y-84228000D01*
X135160000Y-86638000D02*
X135160000Y-86968000D01*
X135160000Y-86968000D02*
X141700000Y-86968000D01*
X141700000Y-84228000D02*
X141700000Y-84558000D01*
X141700000Y-86968000D02*
X141700000Y-86638000D01*
%TO.C,R20*%
X146082000Y-75846000D02*
X146082000Y-76176000D01*
X146082000Y-78586000D02*
X146082000Y-78256000D01*
X152622000Y-75846000D02*
X146082000Y-75846000D01*
X152622000Y-76176000D02*
X152622000Y-75846000D01*
X152622000Y-78256000D02*
X152622000Y-78586000D01*
X152622000Y-78586000D02*
X146082000Y-78586000D01*
%TO.C,R7*%
X124238000Y-71528000D02*
X130778000Y-71528000D01*
X124238000Y-71858000D02*
X124238000Y-71528000D01*
X124238000Y-73938000D02*
X124238000Y-74268000D01*
X124238000Y-74268000D02*
X130778000Y-74268000D01*
X130778000Y-71528000D02*
X130778000Y-71858000D01*
X130778000Y-74268000D02*
X130778000Y-73938000D01*
%TO.C,R11*%
X135160000Y-62638000D02*
X141700000Y-62638000D01*
X135160000Y-62968000D02*
X135160000Y-62638000D01*
X135160000Y-65048000D02*
X135160000Y-65378000D01*
X135160000Y-65378000D02*
X141700000Y-65378000D01*
X141700000Y-62638000D02*
X141700000Y-62968000D01*
X141700000Y-65378000D02*
X141700000Y-65048000D01*
%TO.C,SW1*%
X95052000Y-75958000D02*
X95052000Y-77458000D01*
X96302000Y-79958000D02*
X100802000Y-79958000D01*
X100802000Y-73458000D02*
X96302000Y-73458000D01*
X102052000Y-77458000D02*
X102052000Y-75958000D01*
%TO.C,R14*%
X135160000Y-75846000D02*
X141700000Y-75846000D01*
X135160000Y-76176000D02*
X135160000Y-75846000D01*
X135160000Y-78256000D02*
X135160000Y-78586000D01*
X135160000Y-78586000D02*
X141700000Y-78586000D01*
X141700000Y-75846000D02*
X141700000Y-76176000D01*
X141700000Y-78586000D02*
X141700000Y-78256000D01*
%TO.C,C7*%
X125499000Y-88996000D02*
X123969000Y-88996000D01*
X125499000Y-90836000D02*
X123969000Y-90836000D01*
%TO.C,C1*%
X101188000Y-69365000D02*
X101188000Y-67835000D01*
X103028000Y-69365000D02*
X103028000Y-67835000D01*
%TO.C,R13*%
X135160000Y-71528000D02*
X141700000Y-71528000D01*
X135160000Y-71858000D02*
X135160000Y-71528000D01*
X135160000Y-73938000D02*
X135160000Y-74268000D01*
X135160000Y-74268000D02*
X141700000Y-74268000D01*
X141700000Y-71528000D02*
X141700000Y-71858000D01*
X141700000Y-74268000D02*
X141700000Y-73938000D01*
%TO.C,C2*%
X104998000Y-76979000D02*
X104998000Y-78509000D01*
X106838000Y-76979000D02*
X106838000Y-78509000D01*
%TO.C,R15*%
X135160000Y-80164000D02*
X141700000Y-80164000D01*
X135160000Y-80494000D02*
X135160000Y-80164000D01*
X135160000Y-82574000D02*
X135160000Y-82904000D01*
X135160000Y-82904000D02*
X141700000Y-82904000D01*
X141700000Y-80164000D02*
X141700000Y-80494000D01*
X141700000Y-82904000D02*
X141700000Y-82574000D01*
%TO.C,R24*%
X151030000Y-97060000D02*
X151030000Y-103600000D01*
X151030000Y-103600000D02*
X151360000Y-103600000D01*
X151360000Y-97060000D02*
X151030000Y-97060000D01*
X153440000Y-97060000D02*
X153770000Y-97060000D01*
X153770000Y-97060000D02*
X153770000Y-103600000D01*
X153770000Y-103600000D02*
X153440000Y-103600000D01*
%TO.C,R4*%
X140362000Y-97060000D02*
X140362000Y-103600000D01*
X140362000Y-103600000D02*
X140692000Y-103600000D01*
X140692000Y-97060000D02*
X140362000Y-97060000D01*
X142772000Y-97060000D02*
X143102000Y-97060000D01*
X143102000Y-97060000D02*
X143102000Y-103600000D01*
X143102000Y-103600000D02*
X142772000Y-103600000D01*
%TO.C,J2*%
X110126000Y-63610000D02*
X110126000Y-62230000D01*
X111506000Y-63610000D02*
X110126000Y-63610000D01*
X112776000Y-60850000D02*
X120506000Y-60850000D01*
X112776000Y-63610000D02*
X112776000Y-60850000D01*
X112776000Y-63610000D02*
X120506000Y-63610000D01*
X120506000Y-63610000D02*
X120506000Y-60850000D01*
%TO.C,R22*%
X146082000Y-84228000D02*
X152622000Y-84228000D01*
X146082000Y-84558000D02*
X146082000Y-84228000D01*
X146082000Y-86638000D02*
X146082000Y-86968000D01*
X146082000Y-86968000D02*
X152622000Y-86968000D01*
X152622000Y-84228000D02*
X152622000Y-84558000D01*
X152622000Y-86968000D02*
X152622000Y-86638000D01*
%TO.C,R2*%
X124238000Y-62638000D02*
X130778000Y-62638000D01*
X124238000Y-62968000D02*
X124238000Y-62638000D01*
X124238000Y-65048000D02*
X124238000Y-65378000D01*
X124238000Y-65378000D02*
X130778000Y-65378000D01*
X130778000Y-62638000D02*
X130778000Y-62968000D01*
X130778000Y-65378000D02*
X130778000Y-65048000D01*
%TO.C,R10*%
X124238000Y-84228000D02*
X130778000Y-84228000D01*
X124238000Y-84558000D02*
X124238000Y-84228000D01*
X124238000Y-86638000D02*
X124238000Y-86968000D01*
X124238000Y-86968000D02*
X130778000Y-86968000D01*
X130778000Y-84228000D02*
X130778000Y-84558000D01*
X130778000Y-86968000D02*
X130778000Y-86638000D01*
%TO.C,C5*%
X97258000Y-63720000D02*
X95729000Y-63720000D01*
X97258000Y-63760000D02*
X95733000Y-63760000D01*
X97258000Y-63800000D02*
X95738000Y-63800000D01*
X97258000Y-63840000D02*
X95743000Y-63840000D01*
X97258000Y-63880000D02*
X95749000Y-63880000D01*
X97258000Y-63920000D02*
X95755000Y-63920000D01*
X97258000Y-63960000D02*
X95762000Y-63960000D01*
X97258000Y-64000000D02*
X95770000Y-64000000D01*
X97258000Y-64040000D02*
X95779000Y-64040000D01*
X97258000Y-64080000D02*
X95788000Y-64080000D01*
X97258000Y-64120000D02*
X95797000Y-64120000D01*
X97258000Y-64160000D02*
X95808000Y-64160000D01*
X97258000Y-64200000D02*
X95819000Y-64200000D01*
X97258000Y-64240000D02*
X95831000Y-64240000D01*
X97258000Y-64280000D02*
X95843000Y-64280000D01*
X97258000Y-64320000D02*
X95856000Y-64320000D01*
X97258000Y-64360000D02*
X95870000Y-64360000D01*
X97258000Y-64400000D02*
X95885000Y-64400000D01*
X97258000Y-64440000D02*
X95900000Y-64440000D01*
X97258000Y-64480000D02*
X95916000Y-64480000D01*
X97258000Y-64520000D02*
X95933000Y-64520000D01*
X97258000Y-64560000D02*
X95951000Y-64560000D01*
X97258000Y-64600000D02*
X95969000Y-64600000D01*
X97258000Y-64640000D02*
X95989000Y-64640000D01*
X97258000Y-64680000D02*
X96009000Y-64680000D01*
X97258000Y-64720000D02*
X96030000Y-64720000D01*
X97258000Y-64760000D02*
X96052000Y-64760000D01*
X97258000Y-64800000D02*
X96075000Y-64800000D01*
X97258000Y-64840000D02*
X96099000Y-64840000D01*
X97258000Y-64880000D02*
X96123000Y-64880000D01*
X97258000Y-64920000D02*
X96149000Y-64920000D01*
X97258000Y-64960000D02*
X96176000Y-64960000D01*
X97258000Y-65000000D02*
X96204000Y-65000000D01*
X97258000Y-65040000D02*
X96233000Y-65040000D01*
X97258000Y-65080000D02*
X96263000Y-65080000D01*
X97258000Y-65120000D02*
X96295000Y-65120000D01*
X97258000Y-65160000D02*
X96328000Y-65160000D01*
X97258000Y-65200000D02*
X96362000Y-65200000D01*
X97258000Y-65240000D02*
X96397000Y-65240000D01*
X97258000Y-65280000D02*
X96434000Y-65280000D01*
X97258000Y-65320000D02*
X96473000Y-65320000D01*
X97258000Y-65360000D02*
X96513000Y-65360000D01*
X97258000Y-65400000D02*
X96555000Y-65400000D01*
X97258000Y-65440000D02*
X96599000Y-65440000D01*
X97258000Y-65480000D02*
X96646000Y-65480000D01*
X97258000Y-65520000D02*
X96694000Y-65520000D01*
X97258000Y-65560000D02*
X96745000Y-65560000D01*
X97258000Y-65600000D02*
X96799000Y-65600000D01*
X97258000Y-65640000D02*
X96855000Y-65640000D01*
X97258000Y-65680000D02*
X96915000Y-65680000D01*
X97258000Y-65720000D02*
X96979000Y-65720000D01*
X97258000Y-65760000D02*
X97047000Y-65760000D01*
X98581000Y-66080000D02*
X98015000Y-66080000D01*
X98815000Y-66040000D02*
X97781000Y-66040000D01*
X98975000Y-66000000D02*
X97621000Y-66000000D01*
X99103000Y-65960000D02*
X97493000Y-65960000D01*
X99212000Y-65920000D02*
X97384000Y-65920000D01*
X99309000Y-65880000D02*
X97287000Y-65880000D01*
X99396000Y-65840000D02*
X97200000Y-65840000D01*
X99475000Y-65800000D02*
X97121000Y-65800000D01*
X99549000Y-65760000D02*
X99338000Y-65760000D01*
X99617000Y-65720000D02*
X99338000Y-65720000D01*
X99681000Y-65680000D02*
X99338000Y-65680000D01*
X99741000Y-65640000D02*
X99338000Y-65640000D01*
X99773000Y-60675225D02*
X99773000Y-61175225D01*
X99797000Y-65600000D02*
X99338000Y-65600000D01*
X99851000Y-65560000D02*
X99338000Y-65560000D01*
X99902000Y-65520000D02*
X99338000Y-65520000D01*
X99950000Y-65480000D02*
X99338000Y-65480000D01*
X99997000Y-65440000D02*
X99338000Y-65440000D01*
X100023000Y-60925225D02*
X99523000Y-60925225D01*
X100041000Y-65400000D02*
X99338000Y-65400000D01*
X100083000Y-65360000D02*
X99338000Y-65360000D01*
X100123000Y-65320000D02*
X99338000Y-65320000D01*
X100162000Y-65280000D02*
X99338000Y-65280000D01*
X100199000Y-65240000D02*
X99338000Y-65240000D01*
X100234000Y-65200000D02*
X99338000Y-65200000D01*
X100268000Y-65160000D02*
X99338000Y-65160000D01*
X100301000Y-65120000D02*
X99338000Y-65120000D01*
X100333000Y-65080000D02*
X99338000Y-65080000D01*
X100363000Y-65040000D02*
X99338000Y-65040000D01*
X100392000Y-65000000D02*
X99338000Y-65000000D01*
X100420000Y-64960000D02*
X99338000Y-64960000D01*
X100447000Y-64920000D02*
X99338000Y-64920000D01*
X100473000Y-64880000D02*
X99338000Y-64880000D01*
X100497000Y-64840000D02*
X99338000Y-64840000D01*
X100521000Y-64800000D02*
X99338000Y-64800000D01*
X100544000Y-64760000D02*
X99338000Y-64760000D01*
X100566000Y-64720000D02*
X99338000Y-64720000D01*
X100587000Y-64680000D02*
X99338000Y-64680000D01*
X100607000Y-64640000D02*
X99338000Y-64640000D01*
X100627000Y-64600000D02*
X99338000Y-64600000D01*
X100645000Y-64560000D02*
X99338000Y-64560000D01*
X100663000Y-64520000D02*
X99338000Y-64520000D01*
X100680000Y-64480000D02*
X99338000Y-64480000D01*
X100696000Y-64440000D02*
X99338000Y-64440000D01*
X100711000Y-64400000D02*
X99338000Y-64400000D01*
X100726000Y-64360000D02*
X99338000Y-64360000D01*
X100740000Y-64320000D02*
X99338000Y-64320000D01*
X100753000Y-64280000D02*
X99338000Y-64280000D01*
X100765000Y-64240000D02*
X99338000Y-64240000D01*
X100777000Y-64200000D02*
X99338000Y-64200000D01*
X100788000Y-64160000D02*
X99338000Y-64160000D01*
X100799000Y-64120000D02*
X99338000Y-64120000D01*
X100808000Y-64080000D02*
X99338000Y-64080000D01*
X100817000Y-64040000D02*
X99338000Y-64040000D01*
X100826000Y-64000000D02*
X99338000Y-64000000D01*
X100834000Y-63960000D02*
X99338000Y-63960000D01*
X100841000Y-63920000D02*
X99338000Y-63920000D01*
X100847000Y-63880000D02*
X99338000Y-63880000D01*
X100853000Y-63840000D02*
X99338000Y-63840000D01*
X100858000Y-63800000D02*
X99338000Y-63800000D01*
X100863000Y-63760000D02*
X99338000Y-63760000D01*
X100867000Y-63720000D02*
X99338000Y-63720000D01*
X100870000Y-63680000D02*
X95726000Y-63680000D01*
X100873000Y-63640000D02*
X95723000Y-63640000D01*
X100875000Y-63600000D02*
X95721000Y-63600000D01*
X100877000Y-63560000D02*
X95719000Y-63560000D01*
X100878000Y-63480000D02*
X95718000Y-63480000D01*
X100878000Y-63520000D02*
X95718000Y-63520000D01*
X100918000Y-63480000D02*
G75*
G02*
X95678000Y-63480000I-2620000J0D01*
G01*
X95678000Y-63480000D02*
G75*
G02*
X100918000Y-63480000I2620000J0D01*
G01*
%TO.C,R1*%
X89440000Y-68480000D02*
X95980000Y-68480000D01*
X89440000Y-68810000D02*
X89440000Y-68480000D01*
X89440000Y-70890000D02*
X89440000Y-71220000D01*
X89440000Y-71220000D02*
X95980000Y-71220000D01*
X95980000Y-68480000D02*
X95980000Y-68810000D01*
X95980000Y-71220000D02*
X95980000Y-70890000D01*
%TO.C,C4*%
X91457000Y-91282000D02*
X92987000Y-91282000D01*
X91457000Y-93122000D02*
X92987000Y-93122000D01*
%TO.C,D4*%
X151320000Y-90134000D02*
X151164000Y-90134000D01*
X153636000Y-90134000D02*
X153480000Y-90134000D01*
X151320000Y-92734961D02*
G75*
G02*
X151320000Y-90653039I1080000J1040961D01*
G01*
X151320000Y-93365437D02*
G75*
G02*
X151164484Y-90134000I1080000J1671437D01*
G01*
X153480000Y-90653039D02*
G75*
G02*
X153480000Y-92734961I-1080000J-1040961D01*
G01*
X153635516Y-90134000D02*
G75*
G02*
X153480000Y-93365437I-1235516J-1560000D01*
G01*
%TO.C,C3*%
X91163000Y-96362000D02*
X92693000Y-96362000D01*
X91163000Y-98202000D02*
X92693000Y-98202000D01*
%TO.C,J1*%
X88282000Y-60850000D02*
X88282000Y-63610000D01*
X90932000Y-60850000D02*
X88282000Y-60850000D01*
X90932000Y-60850000D02*
X90932000Y-63610000D01*
X90932000Y-63610000D02*
X88282000Y-63610000D01*
X92202000Y-60850000D02*
X93582000Y-60850000D01*
X93582000Y-60850000D02*
X93582000Y-62230000D01*
%TO.C,R17*%
X146082000Y-62638000D02*
X146082000Y-62968000D01*
X146082000Y-65378000D02*
X146082000Y-65048000D01*
X152622000Y-62638000D02*
X146082000Y-62638000D01*
X152622000Y-62968000D02*
X152622000Y-62638000D01*
X152622000Y-65048000D02*
X152622000Y-65378000D01*
X152622000Y-65378000D02*
X146082000Y-65378000D01*
%TO.C,D2*%
X140652000Y-90134000D02*
X140496000Y-90134000D01*
X142968000Y-90134000D02*
X142812000Y-90134000D01*
X140652000Y-92734961D02*
G75*
G02*
X140652000Y-90653039I1080000J1040961D01*
G01*
X140652000Y-93365437D02*
G75*
G02*
X140496484Y-90134000I1080000J1671437D01*
G01*
X142812000Y-90653039D02*
G75*
G02*
X142812000Y-92734961I-1080000J-1040961D01*
G01*
X142967516Y-90134000D02*
G75*
G02*
X142812000Y-93365437I-1235516J-1560000D01*
G01*
%TD*%
M02*
