%TF.GenerationSoftware,KiCad,Pcbnew,9.0.2+dfsg-1*%
%TF.CreationDate,2025-08-27T00:54:43+05:30*%
%TF.ProjectId,scopetester_v1,73636f70-6574-4657-9374-65725f76312e,rev?*%
%TF.SameCoordinates,Original*%
%TF.FileFunction,Other,User*%
%FSLAX46Y46*%
G04 Gerber Fmt 4.6, Leading zero omitted, Abs format (unit mm)*
G04 Created by KiCad (PCBNEW 9.0.2+dfsg-1) date 2025-08-27 00:54:43*
%MOMM*%
%LPD*%
G01*
G04 APERTURE LIST*
%ADD10C,0.050000*%
G04 APERTURE END LIST*
D10*
%TO.C,J3*%
X123030000Y-92330000D02*
X123030000Y-106030000D01*
X123030000Y-106030000D02*
X129120000Y-106030000D01*
X129120000Y-92330000D02*
X123030000Y-92330000D01*
X129120000Y-106030000D02*
X129120000Y-92330000D01*
%TO.C,U1*%
X110202000Y-69854000D02*
X119932000Y-69854000D01*
X119932000Y-105934000D01*
X110202000Y-105934000D01*
X110202000Y-69854000D01*
%TO.C,C6*%
X107222000Y-82770000D02*
X105122000Y-82770000D01*
X105122000Y-87370000D01*
X107222000Y-87370000D01*
X107222000Y-82770000D01*
%TO.C,JP1*%
X130700000Y-98550000D02*
X133700000Y-98550000D01*
X133700000Y-88830000D01*
X130700000Y-88830000D01*
X130700000Y-98550000D01*
%TO.C,R8*%
X122648000Y-75716000D02*
X132368000Y-75716000D01*
X132368000Y-78716000D01*
X122648000Y-78716000D01*
X122648000Y-75716000D01*
%TO.C,R5*%
X139648000Y-95706000D02*
X136648000Y-95706000D01*
X136648000Y-105426000D01*
X139648000Y-105426000D01*
X139648000Y-95706000D01*
%TO.C,D1*%
X147790000Y-89449780D02*
X147790000Y-94289780D01*
X147790000Y-94289780D02*
X152210000Y-94289780D01*
X152210000Y-89449780D02*
X147790000Y-89449780D01*
X152210000Y-94289780D02*
X152210000Y-89449780D01*
%TO.C,Y1*%
X98270000Y-90940000D02*
X98270000Y-97340000D01*
X103930000Y-90940000D02*
X103930000Y-97340000D01*
X98270000Y-90940000D02*
G75*
G02*
X103930000Y-90940000I2830000J0D01*
G01*
X103930000Y-97340000D02*
G75*
G02*
X98270000Y-97340000I-2830000J0D01*
G01*
%TO.C,R9*%
X122648000Y-80034000D02*
X132368000Y-80034000D01*
X132368000Y-83034000D01*
X122648000Y-83034000D01*
X122648000Y-80034000D01*
%TO.C,R23*%
X155472000Y-86648000D02*
X158472000Y-86648000D01*
X158472000Y-76928000D01*
X155472000Y-76928000D01*
X155472000Y-86648000D01*
%TO.C,R12*%
X133570000Y-66572000D02*
X143290000Y-66572000D01*
X143290000Y-69572000D01*
X133570000Y-69572000D01*
X133570000Y-66572000D01*
%TO.C,R21*%
X154212000Y-83034000D02*
X144492000Y-83034000D01*
X144492000Y-80034000D01*
X154212000Y-80034000D01*
X154212000Y-83034000D01*
%TO.C,R18*%
X154212000Y-69572000D02*
X144492000Y-69572000D01*
X144492000Y-66572000D01*
X154212000Y-66572000D01*
X154212000Y-69572000D01*
%TO.C,R3*%
X151500000Y-95645780D02*
X148500000Y-95645780D01*
X148500000Y-105365780D01*
X151500000Y-105365780D01*
X151500000Y-95645780D01*
%TO.C,R6*%
X122648000Y-66572000D02*
X132368000Y-66572000D01*
X132368000Y-69572000D01*
X122648000Y-69572000D01*
X122648000Y-66572000D01*
%TO.C,D3*%
X135890000Y-89510000D02*
X135890000Y-94350000D01*
X135890000Y-94350000D02*
X140310000Y-94350000D01*
X140310000Y-89510000D02*
X135890000Y-89510000D01*
X140310000Y-94350000D02*
X140310000Y-89510000D01*
%TO.C,R19*%
X154212000Y-74398000D02*
X144492000Y-74398000D01*
X144492000Y-71398000D01*
X154212000Y-71398000D01*
X154212000Y-74398000D01*
%TO.C,R16*%
X133570000Y-84098000D02*
X143290000Y-84098000D01*
X143290000Y-87098000D01*
X133570000Y-87098000D01*
X133570000Y-84098000D01*
%TO.C,R20*%
X154212000Y-78716000D02*
X144492000Y-78716000D01*
X144492000Y-75716000D01*
X154212000Y-75716000D01*
X154212000Y-78716000D01*
%TO.C,R7*%
X122648000Y-71398000D02*
X132368000Y-71398000D01*
X132368000Y-74398000D01*
X122648000Y-74398000D01*
X122648000Y-71398000D01*
%TO.C,R11*%
X133570000Y-62508000D02*
X143290000Y-62508000D01*
X143290000Y-65508000D01*
X133570000Y-65508000D01*
X133570000Y-62508000D01*
%TO.C,SW1*%
X93802000Y-72958000D02*
X94052000Y-72958000D01*
X93802000Y-73208000D02*
X93802000Y-72958000D01*
X93802000Y-80208000D02*
X93802000Y-73208000D01*
X93802000Y-80208000D02*
X93802000Y-80458000D01*
X93802000Y-80458000D02*
X94052000Y-80458000D01*
X94052000Y-72958000D02*
X103052000Y-72958000D01*
X103052000Y-72958000D02*
X103302000Y-72958000D01*
X103052000Y-80458000D02*
X94052000Y-80458000D01*
X103052000Y-80458000D02*
X103302000Y-80458000D01*
X103302000Y-72958000D02*
X103302000Y-73208000D01*
X103302000Y-73208000D02*
X103302000Y-80208000D01*
X103302000Y-80458000D02*
X103302000Y-80208000D01*
%TO.C,R14*%
X133570000Y-75716000D02*
X143290000Y-75716000D01*
X143290000Y-78716000D01*
X133570000Y-78716000D01*
X133570000Y-75716000D01*
%TO.C,C7*%
X128450000Y-90850000D02*
X123850000Y-90850000D01*
X123850000Y-88750000D01*
X128450000Y-88750000D01*
X128450000Y-90850000D01*
%TO.C,C1*%
X101058000Y-70900000D02*
X103158000Y-70900000D01*
X103158000Y-66300000D01*
X101058000Y-66300000D01*
X101058000Y-70900000D01*
%TO.C,R13*%
X133570000Y-71398000D02*
X143290000Y-71398000D01*
X143290000Y-74398000D01*
X133570000Y-74398000D01*
X133570000Y-71398000D01*
%TO.C,C2*%
X106968000Y-75444000D02*
X104868000Y-75444000D01*
X104868000Y-80044000D01*
X106968000Y-80044000D01*
X106968000Y-75444000D01*
%TO.C,R15*%
X133570000Y-80034000D02*
X143290000Y-80034000D01*
X143290000Y-83034000D01*
X133570000Y-83034000D01*
X133570000Y-80034000D01*
%TO.C,R24*%
X157400000Y-95706000D02*
X154400000Y-95706000D01*
X154400000Y-105426000D01*
X157400000Y-105426000D01*
X157400000Y-95706000D01*
%TO.C,R4*%
X145600000Y-95706000D02*
X142600000Y-95706000D01*
X142600000Y-105426000D01*
X145600000Y-105426000D01*
X145600000Y-95706000D01*
%TO.C,J2*%
X109736000Y-60460000D02*
X109736000Y-64000000D01*
X109736000Y-64000000D02*
X120896000Y-64000000D01*
X120896000Y-60460000D02*
X109736000Y-60460000D01*
X120896000Y-64000000D02*
X120896000Y-60460000D01*
%TO.C,R22*%
X144492000Y-84098000D02*
X154212000Y-84098000D01*
X154212000Y-87098000D01*
X144492000Y-87098000D01*
X144492000Y-84098000D01*
%TO.C,R2*%
X122648000Y-62508000D02*
X132368000Y-62508000D01*
X132368000Y-65508000D01*
X122648000Y-65508000D01*
X122648000Y-62508000D01*
%TO.C,R10*%
X122648000Y-84098000D02*
X132368000Y-84098000D01*
X132368000Y-87098000D01*
X122648000Y-87098000D01*
X122648000Y-84098000D01*
%TO.C,C5*%
X101048000Y-63480000D02*
G75*
G02*
X95548000Y-63480000I-2750000J0D01*
G01*
X95548000Y-63480000D02*
G75*
G02*
X101048000Y-63480000I2750000J0D01*
G01*
%TO.C,R1*%
X87850000Y-68350000D02*
X97570000Y-68350000D01*
X97570000Y-71350000D01*
X87850000Y-71350000D01*
X87850000Y-68350000D01*
%TO.C,C4*%
X89650000Y-90650000D02*
X94250000Y-90650000D01*
X94250000Y-92750000D01*
X89650000Y-92750000D01*
X89650000Y-90650000D01*
%TO.C,D4*%
X158110000Y-94350000D02*
X158110000Y-89510000D01*
X158110000Y-89510000D02*
X153690000Y-89510000D01*
X153690000Y-94350000D02*
X158110000Y-94350000D01*
X153690000Y-89510000D02*
X153690000Y-94350000D01*
%TO.C,C3*%
X89628000Y-95650000D02*
X94228000Y-95650000D01*
X94228000Y-97750000D01*
X89628000Y-97750000D01*
X89628000Y-95650000D01*
%TO.C,J1*%
X87882000Y-60460000D02*
X87882000Y-64000000D01*
X87882000Y-64000000D02*
X93972000Y-64000000D01*
X93972000Y-60460000D02*
X87882000Y-60460000D01*
X93972000Y-64000000D02*
X93972000Y-60460000D01*
%TO.C,R17*%
X154212000Y-65508000D02*
X144492000Y-65508000D01*
X144492000Y-62508000D01*
X154212000Y-62508000D01*
X154212000Y-65508000D01*
%TO.C,D2*%
X141890000Y-89510000D02*
X141890000Y-94350000D01*
X141890000Y-94350000D02*
X146310000Y-94350000D01*
X146310000Y-89510000D02*
X141890000Y-89510000D01*
X146310000Y-94350000D02*
X146310000Y-89510000D01*
%TD*%
M02*
