%TF.GenerationSoftware,KiCad,Pcbnew,9.0.2+dfsg-1*%
%TF.CreationDate,2025-08-27T01:07:13+05:30*%
%TF.ProjectId,scopetester_v1,73636f70-6574-4657-9374-65725f76312e,rev?*%
%TF.SameCoordinates,Original*%
%TF.FileFunction,Copper,L2,Bot*%
%TF.FilePolarity,Positive*%
%FSLAX46Y46*%
G04 Gerber Fmt 4.6, Leading zero omitted, Abs format (unit mm)*
G04 Created by KiCad (PCBNEW 9.0.2+dfsg-1) date 2025-08-27 01:07:13*
%MOMM*%
%LPD*%
G01*
G04 APERTURE LIST*
G04 Aperture macros list*
%AMRoundRect*
0 Rectangle with rounded corners*
0 $1 Rounding radius*
0 $2 $3 $4 $5 $6 $7 $8 $9 X,Y pos of 4 corners*
0 Add a 4 corners polygon primitive as box body*
4,1,4,$2,$3,$4,$5,$6,$7,$8,$9,$2,$3,0*
0 Add four circle primitives for the rounded corners*
1,1,$1+$1,$2,$3*
1,1,$1+$1,$4,$5*
1,1,$1+$1,$6,$7*
1,1,$1+$1,$8,$9*
0 Add four rect primitives between the rounded corners*
20,1,$1+$1,$2,$3,$4,$5,0*
20,1,$1+$1,$4,$5,$6,$7,0*
20,1,$1+$1,$6,$7,$8,$9,0*
20,1,$1+$1,$8,$9,$2,$3,0*%
G04 Aperture macros list end*
%ADD10C,0.200000*%
%TA.AperFunction,NonConductor*%
%ADD11C,0.200000*%
%TD*%
%TA.AperFunction,ComponentPad*%
%ADD12R,1.700000X1.700000*%
%TD*%
%TA.AperFunction,ComponentPad*%
%ADD13C,1.700000*%
%TD*%
%TA.AperFunction,ComponentPad*%
%ADD14RoundRect,0.250000X-0.550000X-0.550000X0.550000X-0.550000X0.550000X0.550000X-0.550000X0.550000X0*%
%TD*%
%TA.AperFunction,ComponentPad*%
%ADD15C,1.600000*%
%TD*%
%TA.AperFunction,ComponentPad*%
%ADD16R,1.800000X1.800000*%
%TD*%
%TA.AperFunction,ComponentPad*%
%ADD17C,1.800000*%
%TD*%
%TA.AperFunction,ComponentPad*%
%ADD18C,1.500000*%
%TD*%
%TA.AperFunction,ComponentPad*%
%ADD19C,2.000000*%
%TD*%
%TA.AperFunction,ComponentPad*%
%ADD20RoundRect,0.250000X-0.550000X0.550000X-0.550000X-0.550000X0.550000X-0.550000X0.550000X0.550000X0*%
%TD*%
%TA.AperFunction,Conductor*%
%ADD21C,0.400000*%
%TD*%
%TA.AperFunction,Conductor*%
%ADD22C,0.600000*%
%TD*%
%TA.AperFunction,Conductor*%
%ADD23C,0.200000*%
%TD*%
G04 APERTURE END LIST*
D10*
D11*
X97543428Y-107295628D02*
X97448190Y-107343247D01*
X97448190Y-107343247D02*
X97257714Y-107343247D01*
X97257714Y-107343247D02*
X97162476Y-107295628D01*
X97162476Y-107295628D02*
X97114857Y-107200389D01*
X97114857Y-107200389D02*
X97114857Y-107152770D01*
X97114857Y-107152770D02*
X97162476Y-107057532D01*
X97162476Y-107057532D02*
X97257714Y-107009913D01*
X97257714Y-107009913D02*
X97400571Y-107009913D01*
X97400571Y-107009913D02*
X97495809Y-106962294D01*
X97495809Y-106962294D02*
X97543428Y-106867056D01*
X97543428Y-106867056D02*
X97543428Y-106819437D01*
X97543428Y-106819437D02*
X97495809Y-106724199D01*
X97495809Y-106724199D02*
X97400571Y-106676580D01*
X97400571Y-106676580D02*
X97257714Y-106676580D01*
X97257714Y-106676580D02*
X97162476Y-106724199D01*
X96686285Y-107343247D02*
X96686285Y-106676580D01*
X96686285Y-106343247D02*
X96733904Y-106390866D01*
X96733904Y-106390866D02*
X96686285Y-106438485D01*
X96686285Y-106438485D02*
X96638666Y-106390866D01*
X96638666Y-106390866D02*
X96686285Y-106343247D01*
X96686285Y-106343247D02*
X96686285Y-106438485D01*
X95781524Y-106676580D02*
X95781524Y-107486104D01*
X95781524Y-107486104D02*
X95829143Y-107581342D01*
X95829143Y-107581342D02*
X95876762Y-107628961D01*
X95876762Y-107628961D02*
X95972000Y-107676580D01*
X95972000Y-107676580D02*
X96114857Y-107676580D01*
X96114857Y-107676580D02*
X96210095Y-107628961D01*
X95781524Y-107295628D02*
X95876762Y-107343247D01*
X95876762Y-107343247D02*
X96067238Y-107343247D01*
X96067238Y-107343247D02*
X96162476Y-107295628D01*
X96162476Y-107295628D02*
X96210095Y-107248008D01*
X96210095Y-107248008D02*
X96257714Y-107152770D01*
X96257714Y-107152770D02*
X96257714Y-106867056D01*
X96257714Y-106867056D02*
X96210095Y-106771818D01*
X96210095Y-106771818D02*
X96162476Y-106724199D01*
X96162476Y-106724199D02*
X96067238Y-106676580D01*
X96067238Y-106676580D02*
X95876762Y-106676580D01*
X95876762Y-106676580D02*
X95781524Y-106724199D01*
X95305333Y-106676580D02*
X95305333Y-107343247D01*
X95305333Y-106771818D02*
X95257714Y-106724199D01*
X95257714Y-106724199D02*
X95162476Y-106676580D01*
X95162476Y-106676580D02*
X95019619Y-106676580D01*
X95019619Y-106676580D02*
X94924381Y-106724199D01*
X94924381Y-106724199D02*
X94876762Y-106819437D01*
X94876762Y-106819437D02*
X94876762Y-107343247D01*
X93972000Y-107343247D02*
X93972000Y-106819437D01*
X93972000Y-106819437D02*
X94019619Y-106724199D01*
X94019619Y-106724199D02*
X94114857Y-106676580D01*
X94114857Y-106676580D02*
X94305333Y-106676580D01*
X94305333Y-106676580D02*
X94400571Y-106724199D01*
X93972000Y-107295628D02*
X94067238Y-107343247D01*
X94067238Y-107343247D02*
X94305333Y-107343247D01*
X94305333Y-107343247D02*
X94400571Y-107295628D01*
X94400571Y-107295628D02*
X94448190Y-107200389D01*
X94448190Y-107200389D02*
X94448190Y-107105151D01*
X94448190Y-107105151D02*
X94400571Y-107009913D01*
X94400571Y-107009913D02*
X94305333Y-106962294D01*
X94305333Y-106962294D02*
X94067238Y-106962294D01*
X94067238Y-106962294D02*
X93972000Y-106914675D01*
X93352952Y-107343247D02*
X93448190Y-107295628D01*
X93448190Y-107295628D02*
X93495809Y-107200389D01*
X93495809Y-107200389D02*
X93495809Y-106343247D01*
X92971999Y-107248008D02*
X92924380Y-107295628D01*
X92924380Y-107295628D02*
X92971999Y-107343247D01*
X92971999Y-107343247D02*
X93019618Y-107295628D01*
X93019618Y-107295628D02*
X92971999Y-107248008D01*
X92971999Y-107248008D02*
X92971999Y-107343247D01*
X92114857Y-107295628D02*
X92210095Y-107343247D01*
X92210095Y-107343247D02*
X92400571Y-107343247D01*
X92400571Y-107343247D02*
X92495809Y-107295628D01*
X92495809Y-107295628D02*
X92543428Y-107200389D01*
X92543428Y-107200389D02*
X92543428Y-106819437D01*
X92543428Y-106819437D02*
X92495809Y-106724199D01*
X92495809Y-106724199D02*
X92400571Y-106676580D01*
X92400571Y-106676580D02*
X92210095Y-106676580D01*
X92210095Y-106676580D02*
X92114857Y-106724199D01*
X92114857Y-106724199D02*
X92067238Y-106819437D01*
X92067238Y-106819437D02*
X92067238Y-106914675D01*
X92067238Y-106914675D02*
X92543428Y-107009913D01*
X91210095Y-107295628D02*
X91305333Y-107343247D01*
X91305333Y-107343247D02*
X91495809Y-107343247D01*
X91495809Y-107343247D02*
X91591047Y-107295628D01*
X91591047Y-107295628D02*
X91638666Y-107248008D01*
X91638666Y-107248008D02*
X91686285Y-107152770D01*
X91686285Y-107152770D02*
X91686285Y-106867056D01*
X91686285Y-106867056D02*
X91638666Y-106771818D01*
X91638666Y-106771818D02*
X91591047Y-106724199D01*
X91591047Y-106724199D02*
X91495809Y-106676580D01*
X91495809Y-106676580D02*
X91305333Y-106676580D01*
X91305333Y-106676580D02*
X91210095Y-106724199D01*
X90781523Y-107343247D02*
X90781523Y-106343247D01*
X90352952Y-107343247D02*
X90352952Y-106819437D01*
X90352952Y-106819437D02*
X90400571Y-106724199D01*
X90400571Y-106724199D02*
X90495809Y-106676580D01*
X90495809Y-106676580D02*
X90638666Y-106676580D01*
X90638666Y-106676580D02*
X90733904Y-106724199D01*
X90733904Y-106724199D02*
X90781523Y-106771818D01*
X89733904Y-107343247D02*
X89829142Y-107295628D01*
X89829142Y-107295628D02*
X89876761Y-107248008D01*
X89876761Y-107248008D02*
X89924380Y-107152770D01*
X89924380Y-107152770D02*
X89924380Y-106867056D01*
X89924380Y-106867056D02*
X89876761Y-106771818D01*
X89876761Y-106771818D02*
X89829142Y-106724199D01*
X89829142Y-106724199D02*
X89733904Y-106676580D01*
X89733904Y-106676580D02*
X89591047Y-106676580D01*
X89591047Y-106676580D02*
X89495809Y-106724199D01*
X89495809Y-106724199D02*
X89448190Y-106771818D01*
X89448190Y-106771818D02*
X89400571Y-106867056D01*
X89400571Y-106867056D02*
X89400571Y-107152770D01*
X89400571Y-107152770D02*
X89448190Y-107248008D01*
X89448190Y-107248008D02*
X89495809Y-107295628D01*
X89495809Y-107295628D02*
X89591047Y-107343247D01*
X89591047Y-107343247D02*
X89733904Y-107343247D01*
X94995808Y-107953191D02*
X94662475Y-108953191D01*
X94662475Y-108953191D02*
X94329142Y-107953191D01*
X93471999Y-108953191D02*
X94043427Y-108953191D01*
X93757713Y-108953191D02*
X93757713Y-107953191D01*
X93757713Y-107953191D02*
X93852951Y-108096048D01*
X93852951Y-108096048D02*
X93948189Y-108191286D01*
X93948189Y-108191286D02*
X94043427Y-108238905D01*
X93043427Y-108857952D02*
X92995808Y-108905572D01*
X92995808Y-108905572D02*
X93043427Y-108953191D01*
X93043427Y-108953191D02*
X93091046Y-108905572D01*
X93091046Y-108905572D02*
X93043427Y-108857952D01*
X93043427Y-108857952D02*
X93043427Y-108953191D01*
X92043428Y-108953191D02*
X92614856Y-108953191D01*
X92329142Y-108953191D02*
X92329142Y-107953191D01*
X92329142Y-107953191D02*
X92424380Y-108096048D01*
X92424380Y-108096048D02*
X92519618Y-108191286D01*
X92519618Y-108191286D02*
X92614856Y-108238905D01*
D12*
%TO.P,J3,1,Pin_1*%
%TO.N,ISP_MOSI*%
X124800000Y-94100000D03*
D13*
%TO.P,J3,2,Pin_2*%
%TO.N,+5V*%
X127340000Y-94100000D03*
%TO.P,J3,3,Pin_3*%
%TO.N,unconnected-(J3-Pin_3-Pad3)*%
X124800000Y-96640000D03*
%TO.P,J3,4,Pin_4*%
%TO.N,unconnected-(J3-Pin_4-Pad4)*%
X127340000Y-96640000D03*
%TO.P,J3,5,Pin_5*%
%TO.N,U1_RESET*%
X124800000Y-99180000D03*
%TO.P,J3,6,Pin_6*%
%TO.N,unconnected-(J3-Pin_6-Pad6)*%
X127340000Y-99180000D03*
%TO.P,J3,7,Pin_7*%
%TO.N,ISP_SCK*%
X124800000Y-101720000D03*
%TO.P,J3,8,Pin_8*%
%TO.N,GND*%
X127340000Y-101720000D03*
%TO.P,J3,9,Pin_9*%
%TO.N,ISP_MISO*%
X124800000Y-104260000D03*
%TO.P,J3,10,Pin_10*%
%TO.N,GND*%
X127340000Y-104260000D03*
%TD*%
D14*
%TO.P,U1,1,PC6/~{RESET}*%
%TO.N,U1_RESET*%
X111262000Y-71384000D03*
D15*
%TO.P,U1,2,PD0*%
%TO.N,DIGI_OUT_0*%
X111262000Y-73924000D03*
%TO.P,U1,3,PD1*%
%TO.N,DIGI_OUT_1*%
X111262000Y-76464000D03*
%TO.P,U1,4,PD2*%
%TO.N,SW_MODE*%
X111262000Y-79004000D03*
%TO.P,U1,5,PD3*%
%TO.N,unconnected-(U1-PD3-Pad5)*%
X111262000Y-81544000D03*
%TO.P,U1,6,PD4*%
%TO.N,STAT_LED_0*%
X111262000Y-84084000D03*
%TO.P,U1,7,VCC*%
%TO.N,+5V*%
X111262000Y-86624000D03*
%TO.P,U1,8,GND*%
%TO.N,GND*%
X111262000Y-89164000D03*
%TO.P,U1,9,PB6/XTAL1*%
%TO.N,Net-(U1-PB6{slash}XTAL1)*%
X111262000Y-91704000D03*
%TO.P,U1,10,PB7/XTAL2*%
%TO.N,Net-(U1-PB7{slash}XTAL2)*%
X111262000Y-94244000D03*
%TO.P,U1,11,PD5*%
%TO.N,STAT_LED_1*%
X111262000Y-96784000D03*
%TO.P,U1,12,PD6*%
%TO.N,STAT_LED_2*%
X111262000Y-99324000D03*
%TO.P,U1,13,PD7*%
%TO.N,STAT_LED_3*%
X111262000Y-101864000D03*
%TO.P,U1,14,PB0*%
%TO.N,unconnected-(U1-PB0-Pad14)*%
X111262000Y-104404000D03*
%TO.P,U1,15,PB1*%
%TO.N,unconnected-(U1-PB1-Pad15)*%
X118882000Y-104404000D03*
%TO.P,U1,16,PB2*%
%TO.N,unconnected-(U1-PB2-Pad16)*%
X118882000Y-101864000D03*
%TO.P,U1,17,PB3*%
%TO.N,ISP_MOSI*%
X118882000Y-99324000D03*
%TO.P,U1,18,PB4*%
%TO.N,ISP_MISO*%
X118882000Y-96784000D03*
%TO.P,U1,19,PB5*%
%TO.N,ISP_SCK*%
X118882000Y-94244000D03*
%TO.P,U1,20,AVCC*%
%TO.N,+5V*%
X118882000Y-91704000D03*
%TO.P,U1,21,AREF*%
%TO.N,unconnected-(U1-AREF-Pad21)*%
X118882000Y-89164000D03*
%TO.P,U1,22,AGND*%
%TO.N,GND*%
X118882000Y-86624000D03*
%TO.P,U1,23,PC0*%
%TO.N,ANG_D0*%
X118882000Y-84084000D03*
%TO.P,U1,24,PC1*%
%TO.N,ANG_D1*%
X118882000Y-81544000D03*
%TO.P,U1,25,PC2*%
%TO.N,ANG_D2*%
X118882000Y-79004000D03*
%TO.P,U1,26,PC3*%
%TO.N,ANG_D3*%
X118882000Y-76464000D03*
%TO.P,U1,27,PC4*%
%TO.N,ANG_D4*%
X118882000Y-73924000D03*
%TO.P,U1,28,PC5*%
%TO.N,ANG_D5*%
X118882000Y-71384000D03*
%TD*%
%TO.P,C6,1*%
%TO.N,+5V*%
X106172000Y-83820000D03*
%TO.P,C6,2*%
%TO.N,GND*%
X106172000Y-86320000D03*
%TD*%
%TO.P,JP1,1,A*%
%TO.N,GND*%
X132200000Y-97500000D03*
%TO.P,JP1,2,B*%
X132200000Y-89880000D03*
%TD*%
%TO.P,R8,1*%
%TO.N,ANG_D2*%
X123698000Y-77216000D03*
%TO.P,R8,2*%
%TO.N,Net-(R14-Pad1)*%
X131318000Y-77216000D03*
%TD*%
%TO.P,R5,1*%
%TO.N,Net-(D3-A)*%
X138148000Y-96756000D03*
%TO.P,R5,2*%
%TO.N,STAT_LED_0*%
X138148000Y-104376000D03*
%TD*%
D16*
%TO.P,D1,1,K*%
%TO.N,GND*%
X150000000Y-90599780D03*
D17*
%TO.P,D1,2,A*%
%TO.N,Net-(D1-A)*%
X150000000Y-93139780D03*
%TD*%
D18*
%TO.P,Y1,1,1*%
%TO.N,Net-(U1-PB6{slash}XTAL1)*%
X101100000Y-91700000D03*
%TO.P,Y1,2,2*%
%TO.N,Net-(U1-PB7{slash}XTAL2)*%
X101100000Y-96580000D03*
%TD*%
D15*
%TO.P,R9,1*%
%TO.N,ANG_D1*%
X123698000Y-81534000D03*
%TO.P,R9,2*%
%TO.N,Net-(R15-Pad1)*%
X131318000Y-81534000D03*
%TD*%
%TO.P,R23,1*%
%TO.N,Net-(R22-Pad2)*%
X156972000Y-85598000D03*
%TO.P,R23,2*%
%TO.N,GND*%
X156972000Y-77978000D03*
%TD*%
%TO.P,R12,1*%
%TO.N,Net-(R12-Pad1)*%
X134620000Y-68072000D03*
%TO.P,R12,2*%
%TO.N,Net-(R12-Pad2)*%
X142240000Y-68072000D03*
%TD*%
%TO.P,R21,1*%
%TO.N,Net-(R16-Pad2)*%
X153162000Y-81534000D03*
%TO.P,R21,2*%
%TO.N,Net-(R15-Pad2)*%
X145542000Y-81534000D03*
%TD*%
%TO.P,R18,1*%
%TO.N,Net-(R13-Pad2)*%
X153162000Y-68072000D03*
%TO.P,R18,2*%
%TO.N,Net-(R12-Pad2)*%
X145542000Y-68072000D03*
%TD*%
%TO.P,R3,1*%
%TO.N,Net-(D1-A)*%
X150000000Y-96695780D03*
%TO.P,R3,2*%
%TO.N,STAT_LED_2*%
X150000000Y-104315780D03*
%TD*%
%TO.P,R6,1*%
%TO.N,ANG_D4*%
X123698000Y-68072000D03*
%TO.P,R6,2*%
%TO.N,Net-(R12-Pad1)*%
X131318000Y-68072000D03*
%TD*%
D16*
%TO.P,D3,1,K*%
%TO.N,GND*%
X138100000Y-90660000D03*
D17*
%TO.P,D3,2,A*%
%TO.N,Net-(D3-A)*%
X138100000Y-93200000D03*
%TD*%
D15*
%TO.P,R19,1*%
%TO.N,Net-(R14-Pad2)*%
X153162000Y-72898000D03*
%TO.P,R19,2*%
%TO.N,Net-(R13-Pad2)*%
X145542000Y-72898000D03*
%TD*%
%TO.P,R16,1*%
%TO.N,Net-(R10-Pad2)*%
X134620000Y-85598000D03*
%TO.P,R16,2*%
%TO.N,Net-(R16-Pad2)*%
X142240000Y-85598000D03*
%TD*%
%TO.P,R20,1*%
%TO.N,Net-(R15-Pad2)*%
X153162000Y-77216000D03*
%TO.P,R20,2*%
%TO.N,Net-(R14-Pad2)*%
X145542000Y-77216000D03*
%TD*%
%TO.P,R7,1*%
%TO.N,ANG_D3*%
X123698000Y-72898000D03*
%TO.P,R7,2*%
%TO.N,Net-(R13-Pad1)*%
X131318000Y-72898000D03*
%TD*%
%TO.P,R11,1*%
%TO.N,Net-(R11-Pad1)*%
X134620000Y-64008000D03*
%TO.P,R11,2*%
%TO.N,ANG_OUT_0*%
X142240000Y-64008000D03*
%TD*%
D19*
%TO.P,SW1,1,1*%
%TO.N,GND*%
X95302000Y-74458000D03*
X101802000Y-74458000D03*
%TO.P,SW1,2,2*%
%TO.N,SW_MODE*%
X95302000Y-78958000D03*
X101802000Y-78958000D03*
%TD*%
D15*
%TO.P,R14,1*%
%TO.N,Net-(R14-Pad1)*%
X134620000Y-77216000D03*
%TO.P,R14,2*%
%TO.N,Net-(R14-Pad2)*%
X142240000Y-77216000D03*
%TD*%
%TO.P,C7,1*%
%TO.N,+5V*%
X127400000Y-89800000D03*
%TO.P,C7,2*%
%TO.N,GND*%
X124900000Y-89800000D03*
%TD*%
%TO.P,C1,1*%
%TO.N,U1_RESET*%
X102108000Y-69850000D03*
%TO.P,C1,2*%
%TO.N,GND*%
X102108000Y-67350000D03*
%TD*%
%TO.P,R13,1*%
%TO.N,Net-(R13-Pad1)*%
X134620000Y-72898000D03*
%TO.P,R13,2*%
%TO.N,Net-(R13-Pad2)*%
X142240000Y-72898000D03*
%TD*%
%TO.P,C2,1*%
%TO.N,GND*%
X105918000Y-76494000D03*
%TO.P,C2,2*%
%TO.N,SW_MODE*%
X105918000Y-78994000D03*
%TD*%
%TO.P,R15,1*%
%TO.N,Net-(R15-Pad1)*%
X134620000Y-81534000D03*
%TO.P,R15,2*%
%TO.N,Net-(R15-Pad2)*%
X142240000Y-81534000D03*
%TD*%
%TO.P,R24,1*%
%TO.N,Net-(D4-A)*%
X155900000Y-96756000D03*
%TO.P,R24,2*%
%TO.N,STAT_LED_3*%
X155900000Y-104376000D03*
%TD*%
%TO.P,R4,1*%
%TO.N,Net-(D2-A)*%
X144100000Y-96756000D03*
%TO.P,R4,2*%
%TO.N,STAT_LED_1*%
X144100000Y-104376000D03*
%TD*%
D12*
%TO.P,J2,1,Pin_1*%
%TO.N,GND*%
X111506000Y-62230000D03*
D13*
%TO.P,J2,2,Pin_2*%
%TO.N,DIGI_OUT_0*%
X114046000Y-62230000D03*
%TO.P,J2,3,Pin_3*%
%TO.N,DIGI_OUT_1*%
X116586000Y-62230000D03*
%TO.P,J2,4,Pin_4*%
%TO.N,ANG_OUT_0*%
X119126000Y-62230000D03*
%TD*%
D15*
%TO.P,R22,1*%
%TO.N,Net-(R16-Pad2)*%
X145542000Y-85598000D03*
%TO.P,R22,2*%
%TO.N,Net-(R22-Pad2)*%
X153162000Y-85598000D03*
%TD*%
%TO.P,R2,1*%
%TO.N,ANG_D5*%
X123698000Y-64008000D03*
%TO.P,R2,2*%
%TO.N,Net-(R11-Pad1)*%
X131318000Y-64008000D03*
%TD*%
%TO.P,R10,1*%
%TO.N,ANG_D0*%
X123698000Y-85598000D03*
%TO.P,R10,2*%
%TO.N,Net-(R10-Pad2)*%
X131318000Y-85598000D03*
%TD*%
D20*
%TO.P,C5,1*%
%TO.N,+5V*%
X98298000Y-62230000D03*
D15*
%TO.P,C5,2*%
%TO.N,GND*%
X98298000Y-64730000D03*
%TD*%
%TO.P,R1,1*%
%TO.N,+5V*%
X88900000Y-69850000D03*
%TO.P,R1,2*%
%TO.N,U1_RESET*%
X96520000Y-69850000D03*
%TD*%
%TO.P,C4,1*%
%TO.N,GND*%
X90700000Y-91700000D03*
%TO.P,C4,2*%
%TO.N,Net-(U1-PB6{slash}XTAL1)*%
X93200000Y-91700000D03*
%TD*%
D16*
%TO.P,D4,1,K*%
%TO.N,GND*%
X155900000Y-90660000D03*
D17*
%TO.P,D4,2,A*%
%TO.N,Net-(D4-A)*%
X155900000Y-93200000D03*
%TD*%
D15*
%TO.P,C3,1*%
%TO.N,GND*%
X90678000Y-96700000D03*
%TO.P,C3,2*%
%TO.N,Net-(U1-PB7{slash}XTAL2)*%
X93178000Y-96700000D03*
%TD*%
D12*
%TO.P,J1,1,Pin_1*%
%TO.N,+5V*%
X92202000Y-62230000D03*
D13*
%TO.P,J1,2,Pin_2*%
%TO.N,GND*%
X89662000Y-62230000D03*
%TD*%
D15*
%TO.P,R17,1*%
%TO.N,Net-(R12-Pad2)*%
X153162000Y-64008000D03*
%TO.P,R17,2*%
%TO.N,ANG_OUT_0*%
X145542000Y-64008000D03*
%TD*%
D16*
%TO.P,D2,1,K*%
%TO.N,GND*%
X144100000Y-90660000D03*
D17*
%TO.P,D2,2,A*%
%TO.N,Net-(D2-A)*%
X144100000Y-93200000D03*
%TD*%
D21*
%TO.N,ISP_SCK*%
X118882000Y-94244000D02*
X121900000Y-97262000D01*
X121900000Y-97262000D02*
X121900000Y-98820000D01*
X121900000Y-98820000D02*
X124800000Y-101720000D01*
%TO.N,ISP_MISO*%
X118882000Y-96784000D02*
X121200000Y-99102000D01*
X121200000Y-100730000D02*
X124730000Y-104260000D01*
X121200000Y-99102000D02*
X121200000Y-100730000D01*
X124730000Y-104260000D02*
X124800000Y-104260000D01*
%TO.N,ANG_D4*%
X118882000Y-73924000D02*
X120226000Y-73924000D01*
X120226000Y-73924000D02*
X121100000Y-73050000D01*
X121100000Y-73050000D02*
X121100000Y-68892000D01*
X121920000Y-68072000D02*
X123698000Y-68072000D01*
X121100000Y-68892000D02*
X121920000Y-68072000D01*
%TO.N,ANG_D3*%
X118882000Y-76464000D02*
X120336000Y-76464000D01*
X120336000Y-76464000D02*
X123444000Y-73356000D01*
X123444000Y-73356000D02*
X123444000Y-72898000D01*
%TO.N,U1_RESET*%
X113030000Y-77724000D02*
X116300000Y-80994000D01*
X102108000Y-69850000D02*
X107442000Y-69850000D01*
X117374000Y-90450000D02*
X119928000Y-90450000D01*
X116300000Y-89376000D02*
X117374000Y-90450000D01*
X119928000Y-90450000D02*
X121800000Y-92322000D01*
X109220000Y-77470000D02*
X109474000Y-77724000D01*
X111262000Y-71384000D02*
X109220000Y-73426000D01*
X121800000Y-95900000D02*
X124800000Y-98900000D01*
X96520000Y-69850000D02*
X102108000Y-69850000D01*
X121800000Y-92322000D02*
X121800000Y-95900000D01*
X109474000Y-77724000D02*
X113030000Y-77724000D01*
X116300000Y-80994000D02*
X116300000Y-89376000D01*
X107442000Y-69850000D02*
X108976000Y-71384000D01*
X108976000Y-71384000D02*
X111262000Y-71384000D01*
X124800000Y-98900000D02*
X124800000Y-99180000D01*
X109220000Y-73426000D02*
X109220000Y-77470000D01*
%TO.N,SW_MODE*%
X101802000Y-78958000D02*
X105882000Y-78958000D01*
X95302000Y-78958000D02*
X101802000Y-78958000D01*
X105918000Y-78994000D02*
X111252000Y-78994000D01*
%TO.N,Net-(U1-PB7{slash}XTAL2)*%
X93178000Y-96700000D02*
X100980000Y-96700000D01*
X101120000Y-96600000D02*
X106854000Y-96600000D01*
X106854000Y-96600000D02*
X109210000Y-94244000D01*
X100980000Y-96700000D02*
X101100000Y-96580000D01*
X101100000Y-96580000D02*
X101120000Y-96600000D01*
X109210000Y-94244000D02*
X111262000Y-94244000D01*
%TO.N,Net-(U1-PB6{slash}XTAL1)*%
X101100000Y-91700000D02*
X101106000Y-91694000D01*
X101106000Y-91694000D02*
X111252000Y-91694000D01*
X93200000Y-91700000D02*
X101100000Y-91700000D01*
%TO.N,Net-(D1-A)*%
X150000000Y-96695780D02*
X150000000Y-93139780D01*
%TO.N,Net-(D2-A)*%
X144100000Y-96756000D02*
X144100000Y-93200000D01*
%TO.N,Net-(D3-A)*%
X138100000Y-96708000D02*
X138148000Y-96756000D01*
X138100000Y-93200000D02*
X138100000Y-96708000D01*
%TO.N,ANG_OUT_0*%
X142240000Y-64008000D02*
X145542000Y-64008000D01*
X119126000Y-62230000D02*
X120142000Y-61214000D01*
X120142000Y-61214000D02*
X139446000Y-61214000D01*
X139446000Y-61214000D02*
X142240000Y-64008000D01*
%TO.N,DIGI_OUT_1*%
X111262000Y-76464000D02*
X113020000Y-76464000D01*
X113020000Y-76464000D02*
X116586000Y-72898000D01*
X116586000Y-72898000D02*
X116586000Y-62230000D01*
%TO.N,DIGI_OUT_0*%
X111262000Y-73924000D02*
X113274000Y-73924000D01*
X113274000Y-73924000D02*
X114046000Y-73152000D01*
X114046000Y-73152000D02*
X114046000Y-62230000D01*
%TO.N,ISP_MOSI*%
X125400000Y-106100000D02*
X126050000Y-105450000D01*
X122000000Y-106100000D02*
X125400000Y-106100000D01*
X126050000Y-95350000D02*
X124800000Y-94100000D01*
X118882000Y-99782000D02*
X120900000Y-101800000D01*
X120900000Y-101800000D02*
X120900000Y-105000000D01*
X120900000Y-105000000D02*
X122000000Y-106100000D01*
X118882000Y-99324000D02*
X118882000Y-99782000D01*
X126050000Y-105450000D02*
X126050000Y-95350000D01*
%TO.N,ANG_D5*%
X118872000Y-71374000D02*
X118872000Y-67310000D01*
X118872000Y-67310000D02*
X122174000Y-64008000D01*
X122174000Y-64008000D02*
X123698000Y-64008000D01*
%TO.N,STAT_LED_2*%
X150000000Y-104900000D02*
X150000000Y-104315780D01*
X112900000Y-100650000D02*
X112900000Y-108500000D01*
X144200000Y-110700000D02*
X150000000Y-104900000D01*
X111574000Y-99324000D02*
X112900000Y-100650000D01*
X112900000Y-108500000D02*
X115100000Y-110700000D01*
X115100000Y-110700000D02*
X144200000Y-110700000D01*
%TO.N,STAT_LED_1*%
X114150000Y-99672000D02*
X114150000Y-107850000D01*
X144100000Y-105076000D02*
X144100000Y-104376000D01*
X139476000Y-109700000D02*
X144100000Y-105076000D01*
X116000000Y-109700000D02*
X139476000Y-109700000D01*
X111262000Y-96784000D02*
X114150000Y-99672000D01*
X114150000Y-107850000D02*
X116000000Y-109700000D01*
%TO.N,STAT_LED_0*%
X138148000Y-105176000D02*
X138148000Y-104376000D01*
X115250000Y-95700000D02*
X115250000Y-107000000D01*
X113450000Y-88550000D02*
X113450000Y-93900000D01*
X134724000Y-108600000D02*
X138148000Y-105176000D01*
X109738000Y-84084000D02*
X109728000Y-84074000D01*
X111262000Y-84084000D02*
X109738000Y-84084000D01*
X115250000Y-107000000D02*
X116850000Y-108600000D01*
X112784000Y-87884000D02*
X113450000Y-88550000D01*
X113450000Y-93900000D02*
X115250000Y-95700000D01*
X109982000Y-87884000D02*
X112784000Y-87884000D01*
X109474000Y-87376000D02*
X109982000Y-87884000D01*
X109474000Y-84328000D02*
X109474000Y-87376000D01*
X109728000Y-84074000D02*
X109474000Y-84328000D01*
X116850000Y-108600000D02*
X134724000Y-108600000D01*
%TO.N,Net-(R13-Pad1)*%
X131318000Y-72898000D02*
X131302000Y-72898000D01*
X131302000Y-72898000D02*
X134620000Y-72898000D01*
%TO.N,ANG_D2*%
X121760000Y-78900000D02*
X123444000Y-77216000D01*
X118986000Y-78900000D02*
X121760000Y-78900000D01*
X118882000Y-79004000D02*
X118986000Y-78900000D01*
%TO.N,Net-(R14-Pad1)*%
X131318000Y-77216000D02*
X134620000Y-77216000D01*
%TO.N,ANG_D1*%
X118892000Y-81534000D02*
X123698000Y-81534000D01*
%TO.N,Net-(R15-Pad1)*%
X131318000Y-81534000D02*
X134620000Y-81534000D01*
%TO.N,ANG_D0*%
X122184000Y-84084000D02*
X123698000Y-85598000D01*
X118882000Y-84084000D02*
X122184000Y-84084000D01*
%TO.N,Net-(R12-Pad2)*%
X151638000Y-64008000D02*
X147574000Y-68072000D01*
X153162000Y-64008000D02*
X151638000Y-64008000D01*
X142240000Y-68072000D02*
X142272000Y-68072000D01*
X142300000Y-68100000D02*
X142328000Y-68072000D01*
X142272000Y-68072000D02*
X142300000Y-68100000D01*
X147574000Y-68072000D02*
X145542000Y-68072000D01*
X142328000Y-68072000D02*
X145542000Y-68072000D01*
%TO.N,Net-(R14-Pad2)*%
X147320000Y-77216000D02*
X145542000Y-77216000D01*
X153162000Y-72898000D02*
X151638000Y-72898000D01*
X151638000Y-72898000D02*
X147320000Y-77216000D01*
X142240000Y-77216000D02*
X145542000Y-77216000D01*
%TO.N,Net-(R15-Pad2)*%
X153162000Y-77216000D02*
X151384000Y-77216000D01*
X142240000Y-81534000D02*
X145542000Y-81534000D01*
X151384000Y-77216000D02*
X147066000Y-81534000D01*
X147066000Y-81534000D02*
X145542000Y-81534000D01*
%TO.N,Net-(R16-Pad2)*%
X150876000Y-81534000D02*
X146812000Y-85598000D01*
X153162000Y-81534000D02*
X150876000Y-81534000D01*
X142240000Y-85598000D02*
X145542000Y-85598000D01*
X146812000Y-85598000D02*
X145542000Y-85598000D01*
%TO.N,Net-(D4-A)*%
X155900000Y-96756000D02*
X155900000Y-93200000D01*
D22*
%TO.N,+5V*%
X118882000Y-91704000D02*
X116004000Y-91704000D01*
X132500000Y-107300000D02*
X134800000Y-105000000D01*
X92202000Y-62230000D02*
X92202000Y-65278000D01*
X88900000Y-82550000D02*
X90170000Y-83820000D01*
X106172000Y-83820000D02*
X108458000Y-83820000D01*
D21*
X109474000Y-82804000D02*
X113538000Y-82804000D01*
D22*
X113538000Y-82804000D02*
X114950000Y-84216000D01*
X116700000Y-105900000D02*
X118100000Y-107300000D01*
X92202000Y-62230000D02*
X98298000Y-62230000D01*
X116000000Y-91700000D02*
X114950000Y-90650000D01*
X88900000Y-68580000D02*
X88900000Y-69850000D01*
X127400000Y-89800000D02*
X127400000Y-94040000D01*
X111262000Y-86624000D02*
X114926000Y-86624000D01*
X134800000Y-94800000D02*
X134100000Y-94100000D01*
X92202000Y-65278000D02*
X88900000Y-68580000D01*
X88900000Y-69850000D02*
X88900000Y-82550000D01*
X116004000Y-91704000D02*
X116000000Y-91700000D01*
X118100000Y-107300000D02*
X132500000Y-107300000D01*
X114950000Y-86600000D02*
X114950000Y-90650000D01*
X134800000Y-105000000D02*
X134800000Y-94800000D01*
D23*
X127400000Y-94040000D02*
X127340000Y-94100000D01*
D22*
X134100000Y-94100000D02*
X127340000Y-94100000D01*
X116700000Y-92400000D02*
X116700000Y-105900000D01*
X114926000Y-86624000D02*
X114950000Y-86600000D01*
X116000000Y-91700000D02*
X116700000Y-92400000D01*
X90170000Y-83820000D02*
X106172000Y-83820000D01*
X108458000Y-83820000D02*
X109474000Y-82804000D01*
X114950000Y-84216000D02*
X114950000Y-86600000D01*
D21*
%TO.N,STAT_LED_3*%
X111500000Y-112000000D02*
X149500000Y-112000000D01*
X111262000Y-101864000D02*
X109474000Y-103652000D01*
X109474000Y-109974000D02*
X111500000Y-112000000D01*
X109474000Y-103652000D02*
X109474000Y-109974000D01*
X149500000Y-112000000D02*
X155900000Y-105600000D01*
X155900000Y-105600000D02*
X155900000Y-104376000D01*
%TO.N,Net-(R11-Pad1)*%
X131572000Y-64262000D02*
X134366000Y-64262000D01*
%TO.N,Net-(R12-Pad1)*%
X131318000Y-68072000D02*
X134620000Y-68072000D01*
%TO.N,Net-(R10-Pad2)*%
X131318000Y-85598000D02*
X134620000Y-85598000D01*
%TO.N,Net-(R13-Pad2)*%
X151638000Y-68072000D02*
X146812000Y-72898000D01*
X142657000Y-72900000D02*
X144943000Y-72900000D01*
X146812000Y-72898000D02*
X145542000Y-72898000D01*
X153162000Y-68072000D02*
X151638000Y-68072000D01*
%TO.N,Net-(R22-Pad2)*%
X153162000Y-85598000D02*
X156972000Y-85598000D01*
%TD*%
%TA.AperFunction,Conductor*%
%TO.N,GND*%
G36*
X133781038Y-94928502D02*
G01*
X133802012Y-94945404D01*
X133954595Y-95097986D01*
X133988620Y-95160298D01*
X133991500Y-95187082D01*
X133991500Y-104612918D01*
X133971498Y-104681039D01*
X133954595Y-104702013D01*
X132202013Y-106454595D01*
X132139701Y-106488621D01*
X132112918Y-106491500D01*
X126314662Y-106491500D01*
X126246541Y-106471498D01*
X126200048Y-106417842D01*
X126189944Y-106347568D01*
X126219438Y-106282988D01*
X126225566Y-106276405D01*
X126450329Y-106051641D01*
X126600328Y-105901642D01*
X126677865Y-105785601D01*
X126731273Y-105656661D01*
X126732145Y-105652280D01*
X126734730Y-105639281D01*
X126767631Y-105576374D01*
X126829323Y-105541237D01*
X126897246Y-105544025D01*
X127021998Y-105584560D01*
X127233126Y-105618000D01*
X127446874Y-105618000D01*
X127658003Y-105584559D01*
X127861286Y-105518509D01*
X127861292Y-105518506D01*
X128051750Y-105421463D01*
X128104167Y-105383378D01*
X128104167Y-105383377D01*
X127464947Y-104744158D01*
X127532993Y-104725925D01*
X127647007Y-104660099D01*
X127740099Y-104567007D01*
X127805925Y-104452993D01*
X127824157Y-104384948D01*
X128463376Y-105024167D01*
X128463378Y-105024167D01*
X128501463Y-104971750D01*
X128598506Y-104781292D01*
X128598509Y-104781286D01*
X128664559Y-104578003D01*
X128698000Y-104366873D01*
X128698000Y-104153126D01*
X128664559Y-103941996D01*
X128598509Y-103738713D01*
X128598506Y-103738707D01*
X128501464Y-103548251D01*
X128501463Y-103548249D01*
X128463378Y-103495831D01*
X127824157Y-104135051D01*
X127805925Y-104067007D01*
X127740099Y-103952993D01*
X127647007Y-103859901D01*
X127532993Y-103794075D01*
X127464947Y-103775841D01*
X128104168Y-103136621D01*
X128104167Y-103136620D01*
X128051749Y-103098535D01*
X128049950Y-103097433D01*
X128049409Y-103096835D01*
X128047742Y-103095624D01*
X128047996Y-103095273D01*
X128002318Y-103044786D01*
X127990711Y-102974745D01*
X128018814Y-102909547D01*
X128047788Y-102884442D01*
X128047741Y-102884377D01*
X128048498Y-102883826D01*
X128049958Y-102882562D01*
X128051750Y-102881463D01*
X128104167Y-102843378D01*
X128104167Y-102843377D01*
X127464947Y-102204158D01*
X127532993Y-102185925D01*
X127647007Y-102120099D01*
X127740099Y-102027007D01*
X127805925Y-101912993D01*
X127824157Y-101844948D01*
X128463376Y-102484167D01*
X128463378Y-102484167D01*
X128501463Y-102431750D01*
X128598506Y-102241292D01*
X128598509Y-102241286D01*
X128664559Y-102038003D01*
X128698000Y-101826873D01*
X128698000Y-101613126D01*
X128664559Y-101401996D01*
X128598509Y-101198713D01*
X128598506Y-101198707D01*
X128501464Y-101008251D01*
X128501463Y-101008249D01*
X128463378Y-100955831D01*
X127824157Y-101595051D01*
X127805925Y-101527007D01*
X127740099Y-101412993D01*
X127647007Y-101319901D01*
X127532993Y-101254075D01*
X127464947Y-101235841D01*
X128104168Y-100596621D01*
X128104167Y-100596620D01*
X128051750Y-100558536D01*
X128050428Y-100557726D01*
X128050030Y-100557286D01*
X128047742Y-100555624D01*
X128048091Y-100555143D01*
X128002797Y-100505078D01*
X127991191Y-100435036D01*
X128019295Y-100369839D01*
X128048075Y-100344903D01*
X128048004Y-100344804D01*
X128049158Y-100343965D01*
X128050441Y-100342854D01*
X128051992Y-100341902D01*
X128052009Y-100341894D01*
X128225004Y-100216206D01*
X128376206Y-100065004D01*
X128501894Y-99892009D01*
X128598972Y-99701483D01*
X128665049Y-99498116D01*
X128698500Y-99286916D01*
X128698500Y-99073084D01*
X128665049Y-98861884D01*
X128598972Y-98658517D01*
X128593734Y-98648236D01*
X128567508Y-98596765D01*
X128567507Y-98596764D01*
X128562829Y-98587583D01*
X128501894Y-98467991D01*
X128376206Y-98294996D01*
X128376203Y-98294993D01*
X128376201Y-98294990D01*
X128225009Y-98143798D01*
X128225006Y-98143796D01*
X128225004Y-98143794D01*
X128052009Y-98018106D01*
X128052007Y-98018105D01*
X128050920Y-98017439D01*
X128050591Y-98017075D01*
X128048004Y-98015196D01*
X128048398Y-98014652D01*
X128003283Y-97964796D01*
X127991670Y-97894756D01*
X128019766Y-97829555D01*
X128048130Y-97804978D01*
X128048004Y-97804804D01*
X128050030Y-97803331D01*
X128050920Y-97802561D01*
X128051997Y-97801899D01*
X128052009Y-97801894D01*
X128225004Y-97676206D01*
X128376206Y-97525004D01*
X128469162Y-97397061D01*
X130892000Y-97397061D01*
X130892000Y-97602938D01*
X130924208Y-97806296D01*
X130987826Y-98002093D01*
X130987829Y-98002099D01*
X131081297Y-98185540D01*
X131081298Y-98185541D01*
X131112416Y-98228372D01*
X131800000Y-97540788D01*
X131800000Y-97552661D01*
X131827259Y-97654394D01*
X131879920Y-97745606D01*
X131954394Y-97820080D01*
X132045606Y-97872741D01*
X132147339Y-97900000D01*
X132159210Y-97900000D01*
X131471626Y-98587582D01*
X131471626Y-98587583D01*
X131514454Y-98618699D01*
X131697900Y-98712170D01*
X131697906Y-98712173D01*
X131893705Y-98775791D01*
X131893701Y-98775791D01*
X132097061Y-98808000D01*
X132302939Y-98808000D01*
X132506296Y-98775791D01*
X132702093Y-98712173D01*
X132702099Y-98712170D01*
X132885541Y-98618701D01*
X132928372Y-98587582D01*
X132928372Y-98587581D01*
X132240791Y-97900000D01*
X132252661Y-97900000D01*
X132354394Y-97872741D01*
X132445606Y-97820080D01*
X132520080Y-97745606D01*
X132572741Y-97654394D01*
X132600000Y-97552661D01*
X132600000Y-97540791D01*
X133287581Y-98228372D01*
X133287582Y-98228372D01*
X133318701Y-98185541D01*
X133412170Y-98002099D01*
X133412173Y-98002093D01*
X133475791Y-97806296D01*
X133508000Y-97602938D01*
X133508000Y-97397061D01*
X133475791Y-97193703D01*
X133412173Y-96997906D01*
X133412170Y-96997900D01*
X133318699Y-96814454D01*
X133287583Y-96771626D01*
X133287582Y-96771626D01*
X132600000Y-97459208D01*
X132600000Y-97447339D01*
X132572741Y-97345606D01*
X132520080Y-97254394D01*
X132445606Y-97179920D01*
X132354394Y-97127259D01*
X132252661Y-97100000D01*
X132240790Y-97100000D01*
X132928372Y-96412416D01*
X132885541Y-96381298D01*
X132885540Y-96381297D01*
X132702099Y-96287829D01*
X132702093Y-96287826D01*
X132506294Y-96224208D01*
X132506298Y-96224208D01*
X132302939Y-96192000D01*
X132097061Y-96192000D01*
X131893703Y-96224208D01*
X131697906Y-96287826D01*
X131697900Y-96287829D01*
X131514452Y-96381301D01*
X131471625Y-96412416D01*
X132159209Y-97100000D01*
X132147339Y-97100000D01*
X132045606Y-97127259D01*
X131954394Y-97179920D01*
X131879920Y-97254394D01*
X131827259Y-97345606D01*
X131800000Y-97447339D01*
X131800000Y-97459209D01*
X131112416Y-96771625D01*
X131081301Y-96814452D01*
X130987829Y-96997900D01*
X130987826Y-96997906D01*
X130924208Y-97193703D01*
X130892000Y-97397061D01*
X128469162Y-97397061D01*
X128501894Y-97352009D01*
X128598972Y-97161483D01*
X128665049Y-96958116D01*
X128698500Y-96746916D01*
X128698500Y-96533084D01*
X128665049Y-96321884D01*
X128598972Y-96118517D01*
X128501894Y-95927991D01*
X128376206Y-95754996D01*
X128376203Y-95754993D01*
X128376201Y-95754990D01*
X128225009Y-95603798D01*
X128225006Y-95603796D01*
X128225004Y-95603794D01*
X128065392Y-95487829D01*
X128052012Y-95478108D01*
X128050920Y-95477439D01*
X128050591Y-95477075D01*
X128048004Y-95475196D01*
X128048398Y-95474652D01*
X128003283Y-95424796D01*
X127991670Y-95354756D01*
X128019766Y-95289555D01*
X128048130Y-95264978D01*
X128048004Y-95264804D01*
X128050030Y-95263331D01*
X128050920Y-95262561D01*
X128051997Y-95261899D01*
X128052009Y-95261894D01*
X128225004Y-95136206D01*
X128376206Y-94985004D01*
X128394053Y-94960438D01*
X128450274Y-94917085D01*
X128495989Y-94908500D01*
X133712917Y-94908500D01*
X133781038Y-94928502D01*
G37*
%TD.AperFunction*%
%TA.AperFunction,Conductor*%
G36*
X112349582Y-89892372D02*
G01*
X112380701Y-89849541D01*
X112474170Y-89666099D01*
X112474173Y-89666093D01*
X112495667Y-89599942D01*
X112535740Y-89541336D01*
X112601137Y-89513699D01*
X112671094Y-89525806D01*
X112723400Y-89573812D01*
X112741500Y-89638878D01*
X112741500Y-91227507D01*
X112721498Y-91295628D01*
X112667842Y-91342121D01*
X112597568Y-91352225D01*
X112532988Y-91322731D01*
X112495667Y-91266444D01*
X112474634Y-91201710D01*
X112381129Y-91018197D01*
X112260068Y-90851570D01*
X112260065Y-90851567D01*
X112260063Y-90851564D01*
X112114435Y-90705936D01*
X112114432Y-90705934D01*
X112114430Y-90705932D01*
X111947803Y-90584871D01*
X111871486Y-90545985D01*
X111819873Y-90497239D01*
X111802807Y-90428324D01*
X111825708Y-90361122D01*
X111871488Y-90321453D01*
X111947541Y-90282701D01*
X111990372Y-90251582D01*
X111990372Y-90251581D01*
X111302791Y-89564000D01*
X111314661Y-89564000D01*
X111416394Y-89536741D01*
X111507606Y-89484080D01*
X111582080Y-89409606D01*
X111634741Y-89318394D01*
X111662000Y-89216661D01*
X111662000Y-89204789D01*
X112349582Y-89892372D01*
G37*
%TD.AperFunction*%
%TA.AperFunction,Conductor*%
G36*
X159697621Y-59466502D02*
G01*
X159744114Y-59520158D01*
X159755500Y-59572500D01*
X159755500Y-113655500D01*
X159735498Y-113723621D01*
X159681842Y-113770114D01*
X159629500Y-113781500D01*
X86242500Y-113781500D01*
X86174379Y-113761498D01*
X86127886Y-113707842D01*
X86116500Y-113655500D01*
X86116500Y-109567836D01*
X88785926Y-109567836D01*
X98158073Y-109567836D01*
X98158073Y-105729747D01*
X88785926Y-105729747D01*
X88785926Y-109567836D01*
X86116500Y-109567836D01*
X86116500Y-69747019D01*
X87591500Y-69747019D01*
X87591500Y-69952981D01*
X87623720Y-70156408D01*
X87687366Y-70352290D01*
X87780871Y-70535803D01*
X87901932Y-70702430D01*
X87901934Y-70702432D01*
X87901936Y-70702435D01*
X88051070Y-70851569D01*
X88050268Y-70852370D01*
X88086136Y-70907301D01*
X88091500Y-70943674D01*
X88091500Y-82629632D01*
X88105671Y-82700873D01*
X88122570Y-82785831D01*
X88150186Y-82852500D01*
X88183516Y-82932968D01*
X88271997Y-83065389D01*
X89654611Y-84448003D01*
X89787032Y-84536484D01*
X89860600Y-84566956D01*
X89860602Y-84566957D01*
X89934164Y-84597428D01*
X89934169Y-84597430D01*
X90090370Y-84628500D01*
X105078326Y-84628500D01*
X105146447Y-84648502D01*
X105170160Y-84669200D01*
X105170431Y-84668930D01*
X105319564Y-84818063D01*
X105319567Y-84818065D01*
X105319570Y-84818068D01*
X105486197Y-84939129D01*
X105523261Y-84958014D01*
X105574875Y-85006761D01*
X105591941Y-85075676D01*
X105569040Y-85142878D01*
X105523261Y-85182546D01*
X105486455Y-85201299D01*
X105486453Y-85201301D01*
X105443625Y-85232416D01*
X106131209Y-85920000D01*
X106119339Y-85920000D01*
X106017606Y-85947259D01*
X105926394Y-85999920D01*
X105851920Y-86074394D01*
X105799259Y-86165606D01*
X105772000Y-86267339D01*
X105772000Y-86279209D01*
X105084416Y-85591625D01*
X105053301Y-85634452D01*
X104959829Y-85817900D01*
X104959826Y-85817906D01*
X104896208Y-86013703D01*
X104864000Y-86217061D01*
X104864000Y-86422938D01*
X104896208Y-86626296D01*
X104959826Y-86822093D01*
X104959829Y-86822099D01*
X105053297Y-87005540D01*
X105053298Y-87005541D01*
X105084416Y-87048372D01*
X105772000Y-86360788D01*
X105772000Y-86372661D01*
X105799259Y-86474394D01*
X105851920Y-86565606D01*
X105926394Y-86640080D01*
X106017606Y-86692741D01*
X106119339Y-86720000D01*
X106131210Y-86720000D01*
X105443626Y-87407582D01*
X105443626Y-87407583D01*
X105486454Y-87438699D01*
X105669900Y-87532170D01*
X105669906Y-87532173D01*
X105865705Y-87595791D01*
X105865701Y-87595791D01*
X106069061Y-87628000D01*
X106274939Y-87628000D01*
X106478296Y-87595791D01*
X106674093Y-87532173D01*
X106674099Y-87532170D01*
X106857541Y-87438701D01*
X106900372Y-87407582D01*
X106900372Y-87407581D01*
X106212791Y-86720000D01*
X106224661Y-86720000D01*
X106326394Y-86692741D01*
X106417606Y-86640080D01*
X106492080Y-86565606D01*
X106544741Y-86474394D01*
X106572000Y-86372661D01*
X106572000Y-86360791D01*
X107259581Y-87048372D01*
X107259582Y-87048372D01*
X107290701Y-87005541D01*
X107384170Y-86822099D01*
X107384173Y-86822093D01*
X107447791Y-86626296D01*
X107480000Y-86422938D01*
X107480000Y-86217061D01*
X107447791Y-86013703D01*
X107384173Y-85817906D01*
X107384170Y-85817900D01*
X107290699Y-85634454D01*
X107259583Y-85591626D01*
X107259582Y-85591626D01*
X106572000Y-86279208D01*
X106572000Y-86267339D01*
X106544741Y-86165606D01*
X106492080Y-86074394D01*
X106417606Y-85999920D01*
X106326394Y-85947259D01*
X106224661Y-85920000D01*
X106212790Y-85920000D01*
X106900372Y-85232416D01*
X106857541Y-85201298D01*
X106857539Y-85201297D01*
X106820738Y-85182545D01*
X106769124Y-85133796D01*
X106752059Y-85064881D01*
X106774961Y-84997679D01*
X106820737Y-84958014D01*
X106857803Y-84939129D01*
X107024430Y-84818068D01*
X107096934Y-84745564D01*
X107173569Y-84668930D01*
X107174370Y-84669731D01*
X107229301Y-84633864D01*
X107265674Y-84628500D01*
X108537629Y-84628500D01*
X108537630Y-84628500D01*
X108614920Y-84613126D01*
X108685632Y-84619454D01*
X108741699Y-84663008D01*
X108765319Y-84729960D01*
X108765500Y-84736705D01*
X108765500Y-87445784D01*
X108792727Y-87582661D01*
X108792729Y-87582666D01*
X108846135Y-87711601D01*
X108919314Y-87821122D01*
X108923672Y-87827643D01*
X109530357Y-88434327D01*
X109646399Y-88511865D01*
X109699807Y-88533986D01*
X109775338Y-88565273D01*
X109888721Y-88587826D01*
X109918291Y-88593708D01*
X109918022Y-88595056D01*
X109977353Y-88619012D01*
X110018364Y-88676965D01*
X110021533Y-88747891D01*
X110019006Y-88756760D01*
X109986209Y-88857700D01*
X109986208Y-88857701D01*
X109954000Y-89061061D01*
X109954000Y-89266938D01*
X109986208Y-89470296D01*
X110049826Y-89666093D01*
X110049829Y-89666099D01*
X110143297Y-89849540D01*
X110143298Y-89849541D01*
X110174416Y-89892372D01*
X110174417Y-89892372D01*
X110862000Y-89204789D01*
X110862000Y-89216661D01*
X110889259Y-89318394D01*
X110941920Y-89409606D01*
X111016394Y-89484080D01*
X111107606Y-89536741D01*
X111209339Y-89564000D01*
X111221210Y-89564000D01*
X110533626Y-90251582D01*
X110533626Y-90251583D01*
X110576454Y-90282699D01*
X110652511Y-90321453D01*
X110704126Y-90370202D01*
X110721192Y-90439117D01*
X110698291Y-90506318D01*
X110652511Y-90545987D01*
X110576193Y-90584872D01*
X110409567Y-90705934D01*
X110409564Y-90705936D01*
X110263932Y-90851568D01*
X110204363Y-90933560D01*
X110148140Y-90976915D01*
X110102426Y-90985500D01*
X102200677Y-90985500D01*
X102132556Y-90965498D01*
X102098741Y-90933561D01*
X102093662Y-90926570D01*
X102059930Y-90880142D01*
X102059927Y-90880139D01*
X102059925Y-90880136D01*
X101919860Y-90740071D01*
X101759601Y-90623636D01*
X101759600Y-90623635D01*
X101759598Y-90623634D01*
X101583097Y-90533702D01*
X101394700Y-90472488D01*
X101199046Y-90441500D01*
X101000954Y-90441500D01*
X100805300Y-90472488D01*
X100805297Y-90472488D01*
X100805296Y-90472489D01*
X100616903Y-90533702D01*
X100616901Y-90533703D01*
X100440398Y-90623636D01*
X100280139Y-90740071D01*
X100140075Y-90880135D01*
X100140070Y-90880142D01*
X100096897Y-90939562D01*
X100040676Y-90982915D01*
X99994963Y-90991500D01*
X94366839Y-90991500D01*
X94298718Y-90971498D01*
X94264903Y-90939561D01*
X94256980Y-90928656D01*
X94198068Y-90847570D01*
X94198065Y-90847567D01*
X94198063Y-90847564D01*
X94052435Y-90701936D01*
X94052432Y-90701934D01*
X94052430Y-90701932D01*
X93923655Y-90608372D01*
X93885806Y-90580873D01*
X93885805Y-90580872D01*
X93885803Y-90580871D01*
X93702290Y-90487366D01*
X93702287Y-90487365D01*
X93702285Y-90487364D01*
X93506412Y-90423721D01*
X93506410Y-90423720D01*
X93506408Y-90423720D01*
X93302981Y-90391500D01*
X93097019Y-90391500D01*
X92893592Y-90423720D01*
X92893590Y-90423720D01*
X92893587Y-90423721D01*
X92697714Y-90487364D01*
X92697708Y-90487367D01*
X92514193Y-90580873D01*
X92347567Y-90701934D01*
X92347564Y-90701936D01*
X92201937Y-90847564D01*
X92201934Y-90847567D01*
X92201932Y-90847570D01*
X92172862Y-90887582D01*
X92080871Y-91014196D01*
X92061986Y-91051260D01*
X92013238Y-91102875D01*
X91944323Y-91119940D01*
X91877121Y-91097039D01*
X91837454Y-91051260D01*
X91818701Y-91014457D01*
X91787583Y-90971626D01*
X91787582Y-90971626D01*
X91100000Y-91659208D01*
X91100000Y-91647339D01*
X91072741Y-91545606D01*
X91020080Y-91454394D01*
X90945606Y-91379920D01*
X90854394Y-91327259D01*
X90752661Y-91300000D01*
X90740790Y-91300000D01*
X91428372Y-90612416D01*
X91385541Y-90581298D01*
X91385540Y-90581297D01*
X91202099Y-90487829D01*
X91202093Y-90487826D01*
X91006294Y-90424208D01*
X91006298Y-90424208D01*
X90802939Y-90392000D01*
X90597061Y-90392000D01*
X90393703Y-90424208D01*
X90197906Y-90487826D01*
X90197900Y-90487829D01*
X90014452Y-90581301D01*
X89971625Y-90612416D01*
X90659209Y-91300000D01*
X90647339Y-91300000D01*
X90545606Y-91327259D01*
X90454394Y-91379920D01*
X90379920Y-91454394D01*
X90327259Y-91545606D01*
X90300000Y-91647339D01*
X90300000Y-91659209D01*
X89612416Y-90971625D01*
X89581301Y-91014452D01*
X89487829Y-91197900D01*
X89487826Y-91197906D01*
X89424208Y-91393703D01*
X89392000Y-91597061D01*
X89392000Y-91802938D01*
X89424208Y-92006296D01*
X89487826Y-92202093D01*
X89487829Y-92202099D01*
X89581297Y-92385540D01*
X89581298Y-92385541D01*
X89612416Y-92428372D01*
X90300000Y-91740788D01*
X90300000Y-91752661D01*
X90327259Y-91854394D01*
X90379920Y-91945606D01*
X90454394Y-92020080D01*
X90545606Y-92072741D01*
X90647339Y-92100000D01*
X90659210Y-92100000D01*
X89971626Y-92787582D01*
X89971626Y-92787583D01*
X90014454Y-92818699D01*
X90197900Y-92912170D01*
X90197906Y-92912173D01*
X90393705Y-92975791D01*
X90393701Y-92975791D01*
X90597061Y-93008000D01*
X90802939Y-93008000D01*
X91006296Y-92975791D01*
X91202093Y-92912173D01*
X91202099Y-92912170D01*
X91385541Y-92818701D01*
X91428372Y-92787582D01*
X91428372Y-92787581D01*
X90740791Y-92100000D01*
X90752661Y-92100000D01*
X90854394Y-92072741D01*
X90945606Y-92020080D01*
X91020080Y-91945606D01*
X91072741Y-91854394D01*
X91100000Y-91752661D01*
X91100000Y-91740791D01*
X91787581Y-92428372D01*
X91787582Y-92428372D01*
X91818701Y-92385541D01*
X91837453Y-92348740D01*
X91886201Y-92297125D01*
X91955116Y-92280059D01*
X92022318Y-92302960D01*
X92061985Y-92348738D01*
X92080871Y-92385803D01*
X92201932Y-92552430D01*
X92201934Y-92552432D01*
X92201936Y-92552435D01*
X92347564Y-92698063D01*
X92347567Y-92698065D01*
X92347570Y-92698068D01*
X92514197Y-92819129D01*
X92697710Y-92912634D01*
X92893592Y-92976280D01*
X93097019Y-93008500D01*
X93097022Y-93008500D01*
X93302978Y-93008500D01*
X93302981Y-93008500D01*
X93506408Y-92976280D01*
X93702290Y-92912634D01*
X93885803Y-92819129D01*
X94052430Y-92698068D01*
X94198068Y-92552430D01*
X94264903Y-92460438D01*
X94321125Y-92417085D01*
X94366839Y-92408500D01*
X99994963Y-92408500D01*
X100063084Y-92428502D01*
X100096897Y-92460436D01*
X100140070Y-92519858D01*
X100140072Y-92519860D01*
X100140075Y-92519864D01*
X100280139Y-92659928D01*
X100280142Y-92659930D01*
X100440402Y-92776366D01*
X100616903Y-92866298D01*
X100805300Y-92927512D01*
X101000954Y-92958500D01*
X101000957Y-92958500D01*
X101199043Y-92958500D01*
X101199046Y-92958500D01*
X101394700Y-92927512D01*
X101583097Y-92866298D01*
X101759598Y-92776366D01*
X101919858Y-92659930D01*
X102059930Y-92519858D01*
X102107460Y-92454439D01*
X102163683Y-92411085D01*
X102209396Y-92402500D01*
X110087896Y-92402500D01*
X110156017Y-92422502D01*
X110189830Y-92454437D01*
X110263932Y-92556430D01*
X110263934Y-92556432D01*
X110263936Y-92556435D01*
X110409564Y-92702063D01*
X110409567Y-92702065D01*
X110409570Y-92702068D01*
X110576197Y-92823129D01*
X110651962Y-92861733D01*
X110703577Y-92910482D01*
X110720643Y-92979397D01*
X110697742Y-93046598D01*
X110651963Y-93086266D01*
X110583033Y-93121387D01*
X110576193Y-93124873D01*
X110409567Y-93245934D01*
X110409564Y-93245936D01*
X110263936Y-93391564D01*
X110263934Y-93391567D01*
X110263932Y-93391570D01*
X110207234Y-93469609D01*
X110197097Y-93483561D01*
X110140875Y-93526915D01*
X110095161Y-93535500D01*
X109140212Y-93535500D01*
X109071779Y-93549112D01*
X109071778Y-93549113D01*
X109026151Y-93558189D01*
X109003337Y-93562727D01*
X109003334Y-93562728D01*
X108965572Y-93578368D01*
X108965572Y-93578369D01*
X108941757Y-93588233D01*
X108874401Y-93616133D01*
X108874400Y-93616134D01*
X108758357Y-93693671D01*
X108758351Y-93693676D01*
X106597434Y-95854595D01*
X106535122Y-95888620D01*
X106508339Y-95891500D01*
X102219567Y-95891500D01*
X102151446Y-95871498D01*
X102117631Y-95839561D01*
X102078670Y-95785936D01*
X102059930Y-95760142D01*
X102059927Y-95760139D01*
X102059925Y-95760136D01*
X101919860Y-95620071D01*
X101759601Y-95503636D01*
X101759600Y-95503635D01*
X101759598Y-95503634D01*
X101583097Y-95413702D01*
X101394700Y-95352488D01*
X101199046Y-95321500D01*
X101000954Y-95321500D01*
X100805300Y-95352488D01*
X100805297Y-95352488D01*
X100805296Y-95352489D01*
X100616903Y-95413702D01*
X100616901Y-95413703D01*
X100440398Y-95503636D01*
X100280139Y-95620071D01*
X100140071Y-95760139D01*
X100023634Y-95920401D01*
X100022461Y-95922704D01*
X100021783Y-95923421D01*
X100021049Y-95924620D01*
X100020797Y-95924465D01*
X99973713Y-95974319D01*
X99910195Y-95991500D01*
X94344839Y-95991500D01*
X94276718Y-95971498D01*
X94242903Y-95939561D01*
X94228983Y-95920402D01*
X94176068Y-95847570D01*
X94176065Y-95847567D01*
X94176063Y-95847564D01*
X94030435Y-95701936D01*
X94030432Y-95701934D01*
X94030430Y-95701932D01*
X93899118Y-95606529D01*
X93863806Y-95580873D01*
X93863805Y-95580872D01*
X93863803Y-95580871D01*
X93680290Y-95487366D01*
X93680287Y-95487365D01*
X93680285Y-95487364D01*
X93484412Y-95423721D01*
X93484410Y-95423720D01*
X93484408Y-95423720D01*
X93280981Y-95391500D01*
X93075019Y-95391500D01*
X92871592Y-95423720D01*
X92871590Y-95423720D01*
X92871587Y-95423721D01*
X92675714Y-95487364D01*
X92675708Y-95487367D01*
X92492193Y-95580873D01*
X92325567Y-95701934D01*
X92325564Y-95701936D01*
X92179936Y-95847564D01*
X92179934Y-95847567D01*
X92058872Y-96014195D01*
X92039986Y-96051260D01*
X91991238Y-96102875D01*
X91922323Y-96119940D01*
X91855121Y-96097039D01*
X91815454Y-96051260D01*
X91796701Y-96014457D01*
X91765583Y-95971626D01*
X91765582Y-95971626D01*
X91078000Y-96659208D01*
X91078000Y-96647339D01*
X91050741Y-96545606D01*
X90998080Y-96454394D01*
X90923606Y-96379920D01*
X90832394Y-96327259D01*
X90730661Y-96300000D01*
X90718790Y-96300000D01*
X91406372Y-95612416D01*
X91363541Y-95581298D01*
X91363540Y-95581297D01*
X91180099Y-95487829D01*
X91180093Y-95487826D01*
X90984294Y-95424208D01*
X90984298Y-95424208D01*
X90780939Y-95392000D01*
X90575061Y-95392000D01*
X90371703Y-95424208D01*
X90175906Y-95487826D01*
X90175900Y-95487829D01*
X89992452Y-95581301D01*
X89949625Y-95612416D01*
X90637209Y-96300000D01*
X90625339Y-96300000D01*
X90523606Y-96327259D01*
X90432394Y-96379920D01*
X90357920Y-96454394D01*
X90305259Y-96545606D01*
X90278000Y-96647339D01*
X90278000Y-96659209D01*
X89590416Y-95971625D01*
X89559301Y-96014452D01*
X89465829Y-96197900D01*
X89465829Y-96197901D01*
X89402208Y-96393703D01*
X89370000Y-96597061D01*
X89370000Y-96802938D01*
X89402208Y-97006296D01*
X89465826Y-97202093D01*
X89465829Y-97202099D01*
X89559297Y-97385540D01*
X89559298Y-97385541D01*
X89590416Y-97428372D01*
X90278000Y-96740788D01*
X90278000Y-96752661D01*
X90305259Y-96854394D01*
X90357920Y-96945606D01*
X90432394Y-97020080D01*
X90523606Y-97072741D01*
X90625339Y-97100000D01*
X90637210Y-97100000D01*
X89949626Y-97787582D01*
X89949626Y-97787583D01*
X89992454Y-97818699D01*
X90175900Y-97912170D01*
X90175906Y-97912173D01*
X90371705Y-97975791D01*
X90371701Y-97975791D01*
X90575061Y-98008000D01*
X90780939Y-98008000D01*
X90984296Y-97975791D01*
X91180093Y-97912173D01*
X91180099Y-97912170D01*
X91363541Y-97818701D01*
X91406372Y-97787582D01*
X91406372Y-97787581D01*
X90718791Y-97100000D01*
X90730661Y-97100000D01*
X90832394Y-97072741D01*
X90923606Y-97020080D01*
X90998080Y-96945606D01*
X91050741Y-96854394D01*
X91078000Y-96752661D01*
X91078000Y-96740791D01*
X91765581Y-97428372D01*
X91765582Y-97428372D01*
X91796701Y-97385541D01*
X91815453Y-97348740D01*
X91864201Y-97297125D01*
X91933116Y-97280059D01*
X92000318Y-97302960D01*
X92039985Y-97348738D01*
X92056721Y-97381583D01*
X92058873Y-97385806D01*
X92069237Y-97400071D01*
X92179932Y-97552430D01*
X92179934Y-97552432D01*
X92179936Y-97552435D01*
X92325564Y-97698063D01*
X92325567Y-97698065D01*
X92325570Y-97698068D01*
X92492197Y-97819129D01*
X92675710Y-97912634D01*
X92871592Y-97976280D01*
X93075019Y-98008500D01*
X93075022Y-98008500D01*
X93280978Y-98008500D01*
X93280981Y-98008500D01*
X93484408Y-97976280D01*
X93680290Y-97912634D01*
X93863803Y-97819129D01*
X94030430Y-97698068D01*
X94176068Y-97552430D01*
X94242903Y-97460438D01*
X94299125Y-97417085D01*
X94344839Y-97408500D01*
X100096522Y-97408500D01*
X100164643Y-97428502D01*
X100185612Y-97445400D01*
X100280142Y-97539930D01*
X100440402Y-97656366D01*
X100616903Y-97746298D01*
X100805300Y-97807512D01*
X101000954Y-97838500D01*
X101000957Y-97838500D01*
X101199043Y-97838500D01*
X101199046Y-97838500D01*
X101394700Y-97807512D01*
X101583097Y-97746298D01*
X101759598Y-97656366D01*
X101919858Y-97539930D01*
X102059930Y-97399858D01*
X102068589Y-97387940D01*
X102088571Y-97360438D01*
X102144793Y-97317085D01*
X102190506Y-97308500D01*
X106923777Y-97308500D01*
X106923782Y-97308500D01*
X106992221Y-97294886D01*
X107060662Y-97281273D01*
X107098427Y-97265630D01*
X107189601Y-97227865D01*
X107305643Y-97150328D01*
X109466566Y-94989405D01*
X109528878Y-94955380D01*
X109555661Y-94952500D01*
X110095161Y-94952500D01*
X110163282Y-94972502D01*
X110197096Y-95004438D01*
X110263932Y-95096430D01*
X110263934Y-95096432D01*
X110263936Y-95096435D01*
X110409564Y-95242063D01*
X110409567Y-95242065D01*
X110409570Y-95242068D01*
X110576197Y-95363129D01*
X110651962Y-95401733D01*
X110703577Y-95450482D01*
X110720643Y-95519397D01*
X110697742Y-95586598D01*
X110651963Y-95626266D01*
X110598787Y-95653361D01*
X110576193Y-95664873D01*
X110409567Y-95785934D01*
X110409564Y-95785936D01*
X110263936Y-95931564D01*
X110263934Y-95931567D01*
X110142873Y-96098193D01*
X110049367Y-96281708D01*
X110049364Y-96281714D01*
X109985721Y-96477587D01*
X109985720Y-96477590D01*
X109985720Y-96477592D01*
X109953500Y-96681019D01*
X109953500Y-96886981D01*
X109982922Y-97072741D01*
X109985721Y-97090412D01*
X110040268Y-97258291D01*
X110049366Y-97286290D01*
X110142871Y-97469803D01*
X110263932Y-97636430D01*
X110263934Y-97636432D01*
X110263936Y-97636435D01*
X110409564Y-97782063D01*
X110409567Y-97782065D01*
X110409570Y-97782068D01*
X110576197Y-97903129D01*
X110651962Y-97941733D01*
X110703577Y-97990482D01*
X110720643Y-98059397D01*
X110697742Y-98126598D01*
X110651963Y-98166266D01*
X110614136Y-98185540D01*
X110576193Y-98204873D01*
X110409567Y-98325934D01*
X110409564Y-98325936D01*
X110263936Y-98471564D01*
X110263934Y-98471567D01*
X110142873Y-98638193D01*
X110049367Y-98821708D01*
X110049364Y-98821714D01*
X109985721Y-99017587D01*
X109985720Y-99017590D01*
X109985720Y-99017592D01*
X109953500Y-99221019D01*
X109953500Y-99426981D01*
X109964767Y-99498116D01*
X109985721Y-99630412D01*
X110008813Y-99701483D01*
X110049366Y-99826290D01*
X110142871Y-100009803D01*
X110263932Y-100176430D01*
X110263934Y-100176432D01*
X110263936Y-100176435D01*
X110409564Y-100322063D01*
X110409567Y-100322065D01*
X110409570Y-100322068D01*
X110576197Y-100443129D01*
X110651962Y-100481733D01*
X110703577Y-100530482D01*
X110720643Y-100599397D01*
X110697742Y-100666598D01*
X110651963Y-100706266D01*
X110583033Y-100741387D01*
X110576193Y-100744873D01*
X110409567Y-100865934D01*
X110409564Y-100865936D01*
X110263936Y-101011564D01*
X110263934Y-101011567D01*
X110142873Y-101178193D01*
X110049367Y-101361708D01*
X110049364Y-101361714D01*
X109985721Y-101557587D01*
X109985720Y-101557590D01*
X109985720Y-101557592D01*
X109953500Y-101761019D01*
X109953500Y-101966981D01*
X109964749Y-102038003D01*
X109971288Y-102079288D01*
X109962188Y-102149700D01*
X109935934Y-102188094D01*
X108923676Y-103200351D01*
X108923671Y-103200357D01*
X108846135Y-103316398D01*
X108809049Y-103405934D01*
X108792727Y-103445339D01*
X108771598Y-103551567D01*
X108766198Y-103578713D01*
X108766195Y-103578728D01*
X108765500Y-103582219D01*
X108765500Y-110043784D01*
X108792727Y-110180661D01*
X108792729Y-110180666D01*
X108846135Y-110309601D01*
X108923671Y-110425642D01*
X108923676Y-110425648D01*
X109574434Y-111076405D01*
X111048358Y-112550328D01*
X111164400Y-112627865D01*
X111239930Y-112659150D01*
X111239931Y-112659150D01*
X111239932Y-112659151D01*
X111293333Y-112681271D01*
X111293338Y-112681273D01*
X111430219Y-112708500D01*
X111430220Y-112708500D01*
X149569777Y-112708500D01*
X149569782Y-112708500D01*
X149638221Y-112694886D01*
X149706662Y-112681273D01*
X149744427Y-112665630D01*
X149835601Y-112627865D01*
X149951643Y-112550328D01*
X156450328Y-106051642D01*
X156527865Y-105935601D01*
X156575595Y-105820370D01*
X156581273Y-105806662D01*
X156608500Y-105669781D01*
X156608500Y-105542839D01*
X156628502Y-105474718D01*
X156660440Y-105440902D01*
X156713898Y-105402063D01*
X156752430Y-105374068D01*
X156898068Y-105228430D01*
X157019129Y-105061803D01*
X157112634Y-104878290D01*
X157176280Y-104682408D01*
X157208500Y-104478981D01*
X157208500Y-104273019D01*
X157176280Y-104069592D01*
X157112634Y-103873710D01*
X157019129Y-103690197D01*
X156898068Y-103523570D01*
X156898065Y-103523567D01*
X156898063Y-103523564D01*
X156752435Y-103377936D01*
X156752432Y-103377934D01*
X156752430Y-103377932D01*
X156585803Y-103256871D01*
X156402290Y-103163366D01*
X156402287Y-103163365D01*
X156402285Y-103163364D01*
X156206412Y-103099721D01*
X156206410Y-103099720D01*
X156206408Y-103099720D01*
X156002981Y-103067500D01*
X155797019Y-103067500D01*
X155593592Y-103099720D01*
X155593590Y-103099720D01*
X155593587Y-103099721D01*
X155397714Y-103163364D01*
X155397708Y-103163367D01*
X155214193Y-103256873D01*
X155047567Y-103377934D01*
X155047564Y-103377936D01*
X154901936Y-103523564D01*
X154901934Y-103523567D01*
X154780873Y-103690193D01*
X154687367Y-103873708D01*
X154687364Y-103873714D01*
X154623721Y-104069587D01*
X154623720Y-104069590D01*
X154623720Y-104069592D01*
X154591500Y-104273019D01*
X154591500Y-104478981D01*
X154623720Y-104682408D01*
X154623721Y-104682412D01*
X154667799Y-104818071D01*
X154687366Y-104878290D01*
X154780871Y-105061803D01*
X154780873Y-105061806D01*
X154810675Y-105102825D01*
X154901932Y-105228430D01*
X154901934Y-105228432D01*
X154901936Y-105228435D01*
X154996670Y-105323169D01*
X155030696Y-105385481D01*
X155025631Y-105456296D01*
X154996670Y-105501359D01*
X149243434Y-111254595D01*
X149181122Y-111288621D01*
X149154339Y-111291500D01*
X144914662Y-111291500D01*
X144846541Y-111271498D01*
X144800048Y-111217842D01*
X144789944Y-111147568D01*
X144819438Y-111082988D01*
X144825567Y-111076405D01*
X149563252Y-106338717D01*
X150290206Y-105611762D01*
X150340362Y-105581027D01*
X150502290Y-105528414D01*
X150685803Y-105434909D01*
X150852430Y-105313848D01*
X150998068Y-105168210D01*
X151119129Y-105001583D01*
X151212634Y-104818070D01*
X151276280Y-104622188D01*
X151308500Y-104418761D01*
X151308500Y-104212799D01*
X151276280Y-104009372D01*
X151212634Y-103813490D01*
X151119129Y-103629977D01*
X150998068Y-103463350D01*
X150998065Y-103463347D01*
X150998063Y-103463344D01*
X150852435Y-103317716D01*
X150852432Y-103317714D01*
X150852430Y-103317712D01*
X150685803Y-103196651D01*
X150502290Y-103103146D01*
X150502287Y-103103145D01*
X150502285Y-103103144D01*
X150306412Y-103039501D01*
X150306410Y-103039500D01*
X150306408Y-103039500D01*
X150102981Y-103007280D01*
X149897019Y-103007280D01*
X149693592Y-103039500D01*
X149693590Y-103039500D01*
X149693587Y-103039501D01*
X149497714Y-103103144D01*
X149497708Y-103103147D01*
X149314193Y-103196653D01*
X149147567Y-103317714D01*
X149147564Y-103317716D01*
X149001936Y-103463344D01*
X149001934Y-103463347D01*
X148880873Y-103629973D01*
X148787367Y-103813488D01*
X148787364Y-103813494D01*
X148723721Y-104009367D01*
X148723720Y-104009370D01*
X148723720Y-104009372D01*
X148691500Y-104212799D01*
X148691500Y-104418761D01*
X148722252Y-104612918D01*
X148723721Y-104622192D01*
X148775476Y-104781478D01*
X148787366Y-104818070D01*
X148832317Y-104906290D01*
X148844568Y-104930334D01*
X148857672Y-105000111D01*
X148830972Y-105065896D01*
X148821396Y-105076632D01*
X143943434Y-109954595D01*
X143881122Y-109988621D01*
X143854339Y-109991500D01*
X140490661Y-109991500D01*
X140422540Y-109971498D01*
X140376047Y-109917842D01*
X140365943Y-109847568D01*
X140395437Y-109782988D01*
X140401566Y-109776405D01*
X140769258Y-109408712D01*
X144562453Y-105615515D01*
X144598245Y-105591603D01*
X144597878Y-105590882D01*
X144602290Y-105588634D01*
X144785803Y-105495129D01*
X144952430Y-105374068D01*
X145098068Y-105228430D01*
X145219129Y-105061803D01*
X145312634Y-104878290D01*
X145376280Y-104682408D01*
X145408500Y-104478981D01*
X145408500Y-104273019D01*
X145376280Y-104069592D01*
X145312634Y-103873710D01*
X145219129Y-103690197D01*
X145098068Y-103523570D01*
X145098065Y-103523567D01*
X145098063Y-103523564D01*
X144952435Y-103377936D01*
X144952432Y-103377934D01*
X144952430Y-103377932D01*
X144785803Y-103256871D01*
X144602290Y-103163366D01*
X144602287Y-103163365D01*
X144602285Y-103163364D01*
X144406412Y-103099721D01*
X144406410Y-103099720D01*
X144406408Y-103099720D01*
X144202981Y-103067500D01*
X143997019Y-103067500D01*
X143793592Y-103099720D01*
X143793590Y-103099720D01*
X143793587Y-103099721D01*
X143597714Y-103163364D01*
X143597708Y-103163367D01*
X143414193Y-103256873D01*
X143247567Y-103377934D01*
X143247564Y-103377936D01*
X143101936Y-103523564D01*
X143101934Y-103523567D01*
X142980873Y-103690193D01*
X142887367Y-103873708D01*
X142887364Y-103873714D01*
X142823721Y-104069587D01*
X142823720Y-104069590D01*
X142823720Y-104069592D01*
X142791500Y-104273019D01*
X142791500Y-104478981D01*
X142823720Y-104682408D01*
X142823721Y-104682412D01*
X142867799Y-104818071D01*
X142887366Y-104878290D01*
X142980871Y-105061803D01*
X142983119Y-105066214D01*
X142981219Y-105067181D01*
X142997419Y-105127113D01*
X142975949Y-105194785D01*
X142960543Y-105213485D01*
X139219434Y-108954595D01*
X139157122Y-108988621D01*
X139130339Y-108991500D01*
X135638661Y-108991500D01*
X135570540Y-108971498D01*
X135524047Y-108917842D01*
X135513943Y-108847568D01*
X135543437Y-108782988D01*
X135549566Y-108776405D01*
X138698321Y-105627650D01*
X138698328Y-105627643D01*
X138744380Y-105558720D01*
X138791939Y-105516458D01*
X138833803Y-105495129D01*
X139000430Y-105374068D01*
X139146068Y-105228430D01*
X139267129Y-105061803D01*
X139360634Y-104878290D01*
X139424280Y-104682408D01*
X139456500Y-104478981D01*
X139456500Y-104273019D01*
X139424280Y-104069592D01*
X139360634Y-103873710D01*
X139267129Y-103690197D01*
X139146068Y-103523570D01*
X139146065Y-103523567D01*
X139146063Y-103523564D01*
X139000435Y-103377936D01*
X139000432Y-103377934D01*
X139000430Y-103377932D01*
X138833803Y-103256871D01*
X138650290Y-103163366D01*
X138650287Y-103163365D01*
X138650285Y-103163364D01*
X138454412Y-103099721D01*
X138454410Y-103099720D01*
X138454408Y-103099720D01*
X138250981Y-103067500D01*
X138045019Y-103067500D01*
X137841592Y-103099720D01*
X137841590Y-103099720D01*
X137841587Y-103099721D01*
X137645714Y-103163364D01*
X137645708Y-103163367D01*
X137462193Y-103256873D01*
X137295567Y-103377934D01*
X137295564Y-103377936D01*
X137149936Y-103523564D01*
X137149934Y-103523567D01*
X137028873Y-103690193D01*
X136935367Y-103873708D01*
X136935364Y-103873714D01*
X136871721Y-104069587D01*
X136871720Y-104069590D01*
X136871720Y-104069592D01*
X136839500Y-104273019D01*
X136839500Y-104478981D01*
X136871720Y-104682408D01*
X136871721Y-104682412D01*
X136915799Y-104818071D01*
X136935366Y-104878290D01*
X136993862Y-104993094D01*
X137028872Y-105061805D01*
X137062973Y-105108741D01*
X137086831Y-105175609D01*
X137070750Y-105244760D01*
X137050131Y-105271896D01*
X134467434Y-107854595D01*
X134405122Y-107888620D01*
X134378339Y-107891500D01*
X133356082Y-107891500D01*
X133287961Y-107871498D01*
X133241468Y-107817842D01*
X133231364Y-107747568D01*
X133260858Y-107682988D01*
X133266987Y-107676405D01*
X134337310Y-106606082D01*
X135428003Y-105515389D01*
X135516484Y-105382968D01*
X135546956Y-105309399D01*
X135577430Y-105235831D01*
X135608500Y-105079630D01*
X135608500Y-94720370D01*
X135577430Y-94564169D01*
X135516483Y-94417032D01*
X135516483Y-94417031D01*
X135467977Y-94344437D01*
X135428003Y-94284611D01*
X135428002Y-94284610D01*
X135427999Y-94284606D01*
X135311005Y-94167612D01*
X135310982Y-94167591D01*
X134615388Y-93471996D01*
X134547252Y-93426469D01*
X134482968Y-93383516D01*
X134401260Y-93349672D01*
X134401257Y-93349670D01*
X134335837Y-93322572D01*
X134335834Y-93322571D01*
X134335831Y-93322570D01*
X134257730Y-93307035D01*
X134179632Y-93291500D01*
X134179630Y-93291500D01*
X128495989Y-93291500D01*
X128462708Y-93281727D01*
X128429303Y-93272406D01*
X128428540Y-93271695D01*
X128427868Y-93271498D01*
X128401885Y-93249288D01*
X128397730Y-93244621D01*
X128376206Y-93214996D01*
X128331923Y-93170713D01*
X128331915Y-93170704D01*
X128250360Y-93089149D01*
X136691500Y-93089149D01*
X136691500Y-93310851D01*
X136716644Y-93469604D01*
X136726183Y-93529829D01*
X136794690Y-93740671D01*
X136794692Y-93740676D01*
X136864661Y-93877998D01*
X136895345Y-93938218D01*
X137025658Y-94117578D01*
X137182418Y-94274338D01*
X137182421Y-94274340D01*
X137182424Y-94274343D01*
X137334058Y-94384512D01*
X137339561Y-94388510D01*
X137382915Y-94444732D01*
X137391500Y-94490446D01*
X137391500Y-95624034D01*
X137371498Y-95692155D01*
X137339562Y-95725969D01*
X137295570Y-95757931D01*
X137295564Y-95757936D01*
X137149936Y-95903564D01*
X137149934Y-95903567D01*
X137028873Y-96070193D01*
X136935367Y-96253708D01*
X136935364Y-96253714D01*
X136871721Y-96449587D01*
X136871720Y-96449590D01*
X136871720Y-96449592D01*
X136839500Y-96653019D01*
X136839500Y-96858981D01*
X136871720Y-97062408D01*
X136871721Y-97062412D01*
X136925480Y-97227866D01*
X136935366Y-97258290D01*
X137028871Y-97441803D01*
X137149932Y-97608430D01*
X137149934Y-97608432D01*
X137149936Y-97608435D01*
X137295564Y-97754063D01*
X137295567Y-97754065D01*
X137295570Y-97754068D01*
X137462197Y-97875129D01*
X137645710Y-97968634D01*
X137841592Y-98032280D01*
X138045019Y-98064500D01*
X138045022Y-98064500D01*
X138250978Y-98064500D01*
X138250981Y-98064500D01*
X138454408Y-98032280D01*
X138650290Y-97968634D01*
X138833803Y-97875129D01*
X139000430Y-97754068D01*
X139146068Y-97608430D01*
X139267129Y-97441803D01*
X139360634Y-97258290D01*
X139424280Y-97062408D01*
X139456500Y-96858981D01*
X139456500Y-96653019D01*
X139424280Y-96449592D01*
X139360634Y-96253710D01*
X139267129Y-96070197D01*
X139146068Y-95903570D01*
X139146065Y-95903567D01*
X139146063Y-95903564D01*
X139000432Y-95757933D01*
X138860439Y-95656222D01*
X138817085Y-95599999D01*
X138808500Y-95554286D01*
X138808500Y-94490446D01*
X138828502Y-94422325D01*
X138860439Y-94388510D01*
X138865942Y-94384512D01*
X139017576Y-94274343D01*
X139174343Y-94117576D01*
X139304657Y-93938215D01*
X139405308Y-93740676D01*
X139473818Y-93529824D01*
X139508500Y-93310851D01*
X139508500Y-93089149D01*
X142691500Y-93089149D01*
X142691500Y-93310851D01*
X142716644Y-93469604D01*
X142726183Y-93529829D01*
X142794690Y-93740671D01*
X142794692Y-93740676D01*
X142864661Y-93877998D01*
X142895345Y-93938218D01*
X143025658Y-94117578D01*
X143182418Y-94274338D01*
X143182421Y-94274340D01*
X143182424Y-94274343D01*
X143334058Y-94384512D01*
X143339561Y-94388510D01*
X143382915Y-94444732D01*
X143391500Y-94490446D01*
X143391500Y-95589160D01*
X143371498Y-95657281D01*
X143339562Y-95691096D01*
X143247563Y-95757937D01*
X143101936Y-95903564D01*
X143101934Y-95903567D01*
X142980873Y-96070193D01*
X142887367Y-96253708D01*
X142887364Y-96253714D01*
X142823721Y-96449587D01*
X142823720Y-96449590D01*
X142823720Y-96449592D01*
X142791500Y-96653019D01*
X142791500Y-96858981D01*
X142823720Y-97062408D01*
X142823721Y-97062412D01*
X142877480Y-97227866D01*
X142887366Y-97258290D01*
X142980871Y-97441803D01*
X143101932Y-97608430D01*
X143101934Y-97608432D01*
X143101936Y-97608435D01*
X143247564Y-97754063D01*
X143247567Y-97754065D01*
X143247570Y-97754068D01*
X143414197Y-97875129D01*
X143597710Y-97968634D01*
X143793592Y-98032280D01*
X143997019Y-98064500D01*
X143997022Y-98064500D01*
X144202978Y-98064500D01*
X144202981Y-98064500D01*
X144406408Y-98032280D01*
X144602290Y-97968634D01*
X144785803Y-97875129D01*
X144952430Y-97754068D01*
X145098068Y-97608430D01*
X145219129Y-97441803D01*
X145312634Y-97258290D01*
X145376280Y-97062408D01*
X145408500Y-96858981D01*
X145408500Y-96653019D01*
X145376280Y-96449592D01*
X145312634Y-96253710D01*
X145219129Y-96070197D01*
X145098068Y-95903570D01*
X145098065Y-95903567D01*
X145098063Y-95903564D01*
X144952436Y-95757937D01*
X144952432Y-95757934D01*
X144952430Y-95757932D01*
X144869476Y-95697662D01*
X144860438Y-95691096D01*
X144817085Y-95634873D01*
X144808500Y-95589160D01*
X144808500Y-94490446D01*
X144828502Y-94422325D01*
X144860439Y-94388510D01*
X144865942Y-94384512D01*
X145017576Y-94274343D01*
X145174343Y-94117576D01*
X145304657Y-93938215D01*
X145405308Y-93740676D01*
X145473818Y-93529824D01*
X145508500Y-93310851D01*
X145508500Y-93089149D01*
X145498962Y-93028929D01*
X148591500Y-93028929D01*
X148591500Y-93250631D01*
X148613256Y-93387991D01*
X148626183Y-93469609D01*
X148694690Y-93680451D01*
X148694692Y-93680456D01*
X148739047Y-93767507D01*
X148795345Y-93877998D01*
X148925658Y-94057358D01*
X149082418Y-94214118D01*
X149082421Y-94214120D01*
X149082424Y-94214123D01*
X149239561Y-94328290D01*
X149282915Y-94384512D01*
X149291500Y-94430226D01*
X149291500Y-95528940D01*
X149271498Y-95597061D01*
X149239562Y-95630876D01*
X149147563Y-95697717D01*
X149001936Y-95843344D01*
X149001934Y-95843347D01*
X148880873Y-96009973D01*
X148787367Y-96193488D01*
X148787364Y-96193494D01*
X148723721Y-96389367D01*
X148723720Y-96389370D01*
X148723720Y-96389372D01*
X148691500Y-96592799D01*
X148691500Y-96798761D01*
X148723041Y-96997900D01*
X148723721Y-97002192D01*
X148781468Y-97179920D01*
X148787366Y-97198070D01*
X148857087Y-97334904D01*
X148880872Y-97381585D01*
X148924623Y-97441803D01*
X149001932Y-97548210D01*
X149001934Y-97548212D01*
X149001936Y-97548215D01*
X149147564Y-97693843D01*
X149147567Y-97693845D01*
X149147570Y-97693848D01*
X149314197Y-97814909D01*
X149497710Y-97908414D01*
X149693592Y-97972060D01*
X149897019Y-98004280D01*
X149897022Y-98004280D01*
X150102978Y-98004280D01*
X150102981Y-98004280D01*
X150306408Y-97972060D01*
X150502290Y-97908414D01*
X150685803Y-97814909D01*
X150852430Y-97693848D01*
X150998068Y-97548210D01*
X151107884Y-97397061D01*
X151119128Y-97381585D01*
X151142913Y-97334904D01*
X151212634Y-97198070D01*
X151276280Y-97002188D01*
X151308500Y-96798761D01*
X151308500Y-96592799D01*
X151276280Y-96389372D01*
X151212634Y-96193490D01*
X151119129Y-96009977D01*
X150998068Y-95843350D01*
X150998065Y-95843347D01*
X150998063Y-95843344D01*
X150852436Y-95697717D01*
X150852432Y-95697714D01*
X150852430Y-95697712D01*
X150760438Y-95630876D01*
X150717085Y-95574653D01*
X150708500Y-95528940D01*
X150708500Y-94430226D01*
X150728502Y-94362105D01*
X150760439Y-94328290D01*
X150917576Y-94214123D01*
X151074343Y-94057356D01*
X151204657Y-93877995D01*
X151305308Y-93680456D01*
X151373818Y-93469604D01*
X151408500Y-93250631D01*
X151408500Y-93089149D01*
X154491500Y-93089149D01*
X154491500Y-93310851D01*
X154516644Y-93469604D01*
X154526183Y-93529829D01*
X154594690Y-93740671D01*
X154594692Y-93740676D01*
X154664661Y-93877998D01*
X154695345Y-93938218D01*
X154825658Y-94117578D01*
X154982418Y-94274338D01*
X154982421Y-94274340D01*
X154982424Y-94274343D01*
X155134058Y-94384512D01*
X155139561Y-94388510D01*
X155182915Y-94444732D01*
X155191500Y-94490446D01*
X155191500Y-95589160D01*
X155171498Y-95657281D01*
X155139562Y-95691096D01*
X155047563Y-95757937D01*
X154901936Y-95903564D01*
X154901934Y-95903567D01*
X154780873Y-96070193D01*
X154687367Y-96253708D01*
X154687364Y-96253714D01*
X154623721Y-96449587D01*
X154623720Y-96449590D01*
X154623720Y-96449592D01*
X154591500Y-96653019D01*
X154591500Y-96858981D01*
X154623720Y-97062408D01*
X154623721Y-97062412D01*
X154677480Y-97227866D01*
X154687366Y-97258290D01*
X154780871Y-97441803D01*
X154901932Y-97608430D01*
X154901934Y-97608432D01*
X154901936Y-97608435D01*
X155047564Y-97754063D01*
X155047567Y-97754065D01*
X155047570Y-97754068D01*
X155214197Y-97875129D01*
X155397710Y-97968634D01*
X155593592Y-98032280D01*
X155797019Y-98064500D01*
X155797022Y-98064500D01*
X156002978Y-98064500D01*
X156002981Y-98064500D01*
X156206408Y-98032280D01*
X156402290Y-97968634D01*
X156585803Y-97875129D01*
X156752430Y-97754068D01*
X156898068Y-97608430D01*
X157019129Y-97441803D01*
X157112634Y-97258290D01*
X157176280Y-97062408D01*
X157208500Y-96858981D01*
X157208500Y-96653019D01*
X157176280Y-96449592D01*
X157112634Y-96253710D01*
X157019129Y-96070197D01*
X156898068Y-95903570D01*
X156898065Y-95903567D01*
X156898063Y-95903564D01*
X156752436Y-95757937D01*
X156752432Y-95757934D01*
X156752430Y-95757932D01*
X156669476Y-95697662D01*
X156660438Y-95691096D01*
X156617085Y-95634873D01*
X156608500Y-95589160D01*
X156608500Y-94490446D01*
X156628502Y-94422325D01*
X156660439Y-94388510D01*
X156665942Y-94384512D01*
X156817576Y-94274343D01*
X156974343Y-94117576D01*
X157104657Y-93938215D01*
X157205308Y-93740676D01*
X157273818Y-93529824D01*
X157308500Y-93310851D01*
X157308500Y-93089149D01*
X157273818Y-92870176D01*
X157205308Y-92659324D01*
X157104657Y-92461785D01*
X156974343Y-92282424D01*
X156974341Y-92282421D01*
X156934341Y-92242421D01*
X156900315Y-92180109D01*
X156905380Y-92109294D01*
X156947927Y-92052458D01*
X156979404Y-92035270D01*
X157045965Y-92010444D01*
X157162904Y-91922904D01*
X157250444Y-91805965D01*
X157250444Y-91805964D01*
X157301494Y-91669093D01*
X157307999Y-91608597D01*
X157308000Y-91608585D01*
X157308000Y-90914000D01*
X156272968Y-90914000D01*
X156319333Y-90833694D01*
X156350000Y-90719244D01*
X156350000Y-90600756D01*
X156319333Y-90486306D01*
X156272968Y-90406000D01*
X157308000Y-90406000D01*
X157308000Y-89711414D01*
X157307999Y-89711402D01*
X157301494Y-89650906D01*
X157250444Y-89514035D01*
X157250444Y-89514034D01*
X157162904Y-89397095D01*
X157045965Y-89309555D01*
X156909093Y-89258505D01*
X156848597Y-89252000D01*
X156154000Y-89252000D01*
X156154000Y-90287031D01*
X156073694Y-90240667D01*
X155959244Y-90210000D01*
X155840756Y-90210000D01*
X155726306Y-90240667D01*
X155646000Y-90287031D01*
X155646000Y-89252000D01*
X154951402Y-89252000D01*
X154890906Y-89258505D01*
X154754035Y-89309555D01*
X154754034Y-89309555D01*
X154637095Y-89397095D01*
X154549555Y-89514034D01*
X154549555Y-89514035D01*
X154498505Y-89650906D01*
X154492000Y-89711402D01*
X154492000Y-90406000D01*
X155527032Y-90406000D01*
X155480667Y-90486306D01*
X155450000Y-90600756D01*
X155450000Y-90719244D01*
X155480667Y-90833694D01*
X155527032Y-90914000D01*
X154492000Y-90914000D01*
X154492000Y-91608597D01*
X154498505Y-91669093D01*
X154549555Y-91805964D01*
X154549555Y-91805965D01*
X154637095Y-91922904D01*
X154754033Y-92010443D01*
X154820596Y-92035270D01*
X154877431Y-92077817D01*
X154902242Y-92144337D01*
X154887151Y-92213711D01*
X154865659Y-92242420D01*
X154825658Y-92282421D01*
X154695345Y-92461781D01*
X154594693Y-92659322D01*
X154594690Y-92659328D01*
X154526183Y-92870170D01*
X154526182Y-92870175D01*
X154526182Y-92870176D01*
X154491500Y-93089149D01*
X151408500Y-93089149D01*
X151408500Y-93028929D01*
X151373818Y-92809956D01*
X151305308Y-92599104D01*
X151204657Y-92401565D01*
X151118096Y-92282424D01*
X151074341Y-92222201D01*
X151034341Y-92182201D01*
X151000315Y-92119889D01*
X151005380Y-92049074D01*
X151047927Y-91992238D01*
X151079404Y-91975050D01*
X151145965Y-91950224D01*
X151262904Y-91862684D01*
X151350444Y-91745745D01*
X151350444Y-91745744D01*
X151401494Y-91608873D01*
X151407999Y-91548377D01*
X151408000Y-91548365D01*
X151408000Y-90853780D01*
X150372968Y-90853780D01*
X150419333Y-90773474D01*
X150450000Y-90659024D01*
X150450000Y-90540536D01*
X150419333Y-90426086D01*
X150372968Y-90345780D01*
X151408000Y-90345780D01*
X151408000Y-89651194D01*
X151407999Y-89651182D01*
X151401494Y-89590686D01*
X151350444Y-89453815D01*
X151350444Y-89453814D01*
X151262904Y-89336875D01*
X151145965Y-89249335D01*
X151009093Y-89198285D01*
X150948597Y-89191780D01*
X150254000Y-89191780D01*
X150254000Y-90226811D01*
X150173694Y-90180447D01*
X150059244Y-90149780D01*
X149940756Y-90149780D01*
X149826306Y-90180447D01*
X149746000Y-90226811D01*
X149746000Y-89191780D01*
X149051402Y-89191780D01*
X148990906Y-89198285D01*
X148854035Y-89249335D01*
X148854034Y-89249335D01*
X148737095Y-89336875D01*
X148649555Y-89453814D01*
X148649555Y-89453815D01*
X148598505Y-89590686D01*
X148592000Y-89651182D01*
X148592000Y-90345780D01*
X149627032Y-90345780D01*
X149580667Y-90426086D01*
X149550000Y-90540536D01*
X149550000Y-90659024D01*
X149580667Y-90773474D01*
X149627032Y-90853780D01*
X148592000Y-90853780D01*
X148592000Y-91548377D01*
X148598505Y-91608873D01*
X148649555Y-91745744D01*
X148649555Y-91745745D01*
X148737095Y-91862684D01*
X148854033Y-91950223D01*
X148920596Y-91975050D01*
X148977431Y-92017597D01*
X149002242Y-92084117D01*
X148987151Y-92153491D01*
X148965659Y-92182200D01*
X148925658Y-92222201D01*
X148795345Y-92401561D01*
X148694693Y-92599102D01*
X148694690Y-92599108D01*
X148626183Y-92809950D01*
X148626182Y-92809955D01*
X148626182Y-92809956D01*
X148591500Y-93028929D01*
X145498962Y-93028929D01*
X145473818Y-92870176D01*
X145405308Y-92659324D01*
X145304657Y-92461785D01*
X145174343Y-92282424D01*
X145174341Y-92282421D01*
X145134341Y-92242421D01*
X145100315Y-92180109D01*
X145105380Y-92109294D01*
X145147927Y-92052458D01*
X145179404Y-92035270D01*
X145245965Y-92010444D01*
X145362904Y-91922904D01*
X145450444Y-91805965D01*
X145450444Y-91805964D01*
X145501494Y-91669093D01*
X145507999Y-91608597D01*
X145508000Y-91608585D01*
X145508000Y-90914000D01*
X144472968Y-90914000D01*
X144519333Y-90833694D01*
X144550000Y-90719244D01*
X144550000Y-90600756D01*
X144519333Y-90486306D01*
X144472968Y-90406000D01*
X145508000Y-90406000D01*
X145508000Y-89711414D01*
X145507999Y-89711399D01*
X145502611Y-89661284D01*
X145501494Y-89650905D01*
X145450444Y-89514035D01*
X145450444Y-89514034D01*
X145362904Y-89397095D01*
X145245965Y-89309555D01*
X145109093Y-89258505D01*
X145048597Y-89252000D01*
X144354000Y-89252000D01*
X144354000Y-90287031D01*
X144273694Y-90240667D01*
X144159244Y-90210000D01*
X144040756Y-90210000D01*
X143926306Y-90240667D01*
X143846000Y-90287031D01*
X143846000Y-89252000D01*
X143151402Y-89252000D01*
X143090906Y-89258505D01*
X142954035Y-89309555D01*
X142954034Y-89309555D01*
X142837095Y-89397095D01*
X142749555Y-89514034D01*
X142749555Y-89514035D01*
X142698505Y-89650906D01*
X142692000Y-89711402D01*
X142692000Y-90406000D01*
X143727032Y-90406000D01*
X143680667Y-90486306D01*
X143650000Y-90600756D01*
X143650000Y-90719244D01*
X143680667Y-90833694D01*
X143727032Y-90914000D01*
X142692000Y-90914000D01*
X142692000Y-91608597D01*
X142698505Y-91669093D01*
X142749555Y-91805964D01*
X142749555Y-91805965D01*
X142837095Y-91922904D01*
X142954033Y-92010443D01*
X143020596Y-92035270D01*
X143077431Y-92077817D01*
X143102242Y-92144337D01*
X143087151Y-92213711D01*
X143065659Y-92242420D01*
X143025658Y-92282421D01*
X142895345Y-92461781D01*
X142794693Y-92659322D01*
X142794690Y-92659328D01*
X142726183Y-92870170D01*
X142726182Y-92870175D01*
X142726182Y-92870176D01*
X142691500Y-93089149D01*
X139508500Y-93089149D01*
X139473818Y-92870176D01*
X139405308Y-92659324D01*
X139304657Y-92461785D01*
X139174343Y-92282424D01*
X139174341Y-92282421D01*
X139134341Y-92242421D01*
X139100315Y-92180109D01*
X139105380Y-92109294D01*
X139147927Y-92052458D01*
X139179404Y-92035270D01*
X139245965Y-92010444D01*
X139362904Y-91922904D01*
X139450444Y-91805965D01*
X139450444Y-91805964D01*
X139501494Y-91669093D01*
X139507999Y-91608597D01*
X139508000Y-91608585D01*
X139508000Y-90914000D01*
X138472968Y-90914000D01*
X138519333Y-90833694D01*
X138550000Y-90719244D01*
X138550000Y-90600756D01*
X138519333Y-90486306D01*
X138472968Y-90406000D01*
X139508000Y-90406000D01*
X139508000Y-89711414D01*
X139507999Y-89711402D01*
X139501494Y-89650906D01*
X139450444Y-89514035D01*
X139450444Y-89514034D01*
X139362904Y-89397095D01*
X139245965Y-89309555D01*
X139109093Y-89258505D01*
X139048597Y-89252000D01*
X138354000Y-89252000D01*
X138354000Y-90287031D01*
X138273694Y-90240667D01*
X138159244Y-90210000D01*
X138040756Y-90210000D01*
X137926306Y-90240667D01*
X137846000Y-90287031D01*
X137846000Y-89252000D01*
X137151402Y-89252000D01*
X137090906Y-89258505D01*
X136954035Y-89309555D01*
X136954034Y-89309555D01*
X136837095Y-89397095D01*
X136749555Y-89514034D01*
X136749555Y-89514035D01*
X136698505Y-89650906D01*
X136692000Y-89711402D01*
X136692000Y-90406000D01*
X137727032Y-90406000D01*
X137680667Y-90486306D01*
X137650000Y-90600756D01*
X137650000Y-90719244D01*
X137680667Y-90833694D01*
X137727032Y-90914000D01*
X136692000Y-90914000D01*
X136692000Y-91608597D01*
X136698505Y-91669093D01*
X136749555Y-91805964D01*
X136749555Y-91805965D01*
X136837095Y-91922904D01*
X136954033Y-92010443D01*
X137020596Y-92035270D01*
X137077431Y-92077817D01*
X137102242Y-92144337D01*
X137087151Y-92213711D01*
X137065659Y-92242420D01*
X137025658Y-92282421D01*
X136895345Y-92461781D01*
X136794693Y-92659322D01*
X136794690Y-92659328D01*
X136726183Y-92870170D01*
X136726182Y-92870175D01*
X136726182Y-92870176D01*
X136691500Y-93089149D01*
X128250360Y-93089149D01*
X128245405Y-93084194D01*
X128211379Y-93021882D01*
X128208500Y-92995099D01*
X128208500Y-90893674D01*
X128228502Y-90825553D01*
X128249200Y-90801839D01*
X128248930Y-90801569D01*
X128398063Y-90652435D01*
X128398068Y-90652430D01*
X128519129Y-90485803D01*
X128612634Y-90302290D01*
X128676280Y-90106408D01*
X128708500Y-89902981D01*
X128708500Y-89777061D01*
X130892000Y-89777061D01*
X130892000Y-89982938D01*
X130924208Y-90186296D01*
X130987826Y-90382093D01*
X130987829Y-90382099D01*
X131081297Y-90565540D01*
X131081298Y-90565541D01*
X131112416Y-90608372D01*
X131800000Y-89920788D01*
X131800000Y-89932661D01*
X131827259Y-90034394D01*
X131879920Y-90125606D01*
X131954394Y-90200080D01*
X132045606Y-90252741D01*
X132147339Y-90280000D01*
X132159210Y-90280000D01*
X131471626Y-90967582D01*
X131471626Y-90967583D01*
X131514454Y-90998699D01*
X131697900Y-91092170D01*
X131697906Y-91092173D01*
X131893705Y-91155791D01*
X131893701Y-91155791D01*
X132097061Y-91188000D01*
X132302939Y-91188000D01*
X132506296Y-91155791D01*
X132702093Y-91092173D01*
X132702099Y-91092170D01*
X132885541Y-90998701D01*
X132928372Y-90967582D01*
X132928372Y-90967581D01*
X132240791Y-90280000D01*
X132252661Y-90280000D01*
X132354394Y-90252741D01*
X132445606Y-90200080D01*
X132520080Y-90125606D01*
X132572741Y-90034394D01*
X132600000Y-89932661D01*
X132600000Y-89920791D01*
X133287581Y-90608372D01*
X133287582Y-90608372D01*
X133318701Y-90565541D01*
X133412170Y-90382099D01*
X133412173Y-90382093D01*
X133475791Y-90186296D01*
X133508000Y-89982938D01*
X133508000Y-89777061D01*
X133500189Y-89727746D01*
X133500189Y-89727745D01*
X133475791Y-89573704D01*
X133412173Y-89377906D01*
X133412170Y-89377900D01*
X133318699Y-89194454D01*
X133287583Y-89151626D01*
X133287582Y-89151626D01*
X132600000Y-89839208D01*
X132600000Y-89827339D01*
X132572741Y-89725606D01*
X132520080Y-89634394D01*
X132445606Y-89559920D01*
X132354394Y-89507259D01*
X132252661Y-89480000D01*
X132240790Y-89480000D01*
X132928372Y-88792416D01*
X132885541Y-88761298D01*
X132885540Y-88761297D01*
X132702099Y-88667829D01*
X132702093Y-88667826D01*
X132506294Y-88604208D01*
X132506298Y-88604208D01*
X132302939Y-88572000D01*
X132097061Y-88572000D01*
X131893703Y-88604208D01*
X131697906Y-88667826D01*
X131697900Y-88667829D01*
X131514452Y-88761301D01*
X131471625Y-88792416D01*
X132159209Y-89480000D01*
X132147339Y-89480000D01*
X132045606Y-89507259D01*
X131954394Y-89559920D01*
X131879920Y-89634394D01*
X131827259Y-89725606D01*
X131800000Y-89827339D01*
X131800000Y-89839209D01*
X131112416Y-89151625D01*
X131081301Y-89194452D01*
X130987829Y-89377900D01*
X130987826Y-89377906D01*
X130924208Y-89573703D01*
X130892000Y-89777061D01*
X128708500Y-89777061D01*
X128708500Y-89697019D01*
X128676280Y-89493592D01*
X128612634Y-89297710D01*
X128519129Y-89114197D01*
X128398068Y-88947570D01*
X128398065Y-88947567D01*
X128398063Y-88947564D01*
X128252435Y-88801936D01*
X128252432Y-88801934D01*
X128252430Y-88801932D01*
X128086391Y-88681298D01*
X128085806Y-88680873D01*
X128085805Y-88680872D01*
X128085803Y-88680871D01*
X127902290Y-88587366D01*
X127902287Y-88587365D01*
X127902285Y-88587364D01*
X127706412Y-88523721D01*
X127706410Y-88523720D01*
X127706408Y-88523720D01*
X127502981Y-88491500D01*
X127297019Y-88491500D01*
X127093592Y-88523720D01*
X127093590Y-88523720D01*
X127093587Y-88523721D01*
X126897714Y-88587364D01*
X126897708Y-88587367D01*
X126714193Y-88680873D01*
X126547567Y-88801934D01*
X126547564Y-88801936D01*
X126401936Y-88947564D01*
X126401934Y-88947567D01*
X126280871Y-89114196D01*
X126261986Y-89151260D01*
X126213238Y-89202875D01*
X126144323Y-89219940D01*
X126077121Y-89197039D01*
X126037454Y-89151260D01*
X126018701Y-89114457D01*
X125987583Y-89071626D01*
X125987582Y-89071626D01*
X125300000Y-89759208D01*
X125300000Y-89747339D01*
X125272741Y-89645606D01*
X125220080Y-89554394D01*
X125145606Y-89479920D01*
X125054394Y-89427259D01*
X124952661Y-89400000D01*
X124940790Y-89400000D01*
X125628372Y-88712416D01*
X125585541Y-88681298D01*
X125585540Y-88681297D01*
X125402099Y-88587829D01*
X125402093Y-88587826D01*
X125206294Y-88524208D01*
X125206298Y-88524208D01*
X125002939Y-88492000D01*
X124797061Y-88492000D01*
X124593703Y-88524208D01*
X124397906Y-88587826D01*
X124397900Y-88587829D01*
X124214452Y-88681301D01*
X124171625Y-88712416D01*
X124859209Y-89400000D01*
X124847339Y-89400000D01*
X124745606Y-89427259D01*
X124654394Y-89479920D01*
X124579920Y-89554394D01*
X124527259Y-89645606D01*
X124500000Y-89747339D01*
X124500000Y-89759209D01*
X123812416Y-89071625D01*
X123781301Y-89114452D01*
X123687829Y-89297900D01*
X123687826Y-89297906D01*
X123624208Y-89493703D01*
X123592000Y-89697061D01*
X123592000Y-89902938D01*
X123624208Y-90106296D01*
X123687826Y-90302093D01*
X123687829Y-90302099D01*
X123781297Y-90485540D01*
X123781298Y-90485541D01*
X123812416Y-90528372D01*
X124500000Y-89840788D01*
X124500000Y-89852661D01*
X124527259Y-89954394D01*
X124579920Y-90045606D01*
X124654394Y-90120080D01*
X124745606Y-90172741D01*
X124847339Y-90200000D01*
X124859210Y-90200000D01*
X124171626Y-90887582D01*
X124171626Y-90887583D01*
X124214454Y-90918699D01*
X124397900Y-91012170D01*
X124397906Y-91012173D01*
X124593705Y-91075791D01*
X124593701Y-91075791D01*
X124797061Y-91108000D01*
X125002939Y-91108000D01*
X125206296Y-91075791D01*
X125402093Y-91012173D01*
X125402099Y-91012170D01*
X125585541Y-90918701D01*
X125628372Y-90887582D01*
X125628372Y-90887581D01*
X124940791Y-90200000D01*
X124952661Y-90200000D01*
X125054394Y-90172741D01*
X125145606Y-90120080D01*
X125220080Y-90045606D01*
X125272741Y-89954394D01*
X125300000Y-89852661D01*
X125300000Y-89840791D01*
X125987581Y-90528372D01*
X125987582Y-90528372D01*
X126018701Y-90485541D01*
X126037453Y-90448740D01*
X126086201Y-90397125D01*
X126155116Y-90380059D01*
X126222318Y-90402960D01*
X126261985Y-90448738D01*
X126280737Y-90485540D01*
X126280873Y-90485806D01*
X126282007Y-90487367D01*
X126401932Y-90652430D01*
X126401934Y-90652432D01*
X126401936Y-90652435D01*
X126551070Y-90801569D01*
X126550268Y-90802370D01*
X126586136Y-90857301D01*
X126591500Y-90893674D01*
X126591500Y-92900417D01*
X126571498Y-92968538D01*
X126539562Y-93002353D01*
X126454992Y-93063797D01*
X126352018Y-93166771D01*
X126289706Y-93200796D01*
X126218890Y-93195730D01*
X126162054Y-93153184D01*
X126144871Y-93121715D01*
X126100889Y-93003796D01*
X126100886Y-93003792D01*
X126100886Y-93003791D01*
X126013261Y-92886738D01*
X125896207Y-92799112D01*
X125896202Y-92799110D01*
X125759204Y-92748011D01*
X125759196Y-92748009D01*
X125698649Y-92741500D01*
X125698638Y-92741500D01*
X123901362Y-92741500D01*
X123901350Y-92741500D01*
X123840803Y-92748009D01*
X123840795Y-92748011D01*
X123703797Y-92799110D01*
X123703792Y-92799112D01*
X123586738Y-92886738D01*
X123499112Y-93003792D01*
X123499110Y-93003797D01*
X123448011Y-93140795D01*
X123448009Y-93140803D01*
X123441500Y-93201350D01*
X123441500Y-94998649D01*
X123448009Y-95059196D01*
X123448011Y-95059204D01*
X123499110Y-95196202D01*
X123499112Y-95196207D01*
X123586738Y-95313261D01*
X123703791Y-95400886D01*
X123703792Y-95400886D01*
X123703796Y-95400889D01*
X123821711Y-95444869D01*
X123878543Y-95487414D01*
X123903354Y-95553934D01*
X123888263Y-95623308D01*
X123866771Y-95652018D01*
X123763794Y-95754995D01*
X123638108Y-95927987D01*
X123541029Y-96118515D01*
X123541026Y-96118521D01*
X123476910Y-96315852D01*
X123436836Y-96374458D01*
X123371440Y-96402095D01*
X123301483Y-96389988D01*
X123267982Y-96366011D01*
X122545405Y-95643434D01*
X122511379Y-95581122D01*
X122508500Y-95554339D01*
X122508500Y-92252220D01*
X122508499Y-92252216D01*
X122506551Y-92242421D01*
X122481273Y-92115338D01*
X122465731Y-92077817D01*
X122460622Y-92065482D01*
X122460602Y-92065435D01*
X122456409Y-92055313D01*
X122437824Y-92010443D01*
X122427866Y-91986401D01*
X122427865Y-91986399D01*
X122350328Y-91870358D01*
X122350323Y-91870352D01*
X121408627Y-90928656D01*
X120379648Y-89899676D01*
X120379642Y-89899671D01*
X120263602Y-89822136D01*
X120263603Y-89822136D01*
X120263601Y-89822135D01*
X120230721Y-89808515D01*
X120197701Y-89794838D01*
X120177652Y-89786533D01*
X120122372Y-89741985D01*
X120099951Y-89674622D01*
X120106036Y-89631195D01*
X120158280Y-89470408D01*
X120190500Y-89266981D01*
X120190500Y-89061019D01*
X120158280Y-88857592D01*
X120150379Y-88833278D01*
X120139364Y-88799373D01*
X120111109Y-88712416D01*
X120094634Y-88661710D01*
X120001129Y-88478197D01*
X119880068Y-88311570D01*
X119880065Y-88311567D01*
X119880063Y-88311564D01*
X119734435Y-88165936D01*
X119734432Y-88165934D01*
X119734430Y-88165932D01*
X119608999Y-88074802D01*
X119567806Y-88044873D01*
X119567805Y-88044872D01*
X119567803Y-88044871D01*
X119491486Y-88005985D01*
X119439873Y-87957239D01*
X119422807Y-87888324D01*
X119445708Y-87821122D01*
X119491488Y-87781453D01*
X119567541Y-87742701D01*
X119610372Y-87711582D01*
X119610372Y-87711581D01*
X118922791Y-87024000D01*
X118934661Y-87024000D01*
X119036394Y-86996741D01*
X119127606Y-86944080D01*
X119202080Y-86869606D01*
X119254741Y-86778394D01*
X119282000Y-86676661D01*
X119282000Y-86664791D01*
X119969581Y-87352372D01*
X119969582Y-87352372D01*
X120000701Y-87309541D01*
X120094170Y-87126099D01*
X120094173Y-87126093D01*
X120157791Y-86930296D01*
X120190000Y-86726938D01*
X120190000Y-86521061D01*
X120157791Y-86317703D01*
X120094173Y-86121906D01*
X120094170Y-86121900D01*
X120000699Y-85938454D01*
X119969583Y-85895626D01*
X119969582Y-85895626D01*
X119282000Y-86583208D01*
X119282000Y-86571339D01*
X119254741Y-86469606D01*
X119202080Y-86378394D01*
X119127606Y-86303920D01*
X119036394Y-86251259D01*
X118934661Y-86224000D01*
X118922790Y-86224000D01*
X119610372Y-85536416D01*
X119567541Y-85505298D01*
X119567535Y-85505294D01*
X119491487Y-85466545D01*
X119439872Y-85417797D01*
X119422807Y-85348882D01*
X119445708Y-85281680D01*
X119491485Y-85242014D01*
X119567803Y-85203129D01*
X119734430Y-85082068D01*
X119880068Y-84936430D01*
X119946903Y-84844438D01*
X120003125Y-84801085D01*
X120048839Y-84792500D01*
X121838339Y-84792500D01*
X121906460Y-84812502D01*
X121927434Y-84829405D01*
X122371934Y-85273905D01*
X122405960Y-85336217D01*
X122407288Y-85382710D01*
X122402981Y-85409903D01*
X122389500Y-85495019D01*
X122389500Y-85700981D01*
X122418433Y-85883652D01*
X122421721Y-85904412D01*
X122452753Y-85999920D01*
X122485366Y-86100290D01*
X122576563Y-86279273D01*
X122578873Y-86283806D01*
X122595361Y-86306500D01*
X122699932Y-86450430D01*
X122699934Y-86450432D01*
X122699936Y-86450435D01*
X122845564Y-86596063D01*
X122845567Y-86596065D01*
X122845570Y-86596068D01*
X123012197Y-86717129D01*
X123195710Y-86810634D01*
X123391592Y-86874280D01*
X123595019Y-86906500D01*
X123595022Y-86906500D01*
X123800978Y-86906500D01*
X123800981Y-86906500D01*
X124004408Y-86874280D01*
X124200290Y-86810634D01*
X124383803Y-86717129D01*
X124550430Y-86596068D01*
X124696068Y-86450430D01*
X124817129Y-86283803D01*
X124910634Y-86100290D01*
X124974280Y-85904408D01*
X125006500Y-85700981D01*
X125006500Y-85495019D01*
X130009500Y-85495019D01*
X130009500Y-85700981D01*
X130038433Y-85883652D01*
X130041721Y-85904412D01*
X130072753Y-85999920D01*
X130105366Y-86100290D01*
X130196563Y-86279273D01*
X130198873Y-86283806D01*
X130215361Y-86306500D01*
X130319932Y-86450430D01*
X130319934Y-86450432D01*
X130319936Y-86450435D01*
X130465564Y-86596063D01*
X130465567Y-86596065D01*
X130465570Y-86596068D01*
X130632197Y-86717129D01*
X130815710Y-86810634D01*
X131011592Y-86874280D01*
X131215019Y-86906500D01*
X131215022Y-86906500D01*
X131420978Y-86906500D01*
X131420981Y-86906500D01*
X131624408Y-86874280D01*
X131820290Y-86810634D01*
X132003803Y-86717129D01*
X132170430Y-86596068D01*
X132316068Y-86450430D01*
X132382903Y-86358438D01*
X132439125Y-86315085D01*
X132484839Y-86306500D01*
X133453161Y-86306500D01*
X133521282Y-86326502D01*
X133555096Y-86358438D01*
X133621932Y-86450430D01*
X133621934Y-86450432D01*
X133621936Y-86450435D01*
X133767564Y-86596063D01*
X133767567Y-86596065D01*
X133767570Y-86596068D01*
X133934197Y-86717129D01*
X134117710Y-86810634D01*
X134313592Y-86874280D01*
X134517019Y-86906500D01*
X134517022Y-86906500D01*
X134722978Y-86906500D01*
X134722981Y-86906500D01*
X134926408Y-86874280D01*
X135122290Y-86810634D01*
X135305803Y-86717129D01*
X135472430Y-86596068D01*
X135618068Y-86450430D01*
X135739129Y-86283803D01*
X135832634Y-86100290D01*
X135896280Y-85904408D01*
X135928500Y-85700981D01*
X135928500Y-85495019D01*
X140931500Y-85495019D01*
X140931500Y-85700981D01*
X140960433Y-85883652D01*
X140963721Y-85904412D01*
X140994753Y-85999920D01*
X141027366Y-86100290D01*
X141118563Y-86279273D01*
X141120873Y-86283806D01*
X141137361Y-86306500D01*
X141241932Y-86450430D01*
X141241934Y-86450432D01*
X141241936Y-86450435D01*
X141387564Y-86596063D01*
X141387567Y-86596065D01*
X141387570Y-86596068D01*
X141554197Y-86717129D01*
X141737710Y-86810634D01*
X141933592Y-86874280D01*
X142137019Y-86906500D01*
X142137022Y-86906500D01*
X142342978Y-86906500D01*
X142342981Y-86906500D01*
X142546408Y-86874280D01*
X142742290Y-86810634D01*
X142925803Y-86717129D01*
X143092430Y-86596068D01*
X143238068Y-86450430D01*
X143304903Y-86358438D01*
X143361125Y-86315085D01*
X143406839Y-86306500D01*
X144375161Y-86306500D01*
X144443282Y-86326502D01*
X144477096Y-86358438D01*
X144543932Y-86450430D01*
X144543934Y-86450432D01*
X144543936Y-86450435D01*
X144689564Y-86596063D01*
X144689567Y-86596065D01*
X144689570Y-86596068D01*
X144856197Y-86717129D01*
X145039710Y-86810634D01*
X145235592Y-86874280D01*
X145439019Y-86906500D01*
X145439022Y-86906500D01*
X145644978Y-86906500D01*
X145644981Y-86906500D01*
X145848408Y-86874280D01*
X146044290Y-86810634D01*
X146227803Y-86717129D01*
X146394430Y-86596068D01*
X146540068Y-86450430D01*
X146606903Y-86358438D01*
X146663125Y-86315085D01*
X146708839Y-86306500D01*
X146881777Y-86306500D01*
X146881782Y-86306500D01*
X146950221Y-86292886D01*
X147018662Y-86279273D01*
X147056427Y-86263630D01*
X147147601Y-86225865D01*
X147263643Y-86148328D01*
X147637172Y-85774799D01*
X147916953Y-85495019D01*
X151853500Y-85495019D01*
X151853500Y-85700981D01*
X151882433Y-85883652D01*
X151885721Y-85904412D01*
X151916753Y-85999920D01*
X151949366Y-86100290D01*
X152040563Y-86279273D01*
X152042873Y-86283806D01*
X152059361Y-86306500D01*
X152163932Y-86450430D01*
X152163934Y-86450432D01*
X152163936Y-86450435D01*
X152309564Y-86596063D01*
X152309567Y-86596065D01*
X152309570Y-86596068D01*
X152476197Y-86717129D01*
X152659710Y-86810634D01*
X152855592Y-86874280D01*
X153059019Y-86906500D01*
X153059022Y-86906500D01*
X153264978Y-86906500D01*
X153264981Y-86906500D01*
X153468408Y-86874280D01*
X153664290Y-86810634D01*
X153847803Y-86717129D01*
X154014430Y-86596068D01*
X154160068Y-86450430D01*
X154226903Y-86358438D01*
X154283125Y-86315085D01*
X154328839Y-86306500D01*
X155805161Y-86306500D01*
X155873282Y-86326502D01*
X155907096Y-86358438D01*
X155973932Y-86450430D01*
X155973934Y-86450432D01*
X155973936Y-86450435D01*
X156119564Y-86596063D01*
X156119567Y-86596065D01*
X156119570Y-86596068D01*
X156286197Y-86717129D01*
X156469710Y-86810634D01*
X156665592Y-86874280D01*
X156869019Y-86906500D01*
X156869022Y-86906500D01*
X157074978Y-86906500D01*
X157074981Y-86906500D01*
X157278408Y-86874280D01*
X157474290Y-86810634D01*
X157657803Y-86717129D01*
X157824430Y-86596068D01*
X157970068Y-86450430D01*
X158091129Y-86283803D01*
X158184634Y-86100290D01*
X158248280Y-85904408D01*
X158280500Y-85700981D01*
X158280500Y-85495019D01*
X158248280Y-85291592D01*
X158184634Y-85095710D01*
X158091129Y-84912197D01*
X157970068Y-84745570D01*
X157970065Y-84745567D01*
X157970063Y-84745564D01*
X157824435Y-84599936D01*
X157824432Y-84599934D01*
X157824430Y-84599932D01*
X157657803Y-84478871D01*
X157474290Y-84385366D01*
X157474287Y-84385365D01*
X157474285Y-84385364D01*
X157278412Y-84321721D01*
X157278410Y-84321720D01*
X157278408Y-84321720D01*
X157074981Y-84289500D01*
X156869019Y-84289500D01*
X156665592Y-84321720D01*
X156665590Y-84321720D01*
X156665587Y-84321721D01*
X156469714Y-84385364D01*
X156469708Y-84385367D01*
X156286193Y-84478873D01*
X156119567Y-84599934D01*
X156119564Y-84599936D01*
X155973936Y-84745564D01*
X155973934Y-84745567D01*
X155942610Y-84788680D01*
X155913023Y-84829405D01*
X155907097Y-84837561D01*
X155850875Y-84880915D01*
X155805161Y-84889500D01*
X154328839Y-84889500D01*
X154260718Y-84869498D01*
X154226903Y-84837561D01*
X154160068Y-84745570D01*
X154160065Y-84745567D01*
X154160063Y-84745564D01*
X154014435Y-84599936D01*
X154014432Y-84599934D01*
X154014430Y-84599932D01*
X153847803Y-84478871D01*
X153664290Y-84385366D01*
X153664287Y-84385365D01*
X153664285Y-84385364D01*
X153468412Y-84321721D01*
X153468410Y-84321720D01*
X153468408Y-84321720D01*
X153264981Y-84289500D01*
X153059019Y-84289500D01*
X152855592Y-84321720D01*
X152855590Y-84321720D01*
X152855587Y-84321721D01*
X152659714Y-84385364D01*
X152659708Y-84385367D01*
X152476193Y-84478873D01*
X152309567Y-84599934D01*
X152309564Y-84599936D01*
X152163936Y-84745564D01*
X152163934Y-84745567D01*
X152042873Y-84912193D01*
X151949367Y-85095708D01*
X151949364Y-85095714D01*
X151885721Y-85291587D01*
X151885720Y-85291590D01*
X151885720Y-85291592D01*
X151853500Y-85495019D01*
X147916953Y-85495019D01*
X148010999Y-85400973D01*
X151132565Y-82279405D01*
X151194877Y-82245380D01*
X151221660Y-82242500D01*
X151995161Y-82242500D01*
X152063282Y-82262502D01*
X152097096Y-82294438D01*
X152163932Y-82386430D01*
X152163934Y-82386432D01*
X152163936Y-82386435D01*
X152309564Y-82532063D01*
X152309567Y-82532065D01*
X152309570Y-82532068D01*
X152476197Y-82653129D01*
X152659710Y-82746634D01*
X152855592Y-82810280D01*
X153059019Y-82842500D01*
X153059022Y-82842500D01*
X153264978Y-82842500D01*
X153264981Y-82842500D01*
X153468408Y-82810280D01*
X153664290Y-82746634D01*
X153847803Y-82653129D01*
X154014430Y-82532068D01*
X154160068Y-82386430D01*
X154281129Y-82219803D01*
X154374634Y-82036290D01*
X154438280Y-81840408D01*
X154470500Y-81636981D01*
X154470500Y-81431019D01*
X154438280Y-81227592D01*
X154374634Y-81031710D01*
X154281129Y-80848197D01*
X154160068Y-80681570D01*
X154160065Y-80681567D01*
X154160063Y-80681564D01*
X154014435Y-80535936D01*
X154014432Y-80535934D01*
X154014430Y-80535932D01*
X153847803Y-80414871D01*
X153664290Y-80321366D01*
X153664287Y-80321365D01*
X153664285Y-80321364D01*
X153468412Y-80257721D01*
X153468410Y-80257720D01*
X153468408Y-80257720D01*
X153264981Y-80225500D01*
X153059019Y-80225500D01*
X152855592Y-80257720D01*
X152855590Y-80257720D01*
X152855587Y-80257721D01*
X152659714Y-80321364D01*
X152659708Y-80321367D01*
X152476193Y-80414873D01*
X152309567Y-80535934D01*
X152309564Y-80535936D01*
X152163937Y-80681564D01*
X152163934Y-80681567D01*
X152163932Y-80681570D01*
X152156667Y-80691570D01*
X152097097Y-80773561D01*
X152040875Y-80816915D01*
X151995161Y-80825500D01*
X150806213Y-80825500D01*
X150669342Y-80852725D01*
X150669339Y-80852726D01*
X150631572Y-80868368D01*
X150631572Y-80868369D01*
X150612690Y-80876190D01*
X150540400Y-80906133D01*
X150424354Y-80983674D01*
X150424352Y-80983676D01*
X146690358Y-84717669D01*
X146628046Y-84751695D01*
X146557230Y-84746630D01*
X146512168Y-84717669D01*
X146394435Y-84599936D01*
X146394432Y-84599934D01*
X146394430Y-84599932D01*
X146227803Y-84478871D01*
X146044290Y-84385366D01*
X146044287Y-84385365D01*
X146044285Y-84385364D01*
X145848412Y-84321721D01*
X145848410Y-84321720D01*
X145848408Y-84321720D01*
X145644981Y-84289500D01*
X145439019Y-84289500D01*
X145235592Y-84321720D01*
X145235590Y-84321720D01*
X145235587Y-84321721D01*
X145039714Y-84385364D01*
X145039708Y-84385367D01*
X144856193Y-84478873D01*
X144689567Y-84599934D01*
X144689564Y-84599936D01*
X144543936Y-84745564D01*
X144543934Y-84745567D01*
X144512610Y-84788680D01*
X144483023Y-84829405D01*
X144477097Y-84837561D01*
X144420875Y-84880915D01*
X144375161Y-84889500D01*
X143406839Y-84889500D01*
X143338718Y-84869498D01*
X143304903Y-84837561D01*
X143238068Y-84745570D01*
X143238065Y-84745567D01*
X143238063Y-84745564D01*
X143092435Y-84599936D01*
X143092432Y-84599934D01*
X143092430Y-84599932D01*
X142925803Y-84478871D01*
X142742290Y-84385366D01*
X142742287Y-84385365D01*
X142742285Y-84385364D01*
X142546412Y-84321721D01*
X142546410Y-84321720D01*
X142546408Y-84321720D01*
X142342981Y-84289500D01*
X142137019Y-84289500D01*
X141933592Y-84321720D01*
X141933590Y-84321720D01*
X141933587Y-84321721D01*
X141737714Y-84385364D01*
X141737708Y-84385367D01*
X141554193Y-84478873D01*
X141387567Y-84599934D01*
X141387564Y-84599936D01*
X141241936Y-84745564D01*
X141241934Y-84745567D01*
X141120873Y-84912193D01*
X141027367Y-85095708D01*
X141027364Y-85095714D01*
X140963721Y-85291587D01*
X140963720Y-85291590D01*
X140963720Y-85291592D01*
X140931500Y-85495019D01*
X135928500Y-85495019D01*
X135896280Y-85291592D01*
X135832634Y-85095710D01*
X135739129Y-84912197D01*
X135618068Y-84745570D01*
X135618065Y-84745567D01*
X135618063Y-84745564D01*
X135472435Y-84599936D01*
X135472432Y-84599934D01*
X135472430Y-84599932D01*
X135305803Y-84478871D01*
X135122290Y-84385366D01*
X135122287Y-84385365D01*
X135122285Y-84385364D01*
X134926412Y-84321721D01*
X134926410Y-84321720D01*
X134926408Y-84321720D01*
X134722981Y-84289500D01*
X134517019Y-84289500D01*
X134313592Y-84321720D01*
X134313590Y-84321720D01*
X134313587Y-84321721D01*
X134117714Y-84385364D01*
X134117708Y-84385367D01*
X133934193Y-84478873D01*
X133767567Y-84599934D01*
X133767564Y-84599936D01*
X133621936Y-84745564D01*
X133621934Y-84745567D01*
X133590610Y-84788680D01*
X133561023Y-84829405D01*
X133555097Y-84837561D01*
X133498875Y-84880915D01*
X133453161Y-84889500D01*
X132484839Y-84889500D01*
X132416718Y-84869498D01*
X132382903Y-84837561D01*
X132316068Y-84745570D01*
X132316065Y-84745567D01*
X132316063Y-84745564D01*
X132170435Y-84599936D01*
X132170432Y-84599934D01*
X132170430Y-84599932D01*
X132003803Y-84478871D01*
X131820290Y-84385366D01*
X131820287Y-84385365D01*
X131820285Y-84385364D01*
X131624412Y-84321721D01*
X131624410Y-84321720D01*
X131624408Y-84321720D01*
X131420981Y-84289500D01*
X131215019Y-84289500D01*
X131011592Y-84321720D01*
X131011590Y-84321720D01*
X131011587Y-84321721D01*
X130815714Y-84385364D01*
X130815708Y-84385367D01*
X130632193Y-84478873D01*
X130465567Y-84599934D01*
X130465564Y-84599936D01*
X130319936Y-84745564D01*
X130319934Y-84745567D01*
X130198873Y-84912193D01*
X130105367Y-85095708D01*
X130105364Y-85095714D01*
X130041721Y-85291587D01*
X130041720Y-85291590D01*
X130041720Y-85291592D01*
X130009500Y-85495019D01*
X125006500Y-85495019D01*
X124974280Y-85291592D01*
X124910634Y-85095710D01*
X124817129Y-84912197D01*
X124696068Y-84745570D01*
X124696065Y-84745567D01*
X124696063Y-84745564D01*
X124550435Y-84599936D01*
X124550432Y-84599934D01*
X124550430Y-84599932D01*
X124383803Y-84478871D01*
X124200290Y-84385366D01*
X124200287Y-84385365D01*
X124200285Y-84385364D01*
X124004412Y-84321721D01*
X124004410Y-84321720D01*
X124004408Y-84321720D01*
X123800981Y-84289500D01*
X123595019Y-84289500D01*
X123509903Y-84302981D01*
X123482710Y-84307288D01*
X123412299Y-84298188D01*
X123373907Y-84271936D01*
X122635643Y-83533672D01*
X122519601Y-83456135D01*
X122428427Y-83418369D01*
X122428426Y-83418368D01*
X122390669Y-83402729D01*
X122390663Y-83402727D01*
X122390662Y-83402727D01*
X122322221Y-83389113D01*
X122322220Y-83389112D01*
X122253787Y-83375500D01*
X122253782Y-83375500D01*
X122253781Y-83375500D01*
X120048839Y-83375500D01*
X119980718Y-83355498D01*
X119946903Y-83323561D01*
X119880068Y-83231570D01*
X119880065Y-83231567D01*
X119880063Y-83231564D01*
X119734435Y-83085936D01*
X119734432Y-83085934D01*
X119734430Y-83085932D01*
X119575962Y-82970799D01*
X119567806Y-82964873D01*
X119567805Y-82964872D01*
X119567803Y-82964871D01*
X119492034Y-82926265D01*
X119440422Y-82877519D01*
X119423356Y-82808604D01*
X119446257Y-82741402D01*
X119492034Y-82701735D01*
X119567803Y-82663129D01*
X119734430Y-82542068D01*
X119880068Y-82396430D01*
X119954168Y-82294438D01*
X120010390Y-82251085D01*
X120056104Y-82242500D01*
X122531161Y-82242500D01*
X122599282Y-82262502D01*
X122633096Y-82294438D01*
X122699932Y-82386430D01*
X122699934Y-82386432D01*
X122699936Y-82386435D01*
X122845564Y-82532063D01*
X122845567Y-82532065D01*
X122845570Y-82532068D01*
X123012197Y-82653129D01*
X123195710Y-82746634D01*
X123391592Y-82810280D01*
X123595019Y-82842500D01*
X123595022Y-82842500D01*
X123800978Y-82842500D01*
X123800981Y-82842500D01*
X124004408Y-82810280D01*
X124200290Y-82746634D01*
X124383803Y-82653129D01*
X124550430Y-82532068D01*
X124696068Y-82386430D01*
X124817129Y-82219803D01*
X124910634Y-82036290D01*
X124974280Y-81840408D01*
X125006500Y-81636981D01*
X125006500Y-81431019D01*
X130009500Y-81431019D01*
X130009500Y-81636981D01*
X130011084Y-81646981D01*
X130041721Y-81840412D01*
X130100671Y-82021842D01*
X130105366Y-82036290D01*
X130196479Y-82215108D01*
X130198873Y-82219806D01*
X130215361Y-82242500D01*
X130319932Y-82386430D01*
X130319934Y-82386432D01*
X130319936Y-82386435D01*
X130465564Y-82532063D01*
X130465567Y-82532065D01*
X130465570Y-82532068D01*
X130632197Y-82653129D01*
X130815710Y-82746634D01*
X131011592Y-82810280D01*
X131215019Y-82842500D01*
X131215022Y-82842500D01*
X131420978Y-82842500D01*
X131420981Y-82842500D01*
X131624408Y-82810280D01*
X131820290Y-82746634D01*
X132003803Y-82653129D01*
X132170430Y-82532068D01*
X132316068Y-82386430D01*
X132382903Y-82294438D01*
X132439125Y-82251085D01*
X132484839Y-82242500D01*
X133453161Y-82242500D01*
X133521282Y-82262502D01*
X133555096Y-82294438D01*
X133621932Y-82386430D01*
X133621934Y-82386432D01*
X133621936Y-82386435D01*
X133767564Y-82532063D01*
X133767567Y-82532065D01*
X133767570Y-82532068D01*
X133934197Y-82653129D01*
X134117710Y-82746634D01*
X134313592Y-82810280D01*
X134517019Y-82842500D01*
X134517022Y-82842500D01*
X134722978Y-82842500D01*
X134722981Y-82842500D01*
X134926408Y-82810280D01*
X135122290Y-82746634D01*
X135305803Y-82653129D01*
X135472430Y-82532068D01*
X135618068Y-82386430D01*
X135739129Y-82219803D01*
X135832634Y-82036290D01*
X135896280Y-81840408D01*
X135928500Y-81636981D01*
X135928500Y-81431019D01*
X140931500Y-81431019D01*
X140931500Y-81636981D01*
X140933084Y-81646981D01*
X140963721Y-81840412D01*
X141022671Y-82021842D01*
X141027366Y-82036290D01*
X141118479Y-82215108D01*
X141120873Y-82219806D01*
X141137361Y-82242500D01*
X141241932Y-82386430D01*
X141241934Y-82386432D01*
X141241936Y-82386435D01*
X141387564Y-82532063D01*
X141387567Y-82532065D01*
X141387570Y-82532068D01*
X141554197Y-82653129D01*
X141737710Y-82746634D01*
X141933592Y-82810280D01*
X142137019Y-82842500D01*
X142137022Y-82842500D01*
X142342978Y-82842500D01*
X142342981Y-82842500D01*
X142546408Y-82810280D01*
X142742290Y-82746634D01*
X142925803Y-82653129D01*
X143092430Y-82532068D01*
X143238068Y-82386430D01*
X143304903Y-82294438D01*
X143361125Y-82251085D01*
X143406839Y-82242500D01*
X144375161Y-82242500D01*
X144443282Y-82262502D01*
X144477096Y-82294438D01*
X144543932Y-82386430D01*
X144543934Y-82386432D01*
X144543936Y-82386435D01*
X144689564Y-82532063D01*
X144689567Y-82532065D01*
X144689570Y-82532068D01*
X144856197Y-82653129D01*
X145039710Y-82746634D01*
X145235592Y-82810280D01*
X145439019Y-82842500D01*
X145439022Y-82842500D01*
X145644978Y-82842500D01*
X145644981Y-82842500D01*
X145848408Y-82810280D01*
X146044290Y-82746634D01*
X146227803Y-82653129D01*
X146394430Y-82532068D01*
X146540068Y-82386430D01*
X146606903Y-82294438D01*
X146663125Y-82251085D01*
X146708839Y-82242500D01*
X147135777Y-82242500D01*
X147135782Y-82242500D01*
X147204221Y-82228886D01*
X147272662Y-82215273D01*
X147310427Y-82199630D01*
X147401601Y-82161865D01*
X147517643Y-82084328D01*
X151640566Y-77961405D01*
X151702878Y-77927379D01*
X151729661Y-77924500D01*
X151995161Y-77924500D01*
X152063282Y-77944502D01*
X152097096Y-77976438D01*
X152163932Y-78068430D01*
X152163934Y-78068432D01*
X152163936Y-78068435D01*
X152309564Y-78214063D01*
X152309567Y-78214065D01*
X152309570Y-78214068D01*
X152476197Y-78335129D01*
X152659710Y-78428634D01*
X152855592Y-78492280D01*
X153059019Y-78524500D01*
X153059022Y-78524500D01*
X153264978Y-78524500D01*
X153264981Y-78524500D01*
X153468408Y-78492280D01*
X153664290Y-78428634D01*
X153847803Y-78335129D01*
X154014430Y-78214068D01*
X154160068Y-78068430D01*
X154281129Y-77901803D01*
X154294755Y-77875061D01*
X155664000Y-77875061D01*
X155664000Y-78080938D01*
X155696208Y-78284296D01*
X155759826Y-78480093D01*
X155759829Y-78480099D01*
X155853297Y-78663540D01*
X155853298Y-78663541D01*
X155884416Y-78706372D01*
X156572000Y-78018788D01*
X156572000Y-78030661D01*
X156599259Y-78132394D01*
X156651920Y-78223606D01*
X156726394Y-78298080D01*
X156817606Y-78350741D01*
X156919339Y-78378000D01*
X156931210Y-78378000D01*
X156243626Y-79065582D01*
X156243626Y-79065583D01*
X156286454Y-79096699D01*
X156469900Y-79190170D01*
X156469906Y-79190173D01*
X156665705Y-79253791D01*
X156665701Y-79253791D01*
X156869061Y-79286000D01*
X157074939Y-79286000D01*
X157278296Y-79253791D01*
X157474093Y-79190173D01*
X157474099Y-79190170D01*
X157657541Y-79096701D01*
X157700372Y-79065582D01*
X157700372Y-79065581D01*
X157012791Y-78378000D01*
X157024661Y-78378000D01*
X157126394Y-78350741D01*
X157217606Y-78298080D01*
X157292080Y-78223606D01*
X157344741Y-78132394D01*
X157372000Y-78030661D01*
X157372000Y-78018791D01*
X158059581Y-78706372D01*
X158059582Y-78706372D01*
X158090701Y-78663541D01*
X158184170Y-78480099D01*
X158184173Y-78480093D01*
X158247791Y-78284296D01*
X158280000Y-78080938D01*
X158280000Y-77875061D01*
X158247791Y-77671703D01*
X158184173Y-77475906D01*
X158184170Y-77475900D01*
X158090699Y-77292454D01*
X158059583Y-77249626D01*
X158059582Y-77249626D01*
X157372000Y-77937208D01*
X157372000Y-77925339D01*
X157344741Y-77823606D01*
X157292080Y-77732394D01*
X157217606Y-77657920D01*
X157126394Y-77605259D01*
X157024661Y-77578000D01*
X157012790Y-77578000D01*
X157700372Y-76890416D01*
X157657541Y-76859298D01*
X157657540Y-76859297D01*
X157474099Y-76765829D01*
X157474093Y-76765826D01*
X157278294Y-76702208D01*
X157278298Y-76702208D01*
X157074939Y-76670000D01*
X156869061Y-76670000D01*
X156665703Y-76702208D01*
X156469906Y-76765826D01*
X156469900Y-76765829D01*
X156286452Y-76859301D01*
X156243625Y-76890416D01*
X156931209Y-77578000D01*
X156919339Y-77578000D01*
X156817606Y-77605259D01*
X156726394Y-77657920D01*
X156651920Y-77732394D01*
X156599259Y-77823606D01*
X156572000Y-77925339D01*
X156572000Y-77937209D01*
X155884416Y-77249625D01*
X155853301Y-77292452D01*
X155759829Y-77475900D01*
X155759826Y-77475906D01*
X155696208Y-77671703D01*
X155664000Y-77875061D01*
X154294755Y-77875061D01*
X154374634Y-77718290D01*
X154438280Y-77522408D01*
X154470500Y-77318981D01*
X154470500Y-77113019D01*
X154438280Y-76909592D01*
X154374634Y-76713710D01*
X154281129Y-76530197D01*
X154160068Y-76363570D01*
X154160065Y-76363567D01*
X154160063Y-76363564D01*
X154014435Y-76217936D01*
X154014432Y-76217934D01*
X154014430Y-76217932D01*
X153847803Y-76096871D01*
X153664290Y-76003366D01*
X153664287Y-76003365D01*
X153664285Y-76003364D01*
X153468412Y-75939721D01*
X153468410Y-75939720D01*
X153468408Y-75939720D01*
X153264981Y-75907500D01*
X153059019Y-75907500D01*
X152855592Y-75939720D01*
X152855590Y-75939720D01*
X152855587Y-75939721D01*
X152659714Y-76003364D01*
X152659708Y-76003367D01*
X152476193Y-76096873D01*
X152309567Y-76217934D01*
X152309564Y-76217936D01*
X152163936Y-76363564D01*
X152163934Y-76363567D01*
X152097097Y-76455561D01*
X152040875Y-76498915D01*
X151995161Y-76507500D01*
X151314212Y-76507500D01*
X151245779Y-76521112D01*
X151245778Y-76521113D01*
X151200151Y-76530189D01*
X151177337Y-76534727D01*
X151177334Y-76534728D01*
X151139572Y-76550368D01*
X151139572Y-76550369D01*
X151115757Y-76560233D01*
X151048401Y-76588133D01*
X151048400Y-76588134D01*
X150932357Y-76665671D01*
X150932351Y-76665676D01*
X146809434Y-80788595D01*
X146782065Y-80803539D01*
X146755837Y-80820396D01*
X146749538Y-80821301D01*
X146747122Y-80822621D01*
X146720339Y-80825500D01*
X146708839Y-80825500D01*
X146640718Y-80805498D01*
X146606903Y-80773561D01*
X146547333Y-80691570D01*
X146540068Y-80681570D01*
X146540065Y-80681567D01*
X146540063Y-80681564D01*
X146394435Y-80535936D01*
X146394432Y-80535934D01*
X146394430Y-80535932D01*
X146227803Y-80414871D01*
X146044290Y-80321366D01*
X146044287Y-80321365D01*
X146044285Y-80321364D01*
X145848412Y-80257721D01*
X145848410Y-80257720D01*
X145848408Y-80257720D01*
X145644981Y-80225500D01*
X145439019Y-80225500D01*
X145235592Y-80257720D01*
X145235590Y-80257720D01*
X145235587Y-80257721D01*
X145039714Y-80321364D01*
X145039708Y-80321367D01*
X144856193Y-80414873D01*
X144689567Y-80535934D01*
X144689564Y-80535936D01*
X144543937Y-80681564D01*
X144543934Y-80681567D01*
X144543932Y-80681570D01*
X144536667Y-80691570D01*
X144477097Y-80773561D01*
X144420875Y-80816915D01*
X144375161Y-80825500D01*
X143406839Y-80825500D01*
X143338718Y-80805498D01*
X143304903Y-80773561D01*
X143245333Y-80691570D01*
X143238068Y-80681570D01*
X143238065Y-80681567D01*
X143238063Y-80681564D01*
X143092435Y-80535936D01*
X143092432Y-80535934D01*
X143092430Y-80535932D01*
X142925803Y-80414871D01*
X142742290Y-80321366D01*
X142742287Y-80321365D01*
X142742285Y-80321364D01*
X142546412Y-80257721D01*
X142546410Y-80257720D01*
X142546408Y-80257720D01*
X142342981Y-80225500D01*
X142137019Y-80225500D01*
X141933592Y-80257720D01*
X141933590Y-80257720D01*
X141933587Y-80257721D01*
X141737714Y-80321364D01*
X141737708Y-80321367D01*
X141554193Y-80414873D01*
X141387567Y-80535934D01*
X141387564Y-80535936D01*
X141241937Y-80681564D01*
X141241934Y-80681567D01*
X141241932Y-80681570D01*
X141234667Y-80691570D01*
X141120873Y-80848193D01*
X141027367Y-81031708D01*
X141027364Y-81031714D01*
X140963721Y-81227587D01*
X140963720Y-81227590D01*
X140963720Y-81227592D01*
X140931500Y-81431019D01*
X135928500Y-81431019D01*
X135896280Y-81227592D01*
X135832634Y-81031710D01*
X135739129Y-80848197D01*
X135618068Y-80681570D01*
X135618065Y-80681567D01*
X135618063Y-80681564D01*
X135472435Y-80535936D01*
X135472432Y-80535934D01*
X135472430Y-80535932D01*
X135305803Y-80414871D01*
X135122290Y-80321366D01*
X135122287Y-80321365D01*
X135122285Y-80321364D01*
X134926412Y-80257721D01*
X134926410Y-80257720D01*
X134926408Y-80257720D01*
X134722981Y-80225500D01*
X134517019Y-80225500D01*
X134313592Y-80257720D01*
X134313590Y-80257720D01*
X134313587Y-80257721D01*
X134117714Y-80321364D01*
X134117708Y-80321367D01*
X133934193Y-80414873D01*
X133767567Y-80535934D01*
X133767564Y-80535936D01*
X133621937Y-80681564D01*
X133621934Y-80681567D01*
X133621932Y-80681570D01*
X133614667Y-80691570D01*
X133555097Y-80773561D01*
X133498875Y-80816915D01*
X133453161Y-80825500D01*
X132484839Y-80825500D01*
X132416718Y-80805498D01*
X132382903Y-80773561D01*
X132323333Y-80691570D01*
X132316068Y-80681570D01*
X132316065Y-80681567D01*
X132316063Y-80681564D01*
X132170435Y-80535936D01*
X132170432Y-80535934D01*
X132170430Y-80535932D01*
X132003803Y-80414871D01*
X131820290Y-80321366D01*
X131820287Y-80321365D01*
X131820285Y-80321364D01*
X131624412Y-80257721D01*
X131624410Y-80257720D01*
X131624408Y-80257720D01*
X131420981Y-80225500D01*
X131215019Y-80225500D01*
X131011592Y-80257720D01*
X131011590Y-80257720D01*
X131011587Y-80257721D01*
X130815714Y-80321364D01*
X130815708Y-80321367D01*
X130632193Y-80414873D01*
X130465567Y-80535934D01*
X130465564Y-80535936D01*
X130319937Y-80681564D01*
X130319934Y-80681567D01*
X130319932Y-80681570D01*
X130312667Y-80691570D01*
X130198873Y-80848193D01*
X130105367Y-81031708D01*
X130105364Y-81031714D01*
X130041721Y-81227587D01*
X130041720Y-81227590D01*
X130041720Y-81227592D01*
X130009500Y-81431019D01*
X125006500Y-81431019D01*
X124974280Y-81227592D01*
X124910634Y-81031710D01*
X124817129Y-80848197D01*
X124696068Y-80681570D01*
X124696065Y-80681567D01*
X124696063Y-80681564D01*
X124550435Y-80535936D01*
X124550432Y-80535934D01*
X124550430Y-80535932D01*
X124383803Y-80414871D01*
X124200290Y-80321366D01*
X124200287Y-80321365D01*
X124200285Y-80321364D01*
X124004412Y-80257721D01*
X124004410Y-80257720D01*
X124004408Y-80257720D01*
X123800981Y-80225500D01*
X123595019Y-80225500D01*
X123391592Y-80257720D01*
X123391590Y-80257720D01*
X123391587Y-80257721D01*
X123195714Y-80321364D01*
X123195708Y-80321367D01*
X123012193Y-80414873D01*
X122845567Y-80535934D01*
X122845564Y-80535936D01*
X122699937Y-80681564D01*
X122699934Y-80681567D01*
X122699932Y-80681570D01*
X122692667Y-80691570D01*
X122633097Y-80773561D01*
X122576875Y-80816915D01*
X122531161Y-80825500D01*
X120041574Y-80825500D01*
X119973453Y-80805498D01*
X119939637Y-80773560D01*
X119880067Y-80691568D01*
X119734435Y-80545936D01*
X119734432Y-80545934D01*
X119734430Y-80545932D01*
X119573976Y-80429356D01*
X119567806Y-80424873D01*
X119567805Y-80424872D01*
X119567803Y-80424871D01*
X119492034Y-80386265D01*
X119440422Y-80337519D01*
X119423356Y-80268604D01*
X119446257Y-80201402D01*
X119492034Y-80161735D01*
X119567803Y-80123129D01*
X119734430Y-80002068D01*
X119880068Y-79856430D01*
X120001129Y-79689803D01*
X120007502Y-79677294D01*
X120056251Y-79625681D01*
X120119768Y-79608500D01*
X121829781Y-79608500D01*
X121829782Y-79608500D01*
X121943581Y-79585864D01*
X121966662Y-79581273D01*
X122004427Y-79565630D01*
X122095601Y-79527865D01*
X122211643Y-79450328D01*
X123169513Y-78492456D01*
X123231822Y-78458434D01*
X123297541Y-78461721D01*
X123329165Y-78471996D01*
X123391592Y-78492280D01*
X123595019Y-78524500D01*
X123595022Y-78524500D01*
X123800978Y-78524500D01*
X123800981Y-78524500D01*
X124004408Y-78492280D01*
X124200290Y-78428634D01*
X124383803Y-78335129D01*
X124550430Y-78214068D01*
X124696068Y-78068430D01*
X124817129Y-77901803D01*
X124910634Y-77718290D01*
X124974280Y-77522408D01*
X125006500Y-77318981D01*
X125006500Y-77113019D01*
X130009500Y-77113019D01*
X130009500Y-77318981D01*
X130036056Y-77486645D01*
X130041721Y-77522412D01*
X130105180Y-77717720D01*
X130105366Y-77718290D01*
X130190244Y-77884871D01*
X130198873Y-77901806D01*
X130215361Y-77924500D01*
X130319932Y-78068430D01*
X130319934Y-78068432D01*
X130319936Y-78068435D01*
X130465564Y-78214063D01*
X130465567Y-78214065D01*
X130465570Y-78214068D01*
X130632197Y-78335129D01*
X130815710Y-78428634D01*
X131011592Y-78492280D01*
X131215019Y-78524500D01*
X131215022Y-78524500D01*
X131420978Y-78524500D01*
X131420981Y-78524500D01*
X131624408Y-78492280D01*
X131820290Y-78428634D01*
X132003803Y-78335129D01*
X132170430Y-78214068D01*
X132316068Y-78068430D01*
X132382903Y-77976438D01*
X132439125Y-77933085D01*
X132484839Y-77924500D01*
X133453161Y-77924500D01*
X133521282Y-77944502D01*
X133555096Y-77976438D01*
X133621932Y-78068430D01*
X133621934Y-78068432D01*
X133621936Y-78068435D01*
X133767564Y-78214063D01*
X133767567Y-78214065D01*
X133767570Y-78214068D01*
X133934197Y-78335129D01*
X134117710Y-78428634D01*
X134313592Y-78492280D01*
X134517019Y-78524500D01*
X134517022Y-78524500D01*
X134722978Y-78524500D01*
X134722981Y-78524500D01*
X134926408Y-78492280D01*
X135122290Y-78428634D01*
X135305803Y-78335129D01*
X135472430Y-78214068D01*
X135618068Y-78068430D01*
X135739129Y-77901803D01*
X135832634Y-77718290D01*
X135896280Y-77522408D01*
X135928500Y-77318981D01*
X135928500Y-77113019D01*
X140931500Y-77113019D01*
X140931500Y-77318981D01*
X140958056Y-77486645D01*
X140963721Y-77522412D01*
X141027180Y-77717720D01*
X141027366Y-77718290D01*
X141112244Y-77884871D01*
X141120873Y-77901806D01*
X141137361Y-77924500D01*
X141241932Y-78068430D01*
X141241934Y-78068432D01*
X141241936Y-78068435D01*
X141387564Y-78214063D01*
X141387567Y-78214065D01*
X141387570Y-78214068D01*
X141554197Y-78335129D01*
X141737710Y-78428634D01*
X141933592Y-78492280D01*
X142137019Y-78524500D01*
X142137022Y-78524500D01*
X142342978Y-78524500D01*
X142342981Y-78524500D01*
X142546408Y-78492280D01*
X142742290Y-78428634D01*
X142925803Y-78335129D01*
X143092430Y-78214068D01*
X143238068Y-78068430D01*
X143304903Y-77976438D01*
X143361125Y-77933085D01*
X143406839Y-77924500D01*
X144375161Y-77924500D01*
X144443282Y-77944502D01*
X144477096Y-77976438D01*
X144543932Y-78068430D01*
X144543934Y-78068432D01*
X144543936Y-78068435D01*
X144689564Y-78214063D01*
X144689567Y-78214065D01*
X144689570Y-78214068D01*
X144856197Y-78335129D01*
X145039710Y-78428634D01*
X145235592Y-78492280D01*
X145439019Y-78524500D01*
X145439022Y-78524500D01*
X145644978Y-78524500D01*
X145644981Y-78524500D01*
X145848408Y-78492280D01*
X146044290Y-78428634D01*
X146227803Y-78335129D01*
X146394430Y-78214068D01*
X146540068Y-78068430D01*
X146606903Y-77976438D01*
X146663125Y-77933085D01*
X146708839Y-77924500D01*
X147389777Y-77924500D01*
X147389782Y-77924500D01*
X147458221Y-77910886D01*
X147526662Y-77897273D01*
X147564427Y-77881630D01*
X147655601Y-77843865D01*
X147771643Y-77766328D01*
X151894566Y-73643405D01*
X151921934Y-73628460D01*
X151948163Y-73611604D01*
X151954461Y-73610698D01*
X151956878Y-73609379D01*
X151983661Y-73606500D01*
X151995161Y-73606500D01*
X152063282Y-73626502D01*
X152097096Y-73658438D01*
X152163932Y-73750430D01*
X152163934Y-73750432D01*
X152163936Y-73750435D01*
X152309564Y-73896063D01*
X152309567Y-73896065D01*
X152309570Y-73896068D01*
X152476197Y-74017129D01*
X152659710Y-74110634D01*
X152855592Y-74174280D01*
X153059019Y-74206500D01*
X153059022Y-74206500D01*
X153264978Y-74206500D01*
X153264981Y-74206500D01*
X153468408Y-74174280D01*
X153664290Y-74110634D01*
X153847803Y-74017129D01*
X154014430Y-73896068D01*
X154160068Y-73750430D01*
X154281129Y-73583803D01*
X154374634Y-73400290D01*
X154438280Y-73204408D01*
X154470500Y-73000981D01*
X154470500Y-72795019D01*
X154438280Y-72591592D01*
X154374634Y-72395710D01*
X154281129Y-72212197D01*
X154160068Y-72045570D01*
X154160065Y-72045567D01*
X154160063Y-72045564D01*
X154014435Y-71899936D01*
X154014432Y-71899934D01*
X154014430Y-71899932D01*
X153847803Y-71778871D01*
X153664290Y-71685366D01*
X153664287Y-71685365D01*
X153664285Y-71685364D01*
X153468412Y-71621721D01*
X153468410Y-71621720D01*
X153468408Y-71621720D01*
X153264981Y-71589500D01*
X153059019Y-71589500D01*
X152855592Y-71621720D01*
X152855590Y-71621720D01*
X152855587Y-71621721D01*
X152659714Y-71685364D01*
X152659708Y-71685367D01*
X152476193Y-71778873D01*
X152309567Y-71899934D01*
X152309564Y-71899936D01*
X152163936Y-72045564D01*
X152163934Y-72045567D01*
X152097097Y-72137561D01*
X152040875Y-72180915D01*
X151995161Y-72189500D01*
X151568212Y-72189500D01*
X151499779Y-72203112D01*
X151499778Y-72203113D01*
X151454151Y-72212189D01*
X151431337Y-72216727D01*
X151431334Y-72216728D01*
X151393572Y-72232368D01*
X151393572Y-72232369D01*
X151369757Y-72242233D01*
X151302401Y-72270133D01*
X151302400Y-72270134D01*
X151186357Y-72347671D01*
X151186351Y-72347676D01*
X147063434Y-76470595D01*
X147001122Y-76504621D01*
X146974339Y-76507500D01*
X146708839Y-76507500D01*
X146640718Y-76487498D01*
X146606903Y-76455561D01*
X146560041Y-76391061D01*
X146540068Y-76363570D01*
X146540065Y-76363567D01*
X146540063Y-76363564D01*
X146394435Y-76217936D01*
X146394432Y-76217934D01*
X146394430Y-76217932D01*
X146227803Y-76096871D01*
X146044290Y-76003366D01*
X146044287Y-76003365D01*
X146044285Y-76003364D01*
X145848412Y-75939721D01*
X145848410Y-75939720D01*
X145848408Y-75939720D01*
X145644981Y-75907500D01*
X145439019Y-75907500D01*
X145235592Y-75939720D01*
X145235590Y-75939720D01*
X145235587Y-75939721D01*
X145039714Y-76003364D01*
X145039708Y-76003367D01*
X144856193Y-76096873D01*
X144689567Y-76217934D01*
X144689564Y-76217936D01*
X144543936Y-76363564D01*
X144543934Y-76363567D01*
X144477097Y-76455561D01*
X144420875Y-76498915D01*
X144375161Y-76507500D01*
X143406839Y-76507500D01*
X143338718Y-76487498D01*
X143304903Y-76455561D01*
X143258041Y-76391061D01*
X143238068Y-76363570D01*
X143238065Y-76363567D01*
X143238063Y-76363564D01*
X143092435Y-76217936D01*
X143092432Y-76217934D01*
X143092430Y-76217932D01*
X142925803Y-76096871D01*
X142742290Y-76003366D01*
X142742287Y-76003365D01*
X142742285Y-76003364D01*
X142546412Y-75939721D01*
X142546410Y-75939720D01*
X142546408Y-75939720D01*
X142342981Y-75907500D01*
X142137019Y-75907500D01*
X141933592Y-75939720D01*
X141933590Y-75939720D01*
X141933587Y-75939721D01*
X141737714Y-76003364D01*
X141737708Y-76003367D01*
X141554193Y-76096873D01*
X141387567Y-76217934D01*
X141387564Y-76217936D01*
X141241936Y-76363564D01*
X141241934Y-76363567D01*
X141120873Y-76530193D01*
X141027367Y-76713708D01*
X141027364Y-76713714D01*
X140963721Y-76909587D01*
X140963720Y-76909590D01*
X140963720Y-76909592D01*
X140931500Y-77113019D01*
X135928500Y-77113019D01*
X135896280Y-76909592D01*
X135832634Y-76713710D01*
X135739129Y-76530197D01*
X135618068Y-76363570D01*
X135618065Y-76363567D01*
X135618063Y-76363564D01*
X135472435Y-76217936D01*
X135472432Y-76217934D01*
X135472430Y-76217932D01*
X135305803Y-76096871D01*
X135122290Y-76003366D01*
X135122287Y-76003365D01*
X135122285Y-76003364D01*
X134926412Y-75939721D01*
X134926410Y-75939720D01*
X134926408Y-75939720D01*
X134722981Y-75907500D01*
X134517019Y-75907500D01*
X134313592Y-75939720D01*
X134313590Y-75939720D01*
X134313587Y-75939721D01*
X134117714Y-76003364D01*
X134117708Y-76003367D01*
X133934193Y-76096873D01*
X133767567Y-76217934D01*
X133767564Y-76217936D01*
X133621936Y-76363564D01*
X133621934Y-76363567D01*
X133555097Y-76455561D01*
X133498875Y-76498915D01*
X133453161Y-76507500D01*
X132484839Y-76507500D01*
X132416718Y-76487498D01*
X132382903Y-76455561D01*
X132336041Y-76391061D01*
X132316068Y-76363570D01*
X132316065Y-76363567D01*
X132316063Y-76363564D01*
X132170435Y-76217936D01*
X132170432Y-76217934D01*
X132170430Y-76217932D01*
X132003803Y-76096871D01*
X131820290Y-76003366D01*
X131820287Y-76003365D01*
X131820285Y-76003364D01*
X131624412Y-75939721D01*
X131624410Y-75939720D01*
X131624408Y-75939720D01*
X131420981Y-75907500D01*
X131215019Y-75907500D01*
X131011592Y-75939720D01*
X131011590Y-75939720D01*
X131011587Y-75939721D01*
X130815714Y-76003364D01*
X130815708Y-76003367D01*
X130632193Y-76096873D01*
X130465567Y-76217934D01*
X130465564Y-76217936D01*
X130319936Y-76363564D01*
X130319934Y-76363567D01*
X130198873Y-76530193D01*
X130105367Y-76713708D01*
X130105364Y-76713714D01*
X130041721Y-76909587D01*
X130041720Y-76909590D01*
X130041720Y-76909592D01*
X130009500Y-77113019D01*
X125006500Y-77113019D01*
X124974280Y-76909592D01*
X124910634Y-76713710D01*
X124817129Y-76530197D01*
X124696068Y-76363570D01*
X124696065Y-76363567D01*
X124696063Y-76363564D01*
X124550435Y-76217936D01*
X124550432Y-76217934D01*
X124550430Y-76217932D01*
X124383803Y-76096871D01*
X124200290Y-76003366D01*
X124200287Y-76003365D01*
X124200285Y-76003364D01*
X124004412Y-75939721D01*
X124004410Y-75939720D01*
X124004408Y-75939720D01*
X123800981Y-75907500D01*
X123595019Y-75907500D01*
X123391592Y-75939720D01*
X123391590Y-75939720D01*
X123391587Y-75939721D01*
X123195714Y-76003364D01*
X123195708Y-76003367D01*
X123012193Y-76096873D01*
X122845567Y-76217934D01*
X122845564Y-76217936D01*
X122699936Y-76363564D01*
X122699934Y-76363567D01*
X122578873Y-76530193D01*
X122485367Y-76713708D01*
X122485364Y-76713714D01*
X122421721Y-76909587D01*
X122421720Y-76909590D01*
X122421720Y-76909592D01*
X122392175Y-77096135D01*
X122389500Y-77113022D01*
X122389500Y-77216339D01*
X122369498Y-77284460D01*
X122352595Y-77305434D01*
X121503434Y-78154595D01*
X121441122Y-78188621D01*
X121414339Y-78191500D01*
X119972189Y-78191500D01*
X119904068Y-78171498D01*
X119883094Y-78154595D01*
X119734435Y-78005936D01*
X119734432Y-78005934D01*
X119734430Y-78005932D01*
X119567803Y-77884871D01*
X119492034Y-77846265D01*
X119440422Y-77797519D01*
X119423356Y-77728604D01*
X119446257Y-77661402D01*
X119492034Y-77621735D01*
X119567803Y-77583129D01*
X119734430Y-77462068D01*
X119880068Y-77316430D01*
X119946903Y-77224438D01*
X120003125Y-77181085D01*
X120048839Y-77172500D01*
X120405777Y-77172500D01*
X120405782Y-77172500D01*
X120474221Y-77158886D01*
X120542662Y-77145273D01*
X120587933Y-77126521D01*
X120671601Y-77091865D01*
X120787643Y-77014328D01*
X123558565Y-74243404D01*
X123620877Y-74209380D01*
X123647660Y-74206500D01*
X123800978Y-74206500D01*
X123800981Y-74206500D01*
X124004408Y-74174280D01*
X124200290Y-74110634D01*
X124383803Y-74017129D01*
X124550430Y-73896068D01*
X124696068Y-73750430D01*
X124817129Y-73583803D01*
X124910634Y-73400290D01*
X124974280Y-73204408D01*
X125006500Y-73000981D01*
X125006500Y-72795019D01*
X130009500Y-72795019D01*
X130009500Y-73000981D01*
X130040309Y-73195498D01*
X130041721Y-73204412D01*
X130100592Y-73385599D01*
X130105366Y-73400290D01*
X130196563Y-73579273D01*
X130198873Y-73583806D01*
X130221599Y-73615085D01*
X130319932Y-73750430D01*
X130319934Y-73750432D01*
X130319936Y-73750435D01*
X130465564Y-73896063D01*
X130465567Y-73896065D01*
X130465570Y-73896068D01*
X130632197Y-74017129D01*
X130815710Y-74110634D01*
X131011592Y-74174280D01*
X131215019Y-74206500D01*
X131215022Y-74206500D01*
X131420978Y-74206500D01*
X131420981Y-74206500D01*
X131624408Y-74174280D01*
X131820290Y-74110634D01*
X132003803Y-74017129D01*
X132170430Y-73896068D01*
X132316068Y-73750430D01*
X132382903Y-73658438D01*
X132439125Y-73615085D01*
X132484839Y-73606500D01*
X133453161Y-73606500D01*
X133521282Y-73626502D01*
X133555096Y-73658438D01*
X133621932Y-73750430D01*
X133621934Y-73750432D01*
X133621936Y-73750435D01*
X133767564Y-73896063D01*
X133767567Y-73896065D01*
X133767570Y-73896068D01*
X133934197Y-74017129D01*
X134117710Y-74110634D01*
X134313592Y-74174280D01*
X134517019Y-74206500D01*
X134517022Y-74206500D01*
X134722978Y-74206500D01*
X134722981Y-74206500D01*
X134926408Y-74174280D01*
X135122290Y-74110634D01*
X135305803Y-74017129D01*
X135472430Y-73896068D01*
X135618068Y-73750430D01*
X135739129Y-73583803D01*
X135832634Y-73400290D01*
X135896280Y-73204408D01*
X135928500Y-73000981D01*
X135928500Y-72795019D01*
X140931500Y-72795019D01*
X140931500Y-73000981D01*
X140962309Y-73195498D01*
X140963721Y-73204412D01*
X141022592Y-73385599D01*
X141027366Y-73400290D01*
X141118563Y-73579273D01*
X141120873Y-73583806D01*
X141143599Y-73615085D01*
X141241932Y-73750430D01*
X141241934Y-73750432D01*
X141241936Y-73750435D01*
X141387564Y-73896063D01*
X141387567Y-73896065D01*
X141387570Y-73896068D01*
X141554197Y-74017129D01*
X141737710Y-74110634D01*
X141933592Y-74174280D01*
X142137019Y-74206500D01*
X142137022Y-74206500D01*
X142342978Y-74206500D01*
X142342981Y-74206500D01*
X142546408Y-74174280D01*
X142742290Y-74110634D01*
X142925803Y-74017129D01*
X143092430Y-73896068D01*
X143238068Y-73750430D01*
X143303450Y-73660438D01*
X143359672Y-73617085D01*
X143405386Y-73608500D01*
X144376614Y-73608500D01*
X144444735Y-73628502D01*
X144478549Y-73660438D01*
X144543932Y-73750430D01*
X144543934Y-73750432D01*
X144543936Y-73750435D01*
X144689564Y-73896063D01*
X144689567Y-73896065D01*
X144689570Y-73896068D01*
X144856197Y-74017129D01*
X145039710Y-74110634D01*
X145235592Y-74174280D01*
X145439019Y-74206500D01*
X145439022Y-74206500D01*
X145644978Y-74206500D01*
X145644981Y-74206500D01*
X145848408Y-74174280D01*
X146044290Y-74110634D01*
X146227803Y-74017129D01*
X146394430Y-73896068D01*
X146540068Y-73750430D01*
X146606903Y-73658438D01*
X146663125Y-73615085D01*
X146708839Y-73606500D01*
X146881781Y-73606500D01*
X146881782Y-73606500D01*
X146972782Y-73588399D01*
X147018662Y-73579273D01*
X147058766Y-73562661D01*
X147147601Y-73525865D01*
X147263643Y-73448328D01*
X151894565Y-68817404D01*
X151921929Y-68802462D01*
X151948162Y-68785604D01*
X151954463Y-68784697D01*
X151956877Y-68783380D01*
X151983660Y-68780500D01*
X151995161Y-68780500D01*
X152063282Y-68800502D01*
X152097096Y-68832438D01*
X152163932Y-68924430D01*
X152163934Y-68924432D01*
X152163936Y-68924435D01*
X152309564Y-69070063D01*
X152309567Y-69070065D01*
X152309570Y-69070068D01*
X152476197Y-69191129D01*
X152659710Y-69284634D01*
X152855592Y-69348280D01*
X153059019Y-69380500D01*
X153059022Y-69380500D01*
X153264978Y-69380500D01*
X153264981Y-69380500D01*
X153468408Y-69348280D01*
X153664290Y-69284634D01*
X153847803Y-69191129D01*
X154014430Y-69070068D01*
X154160068Y-68924430D01*
X154281129Y-68757803D01*
X154374634Y-68574290D01*
X154438280Y-68378408D01*
X154470500Y-68174981D01*
X154470500Y-67969019D01*
X154438280Y-67765592D01*
X154374634Y-67569710D01*
X154281129Y-67386197D01*
X154160068Y-67219570D01*
X154160065Y-67219567D01*
X154160063Y-67219564D01*
X154014435Y-67073936D01*
X154014432Y-67073934D01*
X154014430Y-67073932D01*
X153847803Y-66952871D01*
X153664290Y-66859366D01*
X153664287Y-66859365D01*
X153664285Y-66859364D01*
X153468412Y-66795721D01*
X153468410Y-66795720D01*
X153468408Y-66795720D01*
X153264981Y-66763500D01*
X153059019Y-66763500D01*
X152855592Y-66795720D01*
X152855590Y-66795720D01*
X152855587Y-66795721D01*
X152659714Y-66859364D01*
X152659708Y-66859367D01*
X152476193Y-66952873D01*
X152309567Y-67073934D01*
X152309564Y-67073936D01*
X152163936Y-67219564D01*
X152163934Y-67219567D01*
X152097097Y-67311561D01*
X152040875Y-67354915D01*
X151995161Y-67363500D01*
X151568216Y-67363500D01*
X151431337Y-67390727D01*
X151431332Y-67390729D01*
X151377930Y-67412848D01*
X151377930Y-67412849D01*
X151302400Y-67444135D01*
X151302398Y-67444136D01*
X151186362Y-67521669D01*
X151186355Y-67521674D01*
X146690358Y-72017669D01*
X146628046Y-72051695D01*
X146557230Y-72046630D01*
X146512168Y-72017669D01*
X146394435Y-71899936D01*
X146394432Y-71899934D01*
X146394430Y-71899932D01*
X146227803Y-71778871D01*
X146044290Y-71685366D01*
X146044287Y-71685365D01*
X146044285Y-71685364D01*
X145848412Y-71621721D01*
X145848410Y-71621720D01*
X145848408Y-71621720D01*
X145644981Y-71589500D01*
X145439019Y-71589500D01*
X145235592Y-71621720D01*
X145235590Y-71621720D01*
X145235587Y-71621721D01*
X145039714Y-71685364D01*
X145039708Y-71685367D01*
X144856193Y-71778873D01*
X144689567Y-71899934D01*
X144689564Y-71899936D01*
X144543936Y-72045564D01*
X144543934Y-72045567D01*
X144475644Y-72139561D01*
X144419422Y-72182915D01*
X144373708Y-72191500D01*
X143408292Y-72191500D01*
X143340171Y-72171498D01*
X143306356Y-72139561D01*
X143289571Y-72116458D01*
X143238068Y-72045570D01*
X143238065Y-72045567D01*
X143238063Y-72045564D01*
X143092435Y-71899936D01*
X143092432Y-71899934D01*
X143092430Y-71899932D01*
X142925803Y-71778871D01*
X142742290Y-71685366D01*
X142742287Y-71685365D01*
X142742285Y-71685364D01*
X142546412Y-71621721D01*
X142546410Y-71621720D01*
X142546408Y-71621720D01*
X142342981Y-71589500D01*
X142137019Y-71589500D01*
X141933592Y-71621720D01*
X141933590Y-71621720D01*
X141933587Y-71621721D01*
X141737714Y-71685364D01*
X141737708Y-71685367D01*
X141554193Y-71778873D01*
X141387567Y-71899934D01*
X141387564Y-71899936D01*
X141241936Y-72045564D01*
X141241934Y-72045567D01*
X141120873Y-72212193D01*
X141027367Y-72395708D01*
X141027364Y-72395714D01*
X140963721Y-72591587D01*
X140963720Y-72591590D01*
X140963720Y-72591592D01*
X140931500Y-72795019D01*
X135928500Y-72795019D01*
X135896280Y-72591592D01*
X135832634Y-72395710D01*
X135739129Y-72212197D01*
X135618068Y-72045570D01*
X135618065Y-72045567D01*
X135618063Y-72045564D01*
X135472435Y-71899936D01*
X135472432Y-71899934D01*
X135472430Y-71899932D01*
X135305803Y-71778871D01*
X135122290Y-71685366D01*
X135122287Y-71685365D01*
X135122285Y-71685364D01*
X134926412Y-71621721D01*
X134926410Y-71621720D01*
X134926408Y-71621720D01*
X134722981Y-71589500D01*
X134517019Y-71589500D01*
X134313592Y-71621720D01*
X134313590Y-71621720D01*
X134313587Y-71621721D01*
X134117714Y-71685364D01*
X134117708Y-71685367D01*
X133934193Y-71778873D01*
X133767567Y-71899934D01*
X133767564Y-71899936D01*
X133621936Y-72045564D01*
X133621934Y-72045567D01*
X133555097Y-72137561D01*
X133498875Y-72180915D01*
X133453161Y-72189500D01*
X132484839Y-72189500D01*
X132416718Y-72169498D01*
X132382903Y-72137561D01*
X132367571Y-72116458D01*
X132316068Y-72045570D01*
X132316065Y-72045567D01*
X132316063Y-72045564D01*
X132170435Y-71899936D01*
X132170432Y-71899934D01*
X132170430Y-71899932D01*
X132003803Y-71778871D01*
X131820290Y-71685366D01*
X131820287Y-71685365D01*
X131820285Y-71685364D01*
X131624412Y-71621721D01*
X131624410Y-71621720D01*
X131624408Y-71621720D01*
X131420981Y-71589500D01*
X131215019Y-71589500D01*
X131011592Y-71621720D01*
X131011590Y-71621720D01*
X131011587Y-71621721D01*
X130815714Y-71685364D01*
X130815708Y-71685367D01*
X130632193Y-71778873D01*
X130465567Y-71899934D01*
X130465564Y-71899936D01*
X130319936Y-72045564D01*
X130319934Y-72045567D01*
X130198873Y-72212193D01*
X130105367Y-72395708D01*
X130105364Y-72395714D01*
X130041721Y-72591587D01*
X130041720Y-72591590D01*
X130041720Y-72591592D01*
X130009500Y-72795019D01*
X125006500Y-72795019D01*
X124974280Y-72591592D01*
X124910634Y-72395710D01*
X124817129Y-72212197D01*
X124696068Y-72045570D01*
X124696065Y-72045567D01*
X124696063Y-72045564D01*
X124550435Y-71899936D01*
X124550432Y-71899934D01*
X124550430Y-71899932D01*
X124383803Y-71778871D01*
X124200290Y-71685366D01*
X124200287Y-71685365D01*
X124200285Y-71685364D01*
X124004412Y-71621721D01*
X124004410Y-71621720D01*
X124004408Y-71621720D01*
X123800981Y-71589500D01*
X123595019Y-71589500D01*
X123391592Y-71621720D01*
X123391590Y-71621720D01*
X123391587Y-71621721D01*
X123195714Y-71685364D01*
X123195708Y-71685367D01*
X123012193Y-71778873D01*
X122845567Y-71899934D01*
X122845564Y-71899936D01*
X122699936Y-72045564D01*
X122699934Y-72045567D01*
X122578873Y-72212193D01*
X122485367Y-72395708D01*
X122485364Y-72395714D01*
X122421721Y-72591587D01*
X122421720Y-72591590D01*
X122421720Y-72591592D01*
X122389500Y-72795019D01*
X122389500Y-73000981D01*
X122420309Y-73195498D01*
X122421721Y-73204413D01*
X122440016Y-73260720D01*
X122442043Y-73331688D01*
X122409278Y-73388750D01*
X120113316Y-75684712D01*
X120051004Y-75718738D01*
X119980189Y-75713673D01*
X119923353Y-75671126D01*
X119922356Y-75669775D01*
X119880068Y-75611570D01*
X119880065Y-75611567D01*
X119880063Y-75611564D01*
X119734435Y-75465936D01*
X119734432Y-75465934D01*
X119734430Y-75465932D01*
X119567803Y-75344871D01*
X119492034Y-75306265D01*
X119440422Y-75257519D01*
X119423356Y-75188604D01*
X119446257Y-75121402D01*
X119492034Y-75081735D01*
X119567803Y-75043129D01*
X119734430Y-74922068D01*
X119880068Y-74776430D01*
X119946903Y-74684438D01*
X120003125Y-74641085D01*
X120048839Y-74632500D01*
X120295777Y-74632500D01*
X120295782Y-74632500D01*
X120364221Y-74618886D01*
X120432662Y-74605273D01*
X120470427Y-74589630D01*
X120561601Y-74551865D01*
X120677643Y-74474328D01*
X121650328Y-73501642D01*
X121727865Y-73385600D01*
X121781273Y-73256661D01*
X121789461Y-73215500D01*
X121808500Y-73119781D01*
X121808500Y-69237661D01*
X121828502Y-69169540D01*
X121845405Y-69148566D01*
X122176566Y-68817405D01*
X122238878Y-68783379D01*
X122265661Y-68780500D01*
X122531161Y-68780500D01*
X122599282Y-68800502D01*
X122633096Y-68832438D01*
X122699932Y-68924430D01*
X122699934Y-68924432D01*
X122699936Y-68924435D01*
X122845564Y-69070063D01*
X122845567Y-69070065D01*
X122845570Y-69070068D01*
X123012197Y-69191129D01*
X123195710Y-69284634D01*
X123391592Y-69348280D01*
X123595019Y-69380500D01*
X123595022Y-69380500D01*
X123800978Y-69380500D01*
X123800981Y-69380500D01*
X124004408Y-69348280D01*
X124200290Y-69284634D01*
X124383803Y-69191129D01*
X124550430Y-69070068D01*
X124696068Y-68924430D01*
X124817129Y-68757803D01*
X124910634Y-68574290D01*
X124974280Y-68378408D01*
X125006500Y-68174981D01*
X125006500Y-67969019D01*
X130009500Y-67969019D01*
X130009500Y-68174981D01*
X130036297Y-68344167D01*
X130041721Y-68378412D01*
X130105180Y-68573720D01*
X130105366Y-68574290D01*
X130196563Y-68753273D01*
X130198873Y-68757806D01*
X130221599Y-68789085D01*
X130319932Y-68924430D01*
X130319934Y-68924432D01*
X130319936Y-68924435D01*
X130465564Y-69070063D01*
X130465567Y-69070065D01*
X130465570Y-69070068D01*
X130632197Y-69191129D01*
X130815710Y-69284634D01*
X131011592Y-69348280D01*
X131215019Y-69380500D01*
X131215022Y-69380500D01*
X131420978Y-69380500D01*
X131420981Y-69380500D01*
X131624408Y-69348280D01*
X131820290Y-69284634D01*
X132003803Y-69191129D01*
X132170430Y-69070068D01*
X132316068Y-68924430D01*
X132382903Y-68832438D01*
X132439125Y-68789085D01*
X132484839Y-68780500D01*
X133453161Y-68780500D01*
X133521282Y-68800502D01*
X133555096Y-68832438D01*
X133621932Y-68924430D01*
X133621934Y-68924432D01*
X133621936Y-68924435D01*
X133767564Y-69070063D01*
X133767567Y-69070065D01*
X133767570Y-69070068D01*
X133934197Y-69191129D01*
X134117710Y-69284634D01*
X134313592Y-69348280D01*
X134517019Y-69380500D01*
X134517022Y-69380500D01*
X134722978Y-69380500D01*
X134722981Y-69380500D01*
X134926408Y-69348280D01*
X135122290Y-69284634D01*
X135305803Y-69191129D01*
X135472430Y-69070068D01*
X135618068Y-68924430D01*
X135739129Y-68757803D01*
X135832634Y-68574290D01*
X135896280Y-68378408D01*
X135928500Y-68174981D01*
X135928500Y-67969019D01*
X140931500Y-67969019D01*
X140931500Y-68174981D01*
X140958297Y-68344167D01*
X140963721Y-68378412D01*
X141027180Y-68573720D01*
X141027366Y-68574290D01*
X141118563Y-68753273D01*
X141120873Y-68757806D01*
X141143599Y-68789085D01*
X141241932Y-68924430D01*
X141241934Y-68924432D01*
X141241936Y-68924435D01*
X141387564Y-69070063D01*
X141387567Y-69070065D01*
X141387570Y-69070068D01*
X141554197Y-69191129D01*
X141737710Y-69284634D01*
X141933592Y-69348280D01*
X142137019Y-69380500D01*
X142137022Y-69380500D01*
X142342978Y-69380500D01*
X142342981Y-69380500D01*
X142546408Y-69348280D01*
X142742290Y-69284634D01*
X142925803Y-69191129D01*
X143092430Y-69070068D01*
X143238068Y-68924430D01*
X143304903Y-68832438D01*
X143361125Y-68789085D01*
X143406839Y-68780500D01*
X144375161Y-68780500D01*
X144443282Y-68800502D01*
X144477096Y-68832438D01*
X144543932Y-68924430D01*
X144543934Y-68924432D01*
X144543936Y-68924435D01*
X144689564Y-69070063D01*
X144689567Y-69070065D01*
X144689570Y-69070068D01*
X144856197Y-69191129D01*
X145039710Y-69284634D01*
X145235592Y-69348280D01*
X145439019Y-69380500D01*
X145439022Y-69380500D01*
X145644978Y-69380500D01*
X145644981Y-69380500D01*
X145848408Y-69348280D01*
X146044290Y-69284634D01*
X146227803Y-69191129D01*
X146394430Y-69070068D01*
X146540068Y-68924430D01*
X146606903Y-68832438D01*
X146663125Y-68789085D01*
X146708839Y-68780500D01*
X147643777Y-68780500D01*
X147643782Y-68780500D01*
X147712221Y-68766886D01*
X147780662Y-68753273D01*
X147818427Y-68737630D01*
X147909601Y-68699865D01*
X148025643Y-68622328D01*
X151894565Y-64753404D01*
X151921929Y-64738462D01*
X151948162Y-64721604D01*
X151954463Y-64720697D01*
X151956877Y-64719380D01*
X151983660Y-64716500D01*
X151995161Y-64716500D01*
X152063282Y-64736502D01*
X152097096Y-64768438D01*
X152163932Y-64860430D01*
X152163934Y-64860432D01*
X152163936Y-64860435D01*
X152309564Y-65006063D01*
X152309567Y-65006065D01*
X152309570Y-65006068D01*
X152476197Y-65127129D01*
X152659710Y-65220634D01*
X152855592Y-65284280D01*
X153059019Y-65316500D01*
X153059022Y-65316500D01*
X153264978Y-65316500D01*
X153264981Y-65316500D01*
X153468408Y-65284280D01*
X153664290Y-65220634D01*
X153847803Y-65127129D01*
X154014430Y-65006068D01*
X154160068Y-64860430D01*
X154281129Y-64693803D01*
X154374634Y-64510290D01*
X154438280Y-64314408D01*
X154470500Y-64110981D01*
X154470500Y-63905019D01*
X154438280Y-63701592D01*
X154374634Y-63505710D01*
X154281129Y-63322197D01*
X154160068Y-63155570D01*
X154160065Y-63155567D01*
X154160063Y-63155564D01*
X154014435Y-63009936D01*
X154014432Y-63009934D01*
X154014430Y-63009932D01*
X153847803Y-62888871D01*
X153664290Y-62795366D01*
X153664287Y-62795365D01*
X153664285Y-62795364D01*
X153468412Y-62731721D01*
X153468410Y-62731720D01*
X153468408Y-62731720D01*
X153264981Y-62699500D01*
X153059019Y-62699500D01*
X152855592Y-62731720D01*
X152855590Y-62731720D01*
X152855587Y-62731721D01*
X152659714Y-62795364D01*
X152659708Y-62795367D01*
X152476193Y-62888873D01*
X152309567Y-63009934D01*
X152309564Y-63009936D01*
X152163936Y-63155564D01*
X152163934Y-63155567D01*
X152097097Y-63247561D01*
X152040875Y-63290915D01*
X151995161Y-63299500D01*
X151568213Y-63299500D01*
X151431342Y-63326725D01*
X151431339Y-63326726D01*
X151393572Y-63342368D01*
X151393572Y-63342369D01*
X151374690Y-63350190D01*
X151302400Y-63380133D01*
X151186354Y-63457674D01*
X151186352Y-63457676D01*
X147317434Y-67326595D01*
X147255122Y-67360621D01*
X147228339Y-67363500D01*
X146708839Y-67363500D01*
X146640718Y-67343498D01*
X146606903Y-67311561D01*
X146555070Y-67240219D01*
X146540068Y-67219570D01*
X146540065Y-67219567D01*
X146540063Y-67219564D01*
X146394435Y-67073936D01*
X146394432Y-67073934D01*
X146394430Y-67073932D01*
X146227803Y-66952871D01*
X146044290Y-66859366D01*
X146044287Y-66859365D01*
X146044285Y-66859364D01*
X145848412Y-66795721D01*
X145848410Y-66795720D01*
X145848408Y-66795720D01*
X145644981Y-66763500D01*
X145439019Y-66763500D01*
X145235592Y-66795720D01*
X145235590Y-66795720D01*
X145235587Y-66795721D01*
X145039714Y-66859364D01*
X145039708Y-66859367D01*
X144856193Y-66952873D01*
X144689567Y-67073934D01*
X144689564Y-67073936D01*
X144543936Y-67219564D01*
X144543934Y-67219567D01*
X144477097Y-67311561D01*
X144420875Y-67354915D01*
X144375161Y-67363500D01*
X143406839Y-67363500D01*
X143338718Y-67343498D01*
X143304903Y-67311561D01*
X143253070Y-67240219D01*
X143238068Y-67219570D01*
X143238065Y-67219567D01*
X143238063Y-67219564D01*
X143092435Y-67073936D01*
X143092432Y-67073934D01*
X143092430Y-67073932D01*
X142925803Y-66952871D01*
X142742290Y-66859366D01*
X142742287Y-66859365D01*
X142742285Y-66859364D01*
X142546412Y-66795721D01*
X142546410Y-66795720D01*
X142546408Y-66795720D01*
X142342981Y-66763500D01*
X142137019Y-66763500D01*
X141933592Y-66795720D01*
X141933590Y-66795720D01*
X141933587Y-66795721D01*
X141737714Y-66859364D01*
X141737708Y-66859367D01*
X141554193Y-66952873D01*
X141387567Y-67073934D01*
X141387564Y-67073936D01*
X141241936Y-67219564D01*
X141241934Y-67219567D01*
X141120873Y-67386193D01*
X141027367Y-67569708D01*
X141027364Y-67569714D01*
X140963721Y-67765587D01*
X140963720Y-67765590D01*
X140963720Y-67765592D01*
X140931500Y-67969019D01*
X135928500Y-67969019D01*
X135896280Y-67765592D01*
X135832634Y-67569710D01*
X135739129Y-67386197D01*
X135618068Y-67219570D01*
X135618065Y-67219567D01*
X135618063Y-67219564D01*
X135472435Y-67073936D01*
X135472432Y-67073934D01*
X135472430Y-67073932D01*
X135305803Y-66952871D01*
X135122290Y-66859366D01*
X135122287Y-66859365D01*
X135122285Y-66859364D01*
X134926412Y-66795721D01*
X134926410Y-66795720D01*
X134926408Y-66795720D01*
X134722981Y-66763500D01*
X134517019Y-66763500D01*
X134313592Y-66795720D01*
X134313590Y-66795720D01*
X134313587Y-66795721D01*
X134117714Y-66859364D01*
X134117708Y-66859367D01*
X133934193Y-66952873D01*
X133767567Y-67073934D01*
X133767564Y-67073936D01*
X133621936Y-67219564D01*
X133621934Y-67219567D01*
X133555097Y-67311561D01*
X133498875Y-67354915D01*
X133453161Y-67363500D01*
X132484839Y-67363500D01*
X132416718Y-67343498D01*
X132382903Y-67311561D01*
X132331070Y-67240219D01*
X132316068Y-67219570D01*
X132316065Y-67219567D01*
X132316063Y-67219564D01*
X132170435Y-67073936D01*
X132170432Y-67073934D01*
X132170430Y-67073932D01*
X132003803Y-66952871D01*
X131820290Y-66859366D01*
X131820287Y-66859365D01*
X131820285Y-66859364D01*
X131624412Y-66795721D01*
X131624410Y-66795720D01*
X131624408Y-66795720D01*
X131420981Y-66763500D01*
X131215019Y-66763500D01*
X131011592Y-66795720D01*
X131011590Y-66795720D01*
X131011587Y-66795721D01*
X130815714Y-66859364D01*
X130815708Y-66859367D01*
X130632193Y-66952873D01*
X130465567Y-67073934D01*
X130465564Y-67073936D01*
X130319936Y-67219564D01*
X130319934Y-67219567D01*
X130198873Y-67386193D01*
X130105367Y-67569708D01*
X130105364Y-67569714D01*
X130041721Y-67765587D01*
X130041720Y-67765590D01*
X130041720Y-67765592D01*
X130009500Y-67969019D01*
X125006500Y-67969019D01*
X124974280Y-67765592D01*
X124910634Y-67569710D01*
X124817129Y-67386197D01*
X124696068Y-67219570D01*
X124696065Y-67219567D01*
X124696063Y-67219564D01*
X124550435Y-67073936D01*
X124550432Y-67073934D01*
X124550430Y-67073932D01*
X124383803Y-66952871D01*
X124200290Y-66859366D01*
X124200287Y-66859365D01*
X124200285Y-66859364D01*
X124004412Y-66795721D01*
X124004410Y-66795720D01*
X124004408Y-66795720D01*
X123800981Y-66763500D01*
X123595019Y-66763500D01*
X123391592Y-66795720D01*
X123391590Y-66795720D01*
X123391587Y-66795721D01*
X123195714Y-66859364D01*
X123195708Y-66859367D01*
X123012193Y-66952873D01*
X122845567Y-67073934D01*
X122845564Y-67073936D01*
X122699936Y-67219564D01*
X122699934Y-67219567D01*
X122633097Y-67311561D01*
X122576875Y-67354915D01*
X122531161Y-67363500D01*
X121850212Y-67363500D01*
X121781779Y-67377112D01*
X121781778Y-67377113D01*
X121736151Y-67386189D01*
X121713337Y-67390727D01*
X121713334Y-67390728D01*
X121675572Y-67406368D01*
X121675572Y-67406369D01*
X121651757Y-67416233D01*
X121584401Y-67444133D01*
X121584400Y-67444134D01*
X121468357Y-67521671D01*
X121468351Y-67521676D01*
X120549676Y-68440351D01*
X120549671Y-68440357D01*
X120509574Y-68500367D01*
X120472135Y-68556399D01*
X120464724Y-68574291D01*
X120444827Y-68622327D01*
X120418729Y-68685331D01*
X120418727Y-68685336D01*
X120418727Y-68685338D01*
X120413427Y-68711986D01*
X120410268Y-68727866D01*
X120392772Y-68815824D01*
X120392771Y-68815828D01*
X120391500Y-68822215D01*
X120391500Y-70999836D01*
X120371498Y-71067957D01*
X120317842Y-71114450D01*
X120247568Y-71124554D01*
X120182988Y-71095060D01*
X120145667Y-71038773D01*
X120142982Y-71030512D01*
X120094634Y-70881710D01*
X120001129Y-70698197D01*
X119880068Y-70531570D01*
X119880065Y-70531567D01*
X119880063Y-70531564D01*
X119734432Y-70385933D01*
X119632439Y-70311831D01*
X119589085Y-70255608D01*
X119580500Y-70209895D01*
X119580500Y-67655661D01*
X119600502Y-67587540D01*
X119617405Y-67566566D01*
X122430566Y-64753405D01*
X122457934Y-64738460D01*
X122484163Y-64721604D01*
X122490461Y-64720698D01*
X122492878Y-64719379D01*
X122519661Y-64716500D01*
X122531161Y-64716500D01*
X122599282Y-64736502D01*
X122633096Y-64768438D01*
X122699932Y-64860430D01*
X122699934Y-64860432D01*
X122699936Y-64860435D01*
X122845564Y-65006063D01*
X122845567Y-65006065D01*
X122845570Y-65006068D01*
X123012197Y-65127129D01*
X123195710Y-65220634D01*
X123391592Y-65284280D01*
X123595019Y-65316500D01*
X123595022Y-65316500D01*
X123800978Y-65316500D01*
X123800981Y-65316500D01*
X124004408Y-65284280D01*
X124200290Y-65220634D01*
X124383803Y-65127129D01*
X124550430Y-65006068D01*
X124696068Y-64860430D01*
X124817129Y-64693803D01*
X124910634Y-64510290D01*
X124974280Y-64314408D01*
X125006500Y-64110981D01*
X125006500Y-63905019D01*
X130009500Y-63905019D01*
X130009500Y-64110981D01*
X130041720Y-64314408D01*
X130041721Y-64314412D01*
X130072753Y-64409920D01*
X130105366Y-64510290D01*
X130198871Y-64693803D01*
X130198873Y-64693806D01*
X130221599Y-64725085D01*
X130319932Y-64860430D01*
X130319934Y-64860432D01*
X130319936Y-64860435D01*
X130465564Y-65006063D01*
X130465567Y-65006065D01*
X130465570Y-65006068D01*
X130632197Y-65127129D01*
X130815710Y-65220634D01*
X131011592Y-65284280D01*
X131215019Y-65316500D01*
X131215022Y-65316500D01*
X131420978Y-65316500D01*
X131420981Y-65316500D01*
X131624408Y-65284280D01*
X131820290Y-65220634D01*
X132003803Y-65127129D01*
X132170430Y-65006068D01*
X132170438Y-65006059D01*
X132174197Y-65002851D01*
X132175226Y-65004056D01*
X132231406Y-64973379D01*
X132258189Y-64970500D01*
X133679811Y-64970500D01*
X133747932Y-64990502D01*
X133763579Y-65003112D01*
X133763803Y-65002851D01*
X133767565Y-65006063D01*
X133767570Y-65006068D01*
X133934197Y-65127129D01*
X134117710Y-65220634D01*
X134313592Y-65284280D01*
X134517019Y-65316500D01*
X134517022Y-65316500D01*
X134722978Y-65316500D01*
X134722981Y-65316500D01*
X134926408Y-65284280D01*
X135122290Y-65220634D01*
X135305803Y-65127129D01*
X135472430Y-65006068D01*
X135618068Y-64860430D01*
X135739129Y-64693803D01*
X135832634Y-64510290D01*
X135896280Y-64314408D01*
X135928500Y-64110981D01*
X135928500Y-63905019D01*
X135896280Y-63701592D01*
X135832634Y-63505710D01*
X135739129Y-63322197D01*
X135618068Y-63155570D01*
X135618065Y-63155567D01*
X135618063Y-63155564D01*
X135472435Y-63009936D01*
X135472432Y-63009934D01*
X135472430Y-63009932D01*
X135305803Y-62888871D01*
X135122290Y-62795366D01*
X135122287Y-62795365D01*
X135122285Y-62795364D01*
X134926412Y-62731721D01*
X134926410Y-62731720D01*
X134926408Y-62731720D01*
X134722981Y-62699500D01*
X134517019Y-62699500D01*
X134313592Y-62731720D01*
X134313590Y-62731720D01*
X134313587Y-62731721D01*
X134117714Y-62795364D01*
X134117708Y-62795367D01*
X133934193Y-62888873D01*
X133767567Y-63009934D01*
X133767564Y-63009936D01*
X133621936Y-63155564D01*
X133621934Y-63155567D01*
X133500873Y-63322193D01*
X133500871Y-63322197D01*
X133439368Y-63442904D01*
X133418070Y-63484703D01*
X133369321Y-63536318D01*
X133305803Y-63553500D01*
X132632197Y-63553500D01*
X132564076Y-63533498D01*
X132519930Y-63484703D01*
X132506157Y-63457672D01*
X132437129Y-63322197D01*
X132316068Y-63155570D01*
X132316065Y-63155567D01*
X132316063Y-63155564D01*
X132170435Y-63009936D01*
X132170432Y-63009934D01*
X132170430Y-63009932D01*
X132003803Y-62888871D01*
X131820290Y-62795366D01*
X131820287Y-62795365D01*
X131820285Y-62795364D01*
X131624412Y-62731721D01*
X131624410Y-62731720D01*
X131624408Y-62731720D01*
X131420981Y-62699500D01*
X131215019Y-62699500D01*
X131011592Y-62731720D01*
X131011590Y-62731720D01*
X131011587Y-62731721D01*
X130815714Y-62795364D01*
X130815708Y-62795367D01*
X130632193Y-62888873D01*
X130465567Y-63009934D01*
X130465564Y-63009936D01*
X130319936Y-63155564D01*
X130319934Y-63155567D01*
X130198873Y-63322193D01*
X130105367Y-63505708D01*
X130105364Y-63505714D01*
X130041721Y-63701587D01*
X130041720Y-63701590D01*
X130041720Y-63701592D01*
X130009500Y-63905019D01*
X125006500Y-63905019D01*
X124974280Y-63701592D01*
X124910634Y-63505710D01*
X124817129Y-63322197D01*
X124696068Y-63155570D01*
X124696065Y-63155567D01*
X124696063Y-63155564D01*
X124550435Y-63009936D01*
X124550432Y-63009934D01*
X124550430Y-63009932D01*
X124383803Y-62888871D01*
X124200290Y-62795366D01*
X124200287Y-62795365D01*
X124200285Y-62795364D01*
X124004412Y-62731721D01*
X124004410Y-62731720D01*
X124004408Y-62731720D01*
X123800981Y-62699500D01*
X123595019Y-62699500D01*
X123391592Y-62731720D01*
X123391590Y-62731720D01*
X123391587Y-62731721D01*
X123195714Y-62795364D01*
X123195708Y-62795367D01*
X123012193Y-62888873D01*
X122845567Y-63009934D01*
X122845564Y-63009936D01*
X122699936Y-63155564D01*
X122699934Y-63155567D01*
X122633097Y-63247561D01*
X122576875Y-63290915D01*
X122531161Y-63299500D01*
X122104212Y-63299500D01*
X122035779Y-63313112D01*
X122035778Y-63313113D01*
X121990151Y-63322189D01*
X121967337Y-63326727D01*
X121967334Y-63326728D01*
X121929572Y-63342368D01*
X121929572Y-63342369D01*
X121905757Y-63352233D01*
X121838401Y-63380133D01*
X121838400Y-63380134D01*
X121722357Y-63457671D01*
X121722351Y-63457676D01*
X118321676Y-66858351D01*
X118321671Y-66858357D01*
X118244134Y-66974400D01*
X118244133Y-66974401D01*
X118237345Y-66990790D01*
X118206369Y-67065572D01*
X118202906Y-67073934D01*
X118190726Y-67103339D01*
X118190725Y-67103342D01*
X118163500Y-67240213D01*
X118163500Y-70224426D01*
X118143498Y-70292547D01*
X118111561Y-70326362D01*
X118029567Y-70385934D01*
X118029564Y-70385936D01*
X117883936Y-70531564D01*
X117883934Y-70531567D01*
X117762873Y-70698193D01*
X117669367Y-70881708D01*
X117669364Y-70881714D01*
X117605721Y-71077587D01*
X117605720Y-71077590D01*
X117605720Y-71077592D01*
X117573500Y-71281019D01*
X117573500Y-71486981D01*
X117605720Y-71690408D01*
X117669366Y-71886290D01*
X117760563Y-72065273D01*
X117762873Y-72069806D01*
X117779361Y-72092500D01*
X117883932Y-72236430D01*
X117883934Y-72236432D01*
X117883936Y-72236435D01*
X118029564Y-72382063D01*
X118029567Y-72382065D01*
X118029570Y-72382068D01*
X118196197Y-72503129D01*
X118271962Y-72541733D01*
X118323577Y-72590482D01*
X118340643Y-72659397D01*
X118317742Y-72726598D01*
X118271963Y-72766266D01*
X118259811Y-72772458D01*
X118196193Y-72804873D01*
X118029567Y-72925934D01*
X118029564Y-72925936D01*
X117883936Y-73071564D01*
X117883934Y-73071567D01*
X117762873Y-73238193D01*
X117669367Y-73421708D01*
X117669364Y-73421714D01*
X117605721Y-73617587D01*
X117605720Y-73617590D01*
X117605720Y-73617592D01*
X117573500Y-73821019D01*
X117573500Y-74026981D01*
X117605720Y-74230408D01*
X117669366Y-74426290D01*
X117760563Y-74605273D01*
X117762873Y-74609806D01*
X117779361Y-74632500D01*
X117883932Y-74776430D01*
X117883934Y-74776432D01*
X117883936Y-74776435D01*
X118029564Y-74922063D01*
X118029567Y-74922065D01*
X118029570Y-74922068D01*
X118196197Y-75043129D01*
X118271962Y-75081733D01*
X118323577Y-75130482D01*
X118340643Y-75199397D01*
X118317742Y-75266598D01*
X118271963Y-75306266D01*
X118226254Y-75329556D01*
X118196193Y-75344873D01*
X118029567Y-75465934D01*
X118029564Y-75465936D01*
X117883936Y-75611564D01*
X117883934Y-75611567D01*
X117762873Y-75778193D01*
X117669367Y-75961708D01*
X117669364Y-75961714D01*
X117605721Y-76157587D01*
X117605720Y-76157590D01*
X117605720Y-76157592D01*
X117573500Y-76361019D01*
X117573500Y-76566981D01*
X117604995Y-76765829D01*
X117605721Y-76770412D01*
X117666720Y-76958148D01*
X117669366Y-76966290D01*
X117760563Y-77145273D01*
X117762873Y-77149806D01*
X117784476Y-77179540D01*
X117883932Y-77316430D01*
X117883934Y-77316432D01*
X117883936Y-77316435D01*
X118029564Y-77462063D01*
X118029567Y-77462065D01*
X118029570Y-77462068D01*
X118196197Y-77583129D01*
X118271962Y-77621733D01*
X118323577Y-77670482D01*
X118340643Y-77739397D01*
X118317742Y-77806598D01*
X118271963Y-77846266D01*
X118252887Y-77855986D01*
X118196193Y-77884873D01*
X118029567Y-78005934D01*
X118029564Y-78005936D01*
X117883936Y-78151564D01*
X117883934Y-78151567D01*
X117762873Y-78318193D01*
X117669367Y-78501708D01*
X117669364Y-78501714D01*
X117605721Y-78697587D01*
X117605721Y-78697589D01*
X117605720Y-78697592D01*
X117573500Y-78901019D01*
X117573500Y-79106981D01*
X117605720Y-79310408D01*
X117605721Y-79310412D01*
X117651182Y-79450328D01*
X117669366Y-79506290D01*
X117762871Y-79689803D01*
X117883932Y-79856430D01*
X117883934Y-79856432D01*
X117883936Y-79856435D01*
X118029564Y-80002063D01*
X118029567Y-80002065D01*
X118029570Y-80002068D01*
X118196197Y-80123129D01*
X118271962Y-80161733D01*
X118323577Y-80210482D01*
X118340643Y-80279397D01*
X118317742Y-80346598D01*
X118271963Y-80386266D01*
X118215823Y-80414871D01*
X118196193Y-80424873D01*
X118029567Y-80545934D01*
X118029564Y-80545936D01*
X117883936Y-80691564D01*
X117883934Y-80691567D01*
X117762873Y-80858193D01*
X117669367Y-81041708D01*
X117669364Y-81041714D01*
X117605721Y-81237587D01*
X117605720Y-81237590D01*
X117605720Y-81237592D01*
X117573500Y-81441019D01*
X117573500Y-81646981D01*
X117604137Y-81840412D01*
X117605721Y-81850412D01*
X117666116Y-82036290D01*
X117669366Y-82046290D01*
X117762871Y-82229803D01*
X117883932Y-82396430D01*
X117883934Y-82396432D01*
X117883936Y-82396435D01*
X118029564Y-82542063D01*
X118029567Y-82542065D01*
X118029570Y-82542068D01*
X118196197Y-82663129D01*
X118271962Y-82701733D01*
X118323577Y-82750482D01*
X118340643Y-82819397D01*
X118317742Y-82886598D01*
X118271963Y-82926266D01*
X118258810Y-82932968D01*
X118196193Y-82964873D01*
X118029567Y-83085934D01*
X118029564Y-83085936D01*
X117883936Y-83231564D01*
X117883934Y-83231567D01*
X117762873Y-83398193D01*
X117669367Y-83581708D01*
X117669364Y-83581714D01*
X117605721Y-83777587D01*
X117605721Y-83777589D01*
X117605720Y-83777592D01*
X117573500Y-83981019D01*
X117573500Y-84186981D01*
X117604922Y-84385367D01*
X117605721Y-84390412D01*
X117666119Y-84576299D01*
X117669366Y-84586290D01*
X117762871Y-84769803D01*
X117883932Y-84936430D01*
X117883934Y-84936432D01*
X117883936Y-84936435D01*
X118029564Y-85082063D01*
X118029567Y-85082065D01*
X118029570Y-85082068D01*
X118100768Y-85133796D01*
X118196193Y-85203127D01*
X118272511Y-85242013D01*
X118324126Y-85290762D01*
X118341192Y-85359677D01*
X118318291Y-85426878D01*
X118272512Y-85466546D01*
X118196456Y-85505299D01*
X118196453Y-85505301D01*
X118153625Y-85536416D01*
X118841209Y-86224000D01*
X118829339Y-86224000D01*
X118727606Y-86251259D01*
X118636394Y-86303920D01*
X118561920Y-86378394D01*
X118509259Y-86469606D01*
X118482000Y-86571339D01*
X118482000Y-86583209D01*
X117794416Y-85895625D01*
X117763301Y-85938452D01*
X117669829Y-86121900D01*
X117669826Y-86121906D01*
X117606208Y-86317703D01*
X117574000Y-86521061D01*
X117574000Y-86726938D01*
X117606208Y-86930296D01*
X117669826Y-87126093D01*
X117669829Y-87126099D01*
X117763297Y-87309540D01*
X117763298Y-87309541D01*
X117794416Y-87352372D01*
X118482000Y-86664788D01*
X118482000Y-86676661D01*
X118509259Y-86778394D01*
X118561920Y-86869606D01*
X118636394Y-86944080D01*
X118727606Y-86996741D01*
X118829339Y-87024000D01*
X118841210Y-87024000D01*
X118153626Y-87711582D01*
X118153626Y-87711583D01*
X118196454Y-87742699D01*
X118272511Y-87781453D01*
X118324126Y-87830202D01*
X118341192Y-87899117D01*
X118318291Y-87966318D01*
X118272511Y-88005987D01*
X118196193Y-88044872D01*
X118029567Y-88165934D01*
X118029564Y-88165936D01*
X117883936Y-88311564D01*
X117883934Y-88311567D01*
X117762873Y-88478193D01*
X117669367Y-88661708D01*
X117669364Y-88661714D01*
X117605721Y-88857587D01*
X117605720Y-88857590D01*
X117605720Y-88857592D01*
X117573500Y-89061019D01*
X117573500Y-89266981D01*
X117584453Y-89336132D01*
X117575353Y-89406543D01*
X117529631Y-89460857D01*
X117461803Y-89481830D01*
X117393404Y-89462803D01*
X117370909Y-89444938D01*
X117045405Y-89119434D01*
X117011379Y-89057122D01*
X117008500Y-89030339D01*
X117008500Y-80924220D01*
X117008499Y-80924216D01*
X116981273Y-80787338D01*
X116937462Y-80681570D01*
X116927865Y-80658399D01*
X116850328Y-80542357D01*
X116850323Y-80542351D01*
X113486066Y-77178094D01*
X113452040Y-77115782D01*
X113457105Y-77044967D01*
X113486064Y-76999906D01*
X117136328Y-73349642D01*
X117213865Y-73233600D01*
X117261376Y-73118898D01*
X117267273Y-73104662D01*
X117294500Y-72967781D01*
X117294500Y-63458643D01*
X117314502Y-63390522D01*
X117346437Y-63356708D01*
X117471004Y-63266206D01*
X117622206Y-63115004D01*
X117747894Y-62942009D01*
X117747899Y-62941997D01*
X117748561Y-62940920D01*
X117748924Y-62940591D01*
X117750804Y-62938004D01*
X117751347Y-62938398D01*
X117801204Y-62893283D01*
X117871244Y-62881670D01*
X117936445Y-62909766D01*
X117961021Y-62938130D01*
X117961196Y-62938004D01*
X117962668Y-62940030D01*
X117963439Y-62940920D01*
X117964105Y-62942007D01*
X117964106Y-62942009D01*
X118089794Y-63115004D01*
X118089796Y-63115006D01*
X118089798Y-63115009D01*
X118240990Y-63266201D01*
X118240993Y-63266203D01*
X118240996Y-63266206D01*
X118413991Y-63391894D01*
X118604517Y-63488972D01*
X118807878Y-63555047D01*
X118807879Y-63555047D01*
X118807884Y-63555049D01*
X119019084Y-63588500D01*
X119019087Y-63588500D01*
X119232913Y-63588500D01*
X119232916Y-63588500D01*
X119444116Y-63555049D01*
X119647483Y-63488972D01*
X119838009Y-63391894D01*
X120011004Y-63266206D01*
X120162206Y-63115004D01*
X120287894Y-62942009D01*
X120384972Y-62751483D01*
X120451049Y-62548116D01*
X120484500Y-62336916D01*
X120484500Y-62123084D01*
X120475808Y-62068208D01*
X120484907Y-61997801D01*
X120530629Y-61943486D01*
X120598457Y-61922513D01*
X120600257Y-61922500D01*
X139100339Y-61922500D01*
X139168460Y-61942502D01*
X139189434Y-61959405D01*
X140913934Y-63683904D01*
X140947959Y-63746216D01*
X140949288Y-63792709D01*
X140931500Y-63905019D01*
X140931500Y-64110981D01*
X140963720Y-64314408D01*
X140963721Y-64314412D01*
X140994753Y-64409920D01*
X141027366Y-64510290D01*
X141120871Y-64693803D01*
X141120873Y-64693806D01*
X141143599Y-64725085D01*
X141241932Y-64860430D01*
X141241934Y-64860432D01*
X141241936Y-64860435D01*
X141387564Y-65006063D01*
X141387567Y-65006065D01*
X141387570Y-65006068D01*
X141554197Y-65127129D01*
X141737710Y-65220634D01*
X141933592Y-65284280D01*
X142137019Y-65316500D01*
X142137022Y-65316500D01*
X142342978Y-65316500D01*
X142342981Y-65316500D01*
X142546408Y-65284280D01*
X142742290Y-65220634D01*
X142925803Y-65127129D01*
X143092430Y-65006068D01*
X143238068Y-64860430D01*
X143304903Y-64768438D01*
X143361125Y-64725085D01*
X143406839Y-64716500D01*
X144375161Y-64716500D01*
X144443282Y-64736502D01*
X144477096Y-64768438D01*
X144543932Y-64860430D01*
X144543934Y-64860432D01*
X144543936Y-64860435D01*
X144689564Y-65006063D01*
X144689567Y-65006065D01*
X144689570Y-65006068D01*
X144856197Y-65127129D01*
X145039710Y-65220634D01*
X145235592Y-65284280D01*
X145439019Y-65316500D01*
X145439022Y-65316500D01*
X145644978Y-65316500D01*
X145644981Y-65316500D01*
X145848408Y-65284280D01*
X146044290Y-65220634D01*
X146227803Y-65127129D01*
X146394430Y-65006068D01*
X146540068Y-64860430D01*
X146661129Y-64693803D01*
X146754634Y-64510290D01*
X146818280Y-64314408D01*
X146850500Y-64110981D01*
X146850500Y-63905019D01*
X146818280Y-63701592D01*
X146754634Y-63505710D01*
X146661129Y-63322197D01*
X146540068Y-63155570D01*
X146540065Y-63155567D01*
X146540063Y-63155564D01*
X146394435Y-63009936D01*
X146394432Y-63009934D01*
X146394430Y-63009932D01*
X146227803Y-62888871D01*
X146044290Y-62795366D01*
X146044287Y-62795365D01*
X146044285Y-62795364D01*
X145848412Y-62731721D01*
X145848410Y-62731720D01*
X145848408Y-62731720D01*
X145644981Y-62699500D01*
X145439019Y-62699500D01*
X145235592Y-62731720D01*
X145235590Y-62731720D01*
X145235587Y-62731721D01*
X145039714Y-62795364D01*
X145039708Y-62795367D01*
X144856193Y-62888873D01*
X144689567Y-63009934D01*
X144689564Y-63009936D01*
X144543936Y-63155564D01*
X144543934Y-63155567D01*
X144477097Y-63247561D01*
X144420875Y-63290915D01*
X144375161Y-63299500D01*
X143406839Y-63299500D01*
X143338718Y-63279498D01*
X143304903Y-63247561D01*
X143262502Y-63189201D01*
X143238068Y-63155570D01*
X143238065Y-63155567D01*
X143238063Y-63155564D01*
X143092435Y-63009936D01*
X143092432Y-63009934D01*
X143092430Y-63009932D01*
X142925803Y-62888871D01*
X142742290Y-62795366D01*
X142742287Y-62795365D01*
X142742285Y-62795364D01*
X142546412Y-62731721D01*
X142546410Y-62731720D01*
X142546408Y-62731720D01*
X142342981Y-62699500D01*
X142137019Y-62699500D01*
X142062141Y-62711359D01*
X142024709Y-62717288D01*
X141954298Y-62708188D01*
X141915904Y-62681934D01*
X139897648Y-60663676D01*
X139897642Y-60663671D01*
X139859137Y-60637943D01*
X139781601Y-60586135D01*
X139690427Y-60548369D01*
X139690426Y-60548368D01*
X139652669Y-60532729D01*
X139652663Y-60532727D01*
X139652662Y-60532727D01*
X139584221Y-60519113D01*
X139584220Y-60519112D01*
X139515787Y-60505500D01*
X139515782Y-60505500D01*
X139515781Y-60505500D01*
X120211782Y-60505500D01*
X120072218Y-60505500D01*
X120072212Y-60505500D01*
X120003779Y-60519112D01*
X120003778Y-60519113D01*
X119958151Y-60528189D01*
X119935337Y-60532727D01*
X119935334Y-60532728D01*
X119897572Y-60548368D01*
X119897572Y-60548369D01*
X119873757Y-60558233D01*
X119806401Y-60586133D01*
X119806400Y-60586134D01*
X119690358Y-60663670D01*
X119690356Y-60663672D01*
X119493794Y-60860233D01*
X119431482Y-60894258D01*
X119384989Y-60895586D01*
X119337130Y-60888006D01*
X119232916Y-60871500D01*
X119019084Y-60871500D01*
X118807884Y-60904951D01*
X118807878Y-60904952D01*
X118604521Y-60971026D01*
X118604515Y-60971029D01*
X118413987Y-61068108D01*
X118240993Y-61193796D01*
X118240990Y-61193798D01*
X118089798Y-61344990D01*
X118089796Y-61344993D01*
X117964108Y-61517987D01*
X117963434Y-61519088D01*
X117963068Y-61519418D01*
X117961196Y-61521996D01*
X117960654Y-61521602D01*
X117910787Y-61566721D01*
X117840745Y-61578328D01*
X117775547Y-61550226D01*
X117750976Y-61521870D01*
X117750804Y-61521996D01*
X117749341Y-61519982D01*
X117748566Y-61519088D01*
X117747896Y-61517996D01*
X117747894Y-61517991D01*
X117622206Y-61344996D01*
X117622203Y-61344993D01*
X117622201Y-61344990D01*
X117471009Y-61193798D01*
X117471006Y-61193796D01*
X117471004Y-61193794D01*
X117298601Y-61068536D01*
X117298012Y-61068108D01*
X117298011Y-61068107D01*
X117298009Y-61068106D01*
X117107483Y-60971028D01*
X117107480Y-60971027D01*
X117107478Y-60971026D01*
X116904120Y-60904952D01*
X116904123Y-60904952D01*
X116836603Y-60894258D01*
X116692916Y-60871500D01*
X116479084Y-60871500D01*
X116267884Y-60904951D01*
X116267878Y-60904952D01*
X116064521Y-60971026D01*
X116064515Y-60971029D01*
X115873987Y-61068108D01*
X115700993Y-61193796D01*
X115700990Y-61193798D01*
X115549798Y-61344990D01*
X115549796Y-61344993D01*
X115424108Y-61517987D01*
X115423434Y-61519088D01*
X115423068Y-61519418D01*
X115421196Y-61521996D01*
X115420654Y-61521602D01*
X115370787Y-61566721D01*
X115300745Y-61578328D01*
X115235547Y-61550226D01*
X115210976Y-61521870D01*
X115210804Y-61521996D01*
X115209341Y-61519982D01*
X115208566Y-61519088D01*
X115207896Y-61517996D01*
X115207894Y-61517991D01*
X115082206Y-61344996D01*
X115082203Y-61344993D01*
X115082201Y-61344990D01*
X114931009Y-61193798D01*
X114931006Y-61193796D01*
X114931004Y-61193794D01*
X114758601Y-61068536D01*
X114758012Y-61068108D01*
X114758011Y-61068107D01*
X114758009Y-61068106D01*
X114567483Y-60971028D01*
X114567480Y-60971027D01*
X114567478Y-60971026D01*
X114364120Y-60904952D01*
X114364123Y-60904952D01*
X114296603Y-60894258D01*
X114152916Y-60871500D01*
X113939084Y-60871500D01*
X113727884Y-60904951D01*
X113727878Y-60904952D01*
X113524521Y-60971026D01*
X113524515Y-60971029D01*
X113333987Y-61068108D01*
X113160995Y-61193794D01*
X113057629Y-61297160D01*
X112995317Y-61331185D01*
X112924501Y-61326119D01*
X112867665Y-61283573D01*
X112850478Y-61252096D01*
X112806444Y-61134034D01*
X112718904Y-61017095D01*
X112601965Y-60929555D01*
X112465093Y-60878505D01*
X112404597Y-60872000D01*
X111760000Y-60872000D01*
X111760000Y-61799297D01*
X111698993Y-61764075D01*
X111571826Y-61730000D01*
X111440174Y-61730000D01*
X111313007Y-61764075D01*
X111252000Y-61799297D01*
X111252000Y-60872000D01*
X110607402Y-60872000D01*
X110546906Y-60878505D01*
X110410035Y-60929555D01*
X110410034Y-60929555D01*
X110293095Y-61017095D01*
X110205555Y-61134034D01*
X110205555Y-61134035D01*
X110154505Y-61270906D01*
X110148000Y-61331402D01*
X110148000Y-61976000D01*
X111075297Y-61976000D01*
X111040075Y-62037007D01*
X111006000Y-62164174D01*
X111006000Y-62295826D01*
X111040075Y-62422993D01*
X111075297Y-62484000D01*
X110148000Y-62484000D01*
X110148000Y-63128597D01*
X110154505Y-63189093D01*
X110205555Y-63325964D01*
X110205555Y-63325965D01*
X110293095Y-63442904D01*
X110410034Y-63530444D01*
X110546906Y-63581494D01*
X110607402Y-63587999D01*
X110607415Y-63588000D01*
X111252000Y-63588000D01*
X111252000Y-62660702D01*
X111313007Y-62695925D01*
X111440174Y-62730000D01*
X111571826Y-62730000D01*
X111698993Y-62695925D01*
X111760000Y-62660702D01*
X111760000Y-63588000D01*
X112404585Y-63588000D01*
X112404597Y-63587999D01*
X112465093Y-63581494D01*
X112601964Y-63530444D01*
X112601965Y-63530444D01*
X112718904Y-63442904D01*
X112806444Y-63325965D01*
X112850478Y-63207903D01*
X112893024Y-63151067D01*
X112959544Y-63126256D01*
X113028918Y-63141347D01*
X113057629Y-63162840D01*
X113160990Y-63266201D01*
X113160993Y-63266203D01*
X113160996Y-63266206D01*
X113285562Y-63356708D01*
X113328915Y-63412929D01*
X113337500Y-63458643D01*
X113337500Y-72806339D01*
X113317498Y-72874460D01*
X113300595Y-72895434D01*
X113017434Y-73178595D01*
X112955122Y-73212621D01*
X112928339Y-73215500D01*
X112428839Y-73215500D01*
X112360718Y-73195498D01*
X112326903Y-73163561D01*
X112295095Y-73119781D01*
X112260068Y-73071570D01*
X112260065Y-73071567D01*
X112260063Y-73071564D01*
X112114435Y-72925936D01*
X112114432Y-72925934D01*
X112114430Y-72925932D01*
X112036013Y-72868959D01*
X111992660Y-72812738D01*
X111986585Y-72742002D01*
X112019716Y-72679210D01*
X112070440Y-72647420D01*
X112134738Y-72626115D01*
X112285652Y-72533030D01*
X112411030Y-72407652D01*
X112504115Y-72256738D01*
X112559887Y-72088426D01*
X112570500Y-71984545D01*
X112570499Y-70783456D01*
X112559887Y-70679574D01*
X112504115Y-70511262D01*
X112411030Y-70360348D01*
X112411029Y-70360347D01*
X112411024Y-70360341D01*
X112285658Y-70234975D01*
X112285652Y-70234970D01*
X112134738Y-70141885D01*
X112050582Y-70113999D01*
X111966427Y-70086113D01*
X111966420Y-70086112D01*
X111862553Y-70075500D01*
X110661455Y-70075500D01*
X110557574Y-70086112D01*
X110389261Y-70141885D01*
X110238347Y-70234970D01*
X110238341Y-70234975D01*
X110112975Y-70360341D01*
X110112970Y-70360347D01*
X110019885Y-70511261D01*
X110019885Y-70511262D01*
X109997605Y-70578502D01*
X109994082Y-70589133D01*
X109953668Y-70647504D01*
X109888111Y-70674760D01*
X109874477Y-70675500D01*
X109321660Y-70675500D01*
X109253539Y-70655498D01*
X109232569Y-70638599D01*
X107893643Y-69299672D01*
X107777601Y-69222135D01*
X107686427Y-69184369D01*
X107686426Y-69184368D01*
X107648669Y-69168729D01*
X107648663Y-69168727D01*
X107648662Y-69168727D01*
X107580221Y-69155113D01*
X107580220Y-69155112D01*
X107511787Y-69141500D01*
X107511782Y-69141500D01*
X107511781Y-69141500D01*
X103274839Y-69141500D01*
X103206718Y-69121498D01*
X103172903Y-69089561D01*
X103106068Y-68997570D01*
X103106065Y-68997567D01*
X103106063Y-68997564D01*
X102960435Y-68851936D01*
X102960432Y-68851934D01*
X102960430Y-68851932D01*
X102793803Y-68730871D01*
X102756738Y-68711985D01*
X102705125Y-68663239D01*
X102688059Y-68594324D01*
X102710960Y-68527122D01*
X102756740Y-68487453D01*
X102793541Y-68468701D01*
X102836372Y-68437582D01*
X102836372Y-68437581D01*
X102148791Y-67750000D01*
X102160661Y-67750000D01*
X102262394Y-67722741D01*
X102353606Y-67670080D01*
X102428080Y-67595606D01*
X102480741Y-67504394D01*
X102508000Y-67402661D01*
X102508000Y-67390791D01*
X103195581Y-68078372D01*
X103195582Y-68078372D01*
X103226701Y-68035541D01*
X103320170Y-67852099D01*
X103320173Y-67852093D01*
X103383791Y-67656296D01*
X103416000Y-67452938D01*
X103416000Y-67247061D01*
X103383791Y-67043703D01*
X103320173Y-66847906D01*
X103320170Y-66847900D01*
X103226699Y-66664454D01*
X103195583Y-66621626D01*
X103195582Y-66621626D01*
X102508000Y-67309208D01*
X102508000Y-67297339D01*
X102480741Y-67195606D01*
X102428080Y-67104394D01*
X102353606Y-67029920D01*
X102262394Y-66977259D01*
X102160661Y-66950000D01*
X102148790Y-66950000D01*
X102836372Y-66262416D01*
X102793541Y-66231298D01*
X102793540Y-66231297D01*
X102610099Y-66137829D01*
X102610093Y-66137826D01*
X102414294Y-66074208D01*
X102414298Y-66074208D01*
X102210939Y-66042000D01*
X102005061Y-66042000D01*
X101801703Y-66074208D01*
X101605906Y-66137826D01*
X101605900Y-66137829D01*
X101422452Y-66231301D01*
X101379625Y-66262416D01*
X102067209Y-66950000D01*
X102055339Y-66950000D01*
X101953606Y-66977259D01*
X101862394Y-67029920D01*
X101787920Y-67104394D01*
X101735259Y-67195606D01*
X101708000Y-67297339D01*
X101708000Y-67309209D01*
X101020416Y-66621625D01*
X100989301Y-66664452D01*
X100895829Y-66847900D01*
X100895826Y-66847906D01*
X100832208Y-67043703D01*
X100800000Y-67247061D01*
X100800000Y-67452938D01*
X100832208Y-67656296D01*
X100895826Y-67852093D01*
X100895829Y-67852099D01*
X100989297Y-68035540D01*
X100989298Y-68035541D01*
X101020416Y-68078372D01*
X101708000Y-67390788D01*
X101708000Y-67402661D01*
X101735259Y-67504394D01*
X101787920Y-67595606D01*
X101862394Y-67670080D01*
X101953606Y-67722741D01*
X102055339Y-67750000D01*
X102067210Y-67750000D01*
X101379626Y-68437582D01*
X101379626Y-68437583D01*
X101422457Y-68468701D01*
X101459260Y-68487454D01*
X101510875Y-68536202D01*
X101527940Y-68605117D01*
X101505039Y-68672319D01*
X101459260Y-68711986D01*
X101422196Y-68730871D01*
X101255567Y-68851934D01*
X101255564Y-68851936D01*
X101109936Y-68997564D01*
X101109934Y-68997567D01*
X101109932Y-68997570D01*
X101057262Y-69070065D01*
X101043097Y-69089561D01*
X100986875Y-69132915D01*
X100941161Y-69141500D01*
X97686839Y-69141500D01*
X97618718Y-69121498D01*
X97584903Y-69089561D01*
X97518068Y-68997570D01*
X97518065Y-68997567D01*
X97518063Y-68997564D01*
X97372435Y-68851936D01*
X97372432Y-68851934D01*
X97372430Y-68851932D01*
X97205803Y-68730871D01*
X97022290Y-68637366D01*
X97022287Y-68637365D01*
X97022285Y-68637364D01*
X96826412Y-68573721D01*
X96826410Y-68573720D01*
X96826408Y-68573720D01*
X96622981Y-68541500D01*
X96417019Y-68541500D01*
X96213592Y-68573720D01*
X96213590Y-68573720D01*
X96213587Y-68573721D01*
X96017714Y-68637364D01*
X96017708Y-68637367D01*
X95834193Y-68730873D01*
X95667567Y-68851934D01*
X95667564Y-68851936D01*
X95521936Y-68997564D01*
X95521934Y-68997567D01*
X95400873Y-69164193D01*
X95307367Y-69347708D01*
X95307364Y-69347714D01*
X95243721Y-69543587D01*
X95243720Y-69543590D01*
X95243720Y-69543592D01*
X95211500Y-69747019D01*
X95211500Y-69952981D01*
X95243720Y-70156408D01*
X95307366Y-70352290D01*
X95400871Y-70535803D01*
X95521932Y-70702430D01*
X95521934Y-70702432D01*
X95521936Y-70702435D01*
X95667564Y-70848063D01*
X95667567Y-70848065D01*
X95667570Y-70848068D01*
X95834197Y-70969129D01*
X96017710Y-71062634D01*
X96213592Y-71126280D01*
X96417019Y-71158500D01*
X96417022Y-71158500D01*
X96622978Y-71158500D01*
X96622981Y-71158500D01*
X96826408Y-71126280D01*
X97022290Y-71062634D01*
X97205803Y-70969129D01*
X97372430Y-70848068D01*
X97518068Y-70702430D01*
X97584903Y-70610438D01*
X97641125Y-70567085D01*
X97686839Y-70558500D01*
X100941161Y-70558500D01*
X101009282Y-70578502D01*
X101043096Y-70610438D01*
X101109932Y-70702430D01*
X101109934Y-70702432D01*
X101109936Y-70702435D01*
X101255564Y-70848063D01*
X101255567Y-70848065D01*
X101255570Y-70848068D01*
X101422197Y-70969129D01*
X101605710Y-71062634D01*
X101801592Y-71126280D01*
X102005019Y-71158500D01*
X102005022Y-71158500D01*
X102210978Y-71158500D01*
X102210981Y-71158500D01*
X102414408Y-71126280D01*
X102610290Y-71062634D01*
X102793803Y-70969129D01*
X102960430Y-70848068D01*
X103106068Y-70702430D01*
X103172903Y-70610438D01*
X103229125Y-70567085D01*
X103274839Y-70558500D01*
X107096339Y-70558500D01*
X107164460Y-70578502D01*
X107185434Y-70595405D01*
X108524358Y-71934328D01*
X108640400Y-72011865D01*
X108715930Y-72043150D01*
X108715931Y-72043150D01*
X108715932Y-72043151D01*
X108769333Y-72065271D01*
X108769338Y-72065273D01*
X108906219Y-72092500D01*
X109247339Y-72092500D01*
X109315460Y-72112502D01*
X109361953Y-72166158D01*
X109372057Y-72236432D01*
X109342563Y-72301012D01*
X109336447Y-72307581D01*
X109140903Y-72503126D01*
X108669671Y-72974357D01*
X108592134Y-73090400D01*
X108586227Y-73104662D01*
X108580335Y-73118889D01*
X108579966Y-73119779D01*
X108579965Y-73119781D01*
X108538729Y-73219332D01*
X108538727Y-73219337D01*
X108511500Y-73356216D01*
X108511500Y-77539786D01*
X108538721Y-77676636D01*
X108538725Y-77676658D01*
X108592135Y-77805601D01*
X108669671Y-77921642D01*
X108669676Y-77921648D01*
X108818433Y-78070405D01*
X108852459Y-78132717D01*
X108847394Y-78203532D01*
X108804847Y-78260368D01*
X108738327Y-78285179D01*
X108729338Y-78285500D01*
X107084839Y-78285500D01*
X107016718Y-78265498D01*
X106982903Y-78233561D01*
X106916068Y-78141570D01*
X106916065Y-78141567D01*
X106916063Y-78141564D01*
X106770435Y-77995936D01*
X106770432Y-77995934D01*
X106770430Y-77995932D01*
X106603803Y-77874871D01*
X106566738Y-77855985D01*
X106515125Y-77807239D01*
X106498059Y-77738324D01*
X106520960Y-77671122D01*
X106566740Y-77631453D01*
X106603541Y-77612701D01*
X106646372Y-77581582D01*
X106646372Y-77581581D01*
X105958791Y-76894000D01*
X105970661Y-76894000D01*
X106072394Y-76866741D01*
X106163606Y-76814080D01*
X106238080Y-76739606D01*
X106290741Y-76648394D01*
X106318000Y-76546661D01*
X106318000Y-76534791D01*
X107005581Y-77222372D01*
X107005582Y-77222372D01*
X107036701Y-77179541D01*
X107130170Y-76996099D01*
X107130173Y-76996093D01*
X107193791Y-76800296D01*
X107226000Y-76596938D01*
X107226000Y-76391061D01*
X107193791Y-76187703D01*
X107130173Y-75991906D01*
X107130170Y-75991900D01*
X107036699Y-75808454D01*
X107005583Y-75765626D01*
X107005582Y-75765626D01*
X106318000Y-76453208D01*
X106318000Y-76441339D01*
X106290741Y-76339606D01*
X106238080Y-76248394D01*
X106163606Y-76173920D01*
X106072394Y-76121259D01*
X105970661Y-76094000D01*
X105958790Y-76094000D01*
X106646372Y-75406416D01*
X106603541Y-75375298D01*
X106603540Y-75375297D01*
X106420099Y-75281829D01*
X106420093Y-75281826D01*
X106224294Y-75218208D01*
X106224298Y-75218208D01*
X106020939Y-75186000D01*
X105815061Y-75186000D01*
X105611703Y-75218208D01*
X105415906Y-75281826D01*
X105415900Y-75281829D01*
X105232452Y-75375301D01*
X105189625Y-75406416D01*
X105877209Y-76094000D01*
X105865339Y-76094000D01*
X105763606Y-76121259D01*
X105672394Y-76173920D01*
X105597920Y-76248394D01*
X105545259Y-76339606D01*
X105518000Y-76441339D01*
X105518000Y-76453209D01*
X104830416Y-75765625D01*
X104799301Y-75808452D01*
X104705829Y-75991900D01*
X104705826Y-75991906D01*
X104642208Y-76187703D01*
X104610000Y-76391061D01*
X104610000Y-76596938D01*
X104642208Y-76800296D01*
X104705826Y-76996093D01*
X104705829Y-76996099D01*
X104799297Y-77179540D01*
X104799298Y-77179541D01*
X104830416Y-77222372D01*
X105518000Y-76534788D01*
X105518000Y-76546661D01*
X105545259Y-76648394D01*
X105597920Y-76739606D01*
X105672394Y-76814080D01*
X105763606Y-76866741D01*
X105865339Y-76894000D01*
X105877210Y-76894000D01*
X105189626Y-77581582D01*
X105189626Y-77581583D01*
X105232457Y-77612701D01*
X105269260Y-77631454D01*
X105320875Y-77680202D01*
X105337940Y-77749117D01*
X105315039Y-77816319D01*
X105269260Y-77855986D01*
X105232196Y-77874871D01*
X105065567Y-77995934D01*
X105065564Y-77995936D01*
X104919933Y-78141567D01*
X104919928Y-78141573D01*
X104879254Y-78197559D01*
X104823033Y-78240914D01*
X104777317Y-78249500D01*
X103211244Y-78249500D01*
X103143123Y-78229498D01*
X103098978Y-78180705D01*
X103092185Y-78167373D01*
X103080703Y-78151570D01*
X103029386Y-78080938D01*
X102952620Y-77975278D01*
X102952617Y-77975275D01*
X102952615Y-77975272D01*
X102784727Y-77807384D01*
X102784724Y-77807382D01*
X102784722Y-77807380D01*
X102609676Y-77680202D01*
X102592630Y-77667817D01*
X102592629Y-77667816D01*
X102592627Y-77667815D01*
X102381063Y-77560018D01*
X102381060Y-77560017D01*
X102381058Y-77560016D01*
X102155246Y-77486645D01*
X102155242Y-77486644D01*
X102155241Y-77486644D01*
X101920722Y-77449500D01*
X101683278Y-77449500D01*
X101448759Y-77486644D01*
X101448753Y-77486645D01*
X101222941Y-77560016D01*
X101222935Y-77560019D01*
X101011369Y-77667817D01*
X100819275Y-77807382D01*
X100819272Y-77807384D01*
X100651384Y-77975272D01*
X100651382Y-77975275D01*
X100511816Y-78167370D01*
X100505022Y-78180705D01*
X100456272Y-78232320D01*
X100392756Y-78249500D01*
X96711244Y-78249500D01*
X96643123Y-78229498D01*
X96598978Y-78180705D01*
X96592185Y-78167373D01*
X96580703Y-78151570D01*
X96529386Y-78080938D01*
X96452620Y-77975278D01*
X96452617Y-77975275D01*
X96452615Y-77975272D01*
X96284727Y-77807384D01*
X96284724Y-77807382D01*
X96284722Y-77807380D01*
X96109676Y-77680202D01*
X96092630Y-77667817D01*
X96092629Y-77667816D01*
X96092627Y-77667815D01*
X95881063Y-77560018D01*
X95881060Y-77560017D01*
X95881058Y-77560016D01*
X95655246Y-77486645D01*
X95655242Y-77486644D01*
X95655241Y-77486644D01*
X95420722Y-77449500D01*
X95183278Y-77449500D01*
X94948759Y-77486644D01*
X94948753Y-77486645D01*
X94722941Y-77560016D01*
X94722935Y-77560019D01*
X94511369Y-77667817D01*
X94319275Y-77807382D01*
X94319272Y-77807384D01*
X94151384Y-77975272D01*
X94151382Y-77975275D01*
X94011817Y-78167369D01*
X93904019Y-78378935D01*
X93904016Y-78378941D01*
X93830645Y-78604753D01*
X93830644Y-78604758D01*
X93830644Y-78604759D01*
X93793500Y-78839278D01*
X93793500Y-79076722D01*
X93811469Y-79190173D01*
X93830645Y-79311246D01*
X93904016Y-79537058D01*
X93904018Y-79537063D01*
X94011815Y-79748627D01*
X94151380Y-79940722D01*
X94151382Y-79940724D01*
X94151384Y-79940727D01*
X94319272Y-80108615D01*
X94319275Y-80108617D01*
X94319278Y-80108620D01*
X94511373Y-80248185D01*
X94722937Y-80355982D01*
X94948759Y-80429356D01*
X95183278Y-80466500D01*
X95183281Y-80466500D01*
X95420719Y-80466500D01*
X95420722Y-80466500D01*
X95655241Y-80429356D01*
X95881063Y-80355982D01*
X96092627Y-80248185D01*
X96284722Y-80108620D01*
X96452620Y-79940722D01*
X96592185Y-79748627D01*
X96598978Y-79735294D01*
X96647728Y-79683680D01*
X96711244Y-79666500D01*
X100392756Y-79666500D01*
X100460877Y-79686502D01*
X100505022Y-79735295D01*
X100511816Y-79748629D01*
X100575050Y-79835664D01*
X100651380Y-79940722D01*
X100651382Y-79940724D01*
X100651384Y-79940727D01*
X100819272Y-80108615D01*
X100819275Y-80108617D01*
X100819278Y-80108620D01*
X101011373Y-80248185D01*
X101222937Y-80355982D01*
X101448759Y-80429356D01*
X101683278Y-80466500D01*
X101683281Y-80466500D01*
X101920719Y-80466500D01*
X101920722Y-80466500D01*
X102155241Y-80429356D01*
X102381063Y-80355982D01*
X102592627Y-80248185D01*
X102784722Y-80108620D01*
X102952620Y-79940722D01*
X103092185Y-79748627D01*
X103098978Y-79735294D01*
X103147728Y-79683680D01*
X103211244Y-79666500D01*
X104725006Y-79666500D01*
X104793127Y-79686502D01*
X104826940Y-79718437D01*
X104919932Y-79846430D01*
X104919934Y-79846432D01*
X104919936Y-79846435D01*
X105065564Y-79992063D01*
X105065567Y-79992065D01*
X105065570Y-79992068D01*
X105232197Y-80113129D01*
X105415710Y-80206634D01*
X105611592Y-80270280D01*
X105815019Y-80302500D01*
X105815022Y-80302500D01*
X106020978Y-80302500D01*
X106020981Y-80302500D01*
X106224408Y-80270280D01*
X106420290Y-80206634D01*
X106603803Y-80113129D01*
X106770430Y-79992068D01*
X106916068Y-79846430D01*
X106982903Y-79754438D01*
X107039125Y-79711085D01*
X107084839Y-79702500D01*
X110087896Y-79702500D01*
X110156017Y-79722502D01*
X110189830Y-79754437D01*
X110263932Y-79856430D01*
X110263934Y-79856432D01*
X110263936Y-79856435D01*
X110409564Y-80002063D01*
X110409567Y-80002065D01*
X110409570Y-80002068D01*
X110576197Y-80123129D01*
X110651962Y-80161733D01*
X110703577Y-80210482D01*
X110720643Y-80279397D01*
X110697742Y-80346598D01*
X110651963Y-80386266D01*
X110595823Y-80414871D01*
X110576193Y-80424873D01*
X110409567Y-80545934D01*
X110409564Y-80545936D01*
X110263936Y-80691564D01*
X110263934Y-80691567D01*
X110142873Y-80858193D01*
X110049367Y-81041708D01*
X110049364Y-81041714D01*
X109985721Y-81237587D01*
X109985720Y-81237590D01*
X109985720Y-81237592D01*
X109953500Y-81441019D01*
X109953500Y-81646981D01*
X109984137Y-81840412D01*
X109985721Y-81850412D01*
X110010306Y-81926077D01*
X110012333Y-81997045D01*
X109975671Y-82057842D01*
X109911959Y-82089168D01*
X109842255Y-82081422D01*
X109733298Y-82036291D01*
X109709834Y-82026572D01*
X109709831Y-82026571D01*
X109686057Y-82021842D01*
X109553630Y-81995500D01*
X109394370Y-81995500D01*
X109316269Y-82011035D01*
X109238168Y-82026571D01*
X109238165Y-82026572D01*
X109121505Y-82074893D01*
X109105745Y-82081422D01*
X109091030Y-82087517D01*
X108958615Y-82175994D01*
X108958608Y-82175999D01*
X108160013Y-82974595D01*
X108097701Y-83008621D01*
X108070918Y-83011500D01*
X107265674Y-83011500D01*
X107197553Y-82991498D01*
X107173839Y-82970799D01*
X107173569Y-82971070D01*
X107024435Y-82821936D01*
X107024432Y-82821934D01*
X107024430Y-82821932D01*
X106898999Y-82730802D01*
X106857806Y-82700873D01*
X106857805Y-82700872D01*
X106857803Y-82700871D01*
X106674290Y-82607366D01*
X106674287Y-82607365D01*
X106674285Y-82607364D01*
X106478412Y-82543721D01*
X106478410Y-82543720D01*
X106478408Y-82543720D01*
X106274981Y-82511500D01*
X106069019Y-82511500D01*
X105865592Y-82543720D01*
X105865590Y-82543720D01*
X105865587Y-82543721D01*
X105669714Y-82607364D01*
X105669708Y-82607367D01*
X105486193Y-82700873D01*
X105319567Y-82821934D01*
X105319564Y-82821936D01*
X105170431Y-82971070D01*
X105169629Y-82970268D01*
X105114699Y-83006136D01*
X105078326Y-83011500D01*
X90557082Y-83011500D01*
X90488961Y-82991498D01*
X90467987Y-82974595D01*
X89745405Y-82252013D01*
X89711379Y-82189701D01*
X89708500Y-82162918D01*
X89708500Y-74339321D01*
X93794000Y-74339321D01*
X93794000Y-74576678D01*
X93831133Y-74811129D01*
X93904480Y-75036867D01*
X94012246Y-75248368D01*
X94071230Y-75329556D01*
X94071232Y-75329556D01*
X94777016Y-74623771D01*
X94789482Y-74670292D01*
X94861890Y-74795708D01*
X94964292Y-74898110D01*
X95089708Y-74970518D01*
X95136226Y-74982982D01*
X94430442Y-75688766D01*
X94511636Y-75747756D01*
X94511637Y-75747757D01*
X94723132Y-75855519D01*
X94948870Y-75928866D01*
X95183321Y-75966000D01*
X95420679Y-75966000D01*
X95655129Y-75928866D01*
X95880867Y-75855519D01*
X96092367Y-75747754D01*
X96173556Y-75688767D01*
X96173556Y-75688765D01*
X95467773Y-74982982D01*
X95514292Y-74970518D01*
X95639708Y-74898110D01*
X95742110Y-74795708D01*
X95814518Y-74670292D01*
X95826982Y-74623773D01*
X96532765Y-75329556D01*
X96532767Y-75329556D01*
X96591754Y-75248367D01*
X96699519Y-75036867D01*
X96772866Y-74811129D01*
X96810000Y-74576678D01*
X96810000Y-74339321D01*
X100294000Y-74339321D01*
X100294000Y-74576678D01*
X100331133Y-74811129D01*
X100404480Y-75036867D01*
X100512246Y-75248368D01*
X100571230Y-75329556D01*
X100571232Y-75329556D01*
X101277016Y-74623771D01*
X101289482Y-74670292D01*
X101361890Y-74795708D01*
X101464292Y-74898110D01*
X101589708Y-74970518D01*
X101636226Y-74982982D01*
X100930442Y-75688766D01*
X101011636Y-75747756D01*
X101011637Y-75747757D01*
X101223132Y-75855519D01*
X101448870Y-75928866D01*
X101683321Y-75966000D01*
X101920679Y-75966000D01*
X102155129Y-75928866D01*
X102380867Y-75855519D01*
X102592367Y-75747754D01*
X102673556Y-75688767D01*
X102673556Y-75688765D01*
X101967773Y-74982982D01*
X102014292Y-74970518D01*
X102139708Y-74898110D01*
X102242110Y-74795708D01*
X102314518Y-74670292D01*
X102326982Y-74623773D01*
X103032765Y-75329556D01*
X103032767Y-75329556D01*
X103091754Y-75248367D01*
X103199519Y-75036867D01*
X103272866Y-74811129D01*
X103310000Y-74576678D01*
X103310000Y-74339321D01*
X103272866Y-74104870D01*
X103199519Y-73879132D01*
X103091757Y-73667637D01*
X103091756Y-73667636D01*
X103032766Y-73586442D01*
X102326982Y-74292226D01*
X102314518Y-74245708D01*
X102242110Y-74120292D01*
X102139708Y-74017890D01*
X102014292Y-73945482D01*
X101967771Y-73933016D01*
X102673556Y-73227232D01*
X102673556Y-73227230D01*
X102592368Y-73168246D01*
X102380867Y-73060480D01*
X102155129Y-72987133D01*
X101920679Y-72950000D01*
X101683321Y-72950000D01*
X101448870Y-72987133D01*
X101223132Y-73060480D01*
X101011634Y-73168243D01*
X100930442Y-73227231D01*
X101636227Y-73933017D01*
X101589708Y-73945482D01*
X101464292Y-74017890D01*
X101361890Y-74120292D01*
X101289482Y-74245708D01*
X101277017Y-74292227D01*
X100571231Y-73586442D01*
X100512243Y-73667634D01*
X100404480Y-73879132D01*
X100331133Y-74104870D01*
X100294000Y-74339321D01*
X96810000Y-74339321D01*
X96772866Y-74104870D01*
X96699519Y-73879132D01*
X96591757Y-73667637D01*
X96591756Y-73667636D01*
X96532766Y-73586442D01*
X95826982Y-74292226D01*
X95814518Y-74245708D01*
X95742110Y-74120292D01*
X95639708Y-74017890D01*
X95514292Y-73945482D01*
X95467771Y-73933016D01*
X96173556Y-73227232D01*
X96173556Y-73227230D01*
X96092368Y-73168246D01*
X95880867Y-73060480D01*
X95655129Y-72987133D01*
X95420679Y-72950000D01*
X95183321Y-72950000D01*
X94948870Y-72987133D01*
X94723132Y-73060480D01*
X94511634Y-73168243D01*
X94430442Y-73227231D01*
X95136227Y-73933017D01*
X95089708Y-73945482D01*
X94964292Y-74017890D01*
X94861890Y-74120292D01*
X94789482Y-74245708D01*
X94777017Y-74292227D01*
X94071231Y-73586442D01*
X94012243Y-73667634D01*
X93904480Y-73879132D01*
X93831133Y-74104870D01*
X93794000Y-74339321D01*
X89708500Y-74339321D01*
X89708500Y-70943674D01*
X89728502Y-70875553D01*
X89749200Y-70851839D01*
X89748930Y-70851569D01*
X89898063Y-70702435D01*
X89898068Y-70702430D01*
X90019129Y-70535803D01*
X90112634Y-70352290D01*
X90176280Y-70156408D01*
X90208500Y-69952981D01*
X90208500Y-69747019D01*
X90176280Y-69543592D01*
X90112634Y-69347710D01*
X90019129Y-69164197D01*
X89898068Y-68997570D01*
X89898065Y-68997567D01*
X89898063Y-68997564D01*
X89851040Y-68950541D01*
X89817014Y-68888229D01*
X89822079Y-68817414D01*
X89851038Y-68772353D01*
X92830003Y-65793389D01*
X92918484Y-65660968D01*
X92948956Y-65587399D01*
X92979430Y-65513831D01*
X93010500Y-65357630D01*
X93010500Y-63711370D01*
X93030502Y-63643249D01*
X93084158Y-63596756D01*
X93123034Y-63586092D01*
X93134151Y-63584896D01*
X93161195Y-63581990D01*
X93161198Y-63581989D01*
X93161201Y-63581989D01*
X93298204Y-63530889D01*
X93298799Y-63530444D01*
X93415261Y-63443261D01*
X93502887Y-63326207D01*
X93502887Y-63326206D01*
X93502889Y-63326204D01*
X93553989Y-63189201D01*
X93554001Y-63189093D01*
X93558093Y-63151032D01*
X93585262Y-63085439D01*
X93643580Y-63044948D01*
X93683371Y-63038500D01*
X96945940Y-63038500D01*
X97014061Y-63058502D01*
X97053181Y-63098353D01*
X97055884Y-63102735D01*
X97055885Y-63102738D01*
X97109213Y-63189196D01*
X97148970Y-63253652D01*
X97148975Y-63253658D01*
X97274341Y-63379024D01*
X97274347Y-63379029D01*
X97274348Y-63379030D01*
X97425262Y-63472115D01*
X97485293Y-63492007D01*
X97543664Y-63532419D01*
X97570921Y-63597975D01*
X97571272Y-63621499D01*
X97569625Y-63642416D01*
X98257209Y-64330000D01*
X98245339Y-64330000D01*
X98143606Y-64357259D01*
X98052394Y-64409920D01*
X97977920Y-64484394D01*
X97925259Y-64575606D01*
X97898000Y-64677339D01*
X97898000Y-64689209D01*
X97210416Y-64001625D01*
X97179301Y-64044452D01*
X97085829Y-64227900D01*
X97085826Y-64227906D01*
X97022208Y-64423703D01*
X96990000Y-64627061D01*
X96990000Y-64832938D01*
X97022208Y-65036296D01*
X97085826Y-65232093D01*
X97085829Y-65232099D01*
X97179297Y-65415540D01*
X97179298Y-65415541D01*
X97210416Y-65458372D01*
X97898000Y-64770788D01*
X97898000Y-64782661D01*
X97925259Y-64884394D01*
X97977920Y-64975606D01*
X98052394Y-65050080D01*
X98143606Y-65102741D01*
X98245339Y-65130000D01*
X98257210Y-65130000D01*
X97569626Y-65817582D01*
X97569626Y-65817583D01*
X97612454Y-65848699D01*
X97795900Y-65942170D01*
X97795906Y-65942173D01*
X97991705Y-66005791D01*
X97991701Y-66005791D01*
X98195061Y-66038000D01*
X98400939Y-66038000D01*
X98604296Y-66005791D01*
X98800093Y-65942173D01*
X98800099Y-65942170D01*
X98983541Y-65848701D01*
X99026372Y-65817582D01*
X99026372Y-65817581D01*
X98338791Y-65130000D01*
X98350661Y-65130000D01*
X98452394Y-65102741D01*
X98543606Y-65050080D01*
X98618080Y-64975606D01*
X98670741Y-64884394D01*
X98698000Y-64782661D01*
X98698000Y-64770791D01*
X99385581Y-65458372D01*
X99385582Y-65458372D01*
X99416701Y-65415541D01*
X99510170Y-65232099D01*
X99510173Y-65232093D01*
X99573791Y-65036296D01*
X99606000Y-64832938D01*
X99606000Y-64627061D01*
X99573791Y-64423703D01*
X99510173Y-64227906D01*
X99510170Y-64227900D01*
X99416699Y-64044454D01*
X99385583Y-64001626D01*
X99385582Y-64001626D01*
X98698000Y-64689208D01*
X98698000Y-64677339D01*
X98670741Y-64575606D01*
X98618080Y-64484394D01*
X98543606Y-64409920D01*
X98452394Y-64357259D01*
X98350661Y-64330000D01*
X98338790Y-64330000D01*
X99026372Y-63642416D01*
X99024726Y-63621498D01*
X99039322Y-63552018D01*
X99089164Y-63501459D01*
X99110699Y-63492009D01*
X99170738Y-63472115D01*
X99321652Y-63379030D01*
X99447030Y-63253652D01*
X99540115Y-63102738D01*
X99595887Y-62934426D01*
X99601277Y-62881670D01*
X99606500Y-62830553D01*
X99606500Y-62431809D01*
X99606499Y-61629455D01*
X99598405Y-61550226D01*
X99595887Y-61525574D01*
X99595886Y-61525570D01*
X99595886Y-61525568D01*
X99543567Y-61367681D01*
X99540115Y-61357262D01*
X99447030Y-61206348D01*
X99447029Y-61206347D01*
X99447024Y-61206341D01*
X99321658Y-61080975D01*
X99321652Y-61080970D01*
X99300796Y-61068106D01*
X99170738Y-60987885D01*
X99086582Y-60959999D01*
X99002427Y-60932113D01*
X99002420Y-60932112D01*
X98898553Y-60921500D01*
X97697455Y-60921500D01*
X97593574Y-60932112D01*
X97425261Y-60987885D01*
X97274347Y-61080970D01*
X97274341Y-61080975D01*
X97148975Y-61206341D01*
X97148970Y-61206347D01*
X97109216Y-61270799D01*
X97055885Y-61357262D01*
X97055884Y-61357264D01*
X97053181Y-61361647D01*
X97000395Y-61409125D01*
X96945940Y-61421500D01*
X93683371Y-61421500D01*
X93615250Y-61401498D01*
X93568757Y-61347842D01*
X93558093Y-61308968D01*
X93553990Y-61270803D01*
X93553988Y-61270795D01*
X93502978Y-61134035D01*
X93502889Y-61133796D01*
X93502888Y-61133794D01*
X93502887Y-61133792D01*
X93415261Y-61016738D01*
X93298207Y-60929112D01*
X93298202Y-60929110D01*
X93161204Y-60878011D01*
X93161196Y-60878009D01*
X93100649Y-60871500D01*
X93100638Y-60871500D01*
X91303362Y-60871500D01*
X91303350Y-60871500D01*
X91242803Y-60878009D01*
X91242795Y-60878011D01*
X91105797Y-60929110D01*
X91105792Y-60929112D01*
X90988738Y-61016738D01*
X90901112Y-61133792D01*
X90901110Y-61133797D01*
X90850011Y-61270795D01*
X90850009Y-61270803D01*
X90843500Y-61331350D01*
X90843500Y-61355518D01*
X90823498Y-61423639D01*
X90806596Y-61444613D01*
X90146157Y-62105051D01*
X90127925Y-62037007D01*
X90062099Y-61922993D01*
X89969007Y-61829901D01*
X89854993Y-61764075D01*
X89786947Y-61745841D01*
X90426168Y-61106621D01*
X90426167Y-61106620D01*
X90373750Y-61068536D01*
X90373748Y-61068535D01*
X90183292Y-60971493D01*
X90183286Y-60971490D01*
X89980003Y-60905440D01*
X89768874Y-60872000D01*
X89555126Y-60872000D01*
X89343996Y-60905440D01*
X89140713Y-60971490D01*
X89140707Y-60971493D01*
X88950253Y-61068534D01*
X88897831Y-61106621D01*
X88897831Y-61106622D01*
X89537051Y-61745842D01*
X89469007Y-61764075D01*
X89354993Y-61829901D01*
X89261901Y-61922993D01*
X89196075Y-62037007D01*
X89177842Y-62105051D01*
X88538622Y-61465831D01*
X88538621Y-61465831D01*
X88500534Y-61518253D01*
X88403493Y-61708707D01*
X88403490Y-61708713D01*
X88337440Y-61911996D01*
X88304000Y-62123126D01*
X88304000Y-62336873D01*
X88337440Y-62548003D01*
X88403490Y-62751286D01*
X88403493Y-62751292D01*
X88500535Y-62941748D01*
X88500536Y-62941750D01*
X88538620Y-62994167D01*
X88538621Y-62994168D01*
X89177841Y-62354947D01*
X89196075Y-62422993D01*
X89261901Y-62537007D01*
X89354993Y-62630099D01*
X89469007Y-62695925D01*
X89537051Y-62714157D01*
X88897831Y-63353378D01*
X88950249Y-63391463D01*
X88950251Y-63391464D01*
X89140707Y-63488506D01*
X89140713Y-63488509D01*
X89343996Y-63554559D01*
X89555126Y-63588000D01*
X89768874Y-63588000D01*
X89980003Y-63554559D01*
X90183286Y-63488509D01*
X90183292Y-63488506D01*
X90373750Y-63391463D01*
X90426167Y-63353378D01*
X90426167Y-63353376D01*
X89786948Y-62714157D01*
X89854993Y-62695925D01*
X89969007Y-62630099D01*
X90062099Y-62537007D01*
X90127925Y-62422993D01*
X90146157Y-62354948D01*
X90806595Y-63015386D01*
X90840621Y-63077698D01*
X90843500Y-63104481D01*
X90843500Y-63128649D01*
X90850009Y-63189196D01*
X90850011Y-63189204D01*
X90901110Y-63326202D01*
X90901112Y-63326207D01*
X90988738Y-63443261D01*
X91105792Y-63530887D01*
X91105794Y-63530888D01*
X91105796Y-63530889D01*
X91164875Y-63552924D01*
X91242795Y-63581988D01*
X91242798Y-63581988D01*
X91242799Y-63581989D01*
X91242804Y-63581990D01*
X91271812Y-63585108D01*
X91280965Y-63586092D01*
X91346558Y-63613259D01*
X91387051Y-63671576D01*
X91393500Y-63711370D01*
X91393500Y-64890918D01*
X91373498Y-64959039D01*
X91356595Y-64980013D01*
X88271999Y-68064608D01*
X88271994Y-68064615D01*
X88183516Y-68197031D01*
X88155721Y-68264136D01*
X88155721Y-68264137D01*
X88122571Y-68344167D01*
X88122570Y-68344168D01*
X88091500Y-68500367D01*
X88091500Y-68756325D01*
X88071498Y-68824446D01*
X88050800Y-68848161D01*
X88051070Y-68848431D01*
X87901936Y-68997564D01*
X87901934Y-68997567D01*
X87780873Y-69164193D01*
X87687367Y-69347708D01*
X87687364Y-69347714D01*
X87623721Y-69543587D01*
X87623720Y-69543590D01*
X87623720Y-69543592D01*
X87591500Y-69747019D01*
X86116500Y-69747019D01*
X86116500Y-59572500D01*
X86136502Y-59504379D01*
X86190158Y-59457886D01*
X86242500Y-59446500D01*
X159629500Y-59446500D01*
X159697621Y-59466502D01*
G37*
%TD.AperFunction*%
%TD*%
M02*
