%TF.GenerationSoftware,KiCad,Pcbnew,9.0.2+dfsg-1*%
%TF.CreationDate,2025-09-03T01:51:33+05:30*%
%TF.ProjectId,scopetester_v1,73636f70-6574-4657-9374-65725f76312e,rev?*%
%TF.SameCoordinates,Original*%
%TF.FileFunction,AssemblyDrawing,Top*%
%FSLAX46Y46*%
G04 Gerber Fmt 4.6, Leading zero omitted, Abs format (unit mm)*
G04 Created by KiCad (PCBNEW 9.0.2+dfsg-1) date 2025-09-03 01:51:33*
%MOMM*%
%LPD*%
G01*
G04 APERTURE LIST*
%ADD10C,0.150000*%
%ADD11C,0.090000*%
%ADD12C,0.120000*%
%ADD13C,0.100000*%
G04 APERTURE END LIST*
D10*
X125524819Y-99513333D02*
X126239104Y-99513333D01*
X126239104Y-99513333D02*
X126381961Y-99560952D01*
X126381961Y-99560952D02*
X126477200Y-99656190D01*
X126477200Y-99656190D02*
X126524819Y-99799047D01*
X126524819Y-99799047D02*
X126524819Y-99894285D01*
X125524819Y-99132380D02*
X125524819Y-98513333D01*
X125524819Y-98513333D02*
X125905771Y-98846666D01*
X125905771Y-98846666D02*
X125905771Y-98703809D01*
X125905771Y-98703809D02*
X125953390Y-98608571D01*
X125953390Y-98608571D02*
X126001009Y-98560952D01*
X126001009Y-98560952D02*
X126096247Y-98513333D01*
X126096247Y-98513333D02*
X126334342Y-98513333D01*
X126334342Y-98513333D02*
X126429580Y-98560952D01*
X126429580Y-98560952D02*
X126477200Y-98608571D01*
X126477200Y-98608571D02*
X126524819Y-98703809D01*
X126524819Y-98703809D02*
X126524819Y-98989523D01*
X126524819Y-98989523D02*
X126477200Y-99084761D01*
X126477200Y-99084761D02*
X126429580Y-99132380D01*
X110429143Y-106903104D02*
X110905333Y-106903104D01*
X110333905Y-107188819D02*
X110667238Y-106188819D01*
X110667238Y-106188819D02*
X111000571Y-107188819D01*
X111191048Y-106188819D02*
X111762476Y-106188819D01*
X111476762Y-107188819D02*
X111476762Y-106188819D01*
X112095810Y-107188819D02*
X112095810Y-106522152D01*
X112095810Y-106617390D02*
X112143429Y-106569771D01*
X112143429Y-106569771D02*
X112238667Y-106522152D01*
X112238667Y-106522152D02*
X112381524Y-106522152D01*
X112381524Y-106522152D02*
X112476762Y-106569771D01*
X112476762Y-106569771D02*
X112524381Y-106665009D01*
X112524381Y-106665009D02*
X112524381Y-107188819D01*
X112524381Y-106665009D02*
X112572000Y-106569771D01*
X112572000Y-106569771D02*
X112667238Y-106522152D01*
X112667238Y-106522152D02*
X112810095Y-106522152D01*
X112810095Y-106522152D02*
X112905334Y-106569771D01*
X112905334Y-106569771D02*
X112952953Y-106665009D01*
X112952953Y-106665009D02*
X112952953Y-107188819D01*
X113810095Y-107141200D02*
X113714857Y-107188819D01*
X113714857Y-107188819D02*
X113524381Y-107188819D01*
X113524381Y-107188819D02*
X113429143Y-107141200D01*
X113429143Y-107141200D02*
X113381524Y-107045961D01*
X113381524Y-107045961D02*
X113381524Y-106665009D01*
X113381524Y-106665009D02*
X113429143Y-106569771D01*
X113429143Y-106569771D02*
X113524381Y-106522152D01*
X113524381Y-106522152D02*
X113714857Y-106522152D01*
X113714857Y-106522152D02*
X113810095Y-106569771D01*
X113810095Y-106569771D02*
X113857714Y-106665009D01*
X113857714Y-106665009D02*
X113857714Y-106760247D01*
X113857714Y-106760247D02*
X113381524Y-106855485D01*
X114714857Y-106522152D02*
X114714857Y-107331676D01*
X114714857Y-107331676D02*
X114667238Y-107426914D01*
X114667238Y-107426914D02*
X114619619Y-107474533D01*
X114619619Y-107474533D02*
X114524381Y-107522152D01*
X114524381Y-107522152D02*
X114381524Y-107522152D01*
X114381524Y-107522152D02*
X114286286Y-107474533D01*
X114714857Y-107141200D02*
X114619619Y-107188819D01*
X114619619Y-107188819D02*
X114429143Y-107188819D01*
X114429143Y-107188819D02*
X114333905Y-107141200D01*
X114333905Y-107141200D02*
X114286286Y-107093580D01*
X114286286Y-107093580D02*
X114238667Y-106998342D01*
X114238667Y-106998342D02*
X114238667Y-106712628D01*
X114238667Y-106712628D02*
X114286286Y-106617390D01*
X114286286Y-106617390D02*
X114333905Y-106569771D01*
X114333905Y-106569771D02*
X114429143Y-106522152D01*
X114429143Y-106522152D02*
X114619619Y-106522152D01*
X114619619Y-106522152D02*
X114714857Y-106569771D01*
X115619619Y-107188819D02*
X115619619Y-106665009D01*
X115619619Y-106665009D02*
X115572000Y-106569771D01*
X115572000Y-106569771D02*
X115476762Y-106522152D01*
X115476762Y-106522152D02*
X115286286Y-106522152D01*
X115286286Y-106522152D02*
X115191048Y-106569771D01*
X115619619Y-107141200D02*
X115524381Y-107188819D01*
X115524381Y-107188819D02*
X115286286Y-107188819D01*
X115286286Y-107188819D02*
X115191048Y-107141200D01*
X115191048Y-107141200D02*
X115143429Y-107045961D01*
X115143429Y-107045961D02*
X115143429Y-106950723D01*
X115143429Y-106950723D02*
X115191048Y-106855485D01*
X115191048Y-106855485D02*
X115286286Y-106807866D01*
X115286286Y-106807866D02*
X115524381Y-106807866D01*
X115524381Y-106807866D02*
X115619619Y-106760247D01*
X116238667Y-106617390D02*
X116143429Y-106569771D01*
X116143429Y-106569771D02*
X116095810Y-106522152D01*
X116095810Y-106522152D02*
X116048191Y-106426914D01*
X116048191Y-106426914D02*
X116048191Y-106379295D01*
X116048191Y-106379295D02*
X116095810Y-106284057D01*
X116095810Y-106284057D02*
X116143429Y-106236438D01*
X116143429Y-106236438D02*
X116238667Y-106188819D01*
X116238667Y-106188819D02*
X116429143Y-106188819D01*
X116429143Y-106188819D02*
X116524381Y-106236438D01*
X116524381Y-106236438D02*
X116572000Y-106284057D01*
X116572000Y-106284057D02*
X116619619Y-106379295D01*
X116619619Y-106379295D02*
X116619619Y-106426914D01*
X116619619Y-106426914D02*
X116572000Y-106522152D01*
X116572000Y-106522152D02*
X116524381Y-106569771D01*
X116524381Y-106569771D02*
X116429143Y-106617390D01*
X116429143Y-106617390D02*
X116238667Y-106617390D01*
X116238667Y-106617390D02*
X116143429Y-106665009D01*
X116143429Y-106665009D02*
X116095810Y-106712628D01*
X116095810Y-106712628D02*
X116048191Y-106807866D01*
X116048191Y-106807866D02*
X116048191Y-106998342D01*
X116048191Y-106998342D02*
X116095810Y-107093580D01*
X116095810Y-107093580D02*
X116143429Y-107141200D01*
X116143429Y-107141200D02*
X116238667Y-107188819D01*
X116238667Y-107188819D02*
X116429143Y-107188819D01*
X116429143Y-107188819D02*
X116524381Y-107141200D01*
X116524381Y-107141200D02*
X116572000Y-107093580D01*
X116572000Y-107093580D02*
X116619619Y-106998342D01*
X116619619Y-106998342D02*
X116619619Y-106807866D01*
X116619619Y-106807866D02*
X116572000Y-106712628D01*
X116572000Y-106712628D02*
X116524381Y-106665009D01*
X116524381Y-106665009D02*
X116429143Y-106617390D01*
X117000572Y-106903104D02*
X117476762Y-106903104D01*
X116905334Y-107188819D02*
X117238667Y-106188819D01*
X117238667Y-106188819D02*
X117572000Y-107188819D01*
X117905334Y-106807866D02*
X118667239Y-106807866D01*
X119143429Y-107188819D02*
X119143429Y-106188819D01*
X119143429Y-106188819D02*
X119524381Y-106188819D01*
X119524381Y-106188819D02*
X119619619Y-106236438D01*
X119619619Y-106236438D02*
X119667238Y-106284057D01*
X119667238Y-106284057D02*
X119714857Y-106379295D01*
X119714857Y-106379295D02*
X119714857Y-106522152D01*
X119714857Y-106522152D02*
X119667238Y-106617390D01*
X119667238Y-106617390D02*
X119619619Y-106665009D01*
X119619619Y-106665009D02*
X119524381Y-106712628D01*
X119524381Y-106712628D02*
X119143429Y-106712628D01*
X114310095Y-87348819D02*
X114310095Y-88158342D01*
X114310095Y-88158342D02*
X114357714Y-88253580D01*
X114357714Y-88253580D02*
X114405333Y-88301200D01*
X114405333Y-88301200D02*
X114500571Y-88348819D01*
X114500571Y-88348819D02*
X114691047Y-88348819D01*
X114691047Y-88348819D02*
X114786285Y-88301200D01*
X114786285Y-88301200D02*
X114833904Y-88253580D01*
X114833904Y-88253580D02*
X114881523Y-88158342D01*
X114881523Y-88158342D02*
X114881523Y-87348819D01*
X115881523Y-88348819D02*
X115310095Y-88348819D01*
X115595809Y-88348819D02*
X115595809Y-87348819D01*
X115595809Y-87348819D02*
X115500571Y-87491676D01*
X115500571Y-87491676D02*
X115405333Y-87586914D01*
X115405333Y-87586914D02*
X115310095Y-87634533D01*
X104576819Y-86617619D02*
X104576819Y-87189047D01*
X104576819Y-86903333D02*
X103576819Y-86903333D01*
X103576819Y-86903333D02*
X103719676Y-86998571D01*
X103719676Y-86998571D02*
X103814914Y-87093809D01*
X103814914Y-87093809D02*
X103862533Y-87189047D01*
X103576819Y-85998571D02*
X103576819Y-85903333D01*
X103576819Y-85903333D02*
X103624438Y-85808095D01*
X103624438Y-85808095D02*
X103672057Y-85760476D01*
X103672057Y-85760476D02*
X103767295Y-85712857D01*
X103767295Y-85712857D02*
X103957771Y-85665238D01*
X103957771Y-85665238D02*
X104195866Y-85665238D01*
X104195866Y-85665238D02*
X104386342Y-85712857D01*
X104386342Y-85712857D02*
X104481580Y-85760476D01*
X104481580Y-85760476D02*
X104529200Y-85808095D01*
X104529200Y-85808095D02*
X104576819Y-85903333D01*
X104576819Y-85903333D02*
X104576819Y-85998571D01*
X104576819Y-85998571D02*
X104529200Y-86093809D01*
X104529200Y-86093809D02*
X104481580Y-86141428D01*
X104481580Y-86141428D02*
X104386342Y-86189047D01*
X104386342Y-86189047D02*
X104195866Y-86236666D01*
X104195866Y-86236666D02*
X103957771Y-86236666D01*
X103957771Y-86236666D02*
X103767295Y-86189047D01*
X103767295Y-86189047D02*
X103672057Y-86141428D01*
X103672057Y-86141428D02*
X103624438Y-86093809D01*
X103624438Y-86093809D02*
X103576819Y-85998571D01*
X103576819Y-85046190D02*
X103576819Y-84950952D01*
X103576819Y-84950952D02*
X103624438Y-84855714D01*
X103624438Y-84855714D02*
X103672057Y-84808095D01*
X103672057Y-84808095D02*
X103767295Y-84760476D01*
X103767295Y-84760476D02*
X103957771Y-84712857D01*
X103957771Y-84712857D02*
X104195866Y-84712857D01*
X104195866Y-84712857D02*
X104386342Y-84760476D01*
X104386342Y-84760476D02*
X104481580Y-84808095D01*
X104481580Y-84808095D02*
X104529200Y-84855714D01*
X104529200Y-84855714D02*
X104576819Y-84950952D01*
X104576819Y-84950952D02*
X104576819Y-85046190D01*
X104576819Y-85046190D02*
X104529200Y-85141428D01*
X104529200Y-85141428D02*
X104481580Y-85189047D01*
X104481580Y-85189047D02*
X104386342Y-85236666D01*
X104386342Y-85236666D02*
X104195866Y-85284285D01*
X104195866Y-85284285D02*
X103957771Y-85284285D01*
X103957771Y-85284285D02*
X103767295Y-85236666D01*
X103767295Y-85236666D02*
X103672057Y-85189047D01*
X103672057Y-85189047D02*
X103624438Y-85141428D01*
X103624438Y-85141428D02*
X103576819Y-85046190D01*
X103910152Y-84284285D02*
X104576819Y-84284285D01*
X104005390Y-84284285D02*
X103957771Y-84236666D01*
X103957771Y-84236666D02*
X103910152Y-84141428D01*
X103910152Y-84141428D02*
X103910152Y-83998571D01*
X103910152Y-83998571D02*
X103957771Y-83903333D01*
X103957771Y-83903333D02*
X104053009Y-83855714D01*
X104053009Y-83855714D02*
X104576819Y-83855714D01*
X104053009Y-83046190D02*
X104053009Y-83379523D01*
X104576819Y-83379523D02*
X103576819Y-83379523D01*
X103576819Y-83379523D02*
X103576819Y-82903333D01*
D11*
X106387748Y-85169999D02*
X106416320Y-85198571D01*
X106416320Y-85198571D02*
X106444891Y-85284285D01*
X106444891Y-85284285D02*
X106444891Y-85341428D01*
X106444891Y-85341428D02*
X106416320Y-85427142D01*
X106416320Y-85427142D02*
X106359177Y-85484285D01*
X106359177Y-85484285D02*
X106302034Y-85512856D01*
X106302034Y-85512856D02*
X106187748Y-85541428D01*
X106187748Y-85541428D02*
X106102034Y-85541428D01*
X106102034Y-85541428D02*
X105987748Y-85512856D01*
X105987748Y-85512856D02*
X105930605Y-85484285D01*
X105930605Y-85484285D02*
X105873462Y-85427142D01*
X105873462Y-85427142D02*
X105844891Y-85341428D01*
X105844891Y-85341428D02*
X105844891Y-85284285D01*
X105844891Y-85284285D02*
X105873462Y-85198571D01*
X105873462Y-85198571D02*
X105902034Y-85169999D01*
X105844891Y-84655714D02*
X105844891Y-84769999D01*
X105844891Y-84769999D02*
X105873462Y-84827142D01*
X105873462Y-84827142D02*
X105902034Y-84855714D01*
X105902034Y-84855714D02*
X105987748Y-84912856D01*
X105987748Y-84912856D02*
X106102034Y-84941428D01*
X106102034Y-84941428D02*
X106330605Y-84941428D01*
X106330605Y-84941428D02*
X106387748Y-84912856D01*
X106387748Y-84912856D02*
X106416320Y-84884285D01*
X106416320Y-84884285D02*
X106444891Y-84827142D01*
X106444891Y-84827142D02*
X106444891Y-84712856D01*
X106444891Y-84712856D02*
X106416320Y-84655714D01*
X106416320Y-84655714D02*
X106387748Y-84627142D01*
X106387748Y-84627142D02*
X106330605Y-84598571D01*
X106330605Y-84598571D02*
X106187748Y-84598571D01*
X106187748Y-84598571D02*
X106130605Y-84627142D01*
X106130605Y-84627142D02*
X106102034Y-84655714D01*
X106102034Y-84655714D02*
X106073462Y-84712856D01*
X106073462Y-84712856D02*
X106073462Y-84827142D01*
X106073462Y-84827142D02*
X106102034Y-84884285D01*
X106102034Y-84884285D02*
X106130605Y-84912856D01*
X106130605Y-84912856D02*
X106187748Y-84941428D01*
D10*
X131654819Y-94523333D02*
X132369104Y-94523333D01*
X132369104Y-94523333D02*
X132511961Y-94570952D01*
X132511961Y-94570952D02*
X132607200Y-94666190D01*
X132607200Y-94666190D02*
X132654819Y-94809047D01*
X132654819Y-94809047D02*
X132654819Y-94904285D01*
X132654819Y-94047142D02*
X131654819Y-94047142D01*
X131654819Y-94047142D02*
X131654819Y-93666190D01*
X131654819Y-93666190D02*
X131702438Y-93570952D01*
X131702438Y-93570952D02*
X131750057Y-93523333D01*
X131750057Y-93523333D02*
X131845295Y-93475714D01*
X131845295Y-93475714D02*
X131988152Y-93475714D01*
X131988152Y-93475714D02*
X132083390Y-93523333D01*
X132083390Y-93523333D02*
X132131009Y-93570952D01*
X132131009Y-93570952D02*
X132178628Y-93666190D01*
X132178628Y-93666190D02*
X132178628Y-94047142D01*
X132654819Y-92523333D02*
X132654819Y-93094761D01*
X132654819Y-92809047D02*
X131654819Y-92809047D01*
X131654819Y-92809047D02*
X131797676Y-92904285D01*
X131797676Y-92904285D02*
X131892914Y-92999523D01*
X131892914Y-92999523D02*
X131940533Y-93094761D01*
X126103238Y-79136057D02*
X126150857Y-79088438D01*
X126150857Y-79088438D02*
X126246095Y-79040819D01*
X126246095Y-79040819D02*
X126484190Y-79040819D01*
X126484190Y-79040819D02*
X126579428Y-79088438D01*
X126579428Y-79088438D02*
X126627047Y-79136057D01*
X126627047Y-79136057D02*
X126674666Y-79231295D01*
X126674666Y-79231295D02*
X126674666Y-79326533D01*
X126674666Y-79326533D02*
X126627047Y-79469390D01*
X126627047Y-79469390D02*
X126055619Y-80040819D01*
X126055619Y-80040819D02*
X126674666Y-80040819D01*
X127103238Y-79945580D02*
X127150857Y-79993200D01*
X127150857Y-79993200D02*
X127103238Y-80040819D01*
X127103238Y-80040819D02*
X127055619Y-79993200D01*
X127055619Y-79993200D02*
X127103238Y-79945580D01*
X127103238Y-79945580D02*
X127103238Y-80040819D01*
X127531809Y-79136057D02*
X127579428Y-79088438D01*
X127579428Y-79088438D02*
X127674666Y-79040819D01*
X127674666Y-79040819D02*
X127912761Y-79040819D01*
X127912761Y-79040819D02*
X128007999Y-79088438D01*
X128007999Y-79088438D02*
X128055618Y-79136057D01*
X128055618Y-79136057D02*
X128103237Y-79231295D01*
X128103237Y-79231295D02*
X128103237Y-79326533D01*
X128103237Y-79326533D02*
X128055618Y-79469390D01*
X128055618Y-79469390D02*
X127484190Y-80040819D01*
X127484190Y-80040819D02*
X128103237Y-80040819D01*
X128531809Y-80040819D02*
X128531809Y-79040819D01*
X128627047Y-79659866D02*
X128912761Y-80040819D01*
X128912761Y-79374152D02*
X128531809Y-79755104D01*
X127341333Y-77670819D02*
X127008000Y-77194628D01*
X126769905Y-77670819D02*
X126769905Y-76670819D01*
X126769905Y-76670819D02*
X127150857Y-76670819D01*
X127150857Y-76670819D02*
X127246095Y-76718438D01*
X127246095Y-76718438D02*
X127293714Y-76766057D01*
X127293714Y-76766057D02*
X127341333Y-76861295D01*
X127341333Y-76861295D02*
X127341333Y-77004152D01*
X127341333Y-77004152D02*
X127293714Y-77099390D01*
X127293714Y-77099390D02*
X127246095Y-77147009D01*
X127246095Y-77147009D02*
X127150857Y-77194628D01*
X127150857Y-77194628D02*
X126769905Y-77194628D01*
X127912762Y-77099390D02*
X127817524Y-77051771D01*
X127817524Y-77051771D02*
X127769905Y-77004152D01*
X127769905Y-77004152D02*
X127722286Y-76908914D01*
X127722286Y-76908914D02*
X127722286Y-76861295D01*
X127722286Y-76861295D02*
X127769905Y-76766057D01*
X127769905Y-76766057D02*
X127817524Y-76718438D01*
X127817524Y-76718438D02*
X127912762Y-76670819D01*
X127912762Y-76670819D02*
X128103238Y-76670819D01*
X128103238Y-76670819D02*
X128198476Y-76718438D01*
X128198476Y-76718438D02*
X128246095Y-76766057D01*
X128246095Y-76766057D02*
X128293714Y-76861295D01*
X128293714Y-76861295D02*
X128293714Y-76908914D01*
X128293714Y-76908914D02*
X128246095Y-77004152D01*
X128246095Y-77004152D02*
X128198476Y-77051771D01*
X128198476Y-77051771D02*
X128103238Y-77099390D01*
X128103238Y-77099390D02*
X127912762Y-77099390D01*
X127912762Y-77099390D02*
X127817524Y-77147009D01*
X127817524Y-77147009D02*
X127769905Y-77194628D01*
X127769905Y-77194628D02*
X127722286Y-77289866D01*
X127722286Y-77289866D02*
X127722286Y-77480342D01*
X127722286Y-77480342D02*
X127769905Y-77575580D01*
X127769905Y-77575580D02*
X127817524Y-77623200D01*
X127817524Y-77623200D02*
X127912762Y-77670819D01*
X127912762Y-77670819D02*
X128103238Y-77670819D01*
X128103238Y-77670819D02*
X128198476Y-77623200D01*
X128198476Y-77623200D02*
X128246095Y-77575580D01*
X128246095Y-77575580D02*
X128293714Y-77480342D01*
X128293714Y-77480342D02*
X128293714Y-77289866D01*
X128293714Y-77289866D02*
X128246095Y-77194628D01*
X128246095Y-77194628D02*
X128198476Y-77147009D01*
X128198476Y-77147009D02*
X128103238Y-77099390D01*
X139898057Y-100870761D02*
X139850438Y-100823142D01*
X139850438Y-100823142D02*
X139802819Y-100727904D01*
X139802819Y-100727904D02*
X139802819Y-100489809D01*
X139802819Y-100489809D02*
X139850438Y-100394571D01*
X139850438Y-100394571D02*
X139898057Y-100346952D01*
X139898057Y-100346952D02*
X139993295Y-100299333D01*
X139993295Y-100299333D02*
X140088533Y-100299333D01*
X140088533Y-100299333D02*
X140231390Y-100346952D01*
X140231390Y-100346952D02*
X140802819Y-100918380D01*
X140802819Y-100918380D02*
X140802819Y-100299333D01*
X140707580Y-99870761D02*
X140755200Y-99823142D01*
X140755200Y-99823142D02*
X140802819Y-99870761D01*
X140802819Y-99870761D02*
X140755200Y-99918380D01*
X140755200Y-99918380D02*
X140707580Y-99870761D01*
X140707580Y-99870761D02*
X140802819Y-99870761D01*
X139898057Y-99442190D02*
X139850438Y-99394571D01*
X139850438Y-99394571D02*
X139802819Y-99299333D01*
X139802819Y-99299333D02*
X139802819Y-99061238D01*
X139802819Y-99061238D02*
X139850438Y-98966000D01*
X139850438Y-98966000D02*
X139898057Y-98918381D01*
X139898057Y-98918381D02*
X139993295Y-98870762D01*
X139993295Y-98870762D02*
X140088533Y-98870762D01*
X140088533Y-98870762D02*
X140231390Y-98918381D01*
X140231390Y-98918381D02*
X140802819Y-99489809D01*
X140802819Y-99489809D02*
X140802819Y-98870762D01*
X140802819Y-98442190D02*
X139802819Y-98442190D01*
X140421866Y-98346952D02*
X140802819Y-98061238D01*
X140136152Y-98061238D02*
X140517104Y-98442190D01*
X138602819Y-100732666D02*
X138126628Y-101065999D01*
X138602819Y-101304094D02*
X137602819Y-101304094D01*
X137602819Y-101304094D02*
X137602819Y-100923142D01*
X137602819Y-100923142D02*
X137650438Y-100827904D01*
X137650438Y-100827904D02*
X137698057Y-100780285D01*
X137698057Y-100780285D02*
X137793295Y-100732666D01*
X137793295Y-100732666D02*
X137936152Y-100732666D01*
X137936152Y-100732666D02*
X138031390Y-100780285D01*
X138031390Y-100780285D02*
X138079009Y-100827904D01*
X138079009Y-100827904D02*
X138126628Y-100923142D01*
X138126628Y-100923142D02*
X138126628Y-101304094D01*
X137602819Y-99827904D02*
X137602819Y-100304094D01*
X137602819Y-100304094D02*
X138079009Y-100351713D01*
X138079009Y-100351713D02*
X138031390Y-100304094D01*
X138031390Y-100304094D02*
X137983771Y-100208856D01*
X137983771Y-100208856D02*
X137983771Y-99970761D01*
X137983771Y-99970761D02*
X138031390Y-99875523D01*
X138031390Y-99875523D02*
X138079009Y-99827904D01*
X138079009Y-99827904D02*
X138174247Y-99780285D01*
X138174247Y-99780285D02*
X138412342Y-99780285D01*
X138412342Y-99780285D02*
X138507580Y-99827904D01*
X138507580Y-99827904D02*
X138555200Y-99875523D01*
X138555200Y-99875523D02*
X138602819Y-99970761D01*
X138602819Y-99970761D02*
X138602819Y-100208856D01*
X138602819Y-100208856D02*
X138555200Y-100304094D01*
X138555200Y-100304094D02*
X138507580Y-100351713D01*
D12*
X150363855Y-92460255D02*
X149563855Y-92460255D01*
X149563855Y-92460255D02*
X149563855Y-92269779D01*
X149563855Y-92269779D02*
X149601950Y-92155493D01*
X149601950Y-92155493D02*
X149678140Y-92079303D01*
X149678140Y-92079303D02*
X149754331Y-92041208D01*
X149754331Y-92041208D02*
X149906712Y-92003112D01*
X149906712Y-92003112D02*
X150020998Y-92003112D01*
X150020998Y-92003112D02*
X150173379Y-92041208D01*
X150173379Y-92041208D02*
X150249569Y-92079303D01*
X150249569Y-92079303D02*
X150325760Y-92155493D01*
X150325760Y-92155493D02*
X150363855Y-92269779D01*
X150363855Y-92269779D02*
X150363855Y-92460255D01*
X150363855Y-91241208D02*
X150363855Y-91698351D01*
X150363855Y-91469779D02*
X149563855Y-91469779D01*
X149563855Y-91469779D02*
X149678140Y-91545970D01*
X149678140Y-91545970D02*
X149754331Y-91622160D01*
X149754331Y-91622160D02*
X149792426Y-91698351D01*
D10*
X98029819Y-95830476D02*
X98029819Y-96401904D01*
X98029819Y-96116190D02*
X97029819Y-96116190D01*
X97029819Y-96116190D02*
X97172676Y-96211428D01*
X97172676Y-96211428D02*
X97267914Y-96306666D01*
X97267914Y-96306666D02*
X97315533Y-96401904D01*
X97029819Y-94973333D02*
X97029819Y-95163809D01*
X97029819Y-95163809D02*
X97077438Y-95259047D01*
X97077438Y-95259047D02*
X97125057Y-95306666D01*
X97125057Y-95306666D02*
X97267914Y-95401904D01*
X97267914Y-95401904D02*
X97458390Y-95449523D01*
X97458390Y-95449523D02*
X97839342Y-95449523D01*
X97839342Y-95449523D02*
X97934580Y-95401904D01*
X97934580Y-95401904D02*
X97982200Y-95354285D01*
X97982200Y-95354285D02*
X98029819Y-95259047D01*
X98029819Y-95259047D02*
X98029819Y-95068571D01*
X98029819Y-95068571D02*
X97982200Y-94973333D01*
X97982200Y-94973333D02*
X97934580Y-94925714D01*
X97934580Y-94925714D02*
X97839342Y-94878095D01*
X97839342Y-94878095D02*
X97601247Y-94878095D01*
X97601247Y-94878095D02*
X97506009Y-94925714D01*
X97506009Y-94925714D02*
X97458390Y-94973333D01*
X97458390Y-94973333D02*
X97410771Y-95068571D01*
X97410771Y-95068571D02*
X97410771Y-95259047D01*
X97410771Y-95259047D02*
X97458390Y-95354285D01*
X97458390Y-95354285D02*
X97506009Y-95401904D01*
X97506009Y-95401904D02*
X97601247Y-95449523D01*
X98029819Y-94449523D02*
X97029819Y-94449523D01*
X97029819Y-94449523D02*
X97744104Y-94116190D01*
X97744104Y-94116190D02*
X97029819Y-93782857D01*
X97029819Y-93782857D02*
X98029819Y-93782857D01*
X98029819Y-93306666D02*
X97029819Y-93306666D01*
X97506009Y-93306666D02*
X97506009Y-92735238D01*
X98029819Y-92735238D02*
X97029819Y-92735238D01*
X97363152Y-92354285D02*
X97363152Y-91830476D01*
X97363152Y-91830476D02*
X98029819Y-92354285D01*
X98029819Y-92354285D02*
X98029819Y-91830476D01*
X101078628Y-94626190D02*
X101554819Y-94626190D01*
X100554819Y-94959523D02*
X101078628Y-94626190D01*
X101078628Y-94626190D02*
X100554819Y-94292857D01*
X101554819Y-93435714D02*
X101554819Y-94007142D01*
X101554819Y-93721428D02*
X100554819Y-93721428D01*
X100554819Y-93721428D02*
X100697676Y-93816666D01*
X100697676Y-93816666D02*
X100792914Y-93911904D01*
X100792914Y-93911904D02*
X100840533Y-94007142D01*
X126103238Y-83454057D02*
X126150857Y-83406438D01*
X126150857Y-83406438D02*
X126246095Y-83358819D01*
X126246095Y-83358819D02*
X126484190Y-83358819D01*
X126484190Y-83358819D02*
X126579428Y-83406438D01*
X126579428Y-83406438D02*
X126627047Y-83454057D01*
X126627047Y-83454057D02*
X126674666Y-83549295D01*
X126674666Y-83549295D02*
X126674666Y-83644533D01*
X126674666Y-83644533D02*
X126627047Y-83787390D01*
X126627047Y-83787390D02*
X126055619Y-84358819D01*
X126055619Y-84358819D02*
X126674666Y-84358819D01*
X127103238Y-84263580D02*
X127150857Y-84311200D01*
X127150857Y-84311200D02*
X127103238Y-84358819D01*
X127103238Y-84358819D02*
X127055619Y-84311200D01*
X127055619Y-84311200D02*
X127103238Y-84263580D01*
X127103238Y-84263580D02*
X127103238Y-84358819D01*
X127531809Y-83454057D02*
X127579428Y-83406438D01*
X127579428Y-83406438D02*
X127674666Y-83358819D01*
X127674666Y-83358819D02*
X127912761Y-83358819D01*
X127912761Y-83358819D02*
X128007999Y-83406438D01*
X128007999Y-83406438D02*
X128055618Y-83454057D01*
X128055618Y-83454057D02*
X128103237Y-83549295D01*
X128103237Y-83549295D02*
X128103237Y-83644533D01*
X128103237Y-83644533D02*
X128055618Y-83787390D01*
X128055618Y-83787390D02*
X127484190Y-84358819D01*
X127484190Y-84358819D02*
X128103237Y-84358819D01*
X128531809Y-84358819D02*
X128531809Y-83358819D01*
X128627047Y-83977866D02*
X128912761Y-84358819D01*
X128912761Y-83692152D02*
X128531809Y-84073104D01*
X127341333Y-81988819D02*
X127008000Y-81512628D01*
X126769905Y-81988819D02*
X126769905Y-80988819D01*
X126769905Y-80988819D02*
X127150857Y-80988819D01*
X127150857Y-80988819D02*
X127246095Y-81036438D01*
X127246095Y-81036438D02*
X127293714Y-81084057D01*
X127293714Y-81084057D02*
X127341333Y-81179295D01*
X127341333Y-81179295D02*
X127341333Y-81322152D01*
X127341333Y-81322152D02*
X127293714Y-81417390D01*
X127293714Y-81417390D02*
X127246095Y-81465009D01*
X127246095Y-81465009D02*
X127150857Y-81512628D01*
X127150857Y-81512628D02*
X126769905Y-81512628D01*
X127817524Y-81988819D02*
X128008000Y-81988819D01*
X128008000Y-81988819D02*
X128103238Y-81941200D01*
X128103238Y-81941200D02*
X128150857Y-81893580D01*
X128150857Y-81893580D02*
X128246095Y-81750723D01*
X128246095Y-81750723D02*
X128293714Y-81560247D01*
X128293714Y-81560247D02*
X128293714Y-81179295D01*
X128293714Y-81179295D02*
X128246095Y-81084057D01*
X128246095Y-81084057D02*
X128198476Y-81036438D01*
X128198476Y-81036438D02*
X128103238Y-80988819D01*
X128103238Y-80988819D02*
X127912762Y-80988819D01*
X127912762Y-80988819D02*
X127817524Y-81036438D01*
X127817524Y-81036438D02*
X127769905Y-81084057D01*
X127769905Y-81084057D02*
X127722286Y-81179295D01*
X127722286Y-81179295D02*
X127722286Y-81417390D01*
X127722286Y-81417390D02*
X127769905Y-81512628D01*
X127769905Y-81512628D02*
X127817524Y-81560247D01*
X127817524Y-81560247D02*
X127912762Y-81607866D01*
X127912762Y-81607866D02*
X128103238Y-81607866D01*
X128103238Y-81607866D02*
X128198476Y-81560247D01*
X128198476Y-81560247D02*
X128246095Y-81512628D01*
X128246095Y-81512628D02*
X128293714Y-81417390D01*
X156522057Y-76334761D02*
X156474438Y-76287142D01*
X156474438Y-76287142D02*
X156426819Y-76191904D01*
X156426819Y-76191904D02*
X156426819Y-75953809D01*
X156426819Y-75953809D02*
X156474438Y-75858571D01*
X156474438Y-75858571D02*
X156522057Y-75810952D01*
X156522057Y-75810952D02*
X156617295Y-75763333D01*
X156617295Y-75763333D02*
X156712533Y-75763333D01*
X156712533Y-75763333D02*
X156855390Y-75810952D01*
X156855390Y-75810952D02*
X157426819Y-76382380D01*
X157426819Y-76382380D02*
X157426819Y-75763333D01*
X157331580Y-75334761D02*
X157379200Y-75287142D01*
X157379200Y-75287142D02*
X157426819Y-75334761D01*
X157426819Y-75334761D02*
X157379200Y-75382380D01*
X157379200Y-75382380D02*
X157331580Y-75334761D01*
X157331580Y-75334761D02*
X157426819Y-75334761D01*
X156522057Y-74906190D02*
X156474438Y-74858571D01*
X156474438Y-74858571D02*
X156426819Y-74763333D01*
X156426819Y-74763333D02*
X156426819Y-74525238D01*
X156426819Y-74525238D02*
X156474438Y-74430000D01*
X156474438Y-74430000D02*
X156522057Y-74382381D01*
X156522057Y-74382381D02*
X156617295Y-74334762D01*
X156617295Y-74334762D02*
X156712533Y-74334762D01*
X156712533Y-74334762D02*
X156855390Y-74382381D01*
X156855390Y-74382381D02*
X157426819Y-74953809D01*
X157426819Y-74953809D02*
X157426819Y-74334762D01*
X157426819Y-73906190D02*
X156426819Y-73906190D01*
X157045866Y-73810952D02*
X157426819Y-73525238D01*
X156760152Y-73525238D02*
X157141104Y-73906190D01*
X157426819Y-82430857D02*
X156950628Y-82764190D01*
X157426819Y-83002285D02*
X156426819Y-83002285D01*
X156426819Y-83002285D02*
X156426819Y-82621333D01*
X156426819Y-82621333D02*
X156474438Y-82526095D01*
X156474438Y-82526095D02*
X156522057Y-82478476D01*
X156522057Y-82478476D02*
X156617295Y-82430857D01*
X156617295Y-82430857D02*
X156760152Y-82430857D01*
X156760152Y-82430857D02*
X156855390Y-82478476D01*
X156855390Y-82478476D02*
X156903009Y-82526095D01*
X156903009Y-82526095D02*
X156950628Y-82621333D01*
X156950628Y-82621333D02*
X156950628Y-83002285D01*
X156522057Y-82049904D02*
X156474438Y-82002285D01*
X156474438Y-82002285D02*
X156426819Y-81907047D01*
X156426819Y-81907047D02*
X156426819Y-81668952D01*
X156426819Y-81668952D02*
X156474438Y-81573714D01*
X156474438Y-81573714D02*
X156522057Y-81526095D01*
X156522057Y-81526095D02*
X156617295Y-81478476D01*
X156617295Y-81478476D02*
X156712533Y-81478476D01*
X156712533Y-81478476D02*
X156855390Y-81526095D01*
X156855390Y-81526095D02*
X157426819Y-82097523D01*
X157426819Y-82097523D02*
X157426819Y-81478476D01*
X156426819Y-81145142D02*
X156426819Y-80526095D01*
X156426819Y-80526095D02*
X156807771Y-80859428D01*
X156807771Y-80859428D02*
X156807771Y-80716571D01*
X156807771Y-80716571D02*
X156855390Y-80621333D01*
X156855390Y-80621333D02*
X156903009Y-80573714D01*
X156903009Y-80573714D02*
X156998247Y-80526095D01*
X156998247Y-80526095D02*
X157236342Y-80526095D01*
X157236342Y-80526095D02*
X157331580Y-80573714D01*
X157331580Y-80573714D02*
X157379200Y-80621333D01*
X157379200Y-80621333D02*
X157426819Y-80716571D01*
X157426819Y-80716571D02*
X157426819Y-81002285D01*
X157426819Y-81002285D02*
X157379200Y-81097523D01*
X157379200Y-81097523D02*
X157331580Y-81145142D01*
X137025238Y-69992057D02*
X137072857Y-69944438D01*
X137072857Y-69944438D02*
X137168095Y-69896819D01*
X137168095Y-69896819D02*
X137406190Y-69896819D01*
X137406190Y-69896819D02*
X137501428Y-69944438D01*
X137501428Y-69944438D02*
X137549047Y-69992057D01*
X137549047Y-69992057D02*
X137596666Y-70087295D01*
X137596666Y-70087295D02*
X137596666Y-70182533D01*
X137596666Y-70182533D02*
X137549047Y-70325390D01*
X137549047Y-70325390D02*
X136977619Y-70896819D01*
X136977619Y-70896819D02*
X137596666Y-70896819D01*
X138025238Y-70801580D02*
X138072857Y-70849200D01*
X138072857Y-70849200D02*
X138025238Y-70896819D01*
X138025238Y-70896819D02*
X137977619Y-70849200D01*
X137977619Y-70849200D02*
X138025238Y-70801580D01*
X138025238Y-70801580D02*
X138025238Y-70896819D01*
X138453809Y-69992057D02*
X138501428Y-69944438D01*
X138501428Y-69944438D02*
X138596666Y-69896819D01*
X138596666Y-69896819D02*
X138834761Y-69896819D01*
X138834761Y-69896819D02*
X138929999Y-69944438D01*
X138929999Y-69944438D02*
X138977618Y-69992057D01*
X138977618Y-69992057D02*
X139025237Y-70087295D01*
X139025237Y-70087295D02*
X139025237Y-70182533D01*
X139025237Y-70182533D02*
X138977618Y-70325390D01*
X138977618Y-70325390D02*
X138406190Y-70896819D01*
X138406190Y-70896819D02*
X139025237Y-70896819D01*
X139453809Y-70896819D02*
X139453809Y-69896819D01*
X139549047Y-70515866D02*
X139834761Y-70896819D01*
X139834761Y-70230152D02*
X139453809Y-70611104D01*
X137787142Y-68526819D02*
X137453809Y-68050628D01*
X137215714Y-68526819D02*
X137215714Y-67526819D01*
X137215714Y-67526819D02*
X137596666Y-67526819D01*
X137596666Y-67526819D02*
X137691904Y-67574438D01*
X137691904Y-67574438D02*
X137739523Y-67622057D01*
X137739523Y-67622057D02*
X137787142Y-67717295D01*
X137787142Y-67717295D02*
X137787142Y-67860152D01*
X137787142Y-67860152D02*
X137739523Y-67955390D01*
X137739523Y-67955390D02*
X137691904Y-68003009D01*
X137691904Y-68003009D02*
X137596666Y-68050628D01*
X137596666Y-68050628D02*
X137215714Y-68050628D01*
X138739523Y-68526819D02*
X138168095Y-68526819D01*
X138453809Y-68526819D02*
X138453809Y-67526819D01*
X138453809Y-67526819D02*
X138358571Y-67669676D01*
X138358571Y-67669676D02*
X138263333Y-67764914D01*
X138263333Y-67764914D02*
X138168095Y-67812533D01*
X139120476Y-67622057D02*
X139168095Y-67574438D01*
X139168095Y-67574438D02*
X139263333Y-67526819D01*
X139263333Y-67526819D02*
X139501428Y-67526819D01*
X139501428Y-67526819D02*
X139596666Y-67574438D01*
X139596666Y-67574438D02*
X139644285Y-67622057D01*
X139644285Y-67622057D02*
X139691904Y-67717295D01*
X139691904Y-67717295D02*
X139691904Y-67812533D01*
X139691904Y-67812533D02*
X139644285Y-67955390D01*
X139644285Y-67955390D02*
X139072857Y-68526819D01*
X139072857Y-68526819D02*
X139691904Y-68526819D01*
X148201238Y-83370057D02*
X148248857Y-83322438D01*
X148248857Y-83322438D02*
X148344095Y-83274819D01*
X148344095Y-83274819D02*
X148582190Y-83274819D01*
X148582190Y-83274819D02*
X148677428Y-83322438D01*
X148677428Y-83322438D02*
X148725047Y-83370057D01*
X148725047Y-83370057D02*
X148772666Y-83465295D01*
X148772666Y-83465295D02*
X148772666Y-83560533D01*
X148772666Y-83560533D02*
X148725047Y-83703390D01*
X148725047Y-83703390D02*
X148153619Y-84274819D01*
X148153619Y-84274819D02*
X148772666Y-84274819D01*
X149201238Y-84179580D02*
X149248857Y-84227200D01*
X149248857Y-84227200D02*
X149201238Y-84274819D01*
X149201238Y-84274819D02*
X149153619Y-84227200D01*
X149153619Y-84227200D02*
X149201238Y-84179580D01*
X149201238Y-84179580D02*
X149201238Y-84274819D01*
X149629809Y-83370057D02*
X149677428Y-83322438D01*
X149677428Y-83322438D02*
X149772666Y-83274819D01*
X149772666Y-83274819D02*
X150010761Y-83274819D01*
X150010761Y-83274819D02*
X150105999Y-83322438D01*
X150105999Y-83322438D02*
X150153618Y-83370057D01*
X150153618Y-83370057D02*
X150201237Y-83465295D01*
X150201237Y-83465295D02*
X150201237Y-83560533D01*
X150201237Y-83560533D02*
X150153618Y-83703390D01*
X150153618Y-83703390D02*
X149582190Y-84274819D01*
X149582190Y-84274819D02*
X150201237Y-84274819D01*
X150629809Y-84274819D02*
X150629809Y-83274819D01*
X150725047Y-83893866D02*
X151010761Y-84274819D01*
X151010761Y-83608152D02*
X150629809Y-83989104D01*
X148709142Y-81988819D02*
X148375809Y-81512628D01*
X148137714Y-81988819D02*
X148137714Y-80988819D01*
X148137714Y-80988819D02*
X148518666Y-80988819D01*
X148518666Y-80988819D02*
X148613904Y-81036438D01*
X148613904Y-81036438D02*
X148661523Y-81084057D01*
X148661523Y-81084057D02*
X148709142Y-81179295D01*
X148709142Y-81179295D02*
X148709142Y-81322152D01*
X148709142Y-81322152D02*
X148661523Y-81417390D01*
X148661523Y-81417390D02*
X148613904Y-81465009D01*
X148613904Y-81465009D02*
X148518666Y-81512628D01*
X148518666Y-81512628D02*
X148137714Y-81512628D01*
X149090095Y-81084057D02*
X149137714Y-81036438D01*
X149137714Y-81036438D02*
X149232952Y-80988819D01*
X149232952Y-80988819D02*
X149471047Y-80988819D01*
X149471047Y-80988819D02*
X149566285Y-81036438D01*
X149566285Y-81036438D02*
X149613904Y-81084057D01*
X149613904Y-81084057D02*
X149661523Y-81179295D01*
X149661523Y-81179295D02*
X149661523Y-81274533D01*
X149661523Y-81274533D02*
X149613904Y-81417390D01*
X149613904Y-81417390D02*
X149042476Y-81988819D01*
X149042476Y-81988819D02*
X149661523Y-81988819D01*
X150613904Y-81988819D02*
X150042476Y-81988819D01*
X150328190Y-81988819D02*
X150328190Y-80988819D01*
X150328190Y-80988819D02*
X150232952Y-81131676D01*
X150232952Y-81131676D02*
X150137714Y-81226914D01*
X150137714Y-81226914D02*
X150042476Y-81274533D01*
X148201238Y-69908057D02*
X148248857Y-69860438D01*
X148248857Y-69860438D02*
X148344095Y-69812819D01*
X148344095Y-69812819D02*
X148582190Y-69812819D01*
X148582190Y-69812819D02*
X148677428Y-69860438D01*
X148677428Y-69860438D02*
X148725047Y-69908057D01*
X148725047Y-69908057D02*
X148772666Y-70003295D01*
X148772666Y-70003295D02*
X148772666Y-70098533D01*
X148772666Y-70098533D02*
X148725047Y-70241390D01*
X148725047Y-70241390D02*
X148153619Y-70812819D01*
X148153619Y-70812819D02*
X148772666Y-70812819D01*
X149201238Y-70717580D02*
X149248857Y-70765200D01*
X149248857Y-70765200D02*
X149201238Y-70812819D01*
X149201238Y-70812819D02*
X149153619Y-70765200D01*
X149153619Y-70765200D02*
X149201238Y-70717580D01*
X149201238Y-70717580D02*
X149201238Y-70812819D01*
X149629809Y-69908057D02*
X149677428Y-69860438D01*
X149677428Y-69860438D02*
X149772666Y-69812819D01*
X149772666Y-69812819D02*
X150010761Y-69812819D01*
X150010761Y-69812819D02*
X150105999Y-69860438D01*
X150105999Y-69860438D02*
X150153618Y-69908057D01*
X150153618Y-69908057D02*
X150201237Y-70003295D01*
X150201237Y-70003295D02*
X150201237Y-70098533D01*
X150201237Y-70098533D02*
X150153618Y-70241390D01*
X150153618Y-70241390D02*
X149582190Y-70812819D01*
X149582190Y-70812819D02*
X150201237Y-70812819D01*
X150629809Y-70812819D02*
X150629809Y-69812819D01*
X150725047Y-70431866D02*
X151010761Y-70812819D01*
X151010761Y-70146152D02*
X150629809Y-70527104D01*
X148709142Y-68526819D02*
X148375809Y-68050628D01*
X148137714Y-68526819D02*
X148137714Y-67526819D01*
X148137714Y-67526819D02*
X148518666Y-67526819D01*
X148518666Y-67526819D02*
X148613904Y-67574438D01*
X148613904Y-67574438D02*
X148661523Y-67622057D01*
X148661523Y-67622057D02*
X148709142Y-67717295D01*
X148709142Y-67717295D02*
X148709142Y-67860152D01*
X148709142Y-67860152D02*
X148661523Y-67955390D01*
X148661523Y-67955390D02*
X148613904Y-68003009D01*
X148613904Y-68003009D02*
X148518666Y-68050628D01*
X148518666Y-68050628D02*
X148137714Y-68050628D01*
X149661523Y-68526819D02*
X149090095Y-68526819D01*
X149375809Y-68526819D02*
X149375809Y-67526819D01*
X149375809Y-67526819D02*
X149280571Y-67669676D01*
X149280571Y-67669676D02*
X149185333Y-67764914D01*
X149185333Y-67764914D02*
X149090095Y-67812533D01*
X150232952Y-67955390D02*
X150137714Y-67907771D01*
X150137714Y-67907771D02*
X150090095Y-67860152D01*
X150090095Y-67860152D02*
X150042476Y-67764914D01*
X150042476Y-67764914D02*
X150042476Y-67717295D01*
X150042476Y-67717295D02*
X150090095Y-67622057D01*
X150090095Y-67622057D02*
X150137714Y-67574438D01*
X150137714Y-67574438D02*
X150232952Y-67526819D01*
X150232952Y-67526819D02*
X150423428Y-67526819D01*
X150423428Y-67526819D02*
X150518666Y-67574438D01*
X150518666Y-67574438D02*
X150566285Y-67622057D01*
X150566285Y-67622057D02*
X150613904Y-67717295D01*
X150613904Y-67717295D02*
X150613904Y-67764914D01*
X150613904Y-67764914D02*
X150566285Y-67860152D01*
X150566285Y-67860152D02*
X150518666Y-67907771D01*
X150518666Y-67907771D02*
X150423428Y-67955390D01*
X150423428Y-67955390D02*
X150232952Y-67955390D01*
X150232952Y-67955390D02*
X150137714Y-68003009D01*
X150137714Y-68003009D02*
X150090095Y-68050628D01*
X150090095Y-68050628D02*
X150042476Y-68145866D01*
X150042476Y-68145866D02*
X150042476Y-68336342D01*
X150042476Y-68336342D02*
X150090095Y-68431580D01*
X150090095Y-68431580D02*
X150137714Y-68479200D01*
X150137714Y-68479200D02*
X150232952Y-68526819D01*
X150232952Y-68526819D02*
X150423428Y-68526819D01*
X150423428Y-68526819D02*
X150518666Y-68479200D01*
X150518666Y-68479200D02*
X150566285Y-68431580D01*
X150566285Y-68431580D02*
X150613904Y-68336342D01*
X150613904Y-68336342D02*
X150613904Y-68145866D01*
X150613904Y-68145866D02*
X150566285Y-68050628D01*
X150566285Y-68050628D02*
X150518666Y-68003009D01*
X150518666Y-68003009D02*
X150423428Y-67955390D01*
X151850057Y-99760541D02*
X151802438Y-99712922D01*
X151802438Y-99712922D02*
X151754819Y-99617684D01*
X151754819Y-99617684D02*
X151754819Y-99379589D01*
X151754819Y-99379589D02*
X151802438Y-99284351D01*
X151802438Y-99284351D02*
X151850057Y-99236732D01*
X151850057Y-99236732D02*
X151945295Y-99189113D01*
X151945295Y-99189113D02*
X152040533Y-99189113D01*
X152040533Y-99189113D02*
X152183390Y-99236732D01*
X152183390Y-99236732D02*
X152754819Y-99808160D01*
X152754819Y-99808160D02*
X152754819Y-99189113D01*
X152659580Y-98760541D02*
X152707200Y-98712922D01*
X152707200Y-98712922D02*
X152754819Y-98760541D01*
X152754819Y-98760541D02*
X152707200Y-98808160D01*
X152707200Y-98808160D02*
X152659580Y-98760541D01*
X152659580Y-98760541D02*
X152754819Y-98760541D01*
X151850057Y-98331970D02*
X151802438Y-98284351D01*
X151802438Y-98284351D02*
X151754819Y-98189113D01*
X151754819Y-98189113D02*
X151754819Y-97951018D01*
X151754819Y-97951018D02*
X151802438Y-97855780D01*
X151802438Y-97855780D02*
X151850057Y-97808161D01*
X151850057Y-97808161D02*
X151945295Y-97760542D01*
X151945295Y-97760542D02*
X152040533Y-97760542D01*
X152040533Y-97760542D02*
X152183390Y-97808161D01*
X152183390Y-97808161D02*
X152754819Y-98379589D01*
X152754819Y-98379589D02*
X152754819Y-97760542D01*
X152754819Y-97331970D02*
X151754819Y-97331970D01*
X152373866Y-97236732D02*
X152754819Y-96951018D01*
X152088152Y-96951018D02*
X152469104Y-97331970D01*
X150454819Y-100672446D02*
X149978628Y-101005779D01*
X150454819Y-101243874D02*
X149454819Y-101243874D01*
X149454819Y-101243874D02*
X149454819Y-100862922D01*
X149454819Y-100862922D02*
X149502438Y-100767684D01*
X149502438Y-100767684D02*
X149550057Y-100720065D01*
X149550057Y-100720065D02*
X149645295Y-100672446D01*
X149645295Y-100672446D02*
X149788152Y-100672446D01*
X149788152Y-100672446D02*
X149883390Y-100720065D01*
X149883390Y-100720065D02*
X149931009Y-100767684D01*
X149931009Y-100767684D02*
X149978628Y-100862922D01*
X149978628Y-100862922D02*
X149978628Y-101243874D01*
X149454819Y-100339112D02*
X149454819Y-99720065D01*
X149454819Y-99720065D02*
X149835771Y-100053398D01*
X149835771Y-100053398D02*
X149835771Y-99910541D01*
X149835771Y-99910541D02*
X149883390Y-99815303D01*
X149883390Y-99815303D02*
X149931009Y-99767684D01*
X149931009Y-99767684D02*
X150026247Y-99720065D01*
X150026247Y-99720065D02*
X150264342Y-99720065D01*
X150264342Y-99720065D02*
X150359580Y-99767684D01*
X150359580Y-99767684D02*
X150407200Y-99815303D01*
X150407200Y-99815303D02*
X150454819Y-99910541D01*
X150454819Y-99910541D02*
X150454819Y-100196255D01*
X150454819Y-100196255D02*
X150407200Y-100291493D01*
X150407200Y-100291493D02*
X150359580Y-100339112D01*
X126103238Y-69992057D02*
X126150857Y-69944438D01*
X126150857Y-69944438D02*
X126246095Y-69896819D01*
X126246095Y-69896819D02*
X126484190Y-69896819D01*
X126484190Y-69896819D02*
X126579428Y-69944438D01*
X126579428Y-69944438D02*
X126627047Y-69992057D01*
X126627047Y-69992057D02*
X126674666Y-70087295D01*
X126674666Y-70087295D02*
X126674666Y-70182533D01*
X126674666Y-70182533D02*
X126627047Y-70325390D01*
X126627047Y-70325390D02*
X126055619Y-70896819D01*
X126055619Y-70896819D02*
X126674666Y-70896819D01*
X127103238Y-70801580D02*
X127150857Y-70849200D01*
X127150857Y-70849200D02*
X127103238Y-70896819D01*
X127103238Y-70896819D02*
X127055619Y-70849200D01*
X127055619Y-70849200D02*
X127103238Y-70801580D01*
X127103238Y-70801580D02*
X127103238Y-70896819D01*
X127531809Y-69992057D02*
X127579428Y-69944438D01*
X127579428Y-69944438D02*
X127674666Y-69896819D01*
X127674666Y-69896819D02*
X127912761Y-69896819D01*
X127912761Y-69896819D02*
X128007999Y-69944438D01*
X128007999Y-69944438D02*
X128055618Y-69992057D01*
X128055618Y-69992057D02*
X128103237Y-70087295D01*
X128103237Y-70087295D02*
X128103237Y-70182533D01*
X128103237Y-70182533D02*
X128055618Y-70325390D01*
X128055618Y-70325390D02*
X127484190Y-70896819D01*
X127484190Y-70896819D02*
X128103237Y-70896819D01*
X128531809Y-70896819D02*
X128531809Y-69896819D01*
X128627047Y-70515866D02*
X128912761Y-70896819D01*
X128912761Y-70230152D02*
X128531809Y-70611104D01*
X127341333Y-68526819D02*
X127008000Y-68050628D01*
X126769905Y-68526819D02*
X126769905Y-67526819D01*
X126769905Y-67526819D02*
X127150857Y-67526819D01*
X127150857Y-67526819D02*
X127246095Y-67574438D01*
X127246095Y-67574438D02*
X127293714Y-67622057D01*
X127293714Y-67622057D02*
X127341333Y-67717295D01*
X127341333Y-67717295D02*
X127341333Y-67860152D01*
X127341333Y-67860152D02*
X127293714Y-67955390D01*
X127293714Y-67955390D02*
X127246095Y-68003009D01*
X127246095Y-68003009D02*
X127150857Y-68050628D01*
X127150857Y-68050628D02*
X126769905Y-68050628D01*
X128198476Y-67526819D02*
X128008000Y-67526819D01*
X128008000Y-67526819D02*
X127912762Y-67574438D01*
X127912762Y-67574438D02*
X127865143Y-67622057D01*
X127865143Y-67622057D02*
X127769905Y-67764914D01*
X127769905Y-67764914D02*
X127722286Y-67955390D01*
X127722286Y-67955390D02*
X127722286Y-68336342D01*
X127722286Y-68336342D02*
X127769905Y-68431580D01*
X127769905Y-68431580D02*
X127817524Y-68479200D01*
X127817524Y-68479200D02*
X127912762Y-68526819D01*
X127912762Y-68526819D02*
X128103238Y-68526819D01*
X128103238Y-68526819D02*
X128198476Y-68479200D01*
X128198476Y-68479200D02*
X128246095Y-68431580D01*
X128246095Y-68431580D02*
X128293714Y-68336342D01*
X128293714Y-68336342D02*
X128293714Y-68098247D01*
X128293714Y-68098247D02*
X128246095Y-68003009D01*
X128246095Y-68003009D02*
X128198476Y-67955390D01*
X128198476Y-67955390D02*
X128103238Y-67907771D01*
X128103238Y-67907771D02*
X127912762Y-67907771D01*
X127912762Y-67907771D02*
X127817524Y-67955390D01*
X127817524Y-67955390D02*
X127769905Y-68003009D01*
X127769905Y-68003009D02*
X127722286Y-68098247D01*
D12*
X138463855Y-92520475D02*
X137663855Y-92520475D01*
X137663855Y-92520475D02*
X137663855Y-92329999D01*
X137663855Y-92329999D02*
X137701950Y-92215713D01*
X137701950Y-92215713D02*
X137778140Y-92139523D01*
X137778140Y-92139523D02*
X137854331Y-92101428D01*
X137854331Y-92101428D02*
X138006712Y-92063332D01*
X138006712Y-92063332D02*
X138120998Y-92063332D01*
X138120998Y-92063332D02*
X138273379Y-92101428D01*
X138273379Y-92101428D02*
X138349569Y-92139523D01*
X138349569Y-92139523D02*
X138425760Y-92215713D01*
X138425760Y-92215713D02*
X138463855Y-92329999D01*
X138463855Y-92329999D02*
X138463855Y-92520475D01*
X137663855Y-91796666D02*
X137663855Y-91301428D01*
X137663855Y-91301428D02*
X137968617Y-91568094D01*
X137968617Y-91568094D02*
X137968617Y-91453809D01*
X137968617Y-91453809D02*
X138006712Y-91377618D01*
X138006712Y-91377618D02*
X138044807Y-91339523D01*
X138044807Y-91339523D02*
X138120998Y-91301428D01*
X138120998Y-91301428D02*
X138311474Y-91301428D01*
X138311474Y-91301428D02*
X138387664Y-91339523D01*
X138387664Y-91339523D02*
X138425760Y-91377618D01*
X138425760Y-91377618D02*
X138463855Y-91453809D01*
X138463855Y-91453809D02*
X138463855Y-91682380D01*
X138463855Y-91682380D02*
X138425760Y-91758571D01*
X138425760Y-91758571D02*
X138387664Y-91796666D01*
D10*
X148201238Y-74480057D02*
X148248857Y-74432438D01*
X148248857Y-74432438D02*
X148344095Y-74384819D01*
X148344095Y-74384819D02*
X148582190Y-74384819D01*
X148582190Y-74384819D02*
X148677428Y-74432438D01*
X148677428Y-74432438D02*
X148725047Y-74480057D01*
X148725047Y-74480057D02*
X148772666Y-74575295D01*
X148772666Y-74575295D02*
X148772666Y-74670533D01*
X148772666Y-74670533D02*
X148725047Y-74813390D01*
X148725047Y-74813390D02*
X148153619Y-75384819D01*
X148153619Y-75384819D02*
X148772666Y-75384819D01*
X149201238Y-75289580D02*
X149248857Y-75337200D01*
X149248857Y-75337200D02*
X149201238Y-75384819D01*
X149201238Y-75384819D02*
X149153619Y-75337200D01*
X149153619Y-75337200D02*
X149201238Y-75289580D01*
X149201238Y-75289580D02*
X149201238Y-75384819D01*
X149629809Y-74480057D02*
X149677428Y-74432438D01*
X149677428Y-74432438D02*
X149772666Y-74384819D01*
X149772666Y-74384819D02*
X150010761Y-74384819D01*
X150010761Y-74384819D02*
X150105999Y-74432438D01*
X150105999Y-74432438D02*
X150153618Y-74480057D01*
X150153618Y-74480057D02*
X150201237Y-74575295D01*
X150201237Y-74575295D02*
X150201237Y-74670533D01*
X150201237Y-74670533D02*
X150153618Y-74813390D01*
X150153618Y-74813390D02*
X149582190Y-75384819D01*
X149582190Y-75384819D02*
X150201237Y-75384819D01*
X150629809Y-75384819D02*
X150629809Y-74384819D01*
X150725047Y-75003866D02*
X151010761Y-75384819D01*
X151010761Y-74718152D02*
X150629809Y-75099104D01*
X148709142Y-73352819D02*
X148375809Y-72876628D01*
X148137714Y-73352819D02*
X148137714Y-72352819D01*
X148137714Y-72352819D02*
X148518666Y-72352819D01*
X148518666Y-72352819D02*
X148613904Y-72400438D01*
X148613904Y-72400438D02*
X148661523Y-72448057D01*
X148661523Y-72448057D02*
X148709142Y-72543295D01*
X148709142Y-72543295D02*
X148709142Y-72686152D01*
X148709142Y-72686152D02*
X148661523Y-72781390D01*
X148661523Y-72781390D02*
X148613904Y-72829009D01*
X148613904Y-72829009D02*
X148518666Y-72876628D01*
X148518666Y-72876628D02*
X148137714Y-72876628D01*
X149661523Y-73352819D02*
X149090095Y-73352819D01*
X149375809Y-73352819D02*
X149375809Y-72352819D01*
X149375809Y-72352819D02*
X149280571Y-72495676D01*
X149280571Y-72495676D02*
X149185333Y-72590914D01*
X149185333Y-72590914D02*
X149090095Y-72638533D01*
X150137714Y-73352819D02*
X150328190Y-73352819D01*
X150328190Y-73352819D02*
X150423428Y-73305200D01*
X150423428Y-73305200D02*
X150471047Y-73257580D01*
X150471047Y-73257580D02*
X150566285Y-73114723D01*
X150566285Y-73114723D02*
X150613904Y-72924247D01*
X150613904Y-72924247D02*
X150613904Y-72543295D01*
X150613904Y-72543295D02*
X150566285Y-72448057D01*
X150566285Y-72448057D02*
X150518666Y-72400438D01*
X150518666Y-72400438D02*
X150423428Y-72352819D01*
X150423428Y-72352819D02*
X150232952Y-72352819D01*
X150232952Y-72352819D02*
X150137714Y-72400438D01*
X150137714Y-72400438D02*
X150090095Y-72448057D01*
X150090095Y-72448057D02*
X150042476Y-72543295D01*
X150042476Y-72543295D02*
X150042476Y-72781390D01*
X150042476Y-72781390D02*
X150090095Y-72876628D01*
X150090095Y-72876628D02*
X150137714Y-72924247D01*
X150137714Y-72924247D02*
X150232952Y-72971866D01*
X150232952Y-72971866D02*
X150423428Y-72971866D01*
X150423428Y-72971866D02*
X150518666Y-72924247D01*
X150518666Y-72924247D02*
X150566285Y-72876628D01*
X150566285Y-72876628D02*
X150613904Y-72781390D01*
X137025238Y-87518057D02*
X137072857Y-87470438D01*
X137072857Y-87470438D02*
X137168095Y-87422819D01*
X137168095Y-87422819D02*
X137406190Y-87422819D01*
X137406190Y-87422819D02*
X137501428Y-87470438D01*
X137501428Y-87470438D02*
X137549047Y-87518057D01*
X137549047Y-87518057D02*
X137596666Y-87613295D01*
X137596666Y-87613295D02*
X137596666Y-87708533D01*
X137596666Y-87708533D02*
X137549047Y-87851390D01*
X137549047Y-87851390D02*
X136977619Y-88422819D01*
X136977619Y-88422819D02*
X137596666Y-88422819D01*
X138025238Y-88327580D02*
X138072857Y-88375200D01*
X138072857Y-88375200D02*
X138025238Y-88422819D01*
X138025238Y-88422819D02*
X137977619Y-88375200D01*
X137977619Y-88375200D02*
X138025238Y-88327580D01*
X138025238Y-88327580D02*
X138025238Y-88422819D01*
X138453809Y-87518057D02*
X138501428Y-87470438D01*
X138501428Y-87470438D02*
X138596666Y-87422819D01*
X138596666Y-87422819D02*
X138834761Y-87422819D01*
X138834761Y-87422819D02*
X138929999Y-87470438D01*
X138929999Y-87470438D02*
X138977618Y-87518057D01*
X138977618Y-87518057D02*
X139025237Y-87613295D01*
X139025237Y-87613295D02*
X139025237Y-87708533D01*
X139025237Y-87708533D02*
X138977618Y-87851390D01*
X138977618Y-87851390D02*
X138406190Y-88422819D01*
X138406190Y-88422819D02*
X139025237Y-88422819D01*
X139453809Y-88422819D02*
X139453809Y-87422819D01*
X139549047Y-88041866D02*
X139834761Y-88422819D01*
X139834761Y-87756152D02*
X139453809Y-88137104D01*
X137787142Y-86052819D02*
X137453809Y-85576628D01*
X137215714Y-86052819D02*
X137215714Y-85052819D01*
X137215714Y-85052819D02*
X137596666Y-85052819D01*
X137596666Y-85052819D02*
X137691904Y-85100438D01*
X137691904Y-85100438D02*
X137739523Y-85148057D01*
X137739523Y-85148057D02*
X137787142Y-85243295D01*
X137787142Y-85243295D02*
X137787142Y-85386152D01*
X137787142Y-85386152D02*
X137739523Y-85481390D01*
X137739523Y-85481390D02*
X137691904Y-85529009D01*
X137691904Y-85529009D02*
X137596666Y-85576628D01*
X137596666Y-85576628D02*
X137215714Y-85576628D01*
X138739523Y-86052819D02*
X138168095Y-86052819D01*
X138453809Y-86052819D02*
X138453809Y-85052819D01*
X138453809Y-85052819D02*
X138358571Y-85195676D01*
X138358571Y-85195676D02*
X138263333Y-85290914D01*
X138263333Y-85290914D02*
X138168095Y-85338533D01*
X139596666Y-85052819D02*
X139406190Y-85052819D01*
X139406190Y-85052819D02*
X139310952Y-85100438D01*
X139310952Y-85100438D02*
X139263333Y-85148057D01*
X139263333Y-85148057D02*
X139168095Y-85290914D01*
X139168095Y-85290914D02*
X139120476Y-85481390D01*
X139120476Y-85481390D02*
X139120476Y-85862342D01*
X139120476Y-85862342D02*
X139168095Y-85957580D01*
X139168095Y-85957580D02*
X139215714Y-86005200D01*
X139215714Y-86005200D02*
X139310952Y-86052819D01*
X139310952Y-86052819D02*
X139501428Y-86052819D01*
X139501428Y-86052819D02*
X139596666Y-86005200D01*
X139596666Y-86005200D02*
X139644285Y-85957580D01*
X139644285Y-85957580D02*
X139691904Y-85862342D01*
X139691904Y-85862342D02*
X139691904Y-85624247D01*
X139691904Y-85624247D02*
X139644285Y-85529009D01*
X139644285Y-85529009D02*
X139596666Y-85481390D01*
X139596666Y-85481390D02*
X139501428Y-85433771D01*
X139501428Y-85433771D02*
X139310952Y-85433771D01*
X139310952Y-85433771D02*
X139215714Y-85481390D01*
X139215714Y-85481390D02*
X139168095Y-85529009D01*
X139168095Y-85529009D02*
X139120476Y-85624247D01*
X148201238Y-79306057D02*
X148248857Y-79258438D01*
X148248857Y-79258438D02*
X148344095Y-79210819D01*
X148344095Y-79210819D02*
X148582190Y-79210819D01*
X148582190Y-79210819D02*
X148677428Y-79258438D01*
X148677428Y-79258438D02*
X148725047Y-79306057D01*
X148725047Y-79306057D02*
X148772666Y-79401295D01*
X148772666Y-79401295D02*
X148772666Y-79496533D01*
X148772666Y-79496533D02*
X148725047Y-79639390D01*
X148725047Y-79639390D02*
X148153619Y-80210819D01*
X148153619Y-80210819D02*
X148772666Y-80210819D01*
X149201238Y-80115580D02*
X149248857Y-80163200D01*
X149248857Y-80163200D02*
X149201238Y-80210819D01*
X149201238Y-80210819D02*
X149153619Y-80163200D01*
X149153619Y-80163200D02*
X149201238Y-80115580D01*
X149201238Y-80115580D02*
X149201238Y-80210819D01*
X149629809Y-79306057D02*
X149677428Y-79258438D01*
X149677428Y-79258438D02*
X149772666Y-79210819D01*
X149772666Y-79210819D02*
X150010761Y-79210819D01*
X150010761Y-79210819D02*
X150105999Y-79258438D01*
X150105999Y-79258438D02*
X150153618Y-79306057D01*
X150153618Y-79306057D02*
X150201237Y-79401295D01*
X150201237Y-79401295D02*
X150201237Y-79496533D01*
X150201237Y-79496533D02*
X150153618Y-79639390D01*
X150153618Y-79639390D02*
X149582190Y-80210819D01*
X149582190Y-80210819D02*
X150201237Y-80210819D01*
X150629809Y-80210819D02*
X150629809Y-79210819D01*
X150725047Y-79829866D02*
X151010761Y-80210819D01*
X151010761Y-79544152D02*
X150629809Y-79925104D01*
X148709142Y-77670819D02*
X148375809Y-77194628D01*
X148137714Y-77670819D02*
X148137714Y-76670819D01*
X148137714Y-76670819D02*
X148518666Y-76670819D01*
X148518666Y-76670819D02*
X148613904Y-76718438D01*
X148613904Y-76718438D02*
X148661523Y-76766057D01*
X148661523Y-76766057D02*
X148709142Y-76861295D01*
X148709142Y-76861295D02*
X148709142Y-77004152D01*
X148709142Y-77004152D02*
X148661523Y-77099390D01*
X148661523Y-77099390D02*
X148613904Y-77147009D01*
X148613904Y-77147009D02*
X148518666Y-77194628D01*
X148518666Y-77194628D02*
X148137714Y-77194628D01*
X149090095Y-76766057D02*
X149137714Y-76718438D01*
X149137714Y-76718438D02*
X149232952Y-76670819D01*
X149232952Y-76670819D02*
X149471047Y-76670819D01*
X149471047Y-76670819D02*
X149566285Y-76718438D01*
X149566285Y-76718438D02*
X149613904Y-76766057D01*
X149613904Y-76766057D02*
X149661523Y-76861295D01*
X149661523Y-76861295D02*
X149661523Y-76956533D01*
X149661523Y-76956533D02*
X149613904Y-77099390D01*
X149613904Y-77099390D02*
X149042476Y-77670819D01*
X149042476Y-77670819D02*
X149661523Y-77670819D01*
X150280571Y-76670819D02*
X150375809Y-76670819D01*
X150375809Y-76670819D02*
X150471047Y-76718438D01*
X150471047Y-76718438D02*
X150518666Y-76766057D01*
X150518666Y-76766057D02*
X150566285Y-76861295D01*
X150566285Y-76861295D02*
X150613904Y-77051771D01*
X150613904Y-77051771D02*
X150613904Y-77289866D01*
X150613904Y-77289866D02*
X150566285Y-77480342D01*
X150566285Y-77480342D02*
X150518666Y-77575580D01*
X150518666Y-77575580D02*
X150471047Y-77623200D01*
X150471047Y-77623200D02*
X150375809Y-77670819D01*
X150375809Y-77670819D02*
X150280571Y-77670819D01*
X150280571Y-77670819D02*
X150185333Y-77623200D01*
X150185333Y-77623200D02*
X150137714Y-77575580D01*
X150137714Y-77575580D02*
X150090095Y-77480342D01*
X150090095Y-77480342D02*
X150042476Y-77289866D01*
X150042476Y-77289866D02*
X150042476Y-77051771D01*
X150042476Y-77051771D02*
X150090095Y-76861295D01*
X150090095Y-76861295D02*
X150137714Y-76766057D01*
X150137714Y-76766057D02*
X150185333Y-76718438D01*
X150185333Y-76718438D02*
X150280571Y-76670819D01*
X126103238Y-74818057D02*
X126150857Y-74770438D01*
X126150857Y-74770438D02*
X126246095Y-74722819D01*
X126246095Y-74722819D02*
X126484190Y-74722819D01*
X126484190Y-74722819D02*
X126579428Y-74770438D01*
X126579428Y-74770438D02*
X126627047Y-74818057D01*
X126627047Y-74818057D02*
X126674666Y-74913295D01*
X126674666Y-74913295D02*
X126674666Y-75008533D01*
X126674666Y-75008533D02*
X126627047Y-75151390D01*
X126627047Y-75151390D02*
X126055619Y-75722819D01*
X126055619Y-75722819D02*
X126674666Y-75722819D01*
X127103238Y-75627580D02*
X127150857Y-75675200D01*
X127150857Y-75675200D02*
X127103238Y-75722819D01*
X127103238Y-75722819D02*
X127055619Y-75675200D01*
X127055619Y-75675200D02*
X127103238Y-75627580D01*
X127103238Y-75627580D02*
X127103238Y-75722819D01*
X127531809Y-74818057D02*
X127579428Y-74770438D01*
X127579428Y-74770438D02*
X127674666Y-74722819D01*
X127674666Y-74722819D02*
X127912761Y-74722819D01*
X127912761Y-74722819D02*
X128007999Y-74770438D01*
X128007999Y-74770438D02*
X128055618Y-74818057D01*
X128055618Y-74818057D02*
X128103237Y-74913295D01*
X128103237Y-74913295D02*
X128103237Y-75008533D01*
X128103237Y-75008533D02*
X128055618Y-75151390D01*
X128055618Y-75151390D02*
X127484190Y-75722819D01*
X127484190Y-75722819D02*
X128103237Y-75722819D01*
X128531809Y-75722819D02*
X128531809Y-74722819D01*
X128627047Y-75341866D02*
X128912761Y-75722819D01*
X128912761Y-75056152D02*
X128531809Y-75437104D01*
X127341333Y-73352819D02*
X127008000Y-72876628D01*
X126769905Y-73352819D02*
X126769905Y-72352819D01*
X126769905Y-72352819D02*
X127150857Y-72352819D01*
X127150857Y-72352819D02*
X127246095Y-72400438D01*
X127246095Y-72400438D02*
X127293714Y-72448057D01*
X127293714Y-72448057D02*
X127341333Y-72543295D01*
X127341333Y-72543295D02*
X127341333Y-72686152D01*
X127341333Y-72686152D02*
X127293714Y-72781390D01*
X127293714Y-72781390D02*
X127246095Y-72829009D01*
X127246095Y-72829009D02*
X127150857Y-72876628D01*
X127150857Y-72876628D02*
X126769905Y-72876628D01*
X127674667Y-72352819D02*
X128341333Y-72352819D01*
X128341333Y-72352819D02*
X127912762Y-73352819D01*
X137025238Y-65928057D02*
X137072857Y-65880438D01*
X137072857Y-65880438D02*
X137168095Y-65832819D01*
X137168095Y-65832819D02*
X137406190Y-65832819D01*
X137406190Y-65832819D02*
X137501428Y-65880438D01*
X137501428Y-65880438D02*
X137549047Y-65928057D01*
X137549047Y-65928057D02*
X137596666Y-66023295D01*
X137596666Y-66023295D02*
X137596666Y-66118533D01*
X137596666Y-66118533D02*
X137549047Y-66261390D01*
X137549047Y-66261390D02*
X136977619Y-66832819D01*
X136977619Y-66832819D02*
X137596666Y-66832819D01*
X138025238Y-66737580D02*
X138072857Y-66785200D01*
X138072857Y-66785200D02*
X138025238Y-66832819D01*
X138025238Y-66832819D02*
X137977619Y-66785200D01*
X137977619Y-66785200D02*
X138025238Y-66737580D01*
X138025238Y-66737580D02*
X138025238Y-66832819D01*
X138453809Y-65928057D02*
X138501428Y-65880438D01*
X138501428Y-65880438D02*
X138596666Y-65832819D01*
X138596666Y-65832819D02*
X138834761Y-65832819D01*
X138834761Y-65832819D02*
X138929999Y-65880438D01*
X138929999Y-65880438D02*
X138977618Y-65928057D01*
X138977618Y-65928057D02*
X139025237Y-66023295D01*
X139025237Y-66023295D02*
X139025237Y-66118533D01*
X139025237Y-66118533D02*
X138977618Y-66261390D01*
X138977618Y-66261390D02*
X138406190Y-66832819D01*
X138406190Y-66832819D02*
X139025237Y-66832819D01*
X139453809Y-66832819D02*
X139453809Y-65832819D01*
X139549047Y-66451866D02*
X139834761Y-66832819D01*
X139834761Y-66166152D02*
X139453809Y-66547104D01*
X137787142Y-64462819D02*
X137453809Y-63986628D01*
X137215714Y-64462819D02*
X137215714Y-63462819D01*
X137215714Y-63462819D02*
X137596666Y-63462819D01*
X137596666Y-63462819D02*
X137691904Y-63510438D01*
X137691904Y-63510438D02*
X137739523Y-63558057D01*
X137739523Y-63558057D02*
X137787142Y-63653295D01*
X137787142Y-63653295D02*
X137787142Y-63796152D01*
X137787142Y-63796152D02*
X137739523Y-63891390D01*
X137739523Y-63891390D02*
X137691904Y-63939009D01*
X137691904Y-63939009D02*
X137596666Y-63986628D01*
X137596666Y-63986628D02*
X137215714Y-63986628D01*
X138739523Y-64462819D02*
X138168095Y-64462819D01*
X138453809Y-64462819D02*
X138453809Y-63462819D01*
X138453809Y-63462819D02*
X138358571Y-63605676D01*
X138358571Y-63605676D02*
X138263333Y-63700914D01*
X138263333Y-63700914D02*
X138168095Y-63748533D01*
X139691904Y-64462819D02*
X139120476Y-64462819D01*
X139406190Y-64462819D02*
X139406190Y-63462819D01*
X139406190Y-63462819D02*
X139310952Y-63605676D01*
X139310952Y-63605676D02*
X139215714Y-63700914D01*
X139215714Y-63700914D02*
X139120476Y-63748533D01*
X96004381Y-81565200D02*
X96147238Y-81612819D01*
X96147238Y-81612819D02*
X96385333Y-81612819D01*
X96385333Y-81612819D02*
X96480571Y-81565200D01*
X96480571Y-81565200D02*
X96528190Y-81517580D01*
X96528190Y-81517580D02*
X96575809Y-81422342D01*
X96575809Y-81422342D02*
X96575809Y-81327104D01*
X96575809Y-81327104D02*
X96528190Y-81231866D01*
X96528190Y-81231866D02*
X96480571Y-81184247D01*
X96480571Y-81184247D02*
X96385333Y-81136628D01*
X96385333Y-81136628D02*
X96194857Y-81089009D01*
X96194857Y-81089009D02*
X96099619Y-81041390D01*
X96099619Y-81041390D02*
X96052000Y-80993771D01*
X96052000Y-80993771D02*
X96004381Y-80898533D01*
X96004381Y-80898533D02*
X96004381Y-80803295D01*
X96004381Y-80803295D02*
X96052000Y-80708057D01*
X96052000Y-80708057D02*
X96099619Y-80660438D01*
X96099619Y-80660438D02*
X96194857Y-80612819D01*
X96194857Y-80612819D02*
X96432952Y-80612819D01*
X96432952Y-80612819D02*
X96575809Y-80660438D01*
X96909143Y-80612819D02*
X97147238Y-81612819D01*
X97147238Y-81612819D02*
X97337714Y-80898533D01*
X97337714Y-80898533D02*
X97528190Y-81612819D01*
X97528190Y-81612819D02*
X97766286Y-80612819D01*
X97909143Y-81708057D02*
X98671047Y-81708057D01*
X98909143Y-81612819D02*
X98909143Y-80612819D01*
X98909143Y-80612819D02*
X99290095Y-80612819D01*
X99290095Y-80612819D02*
X99385333Y-80660438D01*
X99385333Y-80660438D02*
X99432952Y-80708057D01*
X99432952Y-80708057D02*
X99480571Y-80803295D01*
X99480571Y-80803295D02*
X99480571Y-80946152D01*
X99480571Y-80946152D02*
X99432952Y-81041390D01*
X99432952Y-81041390D02*
X99385333Y-81089009D01*
X99385333Y-81089009D02*
X99290095Y-81136628D01*
X99290095Y-81136628D02*
X98909143Y-81136628D01*
X100337714Y-80946152D02*
X100337714Y-81612819D01*
X99909143Y-80946152D02*
X99909143Y-81469961D01*
X99909143Y-81469961D02*
X99956762Y-81565200D01*
X99956762Y-81565200D02*
X100052000Y-81612819D01*
X100052000Y-81612819D02*
X100194857Y-81612819D01*
X100194857Y-81612819D02*
X100290095Y-81565200D01*
X100290095Y-81565200D02*
X100337714Y-81517580D01*
X100766286Y-81565200D02*
X100861524Y-81612819D01*
X100861524Y-81612819D02*
X101052000Y-81612819D01*
X101052000Y-81612819D02*
X101147238Y-81565200D01*
X101147238Y-81565200D02*
X101194857Y-81469961D01*
X101194857Y-81469961D02*
X101194857Y-81422342D01*
X101194857Y-81422342D02*
X101147238Y-81327104D01*
X101147238Y-81327104D02*
X101052000Y-81279485D01*
X101052000Y-81279485D02*
X100909143Y-81279485D01*
X100909143Y-81279485D02*
X100813905Y-81231866D01*
X100813905Y-81231866D02*
X100766286Y-81136628D01*
X100766286Y-81136628D02*
X100766286Y-81089009D01*
X100766286Y-81089009D02*
X100813905Y-80993771D01*
X100813905Y-80993771D02*
X100909143Y-80946152D01*
X100909143Y-80946152D02*
X101052000Y-80946152D01*
X101052000Y-80946152D02*
X101147238Y-80993771D01*
X101623429Y-81612819D02*
X101623429Y-80612819D01*
X102052000Y-81612819D02*
X102052000Y-81089009D01*
X102052000Y-81089009D02*
X102004381Y-80993771D01*
X102004381Y-80993771D02*
X101909143Y-80946152D01*
X101909143Y-80946152D02*
X101766286Y-80946152D01*
X101766286Y-80946152D02*
X101671048Y-80993771D01*
X101671048Y-80993771D02*
X101623429Y-81041390D01*
X97218667Y-77115200D02*
X97361524Y-77162819D01*
X97361524Y-77162819D02*
X97599619Y-77162819D01*
X97599619Y-77162819D02*
X97694857Y-77115200D01*
X97694857Y-77115200D02*
X97742476Y-77067580D01*
X97742476Y-77067580D02*
X97790095Y-76972342D01*
X97790095Y-76972342D02*
X97790095Y-76877104D01*
X97790095Y-76877104D02*
X97742476Y-76781866D01*
X97742476Y-76781866D02*
X97694857Y-76734247D01*
X97694857Y-76734247D02*
X97599619Y-76686628D01*
X97599619Y-76686628D02*
X97409143Y-76639009D01*
X97409143Y-76639009D02*
X97313905Y-76591390D01*
X97313905Y-76591390D02*
X97266286Y-76543771D01*
X97266286Y-76543771D02*
X97218667Y-76448533D01*
X97218667Y-76448533D02*
X97218667Y-76353295D01*
X97218667Y-76353295D02*
X97266286Y-76258057D01*
X97266286Y-76258057D02*
X97313905Y-76210438D01*
X97313905Y-76210438D02*
X97409143Y-76162819D01*
X97409143Y-76162819D02*
X97647238Y-76162819D01*
X97647238Y-76162819D02*
X97790095Y-76210438D01*
X98123429Y-76162819D02*
X98361524Y-77162819D01*
X98361524Y-77162819D02*
X98552000Y-76448533D01*
X98552000Y-76448533D02*
X98742476Y-77162819D01*
X98742476Y-77162819D02*
X98980572Y-76162819D01*
X99885333Y-77162819D02*
X99313905Y-77162819D01*
X99599619Y-77162819D02*
X99599619Y-76162819D01*
X99599619Y-76162819D02*
X99504381Y-76305676D01*
X99504381Y-76305676D02*
X99409143Y-76400914D01*
X99409143Y-76400914D02*
X99313905Y-76448533D01*
X137025238Y-79136057D02*
X137072857Y-79088438D01*
X137072857Y-79088438D02*
X137168095Y-79040819D01*
X137168095Y-79040819D02*
X137406190Y-79040819D01*
X137406190Y-79040819D02*
X137501428Y-79088438D01*
X137501428Y-79088438D02*
X137549047Y-79136057D01*
X137549047Y-79136057D02*
X137596666Y-79231295D01*
X137596666Y-79231295D02*
X137596666Y-79326533D01*
X137596666Y-79326533D02*
X137549047Y-79469390D01*
X137549047Y-79469390D02*
X136977619Y-80040819D01*
X136977619Y-80040819D02*
X137596666Y-80040819D01*
X138025238Y-79945580D02*
X138072857Y-79993200D01*
X138072857Y-79993200D02*
X138025238Y-80040819D01*
X138025238Y-80040819D02*
X137977619Y-79993200D01*
X137977619Y-79993200D02*
X138025238Y-79945580D01*
X138025238Y-79945580D02*
X138025238Y-80040819D01*
X138453809Y-79136057D02*
X138501428Y-79088438D01*
X138501428Y-79088438D02*
X138596666Y-79040819D01*
X138596666Y-79040819D02*
X138834761Y-79040819D01*
X138834761Y-79040819D02*
X138929999Y-79088438D01*
X138929999Y-79088438D02*
X138977618Y-79136057D01*
X138977618Y-79136057D02*
X139025237Y-79231295D01*
X139025237Y-79231295D02*
X139025237Y-79326533D01*
X139025237Y-79326533D02*
X138977618Y-79469390D01*
X138977618Y-79469390D02*
X138406190Y-80040819D01*
X138406190Y-80040819D02*
X139025237Y-80040819D01*
X139453809Y-80040819D02*
X139453809Y-79040819D01*
X139549047Y-79659866D02*
X139834761Y-80040819D01*
X139834761Y-79374152D02*
X139453809Y-79755104D01*
X137787142Y-77670819D02*
X137453809Y-77194628D01*
X137215714Y-77670819D02*
X137215714Y-76670819D01*
X137215714Y-76670819D02*
X137596666Y-76670819D01*
X137596666Y-76670819D02*
X137691904Y-76718438D01*
X137691904Y-76718438D02*
X137739523Y-76766057D01*
X137739523Y-76766057D02*
X137787142Y-76861295D01*
X137787142Y-76861295D02*
X137787142Y-77004152D01*
X137787142Y-77004152D02*
X137739523Y-77099390D01*
X137739523Y-77099390D02*
X137691904Y-77147009D01*
X137691904Y-77147009D02*
X137596666Y-77194628D01*
X137596666Y-77194628D02*
X137215714Y-77194628D01*
X138739523Y-77670819D02*
X138168095Y-77670819D01*
X138453809Y-77670819D02*
X138453809Y-76670819D01*
X138453809Y-76670819D02*
X138358571Y-76813676D01*
X138358571Y-76813676D02*
X138263333Y-76908914D01*
X138263333Y-76908914D02*
X138168095Y-76956533D01*
X139596666Y-77004152D02*
X139596666Y-77670819D01*
X139358571Y-76623200D02*
X139120476Y-77337485D01*
X139120476Y-77337485D02*
X139739523Y-77337485D01*
X123322819Y-92109619D02*
X123322819Y-92681047D01*
X123322819Y-92395333D02*
X122322819Y-92395333D01*
X122322819Y-92395333D02*
X122465676Y-92490571D01*
X122465676Y-92490571D02*
X122560914Y-92585809D01*
X122560914Y-92585809D02*
X122608533Y-92681047D01*
X122322819Y-91490571D02*
X122322819Y-91395333D01*
X122322819Y-91395333D02*
X122370438Y-91300095D01*
X122370438Y-91300095D02*
X122418057Y-91252476D01*
X122418057Y-91252476D02*
X122513295Y-91204857D01*
X122513295Y-91204857D02*
X122703771Y-91157238D01*
X122703771Y-91157238D02*
X122941866Y-91157238D01*
X122941866Y-91157238D02*
X123132342Y-91204857D01*
X123132342Y-91204857D02*
X123227580Y-91252476D01*
X123227580Y-91252476D02*
X123275200Y-91300095D01*
X123275200Y-91300095D02*
X123322819Y-91395333D01*
X123322819Y-91395333D02*
X123322819Y-91490571D01*
X123322819Y-91490571D02*
X123275200Y-91585809D01*
X123275200Y-91585809D02*
X123227580Y-91633428D01*
X123227580Y-91633428D02*
X123132342Y-91681047D01*
X123132342Y-91681047D02*
X122941866Y-91728666D01*
X122941866Y-91728666D02*
X122703771Y-91728666D01*
X122703771Y-91728666D02*
X122513295Y-91681047D01*
X122513295Y-91681047D02*
X122418057Y-91633428D01*
X122418057Y-91633428D02*
X122370438Y-91585809D01*
X122370438Y-91585809D02*
X122322819Y-91490571D01*
X122322819Y-90538190D02*
X122322819Y-90442952D01*
X122322819Y-90442952D02*
X122370438Y-90347714D01*
X122370438Y-90347714D02*
X122418057Y-90300095D01*
X122418057Y-90300095D02*
X122513295Y-90252476D01*
X122513295Y-90252476D02*
X122703771Y-90204857D01*
X122703771Y-90204857D02*
X122941866Y-90204857D01*
X122941866Y-90204857D02*
X123132342Y-90252476D01*
X123132342Y-90252476D02*
X123227580Y-90300095D01*
X123227580Y-90300095D02*
X123275200Y-90347714D01*
X123275200Y-90347714D02*
X123322819Y-90442952D01*
X123322819Y-90442952D02*
X123322819Y-90538190D01*
X123322819Y-90538190D02*
X123275200Y-90633428D01*
X123275200Y-90633428D02*
X123227580Y-90681047D01*
X123227580Y-90681047D02*
X123132342Y-90728666D01*
X123132342Y-90728666D02*
X122941866Y-90776285D01*
X122941866Y-90776285D02*
X122703771Y-90776285D01*
X122703771Y-90776285D02*
X122513295Y-90728666D01*
X122513295Y-90728666D02*
X122418057Y-90681047D01*
X122418057Y-90681047D02*
X122370438Y-90633428D01*
X122370438Y-90633428D02*
X122322819Y-90538190D01*
X122656152Y-89776285D02*
X123322819Y-89776285D01*
X122751390Y-89776285D02*
X122703771Y-89728666D01*
X122703771Y-89728666D02*
X122656152Y-89633428D01*
X122656152Y-89633428D02*
X122656152Y-89490571D01*
X122656152Y-89490571D02*
X122703771Y-89395333D01*
X122703771Y-89395333D02*
X122799009Y-89347714D01*
X122799009Y-89347714D02*
X123322819Y-89347714D01*
X122799009Y-88538190D02*
X122799009Y-88871523D01*
X123322819Y-88871523D02*
X122322819Y-88871523D01*
X122322819Y-88871523D02*
X122322819Y-88395333D01*
D11*
X126050000Y-90015748D02*
X126021428Y-90044320D01*
X126021428Y-90044320D02*
X125935714Y-90072891D01*
X125935714Y-90072891D02*
X125878571Y-90072891D01*
X125878571Y-90072891D02*
X125792857Y-90044320D01*
X125792857Y-90044320D02*
X125735714Y-89987177D01*
X125735714Y-89987177D02*
X125707143Y-89930034D01*
X125707143Y-89930034D02*
X125678571Y-89815748D01*
X125678571Y-89815748D02*
X125678571Y-89730034D01*
X125678571Y-89730034D02*
X125707143Y-89615748D01*
X125707143Y-89615748D02*
X125735714Y-89558605D01*
X125735714Y-89558605D02*
X125792857Y-89501462D01*
X125792857Y-89501462D02*
X125878571Y-89472891D01*
X125878571Y-89472891D02*
X125935714Y-89472891D01*
X125935714Y-89472891D02*
X126021428Y-89501462D01*
X126021428Y-89501462D02*
X126050000Y-89530034D01*
X126250000Y-89472891D02*
X126650000Y-89472891D01*
X126650000Y-89472891D02*
X126392857Y-90072891D01*
D10*
X104116380Y-68780819D02*
X103544952Y-68780819D01*
X103830666Y-68780819D02*
X103830666Y-67780819D01*
X103830666Y-67780819D02*
X103735428Y-67923676D01*
X103735428Y-67923676D02*
X103640190Y-68018914D01*
X103640190Y-68018914D02*
X103544952Y-68066533D01*
X104735428Y-67780819D02*
X104830666Y-67780819D01*
X104830666Y-67780819D02*
X104925904Y-67828438D01*
X104925904Y-67828438D02*
X104973523Y-67876057D01*
X104973523Y-67876057D02*
X105021142Y-67971295D01*
X105021142Y-67971295D02*
X105068761Y-68161771D01*
X105068761Y-68161771D02*
X105068761Y-68399866D01*
X105068761Y-68399866D02*
X105021142Y-68590342D01*
X105021142Y-68590342D02*
X104973523Y-68685580D01*
X104973523Y-68685580D02*
X104925904Y-68733200D01*
X104925904Y-68733200D02*
X104830666Y-68780819D01*
X104830666Y-68780819D02*
X104735428Y-68780819D01*
X104735428Y-68780819D02*
X104640190Y-68733200D01*
X104640190Y-68733200D02*
X104592571Y-68685580D01*
X104592571Y-68685580D02*
X104544952Y-68590342D01*
X104544952Y-68590342D02*
X104497333Y-68399866D01*
X104497333Y-68399866D02*
X104497333Y-68161771D01*
X104497333Y-68161771D02*
X104544952Y-67971295D01*
X104544952Y-67971295D02*
X104592571Y-67876057D01*
X104592571Y-67876057D02*
X104640190Y-67828438D01*
X104640190Y-67828438D02*
X104735428Y-67780819D01*
X105687809Y-67780819D02*
X105783047Y-67780819D01*
X105783047Y-67780819D02*
X105878285Y-67828438D01*
X105878285Y-67828438D02*
X105925904Y-67876057D01*
X105925904Y-67876057D02*
X105973523Y-67971295D01*
X105973523Y-67971295D02*
X106021142Y-68161771D01*
X106021142Y-68161771D02*
X106021142Y-68399866D01*
X106021142Y-68399866D02*
X105973523Y-68590342D01*
X105973523Y-68590342D02*
X105925904Y-68685580D01*
X105925904Y-68685580D02*
X105878285Y-68733200D01*
X105878285Y-68733200D02*
X105783047Y-68780819D01*
X105783047Y-68780819D02*
X105687809Y-68780819D01*
X105687809Y-68780819D02*
X105592571Y-68733200D01*
X105592571Y-68733200D02*
X105544952Y-68685580D01*
X105544952Y-68685580D02*
X105497333Y-68590342D01*
X105497333Y-68590342D02*
X105449714Y-68399866D01*
X105449714Y-68399866D02*
X105449714Y-68161771D01*
X105449714Y-68161771D02*
X105497333Y-67971295D01*
X105497333Y-67971295D02*
X105544952Y-67876057D01*
X105544952Y-67876057D02*
X105592571Y-67828438D01*
X105592571Y-67828438D02*
X105687809Y-67780819D01*
X106449714Y-68114152D02*
X106449714Y-68780819D01*
X106449714Y-68209390D02*
X106497333Y-68161771D01*
X106497333Y-68161771D02*
X106592571Y-68114152D01*
X106592571Y-68114152D02*
X106735428Y-68114152D01*
X106735428Y-68114152D02*
X106830666Y-68161771D01*
X106830666Y-68161771D02*
X106878285Y-68257009D01*
X106878285Y-68257009D02*
X106878285Y-68780819D01*
X107687809Y-68257009D02*
X107354476Y-68257009D01*
X107354476Y-68780819D02*
X107354476Y-67780819D01*
X107354476Y-67780819D02*
X107830666Y-67780819D01*
D11*
X102008000Y-68815748D02*
X101979428Y-68844320D01*
X101979428Y-68844320D02*
X101893714Y-68872891D01*
X101893714Y-68872891D02*
X101836571Y-68872891D01*
X101836571Y-68872891D02*
X101750857Y-68844320D01*
X101750857Y-68844320D02*
X101693714Y-68787177D01*
X101693714Y-68787177D02*
X101665143Y-68730034D01*
X101665143Y-68730034D02*
X101636571Y-68615748D01*
X101636571Y-68615748D02*
X101636571Y-68530034D01*
X101636571Y-68530034D02*
X101665143Y-68415748D01*
X101665143Y-68415748D02*
X101693714Y-68358605D01*
X101693714Y-68358605D02*
X101750857Y-68301462D01*
X101750857Y-68301462D02*
X101836571Y-68272891D01*
X101836571Y-68272891D02*
X101893714Y-68272891D01*
X101893714Y-68272891D02*
X101979428Y-68301462D01*
X101979428Y-68301462D02*
X102008000Y-68330034D01*
X102579428Y-68872891D02*
X102236571Y-68872891D01*
X102408000Y-68872891D02*
X102408000Y-68272891D01*
X102408000Y-68272891D02*
X102350857Y-68358605D01*
X102350857Y-68358605D02*
X102293714Y-68415748D01*
X102293714Y-68415748D02*
X102236571Y-68444320D01*
D10*
X137025238Y-74818057D02*
X137072857Y-74770438D01*
X137072857Y-74770438D02*
X137168095Y-74722819D01*
X137168095Y-74722819D02*
X137406190Y-74722819D01*
X137406190Y-74722819D02*
X137501428Y-74770438D01*
X137501428Y-74770438D02*
X137549047Y-74818057D01*
X137549047Y-74818057D02*
X137596666Y-74913295D01*
X137596666Y-74913295D02*
X137596666Y-75008533D01*
X137596666Y-75008533D02*
X137549047Y-75151390D01*
X137549047Y-75151390D02*
X136977619Y-75722819D01*
X136977619Y-75722819D02*
X137596666Y-75722819D01*
X138025238Y-75627580D02*
X138072857Y-75675200D01*
X138072857Y-75675200D02*
X138025238Y-75722819D01*
X138025238Y-75722819D02*
X137977619Y-75675200D01*
X137977619Y-75675200D02*
X138025238Y-75627580D01*
X138025238Y-75627580D02*
X138025238Y-75722819D01*
X138453809Y-74818057D02*
X138501428Y-74770438D01*
X138501428Y-74770438D02*
X138596666Y-74722819D01*
X138596666Y-74722819D02*
X138834761Y-74722819D01*
X138834761Y-74722819D02*
X138929999Y-74770438D01*
X138929999Y-74770438D02*
X138977618Y-74818057D01*
X138977618Y-74818057D02*
X139025237Y-74913295D01*
X139025237Y-74913295D02*
X139025237Y-75008533D01*
X139025237Y-75008533D02*
X138977618Y-75151390D01*
X138977618Y-75151390D02*
X138406190Y-75722819D01*
X138406190Y-75722819D02*
X139025237Y-75722819D01*
X139453809Y-75722819D02*
X139453809Y-74722819D01*
X139549047Y-75341866D02*
X139834761Y-75722819D01*
X139834761Y-75056152D02*
X139453809Y-75437104D01*
X137787142Y-73352819D02*
X137453809Y-72876628D01*
X137215714Y-73352819D02*
X137215714Y-72352819D01*
X137215714Y-72352819D02*
X137596666Y-72352819D01*
X137596666Y-72352819D02*
X137691904Y-72400438D01*
X137691904Y-72400438D02*
X137739523Y-72448057D01*
X137739523Y-72448057D02*
X137787142Y-72543295D01*
X137787142Y-72543295D02*
X137787142Y-72686152D01*
X137787142Y-72686152D02*
X137739523Y-72781390D01*
X137739523Y-72781390D02*
X137691904Y-72829009D01*
X137691904Y-72829009D02*
X137596666Y-72876628D01*
X137596666Y-72876628D02*
X137215714Y-72876628D01*
X138739523Y-73352819D02*
X138168095Y-73352819D01*
X138453809Y-73352819D02*
X138453809Y-72352819D01*
X138453809Y-72352819D02*
X138358571Y-72495676D01*
X138358571Y-72495676D02*
X138263333Y-72590914D01*
X138263333Y-72590914D02*
X138168095Y-72638533D01*
X139072857Y-72352819D02*
X139691904Y-72352819D01*
X139691904Y-72352819D02*
X139358571Y-72733771D01*
X139358571Y-72733771D02*
X139501428Y-72733771D01*
X139501428Y-72733771D02*
X139596666Y-72781390D01*
X139596666Y-72781390D02*
X139644285Y-72829009D01*
X139644285Y-72829009D02*
X139691904Y-72924247D01*
X139691904Y-72924247D02*
X139691904Y-73162342D01*
X139691904Y-73162342D02*
X139644285Y-73257580D01*
X139644285Y-73257580D02*
X139596666Y-73305200D01*
X139596666Y-73305200D02*
X139501428Y-73352819D01*
X139501428Y-73352819D02*
X139215714Y-73352819D01*
X139215714Y-73352819D02*
X139120476Y-73305200D01*
X139120476Y-73305200D02*
X139072857Y-73257580D01*
X104570380Y-75198819D02*
X103998952Y-75198819D01*
X104284666Y-75198819D02*
X104284666Y-74198819D01*
X104284666Y-74198819D02*
X104189428Y-74341676D01*
X104189428Y-74341676D02*
X104094190Y-74436914D01*
X104094190Y-74436914D02*
X103998952Y-74484533D01*
X105189428Y-74198819D02*
X105284666Y-74198819D01*
X105284666Y-74198819D02*
X105379904Y-74246438D01*
X105379904Y-74246438D02*
X105427523Y-74294057D01*
X105427523Y-74294057D02*
X105475142Y-74389295D01*
X105475142Y-74389295D02*
X105522761Y-74579771D01*
X105522761Y-74579771D02*
X105522761Y-74817866D01*
X105522761Y-74817866D02*
X105475142Y-75008342D01*
X105475142Y-75008342D02*
X105427523Y-75103580D01*
X105427523Y-75103580D02*
X105379904Y-75151200D01*
X105379904Y-75151200D02*
X105284666Y-75198819D01*
X105284666Y-75198819D02*
X105189428Y-75198819D01*
X105189428Y-75198819D02*
X105094190Y-75151200D01*
X105094190Y-75151200D02*
X105046571Y-75103580D01*
X105046571Y-75103580D02*
X104998952Y-75008342D01*
X104998952Y-75008342D02*
X104951333Y-74817866D01*
X104951333Y-74817866D02*
X104951333Y-74579771D01*
X104951333Y-74579771D02*
X104998952Y-74389295D01*
X104998952Y-74389295D02*
X105046571Y-74294057D01*
X105046571Y-74294057D02*
X105094190Y-74246438D01*
X105094190Y-74246438D02*
X105189428Y-74198819D01*
X106141809Y-74198819D02*
X106237047Y-74198819D01*
X106237047Y-74198819D02*
X106332285Y-74246438D01*
X106332285Y-74246438D02*
X106379904Y-74294057D01*
X106379904Y-74294057D02*
X106427523Y-74389295D01*
X106427523Y-74389295D02*
X106475142Y-74579771D01*
X106475142Y-74579771D02*
X106475142Y-74817866D01*
X106475142Y-74817866D02*
X106427523Y-75008342D01*
X106427523Y-75008342D02*
X106379904Y-75103580D01*
X106379904Y-75103580D02*
X106332285Y-75151200D01*
X106332285Y-75151200D02*
X106237047Y-75198819D01*
X106237047Y-75198819D02*
X106141809Y-75198819D01*
X106141809Y-75198819D02*
X106046571Y-75151200D01*
X106046571Y-75151200D02*
X105998952Y-75103580D01*
X105998952Y-75103580D02*
X105951333Y-75008342D01*
X105951333Y-75008342D02*
X105903714Y-74817866D01*
X105903714Y-74817866D02*
X105903714Y-74579771D01*
X105903714Y-74579771D02*
X105951333Y-74389295D01*
X105951333Y-74389295D02*
X105998952Y-74294057D01*
X105998952Y-74294057D02*
X106046571Y-74246438D01*
X106046571Y-74246438D02*
X106141809Y-74198819D01*
X106903714Y-74532152D02*
X106903714Y-75198819D01*
X106903714Y-74627390D02*
X106951333Y-74579771D01*
X106951333Y-74579771D02*
X107046571Y-74532152D01*
X107046571Y-74532152D02*
X107189428Y-74532152D01*
X107189428Y-74532152D02*
X107284666Y-74579771D01*
X107284666Y-74579771D02*
X107332285Y-74675009D01*
X107332285Y-74675009D02*
X107332285Y-75198819D01*
X108141809Y-74675009D02*
X107808476Y-74675009D01*
X107808476Y-75198819D02*
X107808476Y-74198819D01*
X107808476Y-74198819D02*
X108284666Y-74198819D01*
D11*
X106133748Y-77843999D02*
X106162320Y-77872571D01*
X106162320Y-77872571D02*
X106190891Y-77958285D01*
X106190891Y-77958285D02*
X106190891Y-78015428D01*
X106190891Y-78015428D02*
X106162320Y-78101142D01*
X106162320Y-78101142D02*
X106105177Y-78158285D01*
X106105177Y-78158285D02*
X106048034Y-78186856D01*
X106048034Y-78186856D02*
X105933748Y-78215428D01*
X105933748Y-78215428D02*
X105848034Y-78215428D01*
X105848034Y-78215428D02*
X105733748Y-78186856D01*
X105733748Y-78186856D02*
X105676605Y-78158285D01*
X105676605Y-78158285D02*
X105619462Y-78101142D01*
X105619462Y-78101142D02*
X105590891Y-78015428D01*
X105590891Y-78015428D02*
X105590891Y-77958285D01*
X105590891Y-77958285D02*
X105619462Y-77872571D01*
X105619462Y-77872571D02*
X105648034Y-77843999D01*
X105648034Y-77615428D02*
X105619462Y-77586856D01*
X105619462Y-77586856D02*
X105590891Y-77529714D01*
X105590891Y-77529714D02*
X105590891Y-77386856D01*
X105590891Y-77386856D02*
X105619462Y-77329714D01*
X105619462Y-77329714D02*
X105648034Y-77301142D01*
X105648034Y-77301142D02*
X105705177Y-77272571D01*
X105705177Y-77272571D02*
X105762320Y-77272571D01*
X105762320Y-77272571D02*
X105848034Y-77301142D01*
X105848034Y-77301142D02*
X106190891Y-77643999D01*
X106190891Y-77643999D02*
X106190891Y-77272571D01*
D10*
X137025238Y-83454057D02*
X137072857Y-83406438D01*
X137072857Y-83406438D02*
X137168095Y-83358819D01*
X137168095Y-83358819D02*
X137406190Y-83358819D01*
X137406190Y-83358819D02*
X137501428Y-83406438D01*
X137501428Y-83406438D02*
X137549047Y-83454057D01*
X137549047Y-83454057D02*
X137596666Y-83549295D01*
X137596666Y-83549295D02*
X137596666Y-83644533D01*
X137596666Y-83644533D02*
X137549047Y-83787390D01*
X137549047Y-83787390D02*
X136977619Y-84358819D01*
X136977619Y-84358819D02*
X137596666Y-84358819D01*
X138025238Y-84263580D02*
X138072857Y-84311200D01*
X138072857Y-84311200D02*
X138025238Y-84358819D01*
X138025238Y-84358819D02*
X137977619Y-84311200D01*
X137977619Y-84311200D02*
X138025238Y-84263580D01*
X138025238Y-84263580D02*
X138025238Y-84358819D01*
X138453809Y-83454057D02*
X138501428Y-83406438D01*
X138501428Y-83406438D02*
X138596666Y-83358819D01*
X138596666Y-83358819D02*
X138834761Y-83358819D01*
X138834761Y-83358819D02*
X138929999Y-83406438D01*
X138929999Y-83406438D02*
X138977618Y-83454057D01*
X138977618Y-83454057D02*
X139025237Y-83549295D01*
X139025237Y-83549295D02*
X139025237Y-83644533D01*
X139025237Y-83644533D02*
X138977618Y-83787390D01*
X138977618Y-83787390D02*
X138406190Y-84358819D01*
X138406190Y-84358819D02*
X139025237Y-84358819D01*
X139453809Y-84358819D02*
X139453809Y-83358819D01*
X139549047Y-83977866D02*
X139834761Y-84358819D01*
X139834761Y-83692152D02*
X139453809Y-84073104D01*
X137787142Y-81988819D02*
X137453809Y-81512628D01*
X137215714Y-81988819D02*
X137215714Y-80988819D01*
X137215714Y-80988819D02*
X137596666Y-80988819D01*
X137596666Y-80988819D02*
X137691904Y-81036438D01*
X137691904Y-81036438D02*
X137739523Y-81084057D01*
X137739523Y-81084057D02*
X137787142Y-81179295D01*
X137787142Y-81179295D02*
X137787142Y-81322152D01*
X137787142Y-81322152D02*
X137739523Y-81417390D01*
X137739523Y-81417390D02*
X137691904Y-81465009D01*
X137691904Y-81465009D02*
X137596666Y-81512628D01*
X137596666Y-81512628D02*
X137215714Y-81512628D01*
X138739523Y-81988819D02*
X138168095Y-81988819D01*
X138453809Y-81988819D02*
X138453809Y-80988819D01*
X138453809Y-80988819D02*
X138358571Y-81131676D01*
X138358571Y-81131676D02*
X138263333Y-81226914D01*
X138263333Y-81226914D02*
X138168095Y-81274533D01*
X139644285Y-80988819D02*
X139168095Y-80988819D01*
X139168095Y-80988819D02*
X139120476Y-81465009D01*
X139120476Y-81465009D02*
X139168095Y-81417390D01*
X139168095Y-81417390D02*
X139263333Y-81369771D01*
X139263333Y-81369771D02*
X139501428Y-81369771D01*
X139501428Y-81369771D02*
X139596666Y-81417390D01*
X139596666Y-81417390D02*
X139644285Y-81465009D01*
X139644285Y-81465009D02*
X139691904Y-81560247D01*
X139691904Y-81560247D02*
X139691904Y-81798342D01*
X139691904Y-81798342D02*
X139644285Y-81893580D01*
X139644285Y-81893580D02*
X139596666Y-81941200D01*
X139596666Y-81941200D02*
X139501428Y-81988819D01*
X139501428Y-81988819D02*
X139263333Y-81988819D01*
X139263333Y-81988819D02*
X139168095Y-81941200D01*
X139168095Y-81941200D02*
X139120476Y-81893580D01*
X157750057Y-99570761D02*
X157702438Y-99523142D01*
X157702438Y-99523142D02*
X157654819Y-99427904D01*
X157654819Y-99427904D02*
X157654819Y-99189809D01*
X157654819Y-99189809D02*
X157702438Y-99094571D01*
X157702438Y-99094571D02*
X157750057Y-99046952D01*
X157750057Y-99046952D02*
X157845295Y-98999333D01*
X157845295Y-98999333D02*
X157940533Y-98999333D01*
X157940533Y-98999333D02*
X158083390Y-99046952D01*
X158083390Y-99046952D02*
X158654819Y-99618380D01*
X158654819Y-99618380D02*
X158654819Y-98999333D01*
X158559580Y-98570761D02*
X158607200Y-98523142D01*
X158607200Y-98523142D02*
X158654819Y-98570761D01*
X158654819Y-98570761D02*
X158607200Y-98618380D01*
X158607200Y-98618380D02*
X158559580Y-98570761D01*
X158559580Y-98570761D02*
X158654819Y-98570761D01*
X157750057Y-98142190D02*
X157702438Y-98094571D01*
X157702438Y-98094571D02*
X157654819Y-97999333D01*
X157654819Y-97999333D02*
X157654819Y-97761238D01*
X157654819Y-97761238D02*
X157702438Y-97666000D01*
X157702438Y-97666000D02*
X157750057Y-97618381D01*
X157750057Y-97618381D02*
X157845295Y-97570762D01*
X157845295Y-97570762D02*
X157940533Y-97570762D01*
X157940533Y-97570762D02*
X158083390Y-97618381D01*
X158083390Y-97618381D02*
X158654819Y-98189809D01*
X158654819Y-98189809D02*
X158654819Y-97570762D01*
X158654819Y-97142190D02*
X157654819Y-97142190D01*
X158273866Y-97046952D02*
X158654819Y-96761238D01*
X157988152Y-96761238D02*
X158369104Y-97142190D01*
X156354819Y-101208857D02*
X155878628Y-101542190D01*
X156354819Y-101780285D02*
X155354819Y-101780285D01*
X155354819Y-101780285D02*
X155354819Y-101399333D01*
X155354819Y-101399333D02*
X155402438Y-101304095D01*
X155402438Y-101304095D02*
X155450057Y-101256476D01*
X155450057Y-101256476D02*
X155545295Y-101208857D01*
X155545295Y-101208857D02*
X155688152Y-101208857D01*
X155688152Y-101208857D02*
X155783390Y-101256476D01*
X155783390Y-101256476D02*
X155831009Y-101304095D01*
X155831009Y-101304095D02*
X155878628Y-101399333D01*
X155878628Y-101399333D02*
X155878628Y-101780285D01*
X155450057Y-100827904D02*
X155402438Y-100780285D01*
X155402438Y-100780285D02*
X155354819Y-100685047D01*
X155354819Y-100685047D02*
X155354819Y-100446952D01*
X155354819Y-100446952D02*
X155402438Y-100351714D01*
X155402438Y-100351714D02*
X155450057Y-100304095D01*
X155450057Y-100304095D02*
X155545295Y-100256476D01*
X155545295Y-100256476D02*
X155640533Y-100256476D01*
X155640533Y-100256476D02*
X155783390Y-100304095D01*
X155783390Y-100304095D02*
X156354819Y-100875523D01*
X156354819Y-100875523D02*
X156354819Y-100256476D01*
X155688152Y-99399333D02*
X156354819Y-99399333D01*
X155307200Y-99637428D02*
X156021485Y-99875523D01*
X156021485Y-99875523D02*
X156021485Y-99256476D01*
X145950057Y-100510761D02*
X145902438Y-100463142D01*
X145902438Y-100463142D02*
X145854819Y-100367904D01*
X145854819Y-100367904D02*
X145854819Y-100129809D01*
X145854819Y-100129809D02*
X145902438Y-100034571D01*
X145902438Y-100034571D02*
X145950057Y-99986952D01*
X145950057Y-99986952D02*
X146045295Y-99939333D01*
X146045295Y-99939333D02*
X146140533Y-99939333D01*
X146140533Y-99939333D02*
X146283390Y-99986952D01*
X146283390Y-99986952D02*
X146854819Y-100558380D01*
X146854819Y-100558380D02*
X146854819Y-99939333D01*
X146759580Y-99510761D02*
X146807200Y-99463142D01*
X146807200Y-99463142D02*
X146854819Y-99510761D01*
X146854819Y-99510761D02*
X146807200Y-99558380D01*
X146807200Y-99558380D02*
X146759580Y-99510761D01*
X146759580Y-99510761D02*
X146854819Y-99510761D01*
X145950057Y-99082190D02*
X145902438Y-99034571D01*
X145902438Y-99034571D02*
X145854819Y-98939333D01*
X145854819Y-98939333D02*
X145854819Y-98701238D01*
X145854819Y-98701238D02*
X145902438Y-98606000D01*
X145902438Y-98606000D02*
X145950057Y-98558381D01*
X145950057Y-98558381D02*
X146045295Y-98510762D01*
X146045295Y-98510762D02*
X146140533Y-98510762D01*
X146140533Y-98510762D02*
X146283390Y-98558381D01*
X146283390Y-98558381D02*
X146854819Y-99129809D01*
X146854819Y-99129809D02*
X146854819Y-98510762D01*
X146854819Y-98082190D02*
X145854819Y-98082190D01*
X146473866Y-97986952D02*
X146854819Y-97701238D01*
X146188152Y-97701238D02*
X146569104Y-98082190D01*
X144554819Y-100732666D02*
X144078628Y-101065999D01*
X144554819Y-101304094D02*
X143554819Y-101304094D01*
X143554819Y-101304094D02*
X143554819Y-100923142D01*
X143554819Y-100923142D02*
X143602438Y-100827904D01*
X143602438Y-100827904D02*
X143650057Y-100780285D01*
X143650057Y-100780285D02*
X143745295Y-100732666D01*
X143745295Y-100732666D02*
X143888152Y-100732666D01*
X143888152Y-100732666D02*
X143983390Y-100780285D01*
X143983390Y-100780285D02*
X144031009Y-100827904D01*
X144031009Y-100827904D02*
X144078628Y-100923142D01*
X144078628Y-100923142D02*
X144078628Y-101304094D01*
X143888152Y-99875523D02*
X144554819Y-99875523D01*
X143507200Y-100113618D02*
X144221485Y-100351713D01*
X144221485Y-100351713D02*
X144221485Y-99732666D01*
X110307904Y-65637580D02*
X110260285Y-65685200D01*
X110260285Y-65685200D02*
X110117428Y-65732819D01*
X110117428Y-65732819D02*
X110022190Y-65732819D01*
X110022190Y-65732819D02*
X109879333Y-65685200D01*
X109879333Y-65685200D02*
X109784095Y-65589961D01*
X109784095Y-65589961D02*
X109736476Y-65494723D01*
X109736476Y-65494723D02*
X109688857Y-65304247D01*
X109688857Y-65304247D02*
X109688857Y-65161390D01*
X109688857Y-65161390D02*
X109736476Y-64970914D01*
X109736476Y-64970914D02*
X109784095Y-64875676D01*
X109784095Y-64875676D02*
X109879333Y-64780438D01*
X109879333Y-64780438D02*
X110022190Y-64732819D01*
X110022190Y-64732819D02*
X110117428Y-64732819D01*
X110117428Y-64732819D02*
X110260285Y-64780438D01*
X110260285Y-64780438D02*
X110307904Y-64828057D01*
X110879333Y-65732819D02*
X110784095Y-65685200D01*
X110784095Y-65685200D02*
X110736476Y-65637580D01*
X110736476Y-65637580D02*
X110688857Y-65542342D01*
X110688857Y-65542342D02*
X110688857Y-65256628D01*
X110688857Y-65256628D02*
X110736476Y-65161390D01*
X110736476Y-65161390D02*
X110784095Y-65113771D01*
X110784095Y-65113771D02*
X110879333Y-65066152D01*
X110879333Y-65066152D02*
X111022190Y-65066152D01*
X111022190Y-65066152D02*
X111117428Y-65113771D01*
X111117428Y-65113771D02*
X111165047Y-65161390D01*
X111165047Y-65161390D02*
X111212666Y-65256628D01*
X111212666Y-65256628D02*
X111212666Y-65542342D01*
X111212666Y-65542342D02*
X111165047Y-65637580D01*
X111165047Y-65637580D02*
X111117428Y-65685200D01*
X111117428Y-65685200D02*
X111022190Y-65732819D01*
X111022190Y-65732819D02*
X110879333Y-65732819D01*
X111641238Y-65066152D02*
X111641238Y-65732819D01*
X111641238Y-65161390D02*
X111688857Y-65113771D01*
X111688857Y-65113771D02*
X111784095Y-65066152D01*
X111784095Y-65066152D02*
X111926952Y-65066152D01*
X111926952Y-65066152D02*
X112022190Y-65113771D01*
X112022190Y-65113771D02*
X112069809Y-65209009D01*
X112069809Y-65209009D02*
X112069809Y-65732819D01*
X112546000Y-65066152D02*
X112546000Y-65732819D01*
X112546000Y-65161390D02*
X112593619Y-65113771D01*
X112593619Y-65113771D02*
X112688857Y-65066152D01*
X112688857Y-65066152D02*
X112831714Y-65066152D01*
X112831714Y-65066152D02*
X112926952Y-65113771D01*
X112926952Y-65113771D02*
X112974571Y-65209009D01*
X112974571Y-65209009D02*
X112974571Y-65732819D01*
X113212667Y-65828057D02*
X113974571Y-65828057D01*
X114403143Y-64732819D02*
X114498381Y-64732819D01*
X114498381Y-64732819D02*
X114593619Y-64780438D01*
X114593619Y-64780438D02*
X114641238Y-64828057D01*
X114641238Y-64828057D02*
X114688857Y-64923295D01*
X114688857Y-64923295D02*
X114736476Y-65113771D01*
X114736476Y-65113771D02*
X114736476Y-65351866D01*
X114736476Y-65351866D02*
X114688857Y-65542342D01*
X114688857Y-65542342D02*
X114641238Y-65637580D01*
X114641238Y-65637580D02*
X114593619Y-65685200D01*
X114593619Y-65685200D02*
X114498381Y-65732819D01*
X114498381Y-65732819D02*
X114403143Y-65732819D01*
X114403143Y-65732819D02*
X114307905Y-65685200D01*
X114307905Y-65685200D02*
X114260286Y-65637580D01*
X114260286Y-65637580D02*
X114212667Y-65542342D01*
X114212667Y-65542342D02*
X114165048Y-65351866D01*
X114165048Y-65351866D02*
X114165048Y-65113771D01*
X114165048Y-65113771D02*
X114212667Y-64923295D01*
X114212667Y-64923295D02*
X114260286Y-64828057D01*
X114260286Y-64828057D02*
X114307905Y-64780438D01*
X114307905Y-64780438D02*
X114403143Y-64732819D01*
X115688857Y-65732819D02*
X115117429Y-65732819D01*
X115403143Y-65732819D02*
X115403143Y-64732819D01*
X115403143Y-64732819D02*
X115307905Y-64875676D01*
X115307905Y-64875676D02*
X115212667Y-64970914D01*
X115212667Y-64970914D02*
X115117429Y-65018533D01*
X116022191Y-65732819D02*
X116546000Y-65066152D01*
X116022191Y-65066152D02*
X116546000Y-65732819D01*
X117117429Y-64732819D02*
X117212667Y-64732819D01*
X117212667Y-64732819D02*
X117307905Y-64780438D01*
X117307905Y-64780438D02*
X117355524Y-64828057D01*
X117355524Y-64828057D02*
X117403143Y-64923295D01*
X117403143Y-64923295D02*
X117450762Y-65113771D01*
X117450762Y-65113771D02*
X117450762Y-65351866D01*
X117450762Y-65351866D02*
X117403143Y-65542342D01*
X117403143Y-65542342D02*
X117355524Y-65637580D01*
X117355524Y-65637580D02*
X117307905Y-65685200D01*
X117307905Y-65685200D02*
X117212667Y-65732819D01*
X117212667Y-65732819D02*
X117117429Y-65732819D01*
X117117429Y-65732819D02*
X117022191Y-65685200D01*
X117022191Y-65685200D02*
X116974572Y-65637580D01*
X116974572Y-65637580D02*
X116926953Y-65542342D01*
X116926953Y-65542342D02*
X116879334Y-65351866D01*
X116879334Y-65351866D02*
X116879334Y-65113771D01*
X116879334Y-65113771D02*
X116926953Y-64923295D01*
X116926953Y-64923295D02*
X116974572Y-64828057D01*
X116974572Y-64828057D02*
X117022191Y-64780438D01*
X117022191Y-64780438D02*
X117117429Y-64732819D01*
X118307905Y-65066152D02*
X118307905Y-65732819D01*
X118069810Y-64685200D02*
X117831715Y-65399485D01*
X117831715Y-65399485D02*
X118450762Y-65399485D01*
X114982666Y-61684819D02*
X114982666Y-62399104D01*
X114982666Y-62399104D02*
X114935047Y-62541961D01*
X114935047Y-62541961D02*
X114839809Y-62637200D01*
X114839809Y-62637200D02*
X114696952Y-62684819D01*
X114696952Y-62684819D02*
X114601714Y-62684819D01*
X115411238Y-61780057D02*
X115458857Y-61732438D01*
X115458857Y-61732438D02*
X115554095Y-61684819D01*
X115554095Y-61684819D02*
X115792190Y-61684819D01*
X115792190Y-61684819D02*
X115887428Y-61732438D01*
X115887428Y-61732438D02*
X115935047Y-61780057D01*
X115935047Y-61780057D02*
X115982666Y-61875295D01*
X115982666Y-61875295D02*
X115982666Y-61970533D01*
X115982666Y-61970533D02*
X115935047Y-62113390D01*
X115935047Y-62113390D02*
X115363619Y-62684819D01*
X115363619Y-62684819D02*
X115982666Y-62684819D01*
X147947238Y-87518057D02*
X147994857Y-87470438D01*
X147994857Y-87470438D02*
X148090095Y-87422819D01*
X148090095Y-87422819D02*
X148328190Y-87422819D01*
X148328190Y-87422819D02*
X148423428Y-87470438D01*
X148423428Y-87470438D02*
X148471047Y-87518057D01*
X148471047Y-87518057D02*
X148518666Y-87613295D01*
X148518666Y-87613295D02*
X148518666Y-87708533D01*
X148518666Y-87708533D02*
X148471047Y-87851390D01*
X148471047Y-87851390D02*
X147899619Y-88422819D01*
X147899619Y-88422819D02*
X148518666Y-88422819D01*
X148947238Y-88327580D02*
X148994857Y-88375200D01*
X148994857Y-88375200D02*
X148947238Y-88422819D01*
X148947238Y-88422819D02*
X148899619Y-88375200D01*
X148899619Y-88375200D02*
X148947238Y-88327580D01*
X148947238Y-88327580D02*
X148947238Y-88422819D01*
X149375809Y-87518057D02*
X149423428Y-87470438D01*
X149423428Y-87470438D02*
X149518666Y-87422819D01*
X149518666Y-87422819D02*
X149756761Y-87422819D01*
X149756761Y-87422819D02*
X149851999Y-87470438D01*
X149851999Y-87470438D02*
X149899618Y-87518057D01*
X149899618Y-87518057D02*
X149947237Y-87613295D01*
X149947237Y-87613295D02*
X149947237Y-87708533D01*
X149947237Y-87708533D02*
X149899618Y-87851390D01*
X149899618Y-87851390D02*
X149328190Y-88422819D01*
X149328190Y-88422819D02*
X149947237Y-88422819D01*
X150375809Y-88422819D02*
X150375809Y-87422819D01*
X150471047Y-88041866D02*
X150756761Y-88422819D01*
X150756761Y-87756152D02*
X150375809Y-88137104D01*
X148709142Y-86052819D02*
X148375809Y-85576628D01*
X148137714Y-86052819D02*
X148137714Y-85052819D01*
X148137714Y-85052819D02*
X148518666Y-85052819D01*
X148518666Y-85052819D02*
X148613904Y-85100438D01*
X148613904Y-85100438D02*
X148661523Y-85148057D01*
X148661523Y-85148057D02*
X148709142Y-85243295D01*
X148709142Y-85243295D02*
X148709142Y-85386152D01*
X148709142Y-85386152D02*
X148661523Y-85481390D01*
X148661523Y-85481390D02*
X148613904Y-85529009D01*
X148613904Y-85529009D02*
X148518666Y-85576628D01*
X148518666Y-85576628D02*
X148137714Y-85576628D01*
X149090095Y-85148057D02*
X149137714Y-85100438D01*
X149137714Y-85100438D02*
X149232952Y-85052819D01*
X149232952Y-85052819D02*
X149471047Y-85052819D01*
X149471047Y-85052819D02*
X149566285Y-85100438D01*
X149566285Y-85100438D02*
X149613904Y-85148057D01*
X149613904Y-85148057D02*
X149661523Y-85243295D01*
X149661523Y-85243295D02*
X149661523Y-85338533D01*
X149661523Y-85338533D02*
X149613904Y-85481390D01*
X149613904Y-85481390D02*
X149042476Y-86052819D01*
X149042476Y-86052819D02*
X149661523Y-86052819D01*
X150042476Y-85148057D02*
X150090095Y-85100438D01*
X150090095Y-85100438D02*
X150185333Y-85052819D01*
X150185333Y-85052819D02*
X150423428Y-85052819D01*
X150423428Y-85052819D02*
X150518666Y-85100438D01*
X150518666Y-85100438D02*
X150566285Y-85148057D01*
X150566285Y-85148057D02*
X150613904Y-85243295D01*
X150613904Y-85243295D02*
X150613904Y-85338533D01*
X150613904Y-85338533D02*
X150566285Y-85481390D01*
X150566285Y-85481390D02*
X149994857Y-86052819D01*
X149994857Y-86052819D02*
X150613904Y-86052819D01*
X126103238Y-65928057D02*
X126150857Y-65880438D01*
X126150857Y-65880438D02*
X126246095Y-65832819D01*
X126246095Y-65832819D02*
X126484190Y-65832819D01*
X126484190Y-65832819D02*
X126579428Y-65880438D01*
X126579428Y-65880438D02*
X126627047Y-65928057D01*
X126627047Y-65928057D02*
X126674666Y-66023295D01*
X126674666Y-66023295D02*
X126674666Y-66118533D01*
X126674666Y-66118533D02*
X126627047Y-66261390D01*
X126627047Y-66261390D02*
X126055619Y-66832819D01*
X126055619Y-66832819D02*
X126674666Y-66832819D01*
X127103238Y-66737580D02*
X127150857Y-66785200D01*
X127150857Y-66785200D02*
X127103238Y-66832819D01*
X127103238Y-66832819D02*
X127055619Y-66785200D01*
X127055619Y-66785200D02*
X127103238Y-66737580D01*
X127103238Y-66737580D02*
X127103238Y-66832819D01*
X127531809Y-65928057D02*
X127579428Y-65880438D01*
X127579428Y-65880438D02*
X127674666Y-65832819D01*
X127674666Y-65832819D02*
X127912761Y-65832819D01*
X127912761Y-65832819D02*
X128007999Y-65880438D01*
X128007999Y-65880438D02*
X128055618Y-65928057D01*
X128055618Y-65928057D02*
X128103237Y-66023295D01*
X128103237Y-66023295D02*
X128103237Y-66118533D01*
X128103237Y-66118533D02*
X128055618Y-66261390D01*
X128055618Y-66261390D02*
X127484190Y-66832819D01*
X127484190Y-66832819D02*
X128103237Y-66832819D01*
X128531809Y-66832819D02*
X128531809Y-65832819D01*
X128627047Y-66451866D02*
X128912761Y-66832819D01*
X128912761Y-66166152D02*
X128531809Y-66547104D01*
X127341333Y-64462819D02*
X127008000Y-63986628D01*
X126769905Y-64462819D02*
X126769905Y-63462819D01*
X126769905Y-63462819D02*
X127150857Y-63462819D01*
X127150857Y-63462819D02*
X127246095Y-63510438D01*
X127246095Y-63510438D02*
X127293714Y-63558057D01*
X127293714Y-63558057D02*
X127341333Y-63653295D01*
X127341333Y-63653295D02*
X127341333Y-63796152D01*
X127341333Y-63796152D02*
X127293714Y-63891390D01*
X127293714Y-63891390D02*
X127246095Y-63939009D01*
X127246095Y-63939009D02*
X127150857Y-63986628D01*
X127150857Y-63986628D02*
X126769905Y-63986628D01*
X127722286Y-63558057D02*
X127769905Y-63510438D01*
X127769905Y-63510438D02*
X127865143Y-63462819D01*
X127865143Y-63462819D02*
X128103238Y-63462819D01*
X128103238Y-63462819D02*
X128198476Y-63510438D01*
X128198476Y-63510438D02*
X128246095Y-63558057D01*
X128246095Y-63558057D02*
X128293714Y-63653295D01*
X128293714Y-63653295D02*
X128293714Y-63748533D01*
X128293714Y-63748533D02*
X128246095Y-63891390D01*
X128246095Y-63891390D02*
X127674667Y-64462819D01*
X127674667Y-64462819D02*
X128293714Y-64462819D01*
X126103238Y-87518057D02*
X126150857Y-87470438D01*
X126150857Y-87470438D02*
X126246095Y-87422819D01*
X126246095Y-87422819D02*
X126484190Y-87422819D01*
X126484190Y-87422819D02*
X126579428Y-87470438D01*
X126579428Y-87470438D02*
X126627047Y-87518057D01*
X126627047Y-87518057D02*
X126674666Y-87613295D01*
X126674666Y-87613295D02*
X126674666Y-87708533D01*
X126674666Y-87708533D02*
X126627047Y-87851390D01*
X126627047Y-87851390D02*
X126055619Y-88422819D01*
X126055619Y-88422819D02*
X126674666Y-88422819D01*
X127103238Y-88327580D02*
X127150857Y-88375200D01*
X127150857Y-88375200D02*
X127103238Y-88422819D01*
X127103238Y-88422819D02*
X127055619Y-88375200D01*
X127055619Y-88375200D02*
X127103238Y-88327580D01*
X127103238Y-88327580D02*
X127103238Y-88422819D01*
X127531809Y-87518057D02*
X127579428Y-87470438D01*
X127579428Y-87470438D02*
X127674666Y-87422819D01*
X127674666Y-87422819D02*
X127912761Y-87422819D01*
X127912761Y-87422819D02*
X128007999Y-87470438D01*
X128007999Y-87470438D02*
X128055618Y-87518057D01*
X128055618Y-87518057D02*
X128103237Y-87613295D01*
X128103237Y-87613295D02*
X128103237Y-87708533D01*
X128103237Y-87708533D02*
X128055618Y-87851390D01*
X128055618Y-87851390D02*
X127484190Y-88422819D01*
X127484190Y-88422819D02*
X128103237Y-88422819D01*
X128531809Y-88422819D02*
X128531809Y-87422819D01*
X128627047Y-88041866D02*
X128912761Y-88422819D01*
X128912761Y-87756152D02*
X128531809Y-88137104D01*
X126865142Y-86052819D02*
X126531809Y-85576628D01*
X126293714Y-86052819D02*
X126293714Y-85052819D01*
X126293714Y-85052819D02*
X126674666Y-85052819D01*
X126674666Y-85052819D02*
X126769904Y-85100438D01*
X126769904Y-85100438D02*
X126817523Y-85148057D01*
X126817523Y-85148057D02*
X126865142Y-85243295D01*
X126865142Y-85243295D02*
X126865142Y-85386152D01*
X126865142Y-85386152D02*
X126817523Y-85481390D01*
X126817523Y-85481390D02*
X126769904Y-85529009D01*
X126769904Y-85529009D02*
X126674666Y-85576628D01*
X126674666Y-85576628D02*
X126293714Y-85576628D01*
X127817523Y-86052819D02*
X127246095Y-86052819D01*
X127531809Y-86052819D02*
X127531809Y-85052819D01*
X127531809Y-85052819D02*
X127436571Y-85195676D01*
X127436571Y-85195676D02*
X127341333Y-85290914D01*
X127341333Y-85290914D02*
X127246095Y-85338533D01*
X128436571Y-85052819D02*
X128531809Y-85052819D01*
X128531809Y-85052819D02*
X128627047Y-85100438D01*
X128627047Y-85100438D02*
X128674666Y-85148057D01*
X128674666Y-85148057D02*
X128722285Y-85243295D01*
X128722285Y-85243295D02*
X128769904Y-85433771D01*
X128769904Y-85433771D02*
X128769904Y-85671866D01*
X128769904Y-85671866D02*
X128722285Y-85862342D01*
X128722285Y-85862342D02*
X128674666Y-85957580D01*
X128674666Y-85957580D02*
X128627047Y-86005200D01*
X128627047Y-86005200D02*
X128531809Y-86052819D01*
X128531809Y-86052819D02*
X128436571Y-86052819D01*
X128436571Y-86052819D02*
X128341333Y-86005200D01*
X128341333Y-86005200D02*
X128293714Y-85957580D01*
X128293714Y-85957580D02*
X128246095Y-85862342D01*
X128246095Y-85862342D02*
X128198476Y-85671866D01*
X128198476Y-85671866D02*
X128198476Y-85433771D01*
X128198476Y-85433771D02*
X128246095Y-85243295D01*
X128246095Y-85243295D02*
X128293714Y-85148057D01*
X128293714Y-85148057D02*
X128341333Y-85100438D01*
X128341333Y-85100438D02*
X128436571Y-85052819D01*
X104086819Y-64506540D02*
X104086819Y-65077968D01*
X104086819Y-64792254D02*
X103086819Y-64792254D01*
X103086819Y-64792254D02*
X103229676Y-64887492D01*
X103229676Y-64887492D02*
X103324914Y-64982730D01*
X103324914Y-64982730D02*
X103372533Y-65077968D01*
X103086819Y-63887492D02*
X103086819Y-63792254D01*
X103086819Y-63792254D02*
X103134438Y-63697016D01*
X103134438Y-63697016D02*
X103182057Y-63649397D01*
X103182057Y-63649397D02*
X103277295Y-63601778D01*
X103277295Y-63601778D02*
X103467771Y-63554159D01*
X103467771Y-63554159D02*
X103705866Y-63554159D01*
X103705866Y-63554159D02*
X103896342Y-63601778D01*
X103896342Y-63601778D02*
X103991580Y-63649397D01*
X103991580Y-63649397D02*
X104039200Y-63697016D01*
X104039200Y-63697016D02*
X104086819Y-63792254D01*
X104086819Y-63792254D02*
X104086819Y-63887492D01*
X104086819Y-63887492D02*
X104039200Y-63982730D01*
X104039200Y-63982730D02*
X103991580Y-64030349D01*
X103991580Y-64030349D02*
X103896342Y-64077968D01*
X103896342Y-64077968D02*
X103705866Y-64125587D01*
X103705866Y-64125587D02*
X103467771Y-64125587D01*
X103467771Y-64125587D02*
X103277295Y-64077968D01*
X103277295Y-64077968D02*
X103182057Y-64030349D01*
X103182057Y-64030349D02*
X103134438Y-63982730D01*
X103134438Y-63982730D02*
X103086819Y-63887492D01*
X103420152Y-62697016D02*
X104086819Y-62697016D01*
X103420152Y-63125587D02*
X103943961Y-63125587D01*
X103943961Y-63125587D02*
X104039200Y-63077968D01*
X104039200Y-63077968D02*
X104086819Y-62982730D01*
X104086819Y-62982730D02*
X104086819Y-62839873D01*
X104086819Y-62839873D02*
X104039200Y-62744635D01*
X104039200Y-62744635D02*
X103991580Y-62697016D01*
X103563009Y-61887492D02*
X103563009Y-62220825D01*
X104086819Y-62220825D02*
X103086819Y-62220825D01*
X103086819Y-62220825D02*
X103086819Y-61744635D01*
X98657580Y-63646666D02*
X98705200Y-63694285D01*
X98705200Y-63694285D02*
X98752819Y-63837142D01*
X98752819Y-63837142D02*
X98752819Y-63932380D01*
X98752819Y-63932380D02*
X98705200Y-64075237D01*
X98705200Y-64075237D02*
X98609961Y-64170475D01*
X98609961Y-64170475D02*
X98514723Y-64218094D01*
X98514723Y-64218094D02*
X98324247Y-64265713D01*
X98324247Y-64265713D02*
X98181390Y-64265713D01*
X98181390Y-64265713D02*
X97990914Y-64218094D01*
X97990914Y-64218094D02*
X97895676Y-64170475D01*
X97895676Y-64170475D02*
X97800438Y-64075237D01*
X97800438Y-64075237D02*
X97752819Y-63932380D01*
X97752819Y-63932380D02*
X97752819Y-63837142D01*
X97752819Y-63837142D02*
X97800438Y-63694285D01*
X97800438Y-63694285D02*
X97848057Y-63646666D01*
X97752819Y-62741904D02*
X97752819Y-63218094D01*
X97752819Y-63218094D02*
X98229009Y-63265713D01*
X98229009Y-63265713D02*
X98181390Y-63218094D01*
X98181390Y-63218094D02*
X98133771Y-63122856D01*
X98133771Y-63122856D02*
X98133771Y-62884761D01*
X98133771Y-62884761D02*
X98181390Y-62789523D01*
X98181390Y-62789523D02*
X98229009Y-62741904D01*
X98229009Y-62741904D02*
X98324247Y-62694285D01*
X98324247Y-62694285D02*
X98562342Y-62694285D01*
X98562342Y-62694285D02*
X98657580Y-62741904D01*
X98657580Y-62741904D02*
X98705200Y-62789523D01*
X98705200Y-62789523D02*
X98752819Y-62884761D01*
X98752819Y-62884761D02*
X98752819Y-63122856D01*
X98752819Y-63122856D02*
X98705200Y-63218094D01*
X98705200Y-63218094D02*
X98657580Y-63265713D01*
X95670761Y-72590819D02*
X95099333Y-72590819D01*
X95385047Y-72590819D02*
X95385047Y-71590819D01*
X95385047Y-71590819D02*
X95289809Y-71733676D01*
X95289809Y-71733676D02*
X95194571Y-71828914D01*
X95194571Y-71828914D02*
X95099333Y-71876533D01*
X96289809Y-71590819D02*
X96385047Y-71590819D01*
X96385047Y-71590819D02*
X96480285Y-71638438D01*
X96480285Y-71638438D02*
X96527904Y-71686057D01*
X96527904Y-71686057D02*
X96575523Y-71781295D01*
X96575523Y-71781295D02*
X96623142Y-71971771D01*
X96623142Y-71971771D02*
X96623142Y-72209866D01*
X96623142Y-72209866D02*
X96575523Y-72400342D01*
X96575523Y-72400342D02*
X96527904Y-72495580D01*
X96527904Y-72495580D02*
X96480285Y-72543200D01*
X96480285Y-72543200D02*
X96385047Y-72590819D01*
X96385047Y-72590819D02*
X96289809Y-72590819D01*
X96289809Y-72590819D02*
X96194571Y-72543200D01*
X96194571Y-72543200D02*
X96146952Y-72495580D01*
X96146952Y-72495580D02*
X96099333Y-72400342D01*
X96099333Y-72400342D02*
X96051714Y-72209866D01*
X96051714Y-72209866D02*
X96051714Y-71971771D01*
X96051714Y-71971771D02*
X96099333Y-71781295D01*
X96099333Y-71781295D02*
X96146952Y-71686057D01*
X96146952Y-71686057D02*
X96194571Y-71638438D01*
X96194571Y-71638438D02*
X96289809Y-71590819D01*
X97051714Y-72590819D02*
X97051714Y-71590819D01*
X97146952Y-72209866D02*
X97432666Y-72590819D01*
X97432666Y-71924152D02*
X97051714Y-72305104D01*
X92543333Y-70304819D02*
X92210000Y-69828628D01*
X91971905Y-70304819D02*
X91971905Y-69304819D01*
X91971905Y-69304819D02*
X92352857Y-69304819D01*
X92352857Y-69304819D02*
X92448095Y-69352438D01*
X92448095Y-69352438D02*
X92495714Y-69400057D01*
X92495714Y-69400057D02*
X92543333Y-69495295D01*
X92543333Y-69495295D02*
X92543333Y-69638152D01*
X92543333Y-69638152D02*
X92495714Y-69733390D01*
X92495714Y-69733390D02*
X92448095Y-69781009D01*
X92448095Y-69781009D02*
X92352857Y-69828628D01*
X92352857Y-69828628D02*
X91971905Y-69828628D01*
X93495714Y-70304819D02*
X92924286Y-70304819D01*
X93210000Y-70304819D02*
X93210000Y-69304819D01*
X93210000Y-69304819D02*
X93114762Y-69447676D01*
X93114762Y-69447676D02*
X93019524Y-69542914D01*
X93019524Y-69542914D02*
X92924286Y-69590533D01*
X91557143Y-89250057D02*
X91604762Y-89202438D01*
X91604762Y-89202438D02*
X91700000Y-89154819D01*
X91700000Y-89154819D02*
X91938095Y-89154819D01*
X91938095Y-89154819D02*
X92033333Y-89202438D01*
X92033333Y-89202438D02*
X92080952Y-89250057D01*
X92080952Y-89250057D02*
X92128571Y-89345295D01*
X92128571Y-89345295D02*
X92128571Y-89440533D01*
X92128571Y-89440533D02*
X92080952Y-89583390D01*
X92080952Y-89583390D02*
X91509524Y-90154819D01*
X91509524Y-90154819D02*
X92128571Y-90154819D01*
X92509524Y-89250057D02*
X92557143Y-89202438D01*
X92557143Y-89202438D02*
X92652381Y-89154819D01*
X92652381Y-89154819D02*
X92890476Y-89154819D01*
X92890476Y-89154819D02*
X92985714Y-89202438D01*
X92985714Y-89202438D02*
X93033333Y-89250057D01*
X93033333Y-89250057D02*
X93080952Y-89345295D01*
X93080952Y-89345295D02*
X93080952Y-89440533D01*
X93080952Y-89440533D02*
X93033333Y-89583390D01*
X93033333Y-89583390D02*
X92461905Y-90154819D01*
X92461905Y-90154819D02*
X93080952Y-90154819D01*
X93509524Y-89488152D02*
X93509524Y-90488152D01*
X93509524Y-89535771D02*
X93604762Y-89488152D01*
X93604762Y-89488152D02*
X93795238Y-89488152D01*
X93795238Y-89488152D02*
X93890476Y-89535771D01*
X93890476Y-89535771D02*
X93938095Y-89583390D01*
X93938095Y-89583390D02*
X93985714Y-89678628D01*
X93985714Y-89678628D02*
X93985714Y-89964342D01*
X93985714Y-89964342D02*
X93938095Y-90059580D01*
X93938095Y-90059580D02*
X93890476Y-90107200D01*
X93890476Y-90107200D02*
X93795238Y-90154819D01*
X93795238Y-90154819D02*
X93604762Y-90154819D01*
X93604762Y-90154819D02*
X93509524Y-90107200D01*
X94747619Y-89631009D02*
X94414286Y-89631009D01*
X94414286Y-90154819D02*
X94414286Y-89154819D01*
X94414286Y-89154819D02*
X94890476Y-89154819D01*
D11*
X91850000Y-91915748D02*
X91821428Y-91944320D01*
X91821428Y-91944320D02*
X91735714Y-91972891D01*
X91735714Y-91972891D02*
X91678571Y-91972891D01*
X91678571Y-91972891D02*
X91592857Y-91944320D01*
X91592857Y-91944320D02*
X91535714Y-91887177D01*
X91535714Y-91887177D02*
X91507143Y-91830034D01*
X91507143Y-91830034D02*
X91478571Y-91715748D01*
X91478571Y-91715748D02*
X91478571Y-91630034D01*
X91478571Y-91630034D02*
X91507143Y-91515748D01*
X91507143Y-91515748D02*
X91535714Y-91458605D01*
X91535714Y-91458605D02*
X91592857Y-91401462D01*
X91592857Y-91401462D02*
X91678571Y-91372891D01*
X91678571Y-91372891D02*
X91735714Y-91372891D01*
X91735714Y-91372891D02*
X91821428Y-91401462D01*
X91821428Y-91401462D02*
X91850000Y-91430034D01*
X92364286Y-91572891D02*
X92364286Y-91972891D01*
X92221428Y-91344320D02*
X92078571Y-91772891D01*
X92078571Y-91772891D02*
X92450000Y-91772891D01*
D12*
X156263855Y-92520475D02*
X155463855Y-92520475D01*
X155463855Y-92520475D02*
X155463855Y-92329999D01*
X155463855Y-92329999D02*
X155501950Y-92215713D01*
X155501950Y-92215713D02*
X155578140Y-92139523D01*
X155578140Y-92139523D02*
X155654331Y-92101428D01*
X155654331Y-92101428D02*
X155806712Y-92063332D01*
X155806712Y-92063332D02*
X155920998Y-92063332D01*
X155920998Y-92063332D02*
X156073379Y-92101428D01*
X156073379Y-92101428D02*
X156149569Y-92139523D01*
X156149569Y-92139523D02*
X156225760Y-92215713D01*
X156225760Y-92215713D02*
X156263855Y-92329999D01*
X156263855Y-92329999D02*
X156263855Y-92520475D01*
X155730521Y-91377618D02*
X156263855Y-91377618D01*
X155425760Y-91568094D02*
X155997188Y-91758571D01*
X155997188Y-91758571D02*
X155997188Y-91263332D01*
D10*
X91435143Y-94250057D02*
X91482762Y-94202438D01*
X91482762Y-94202438D02*
X91578000Y-94154819D01*
X91578000Y-94154819D02*
X91816095Y-94154819D01*
X91816095Y-94154819D02*
X91911333Y-94202438D01*
X91911333Y-94202438D02*
X91958952Y-94250057D01*
X91958952Y-94250057D02*
X92006571Y-94345295D01*
X92006571Y-94345295D02*
X92006571Y-94440533D01*
X92006571Y-94440533D02*
X91958952Y-94583390D01*
X91958952Y-94583390D02*
X91387524Y-95154819D01*
X91387524Y-95154819D02*
X92006571Y-95154819D01*
X92387524Y-94250057D02*
X92435143Y-94202438D01*
X92435143Y-94202438D02*
X92530381Y-94154819D01*
X92530381Y-94154819D02*
X92768476Y-94154819D01*
X92768476Y-94154819D02*
X92863714Y-94202438D01*
X92863714Y-94202438D02*
X92911333Y-94250057D01*
X92911333Y-94250057D02*
X92958952Y-94345295D01*
X92958952Y-94345295D02*
X92958952Y-94440533D01*
X92958952Y-94440533D02*
X92911333Y-94583390D01*
X92911333Y-94583390D02*
X92339905Y-95154819D01*
X92339905Y-95154819D02*
X92958952Y-95154819D01*
X93387524Y-94488152D02*
X93387524Y-95488152D01*
X93387524Y-94535771D02*
X93482762Y-94488152D01*
X93482762Y-94488152D02*
X93673238Y-94488152D01*
X93673238Y-94488152D02*
X93768476Y-94535771D01*
X93768476Y-94535771D02*
X93816095Y-94583390D01*
X93816095Y-94583390D02*
X93863714Y-94678628D01*
X93863714Y-94678628D02*
X93863714Y-94964342D01*
X93863714Y-94964342D02*
X93816095Y-95059580D01*
X93816095Y-95059580D02*
X93768476Y-95107200D01*
X93768476Y-95107200D02*
X93673238Y-95154819D01*
X93673238Y-95154819D02*
X93482762Y-95154819D01*
X93482762Y-95154819D02*
X93387524Y-95107200D01*
X94625619Y-94631009D02*
X94292286Y-94631009D01*
X94292286Y-95154819D02*
X94292286Y-94154819D01*
X94292286Y-94154819D02*
X94768476Y-94154819D01*
D11*
X91828000Y-96915748D02*
X91799428Y-96944320D01*
X91799428Y-96944320D02*
X91713714Y-96972891D01*
X91713714Y-96972891D02*
X91656571Y-96972891D01*
X91656571Y-96972891D02*
X91570857Y-96944320D01*
X91570857Y-96944320D02*
X91513714Y-96887177D01*
X91513714Y-96887177D02*
X91485143Y-96830034D01*
X91485143Y-96830034D02*
X91456571Y-96715748D01*
X91456571Y-96715748D02*
X91456571Y-96630034D01*
X91456571Y-96630034D02*
X91485143Y-96515748D01*
X91485143Y-96515748D02*
X91513714Y-96458605D01*
X91513714Y-96458605D02*
X91570857Y-96401462D01*
X91570857Y-96401462D02*
X91656571Y-96372891D01*
X91656571Y-96372891D02*
X91713714Y-96372891D01*
X91713714Y-96372891D02*
X91799428Y-96401462D01*
X91799428Y-96401462D02*
X91828000Y-96430034D01*
X92028000Y-96372891D02*
X92399428Y-96372891D01*
X92399428Y-96372891D02*
X92199428Y-96601462D01*
X92199428Y-96601462D02*
X92285143Y-96601462D01*
X92285143Y-96601462D02*
X92342286Y-96630034D01*
X92342286Y-96630034D02*
X92370857Y-96658605D01*
X92370857Y-96658605D02*
X92399428Y-96715748D01*
X92399428Y-96715748D02*
X92399428Y-96858605D01*
X92399428Y-96858605D02*
X92370857Y-96915748D01*
X92370857Y-96915748D02*
X92342286Y-96944320D01*
X92342286Y-96944320D02*
X92285143Y-96972891D01*
X92285143Y-96972891D02*
X92113714Y-96972891D01*
X92113714Y-96972891D02*
X92056571Y-96944320D01*
X92056571Y-96944320D02*
X92028000Y-96915748D01*
D10*
X88495523Y-65383580D02*
X88447904Y-65431200D01*
X88447904Y-65431200D02*
X88305047Y-65478819D01*
X88305047Y-65478819D02*
X88209809Y-65478819D01*
X88209809Y-65478819D02*
X88066952Y-65431200D01*
X88066952Y-65431200D02*
X87971714Y-65335961D01*
X87971714Y-65335961D02*
X87924095Y-65240723D01*
X87924095Y-65240723D02*
X87876476Y-65050247D01*
X87876476Y-65050247D02*
X87876476Y-64907390D01*
X87876476Y-64907390D02*
X87924095Y-64716914D01*
X87924095Y-64716914D02*
X87971714Y-64621676D01*
X87971714Y-64621676D02*
X88066952Y-64526438D01*
X88066952Y-64526438D02*
X88209809Y-64478819D01*
X88209809Y-64478819D02*
X88305047Y-64478819D01*
X88305047Y-64478819D02*
X88447904Y-64526438D01*
X88447904Y-64526438D02*
X88495523Y-64574057D01*
X89114571Y-64478819D02*
X89305047Y-64478819D01*
X89305047Y-64478819D02*
X89400285Y-64526438D01*
X89400285Y-64526438D02*
X89495523Y-64621676D01*
X89495523Y-64621676D02*
X89543142Y-64812152D01*
X89543142Y-64812152D02*
X89543142Y-65145485D01*
X89543142Y-65145485D02*
X89495523Y-65335961D01*
X89495523Y-65335961D02*
X89400285Y-65431200D01*
X89400285Y-65431200D02*
X89305047Y-65478819D01*
X89305047Y-65478819D02*
X89114571Y-65478819D01*
X89114571Y-65478819D02*
X89019333Y-65431200D01*
X89019333Y-65431200D02*
X88924095Y-65335961D01*
X88924095Y-65335961D02*
X88876476Y-65145485D01*
X88876476Y-65145485D02*
X88876476Y-64812152D01*
X88876476Y-64812152D02*
X88924095Y-64621676D01*
X88924095Y-64621676D02*
X89019333Y-64526438D01*
X89019333Y-64526438D02*
X89114571Y-64478819D01*
X89971714Y-65478819D02*
X89971714Y-64478819D01*
X89971714Y-64478819D02*
X90543142Y-65478819D01*
X90543142Y-65478819D02*
X90543142Y-64478819D01*
X90781238Y-65574057D02*
X91543142Y-65574057D01*
X91781238Y-65478819D02*
X91781238Y-64478819D01*
X91781238Y-64478819D02*
X92162190Y-64478819D01*
X92162190Y-64478819D02*
X92257428Y-64526438D01*
X92257428Y-64526438D02*
X92305047Y-64574057D01*
X92305047Y-64574057D02*
X92352666Y-64669295D01*
X92352666Y-64669295D02*
X92352666Y-64812152D01*
X92352666Y-64812152D02*
X92305047Y-64907390D01*
X92305047Y-64907390D02*
X92257428Y-64955009D01*
X92257428Y-64955009D02*
X92162190Y-65002628D01*
X92162190Y-65002628D02*
X91781238Y-65002628D01*
X92686000Y-64478819D02*
X92924095Y-65478819D01*
X92924095Y-65478819D02*
X93114571Y-64764533D01*
X93114571Y-64764533D02*
X93305047Y-65478819D01*
X93305047Y-65478819D02*
X93543143Y-64478819D01*
X94495523Y-65478819D02*
X94162190Y-65002628D01*
X93924095Y-65478819D02*
X93924095Y-64478819D01*
X93924095Y-64478819D02*
X94305047Y-64478819D01*
X94305047Y-64478819D02*
X94400285Y-64526438D01*
X94400285Y-64526438D02*
X94447904Y-64574057D01*
X94447904Y-64574057D02*
X94495523Y-64669295D01*
X94495523Y-64669295D02*
X94495523Y-64812152D01*
X94495523Y-64812152D02*
X94447904Y-64907390D01*
X94447904Y-64907390D02*
X94400285Y-64955009D01*
X94400285Y-64955009D02*
X94305047Y-65002628D01*
X94305047Y-65002628D02*
X93924095Y-65002628D01*
X90598666Y-61684819D02*
X90598666Y-62399104D01*
X90598666Y-62399104D02*
X90551047Y-62541961D01*
X90551047Y-62541961D02*
X90455809Y-62637200D01*
X90455809Y-62637200D02*
X90312952Y-62684819D01*
X90312952Y-62684819D02*
X90217714Y-62684819D01*
X91598666Y-62684819D02*
X91027238Y-62684819D01*
X91312952Y-62684819D02*
X91312952Y-61684819D01*
X91312952Y-61684819D02*
X91217714Y-61827676D01*
X91217714Y-61827676D02*
X91122476Y-61922914D01*
X91122476Y-61922914D02*
X91027238Y-61970533D01*
X147947238Y-65844057D02*
X147994857Y-65796438D01*
X147994857Y-65796438D02*
X148090095Y-65748819D01*
X148090095Y-65748819D02*
X148328190Y-65748819D01*
X148328190Y-65748819D02*
X148423428Y-65796438D01*
X148423428Y-65796438D02*
X148471047Y-65844057D01*
X148471047Y-65844057D02*
X148518666Y-65939295D01*
X148518666Y-65939295D02*
X148518666Y-66034533D01*
X148518666Y-66034533D02*
X148471047Y-66177390D01*
X148471047Y-66177390D02*
X147899619Y-66748819D01*
X147899619Y-66748819D02*
X148518666Y-66748819D01*
X148947238Y-66653580D02*
X148994857Y-66701200D01*
X148994857Y-66701200D02*
X148947238Y-66748819D01*
X148947238Y-66748819D02*
X148899619Y-66701200D01*
X148899619Y-66701200D02*
X148947238Y-66653580D01*
X148947238Y-66653580D02*
X148947238Y-66748819D01*
X149375809Y-65844057D02*
X149423428Y-65796438D01*
X149423428Y-65796438D02*
X149518666Y-65748819D01*
X149518666Y-65748819D02*
X149756761Y-65748819D01*
X149756761Y-65748819D02*
X149851999Y-65796438D01*
X149851999Y-65796438D02*
X149899618Y-65844057D01*
X149899618Y-65844057D02*
X149947237Y-65939295D01*
X149947237Y-65939295D02*
X149947237Y-66034533D01*
X149947237Y-66034533D02*
X149899618Y-66177390D01*
X149899618Y-66177390D02*
X149328190Y-66748819D01*
X149328190Y-66748819D02*
X149947237Y-66748819D01*
X150375809Y-66748819D02*
X150375809Y-65748819D01*
X150471047Y-66367866D02*
X150756761Y-66748819D01*
X150756761Y-66082152D02*
X150375809Y-66463104D01*
X148709142Y-64462819D02*
X148375809Y-63986628D01*
X148137714Y-64462819D02*
X148137714Y-63462819D01*
X148137714Y-63462819D02*
X148518666Y-63462819D01*
X148518666Y-63462819D02*
X148613904Y-63510438D01*
X148613904Y-63510438D02*
X148661523Y-63558057D01*
X148661523Y-63558057D02*
X148709142Y-63653295D01*
X148709142Y-63653295D02*
X148709142Y-63796152D01*
X148709142Y-63796152D02*
X148661523Y-63891390D01*
X148661523Y-63891390D02*
X148613904Y-63939009D01*
X148613904Y-63939009D02*
X148518666Y-63986628D01*
X148518666Y-63986628D02*
X148137714Y-63986628D01*
X149661523Y-64462819D02*
X149090095Y-64462819D01*
X149375809Y-64462819D02*
X149375809Y-63462819D01*
X149375809Y-63462819D02*
X149280571Y-63605676D01*
X149280571Y-63605676D02*
X149185333Y-63700914D01*
X149185333Y-63700914D02*
X149090095Y-63748533D01*
X149994857Y-63462819D02*
X150661523Y-63462819D01*
X150661523Y-63462819D02*
X150232952Y-64462819D01*
D12*
X144463855Y-92520475D02*
X143663855Y-92520475D01*
X143663855Y-92520475D02*
X143663855Y-92329999D01*
X143663855Y-92329999D02*
X143701950Y-92215713D01*
X143701950Y-92215713D02*
X143778140Y-92139523D01*
X143778140Y-92139523D02*
X143854331Y-92101428D01*
X143854331Y-92101428D02*
X144006712Y-92063332D01*
X144006712Y-92063332D02*
X144120998Y-92063332D01*
X144120998Y-92063332D02*
X144273379Y-92101428D01*
X144273379Y-92101428D02*
X144349569Y-92139523D01*
X144349569Y-92139523D02*
X144425760Y-92215713D01*
X144425760Y-92215713D02*
X144463855Y-92329999D01*
X144463855Y-92329999D02*
X144463855Y-92520475D01*
X143740045Y-91758571D02*
X143701950Y-91720475D01*
X143701950Y-91720475D02*
X143663855Y-91644285D01*
X143663855Y-91644285D02*
X143663855Y-91453809D01*
X143663855Y-91453809D02*
X143701950Y-91377618D01*
X143701950Y-91377618D02*
X143740045Y-91339523D01*
X143740045Y-91339523D02*
X143816236Y-91301428D01*
X143816236Y-91301428D02*
X143892426Y-91301428D01*
X143892426Y-91301428D02*
X144006712Y-91339523D01*
X144006712Y-91339523D02*
X144463855Y-91796666D01*
X144463855Y-91796666D02*
X144463855Y-91301428D01*
D13*
%TO.C,J3*%
X123530000Y-94100000D02*
X124800000Y-92830000D01*
X123530000Y-105530000D02*
X123530000Y-94100000D01*
X124800000Y-92830000D02*
X128610000Y-92830000D01*
X128610000Y-92830000D02*
X128610000Y-105530000D01*
X128610000Y-105530000D02*
X123530000Y-105530000D01*
%TO.C,U1*%
X111897000Y-71114000D02*
X112897000Y-70114000D01*
X111897000Y-105674000D02*
X111897000Y-71114000D01*
X112897000Y-70114000D02*
X118247000Y-70114000D01*
X118247000Y-70114000D02*
X118247000Y-105674000D01*
X118247000Y-105674000D02*
X111897000Y-105674000D01*
%TO.C,C6*%
X106972000Y-83570000D02*
X105372000Y-83570000D01*
X105372000Y-86570000D01*
X106972000Y-86570000D01*
X106972000Y-83570000D01*
%TO.C,JP1*%
X132200000Y-89880000D02*
X132200000Y-90540000D01*
X132200000Y-97500000D02*
X132200000Y-96840000D01*
X130950000Y-96840000D02*
X133450000Y-96840000D01*
X133450000Y-90540000D01*
X130950000Y-90540000D01*
X130950000Y-96840000D01*
%TO.C,R8*%
X123698000Y-77216000D02*
X124358000Y-77216000D01*
X131318000Y-77216000D02*
X130658000Y-77216000D01*
X124358000Y-75966000D02*
X130658000Y-75966000D01*
X130658000Y-78466000D01*
X124358000Y-78466000D01*
X124358000Y-75966000D01*
%TO.C,R5*%
X138148000Y-96756000D02*
X138148000Y-97416000D01*
X138148000Y-104376000D02*
X138148000Y-103716000D01*
X139398000Y-97416000D02*
X136898000Y-97416000D01*
X136898000Y-103716000D01*
X139398000Y-103716000D01*
X139398000Y-97416000D01*
%TO.C,D1*%
X151166190Y-90369780D02*
X148833810Y-90369780D01*
X151166190Y-90369780D02*
G75*
G02*
X148833810Y-90369780I-1166190J-1500000D01*
G01*
X151500000Y-91869780D02*
G75*
G02*
X148500000Y-91869780I-1500000J0D01*
G01*
X148500000Y-91869780D02*
G75*
G02*
X151500000Y-91869780I1500000J0D01*
G01*
%TO.C,Y1*%
X98775000Y-90940000D02*
X98775000Y-97340000D01*
X103425000Y-90940000D02*
X103425000Y-97340000D01*
X98775000Y-90940000D02*
G75*
G02*
X103425000Y-90940000I2325000J0D01*
G01*
X103425000Y-97340000D02*
G75*
G02*
X98775000Y-97340000I-2325000J0D01*
G01*
%TO.C,R9*%
X123698000Y-81534000D02*
X124358000Y-81534000D01*
X131318000Y-81534000D02*
X130658000Y-81534000D01*
X124358000Y-80284000D02*
X130658000Y-80284000D01*
X130658000Y-82784000D01*
X124358000Y-82784000D01*
X124358000Y-80284000D01*
%TO.C,R23*%
X156972000Y-77978000D02*
X156972000Y-78638000D01*
X156972000Y-85598000D02*
X156972000Y-84938000D01*
X155722000Y-84938000D02*
X158222000Y-84938000D01*
X158222000Y-78638000D01*
X155722000Y-78638000D01*
X155722000Y-84938000D01*
%TO.C,R12*%
X134620000Y-68072000D02*
X135280000Y-68072000D01*
X142240000Y-68072000D02*
X141580000Y-68072000D01*
X135280000Y-66822000D02*
X141580000Y-66822000D01*
X141580000Y-69322000D01*
X135280000Y-69322000D01*
X135280000Y-66822000D01*
%TO.C,R21*%
X145542000Y-81534000D02*
X146202000Y-81534000D01*
X153162000Y-81534000D02*
X152502000Y-81534000D01*
X152502000Y-82784000D02*
X146202000Y-82784000D01*
X146202000Y-80284000D01*
X152502000Y-80284000D01*
X152502000Y-82784000D01*
%TO.C,R18*%
X145542000Y-68072000D02*
X146202000Y-68072000D01*
X153162000Y-68072000D02*
X152502000Y-68072000D01*
X152502000Y-69322000D02*
X146202000Y-69322000D01*
X146202000Y-66822000D01*
X152502000Y-66822000D01*
X152502000Y-69322000D01*
%TO.C,R3*%
X150000000Y-96695780D02*
X150000000Y-97355780D01*
X150000000Y-104315780D02*
X150000000Y-103655780D01*
X151250000Y-97355780D02*
X148750000Y-97355780D01*
X148750000Y-103655780D01*
X151250000Y-103655780D01*
X151250000Y-97355780D01*
%TO.C,R6*%
X123698000Y-68072000D02*
X124358000Y-68072000D01*
X131318000Y-68072000D02*
X130658000Y-68072000D01*
X124358000Y-66822000D02*
X130658000Y-66822000D01*
X130658000Y-69322000D01*
X124358000Y-69322000D01*
X124358000Y-66822000D01*
%TO.C,D3*%
X139266190Y-90430000D02*
X136933810Y-90430000D01*
X139266190Y-90430000D02*
G75*
G02*
X136933810Y-90430000I-1166190J-1500000D01*
G01*
X139600000Y-91930000D02*
G75*
G02*
X136600000Y-91930000I-1500000J0D01*
G01*
X136600000Y-91930000D02*
G75*
G02*
X139600000Y-91930000I1500000J0D01*
G01*
%TO.C,R19*%
X145542000Y-72898000D02*
X146202000Y-72898000D01*
X153162000Y-72898000D02*
X152502000Y-72898000D01*
X152502000Y-74148000D02*
X146202000Y-74148000D01*
X146202000Y-71648000D01*
X152502000Y-71648000D01*
X152502000Y-74148000D01*
%TO.C,R16*%
X134620000Y-85598000D02*
X135280000Y-85598000D01*
X142240000Y-85598000D02*
X141580000Y-85598000D01*
X135280000Y-84348000D02*
X141580000Y-84348000D01*
X141580000Y-86848000D01*
X135280000Y-86848000D01*
X135280000Y-84348000D01*
%TO.C,R20*%
X145542000Y-77216000D02*
X146202000Y-77216000D01*
X153162000Y-77216000D02*
X152502000Y-77216000D01*
X152502000Y-78466000D02*
X146202000Y-78466000D01*
X146202000Y-75966000D01*
X152502000Y-75966000D01*
X152502000Y-78466000D01*
%TO.C,R7*%
X123698000Y-72898000D02*
X124358000Y-72898000D01*
X131318000Y-72898000D02*
X130658000Y-72898000D01*
X124358000Y-71648000D02*
X130658000Y-71648000D01*
X130658000Y-74148000D01*
X124358000Y-74148000D01*
X124358000Y-71648000D01*
%TO.C,R11*%
X134620000Y-64008000D02*
X135280000Y-64008000D01*
X142240000Y-64008000D02*
X141580000Y-64008000D01*
X135280000Y-62758000D02*
X141580000Y-62758000D01*
X141580000Y-65258000D01*
X135280000Y-65258000D01*
X135280000Y-62758000D01*
%TO.C,SW1*%
X95552000Y-73708000D02*
X98552000Y-73708000D01*
X95552000Y-79708000D02*
X95552000Y-73708000D01*
X98552000Y-73708000D02*
X101552000Y-73708000D01*
X101552000Y-73708000D02*
X101552000Y-79708000D01*
X101552000Y-79708000D02*
X95552000Y-79708000D01*
X100567564Y-76708000D02*
G75*
G02*
X96536436Y-76708000I-2015564J0D01*
G01*
X96536436Y-76708000D02*
G75*
G02*
X100567564Y-76708000I2015564J0D01*
G01*
%TO.C,R14*%
X134620000Y-77216000D02*
X135280000Y-77216000D01*
X142240000Y-77216000D02*
X141580000Y-77216000D01*
X135280000Y-75966000D02*
X141580000Y-75966000D01*
X141580000Y-78466000D01*
X135280000Y-78466000D01*
X135280000Y-75966000D01*
%TO.C,C7*%
X127650000Y-90600000D02*
X124650000Y-90600000D01*
X124650000Y-89000000D01*
X127650000Y-89000000D01*
X127650000Y-90600000D01*
%TO.C,C1*%
X101308000Y-70100000D02*
X102908000Y-70100000D01*
X102908000Y-67100000D01*
X101308000Y-67100000D01*
X101308000Y-70100000D01*
%TO.C,R13*%
X134620000Y-72898000D02*
X135280000Y-72898000D01*
X142240000Y-72898000D02*
X141580000Y-72898000D01*
X135280000Y-71648000D02*
X141580000Y-71648000D01*
X141580000Y-74148000D01*
X135280000Y-74148000D01*
X135280000Y-71648000D01*
%TO.C,C2*%
X106718000Y-76244000D02*
X105118000Y-76244000D01*
X105118000Y-79244000D01*
X106718000Y-79244000D01*
X106718000Y-76244000D01*
%TO.C,R15*%
X134620000Y-81534000D02*
X135280000Y-81534000D01*
X142240000Y-81534000D02*
X141580000Y-81534000D01*
X135280000Y-80284000D02*
X141580000Y-80284000D01*
X141580000Y-82784000D01*
X135280000Y-82784000D01*
X135280000Y-80284000D01*
%TO.C,R24*%
X155900000Y-96756000D02*
X155900000Y-97416000D01*
X155900000Y-104376000D02*
X155900000Y-103716000D01*
X157150000Y-97416000D02*
X154650000Y-97416000D01*
X154650000Y-103716000D01*
X157150000Y-103716000D01*
X157150000Y-97416000D01*
%TO.C,R4*%
X144100000Y-96756000D02*
X144100000Y-97416000D01*
X144100000Y-104376000D02*
X144100000Y-103716000D01*
X145350000Y-97416000D02*
X142850000Y-97416000D01*
X142850000Y-103716000D01*
X145350000Y-103716000D01*
X145350000Y-97416000D01*
%TO.C,J2*%
X110236000Y-60960000D02*
X120396000Y-60960000D01*
X110236000Y-62865000D02*
X110236000Y-60960000D01*
X110871000Y-63500000D02*
X110236000Y-62865000D01*
X120396000Y-60960000D02*
X120396000Y-63500000D01*
X120396000Y-63500000D02*
X110871000Y-63500000D01*
%TO.C,R22*%
X145542000Y-85598000D02*
X146202000Y-85598000D01*
X153162000Y-85598000D02*
X152502000Y-85598000D01*
X146202000Y-84348000D02*
X152502000Y-84348000D01*
X152502000Y-86848000D01*
X146202000Y-86848000D01*
X146202000Y-84348000D01*
%TO.C,R2*%
X123698000Y-64008000D02*
X124358000Y-64008000D01*
X131318000Y-64008000D02*
X130658000Y-64008000D01*
X124358000Y-62758000D02*
X130658000Y-62758000D01*
X130658000Y-65258000D01*
X124358000Y-65258000D01*
X124358000Y-62758000D01*
%TO.C,R10*%
X123698000Y-85598000D02*
X124358000Y-85598000D01*
X131318000Y-85598000D02*
X130658000Y-85598000D01*
X124358000Y-84348000D02*
X130658000Y-84348000D01*
X130658000Y-86848000D01*
X124358000Y-86848000D01*
X124358000Y-84348000D01*
%TO.C,C5*%
X99385500Y-61346395D02*
X99385500Y-61846395D01*
X99635500Y-61596395D02*
X99135500Y-61596395D01*
X100798000Y-63480000D02*
G75*
G02*
X95798000Y-63480000I-2500000J0D01*
G01*
X95798000Y-63480000D02*
G75*
G02*
X100798000Y-63480000I2500000J0D01*
G01*
%TO.C,R1*%
X88900000Y-69850000D02*
X89560000Y-69850000D01*
X96520000Y-69850000D02*
X95860000Y-69850000D01*
X89560000Y-68600000D02*
X95860000Y-68600000D01*
X95860000Y-71100000D01*
X89560000Y-71100000D01*
X89560000Y-68600000D01*
%TO.C,C4*%
X90450000Y-90900000D02*
X93450000Y-90900000D01*
X93450000Y-92500000D01*
X90450000Y-92500000D01*
X90450000Y-90900000D01*
%TO.C,D4*%
X157066190Y-90430000D02*
X154733810Y-90430000D01*
X157066190Y-90430000D02*
G75*
G02*
X154733810Y-90430000I-1166190J-1500000D01*
G01*
X157400000Y-91930000D02*
G75*
G02*
X154400000Y-91930000I-1500000J0D01*
G01*
X154400000Y-91930000D02*
G75*
G02*
X157400000Y-91930000I1500000J0D01*
G01*
%TO.C,C3*%
X90428000Y-95900000D02*
X93428000Y-95900000D01*
X93428000Y-97500000D01*
X90428000Y-97500000D01*
X90428000Y-95900000D01*
%TO.C,J1*%
X88392000Y-60960000D02*
X92837000Y-60960000D01*
X88392000Y-63500000D02*
X88392000Y-60960000D01*
X92837000Y-60960000D02*
X93472000Y-61595000D01*
X93472000Y-61595000D02*
X93472000Y-63500000D01*
X93472000Y-63500000D02*
X88392000Y-63500000D01*
%TO.C,R17*%
X145542000Y-64008000D02*
X146202000Y-64008000D01*
X153162000Y-64008000D02*
X152502000Y-64008000D01*
X152502000Y-65258000D02*
X146202000Y-65258000D01*
X146202000Y-62758000D01*
X152502000Y-62758000D01*
X152502000Y-65258000D01*
%TO.C,D2*%
X145266190Y-90430000D02*
X142933810Y-90430000D01*
X145266190Y-90430000D02*
G75*
G02*
X142933810Y-90430000I-1166190J-1500000D01*
G01*
X145600000Y-91930000D02*
G75*
G02*
X142600000Y-91930000I-1500000J0D01*
G01*
X142600000Y-91930000D02*
G75*
G02*
X145600000Y-91930000I1500000J0D01*
G01*
%TD*%
M02*
