%TF.GenerationSoftware,KiCad,Pcbnew,9.0.2+dfsg-1*%
%TF.CreationDate,2025-08-15T21:43:56+05:30*%
%TF.ProjectId,scopetester_v1,73636f70-6574-4657-9374-65725f76312e,rev?*%
%TF.SameCoordinates,Original*%
%TF.FileFunction,Copper,L2,Bot*%
%TF.FilePolarity,Positive*%
%FSLAX46Y46*%
G04 Gerber Fmt 4.6, Leading zero omitted, Abs format (unit mm)*
G04 Created by KiCad (PCBNEW 9.0.2+dfsg-1) date 2025-08-15 21:43:56*
%MOMM*%
%LPD*%
G01*
G04 APERTURE LIST*
G04 Aperture macros list*
%AMRoundRect*
0 Rectangle with rounded corners*
0 $1 Rounding radius*
0 $2 $3 $4 $5 $6 $7 $8 $9 X,Y pos of 4 corners*
0 Add a 4 corners polygon primitive as box body*
4,1,4,$2,$3,$4,$5,$6,$7,$8,$9,$2,$3,0*
0 Add four circle primitives for the rounded corners*
1,1,$1+$1,$2,$3*
1,1,$1+$1,$4,$5*
1,1,$1+$1,$6,$7*
1,1,$1+$1,$8,$9*
0 Add four rect primitives between the rounded corners*
20,1,$1+$1,$2,$3,$4,$5,0*
20,1,$1+$1,$4,$5,$6,$7,0*
20,1,$1+$1,$6,$7,$8,$9,0*
20,1,$1+$1,$8,$9,$2,$3,0*%
G04 Aperture macros list end*
%ADD10C,0.200000*%
%TA.AperFunction,NonConductor*%
%ADD11C,0.200000*%
%TD*%
%TA.AperFunction,ComponentPad*%
%ADD12R,1.700000X1.700000*%
%TD*%
%TA.AperFunction,ComponentPad*%
%ADD13C,1.700000*%
%TD*%
%TA.AperFunction,ComponentPad*%
%ADD14RoundRect,0.250000X-0.550000X-0.550000X0.550000X-0.550000X0.550000X0.550000X-0.550000X0.550000X0*%
%TD*%
%TA.AperFunction,ComponentPad*%
%ADD15C,1.600000*%
%TD*%
%TA.AperFunction,ComponentPad*%
%ADD16R,1.800000X1.800000*%
%TD*%
%TA.AperFunction,ComponentPad*%
%ADD17C,1.800000*%
%TD*%
%TA.AperFunction,ComponentPad*%
%ADD18C,1.500000*%
%TD*%
%TA.AperFunction,ComponentPad*%
%ADD19C,2.000000*%
%TD*%
%TA.AperFunction,ComponentPad*%
%ADD20RoundRect,0.250000X-0.550000X0.550000X-0.550000X-0.550000X0.550000X-0.550000X0.550000X0.550000X0*%
%TD*%
%TA.AperFunction,Conductor*%
%ADD21C,0.250000*%
%TD*%
%TA.AperFunction,Conductor*%
%ADD22C,0.200000*%
%TD*%
%TA.AperFunction,Conductor*%
%ADD23C,0.400000*%
%TD*%
G04 APERTURE END LIST*
D10*
D11*
X97757714Y-107295628D02*
X97614857Y-107343247D01*
X97614857Y-107343247D02*
X97376762Y-107343247D01*
X97376762Y-107343247D02*
X97281524Y-107295628D01*
X97281524Y-107295628D02*
X97233905Y-107248008D01*
X97233905Y-107248008D02*
X97186286Y-107152770D01*
X97186286Y-107152770D02*
X97186286Y-107057532D01*
X97186286Y-107057532D02*
X97233905Y-106962294D01*
X97233905Y-106962294D02*
X97281524Y-106914675D01*
X97281524Y-106914675D02*
X97376762Y-106867056D01*
X97376762Y-106867056D02*
X97567238Y-106819437D01*
X97567238Y-106819437D02*
X97662476Y-106771818D01*
X97662476Y-106771818D02*
X97710095Y-106724199D01*
X97710095Y-106724199D02*
X97757714Y-106628961D01*
X97757714Y-106628961D02*
X97757714Y-106533723D01*
X97757714Y-106533723D02*
X97710095Y-106438485D01*
X97710095Y-106438485D02*
X97662476Y-106390866D01*
X97662476Y-106390866D02*
X97567238Y-106343247D01*
X97567238Y-106343247D02*
X97329143Y-106343247D01*
X97329143Y-106343247D02*
X97186286Y-106390866D01*
X96329143Y-107295628D02*
X96424381Y-107343247D01*
X96424381Y-107343247D02*
X96614857Y-107343247D01*
X96614857Y-107343247D02*
X96710095Y-107295628D01*
X96710095Y-107295628D02*
X96757714Y-107248008D01*
X96757714Y-107248008D02*
X96805333Y-107152770D01*
X96805333Y-107152770D02*
X96805333Y-106867056D01*
X96805333Y-106867056D02*
X96757714Y-106771818D01*
X96757714Y-106771818D02*
X96710095Y-106724199D01*
X96710095Y-106724199D02*
X96614857Y-106676580D01*
X96614857Y-106676580D02*
X96424381Y-106676580D01*
X96424381Y-106676580D02*
X96329143Y-106724199D01*
X95757714Y-107343247D02*
X95852952Y-107295628D01*
X95852952Y-107295628D02*
X95900571Y-107248008D01*
X95900571Y-107248008D02*
X95948190Y-107152770D01*
X95948190Y-107152770D02*
X95948190Y-106867056D01*
X95948190Y-106867056D02*
X95900571Y-106771818D01*
X95900571Y-106771818D02*
X95852952Y-106724199D01*
X95852952Y-106724199D02*
X95757714Y-106676580D01*
X95757714Y-106676580D02*
X95614857Y-106676580D01*
X95614857Y-106676580D02*
X95519619Y-106724199D01*
X95519619Y-106724199D02*
X95472000Y-106771818D01*
X95472000Y-106771818D02*
X95424381Y-106867056D01*
X95424381Y-106867056D02*
X95424381Y-107152770D01*
X95424381Y-107152770D02*
X95472000Y-107248008D01*
X95472000Y-107248008D02*
X95519619Y-107295628D01*
X95519619Y-107295628D02*
X95614857Y-107343247D01*
X95614857Y-107343247D02*
X95757714Y-107343247D01*
X94995809Y-106676580D02*
X94995809Y-107676580D01*
X94995809Y-106724199D02*
X94900571Y-106676580D01*
X94900571Y-106676580D02*
X94710095Y-106676580D01*
X94710095Y-106676580D02*
X94614857Y-106724199D01*
X94614857Y-106724199D02*
X94567238Y-106771818D01*
X94567238Y-106771818D02*
X94519619Y-106867056D01*
X94519619Y-106867056D02*
X94519619Y-107152770D01*
X94519619Y-107152770D02*
X94567238Y-107248008D01*
X94567238Y-107248008D02*
X94614857Y-107295628D01*
X94614857Y-107295628D02*
X94710095Y-107343247D01*
X94710095Y-107343247D02*
X94900571Y-107343247D01*
X94900571Y-107343247D02*
X94995809Y-107295628D01*
X93710095Y-107295628D02*
X93805333Y-107343247D01*
X93805333Y-107343247D02*
X93995809Y-107343247D01*
X93995809Y-107343247D02*
X94091047Y-107295628D01*
X94091047Y-107295628D02*
X94138666Y-107200389D01*
X94138666Y-107200389D02*
X94138666Y-106819437D01*
X94138666Y-106819437D02*
X94091047Y-106724199D01*
X94091047Y-106724199D02*
X93995809Y-106676580D01*
X93995809Y-106676580D02*
X93805333Y-106676580D01*
X93805333Y-106676580D02*
X93710095Y-106724199D01*
X93710095Y-106724199D02*
X93662476Y-106819437D01*
X93662476Y-106819437D02*
X93662476Y-106914675D01*
X93662476Y-106914675D02*
X94138666Y-107009913D01*
X93376761Y-106343247D02*
X92805333Y-106343247D01*
X93091047Y-107343247D02*
X93091047Y-106343247D01*
X92091047Y-107295628D02*
X92186285Y-107343247D01*
X92186285Y-107343247D02*
X92376761Y-107343247D01*
X92376761Y-107343247D02*
X92471999Y-107295628D01*
X92471999Y-107295628D02*
X92519618Y-107200389D01*
X92519618Y-107200389D02*
X92519618Y-106819437D01*
X92519618Y-106819437D02*
X92471999Y-106724199D01*
X92471999Y-106724199D02*
X92376761Y-106676580D01*
X92376761Y-106676580D02*
X92186285Y-106676580D01*
X92186285Y-106676580D02*
X92091047Y-106724199D01*
X92091047Y-106724199D02*
X92043428Y-106819437D01*
X92043428Y-106819437D02*
X92043428Y-106914675D01*
X92043428Y-106914675D02*
X92519618Y-107009913D01*
X91662475Y-107295628D02*
X91567237Y-107343247D01*
X91567237Y-107343247D02*
X91376761Y-107343247D01*
X91376761Y-107343247D02*
X91281523Y-107295628D01*
X91281523Y-107295628D02*
X91233904Y-107200389D01*
X91233904Y-107200389D02*
X91233904Y-107152770D01*
X91233904Y-107152770D02*
X91281523Y-107057532D01*
X91281523Y-107057532D02*
X91376761Y-107009913D01*
X91376761Y-107009913D02*
X91519618Y-107009913D01*
X91519618Y-107009913D02*
X91614856Y-106962294D01*
X91614856Y-106962294D02*
X91662475Y-106867056D01*
X91662475Y-106867056D02*
X91662475Y-106819437D01*
X91662475Y-106819437D02*
X91614856Y-106724199D01*
X91614856Y-106724199D02*
X91519618Y-106676580D01*
X91519618Y-106676580D02*
X91376761Y-106676580D01*
X91376761Y-106676580D02*
X91281523Y-106724199D01*
X90948189Y-106676580D02*
X90567237Y-106676580D01*
X90805332Y-106343247D02*
X90805332Y-107200389D01*
X90805332Y-107200389D02*
X90757713Y-107295628D01*
X90757713Y-107295628D02*
X90662475Y-107343247D01*
X90662475Y-107343247D02*
X90567237Y-107343247D01*
X89852951Y-107295628D02*
X89948189Y-107343247D01*
X89948189Y-107343247D02*
X90138665Y-107343247D01*
X90138665Y-107343247D02*
X90233903Y-107295628D01*
X90233903Y-107295628D02*
X90281522Y-107200389D01*
X90281522Y-107200389D02*
X90281522Y-106819437D01*
X90281522Y-106819437D02*
X90233903Y-106724199D01*
X90233903Y-106724199D02*
X90138665Y-106676580D01*
X90138665Y-106676580D02*
X89948189Y-106676580D01*
X89948189Y-106676580D02*
X89852951Y-106724199D01*
X89852951Y-106724199D02*
X89805332Y-106819437D01*
X89805332Y-106819437D02*
X89805332Y-106914675D01*
X89805332Y-106914675D02*
X90281522Y-107009913D01*
X89376760Y-107343247D02*
X89376760Y-106676580D01*
X89376760Y-106867056D02*
X89329141Y-106771818D01*
X89329141Y-106771818D02*
X89281522Y-106724199D01*
X89281522Y-106724199D02*
X89186284Y-106676580D01*
X89186284Y-106676580D02*
X89091046Y-106676580D01*
X94995808Y-107953191D02*
X94662475Y-108953191D01*
X94662475Y-108953191D02*
X94329142Y-107953191D01*
X93471999Y-108953191D02*
X94043427Y-108953191D01*
X93757713Y-108953191D02*
X93757713Y-107953191D01*
X93757713Y-107953191D02*
X93852951Y-108096048D01*
X93852951Y-108096048D02*
X93948189Y-108191286D01*
X93948189Y-108191286D02*
X94043427Y-108238905D01*
X93043427Y-108857952D02*
X92995808Y-108905572D01*
X92995808Y-108905572D02*
X93043427Y-108953191D01*
X93043427Y-108953191D02*
X93091046Y-108905572D01*
X93091046Y-108905572D02*
X93043427Y-108857952D01*
X93043427Y-108857952D02*
X93043427Y-108953191D01*
X92376761Y-107953191D02*
X92281523Y-107953191D01*
X92281523Y-107953191D02*
X92186285Y-108000810D01*
X92186285Y-108000810D02*
X92138666Y-108048429D01*
X92138666Y-108048429D02*
X92091047Y-108143667D01*
X92091047Y-108143667D02*
X92043428Y-108334143D01*
X92043428Y-108334143D02*
X92043428Y-108572238D01*
X92043428Y-108572238D02*
X92091047Y-108762714D01*
X92091047Y-108762714D02*
X92138666Y-108857952D01*
X92138666Y-108857952D02*
X92186285Y-108905572D01*
X92186285Y-108905572D02*
X92281523Y-108953191D01*
X92281523Y-108953191D02*
X92376761Y-108953191D01*
X92376761Y-108953191D02*
X92471999Y-108905572D01*
X92471999Y-108905572D02*
X92519618Y-108857952D01*
X92519618Y-108857952D02*
X92567237Y-108762714D01*
X92567237Y-108762714D02*
X92614856Y-108572238D01*
X92614856Y-108572238D02*
X92614856Y-108334143D01*
X92614856Y-108334143D02*
X92567237Y-108143667D01*
X92567237Y-108143667D02*
X92519618Y-108048429D01*
X92519618Y-108048429D02*
X92471999Y-108000810D01*
X92471999Y-108000810D02*
X92376761Y-107953191D01*
D12*
%TO.P,J3,1,Pin_1*%
%TO.N,ISP_MOSI*%
X124206000Y-93980000D03*
D13*
%TO.P,J3,2,Pin_2*%
%TO.N,+5V*%
X126746000Y-93980000D03*
%TO.P,J3,3,Pin_3*%
%TO.N,unconnected-(J3-Pad3)*%
X124206000Y-96520000D03*
%TO.P,J3,4,Pin_4*%
%TO.N,unconnected-(J3-Pad4)*%
X126746000Y-96520000D03*
%TO.P,J3,5,Pin_5*%
%TO.N,U1_RESET*%
X124206000Y-99060000D03*
%TO.P,J3,6,Pin_6*%
%TO.N,unconnected-(J3-Pad6)*%
X126746000Y-99060000D03*
%TO.P,J3,7,Pin_7*%
%TO.N,ISP_SCK*%
X124206000Y-101600000D03*
%TO.P,J3,8,Pin_8*%
%TO.N,GND*%
X126746000Y-101600000D03*
%TO.P,J3,9,Pin_9*%
%TO.N,ISP_MISO*%
X124206000Y-104140000D03*
%TO.P,J3,10,Pin_10*%
%TO.N,GND*%
X126746000Y-104140000D03*
%TD*%
D14*
%TO.P,U1,1,PC6/~{RESET}*%
%TO.N,U1_RESET*%
X111262000Y-71384000D03*
D15*
%TO.P,U1,2,PD0*%
%TO.N,DIGI_OUT_0*%
X111262000Y-73924000D03*
%TO.P,U1,3,PD1*%
%TO.N,DIGI_OUT_1*%
X111262000Y-76464000D03*
%TO.P,U1,4,PD2*%
%TO.N,SW_MODE*%
X111262000Y-79004000D03*
%TO.P,U1,5,PD3*%
%TO.N,unconnected-(U1-Pad5)*%
X111262000Y-81544000D03*
%TO.P,U1,6,PD4*%
%TO.N,STAT_LED_0*%
X111262000Y-84084000D03*
%TO.P,U1,7,VCC*%
%TO.N,+5V*%
X111262000Y-86624000D03*
%TO.P,U1,8,GND*%
%TO.N,GND*%
X111262000Y-89164000D03*
%TO.P,U1,9,PB6/XTAL1*%
%TO.N,Net-(C4-Pad2)*%
X111262000Y-91704000D03*
%TO.P,U1,10,PB7/XTAL2*%
%TO.N,Net-(C3-Pad2)*%
X111262000Y-94244000D03*
%TO.P,U1,11,PD5*%
%TO.N,STAT_LED_1*%
X111262000Y-96784000D03*
%TO.P,U1,12,PD6*%
%TO.N,STAT_LED_2*%
X111262000Y-99324000D03*
%TO.P,U1,13,PD7*%
%TO.N,STAT_LED_3*%
X111262000Y-101864000D03*
%TO.P,U1,14,PB0*%
%TO.N,unconnected-(U1-Pad14)*%
X111262000Y-104404000D03*
%TO.P,U1,15,PB1*%
%TO.N,unconnected-(U1-Pad15)*%
X118882000Y-104404000D03*
%TO.P,U1,16,PB2*%
%TO.N,unconnected-(U1-Pad16)*%
X118882000Y-101864000D03*
%TO.P,U1,17,PB3*%
%TO.N,ISP_MOSI*%
X118882000Y-99324000D03*
%TO.P,U1,18,PB4*%
%TO.N,ISP_MISO*%
X118882000Y-96784000D03*
%TO.P,U1,19,PB5*%
%TO.N,ISP_SCK*%
X118882000Y-94244000D03*
%TO.P,U1,20,AVCC*%
%TO.N,+5V*%
X118882000Y-91704000D03*
%TO.P,U1,21,AREF*%
%TO.N,unconnected-(U1-Pad21)*%
X118882000Y-89164000D03*
%TO.P,U1,22,AGND*%
%TO.N,GND*%
X118882000Y-86624000D03*
%TO.P,U1,23,PC0*%
%TO.N,ANG_D0*%
X118882000Y-84084000D03*
%TO.P,U1,24,PC1*%
%TO.N,ANG_D1*%
X118882000Y-81544000D03*
%TO.P,U1,25,PC2*%
%TO.N,ANG_D2*%
X118882000Y-79004000D03*
%TO.P,U1,26,PC3*%
%TO.N,ANG_D3*%
X118882000Y-76464000D03*
%TO.P,U1,27,PC4*%
%TO.N,ANG_D4*%
X118882000Y-73924000D03*
%TO.P,U1,28,PC5*%
%TO.N,ANG_D5*%
X118882000Y-71384000D03*
%TD*%
%TO.P,C6,1*%
%TO.N,+5V*%
X106172000Y-83820000D03*
%TO.P,C6,2*%
%TO.N,GND*%
X106172000Y-86320000D03*
%TD*%
%TO.P,JP1,1,A*%
%TO.N,GND*%
X130810000Y-97536000D03*
%TO.P,JP1,2,B*%
X130810000Y-89916000D03*
%TD*%
%TO.P,R8,1*%
%TO.N,ANG_D2*%
X123698000Y-77216000D03*
%TO.P,R8,2*%
%TO.N,Net-(R14-Pad1)*%
X131318000Y-77216000D03*
%TD*%
%TO.P,R5,1*%
%TO.N,Net-(D3-Pad2)*%
X136398000Y-96520000D03*
%TO.P,R5,2*%
%TO.N,STAT_LED_0*%
X136398000Y-104140000D03*
%TD*%
D16*
%TO.P,D1,1,K*%
%TO.N,GND*%
X147066000Y-90424000D03*
D17*
%TO.P,D1,2,A*%
%TO.N,Net-(D1-Pad2)*%
X147066000Y-92964000D03*
%TD*%
D18*
%TO.P,Y1,1,1*%
%TO.N,Net-(C4-Pad2)*%
X101092000Y-92292000D03*
%TO.P,Y1,2,2*%
%TO.N,Net-(C3-Pad2)*%
X101092000Y-97172000D03*
%TD*%
D15*
%TO.P,R9,1*%
%TO.N,ANG_D1*%
X123698000Y-81534000D03*
%TO.P,R9,2*%
%TO.N,Net-(R15-Pad1)*%
X131318000Y-81534000D03*
%TD*%
%TO.P,R23,1*%
%TO.N,Net-(R22-Pad2)*%
X156972000Y-85598000D03*
%TO.P,R23,2*%
%TO.N,GND*%
X156972000Y-77978000D03*
%TD*%
%TO.P,R12,1*%
%TO.N,Net-(R12-Pad1)*%
X134620000Y-68072000D03*
%TO.P,R12,2*%
%TO.N,Net-(R12-Pad2)*%
X142240000Y-68072000D03*
%TD*%
%TO.P,R21,1*%
%TO.N,Net-(R16-Pad2)*%
X153162000Y-81534000D03*
%TO.P,R21,2*%
%TO.N,Net-(R15-Pad2)*%
X145542000Y-81534000D03*
%TD*%
%TO.P,R18,1*%
%TO.N,Net-(R13-Pad2)*%
X153162000Y-68072000D03*
%TO.P,R18,2*%
%TO.N,Net-(R12-Pad2)*%
X145542000Y-68072000D03*
%TD*%
%TO.P,R3,1*%
%TO.N,Net-(D1-Pad2)*%
X147066000Y-96520000D03*
%TO.P,R3,2*%
%TO.N,STAT_LED_2*%
X147066000Y-104140000D03*
%TD*%
%TO.P,R6,1*%
%TO.N,ANG_D4*%
X123698000Y-68072000D03*
%TO.P,R6,2*%
%TO.N,Net-(R12-Pad1)*%
X131318000Y-68072000D03*
%TD*%
D16*
%TO.P,D3,1,K*%
%TO.N,GND*%
X136652000Y-90424000D03*
D17*
%TO.P,D3,2,A*%
%TO.N,Net-(D3-Pad2)*%
X136652000Y-92964000D03*
%TD*%
D15*
%TO.P,R19,1*%
%TO.N,Net-(R14-Pad2)*%
X153162000Y-72898000D03*
%TO.P,R19,2*%
%TO.N,Net-(R13-Pad2)*%
X145542000Y-72898000D03*
%TD*%
%TO.P,R16,1*%
%TO.N,Net-(R10-Pad2)*%
X134620000Y-85598000D03*
%TO.P,R16,2*%
%TO.N,Net-(R16-Pad2)*%
X142240000Y-85598000D03*
%TD*%
%TO.P,R20,1*%
%TO.N,Net-(R15-Pad2)*%
X153162000Y-77216000D03*
%TO.P,R20,2*%
%TO.N,Net-(R14-Pad2)*%
X145542000Y-77216000D03*
%TD*%
%TO.P,R7,1*%
%TO.N,ANG_D3*%
X123698000Y-72898000D03*
%TO.P,R7,2*%
%TO.N,Net-(R13-Pad1)*%
X131318000Y-72898000D03*
%TD*%
%TO.P,R11,1*%
%TO.N,Net-(R11-Pad1)*%
X134620000Y-64008000D03*
%TO.P,R11,2*%
%TO.N,ANG_OUT_0*%
X142240000Y-64008000D03*
%TD*%
D19*
%TO.P,SW1,1,1*%
%TO.N,GND*%
X95302000Y-74458000D03*
X101802000Y-74458000D03*
%TO.P,SW1,2,2*%
%TO.N,SW_MODE*%
X95302000Y-78958000D03*
X101802000Y-78958000D03*
%TD*%
D15*
%TO.P,R14,1*%
%TO.N,Net-(R14-Pad1)*%
X134620000Y-77216000D03*
%TO.P,R14,2*%
%TO.N,Net-(R14-Pad2)*%
X142240000Y-77216000D03*
%TD*%
%TO.P,C7,1*%
%TO.N,+5V*%
X125984000Y-89916000D03*
%TO.P,C7,2*%
%TO.N,GND*%
X123484000Y-89916000D03*
%TD*%
%TO.P,C1,1*%
%TO.N,U1_RESET*%
X102108000Y-69850000D03*
%TO.P,C1,2*%
%TO.N,GND*%
X102108000Y-67350000D03*
%TD*%
%TO.P,R13,1*%
%TO.N,Net-(R13-Pad1)*%
X134620000Y-72898000D03*
%TO.P,R13,2*%
%TO.N,Net-(R13-Pad2)*%
X142240000Y-72898000D03*
%TD*%
%TO.P,C2,1*%
%TO.N,GND*%
X105918000Y-76494000D03*
%TO.P,C2,2*%
%TO.N,SW_MODE*%
X105918000Y-78994000D03*
%TD*%
%TO.P,R15,1*%
%TO.N,Net-(R15-Pad1)*%
X134620000Y-81534000D03*
%TO.P,R15,2*%
%TO.N,Net-(R15-Pad2)*%
X142240000Y-81534000D03*
%TD*%
%TO.P,R24,1*%
%TO.N,Net-(D4-Pad2)*%
X152400000Y-96520000D03*
%TO.P,R24,2*%
%TO.N,STAT_LED_3*%
X152400000Y-104140000D03*
%TD*%
%TO.P,R4,1*%
%TO.N,Net-(D2-Pad2)*%
X141732000Y-96520000D03*
%TO.P,R4,2*%
%TO.N,STAT_LED_1*%
X141732000Y-104140000D03*
%TD*%
D12*
%TO.P,J2,1,Pin_1*%
%TO.N,GND*%
X111506000Y-62230000D03*
D13*
%TO.P,J2,2,Pin_2*%
%TO.N,DIGI_OUT_0*%
X114046000Y-62230000D03*
%TO.P,J2,3,Pin_3*%
%TO.N,DIGI_OUT_1*%
X116586000Y-62230000D03*
%TO.P,J2,4,Pin_4*%
%TO.N,ANG_OUT_0*%
X119126000Y-62230000D03*
%TD*%
D15*
%TO.P,R22,1*%
%TO.N,Net-(R16-Pad2)*%
X145542000Y-85598000D03*
%TO.P,R22,2*%
%TO.N,Net-(R22-Pad2)*%
X153162000Y-85598000D03*
%TD*%
%TO.P,R2,1*%
%TO.N,ANG_D5*%
X123698000Y-64008000D03*
%TO.P,R2,2*%
%TO.N,Net-(R11-Pad1)*%
X131318000Y-64008000D03*
%TD*%
%TO.P,R10,1*%
%TO.N,ANG_D0*%
X123698000Y-85598000D03*
%TO.P,R10,2*%
%TO.N,Net-(R10-Pad2)*%
X131318000Y-85598000D03*
%TD*%
D20*
%TO.P,C5,1*%
%TO.N,+5V*%
X98298000Y-62230000D03*
D15*
%TO.P,C5,2*%
%TO.N,GND*%
X98298000Y-64730000D03*
%TD*%
%TO.P,R1,1*%
%TO.N,+5V*%
X88900000Y-69850000D03*
%TO.P,R1,2*%
%TO.N,U1_RESET*%
X96520000Y-69850000D03*
%TD*%
%TO.P,C4,1*%
%TO.N,GND*%
X90972000Y-92202000D03*
%TO.P,C4,2*%
%TO.N,Net-(C4-Pad2)*%
X93472000Y-92202000D03*
%TD*%
D16*
%TO.P,D4,1,K*%
%TO.N,GND*%
X152400000Y-90424000D03*
D17*
%TO.P,D4,2,A*%
%TO.N,Net-(D4-Pad2)*%
X152400000Y-92964000D03*
%TD*%
D15*
%TO.P,C3,1*%
%TO.N,GND*%
X90678000Y-97282000D03*
%TO.P,C3,2*%
%TO.N,Net-(C3-Pad2)*%
X93178000Y-97282000D03*
%TD*%
D12*
%TO.P,J1,1,Pin_1*%
%TO.N,+5V*%
X92202000Y-62230000D03*
D13*
%TO.P,J1,2,Pin_2*%
%TO.N,GND*%
X89662000Y-62230000D03*
%TD*%
D15*
%TO.P,R17,1*%
%TO.N,Net-(R12-Pad2)*%
X153162000Y-64008000D03*
%TO.P,R17,2*%
%TO.N,ANG_OUT_0*%
X145542000Y-64008000D03*
%TD*%
D16*
%TO.P,D2,1,K*%
%TO.N,GND*%
X141732000Y-90424000D03*
D17*
%TO.P,D2,2,A*%
%TO.N,Net-(D2-Pad2)*%
X141732000Y-92964000D03*
%TD*%
D21*
%TO.N,U1_RESET*%
X120396000Y-94488000D02*
X124206000Y-98298000D01*
X119245000Y-90289000D02*
X120396000Y-91440000D01*
X124206000Y-98298000D02*
X124206000Y-99060000D01*
X120396000Y-91440000D02*
X120396000Y-94488000D01*
X109474000Y-77724000D02*
X113030000Y-77724000D01*
X102108000Y-69850000D02*
X107442000Y-69850000D01*
X109220000Y-73426000D02*
X109220000Y-77470000D01*
X111262000Y-71384000D02*
X109220000Y-73426000D01*
X116586000Y-89662000D02*
X117213000Y-90289000D01*
X96520000Y-69850000D02*
X102108000Y-69850000D01*
X117213000Y-90289000D02*
X119245000Y-90289000D01*
X109220000Y-77470000D02*
X109474000Y-77724000D01*
X107442000Y-69850000D02*
X108976000Y-71384000D01*
X116586000Y-81280000D02*
X116586000Y-89662000D01*
X113030000Y-77724000D02*
X116586000Y-81280000D01*
X108976000Y-71384000D02*
X111262000Y-71384000D01*
%TO.N,SW_MODE*%
X101802000Y-78958000D02*
X105882000Y-78958000D01*
D22*
X95302000Y-78958000D02*
X101802000Y-78958000D01*
D21*
X105918000Y-78994000D02*
X111252000Y-78994000D01*
%TO.N,Net-(C3-Pad2)*%
X109210000Y-94244000D02*
X111262000Y-94244000D01*
X101092000Y-97172000D02*
X106282000Y-97172000D01*
X106282000Y-97172000D02*
X109210000Y-94244000D01*
X93178000Y-97282000D02*
X100982000Y-97282000D01*
%TO.N,Net-(C4-Pad2)*%
X93472000Y-92202000D02*
X101002000Y-92202000D01*
X105320000Y-92292000D02*
X105918000Y-91694000D01*
X101092000Y-92292000D02*
X105320000Y-92292000D01*
X105918000Y-91694000D02*
X111252000Y-91694000D01*
%TO.N,Net-(D1-Pad2)*%
X147066000Y-96520000D02*
X147066000Y-92964000D01*
%TO.N,Net-(D2-Pad2)*%
X141732000Y-96520000D02*
X141732000Y-92964000D01*
%TO.N,Net-(D3-Pad2)*%
X136652000Y-96266000D02*
X136652000Y-92964000D01*
%TO.N,ANG_OUT_0*%
X119126000Y-62230000D02*
X120142000Y-61214000D01*
X120142000Y-61214000D02*
X139446000Y-61214000D01*
X142494000Y-64262000D02*
X145288000Y-64262000D01*
X139446000Y-61214000D02*
X142240000Y-64008000D01*
%TO.N,DIGI_OUT_1*%
X111262000Y-76464000D02*
X113020000Y-76464000D01*
X113020000Y-76464000D02*
X116586000Y-72898000D01*
X116586000Y-72898000D02*
X116586000Y-62230000D01*
%TO.N,DIGI_OUT_0*%
X111262000Y-73924000D02*
X113274000Y-73924000D01*
X113274000Y-73924000D02*
X114046000Y-73152000D01*
X114046000Y-73152000D02*
X114046000Y-62230000D01*
%TO.N,ISP_MOSI*%
X117348000Y-106426000D02*
X117094000Y-106172000D01*
X125381000Y-95155000D02*
X125381000Y-105505000D01*
X117094000Y-106172000D02*
X117094000Y-99568000D01*
X125381000Y-105505000D02*
X124460000Y-106426000D01*
X117338000Y-99324000D02*
X118882000Y-99324000D01*
X124460000Y-106426000D02*
X117348000Y-106426000D01*
X124206000Y-93980000D02*
X125381000Y-95155000D01*
X117094000Y-99568000D02*
X117338000Y-99324000D01*
%TO.N,ISP_SCK*%
X121412000Y-96774000D02*
X121412000Y-100076000D01*
X118882000Y-94244000D02*
X121412000Y-96774000D01*
X122936000Y-101600000D02*
X124206000Y-101600000D01*
X121412000Y-100076000D02*
X122936000Y-101600000D01*
%TO.N,ISP_MISO*%
X120650000Y-98552000D02*
X120650000Y-103124000D01*
X120650000Y-103124000D02*
X121666000Y-104140000D01*
X121666000Y-104140000D02*
X124206000Y-104140000D01*
X118882000Y-96784000D02*
X120650000Y-98552000D01*
%TO.N,ANG_D5*%
X118872000Y-71374000D02*
X118872000Y-67310000D01*
X118872000Y-67310000D02*
X122174000Y-64008000D01*
X122174000Y-64008000D02*
X123698000Y-64008000D01*
%TO.N,STAT_LED_2*%
X113030000Y-106934000D02*
X116332000Y-110236000D01*
X140970000Y-110236000D02*
X147066000Y-104140000D01*
X111574000Y-99324000D02*
X113030000Y-100780000D01*
X116332000Y-110236000D02*
X140970000Y-110236000D01*
X113030000Y-100780000D02*
X113030000Y-106934000D01*
%TO.N,STAT_LED_1*%
X116586000Y-109220000D02*
X136652000Y-109220000D01*
X113792000Y-106426000D02*
X116586000Y-109220000D01*
X136652000Y-109220000D02*
X141732000Y-104140000D01*
X111262000Y-96784000D02*
X113792000Y-99314000D01*
X113792000Y-99314000D02*
X113792000Y-106426000D01*
%TO.N,STAT_LED_0*%
X114046000Y-87884000D02*
X114554000Y-88392000D01*
X109982000Y-87884000D02*
X114046000Y-87884000D01*
X114554000Y-88392000D02*
X114554000Y-105918000D01*
X109738000Y-84084000D02*
X109728000Y-84074000D01*
X109728000Y-84074000D02*
X109474000Y-84328000D01*
X111262000Y-84084000D02*
X109738000Y-84084000D01*
X132334000Y-108204000D02*
X136398000Y-104140000D01*
X109474000Y-87376000D02*
X109982000Y-87884000D01*
X116840000Y-108204000D02*
X132334000Y-108204000D01*
X109474000Y-84328000D02*
X109474000Y-87376000D01*
X114554000Y-105918000D02*
X116840000Y-108204000D01*
%TO.N,ANG_D4*%
X120904000Y-69088000D02*
X121920000Y-68072000D01*
X120904000Y-72898000D02*
X120904000Y-69088000D01*
X118882000Y-73924000D02*
X119878000Y-73924000D01*
X121920000Y-68072000D02*
X123698000Y-68072000D01*
X119878000Y-73924000D02*
X120904000Y-72898000D01*
%TO.N,ANG_D3*%
X119878000Y-76464000D02*
X123444000Y-72898000D01*
X118882000Y-76464000D02*
X119878000Y-76464000D01*
%TO.N,Net-(R13-Pad1)*%
X131318000Y-72898000D02*
X131826000Y-73406000D01*
X131826000Y-73406000D02*
X134112000Y-73406000D01*
X134112000Y-73406000D02*
X134620000Y-72898000D01*
%TO.N,ANG_D2*%
X122428000Y-78232000D02*
X123444000Y-77216000D01*
X118882000Y-79004000D02*
X119654000Y-78232000D01*
X119654000Y-78232000D02*
X122428000Y-78232000D01*
%TO.N,Net-(R14-Pad1)*%
X131318000Y-77216000D02*
X134620000Y-77216000D01*
%TO.N,ANG_D1*%
X118892000Y-81534000D02*
X123698000Y-81534000D01*
%TO.N,Net-(R15-Pad1)*%
X131318000Y-81534000D02*
X134620000Y-81534000D01*
%TO.N,ANG_D0*%
X122184000Y-84084000D02*
X123698000Y-85598000D01*
X118882000Y-84084000D02*
X122184000Y-84084000D01*
%TO.N,Net-(R12-Pad2)*%
X143002000Y-68834000D02*
X144780000Y-68834000D01*
X151638000Y-64008000D02*
X147574000Y-68072000D01*
X153162000Y-64008000D02*
X151638000Y-64008000D01*
X144780000Y-68834000D02*
X145542000Y-68072000D01*
X142240000Y-68072000D02*
X143002000Y-68834000D01*
X147574000Y-68072000D02*
X145542000Y-68072000D01*
%TO.N,Net-(R14-Pad2)*%
X147320000Y-77216000D02*
X145542000Y-77216000D01*
X153162000Y-72898000D02*
X151638000Y-72898000D01*
X143002000Y-77978000D02*
X144780000Y-77978000D01*
X142240000Y-77216000D02*
X143002000Y-77978000D01*
X151638000Y-72898000D02*
X147320000Y-77216000D01*
X144780000Y-77978000D02*
X145542000Y-77216000D01*
%TO.N,Net-(R15-Pad2)*%
X153162000Y-77216000D02*
X151384000Y-77216000D01*
X142240000Y-81534000D02*
X145542000Y-81534000D01*
X151384000Y-77216000D02*
X147066000Y-81534000D01*
X147066000Y-81534000D02*
X145542000Y-81534000D01*
%TO.N,Net-(R16-Pad2)*%
X150876000Y-81534000D02*
X146812000Y-85598000D01*
X153162000Y-81534000D02*
X150876000Y-81534000D01*
X142240000Y-85598000D02*
X145542000Y-85598000D01*
X146812000Y-85598000D02*
X145542000Y-85598000D01*
D23*
%TO.N,+5V*%
X92202000Y-62230000D02*
X92202000Y-65278000D01*
X115316000Y-93238000D02*
X116332000Y-94254000D01*
X88900000Y-82550000D02*
X90170000Y-83820000D01*
X106172000Y-83820000D02*
X108458000Y-83820000D01*
X109474000Y-82804000D02*
X113538000Y-82804000D01*
X115316000Y-84582000D02*
X115316000Y-84836000D01*
X116332000Y-94254000D02*
X116332000Y-106680000D01*
X92202000Y-62230000D02*
X98298000Y-62230000D01*
X125984000Y-89916000D02*
X126746000Y-90678000D01*
X133604000Y-103886000D02*
X133604000Y-94488000D01*
X88900000Y-68580000D02*
X88900000Y-69850000D01*
X92202000Y-65278000D02*
X88900000Y-68580000D01*
X88900000Y-69850000D02*
X88900000Y-82550000D01*
X133604000Y-94488000D02*
X133096000Y-93980000D01*
X115316000Y-84836000D02*
X115316000Y-93238000D01*
X130302000Y-107188000D02*
X133604000Y-103886000D01*
X126746000Y-90678000D02*
X126746000Y-93980000D01*
X113538000Y-82804000D02*
X115316000Y-84582000D01*
X116332000Y-94254000D02*
X118882000Y-91704000D01*
X113528000Y-86624000D02*
X111262000Y-86624000D01*
X133096000Y-93980000D02*
X126746000Y-93980000D01*
X116840000Y-107188000D02*
X130302000Y-107188000D01*
X90170000Y-83820000D02*
X106172000Y-83820000D01*
X108458000Y-83820000D02*
X109474000Y-82804000D01*
X116332000Y-106680000D02*
X116840000Y-107188000D01*
X115316000Y-84836000D02*
X113528000Y-86624000D01*
D21*
%TO.N,Net-(D4-Pad2)*%
X152400000Y-96520000D02*
X152400000Y-92964000D01*
%TO.N,STAT_LED_3*%
X111262000Y-101864000D02*
X109474000Y-103652000D01*
X109474000Y-103652000D02*
X109474000Y-106934000D01*
X109474000Y-106934000D02*
X113792000Y-111252000D01*
X113792000Y-111252000D02*
X145288000Y-111252000D01*
X145288000Y-111252000D02*
X152400000Y-104140000D01*
%TO.N,Net-(R11-Pad1)*%
X131572000Y-64262000D02*
X134366000Y-64262000D01*
%TO.N,Net-(R12-Pad1)*%
X131318000Y-68072000D02*
X132080000Y-68834000D01*
X132080000Y-68834000D02*
X133858000Y-68834000D01*
X133858000Y-68834000D02*
X134620000Y-68072000D01*
%TO.N,Net-(R10-Pad2)*%
X131318000Y-85598000D02*
X134620000Y-85598000D01*
%TO.N,Net-(R13-Pad2)*%
X151638000Y-68072000D02*
X146812000Y-72898000D01*
X142748000Y-73406000D02*
X145034000Y-73406000D01*
X146812000Y-72898000D02*
X145542000Y-72898000D01*
X153162000Y-68072000D02*
X151638000Y-68072000D01*
X142240000Y-72898000D02*
X142748000Y-73406000D01*
X145034000Y-73406000D02*
X145542000Y-72898000D01*
%TO.N,Net-(R22-Pad2)*%
X153162000Y-85598000D02*
X156972000Y-85598000D01*
%TD*%
%TA.AperFunction,Conductor*%
%TO.N,GND*%
G36*
X132818459Y-94708502D02*
G01*
X132839431Y-94725402D01*
X132858593Y-94744563D01*
X132892620Y-94806875D01*
X132895500Y-94833661D01*
X132895500Y-103540339D01*
X132875498Y-103608460D01*
X132858595Y-103629434D01*
X130045434Y-106442595D01*
X129983122Y-106476621D01*
X129956339Y-106479500D01*
X125606595Y-106479500D01*
X125538474Y-106459498D01*
X125491981Y-106405842D01*
X125481877Y-106335568D01*
X125511371Y-106270988D01*
X125517500Y-106264404D01*
X125873072Y-105908833D01*
X125942401Y-105805075D01*
X125990155Y-105689784D01*
X125992046Y-105680280D01*
X126014500Y-105567394D01*
X126014500Y-105497014D01*
X126034502Y-105428893D01*
X126088158Y-105382400D01*
X126158432Y-105372296D01*
X126197703Y-105384748D01*
X126224697Y-105398502D01*
X126224713Y-105398509D01*
X126427996Y-105464559D01*
X126639126Y-105498000D01*
X126852874Y-105498000D01*
X127064003Y-105464559D01*
X127267286Y-105398509D01*
X127267292Y-105398506D01*
X127457750Y-105301463D01*
X127510167Y-105263378D01*
X127510167Y-105263377D01*
X126870947Y-104624158D01*
X126938993Y-104605925D01*
X127053007Y-104540099D01*
X127146099Y-104447007D01*
X127211925Y-104332993D01*
X127230157Y-104264948D01*
X127869376Y-104904167D01*
X127869378Y-104904167D01*
X127907463Y-104851750D01*
X128004506Y-104661292D01*
X128004509Y-104661286D01*
X128070559Y-104458003D01*
X128104000Y-104246873D01*
X128104000Y-104033126D01*
X128070559Y-103821996D01*
X128004509Y-103618713D01*
X128004506Y-103618707D01*
X127907464Y-103428251D01*
X127907463Y-103428249D01*
X127869378Y-103375831D01*
X127230157Y-104015051D01*
X127211925Y-103947007D01*
X127146099Y-103832993D01*
X127053007Y-103739901D01*
X126938993Y-103674075D01*
X126870947Y-103655841D01*
X127510168Y-103016621D01*
X127510167Y-103016620D01*
X127457749Y-102978535D01*
X127455950Y-102977433D01*
X127455409Y-102976835D01*
X127453742Y-102975624D01*
X127453996Y-102975273D01*
X127408318Y-102924786D01*
X127396711Y-102854745D01*
X127424814Y-102789547D01*
X127453788Y-102764442D01*
X127453741Y-102764377D01*
X127454498Y-102763826D01*
X127455958Y-102762562D01*
X127457750Y-102761463D01*
X127510167Y-102723378D01*
X127510167Y-102723377D01*
X126870947Y-102084158D01*
X126938993Y-102065925D01*
X127053007Y-102000099D01*
X127146099Y-101907007D01*
X127211925Y-101792993D01*
X127230157Y-101724948D01*
X127869376Y-102364167D01*
X127869378Y-102364167D01*
X127907463Y-102311750D01*
X128004506Y-102121292D01*
X128004509Y-102121286D01*
X128070559Y-101918003D01*
X128104000Y-101706873D01*
X128104000Y-101493126D01*
X128070559Y-101281996D01*
X128004509Y-101078713D01*
X128004506Y-101078707D01*
X127907464Y-100888251D01*
X127907463Y-100888249D01*
X127869378Y-100835831D01*
X127230157Y-101475051D01*
X127211925Y-101407007D01*
X127146099Y-101292993D01*
X127053007Y-101199901D01*
X126938993Y-101134075D01*
X126870947Y-101115841D01*
X127510168Y-100476621D01*
X127510167Y-100476620D01*
X127457750Y-100438536D01*
X127456428Y-100437726D01*
X127456030Y-100437286D01*
X127453742Y-100435624D01*
X127454091Y-100435143D01*
X127408797Y-100385078D01*
X127397191Y-100315036D01*
X127425295Y-100249839D01*
X127454075Y-100224903D01*
X127454004Y-100224804D01*
X127455158Y-100223965D01*
X127456441Y-100222854D01*
X127457992Y-100221902D01*
X127458009Y-100221894D01*
X127631004Y-100096206D01*
X127782206Y-99945004D01*
X127907894Y-99772009D01*
X128004972Y-99581483D01*
X128071049Y-99378116D01*
X128104500Y-99166916D01*
X128104500Y-98953084D01*
X128071049Y-98741884D01*
X128004972Y-98538517D01*
X127907894Y-98347991D01*
X127782206Y-98174996D01*
X127782203Y-98174993D01*
X127782201Y-98174990D01*
X127631009Y-98023798D01*
X127631006Y-98023796D01*
X127631004Y-98023794D01*
X127464923Y-97903129D01*
X127458012Y-97898108D01*
X127456920Y-97897439D01*
X127456591Y-97897075D01*
X127454004Y-97895196D01*
X127454398Y-97894652D01*
X127409283Y-97844796D01*
X127397670Y-97774756D01*
X127425766Y-97709555D01*
X127454130Y-97684978D01*
X127454004Y-97684804D01*
X127456030Y-97683331D01*
X127456920Y-97682561D01*
X127457997Y-97681899D01*
X127458009Y-97681894D01*
X127631004Y-97556206D01*
X127754149Y-97433061D01*
X129502000Y-97433061D01*
X129502000Y-97638938D01*
X129534208Y-97842296D01*
X129597826Y-98038093D01*
X129597829Y-98038099D01*
X129691297Y-98221540D01*
X129691298Y-98221541D01*
X129722416Y-98264372D01*
X130410000Y-97576788D01*
X130410000Y-97588661D01*
X130437259Y-97690394D01*
X130489920Y-97781606D01*
X130564394Y-97856080D01*
X130655606Y-97908741D01*
X130757339Y-97936000D01*
X130769210Y-97936000D01*
X130081626Y-98623582D01*
X130081626Y-98623583D01*
X130124454Y-98654699D01*
X130307900Y-98748170D01*
X130307906Y-98748173D01*
X130503705Y-98811791D01*
X130503701Y-98811791D01*
X130707061Y-98844000D01*
X130912939Y-98844000D01*
X131116296Y-98811791D01*
X131312093Y-98748173D01*
X131312099Y-98748170D01*
X131495541Y-98654701D01*
X131538372Y-98623582D01*
X131538372Y-98623581D01*
X130850791Y-97936000D01*
X130862661Y-97936000D01*
X130964394Y-97908741D01*
X131055606Y-97856080D01*
X131130080Y-97781606D01*
X131182741Y-97690394D01*
X131210000Y-97588661D01*
X131210000Y-97576791D01*
X131897581Y-98264372D01*
X131897582Y-98264372D01*
X131928701Y-98221541D01*
X132022170Y-98038099D01*
X132022173Y-98038093D01*
X132085791Y-97842296D01*
X132118000Y-97638938D01*
X132118000Y-97433061D01*
X132085791Y-97229703D01*
X132022173Y-97033906D01*
X132022170Y-97033900D01*
X131928699Y-96850454D01*
X131897583Y-96807626D01*
X131897582Y-96807626D01*
X131210000Y-97495208D01*
X131210000Y-97483339D01*
X131182741Y-97381606D01*
X131130080Y-97290394D01*
X131055606Y-97215920D01*
X130964394Y-97163259D01*
X130862661Y-97136000D01*
X130850790Y-97136000D01*
X131538372Y-96448416D01*
X131495541Y-96417298D01*
X131495540Y-96417297D01*
X131312099Y-96323829D01*
X131312093Y-96323826D01*
X131116294Y-96260208D01*
X131116298Y-96260208D01*
X130912939Y-96228000D01*
X130707061Y-96228000D01*
X130503703Y-96260208D01*
X130307906Y-96323826D01*
X130307900Y-96323829D01*
X130124452Y-96417301D01*
X130081625Y-96448416D01*
X130769209Y-97136000D01*
X130757339Y-97136000D01*
X130655606Y-97163259D01*
X130564394Y-97215920D01*
X130489920Y-97290394D01*
X130437259Y-97381606D01*
X130410000Y-97483339D01*
X130410000Y-97495209D01*
X129722416Y-96807625D01*
X129691301Y-96850452D01*
X129597829Y-97033900D01*
X129597826Y-97033906D01*
X129534208Y-97229703D01*
X129502000Y-97433061D01*
X127754149Y-97433061D01*
X127782206Y-97405004D01*
X127907894Y-97232009D01*
X128004972Y-97041483D01*
X128071049Y-96838116D01*
X128104500Y-96626916D01*
X128104500Y-96413084D01*
X128071049Y-96201884D01*
X128004972Y-95998517D01*
X127907894Y-95807991D01*
X127782206Y-95634996D01*
X127782203Y-95634993D01*
X127782201Y-95634990D01*
X127631009Y-95483798D01*
X127631006Y-95483796D01*
X127631004Y-95483794D01*
X127500781Y-95389182D01*
X127458012Y-95358108D01*
X127456920Y-95357439D01*
X127456591Y-95357075D01*
X127454004Y-95355196D01*
X127454398Y-95354652D01*
X127409283Y-95304796D01*
X127397670Y-95234756D01*
X127425766Y-95169555D01*
X127454130Y-95144978D01*
X127454004Y-95144804D01*
X127456030Y-95143331D01*
X127456920Y-95142561D01*
X127457997Y-95141899D01*
X127458009Y-95141894D01*
X127631004Y-95016206D01*
X127782206Y-94865004D01*
X127868457Y-94746290D01*
X127872708Y-94740439D01*
X127928930Y-94697085D01*
X127974644Y-94688500D01*
X132750338Y-94688500D01*
X132818459Y-94708502D01*
G37*
%TD.AperFunction*%
%TA.AperFunction,Conductor*%
G36*
X113761321Y-88526283D02*
G01*
X113791791Y-88532912D01*
X113796886Y-88536726D01*
X113799527Y-88537502D01*
X113820501Y-88554405D01*
X113883595Y-88617499D01*
X113917621Y-88679811D01*
X113920500Y-88706594D01*
X113920500Y-98242406D01*
X113900498Y-98310527D01*
X113846842Y-98357020D01*
X113776568Y-98367124D01*
X113711988Y-98337630D01*
X113705405Y-98331501D01*
X112573563Y-97199659D01*
X112539537Y-97137347D01*
X112538209Y-97090853D01*
X112538278Y-97090411D01*
X112538280Y-97090408D01*
X112570500Y-96886981D01*
X112570500Y-96681019D01*
X112538280Y-96477592D01*
X112474634Y-96281710D01*
X112381129Y-96098197D01*
X112260068Y-95931570D01*
X112260065Y-95931567D01*
X112260063Y-95931564D01*
X112114435Y-95785936D01*
X112114432Y-95785934D01*
X112114430Y-95785932D01*
X111947803Y-95664871D01*
X111872034Y-95626265D01*
X111820422Y-95577519D01*
X111803356Y-95508604D01*
X111826257Y-95441402D01*
X111872034Y-95401735D01*
X111947803Y-95363129D01*
X112114430Y-95242068D01*
X112260068Y-95096430D01*
X112381129Y-94929803D01*
X112474634Y-94746290D01*
X112538280Y-94550408D01*
X112570500Y-94346981D01*
X112570500Y-94141019D01*
X112538280Y-93937592D01*
X112474634Y-93741710D01*
X112381129Y-93558197D01*
X112260068Y-93391570D01*
X112260065Y-93391567D01*
X112260063Y-93391564D01*
X112114435Y-93245936D01*
X112114432Y-93245934D01*
X112114430Y-93245932D01*
X111947803Y-93124871D01*
X111872034Y-93086265D01*
X111820422Y-93037519D01*
X111803356Y-92968604D01*
X111826257Y-92901402D01*
X111872034Y-92861735D01*
X111947803Y-92823129D01*
X112114430Y-92702068D01*
X112260068Y-92556430D01*
X112381129Y-92389803D01*
X112474634Y-92206290D01*
X112538280Y-92010408D01*
X112570500Y-91806981D01*
X112570500Y-91601019D01*
X112538280Y-91397592D01*
X112474634Y-91201710D01*
X112381129Y-91018197D01*
X112260068Y-90851570D01*
X112260065Y-90851567D01*
X112260063Y-90851564D01*
X112114435Y-90705936D01*
X112114432Y-90705934D01*
X112114430Y-90705932D01*
X111971108Y-90601803D01*
X111947806Y-90584873D01*
X111947805Y-90584872D01*
X111947803Y-90584871D01*
X111871486Y-90545985D01*
X111819873Y-90497239D01*
X111802807Y-90428324D01*
X111825708Y-90361122D01*
X111871488Y-90321453D01*
X111947541Y-90282701D01*
X111990372Y-90251582D01*
X111990372Y-90251581D01*
X111302791Y-89564000D01*
X111314661Y-89564000D01*
X111416394Y-89536741D01*
X111507606Y-89484080D01*
X111582080Y-89409606D01*
X111634741Y-89318394D01*
X111662000Y-89216661D01*
X111662000Y-89204789D01*
X112349582Y-89892372D01*
X112380701Y-89849541D01*
X112474170Y-89666099D01*
X112474173Y-89666093D01*
X112537791Y-89470296D01*
X112570000Y-89266938D01*
X112570000Y-89061061D01*
X112537791Y-88857703D01*
X112480844Y-88682436D01*
X112478817Y-88611468D01*
X112515479Y-88550670D01*
X112579191Y-88519345D01*
X112600677Y-88517500D01*
X113731406Y-88517500D01*
X113761321Y-88526283D01*
G37*
%TD.AperFunction*%
%TA.AperFunction,Conductor*%
G36*
X159697621Y-59466502D02*
G01*
X159744114Y-59520158D01*
X159755500Y-59572500D01*
X159755500Y-113655500D01*
X159735498Y-113723621D01*
X159681842Y-113770114D01*
X159629500Y-113781500D01*
X86242500Y-113781500D01*
X86174379Y-113761498D01*
X86127886Y-113707842D01*
X86116500Y-113655500D01*
X86116500Y-109567836D01*
X88477546Y-109567836D01*
X98372359Y-109567836D01*
X98372359Y-105728602D01*
X88477546Y-105728602D01*
X88477546Y-109567836D01*
X86116500Y-109567836D01*
X86116500Y-69747019D01*
X87591500Y-69747019D01*
X87591500Y-69952981D01*
X87623720Y-70156408D01*
X87623721Y-70156412D01*
X87658961Y-70264871D01*
X87687366Y-70352290D01*
X87780871Y-70535803D01*
X87901932Y-70702430D01*
X87901934Y-70702432D01*
X87901936Y-70702435D01*
X88047568Y-70848067D01*
X88139560Y-70914902D01*
X88182915Y-70971124D01*
X88191500Y-71016839D01*
X88191500Y-82619786D01*
X88218721Y-82756636D01*
X88218725Y-82756658D01*
X88272135Y-82885601D01*
X88349671Y-83001642D01*
X88349676Y-83001648D01*
X89718351Y-84370323D01*
X89718357Y-84370328D01*
X89834399Y-84447865D01*
X89866497Y-84461159D01*
X89881121Y-84467217D01*
X89881123Y-84467217D01*
X89887807Y-84469986D01*
X89963338Y-84501273D01*
X90080740Y-84524625D01*
X90100218Y-84528500D01*
X90100219Y-84528500D01*
X105005161Y-84528500D01*
X105073282Y-84548502D01*
X105107096Y-84580438D01*
X105173932Y-84672430D01*
X105173934Y-84672432D01*
X105173936Y-84672435D01*
X105319564Y-84818063D01*
X105319567Y-84818065D01*
X105319570Y-84818068D01*
X105486197Y-84939129D01*
X105523261Y-84958014D01*
X105574875Y-85006761D01*
X105591941Y-85075676D01*
X105569040Y-85142878D01*
X105523261Y-85182546D01*
X105486455Y-85201299D01*
X105486453Y-85201301D01*
X105443625Y-85232416D01*
X106131209Y-85920000D01*
X106119339Y-85920000D01*
X106017606Y-85947259D01*
X105926394Y-85999920D01*
X105851920Y-86074394D01*
X105799259Y-86165606D01*
X105772000Y-86267339D01*
X105772000Y-86279209D01*
X105084416Y-85591625D01*
X105053301Y-85634452D01*
X104959829Y-85817900D01*
X104959826Y-85817906D01*
X104896208Y-86013703D01*
X104864000Y-86217061D01*
X104864000Y-86422938D01*
X104896208Y-86626296D01*
X104959826Y-86822093D01*
X104959829Y-86822099D01*
X105053297Y-87005540D01*
X105053298Y-87005541D01*
X105084416Y-87048372D01*
X105772000Y-86360788D01*
X105772000Y-86372661D01*
X105799259Y-86474394D01*
X105851920Y-86565606D01*
X105926394Y-86640080D01*
X106017606Y-86692741D01*
X106119339Y-86720000D01*
X106131210Y-86720000D01*
X105443626Y-87407582D01*
X105443626Y-87407583D01*
X105486454Y-87438699D01*
X105669900Y-87532170D01*
X105669906Y-87532173D01*
X105865705Y-87595791D01*
X105865701Y-87595791D01*
X106069061Y-87628000D01*
X106274939Y-87628000D01*
X106478296Y-87595791D01*
X106674093Y-87532173D01*
X106674099Y-87532170D01*
X106857541Y-87438701D01*
X106900372Y-87407582D01*
X106900372Y-87407581D01*
X106212791Y-86720000D01*
X106224661Y-86720000D01*
X106326394Y-86692741D01*
X106417606Y-86640080D01*
X106492080Y-86565606D01*
X106544741Y-86474394D01*
X106572000Y-86372661D01*
X106572000Y-86360791D01*
X107259581Y-87048372D01*
X107259582Y-87048372D01*
X107290701Y-87005541D01*
X107384170Y-86822099D01*
X107384173Y-86822093D01*
X107447791Y-86626296D01*
X107480000Y-86422938D01*
X107480000Y-86217061D01*
X107447791Y-86013703D01*
X107384173Y-85817906D01*
X107384170Y-85817900D01*
X107290699Y-85634454D01*
X107259583Y-85591626D01*
X107259582Y-85591626D01*
X106572000Y-86279208D01*
X106572000Y-86267339D01*
X106544741Y-86165606D01*
X106492080Y-86074394D01*
X106417606Y-85999920D01*
X106326394Y-85947259D01*
X106224661Y-85920000D01*
X106212790Y-85920000D01*
X106900372Y-85232416D01*
X106857541Y-85201298D01*
X106857539Y-85201297D01*
X106820738Y-85182545D01*
X106769124Y-85133796D01*
X106752059Y-85064881D01*
X106774961Y-84997679D01*
X106820737Y-84958014D01*
X106857803Y-84939129D01*
X107024430Y-84818068D01*
X107170068Y-84672430D01*
X107236903Y-84580438D01*
X107293125Y-84537085D01*
X107338839Y-84528500D01*
X108527781Y-84528500D01*
X108527782Y-84528500D01*
X108598989Y-84514336D01*
X108664662Y-84501273D01*
X108676009Y-84496572D01*
X108686270Y-84494214D01*
X108711619Y-84495727D01*
X108736864Y-84493012D01*
X108746443Y-84497806D01*
X108757140Y-84498445D01*
X108777646Y-84513422D01*
X108800353Y-84524787D01*
X108805820Y-84534001D01*
X108814473Y-84540321D01*
X108823626Y-84564007D01*
X108836584Y-84585843D01*
X108838760Y-84603169D01*
X108840065Y-84606544D01*
X108839519Y-84609203D01*
X108840500Y-84617011D01*
X108840500Y-87438396D01*
X108840561Y-87438701D01*
X108864845Y-87560785D01*
X108912600Y-87676075D01*
X108981929Y-87779833D01*
X109489929Y-88287833D01*
X109578167Y-88376071D01*
X109681925Y-88445400D01*
X109797215Y-88493155D01*
X109919606Y-88517500D01*
X109923323Y-88517500D01*
X109925197Y-88518050D01*
X109925762Y-88518106D01*
X109925751Y-88518213D01*
X109991444Y-88537502D01*
X110037937Y-88591158D01*
X110048041Y-88661432D01*
X110043156Y-88682436D01*
X109986208Y-88857703D01*
X109954000Y-89061061D01*
X109954000Y-89266938D01*
X109986208Y-89470296D01*
X110049826Y-89666093D01*
X110049829Y-89666099D01*
X110143297Y-89849540D01*
X110143298Y-89849541D01*
X110174416Y-89892372D01*
X110174417Y-89892372D01*
X110862000Y-89204789D01*
X110862000Y-89216661D01*
X110889259Y-89318394D01*
X110941920Y-89409606D01*
X111016394Y-89484080D01*
X111107606Y-89536741D01*
X111209339Y-89564000D01*
X111221210Y-89564000D01*
X110533626Y-90251582D01*
X110533626Y-90251583D01*
X110576454Y-90282699D01*
X110652511Y-90321453D01*
X110704126Y-90370202D01*
X110721192Y-90439117D01*
X110698291Y-90506318D01*
X110652511Y-90545987D01*
X110576193Y-90584872D01*
X110409567Y-90705934D01*
X110409564Y-90705936D01*
X110263936Y-90851564D01*
X110263934Y-90851567D01*
X110149872Y-91008561D01*
X110093650Y-91051915D01*
X110047936Y-91060500D01*
X105855600Y-91060500D01*
X105733217Y-91084844D01*
X105733209Y-91084846D01*
X105699447Y-91098830D01*
X105699447Y-91098831D01*
X105628610Y-91128173D01*
X105617925Y-91132599D01*
X105514167Y-91201927D01*
X105094501Y-91621595D01*
X105032188Y-91655620D01*
X105005405Y-91658500D01*
X102251527Y-91658500D01*
X102183406Y-91638498D01*
X102149591Y-91606561D01*
X102145567Y-91601022D01*
X102051930Y-91472142D01*
X102051927Y-91472139D01*
X102051925Y-91472136D01*
X101911860Y-91332071D01*
X101751601Y-91215636D01*
X101751600Y-91215635D01*
X101751598Y-91215634D01*
X101575097Y-91125702D01*
X101386700Y-91064488D01*
X101191046Y-91033500D01*
X100992954Y-91033500D01*
X100797300Y-91064488D01*
X100797297Y-91064488D01*
X100797296Y-91064489D01*
X100608903Y-91125702D01*
X100608901Y-91125703D01*
X100432398Y-91215636D01*
X100272139Y-91332071D01*
X100132074Y-91472136D01*
X100132072Y-91472139D01*
X100130992Y-91473626D01*
X100099874Y-91516457D01*
X100099798Y-91516561D01*
X100043576Y-91559915D01*
X99997862Y-91568500D01*
X94693330Y-91568500D01*
X94625209Y-91548498D01*
X94591394Y-91516561D01*
X94530751Y-91433093D01*
X94470068Y-91349570D01*
X94470065Y-91349567D01*
X94470063Y-91349564D01*
X94324435Y-91203936D01*
X94324432Y-91203934D01*
X94324430Y-91203932D01*
X94179769Y-91098830D01*
X94157806Y-91082873D01*
X94157805Y-91082872D01*
X94157803Y-91082871D01*
X93974290Y-90989366D01*
X93974287Y-90989365D01*
X93974285Y-90989364D01*
X93778412Y-90925721D01*
X93778410Y-90925720D01*
X93778408Y-90925720D01*
X93574981Y-90893500D01*
X93369019Y-90893500D01*
X93165592Y-90925720D01*
X93165590Y-90925720D01*
X93165587Y-90925721D01*
X92969714Y-90989364D01*
X92969708Y-90989367D01*
X92786193Y-91082873D01*
X92619567Y-91203934D01*
X92619564Y-91203936D01*
X92473936Y-91349564D01*
X92473934Y-91349567D01*
X92352871Y-91516196D01*
X92333986Y-91553260D01*
X92285238Y-91604875D01*
X92216323Y-91621940D01*
X92149121Y-91599039D01*
X92109454Y-91553260D01*
X92090701Y-91516457D01*
X92059583Y-91473626D01*
X92059582Y-91473626D01*
X91372000Y-92161208D01*
X91372000Y-92149339D01*
X91344741Y-92047606D01*
X91292080Y-91956394D01*
X91217606Y-91881920D01*
X91126394Y-91829259D01*
X91024661Y-91802000D01*
X91012790Y-91802000D01*
X91700372Y-91114416D01*
X91657541Y-91083298D01*
X91657540Y-91083297D01*
X91474099Y-90989829D01*
X91474093Y-90989826D01*
X91278294Y-90926208D01*
X91278298Y-90926208D01*
X91074939Y-90894000D01*
X90869061Y-90894000D01*
X90665703Y-90926208D01*
X90469906Y-90989826D01*
X90469900Y-90989829D01*
X90286452Y-91083301D01*
X90243625Y-91114416D01*
X90931209Y-91802000D01*
X90919339Y-91802000D01*
X90817606Y-91829259D01*
X90726394Y-91881920D01*
X90651920Y-91956394D01*
X90599259Y-92047606D01*
X90572000Y-92149339D01*
X90572000Y-92161209D01*
X89884416Y-91473625D01*
X89853301Y-91516452D01*
X89759829Y-91699900D01*
X89759826Y-91699906D01*
X89696208Y-91895703D01*
X89664000Y-92099061D01*
X89664000Y-92304938D01*
X89696208Y-92508296D01*
X89759826Y-92704093D01*
X89759829Y-92704099D01*
X89853297Y-92887540D01*
X89853298Y-92887541D01*
X89884416Y-92930372D01*
X90572000Y-92242788D01*
X90572000Y-92254661D01*
X90599259Y-92356394D01*
X90651920Y-92447606D01*
X90726394Y-92522080D01*
X90817606Y-92574741D01*
X90919339Y-92602000D01*
X90931210Y-92602000D01*
X90243626Y-93289582D01*
X90243626Y-93289583D01*
X90286454Y-93320699D01*
X90469900Y-93414170D01*
X90469906Y-93414173D01*
X90665705Y-93477791D01*
X90665701Y-93477791D01*
X90869061Y-93510000D01*
X91074939Y-93510000D01*
X91278296Y-93477791D01*
X91474093Y-93414173D01*
X91474099Y-93414170D01*
X91657541Y-93320701D01*
X91700372Y-93289582D01*
X91700372Y-93289581D01*
X91012791Y-92602000D01*
X91024661Y-92602000D01*
X91126394Y-92574741D01*
X91217606Y-92522080D01*
X91292080Y-92447606D01*
X91344741Y-92356394D01*
X91372000Y-92254661D01*
X91372000Y-92242791D01*
X92059581Y-92930372D01*
X92059582Y-92930372D01*
X92090701Y-92887541D01*
X92109453Y-92850740D01*
X92158201Y-92799125D01*
X92227116Y-92782059D01*
X92294318Y-92804960D01*
X92333985Y-92850738D01*
X92350830Y-92883797D01*
X92352873Y-92887806D01*
X92362570Y-92901153D01*
X92473932Y-93054430D01*
X92473934Y-93054432D01*
X92473936Y-93054435D01*
X92619564Y-93200063D01*
X92619567Y-93200065D01*
X92619570Y-93200068D01*
X92786197Y-93321129D01*
X92969710Y-93414634D01*
X93165592Y-93478280D01*
X93369019Y-93510500D01*
X93369022Y-93510500D01*
X93574978Y-93510500D01*
X93574981Y-93510500D01*
X93778408Y-93478280D01*
X93974290Y-93414634D01*
X94157803Y-93321129D01*
X94324430Y-93200068D01*
X94470068Y-93054430D01*
X94574652Y-92910482D01*
X94591394Y-92887439D01*
X94647616Y-92844085D01*
X94693330Y-92835500D01*
X99879266Y-92835500D01*
X99947387Y-92855502D01*
X99991532Y-92904296D01*
X100015634Y-92951598D01*
X100132071Y-93111860D01*
X100272139Y-93251928D01*
X100272142Y-93251930D01*
X100432402Y-93368366D01*
X100608903Y-93458298D01*
X100797300Y-93519512D01*
X100992954Y-93550500D01*
X100992957Y-93550500D01*
X101191043Y-93550500D01*
X101191046Y-93550500D01*
X101386700Y-93519512D01*
X101575097Y-93458298D01*
X101751598Y-93368366D01*
X101911858Y-93251930D01*
X102051930Y-93111858D01*
X102149591Y-92977438D01*
X102205813Y-92934085D01*
X102251527Y-92925500D01*
X105382393Y-92925500D01*
X105382394Y-92925500D01*
X105504785Y-92901155D01*
X105620075Y-92853400D01*
X105723833Y-92784071D01*
X106143501Y-92364404D01*
X106205813Y-92330379D01*
X106232596Y-92327500D01*
X110034128Y-92327500D01*
X110102249Y-92347502D01*
X110139828Y-92385894D01*
X110139961Y-92385798D01*
X110140616Y-92386699D01*
X110141559Y-92387663D01*
X110142868Y-92389800D01*
X110167225Y-92423324D01*
X110263932Y-92556430D01*
X110263934Y-92556432D01*
X110263936Y-92556435D01*
X110409564Y-92702063D01*
X110409567Y-92702065D01*
X110409570Y-92702068D01*
X110576197Y-92823129D01*
X110651962Y-92861733D01*
X110703577Y-92910482D01*
X110720643Y-92979397D01*
X110697742Y-93046598D01*
X110651963Y-93086266D01*
X110601727Y-93111863D01*
X110576193Y-93124873D01*
X110409567Y-93245934D01*
X110409564Y-93245936D01*
X110263936Y-93391564D01*
X110263934Y-93391567D01*
X110142606Y-93558561D01*
X110086384Y-93601915D01*
X110040670Y-93610500D01*
X109147603Y-93610500D01*
X109074568Y-93625028D01*
X109025215Y-93634845D01*
X109025213Y-93634845D01*
X109025212Y-93634846D01*
X108909923Y-93682601D01*
X108806171Y-93751926D01*
X108806164Y-93751931D01*
X106056501Y-96501595D01*
X105994189Y-96535621D01*
X105967406Y-96538500D01*
X102251527Y-96538500D01*
X102183406Y-96518498D01*
X102149591Y-96486561D01*
X102121877Y-96448416D01*
X102051930Y-96352142D01*
X102051927Y-96352139D01*
X102051925Y-96352136D01*
X101911860Y-96212071D01*
X101751601Y-96095636D01*
X101751600Y-96095635D01*
X101751598Y-96095634D01*
X101575097Y-96005702D01*
X101386700Y-95944488D01*
X101191046Y-95913500D01*
X100992954Y-95913500D01*
X100797300Y-95944488D01*
X100797297Y-95944488D01*
X100797296Y-95944489D01*
X100608903Y-96005702D01*
X100608901Y-96005703D01*
X100432398Y-96095636D01*
X100272139Y-96212071D01*
X100132071Y-96352139D01*
X100015634Y-96512401D01*
X99981341Y-96579704D01*
X99932593Y-96631319D01*
X99869075Y-96648500D01*
X94399330Y-96648500D01*
X94331209Y-96628498D01*
X94297394Y-96596561D01*
X94217474Y-96486561D01*
X94176068Y-96429570D01*
X94176065Y-96429567D01*
X94176063Y-96429564D01*
X94030435Y-96283936D01*
X94030432Y-96283934D01*
X94030430Y-96283932D01*
X93864391Y-96163298D01*
X93863806Y-96162873D01*
X93863805Y-96162872D01*
X93863803Y-96162871D01*
X93680290Y-96069366D01*
X93680287Y-96069365D01*
X93680285Y-96069364D01*
X93484412Y-96005721D01*
X93484410Y-96005720D01*
X93484408Y-96005720D01*
X93280981Y-95973500D01*
X93075019Y-95973500D01*
X92871592Y-96005720D01*
X92871590Y-96005720D01*
X92871587Y-96005721D01*
X92675714Y-96069364D01*
X92675708Y-96069367D01*
X92492193Y-96162873D01*
X92325567Y-96283934D01*
X92325564Y-96283936D01*
X92179936Y-96429564D01*
X92179934Y-96429567D01*
X92058871Y-96596196D01*
X92039986Y-96633260D01*
X91991238Y-96684875D01*
X91922323Y-96701940D01*
X91855121Y-96679039D01*
X91815454Y-96633260D01*
X91796701Y-96596457D01*
X91765583Y-96553626D01*
X91765582Y-96553626D01*
X91078000Y-97241208D01*
X91078000Y-97229339D01*
X91050741Y-97127606D01*
X90998080Y-97036394D01*
X90923606Y-96961920D01*
X90832394Y-96909259D01*
X90730661Y-96882000D01*
X90718790Y-96882000D01*
X91406372Y-96194416D01*
X91363541Y-96163298D01*
X91363540Y-96163297D01*
X91180099Y-96069829D01*
X91180093Y-96069826D01*
X90984294Y-96006208D01*
X90984298Y-96006208D01*
X90780939Y-95974000D01*
X90575061Y-95974000D01*
X90371703Y-96006208D01*
X90175906Y-96069826D01*
X90175900Y-96069829D01*
X89992452Y-96163301D01*
X89949625Y-96194416D01*
X90637209Y-96882000D01*
X90625339Y-96882000D01*
X90523606Y-96909259D01*
X90432394Y-96961920D01*
X90357920Y-97036394D01*
X90305259Y-97127606D01*
X90278000Y-97229339D01*
X90278000Y-97241209D01*
X89590416Y-96553625D01*
X89559301Y-96596452D01*
X89465829Y-96779900D01*
X89465826Y-96779906D01*
X89402208Y-96975703D01*
X89370000Y-97179061D01*
X89370000Y-97384938D01*
X89402208Y-97588296D01*
X89465826Y-97784093D01*
X89465829Y-97784099D01*
X89559297Y-97967540D01*
X89559298Y-97967541D01*
X89590416Y-98010372D01*
X90278000Y-97322788D01*
X90278000Y-97334661D01*
X90305259Y-97436394D01*
X90357920Y-97527606D01*
X90432394Y-97602080D01*
X90523606Y-97654741D01*
X90625339Y-97682000D01*
X90637210Y-97682000D01*
X89949626Y-98369582D01*
X89949626Y-98369583D01*
X89992454Y-98400699D01*
X90175900Y-98494170D01*
X90175906Y-98494173D01*
X90371705Y-98557791D01*
X90371701Y-98557791D01*
X90575061Y-98590000D01*
X90780939Y-98590000D01*
X90984296Y-98557791D01*
X91180093Y-98494173D01*
X91180099Y-98494170D01*
X91363541Y-98400701D01*
X91406372Y-98369582D01*
X91406372Y-98369581D01*
X90718791Y-97682000D01*
X90730661Y-97682000D01*
X90832394Y-97654741D01*
X90923606Y-97602080D01*
X90998080Y-97527606D01*
X91050741Y-97436394D01*
X91078000Y-97334661D01*
X91078000Y-97322791D01*
X91765581Y-98010372D01*
X91765582Y-98010372D01*
X91796701Y-97967541D01*
X91815453Y-97930740D01*
X91864201Y-97879125D01*
X91933116Y-97862059D01*
X92000318Y-97884960D01*
X92039985Y-97930738D01*
X92058737Y-97967540D01*
X92058873Y-97967806D01*
X92079818Y-97996634D01*
X92179932Y-98134430D01*
X92179934Y-98134432D01*
X92179936Y-98134435D01*
X92325564Y-98280063D01*
X92325567Y-98280065D01*
X92325570Y-98280068D01*
X92492197Y-98401129D01*
X92675710Y-98494634D01*
X92871592Y-98558280D01*
X93075019Y-98590500D01*
X93075022Y-98590500D01*
X93280978Y-98590500D01*
X93280981Y-98590500D01*
X93484408Y-98558280D01*
X93680290Y-98494634D01*
X93863803Y-98401129D01*
X94030430Y-98280068D01*
X94176068Y-98134430D01*
X94276182Y-97996634D01*
X94297394Y-97967439D01*
X94353616Y-97924085D01*
X94399330Y-97915500D01*
X100012393Y-97915500D01*
X100080514Y-97935502D01*
X100114328Y-97967438D01*
X100132070Y-97991858D01*
X100132074Y-97991863D01*
X100272139Y-98131928D01*
X100275590Y-98134435D01*
X100432402Y-98248366D01*
X100608903Y-98338298D01*
X100797300Y-98399512D01*
X100992954Y-98430500D01*
X100992957Y-98430500D01*
X101191043Y-98430500D01*
X101191046Y-98430500D01*
X101386700Y-98399512D01*
X101575097Y-98338298D01*
X101751598Y-98248366D01*
X101911858Y-98131930D01*
X102051930Y-97991858D01*
X102149591Y-97857438D01*
X102205813Y-97814085D01*
X102251527Y-97805500D01*
X106344393Y-97805500D01*
X106344394Y-97805500D01*
X106466785Y-97781155D01*
X106582075Y-97733400D01*
X106685833Y-97664071D01*
X109435499Y-94914405D01*
X109497811Y-94880379D01*
X109524594Y-94877500D01*
X110040670Y-94877500D01*
X110108791Y-94897502D01*
X110142606Y-94929439D01*
X110142873Y-94929806D01*
X110263932Y-95096430D01*
X110263934Y-95096432D01*
X110263936Y-95096435D01*
X110409564Y-95242063D01*
X110409567Y-95242065D01*
X110409570Y-95242068D01*
X110576197Y-95363129D01*
X110651962Y-95401733D01*
X110703577Y-95450482D01*
X110720643Y-95519397D01*
X110697742Y-95586598D01*
X110651963Y-95626266D01*
X110634836Y-95634993D01*
X110576193Y-95664873D01*
X110409567Y-95785934D01*
X110409564Y-95785936D01*
X110263936Y-95931564D01*
X110263934Y-95931567D01*
X110142873Y-96098193D01*
X110049367Y-96281708D01*
X110049364Y-96281714D01*
X109985721Y-96477587D01*
X109985720Y-96477590D01*
X109985720Y-96477592D01*
X109953500Y-96681019D01*
X109953500Y-96886981D01*
X109981191Y-97061811D01*
X109985721Y-97090412D01*
X110047971Y-97281999D01*
X110049366Y-97286290D01*
X110142871Y-97469803D01*
X110263932Y-97636430D01*
X110263934Y-97636432D01*
X110263936Y-97636435D01*
X110409564Y-97782063D01*
X110409567Y-97782065D01*
X110409570Y-97782068D01*
X110576197Y-97903129D01*
X110651962Y-97941733D01*
X110703577Y-97990482D01*
X110720643Y-98059397D01*
X110697742Y-98126598D01*
X110651963Y-98166266D01*
X110634836Y-98174993D01*
X110576193Y-98204873D01*
X110409567Y-98325934D01*
X110409564Y-98325936D01*
X110263936Y-98471564D01*
X110263934Y-98471567D01*
X110142873Y-98638193D01*
X110049367Y-98821708D01*
X110049364Y-98821714D01*
X109985721Y-99017587D01*
X109985720Y-99017590D01*
X109985720Y-99017592D01*
X109953500Y-99221019D01*
X109953500Y-99426981D01*
X109980808Y-99599394D01*
X109985721Y-99630412D01*
X110048303Y-99823020D01*
X110049366Y-99826290D01*
X110142871Y-100009803D01*
X110263932Y-100176430D01*
X110263934Y-100176432D01*
X110263936Y-100176435D01*
X110409564Y-100322063D01*
X110409567Y-100322065D01*
X110409570Y-100322068D01*
X110576197Y-100443129D01*
X110651962Y-100481733D01*
X110703577Y-100530482D01*
X110720643Y-100599397D01*
X110697742Y-100666598D01*
X110651963Y-100706266D01*
X110583720Y-100741038D01*
X110576193Y-100744873D01*
X110409567Y-100865934D01*
X110409564Y-100865936D01*
X110263936Y-101011564D01*
X110263934Y-101011567D01*
X110142873Y-101178193D01*
X110049367Y-101361708D01*
X110049364Y-101361714D01*
X109985721Y-101557587D01*
X109985720Y-101557590D01*
X109985720Y-101557592D01*
X109953500Y-101761019D01*
X109953500Y-101966981D01*
X109973312Y-102092068D01*
X109985790Y-102170851D01*
X109976690Y-102241263D01*
X109950437Y-102279657D01*
X109070167Y-103159929D01*
X108981927Y-103248169D01*
X108981926Y-103248171D01*
X108912601Y-103351923D01*
X108880985Y-103428251D01*
X108864845Y-103467215D01*
X108860448Y-103489320D01*
X108840500Y-103589603D01*
X108840500Y-103589606D01*
X108840500Y-106871606D01*
X108840500Y-106996394D01*
X108864845Y-107118785D01*
X108912600Y-107234075D01*
X108981929Y-107337833D01*
X113299929Y-111655833D01*
X113388167Y-111744071D01*
X113491925Y-111813400D01*
X113607215Y-111861155D01*
X113729606Y-111885500D01*
X113729607Y-111885500D01*
X145350393Y-111885500D01*
X145350394Y-111885500D01*
X145472785Y-111861155D01*
X145588075Y-111813400D01*
X145691833Y-111744071D01*
X151984342Y-105451560D01*
X152046652Y-105417536D01*
X152093146Y-105416208D01*
X152093583Y-105416277D01*
X152093592Y-105416280D01*
X152297019Y-105448500D01*
X152297022Y-105448500D01*
X152502978Y-105448500D01*
X152502981Y-105448500D01*
X152706408Y-105416280D01*
X152902290Y-105352634D01*
X153085803Y-105259129D01*
X153252430Y-105138068D01*
X153398068Y-104992430D01*
X153519129Y-104825803D01*
X153612634Y-104642290D01*
X153676280Y-104446408D01*
X153708500Y-104242981D01*
X153708500Y-104037019D01*
X153676280Y-103833592D01*
X153612634Y-103637710D01*
X153519129Y-103454197D01*
X153398068Y-103287570D01*
X153398065Y-103287567D01*
X153398063Y-103287564D01*
X153252435Y-103141936D01*
X153252432Y-103141934D01*
X153252430Y-103141932D01*
X153126999Y-103050802D01*
X153085806Y-103020873D01*
X153085805Y-103020872D01*
X153085803Y-103020871D01*
X152902290Y-102927366D01*
X152902287Y-102927365D01*
X152902285Y-102927364D01*
X152706412Y-102863721D01*
X152706410Y-102863720D01*
X152706408Y-102863720D01*
X152502981Y-102831500D01*
X152297019Y-102831500D01*
X152093592Y-102863720D01*
X152093590Y-102863720D01*
X152093587Y-102863721D01*
X151897714Y-102927364D01*
X151897708Y-102927367D01*
X151714193Y-103020873D01*
X151547567Y-103141934D01*
X151547564Y-103141936D01*
X151401936Y-103287564D01*
X151401934Y-103287567D01*
X151280873Y-103454193D01*
X151187367Y-103637708D01*
X151187364Y-103637714D01*
X151123721Y-103833587D01*
X151123720Y-103833590D01*
X151123720Y-103833592D01*
X151091500Y-104037019D01*
X151091500Y-104242981D01*
X151100693Y-104301022D01*
X151123790Y-104446853D01*
X151114690Y-104517264D01*
X151088436Y-104555658D01*
X145062501Y-110581595D01*
X145000189Y-110615621D01*
X144973406Y-110618500D01*
X141787594Y-110618500D01*
X141719473Y-110598498D01*
X141672980Y-110544842D01*
X141662876Y-110474568D01*
X141692370Y-110409988D01*
X141698499Y-110403405D01*
X142714499Y-109387405D01*
X146650342Y-105451560D01*
X146712652Y-105417537D01*
X146759146Y-105416208D01*
X146759583Y-105416277D01*
X146759592Y-105416280D01*
X146963019Y-105448500D01*
X146963022Y-105448500D01*
X147168978Y-105448500D01*
X147168981Y-105448500D01*
X147372408Y-105416280D01*
X147568290Y-105352634D01*
X147751803Y-105259129D01*
X147918430Y-105138068D01*
X148064068Y-104992430D01*
X148185129Y-104825803D01*
X148278634Y-104642290D01*
X148342280Y-104446408D01*
X148374500Y-104242981D01*
X148374500Y-104037019D01*
X148342280Y-103833592D01*
X148278634Y-103637710D01*
X148185129Y-103454197D01*
X148064068Y-103287570D01*
X148064065Y-103287567D01*
X148064063Y-103287564D01*
X147918435Y-103141936D01*
X147918432Y-103141934D01*
X147918430Y-103141932D01*
X147792999Y-103050802D01*
X147751806Y-103020873D01*
X147751805Y-103020872D01*
X147751803Y-103020871D01*
X147568290Y-102927366D01*
X147568287Y-102927365D01*
X147568285Y-102927364D01*
X147372412Y-102863721D01*
X147372410Y-102863720D01*
X147372408Y-102863720D01*
X147168981Y-102831500D01*
X146963019Y-102831500D01*
X146759592Y-102863720D01*
X146759590Y-102863720D01*
X146759587Y-102863721D01*
X146563714Y-102927364D01*
X146563708Y-102927367D01*
X146380193Y-103020873D01*
X146213567Y-103141934D01*
X146213564Y-103141936D01*
X146067936Y-103287564D01*
X146067934Y-103287567D01*
X145946873Y-103454193D01*
X145853367Y-103637708D01*
X145853364Y-103637714D01*
X145789721Y-103833587D01*
X145789720Y-103833590D01*
X145789720Y-103833592D01*
X145757500Y-104037019D01*
X145757500Y-104242981D01*
X145766693Y-104301022D01*
X145789790Y-104446853D01*
X145780690Y-104517264D01*
X145754436Y-104555658D01*
X140744501Y-109565595D01*
X140682189Y-109599620D01*
X140655406Y-109602500D01*
X137469594Y-109602500D01*
X137401473Y-109582498D01*
X137354980Y-109528842D01*
X137344876Y-109458568D01*
X137374370Y-109393988D01*
X137380499Y-109387405D01*
X138325336Y-108442568D01*
X141316342Y-105451560D01*
X141378652Y-105417537D01*
X141425146Y-105416208D01*
X141425583Y-105416277D01*
X141425592Y-105416280D01*
X141629019Y-105448500D01*
X141629022Y-105448500D01*
X141834978Y-105448500D01*
X141834981Y-105448500D01*
X142038408Y-105416280D01*
X142234290Y-105352634D01*
X142417803Y-105259129D01*
X142584430Y-105138068D01*
X142730068Y-104992430D01*
X142851129Y-104825803D01*
X142944634Y-104642290D01*
X143008280Y-104446408D01*
X143040500Y-104242981D01*
X143040500Y-104037019D01*
X143008280Y-103833592D01*
X142944634Y-103637710D01*
X142851129Y-103454197D01*
X142730068Y-103287570D01*
X142730065Y-103287567D01*
X142730063Y-103287564D01*
X142584435Y-103141936D01*
X142584432Y-103141934D01*
X142584430Y-103141932D01*
X142458999Y-103050802D01*
X142417806Y-103020873D01*
X142417805Y-103020872D01*
X142417803Y-103020871D01*
X142234290Y-102927366D01*
X142234287Y-102927365D01*
X142234285Y-102927364D01*
X142038412Y-102863721D01*
X142038410Y-102863720D01*
X142038408Y-102863720D01*
X141834981Y-102831500D01*
X141629019Y-102831500D01*
X141425592Y-102863720D01*
X141425590Y-102863720D01*
X141425587Y-102863721D01*
X141229714Y-102927364D01*
X141229708Y-102927367D01*
X141046193Y-103020873D01*
X140879567Y-103141934D01*
X140879564Y-103141936D01*
X140733936Y-103287564D01*
X140733934Y-103287567D01*
X140612873Y-103454193D01*
X140519367Y-103637708D01*
X140519364Y-103637714D01*
X140455721Y-103833587D01*
X140455720Y-103833590D01*
X140455720Y-103833592D01*
X140423500Y-104037019D01*
X140423500Y-104242981D01*
X140432693Y-104301022D01*
X140455790Y-104446853D01*
X140446690Y-104517264D01*
X140420436Y-104555658D01*
X136426501Y-108549595D01*
X136364189Y-108583620D01*
X136337406Y-108586500D01*
X133151594Y-108586500D01*
X133083473Y-108566498D01*
X133036980Y-108512842D01*
X133026876Y-108442568D01*
X133056370Y-108377988D01*
X133062499Y-108371405D01*
X133244178Y-108189725D01*
X135982342Y-105451560D01*
X136044652Y-105417537D01*
X136091146Y-105416208D01*
X136091583Y-105416277D01*
X136091592Y-105416280D01*
X136295019Y-105448500D01*
X136295022Y-105448500D01*
X136500978Y-105448500D01*
X136500981Y-105448500D01*
X136704408Y-105416280D01*
X136900290Y-105352634D01*
X137083803Y-105259129D01*
X137250430Y-105138068D01*
X137396068Y-104992430D01*
X137517129Y-104825803D01*
X137610634Y-104642290D01*
X137674280Y-104446408D01*
X137706500Y-104242981D01*
X137706500Y-104037019D01*
X137674280Y-103833592D01*
X137610634Y-103637710D01*
X137517129Y-103454197D01*
X137396068Y-103287570D01*
X137396065Y-103287567D01*
X137396063Y-103287564D01*
X137250435Y-103141936D01*
X137250432Y-103141934D01*
X137250430Y-103141932D01*
X137124999Y-103050802D01*
X137083806Y-103020873D01*
X137083805Y-103020872D01*
X137083803Y-103020871D01*
X136900290Y-102927366D01*
X136900287Y-102927365D01*
X136900285Y-102927364D01*
X136704412Y-102863721D01*
X136704410Y-102863720D01*
X136704408Y-102863720D01*
X136500981Y-102831500D01*
X136295019Y-102831500D01*
X136091592Y-102863720D01*
X136091590Y-102863720D01*
X136091587Y-102863721D01*
X135895714Y-102927364D01*
X135895708Y-102927367D01*
X135712193Y-103020873D01*
X135545567Y-103141934D01*
X135545564Y-103141936D01*
X135399936Y-103287564D01*
X135399934Y-103287567D01*
X135278873Y-103454193D01*
X135185367Y-103637708D01*
X135185364Y-103637714D01*
X135121721Y-103833587D01*
X135121720Y-103833590D01*
X135121720Y-103833592D01*
X135089500Y-104037019D01*
X135089500Y-104242981D01*
X135098693Y-104301022D01*
X135121790Y-104446853D01*
X135112690Y-104517264D01*
X135086436Y-104555658D01*
X132108501Y-107533595D01*
X132046189Y-107567620D01*
X132019406Y-107570500D01*
X131225661Y-107570500D01*
X131157540Y-107550498D01*
X131111047Y-107496842D01*
X131100943Y-107426568D01*
X131130437Y-107361988D01*
X131136566Y-107355405D01*
X134154323Y-104337648D01*
X134154328Y-104337643D01*
X134231865Y-104221601D01*
X134285273Y-104092661D01*
X134295615Y-104040671D01*
X134312500Y-103955781D01*
X134312500Y-96417019D01*
X135089500Y-96417019D01*
X135089500Y-96622981D01*
X135121720Y-96826408D01*
X135121721Y-96826412D01*
X135177960Y-96999499D01*
X135185366Y-97022290D01*
X135278871Y-97205803D01*
X135399932Y-97372430D01*
X135399934Y-97372432D01*
X135399936Y-97372435D01*
X135545564Y-97518063D01*
X135545567Y-97518065D01*
X135545570Y-97518068D01*
X135712197Y-97639129D01*
X135895710Y-97732634D01*
X136091592Y-97796280D01*
X136295019Y-97828500D01*
X136295022Y-97828500D01*
X136500978Y-97828500D01*
X136500981Y-97828500D01*
X136704408Y-97796280D01*
X136900290Y-97732634D01*
X137083803Y-97639129D01*
X137250430Y-97518068D01*
X137396068Y-97372430D01*
X137517129Y-97205803D01*
X137610634Y-97022290D01*
X137674280Y-96826408D01*
X137706500Y-96622981D01*
X137706500Y-96417019D01*
X137674280Y-96213592D01*
X137610634Y-96017710D01*
X137517129Y-95834197D01*
X137396068Y-95667570D01*
X137396065Y-95667567D01*
X137396063Y-95667564D01*
X137322405Y-95593906D01*
X137288379Y-95531594D01*
X137285500Y-95504811D01*
X137285500Y-94299224D01*
X137305502Y-94231103D01*
X137354299Y-94186956D01*
X137390215Y-94168657D01*
X137569576Y-94038343D01*
X137726343Y-93881576D01*
X137856657Y-93702215D01*
X137957308Y-93504676D01*
X138025818Y-93293824D01*
X138060500Y-93074851D01*
X138060500Y-92853149D01*
X140323500Y-92853149D01*
X140323500Y-93074851D01*
X140358182Y-93293824D01*
X140358183Y-93293829D01*
X140418115Y-93478280D01*
X140426692Y-93504676D01*
X140527343Y-93702215D01*
X140527345Y-93702218D01*
X140657658Y-93881578D01*
X140814421Y-94038341D01*
X140993784Y-94168656D01*
X140993788Y-94168659D01*
X141016374Y-94180166D01*
X141029700Y-94186956D01*
X141081317Y-94235703D01*
X141098500Y-94299224D01*
X141098500Y-95298670D01*
X141078498Y-95366791D01*
X141046561Y-95400606D01*
X140879567Y-95521934D01*
X140879564Y-95521936D01*
X140733936Y-95667564D01*
X140733934Y-95667567D01*
X140612873Y-95834193D01*
X140519367Y-96017708D01*
X140519364Y-96017714D01*
X140455721Y-96213587D01*
X140455720Y-96213590D01*
X140455720Y-96213592D01*
X140423500Y-96417019D01*
X140423500Y-96622981D01*
X140455720Y-96826408D01*
X140455721Y-96826412D01*
X140511960Y-96999499D01*
X140519366Y-97022290D01*
X140612871Y-97205803D01*
X140733932Y-97372430D01*
X140733934Y-97372432D01*
X140733936Y-97372435D01*
X140879564Y-97518063D01*
X140879567Y-97518065D01*
X140879570Y-97518068D01*
X141046197Y-97639129D01*
X141229710Y-97732634D01*
X141425592Y-97796280D01*
X141629019Y-97828500D01*
X141629022Y-97828500D01*
X141834978Y-97828500D01*
X141834981Y-97828500D01*
X142038408Y-97796280D01*
X142234290Y-97732634D01*
X142417803Y-97639129D01*
X142584430Y-97518068D01*
X142730068Y-97372430D01*
X142851129Y-97205803D01*
X142944634Y-97022290D01*
X143008280Y-96826408D01*
X143040500Y-96622981D01*
X143040500Y-96417019D01*
X143008280Y-96213592D01*
X142944634Y-96017710D01*
X142851129Y-95834197D01*
X142730068Y-95667570D01*
X142730065Y-95667567D01*
X142730063Y-95667564D01*
X142584435Y-95521936D01*
X142584432Y-95521934D01*
X142584430Y-95521932D01*
X142486087Y-95450482D01*
X142417439Y-95400606D01*
X142374085Y-95344384D01*
X142365500Y-95298670D01*
X142365500Y-94299224D01*
X142385502Y-94231103D01*
X142434299Y-94186956D01*
X142470215Y-94168657D01*
X142649576Y-94038343D01*
X142806343Y-93881576D01*
X142936657Y-93702215D01*
X143037308Y-93504676D01*
X143105818Y-93293824D01*
X143140500Y-93074851D01*
X143140500Y-92853149D01*
X145657500Y-92853149D01*
X145657500Y-93074851D01*
X145692182Y-93293824D01*
X145692183Y-93293829D01*
X145752115Y-93478280D01*
X145760692Y-93504676D01*
X145861343Y-93702215D01*
X145861345Y-93702218D01*
X145991658Y-93881578D01*
X146148421Y-94038341D01*
X146327784Y-94168656D01*
X146327788Y-94168659D01*
X146350374Y-94180166D01*
X146363700Y-94186956D01*
X146415317Y-94235703D01*
X146432500Y-94299224D01*
X146432500Y-95298670D01*
X146412498Y-95366791D01*
X146380561Y-95400606D01*
X146213567Y-95521934D01*
X146213564Y-95521936D01*
X146067936Y-95667564D01*
X146067934Y-95667567D01*
X145946873Y-95834193D01*
X145853367Y-96017708D01*
X145853364Y-96017714D01*
X145789721Y-96213587D01*
X145789720Y-96213590D01*
X145789720Y-96213592D01*
X145757500Y-96417019D01*
X145757500Y-96622981D01*
X145789720Y-96826408D01*
X145789721Y-96826412D01*
X145845960Y-96999499D01*
X145853366Y-97022290D01*
X145946871Y-97205803D01*
X146067932Y-97372430D01*
X146067934Y-97372432D01*
X146067936Y-97372435D01*
X146213564Y-97518063D01*
X146213567Y-97518065D01*
X146213570Y-97518068D01*
X146380197Y-97639129D01*
X146563710Y-97732634D01*
X146759592Y-97796280D01*
X146963019Y-97828500D01*
X146963022Y-97828500D01*
X147168978Y-97828500D01*
X147168981Y-97828500D01*
X147372408Y-97796280D01*
X147568290Y-97732634D01*
X147751803Y-97639129D01*
X147918430Y-97518068D01*
X148064068Y-97372430D01*
X148185129Y-97205803D01*
X148278634Y-97022290D01*
X148342280Y-96826408D01*
X148374500Y-96622981D01*
X148374500Y-96417019D01*
X148342280Y-96213592D01*
X148278634Y-96017710D01*
X148185129Y-95834197D01*
X148064068Y-95667570D01*
X148064065Y-95667567D01*
X148064063Y-95667564D01*
X147918435Y-95521936D01*
X147918432Y-95521934D01*
X147918430Y-95521932D01*
X147820087Y-95450482D01*
X147751439Y-95400606D01*
X147708085Y-95344384D01*
X147699500Y-95298670D01*
X147699500Y-94299224D01*
X147719502Y-94231103D01*
X147768299Y-94186956D01*
X147804215Y-94168657D01*
X147983576Y-94038343D01*
X148140343Y-93881576D01*
X148270657Y-93702215D01*
X148371308Y-93504676D01*
X148439818Y-93293824D01*
X148474500Y-93074851D01*
X148474500Y-92853149D01*
X150991500Y-92853149D01*
X150991500Y-93074851D01*
X151026182Y-93293824D01*
X151026183Y-93293829D01*
X151086115Y-93478280D01*
X151094692Y-93504676D01*
X151195343Y-93702215D01*
X151195345Y-93702218D01*
X151325658Y-93881578D01*
X151482421Y-94038341D01*
X151661784Y-94168656D01*
X151661788Y-94168659D01*
X151684374Y-94180166D01*
X151697700Y-94186956D01*
X151749317Y-94235703D01*
X151766500Y-94299224D01*
X151766500Y-95298670D01*
X151746498Y-95366791D01*
X151714561Y-95400606D01*
X151547567Y-95521934D01*
X151547564Y-95521936D01*
X151401936Y-95667564D01*
X151401934Y-95667567D01*
X151280873Y-95834193D01*
X151187367Y-96017708D01*
X151187364Y-96017714D01*
X151123721Y-96213587D01*
X151123720Y-96213590D01*
X151123720Y-96213592D01*
X151091500Y-96417019D01*
X151091500Y-96622981D01*
X151123720Y-96826408D01*
X151123721Y-96826412D01*
X151179960Y-96999499D01*
X151187366Y-97022290D01*
X151280871Y-97205803D01*
X151401932Y-97372430D01*
X151401934Y-97372432D01*
X151401936Y-97372435D01*
X151547564Y-97518063D01*
X151547567Y-97518065D01*
X151547570Y-97518068D01*
X151714197Y-97639129D01*
X151897710Y-97732634D01*
X152093592Y-97796280D01*
X152297019Y-97828500D01*
X152297022Y-97828500D01*
X152502978Y-97828500D01*
X152502981Y-97828500D01*
X152706408Y-97796280D01*
X152902290Y-97732634D01*
X153085803Y-97639129D01*
X153252430Y-97518068D01*
X153398068Y-97372430D01*
X153519129Y-97205803D01*
X153612634Y-97022290D01*
X153676280Y-96826408D01*
X153708500Y-96622981D01*
X153708500Y-96417019D01*
X153676280Y-96213592D01*
X153612634Y-96017710D01*
X153519129Y-95834197D01*
X153398068Y-95667570D01*
X153398065Y-95667567D01*
X153398063Y-95667564D01*
X153252435Y-95521936D01*
X153252432Y-95521934D01*
X153252430Y-95521932D01*
X153154087Y-95450482D01*
X153085439Y-95400606D01*
X153042085Y-95344384D01*
X153033500Y-95298670D01*
X153033500Y-94299224D01*
X153053502Y-94231103D01*
X153102299Y-94186956D01*
X153138215Y-94168657D01*
X153317576Y-94038343D01*
X153474343Y-93881576D01*
X153604657Y-93702215D01*
X153705308Y-93504676D01*
X153773818Y-93293824D01*
X153808500Y-93074851D01*
X153808500Y-92853149D01*
X153773818Y-92634176D01*
X153705308Y-92423324D01*
X153604657Y-92225785D01*
X153474343Y-92046424D01*
X153474341Y-92046421D01*
X153434341Y-92006421D01*
X153400315Y-91944109D01*
X153405380Y-91873294D01*
X153447927Y-91816458D01*
X153479404Y-91799270D01*
X153545965Y-91774444D01*
X153662904Y-91686904D01*
X153750444Y-91569965D01*
X153750444Y-91569964D01*
X153801494Y-91433093D01*
X153807999Y-91372597D01*
X153808000Y-91372585D01*
X153808000Y-90678000D01*
X152772968Y-90678000D01*
X152819333Y-90597694D01*
X152850000Y-90483244D01*
X152850000Y-90364756D01*
X152819333Y-90250306D01*
X152772968Y-90170000D01*
X153808000Y-90170000D01*
X153808000Y-89475414D01*
X153807999Y-89475402D01*
X153801494Y-89414906D01*
X153750444Y-89278035D01*
X153750444Y-89278034D01*
X153662904Y-89161095D01*
X153545965Y-89073555D01*
X153409093Y-89022505D01*
X153348597Y-89016000D01*
X152654000Y-89016000D01*
X152654000Y-90051031D01*
X152573694Y-90004667D01*
X152459244Y-89974000D01*
X152340756Y-89974000D01*
X152226306Y-90004667D01*
X152146000Y-90051031D01*
X152146000Y-89016000D01*
X151451402Y-89016000D01*
X151390906Y-89022505D01*
X151254035Y-89073555D01*
X151254034Y-89073555D01*
X151137095Y-89161095D01*
X151049555Y-89278034D01*
X151049555Y-89278035D01*
X150998505Y-89414906D01*
X150992000Y-89475402D01*
X150992000Y-90170000D01*
X152027032Y-90170000D01*
X151980667Y-90250306D01*
X151950000Y-90364756D01*
X151950000Y-90483244D01*
X151980667Y-90597694D01*
X152027032Y-90678000D01*
X150992000Y-90678000D01*
X150992000Y-91372597D01*
X150998505Y-91433093D01*
X151049555Y-91569964D01*
X151049555Y-91569965D01*
X151137095Y-91686904D01*
X151254033Y-91774443D01*
X151320596Y-91799270D01*
X151377431Y-91841817D01*
X151402242Y-91908337D01*
X151387151Y-91977711D01*
X151365659Y-92006420D01*
X151325658Y-92046421D01*
X151195345Y-92225781D01*
X151094693Y-92423322D01*
X151094690Y-92423328D01*
X151026183Y-92634170D01*
X151026182Y-92634175D01*
X151026182Y-92634176D01*
X150991500Y-92853149D01*
X148474500Y-92853149D01*
X148439818Y-92634176D01*
X148371308Y-92423324D01*
X148270657Y-92225785D01*
X148140343Y-92046424D01*
X148140341Y-92046421D01*
X148100341Y-92006421D01*
X148066315Y-91944109D01*
X148071380Y-91873294D01*
X148113927Y-91816458D01*
X148145404Y-91799270D01*
X148211965Y-91774444D01*
X148328904Y-91686904D01*
X148416444Y-91569965D01*
X148416444Y-91569964D01*
X148467494Y-91433093D01*
X148473999Y-91372597D01*
X148474000Y-91372585D01*
X148474000Y-90678000D01*
X147438968Y-90678000D01*
X147485333Y-90597694D01*
X147516000Y-90483244D01*
X147516000Y-90364756D01*
X147485333Y-90250306D01*
X147438968Y-90170000D01*
X148474000Y-90170000D01*
X148474000Y-89475414D01*
X148473999Y-89475402D01*
X148467494Y-89414906D01*
X148416444Y-89278035D01*
X148416444Y-89278034D01*
X148328904Y-89161095D01*
X148211965Y-89073555D01*
X148075093Y-89022505D01*
X148014597Y-89016000D01*
X147320000Y-89016000D01*
X147320000Y-90051031D01*
X147239694Y-90004667D01*
X147125244Y-89974000D01*
X147006756Y-89974000D01*
X146892306Y-90004667D01*
X146812000Y-90051031D01*
X146812000Y-89016000D01*
X146117402Y-89016000D01*
X146056906Y-89022505D01*
X145920035Y-89073555D01*
X145920034Y-89073555D01*
X145803095Y-89161095D01*
X145715555Y-89278034D01*
X145715555Y-89278035D01*
X145664505Y-89414906D01*
X145658000Y-89475402D01*
X145658000Y-90170000D01*
X146693032Y-90170000D01*
X146646667Y-90250306D01*
X146616000Y-90364756D01*
X146616000Y-90483244D01*
X146646667Y-90597694D01*
X146693032Y-90678000D01*
X145658000Y-90678000D01*
X145658000Y-91372597D01*
X145664505Y-91433093D01*
X145715555Y-91569964D01*
X145715555Y-91569965D01*
X145803095Y-91686904D01*
X145920033Y-91774443D01*
X145986596Y-91799270D01*
X146043431Y-91841817D01*
X146068242Y-91908337D01*
X146053151Y-91977711D01*
X146031659Y-92006420D01*
X145991658Y-92046421D01*
X145861345Y-92225781D01*
X145760693Y-92423322D01*
X145760690Y-92423328D01*
X145692183Y-92634170D01*
X145692182Y-92634175D01*
X145692182Y-92634176D01*
X145657500Y-92853149D01*
X143140500Y-92853149D01*
X143105818Y-92634176D01*
X143037308Y-92423324D01*
X142936657Y-92225785D01*
X142806343Y-92046424D01*
X142806341Y-92046421D01*
X142766341Y-92006421D01*
X142732315Y-91944109D01*
X142737380Y-91873294D01*
X142779927Y-91816458D01*
X142811404Y-91799270D01*
X142877965Y-91774444D01*
X142994904Y-91686904D01*
X143082444Y-91569965D01*
X143082444Y-91569964D01*
X143133494Y-91433093D01*
X143139999Y-91372597D01*
X143140000Y-91372585D01*
X143140000Y-90678000D01*
X142104968Y-90678000D01*
X142151333Y-90597694D01*
X142182000Y-90483244D01*
X142182000Y-90364756D01*
X142151333Y-90250306D01*
X142104968Y-90170000D01*
X143140000Y-90170000D01*
X143140000Y-89475414D01*
X143139999Y-89475402D01*
X143133494Y-89414906D01*
X143082444Y-89278035D01*
X143082444Y-89278034D01*
X142994904Y-89161095D01*
X142877965Y-89073555D01*
X142741093Y-89022505D01*
X142680597Y-89016000D01*
X141986000Y-89016000D01*
X141986000Y-90051031D01*
X141905694Y-90004667D01*
X141791244Y-89974000D01*
X141672756Y-89974000D01*
X141558306Y-90004667D01*
X141478000Y-90051031D01*
X141478000Y-89016000D01*
X140783402Y-89016000D01*
X140722906Y-89022505D01*
X140586035Y-89073555D01*
X140586034Y-89073555D01*
X140469095Y-89161095D01*
X140381555Y-89278034D01*
X140381555Y-89278035D01*
X140330505Y-89414906D01*
X140324000Y-89475402D01*
X140324000Y-90170000D01*
X141359032Y-90170000D01*
X141312667Y-90250306D01*
X141282000Y-90364756D01*
X141282000Y-90483244D01*
X141312667Y-90597694D01*
X141359032Y-90678000D01*
X140324000Y-90678000D01*
X140324000Y-91372597D01*
X140330505Y-91433093D01*
X140381555Y-91569964D01*
X140381555Y-91569965D01*
X140469095Y-91686904D01*
X140586033Y-91774443D01*
X140652596Y-91799270D01*
X140709431Y-91841817D01*
X140734242Y-91908337D01*
X140719151Y-91977711D01*
X140697659Y-92006420D01*
X140657658Y-92046421D01*
X140527345Y-92225781D01*
X140426693Y-92423322D01*
X140426690Y-92423328D01*
X140358183Y-92634170D01*
X140358182Y-92634175D01*
X140358182Y-92634176D01*
X140323500Y-92853149D01*
X138060500Y-92853149D01*
X138025818Y-92634176D01*
X137957308Y-92423324D01*
X137856657Y-92225785D01*
X137726343Y-92046424D01*
X137726341Y-92046421D01*
X137686341Y-92006421D01*
X137652315Y-91944109D01*
X137657380Y-91873294D01*
X137699927Y-91816458D01*
X137731404Y-91799270D01*
X137797965Y-91774444D01*
X137914904Y-91686904D01*
X138002444Y-91569965D01*
X138002444Y-91569964D01*
X138053494Y-91433093D01*
X138059999Y-91372597D01*
X138060000Y-91372585D01*
X138060000Y-90678000D01*
X137024968Y-90678000D01*
X137071333Y-90597694D01*
X137102000Y-90483244D01*
X137102000Y-90364756D01*
X137071333Y-90250306D01*
X137024968Y-90170000D01*
X138060000Y-90170000D01*
X138060000Y-89475414D01*
X138059999Y-89475402D01*
X138053494Y-89414906D01*
X138002444Y-89278035D01*
X138002444Y-89278034D01*
X137914904Y-89161095D01*
X137797965Y-89073555D01*
X137661093Y-89022505D01*
X137600597Y-89016000D01*
X136906000Y-89016000D01*
X136906000Y-90051031D01*
X136825694Y-90004667D01*
X136711244Y-89974000D01*
X136592756Y-89974000D01*
X136478306Y-90004667D01*
X136398000Y-90051031D01*
X136398000Y-89016000D01*
X135703402Y-89016000D01*
X135642906Y-89022505D01*
X135506035Y-89073555D01*
X135506034Y-89073555D01*
X135389095Y-89161095D01*
X135301555Y-89278034D01*
X135301555Y-89278035D01*
X135250505Y-89414906D01*
X135244000Y-89475402D01*
X135244000Y-90170000D01*
X136279032Y-90170000D01*
X136232667Y-90250306D01*
X136202000Y-90364756D01*
X136202000Y-90483244D01*
X136232667Y-90597694D01*
X136279032Y-90678000D01*
X135244000Y-90678000D01*
X135244000Y-91372597D01*
X135250505Y-91433093D01*
X135301555Y-91569964D01*
X135301555Y-91569965D01*
X135389095Y-91686904D01*
X135506033Y-91774443D01*
X135572596Y-91799270D01*
X135629431Y-91841817D01*
X135654242Y-91908337D01*
X135639151Y-91977711D01*
X135617659Y-92006420D01*
X135577658Y-92046421D01*
X135447345Y-92225781D01*
X135346693Y-92423322D01*
X135346690Y-92423328D01*
X135278183Y-92634170D01*
X135278182Y-92634175D01*
X135278182Y-92634176D01*
X135243500Y-92853149D01*
X135243500Y-93074851D01*
X135278182Y-93293824D01*
X135278183Y-93293829D01*
X135338115Y-93478280D01*
X135346692Y-93504676D01*
X135447343Y-93702215D01*
X135447345Y-93702218D01*
X135577658Y-93881578D01*
X135734421Y-94038341D01*
X135913784Y-94168656D01*
X135913788Y-94168659D01*
X135936374Y-94180166D01*
X135949700Y-94186956D01*
X136001317Y-94235703D01*
X136018500Y-94299224D01*
X136018500Y-95175924D01*
X135998498Y-95244045D01*
X135944842Y-95290538D01*
X135931438Y-95295756D01*
X135895716Y-95307363D01*
X135895714Y-95307364D01*
X135712193Y-95400873D01*
X135545567Y-95521934D01*
X135545564Y-95521936D01*
X135399936Y-95667564D01*
X135399934Y-95667567D01*
X135278873Y-95834193D01*
X135185367Y-96017708D01*
X135185364Y-96017714D01*
X135121721Y-96213587D01*
X135121720Y-96213590D01*
X135121720Y-96213592D01*
X135089500Y-96417019D01*
X134312500Y-96417019D01*
X134312500Y-94418219D01*
X134285273Y-94281338D01*
X134246580Y-94187925D01*
X134231865Y-94152399D01*
X134169601Y-94059216D01*
X134154328Y-94036358D01*
X134055642Y-93937672D01*
X133547643Y-93429672D01*
X133525137Y-93414634D01*
X133431601Y-93352135D01*
X133324520Y-93307781D01*
X133324518Y-93307779D01*
X133302665Y-93298728D01*
X133302663Y-93298727D01*
X133302662Y-93298727D01*
X133234221Y-93285113D01*
X133234220Y-93285112D01*
X133165787Y-93271500D01*
X133165782Y-93271500D01*
X133165781Y-93271500D01*
X127974644Y-93271500D01*
X127906523Y-93251498D01*
X127872708Y-93219561D01*
X127831566Y-93162934D01*
X127782206Y-93094996D01*
X127782203Y-93094993D01*
X127782201Y-93094990D01*
X127631009Y-92943798D01*
X127631006Y-92943796D01*
X127631004Y-92943794D01*
X127518057Y-92861733D01*
X127506439Y-92853292D01*
X127463085Y-92797070D01*
X127454500Y-92751356D01*
X127454500Y-90608220D01*
X127454499Y-90608216D01*
X127453224Y-90601806D01*
X127427273Y-90471338D01*
X127405150Y-90417930D01*
X127373865Y-90342400D01*
X127296328Y-90226358D01*
X127294626Y-90224656D01*
X127289201Y-90215075D01*
X127282137Y-90184854D01*
X127272864Y-90155240D01*
X127273404Y-90147495D01*
X127273041Y-90145941D01*
X127273627Y-90144290D01*
X127274396Y-90133279D01*
X127292500Y-90018983D01*
X127292500Y-89813061D01*
X129502000Y-89813061D01*
X129502000Y-90018938D01*
X129534208Y-90222296D01*
X129597826Y-90418093D01*
X129597829Y-90418099D01*
X129691297Y-90601540D01*
X129691298Y-90601541D01*
X129722416Y-90644372D01*
X130410000Y-89956788D01*
X130410000Y-89968661D01*
X130437259Y-90070394D01*
X130489920Y-90161606D01*
X130564394Y-90236080D01*
X130655606Y-90288741D01*
X130757339Y-90316000D01*
X130769210Y-90316000D01*
X130081626Y-91003582D01*
X130081626Y-91003583D01*
X130124454Y-91034699D01*
X130307900Y-91128170D01*
X130307906Y-91128173D01*
X130503705Y-91191791D01*
X130503701Y-91191791D01*
X130707061Y-91224000D01*
X130912939Y-91224000D01*
X131116296Y-91191791D01*
X131312093Y-91128173D01*
X131312099Y-91128170D01*
X131495541Y-91034701D01*
X131538372Y-91003582D01*
X131538372Y-91003581D01*
X130850791Y-90316000D01*
X130862661Y-90316000D01*
X130964394Y-90288741D01*
X131055606Y-90236080D01*
X131130080Y-90161606D01*
X131182741Y-90070394D01*
X131210000Y-89968661D01*
X131210000Y-89956791D01*
X131897581Y-90644372D01*
X131897582Y-90644372D01*
X131928701Y-90601541D01*
X132022170Y-90418099D01*
X132022173Y-90418093D01*
X132085791Y-90222296D01*
X132118000Y-90018938D01*
X132118000Y-89813061D01*
X132085791Y-89609705D01*
X132053711Y-89510972D01*
X132053710Y-89510970D01*
X132022173Y-89413906D01*
X132022170Y-89413900D01*
X131928699Y-89230454D01*
X131897583Y-89187626D01*
X131897582Y-89187626D01*
X131210000Y-89875208D01*
X131210000Y-89863339D01*
X131182741Y-89761606D01*
X131130080Y-89670394D01*
X131055606Y-89595920D01*
X130964394Y-89543259D01*
X130862661Y-89516000D01*
X130850790Y-89516000D01*
X131538372Y-88828416D01*
X131495541Y-88797298D01*
X131495540Y-88797297D01*
X131312099Y-88703829D01*
X131312093Y-88703826D01*
X131116294Y-88640208D01*
X131116298Y-88640208D01*
X130912939Y-88608000D01*
X130707061Y-88608000D01*
X130503703Y-88640208D01*
X130307906Y-88703826D01*
X130307900Y-88703829D01*
X130124452Y-88797301D01*
X130081625Y-88828416D01*
X130769209Y-89516000D01*
X130757339Y-89516000D01*
X130655606Y-89543259D01*
X130564394Y-89595920D01*
X130489920Y-89670394D01*
X130437259Y-89761606D01*
X130410000Y-89863339D01*
X130410000Y-89875209D01*
X129722416Y-89187625D01*
X129691301Y-89230452D01*
X129597829Y-89413900D01*
X129597826Y-89413906D01*
X129534208Y-89609703D01*
X129502000Y-89813061D01*
X127292500Y-89813061D01*
X127292500Y-89813022D01*
X127292500Y-89813019D01*
X127260280Y-89609592D01*
X127196634Y-89413710D01*
X127103129Y-89230197D01*
X126982068Y-89063570D01*
X126982065Y-89063567D01*
X126982063Y-89063564D01*
X126836435Y-88917936D01*
X126836432Y-88917934D01*
X126836430Y-88917932D01*
X126670391Y-88797298D01*
X126669806Y-88796873D01*
X126669805Y-88796872D01*
X126669803Y-88796871D01*
X126486290Y-88703366D01*
X126486287Y-88703365D01*
X126486285Y-88703364D01*
X126290412Y-88639721D01*
X126290410Y-88639720D01*
X126290408Y-88639720D01*
X126086981Y-88607500D01*
X125881019Y-88607500D01*
X125677592Y-88639720D01*
X125677590Y-88639720D01*
X125677587Y-88639721D01*
X125481714Y-88703364D01*
X125481708Y-88703367D01*
X125298193Y-88796873D01*
X125131567Y-88917934D01*
X125131564Y-88917936D01*
X124985936Y-89063564D01*
X124985934Y-89063567D01*
X124864871Y-89230196D01*
X124845986Y-89267260D01*
X124797238Y-89318875D01*
X124728323Y-89335940D01*
X124661121Y-89313039D01*
X124621454Y-89267260D01*
X124602701Y-89230457D01*
X124571583Y-89187626D01*
X124571582Y-89187626D01*
X123884000Y-89875208D01*
X123884000Y-89863339D01*
X123856741Y-89761606D01*
X123804080Y-89670394D01*
X123729606Y-89595920D01*
X123638394Y-89543259D01*
X123536661Y-89516000D01*
X123524790Y-89516000D01*
X124212372Y-88828416D01*
X124169541Y-88797298D01*
X124169540Y-88797297D01*
X123986099Y-88703829D01*
X123986093Y-88703826D01*
X123790294Y-88640208D01*
X123790298Y-88640208D01*
X123586939Y-88608000D01*
X123381061Y-88608000D01*
X123177703Y-88640208D01*
X122981906Y-88703826D01*
X122981900Y-88703829D01*
X122798452Y-88797301D01*
X122755625Y-88828416D01*
X123443209Y-89516000D01*
X123431339Y-89516000D01*
X123329606Y-89543259D01*
X123238394Y-89595920D01*
X123163920Y-89670394D01*
X123111259Y-89761606D01*
X123084000Y-89863339D01*
X123084000Y-89875209D01*
X122396416Y-89187625D01*
X122365301Y-89230452D01*
X122271829Y-89413900D01*
X122271826Y-89413906D01*
X122208208Y-89609703D01*
X122176000Y-89813061D01*
X122176000Y-90018938D01*
X122208208Y-90222296D01*
X122271826Y-90418093D01*
X122271829Y-90418099D01*
X122365297Y-90601540D01*
X122365298Y-90601541D01*
X122396416Y-90644372D01*
X123084000Y-89956788D01*
X123084000Y-89968661D01*
X123111259Y-90070394D01*
X123163920Y-90161606D01*
X123238394Y-90236080D01*
X123329606Y-90288741D01*
X123431339Y-90316000D01*
X123443210Y-90316000D01*
X122755626Y-91003582D01*
X122755626Y-91003583D01*
X122798454Y-91034699D01*
X122981900Y-91128170D01*
X122981906Y-91128173D01*
X123177705Y-91191791D01*
X123177701Y-91191791D01*
X123381061Y-91224000D01*
X123586939Y-91224000D01*
X123790296Y-91191791D01*
X123986093Y-91128173D01*
X123986099Y-91128170D01*
X124169541Y-91034701D01*
X124212372Y-91003582D01*
X124212372Y-91003581D01*
X123524791Y-90316000D01*
X123536661Y-90316000D01*
X123638394Y-90288741D01*
X123729606Y-90236080D01*
X123804080Y-90161606D01*
X123856741Y-90070394D01*
X123884000Y-89968661D01*
X123884000Y-89956791D01*
X124571581Y-90644372D01*
X124571582Y-90644372D01*
X124602701Y-90601541D01*
X124621453Y-90564740D01*
X124670201Y-90513125D01*
X124739116Y-90496059D01*
X124806318Y-90518960D01*
X124845985Y-90564738D01*
X124864871Y-90601803D01*
X124985932Y-90768430D01*
X124985934Y-90768432D01*
X124985936Y-90768435D01*
X125131564Y-90914063D01*
X125131567Y-90914065D01*
X125131570Y-90914068D01*
X125298197Y-91035129D01*
X125481710Y-91128634D01*
X125677592Y-91192280D01*
X125881019Y-91224500D01*
X125911500Y-91224500D01*
X125979621Y-91244502D01*
X126026114Y-91298158D01*
X126037500Y-91350500D01*
X126037500Y-92751356D01*
X126017498Y-92819477D01*
X125985561Y-92853292D01*
X125860995Y-92943794D01*
X125758018Y-93046771D01*
X125695706Y-93080796D01*
X125624890Y-93075730D01*
X125568054Y-93033184D01*
X125550871Y-93001715D01*
X125506889Y-92883796D01*
X125506886Y-92883792D01*
X125506886Y-92883791D01*
X125419261Y-92766738D01*
X125302207Y-92679112D01*
X125302202Y-92679110D01*
X125165204Y-92628011D01*
X125165196Y-92628009D01*
X125104649Y-92621500D01*
X125104638Y-92621500D01*
X123307362Y-92621500D01*
X123307350Y-92621500D01*
X123246803Y-92628009D01*
X123246795Y-92628011D01*
X123109797Y-92679110D01*
X123109792Y-92679112D01*
X122992738Y-92766738D01*
X122905112Y-92883792D01*
X122905110Y-92883797D01*
X122854011Y-93020795D01*
X122854009Y-93020803D01*
X122847500Y-93081350D01*
X122847500Y-94878649D01*
X122854009Y-94939196D01*
X122854011Y-94939204D01*
X122905110Y-95076202D01*
X122905112Y-95076207D01*
X122992738Y-95193261D01*
X123109791Y-95280886D01*
X123109792Y-95280886D01*
X123109796Y-95280889D01*
X123227711Y-95324869D01*
X123284543Y-95367414D01*
X123309354Y-95433934D01*
X123294263Y-95503308D01*
X123272771Y-95532018D01*
X123169794Y-95634995D01*
X123044104Y-95807992D01*
X123044104Y-95807993D01*
X122976949Y-95939791D01*
X122928201Y-95991406D01*
X122859286Y-96008472D01*
X122792085Y-95985571D01*
X122775588Y-95971683D01*
X121066405Y-94262500D01*
X121032379Y-94200188D01*
X121029500Y-94173405D01*
X121029500Y-91377607D01*
X121029499Y-91377603D01*
X121005155Y-91255215D01*
X120957400Y-91139925D01*
X120949856Y-91128634D01*
X120888072Y-91036167D01*
X119951223Y-90099318D01*
X119936944Y-90073168D01*
X119920266Y-90048474D01*
X119920126Y-90042367D01*
X119917200Y-90037008D01*
X119919325Y-90007286D01*
X119918645Y-89977495D01*
X119921950Y-89970573D01*
X119922264Y-89966193D01*
X119932795Y-89944541D01*
X119935418Y-89940245D01*
X120001129Y-89849803D01*
X120094634Y-89666290D01*
X120158280Y-89470408D01*
X120190500Y-89266981D01*
X120190500Y-89061019D01*
X120158280Y-88857592D01*
X120158278Y-88857587D01*
X120094635Y-88661714D01*
X120094634Y-88661710D01*
X120001129Y-88478197D01*
X119880068Y-88311570D01*
X119880065Y-88311567D01*
X119880063Y-88311564D01*
X119734435Y-88165936D01*
X119734432Y-88165934D01*
X119734430Y-88165932D01*
X119567803Y-88044871D01*
X119491486Y-88005985D01*
X119439873Y-87957239D01*
X119422807Y-87888324D01*
X119445708Y-87821122D01*
X119491488Y-87781453D01*
X119567541Y-87742701D01*
X119610372Y-87711582D01*
X119610372Y-87711581D01*
X118922791Y-87024000D01*
X118934661Y-87024000D01*
X119036394Y-86996741D01*
X119127606Y-86944080D01*
X119202080Y-86869606D01*
X119254741Y-86778394D01*
X119282000Y-86676661D01*
X119282000Y-86664791D01*
X119969581Y-87352372D01*
X119969582Y-87352372D01*
X120000701Y-87309541D01*
X120094170Y-87126099D01*
X120094173Y-87126093D01*
X120157791Y-86930296D01*
X120190000Y-86726938D01*
X120190000Y-86521061D01*
X120157791Y-86317703D01*
X120094173Y-86121906D01*
X120094170Y-86121900D01*
X120000699Y-85938454D01*
X119969583Y-85895626D01*
X119969582Y-85895626D01*
X119282000Y-86583208D01*
X119282000Y-86571339D01*
X119254741Y-86469606D01*
X119202080Y-86378394D01*
X119127606Y-86303920D01*
X119036394Y-86251259D01*
X118934661Y-86224000D01*
X118922790Y-86224000D01*
X119610372Y-85536416D01*
X119567541Y-85505298D01*
X119567535Y-85505294D01*
X119491487Y-85466545D01*
X119439872Y-85417797D01*
X119422807Y-85348882D01*
X119445708Y-85281680D01*
X119491485Y-85242014D01*
X119567803Y-85203129D01*
X119734430Y-85082068D01*
X119880068Y-84936430D01*
X119970006Y-84812639D01*
X120001394Y-84769439D01*
X120057616Y-84726085D01*
X120103330Y-84717500D01*
X121869406Y-84717500D01*
X121937527Y-84737502D01*
X121958501Y-84754405D01*
X122386437Y-85182341D01*
X122420463Y-85244653D01*
X122421791Y-85291147D01*
X122421721Y-85291588D01*
X122421720Y-85291592D01*
X122389500Y-85495019D01*
X122389500Y-85700981D01*
X122417632Y-85878595D01*
X122421721Y-85904412D01*
X122482045Y-86090071D01*
X122485366Y-86100290D01*
X122578871Y-86283803D01*
X122699932Y-86450430D01*
X122699934Y-86450432D01*
X122699936Y-86450435D01*
X122845564Y-86596063D01*
X122845567Y-86596065D01*
X122845570Y-86596068D01*
X123012197Y-86717129D01*
X123195710Y-86810634D01*
X123391592Y-86874280D01*
X123595019Y-86906500D01*
X123595022Y-86906500D01*
X123800978Y-86906500D01*
X123800981Y-86906500D01*
X124004408Y-86874280D01*
X124200290Y-86810634D01*
X124383803Y-86717129D01*
X124550430Y-86596068D01*
X124696068Y-86450430D01*
X124817129Y-86283803D01*
X124910634Y-86100290D01*
X124974280Y-85904408D01*
X125006500Y-85700981D01*
X125006500Y-85495019D01*
X130009500Y-85495019D01*
X130009500Y-85700981D01*
X130037632Y-85878595D01*
X130041721Y-85904412D01*
X130102045Y-86090071D01*
X130105366Y-86100290D01*
X130198871Y-86283803D01*
X130319932Y-86450430D01*
X130319934Y-86450432D01*
X130319936Y-86450435D01*
X130465564Y-86596063D01*
X130465567Y-86596065D01*
X130465570Y-86596068D01*
X130632197Y-86717129D01*
X130815710Y-86810634D01*
X131011592Y-86874280D01*
X131215019Y-86906500D01*
X131215022Y-86906500D01*
X131420978Y-86906500D01*
X131420981Y-86906500D01*
X131624408Y-86874280D01*
X131820290Y-86810634D01*
X132003803Y-86717129D01*
X132170430Y-86596068D01*
X132316068Y-86450430D01*
X132412499Y-86317703D01*
X132437394Y-86283439D01*
X132493616Y-86240085D01*
X132539330Y-86231500D01*
X133398670Y-86231500D01*
X133466791Y-86251502D01*
X133500606Y-86283439D01*
X133527169Y-86319999D01*
X133621932Y-86450430D01*
X133621934Y-86450432D01*
X133621936Y-86450435D01*
X133767564Y-86596063D01*
X133767567Y-86596065D01*
X133767570Y-86596068D01*
X133934197Y-86717129D01*
X134117710Y-86810634D01*
X134313592Y-86874280D01*
X134517019Y-86906500D01*
X134517022Y-86906500D01*
X134722978Y-86906500D01*
X134722981Y-86906500D01*
X134926408Y-86874280D01*
X135122290Y-86810634D01*
X135305803Y-86717129D01*
X135472430Y-86596068D01*
X135618068Y-86450430D01*
X135739129Y-86283803D01*
X135832634Y-86100290D01*
X135896280Y-85904408D01*
X135928500Y-85700981D01*
X135928500Y-85495019D01*
X140931500Y-85495019D01*
X140931500Y-85700981D01*
X140959632Y-85878595D01*
X140963721Y-85904412D01*
X141024045Y-86090071D01*
X141027366Y-86100290D01*
X141120871Y-86283803D01*
X141241932Y-86450430D01*
X141241934Y-86450432D01*
X141241936Y-86450435D01*
X141387564Y-86596063D01*
X141387567Y-86596065D01*
X141387570Y-86596068D01*
X141554197Y-86717129D01*
X141737710Y-86810634D01*
X141933592Y-86874280D01*
X142137019Y-86906500D01*
X142137022Y-86906500D01*
X142342978Y-86906500D01*
X142342981Y-86906500D01*
X142546408Y-86874280D01*
X142742290Y-86810634D01*
X142925803Y-86717129D01*
X143092430Y-86596068D01*
X143238068Y-86450430D01*
X143334499Y-86317703D01*
X143359394Y-86283439D01*
X143415616Y-86240085D01*
X143461330Y-86231500D01*
X144320670Y-86231500D01*
X144388791Y-86251502D01*
X144422606Y-86283439D01*
X144449169Y-86319999D01*
X144543932Y-86450430D01*
X144543934Y-86450432D01*
X144543936Y-86450435D01*
X144689564Y-86596063D01*
X144689567Y-86596065D01*
X144689570Y-86596068D01*
X144856197Y-86717129D01*
X145039710Y-86810634D01*
X145235592Y-86874280D01*
X145439019Y-86906500D01*
X145439022Y-86906500D01*
X145644978Y-86906500D01*
X145644981Y-86906500D01*
X145848408Y-86874280D01*
X146044290Y-86810634D01*
X146227803Y-86717129D01*
X146394430Y-86596068D01*
X146540068Y-86450430D01*
X146636499Y-86317703D01*
X146661394Y-86283439D01*
X146717616Y-86240085D01*
X146763330Y-86231500D01*
X146874393Y-86231500D01*
X146874394Y-86231500D01*
X146996785Y-86207155D01*
X147112075Y-86159400D01*
X147215833Y-86090071D01*
X147810885Y-85495019D01*
X151853500Y-85495019D01*
X151853500Y-85700981D01*
X151881632Y-85878595D01*
X151885721Y-85904412D01*
X151946045Y-86090071D01*
X151949366Y-86100290D01*
X152042871Y-86283803D01*
X152163932Y-86450430D01*
X152163934Y-86450432D01*
X152163936Y-86450435D01*
X152309564Y-86596063D01*
X152309567Y-86596065D01*
X152309570Y-86596068D01*
X152476197Y-86717129D01*
X152659710Y-86810634D01*
X152855592Y-86874280D01*
X153059019Y-86906500D01*
X153059022Y-86906500D01*
X153264978Y-86906500D01*
X153264981Y-86906500D01*
X153468408Y-86874280D01*
X153664290Y-86810634D01*
X153847803Y-86717129D01*
X154014430Y-86596068D01*
X154160068Y-86450430D01*
X154256499Y-86317703D01*
X154281394Y-86283439D01*
X154337616Y-86240085D01*
X154383330Y-86231500D01*
X155750670Y-86231500D01*
X155818791Y-86251502D01*
X155852606Y-86283439D01*
X155879169Y-86319999D01*
X155973932Y-86450430D01*
X155973934Y-86450432D01*
X155973936Y-86450435D01*
X156119564Y-86596063D01*
X156119567Y-86596065D01*
X156119570Y-86596068D01*
X156286197Y-86717129D01*
X156469710Y-86810634D01*
X156665592Y-86874280D01*
X156869019Y-86906500D01*
X156869022Y-86906500D01*
X157074978Y-86906500D01*
X157074981Y-86906500D01*
X157278408Y-86874280D01*
X157474290Y-86810634D01*
X157657803Y-86717129D01*
X157824430Y-86596068D01*
X157970068Y-86450430D01*
X158091129Y-86283803D01*
X158184634Y-86100290D01*
X158248280Y-85904408D01*
X158280500Y-85700981D01*
X158280500Y-85495019D01*
X158248280Y-85291592D01*
X158184634Y-85095710D01*
X158091129Y-84912197D01*
X157970068Y-84745570D01*
X157970065Y-84745567D01*
X157970063Y-84745564D01*
X157824435Y-84599936D01*
X157824432Y-84599934D01*
X157824430Y-84599932D01*
X157688637Y-84501273D01*
X157657806Y-84478873D01*
X157657805Y-84478872D01*
X157657803Y-84478871D01*
X157474290Y-84385366D01*
X157474287Y-84385365D01*
X157474285Y-84385364D01*
X157278412Y-84321721D01*
X157278410Y-84321720D01*
X157278408Y-84321720D01*
X157074981Y-84289500D01*
X156869019Y-84289500D01*
X156665592Y-84321720D01*
X156665590Y-84321720D01*
X156665587Y-84321721D01*
X156469714Y-84385364D01*
X156469708Y-84385367D01*
X156286193Y-84478873D01*
X156119567Y-84599934D01*
X156119564Y-84599936D01*
X155973936Y-84745564D01*
X155973934Y-84745567D01*
X155852606Y-84912561D01*
X155796384Y-84955915D01*
X155750670Y-84964500D01*
X154383330Y-84964500D01*
X154315209Y-84944498D01*
X154281394Y-84912561D01*
X154233241Y-84846285D01*
X154160068Y-84745570D01*
X154160065Y-84745567D01*
X154160063Y-84745564D01*
X154014435Y-84599936D01*
X154014432Y-84599934D01*
X154014430Y-84599932D01*
X153878637Y-84501273D01*
X153847806Y-84478873D01*
X153847805Y-84478872D01*
X153847803Y-84478871D01*
X153664290Y-84385366D01*
X153664287Y-84385365D01*
X153664285Y-84385364D01*
X153468412Y-84321721D01*
X153468410Y-84321720D01*
X153468408Y-84321720D01*
X153264981Y-84289500D01*
X153059019Y-84289500D01*
X152855592Y-84321720D01*
X152855590Y-84321720D01*
X152855587Y-84321721D01*
X152659714Y-84385364D01*
X152659708Y-84385367D01*
X152476193Y-84478873D01*
X152309567Y-84599934D01*
X152309564Y-84599936D01*
X152163936Y-84745564D01*
X152163934Y-84745567D01*
X152042873Y-84912193D01*
X151949367Y-85095708D01*
X151949364Y-85095714D01*
X151885721Y-85291587D01*
X151885720Y-85291590D01*
X151885720Y-85291592D01*
X151853500Y-85495019D01*
X147810885Y-85495019D01*
X151101499Y-82204405D01*
X151163811Y-82170379D01*
X151190594Y-82167500D01*
X151940670Y-82167500D01*
X152008791Y-82187502D01*
X152042606Y-82219439D01*
X152067477Y-82253671D01*
X152163932Y-82386430D01*
X152163934Y-82386432D01*
X152163936Y-82386435D01*
X152309564Y-82532063D01*
X152309567Y-82532065D01*
X152309570Y-82532068D01*
X152476197Y-82653129D01*
X152659710Y-82746634D01*
X152855592Y-82810280D01*
X153059019Y-82842500D01*
X153059022Y-82842500D01*
X153264978Y-82842500D01*
X153264981Y-82842500D01*
X153468408Y-82810280D01*
X153664290Y-82746634D01*
X153847803Y-82653129D01*
X154014430Y-82532068D01*
X154160068Y-82386430D01*
X154281129Y-82219803D01*
X154374634Y-82036290D01*
X154438280Y-81840408D01*
X154470500Y-81636981D01*
X154470500Y-81431019D01*
X154438280Y-81227592D01*
X154374634Y-81031710D01*
X154281129Y-80848197D01*
X154160068Y-80681570D01*
X154160065Y-80681567D01*
X154160063Y-80681564D01*
X154014435Y-80535936D01*
X154014432Y-80535934D01*
X154014430Y-80535932D01*
X153847803Y-80414871D01*
X153664290Y-80321366D01*
X153664287Y-80321365D01*
X153664285Y-80321364D01*
X153468412Y-80257721D01*
X153468410Y-80257720D01*
X153468408Y-80257720D01*
X153264981Y-80225500D01*
X153059019Y-80225500D01*
X152855592Y-80257720D01*
X152855590Y-80257720D01*
X152855587Y-80257721D01*
X152659714Y-80321364D01*
X152659708Y-80321367D01*
X152476193Y-80414873D01*
X152309567Y-80535934D01*
X152309564Y-80535936D01*
X152163936Y-80681564D01*
X152163934Y-80681567D01*
X152042606Y-80848561D01*
X151986384Y-80891915D01*
X151940670Y-80900500D01*
X150813603Y-80900500D01*
X150740568Y-80915028D01*
X150691215Y-80924845D01*
X150691213Y-80924845D01*
X150691212Y-80924846D01*
X150575923Y-80972601D01*
X150472171Y-81041926D01*
X150472164Y-81041931D01*
X146740522Y-84773572D01*
X146678210Y-84807598D01*
X146607394Y-84802533D01*
X146550559Y-84759986D01*
X146549492Y-84758539D01*
X146540072Y-84745574D01*
X146540066Y-84745567D01*
X146394435Y-84599936D01*
X146394432Y-84599934D01*
X146394430Y-84599932D01*
X146258637Y-84501273D01*
X146227806Y-84478873D01*
X146227805Y-84478872D01*
X146227803Y-84478871D01*
X146044290Y-84385366D01*
X146044287Y-84385365D01*
X146044285Y-84385364D01*
X145848412Y-84321721D01*
X145848410Y-84321720D01*
X145848408Y-84321720D01*
X145644981Y-84289500D01*
X145439019Y-84289500D01*
X145235592Y-84321720D01*
X145235590Y-84321720D01*
X145235587Y-84321721D01*
X145039714Y-84385364D01*
X145039708Y-84385367D01*
X144856193Y-84478873D01*
X144689567Y-84599934D01*
X144689564Y-84599936D01*
X144543936Y-84745564D01*
X144543934Y-84745567D01*
X144422606Y-84912561D01*
X144366384Y-84955915D01*
X144320670Y-84964500D01*
X143461330Y-84964500D01*
X143393209Y-84944498D01*
X143359394Y-84912561D01*
X143311241Y-84846285D01*
X143238068Y-84745570D01*
X143238065Y-84745567D01*
X143238063Y-84745564D01*
X143092435Y-84599936D01*
X143092432Y-84599934D01*
X143092430Y-84599932D01*
X142956637Y-84501273D01*
X142925806Y-84478873D01*
X142925805Y-84478872D01*
X142925803Y-84478871D01*
X142742290Y-84385366D01*
X142742287Y-84385365D01*
X142742285Y-84385364D01*
X142546412Y-84321721D01*
X142546410Y-84321720D01*
X142546408Y-84321720D01*
X142342981Y-84289500D01*
X142137019Y-84289500D01*
X141933592Y-84321720D01*
X141933590Y-84321720D01*
X141933587Y-84321721D01*
X141737714Y-84385364D01*
X141737708Y-84385367D01*
X141554193Y-84478873D01*
X141387567Y-84599934D01*
X141387564Y-84599936D01*
X141241936Y-84745564D01*
X141241934Y-84745567D01*
X141120873Y-84912193D01*
X141027367Y-85095708D01*
X141027364Y-85095714D01*
X140963721Y-85291587D01*
X140963720Y-85291590D01*
X140963720Y-85291592D01*
X140931500Y-85495019D01*
X135928500Y-85495019D01*
X135896280Y-85291592D01*
X135832634Y-85095710D01*
X135739129Y-84912197D01*
X135618068Y-84745570D01*
X135618065Y-84745567D01*
X135618063Y-84745564D01*
X135472435Y-84599936D01*
X135472432Y-84599934D01*
X135472430Y-84599932D01*
X135336637Y-84501273D01*
X135305806Y-84478873D01*
X135305805Y-84478872D01*
X135305803Y-84478871D01*
X135122290Y-84385366D01*
X135122287Y-84385365D01*
X135122285Y-84385364D01*
X134926412Y-84321721D01*
X134926410Y-84321720D01*
X134926408Y-84321720D01*
X134722981Y-84289500D01*
X134517019Y-84289500D01*
X134313592Y-84321720D01*
X134313590Y-84321720D01*
X134313587Y-84321721D01*
X134117714Y-84385364D01*
X134117708Y-84385367D01*
X133934193Y-84478873D01*
X133767567Y-84599934D01*
X133767564Y-84599936D01*
X133621936Y-84745564D01*
X133621934Y-84745567D01*
X133500606Y-84912561D01*
X133444384Y-84955915D01*
X133398670Y-84964500D01*
X132539330Y-84964500D01*
X132471209Y-84944498D01*
X132437394Y-84912561D01*
X132389241Y-84846285D01*
X132316068Y-84745570D01*
X132316065Y-84745567D01*
X132316063Y-84745564D01*
X132170435Y-84599936D01*
X132170432Y-84599934D01*
X132170430Y-84599932D01*
X132034637Y-84501273D01*
X132003806Y-84478873D01*
X132003805Y-84478872D01*
X132003803Y-84478871D01*
X131820290Y-84385366D01*
X131820287Y-84385365D01*
X131820285Y-84385364D01*
X131624412Y-84321721D01*
X131624410Y-84321720D01*
X131624408Y-84321720D01*
X131420981Y-84289500D01*
X131215019Y-84289500D01*
X131011592Y-84321720D01*
X131011590Y-84321720D01*
X131011587Y-84321721D01*
X130815714Y-84385364D01*
X130815708Y-84385367D01*
X130632193Y-84478873D01*
X130465567Y-84599934D01*
X130465564Y-84599936D01*
X130319936Y-84745564D01*
X130319934Y-84745567D01*
X130198873Y-84912193D01*
X130105367Y-85095708D01*
X130105364Y-85095714D01*
X130041721Y-85291587D01*
X130041720Y-85291590D01*
X130041720Y-85291592D01*
X130009500Y-85495019D01*
X125006500Y-85495019D01*
X124974280Y-85291592D01*
X124910634Y-85095710D01*
X124817129Y-84912197D01*
X124696068Y-84745570D01*
X124696065Y-84745567D01*
X124696063Y-84745564D01*
X124550435Y-84599936D01*
X124550432Y-84599934D01*
X124550430Y-84599932D01*
X124414637Y-84501273D01*
X124383806Y-84478873D01*
X124383805Y-84478872D01*
X124383803Y-84478871D01*
X124200290Y-84385366D01*
X124200287Y-84385365D01*
X124200285Y-84385364D01*
X124004412Y-84321721D01*
X124004410Y-84321720D01*
X124004408Y-84321720D01*
X123800981Y-84289500D01*
X123595019Y-84289500D01*
X123391592Y-84321720D01*
X123391588Y-84321721D01*
X123391147Y-84321791D01*
X123320736Y-84312691D01*
X123282341Y-84286437D01*
X122587835Y-83591931D01*
X122587833Y-83591929D01*
X122484075Y-83522600D01*
X122368785Y-83474845D01*
X122295086Y-83460185D01*
X122246396Y-83450500D01*
X122246394Y-83450500D01*
X120103330Y-83450500D01*
X120035209Y-83430498D01*
X120001394Y-83398561D01*
X119953241Y-83332285D01*
X119880068Y-83231570D01*
X119880065Y-83231567D01*
X119880063Y-83231564D01*
X119734435Y-83085936D01*
X119734432Y-83085934D01*
X119734430Y-83085932D01*
X119567803Y-82964871D01*
X119492034Y-82926265D01*
X119440422Y-82877519D01*
X119423356Y-82808604D01*
X119446257Y-82741402D01*
X119492034Y-82701735D01*
X119567803Y-82663129D01*
X119734430Y-82542068D01*
X119880068Y-82396430D01*
X120001129Y-82229803D01*
X120001131Y-82229800D01*
X120002441Y-82227663D01*
X120003150Y-82227021D01*
X120004039Y-82225798D01*
X120004296Y-82225984D01*
X120055089Y-82180032D01*
X120109872Y-82167500D01*
X122476670Y-82167500D01*
X122544791Y-82187502D01*
X122578606Y-82219439D01*
X122603477Y-82253671D01*
X122699932Y-82386430D01*
X122699934Y-82386432D01*
X122699936Y-82386435D01*
X122845564Y-82532063D01*
X122845567Y-82532065D01*
X122845570Y-82532068D01*
X123012197Y-82653129D01*
X123195710Y-82746634D01*
X123391592Y-82810280D01*
X123595019Y-82842500D01*
X123595022Y-82842500D01*
X123800978Y-82842500D01*
X123800981Y-82842500D01*
X124004408Y-82810280D01*
X124200290Y-82746634D01*
X124383803Y-82653129D01*
X124550430Y-82532068D01*
X124696068Y-82386430D01*
X124817129Y-82219803D01*
X124910634Y-82036290D01*
X124974280Y-81840408D01*
X125006500Y-81636981D01*
X125006500Y-81431019D01*
X130009500Y-81431019D01*
X130009500Y-81636981D01*
X130011084Y-81646981D01*
X130041721Y-81840412D01*
X130102045Y-82026071D01*
X130105366Y-82036290D01*
X130198686Y-82219439D01*
X130198873Y-82219806D01*
X130207095Y-82231122D01*
X130319932Y-82386430D01*
X130319934Y-82386432D01*
X130319936Y-82386435D01*
X130465564Y-82532063D01*
X130465567Y-82532065D01*
X130465570Y-82532068D01*
X130632197Y-82653129D01*
X130815710Y-82746634D01*
X131011592Y-82810280D01*
X131215019Y-82842500D01*
X131215022Y-82842500D01*
X131420978Y-82842500D01*
X131420981Y-82842500D01*
X131624408Y-82810280D01*
X131820290Y-82746634D01*
X132003803Y-82653129D01*
X132170430Y-82532068D01*
X132316068Y-82386430D01*
X132412523Y-82253671D01*
X132437394Y-82219439D01*
X132493616Y-82176085D01*
X132539330Y-82167500D01*
X133398670Y-82167500D01*
X133466791Y-82187502D01*
X133500606Y-82219439D01*
X133525477Y-82253671D01*
X133621932Y-82386430D01*
X133621934Y-82386432D01*
X133621936Y-82386435D01*
X133767564Y-82532063D01*
X133767567Y-82532065D01*
X133767570Y-82532068D01*
X133934197Y-82653129D01*
X134117710Y-82746634D01*
X134313592Y-82810280D01*
X134517019Y-82842500D01*
X134517022Y-82842500D01*
X134722978Y-82842500D01*
X134722981Y-82842500D01*
X134926408Y-82810280D01*
X135122290Y-82746634D01*
X135305803Y-82653129D01*
X135472430Y-82532068D01*
X135618068Y-82386430D01*
X135739129Y-82219803D01*
X135832634Y-82036290D01*
X135896280Y-81840408D01*
X135928500Y-81636981D01*
X135928500Y-81431019D01*
X140931500Y-81431019D01*
X140931500Y-81636981D01*
X140933084Y-81646981D01*
X140963721Y-81840412D01*
X141024045Y-82026071D01*
X141027366Y-82036290D01*
X141120686Y-82219439D01*
X141120873Y-82219806D01*
X141129095Y-82231122D01*
X141241932Y-82386430D01*
X141241934Y-82386432D01*
X141241936Y-82386435D01*
X141387564Y-82532063D01*
X141387567Y-82532065D01*
X141387570Y-82532068D01*
X141554197Y-82653129D01*
X141737710Y-82746634D01*
X141933592Y-82810280D01*
X142137019Y-82842500D01*
X142137022Y-82842500D01*
X142342978Y-82842500D01*
X142342981Y-82842500D01*
X142546408Y-82810280D01*
X142742290Y-82746634D01*
X142925803Y-82653129D01*
X143092430Y-82532068D01*
X143238068Y-82386430D01*
X143334523Y-82253671D01*
X143359394Y-82219439D01*
X143415616Y-82176085D01*
X143461330Y-82167500D01*
X144320670Y-82167500D01*
X144388791Y-82187502D01*
X144422606Y-82219439D01*
X144447477Y-82253671D01*
X144543932Y-82386430D01*
X144543934Y-82386432D01*
X144543936Y-82386435D01*
X144689564Y-82532063D01*
X144689567Y-82532065D01*
X144689570Y-82532068D01*
X144856197Y-82653129D01*
X145039710Y-82746634D01*
X145235592Y-82810280D01*
X145439019Y-82842500D01*
X145439022Y-82842500D01*
X145644978Y-82842500D01*
X145644981Y-82842500D01*
X145848408Y-82810280D01*
X146044290Y-82746634D01*
X146227803Y-82653129D01*
X146394430Y-82532068D01*
X146540068Y-82386430D01*
X146636523Y-82253671D01*
X146661394Y-82219439D01*
X146717616Y-82176085D01*
X146763330Y-82167500D01*
X147128393Y-82167500D01*
X147128394Y-82167500D01*
X147250785Y-82143155D01*
X147366075Y-82095400D01*
X147469833Y-82026071D01*
X151609499Y-77886405D01*
X151636867Y-77871460D01*
X151663096Y-77854604D01*
X151669394Y-77853698D01*
X151671811Y-77852379D01*
X151698594Y-77849500D01*
X151940670Y-77849500D01*
X152008791Y-77869502D01*
X152042606Y-77901439D01*
X152096249Y-77975272D01*
X152163932Y-78068430D01*
X152163934Y-78068432D01*
X152163936Y-78068435D01*
X152309564Y-78214063D01*
X152309567Y-78214065D01*
X152309570Y-78214068D01*
X152476197Y-78335129D01*
X152659710Y-78428634D01*
X152855592Y-78492280D01*
X153059019Y-78524500D01*
X153059022Y-78524500D01*
X153264978Y-78524500D01*
X153264981Y-78524500D01*
X153468408Y-78492280D01*
X153664290Y-78428634D01*
X153847803Y-78335129D01*
X154014430Y-78214068D01*
X154160068Y-78068430D01*
X154281129Y-77901803D01*
X154294755Y-77875061D01*
X155664000Y-77875061D01*
X155664000Y-78080938D01*
X155696208Y-78284296D01*
X155759826Y-78480093D01*
X155759829Y-78480099D01*
X155853297Y-78663540D01*
X155853298Y-78663541D01*
X155884416Y-78706372D01*
X156572000Y-78018788D01*
X156572000Y-78030661D01*
X156599259Y-78132394D01*
X156651920Y-78223606D01*
X156726394Y-78298080D01*
X156817606Y-78350741D01*
X156919339Y-78378000D01*
X156931210Y-78378000D01*
X156243626Y-79065582D01*
X156243626Y-79065583D01*
X156286454Y-79096699D01*
X156469900Y-79190170D01*
X156469906Y-79190173D01*
X156665705Y-79253791D01*
X156665701Y-79253791D01*
X156869061Y-79286000D01*
X157074939Y-79286000D01*
X157278296Y-79253791D01*
X157474093Y-79190173D01*
X157474099Y-79190170D01*
X157657541Y-79096701D01*
X157700372Y-79065582D01*
X157700372Y-79065581D01*
X157012791Y-78378000D01*
X157024661Y-78378000D01*
X157126394Y-78350741D01*
X157217606Y-78298080D01*
X157292080Y-78223606D01*
X157344741Y-78132394D01*
X157372000Y-78030661D01*
X157372000Y-78018791D01*
X158059581Y-78706372D01*
X158059582Y-78706372D01*
X158090701Y-78663541D01*
X158184170Y-78480099D01*
X158184173Y-78480093D01*
X158247791Y-78284296D01*
X158280000Y-78080938D01*
X158280000Y-77875061D01*
X158247791Y-77671703D01*
X158184173Y-77475906D01*
X158184170Y-77475900D01*
X158090699Y-77292454D01*
X158059583Y-77249626D01*
X158059582Y-77249626D01*
X157372000Y-77937208D01*
X157372000Y-77925339D01*
X157344741Y-77823606D01*
X157292080Y-77732394D01*
X157217606Y-77657920D01*
X157126394Y-77605259D01*
X157024661Y-77578000D01*
X157012790Y-77578000D01*
X157700372Y-76890416D01*
X157657541Y-76859298D01*
X157657540Y-76859297D01*
X157474099Y-76765829D01*
X157474093Y-76765826D01*
X157278294Y-76702208D01*
X157278298Y-76702208D01*
X157074939Y-76670000D01*
X156869061Y-76670000D01*
X156665703Y-76702208D01*
X156469906Y-76765826D01*
X156469900Y-76765829D01*
X156286452Y-76859301D01*
X156243625Y-76890416D01*
X156931209Y-77578000D01*
X156919339Y-77578000D01*
X156817606Y-77605259D01*
X156726394Y-77657920D01*
X156651920Y-77732394D01*
X156599259Y-77823606D01*
X156572000Y-77925339D01*
X156572000Y-77937209D01*
X155884416Y-77249625D01*
X155853301Y-77292452D01*
X155759829Y-77475900D01*
X155759826Y-77475906D01*
X155696208Y-77671703D01*
X155664000Y-77875061D01*
X154294755Y-77875061D01*
X154374634Y-77718290D01*
X154438280Y-77522408D01*
X154470500Y-77318981D01*
X154470500Y-77113019D01*
X154438280Y-76909592D01*
X154374634Y-76713710D01*
X154281129Y-76530197D01*
X154160068Y-76363570D01*
X154160065Y-76363567D01*
X154160063Y-76363564D01*
X154014435Y-76217936D01*
X154014432Y-76217934D01*
X154014430Y-76217932D01*
X153847803Y-76096871D01*
X153664290Y-76003366D01*
X153664287Y-76003365D01*
X153664285Y-76003364D01*
X153468412Y-75939721D01*
X153468410Y-75939720D01*
X153468408Y-75939720D01*
X153264981Y-75907500D01*
X153059019Y-75907500D01*
X152855592Y-75939720D01*
X152855590Y-75939720D01*
X152855587Y-75939721D01*
X152659714Y-76003364D01*
X152659708Y-76003367D01*
X152476193Y-76096873D01*
X152309567Y-76217934D01*
X152309564Y-76217936D01*
X152163936Y-76363564D01*
X152163934Y-76363567D01*
X152042606Y-76530561D01*
X151986384Y-76573915D01*
X151940670Y-76582500D01*
X151321603Y-76582500D01*
X151249021Y-76596938D01*
X151199215Y-76606845D01*
X151199213Y-76606845D01*
X151199212Y-76606846D01*
X151083923Y-76654601D01*
X150980171Y-76723926D01*
X150980164Y-76723931D01*
X146847407Y-80856688D01*
X146785095Y-80890714D01*
X146714279Y-80885649D01*
X146657444Y-80843102D01*
X146656376Y-80841654D01*
X146547333Y-80691570D01*
X146540068Y-80681570D01*
X146540065Y-80681567D01*
X146540063Y-80681564D01*
X146394435Y-80535936D01*
X146394432Y-80535934D01*
X146394430Y-80535932D01*
X146227803Y-80414871D01*
X146044290Y-80321366D01*
X146044287Y-80321365D01*
X146044285Y-80321364D01*
X145848412Y-80257721D01*
X145848410Y-80257720D01*
X145848408Y-80257720D01*
X145644981Y-80225500D01*
X145439019Y-80225500D01*
X145235592Y-80257720D01*
X145235590Y-80257720D01*
X145235587Y-80257721D01*
X145039714Y-80321364D01*
X145039708Y-80321367D01*
X144856193Y-80414873D01*
X144689567Y-80535934D01*
X144689564Y-80535936D01*
X144543936Y-80681564D01*
X144543934Y-80681567D01*
X144422606Y-80848561D01*
X144366384Y-80891915D01*
X144320670Y-80900500D01*
X143461330Y-80900500D01*
X143393209Y-80880498D01*
X143359394Y-80848561D01*
X143245333Y-80691570D01*
X143238068Y-80681570D01*
X143238065Y-80681567D01*
X143238063Y-80681564D01*
X143092435Y-80535936D01*
X143092432Y-80535934D01*
X143092430Y-80535932D01*
X142925803Y-80414871D01*
X142742290Y-80321366D01*
X142742287Y-80321365D01*
X142742285Y-80321364D01*
X142546412Y-80257721D01*
X142546410Y-80257720D01*
X142546408Y-80257720D01*
X142342981Y-80225500D01*
X142137019Y-80225500D01*
X141933592Y-80257720D01*
X141933590Y-80257720D01*
X141933587Y-80257721D01*
X141737714Y-80321364D01*
X141737708Y-80321367D01*
X141554193Y-80414873D01*
X141387567Y-80535934D01*
X141387564Y-80535936D01*
X141241936Y-80681564D01*
X141241934Y-80681567D01*
X141120873Y-80848193D01*
X141027367Y-81031708D01*
X141027364Y-81031714D01*
X140963721Y-81227587D01*
X140963720Y-81227590D01*
X140963720Y-81227592D01*
X140931500Y-81431019D01*
X135928500Y-81431019D01*
X135896280Y-81227592D01*
X135832634Y-81031710D01*
X135739129Y-80848197D01*
X135618068Y-80681570D01*
X135618065Y-80681567D01*
X135618063Y-80681564D01*
X135472435Y-80535936D01*
X135472432Y-80535934D01*
X135472430Y-80535932D01*
X135305803Y-80414871D01*
X135122290Y-80321366D01*
X135122287Y-80321365D01*
X135122285Y-80321364D01*
X134926412Y-80257721D01*
X134926410Y-80257720D01*
X134926408Y-80257720D01*
X134722981Y-80225500D01*
X134517019Y-80225500D01*
X134313592Y-80257720D01*
X134313590Y-80257720D01*
X134313587Y-80257721D01*
X134117714Y-80321364D01*
X134117708Y-80321367D01*
X133934193Y-80414873D01*
X133767567Y-80535934D01*
X133767564Y-80535936D01*
X133621936Y-80681564D01*
X133621934Y-80681567D01*
X133500606Y-80848561D01*
X133444384Y-80891915D01*
X133398670Y-80900500D01*
X132539330Y-80900500D01*
X132471209Y-80880498D01*
X132437394Y-80848561D01*
X132323333Y-80691570D01*
X132316068Y-80681570D01*
X132316065Y-80681567D01*
X132316063Y-80681564D01*
X132170435Y-80535936D01*
X132170432Y-80535934D01*
X132170430Y-80535932D01*
X132003803Y-80414871D01*
X131820290Y-80321366D01*
X131820287Y-80321365D01*
X131820285Y-80321364D01*
X131624412Y-80257721D01*
X131624410Y-80257720D01*
X131624408Y-80257720D01*
X131420981Y-80225500D01*
X131215019Y-80225500D01*
X131011592Y-80257720D01*
X131011590Y-80257720D01*
X131011587Y-80257721D01*
X130815714Y-80321364D01*
X130815708Y-80321367D01*
X130632193Y-80414873D01*
X130465567Y-80535934D01*
X130465564Y-80535936D01*
X130319936Y-80681564D01*
X130319934Y-80681567D01*
X130198873Y-80848193D01*
X130105367Y-81031708D01*
X130105364Y-81031714D01*
X130041721Y-81227587D01*
X130041720Y-81227590D01*
X130041720Y-81227592D01*
X130009500Y-81431019D01*
X125006500Y-81431019D01*
X124974280Y-81227592D01*
X124910634Y-81031710D01*
X124817129Y-80848197D01*
X124696068Y-80681570D01*
X124696065Y-80681567D01*
X124696063Y-80681564D01*
X124550435Y-80535936D01*
X124550432Y-80535934D01*
X124550430Y-80535932D01*
X124383803Y-80414871D01*
X124200290Y-80321366D01*
X124200287Y-80321365D01*
X124200285Y-80321364D01*
X124004412Y-80257721D01*
X124004410Y-80257720D01*
X124004408Y-80257720D01*
X123800981Y-80225500D01*
X123595019Y-80225500D01*
X123391592Y-80257720D01*
X123391590Y-80257720D01*
X123391587Y-80257721D01*
X123195714Y-80321364D01*
X123195708Y-80321367D01*
X123012193Y-80414873D01*
X122845567Y-80535934D01*
X122845564Y-80535936D01*
X122699936Y-80681564D01*
X122699934Y-80681567D01*
X122578606Y-80848561D01*
X122522384Y-80891915D01*
X122476670Y-80900500D01*
X120096064Y-80900500D01*
X120027943Y-80880498D01*
X119994128Y-80848561D01*
X119989110Y-80841654D01*
X119880068Y-80691570D01*
X119880065Y-80691567D01*
X119880063Y-80691564D01*
X119734435Y-80545936D01*
X119734432Y-80545934D01*
X119734430Y-80545932D01*
X119573976Y-80429356D01*
X119567806Y-80424873D01*
X119567805Y-80424872D01*
X119567803Y-80424871D01*
X119492034Y-80386265D01*
X119440422Y-80337519D01*
X119423356Y-80268604D01*
X119446257Y-80201402D01*
X119492034Y-80161735D01*
X119567803Y-80123129D01*
X119734430Y-80002068D01*
X119880068Y-79856430D01*
X120001129Y-79689803D01*
X120094634Y-79506290D01*
X120158280Y-79310408D01*
X120190500Y-79106981D01*
X120190500Y-78991500D01*
X120210502Y-78923379D01*
X120264158Y-78876886D01*
X120316500Y-78865500D01*
X122490393Y-78865500D01*
X122490394Y-78865500D01*
X122612785Y-78841155D01*
X122728075Y-78793400D01*
X122831833Y-78724071D01*
X123089457Y-78466445D01*
X123151767Y-78432422D01*
X123217483Y-78435708D01*
X123391592Y-78492280D01*
X123595019Y-78524500D01*
X123595022Y-78524500D01*
X123800978Y-78524500D01*
X123800981Y-78524500D01*
X124004408Y-78492280D01*
X124200290Y-78428634D01*
X124383803Y-78335129D01*
X124550430Y-78214068D01*
X124696068Y-78068430D01*
X124817129Y-77901803D01*
X124910634Y-77718290D01*
X124974280Y-77522408D01*
X125006500Y-77318981D01*
X125006500Y-77113019D01*
X130009500Y-77113019D01*
X130009500Y-77318981D01*
X130036056Y-77486645D01*
X130041721Y-77522412D01*
X130105180Y-77717720D01*
X130105366Y-77718290D01*
X130198871Y-77901803D01*
X130319932Y-78068430D01*
X130319934Y-78068432D01*
X130319936Y-78068435D01*
X130465564Y-78214063D01*
X130465567Y-78214065D01*
X130465570Y-78214068D01*
X130632197Y-78335129D01*
X130815710Y-78428634D01*
X131011592Y-78492280D01*
X131215019Y-78524500D01*
X131215022Y-78524500D01*
X131420978Y-78524500D01*
X131420981Y-78524500D01*
X131624408Y-78492280D01*
X131820290Y-78428634D01*
X132003803Y-78335129D01*
X132170430Y-78214068D01*
X132316068Y-78068430D01*
X132437127Y-77901806D01*
X132437394Y-77901439D01*
X132493616Y-77858085D01*
X132539330Y-77849500D01*
X133398670Y-77849500D01*
X133466791Y-77869502D01*
X133500606Y-77901439D01*
X133554249Y-77975272D01*
X133621932Y-78068430D01*
X133621934Y-78068432D01*
X133621936Y-78068435D01*
X133767564Y-78214063D01*
X133767567Y-78214065D01*
X133767570Y-78214068D01*
X133934197Y-78335129D01*
X134117710Y-78428634D01*
X134313592Y-78492280D01*
X134517019Y-78524500D01*
X134517022Y-78524500D01*
X134722978Y-78524500D01*
X134722981Y-78524500D01*
X134926408Y-78492280D01*
X135122290Y-78428634D01*
X135305803Y-78335129D01*
X135472430Y-78214068D01*
X135618068Y-78068430D01*
X135739129Y-77901803D01*
X135832634Y-77718290D01*
X135896280Y-77522408D01*
X135928500Y-77318981D01*
X135928500Y-77113019D01*
X140931500Y-77113019D01*
X140931500Y-77318981D01*
X140958056Y-77486645D01*
X140963721Y-77522412D01*
X141027180Y-77717720D01*
X141027366Y-77718290D01*
X141120871Y-77901803D01*
X141241932Y-78068430D01*
X141241934Y-78068432D01*
X141241936Y-78068435D01*
X141387564Y-78214063D01*
X141387567Y-78214065D01*
X141387570Y-78214068D01*
X141554197Y-78335129D01*
X141737710Y-78428634D01*
X141933592Y-78492280D01*
X142137019Y-78524500D01*
X142137022Y-78524500D01*
X142342978Y-78524500D01*
X142342981Y-78524500D01*
X142546408Y-78492280D01*
X142546425Y-78492274D01*
X142551220Y-78491124D01*
X142551529Y-78492413D01*
X142576729Y-78491691D01*
X142607866Y-78488620D01*
X142612846Y-78490656D01*
X142616427Y-78490554D01*
X142641794Y-78500244D01*
X142648316Y-78503581D01*
X142701925Y-78539401D01*
X142783447Y-78573168D01*
X142817215Y-78587155D01*
X142939606Y-78611500D01*
X142939607Y-78611500D01*
X144842393Y-78611500D01*
X144842394Y-78611500D01*
X144964785Y-78587155D01*
X145080075Y-78539400D01*
X145127588Y-78507652D01*
X145195339Y-78486437D01*
X145230631Y-78491704D01*
X145230771Y-78491123D01*
X145235583Y-78492278D01*
X145235588Y-78492278D01*
X145235592Y-78492280D01*
X145439019Y-78524500D01*
X145439022Y-78524500D01*
X145644978Y-78524500D01*
X145644981Y-78524500D01*
X145848408Y-78492280D01*
X146044290Y-78428634D01*
X146227803Y-78335129D01*
X146394430Y-78214068D01*
X146540068Y-78068430D01*
X146661127Y-77901806D01*
X146661394Y-77901439D01*
X146717616Y-77858085D01*
X146763330Y-77849500D01*
X147382393Y-77849500D01*
X147382394Y-77849500D01*
X147504785Y-77825155D01*
X147620075Y-77777400D01*
X147723833Y-77708071D01*
X151856594Y-73575309D01*
X151918904Y-73541285D01*
X151989719Y-73546350D01*
X152046555Y-73588897D01*
X152047623Y-73590345D01*
X152163933Y-73750432D01*
X152309564Y-73896063D01*
X152309567Y-73896065D01*
X152309570Y-73896068D01*
X152476197Y-74017129D01*
X152659710Y-74110634D01*
X152855592Y-74174280D01*
X153059019Y-74206500D01*
X153059022Y-74206500D01*
X153264978Y-74206500D01*
X153264981Y-74206500D01*
X153468408Y-74174280D01*
X153664290Y-74110634D01*
X153847803Y-74017129D01*
X154014430Y-73896068D01*
X154160068Y-73750430D01*
X154281129Y-73583803D01*
X154374634Y-73400290D01*
X154438280Y-73204408D01*
X154470500Y-73000981D01*
X154470500Y-72795019D01*
X154438280Y-72591592D01*
X154374634Y-72395710D01*
X154281129Y-72212197D01*
X154160068Y-72045570D01*
X154160065Y-72045567D01*
X154160063Y-72045564D01*
X154014435Y-71899936D01*
X154014432Y-71899934D01*
X154014430Y-71899932D01*
X153847803Y-71778871D01*
X153664290Y-71685366D01*
X153664287Y-71685365D01*
X153664285Y-71685364D01*
X153468412Y-71621721D01*
X153468410Y-71621720D01*
X153468408Y-71621720D01*
X153264981Y-71589500D01*
X153059019Y-71589500D01*
X152855592Y-71621720D01*
X152855590Y-71621720D01*
X152855587Y-71621721D01*
X152659714Y-71685364D01*
X152659708Y-71685367D01*
X152476193Y-71778873D01*
X152309567Y-71899934D01*
X152309564Y-71899936D01*
X152163936Y-72045564D01*
X152163934Y-72045567D01*
X152042606Y-72212561D01*
X151986384Y-72255915D01*
X151940670Y-72264500D01*
X151575603Y-72264500D01*
X151502568Y-72279028D01*
X151453215Y-72288845D01*
X151453213Y-72288845D01*
X151453212Y-72288846D01*
X151337923Y-72336601D01*
X151234171Y-72405926D01*
X151234164Y-72405931D01*
X147094501Y-76545595D01*
X147067132Y-76560539D01*
X147040904Y-76577396D01*
X147034605Y-76578301D01*
X147032189Y-76579621D01*
X147005406Y-76582500D01*
X146763330Y-76582500D01*
X146695209Y-76562498D01*
X146661394Y-76530561D01*
X146560041Y-76391061D01*
X146540068Y-76363570D01*
X146540065Y-76363567D01*
X146540063Y-76363564D01*
X146394435Y-76217936D01*
X146394432Y-76217934D01*
X146394430Y-76217932D01*
X146227803Y-76096871D01*
X146044290Y-76003366D01*
X146044287Y-76003365D01*
X146044285Y-76003364D01*
X145848412Y-75939721D01*
X145848410Y-75939720D01*
X145848408Y-75939720D01*
X145644981Y-75907500D01*
X145439019Y-75907500D01*
X145235592Y-75939720D01*
X145235590Y-75939720D01*
X145235587Y-75939721D01*
X145039714Y-76003364D01*
X145039708Y-76003367D01*
X144856193Y-76096873D01*
X144689567Y-76217934D01*
X144689564Y-76217936D01*
X144543936Y-76363564D01*
X144543934Y-76363567D01*
X144422873Y-76530193D01*
X144329367Y-76713708D01*
X144329364Y-76713714D01*
X144265721Y-76909587D01*
X144265720Y-76909590D01*
X144265720Y-76909592D01*
X144239550Y-77074825D01*
X144233500Y-77113022D01*
X144233500Y-77218500D01*
X144213498Y-77286621D01*
X144159842Y-77333114D01*
X144107500Y-77344500D01*
X143674500Y-77344500D01*
X143606379Y-77324498D01*
X143559886Y-77270842D01*
X143548500Y-77218500D01*
X143548500Y-77113022D01*
X143542978Y-77078157D01*
X143516280Y-76909592D01*
X143452634Y-76713710D01*
X143359129Y-76530197D01*
X143238068Y-76363570D01*
X143238065Y-76363567D01*
X143238063Y-76363564D01*
X143092435Y-76217936D01*
X143092432Y-76217934D01*
X143092430Y-76217932D01*
X142925803Y-76096871D01*
X142742290Y-76003366D01*
X142742287Y-76003365D01*
X142742285Y-76003364D01*
X142546412Y-75939721D01*
X142546410Y-75939720D01*
X142546408Y-75939720D01*
X142342981Y-75907500D01*
X142137019Y-75907500D01*
X141933592Y-75939720D01*
X141933590Y-75939720D01*
X141933587Y-75939721D01*
X141737714Y-76003364D01*
X141737708Y-76003367D01*
X141554193Y-76096873D01*
X141387567Y-76217934D01*
X141387564Y-76217936D01*
X141241936Y-76363564D01*
X141241934Y-76363567D01*
X141120873Y-76530193D01*
X141027367Y-76713708D01*
X141027364Y-76713714D01*
X140963721Y-76909587D01*
X140963720Y-76909590D01*
X140963720Y-76909592D01*
X140931500Y-77113019D01*
X135928500Y-77113019D01*
X135896280Y-76909592D01*
X135832634Y-76713710D01*
X135739129Y-76530197D01*
X135618068Y-76363570D01*
X135618065Y-76363567D01*
X135618063Y-76363564D01*
X135472435Y-76217936D01*
X135472432Y-76217934D01*
X135472430Y-76217932D01*
X135305803Y-76096871D01*
X135122290Y-76003366D01*
X135122287Y-76003365D01*
X135122285Y-76003364D01*
X134926412Y-75939721D01*
X134926410Y-75939720D01*
X134926408Y-75939720D01*
X134722981Y-75907500D01*
X134517019Y-75907500D01*
X134313592Y-75939720D01*
X134313590Y-75939720D01*
X134313587Y-75939721D01*
X134117714Y-76003364D01*
X134117708Y-76003367D01*
X133934193Y-76096873D01*
X133767567Y-76217934D01*
X133767564Y-76217936D01*
X133621936Y-76363564D01*
X133621934Y-76363567D01*
X133500606Y-76530561D01*
X133444384Y-76573915D01*
X133398670Y-76582500D01*
X132539330Y-76582500D01*
X132471209Y-76562498D01*
X132437394Y-76530561D01*
X132336041Y-76391061D01*
X132316068Y-76363570D01*
X132316065Y-76363567D01*
X132316063Y-76363564D01*
X132170435Y-76217936D01*
X132170432Y-76217934D01*
X132170430Y-76217932D01*
X132003803Y-76096871D01*
X131820290Y-76003366D01*
X131820287Y-76003365D01*
X131820285Y-76003364D01*
X131624412Y-75939721D01*
X131624410Y-75939720D01*
X131624408Y-75939720D01*
X131420981Y-75907500D01*
X131215019Y-75907500D01*
X131011592Y-75939720D01*
X131011590Y-75939720D01*
X131011587Y-75939721D01*
X130815714Y-76003364D01*
X130815708Y-76003367D01*
X130632193Y-76096873D01*
X130465567Y-76217934D01*
X130465564Y-76217936D01*
X130319936Y-76363564D01*
X130319934Y-76363567D01*
X130198873Y-76530193D01*
X130105367Y-76713708D01*
X130105364Y-76713714D01*
X130041721Y-76909587D01*
X130041720Y-76909590D01*
X130041720Y-76909592D01*
X130009500Y-77113019D01*
X125006500Y-77113019D01*
X124974280Y-76909592D01*
X124910634Y-76713710D01*
X124817129Y-76530197D01*
X124696068Y-76363570D01*
X124696065Y-76363567D01*
X124696063Y-76363564D01*
X124550435Y-76217936D01*
X124550432Y-76217934D01*
X124550430Y-76217932D01*
X124383803Y-76096871D01*
X124200290Y-76003366D01*
X124200287Y-76003365D01*
X124200285Y-76003364D01*
X124004412Y-75939721D01*
X124004410Y-75939720D01*
X124004408Y-75939720D01*
X123800981Y-75907500D01*
X123595019Y-75907500D01*
X123391592Y-75939720D01*
X123391590Y-75939720D01*
X123391587Y-75939721D01*
X123195714Y-76003364D01*
X123195708Y-76003367D01*
X123012193Y-76096873D01*
X122845567Y-76217934D01*
X122845564Y-76217936D01*
X122699936Y-76363564D01*
X122699934Y-76363567D01*
X122578873Y-76530193D01*
X122485367Y-76713708D01*
X122485364Y-76713714D01*
X122421721Y-76909587D01*
X122421720Y-76909590D01*
X122421720Y-76909592D01*
X122395550Y-77074825D01*
X122389500Y-77113022D01*
X122389500Y-77322404D01*
X122380716Y-77352319D01*
X122374088Y-77382789D01*
X122370273Y-77387885D01*
X122369498Y-77390525D01*
X122352596Y-77411499D01*
X122202501Y-77561595D01*
X122140189Y-77595620D01*
X122113405Y-77598500D01*
X119902189Y-77598500D01*
X119834068Y-77578498D01*
X119787575Y-77524842D01*
X119777471Y-77454568D01*
X119806965Y-77389988D01*
X119813094Y-77383405D01*
X119880063Y-77316435D01*
X119880068Y-77316430D01*
X120001129Y-77149803D01*
X120013032Y-77126439D01*
X120061778Y-77074825D01*
X120077070Y-77067237D01*
X120178075Y-77025400D01*
X120281833Y-76956071D01*
X123089458Y-74148444D01*
X123151767Y-74114422D01*
X123217484Y-74117708D01*
X123391592Y-74174280D01*
X123595019Y-74206500D01*
X123595022Y-74206500D01*
X123800978Y-74206500D01*
X123800981Y-74206500D01*
X124004408Y-74174280D01*
X124200290Y-74110634D01*
X124383803Y-74017129D01*
X124550430Y-73896068D01*
X124696068Y-73750430D01*
X124817129Y-73583803D01*
X124910634Y-73400290D01*
X124974280Y-73204408D01*
X125006500Y-73000981D01*
X125006500Y-72795019D01*
X130009500Y-72795019D01*
X130009500Y-73000981D01*
X130040717Y-73198075D01*
X130041721Y-73204412D01*
X130102045Y-73390071D01*
X130105366Y-73400290D01*
X130198871Y-73583803D01*
X130319932Y-73750430D01*
X130319934Y-73750432D01*
X130319936Y-73750435D01*
X130465564Y-73896063D01*
X130465567Y-73896065D01*
X130465570Y-73896068D01*
X130632197Y-74017129D01*
X130815710Y-74110634D01*
X131011592Y-74174280D01*
X131215019Y-74206500D01*
X131215022Y-74206500D01*
X131420978Y-74206500D01*
X131420981Y-74206500D01*
X131624408Y-74174280D01*
X131820290Y-74110634D01*
X131932946Y-74053232D01*
X131990148Y-74039500D01*
X133947852Y-74039500D01*
X134005053Y-74053232D01*
X134117710Y-74110634D01*
X134313592Y-74174280D01*
X134517019Y-74206500D01*
X134517022Y-74206500D01*
X134722978Y-74206500D01*
X134722981Y-74206500D01*
X134926408Y-74174280D01*
X135122290Y-74110634D01*
X135305803Y-74017129D01*
X135472430Y-73896068D01*
X135618068Y-73750430D01*
X135739129Y-73583803D01*
X135832634Y-73400290D01*
X135896280Y-73204408D01*
X135928500Y-73000981D01*
X135928500Y-72795019D01*
X140931500Y-72795019D01*
X140931500Y-73000981D01*
X140962717Y-73198075D01*
X140963721Y-73204412D01*
X141024045Y-73390071D01*
X141027366Y-73400290D01*
X141120871Y-73583803D01*
X141241932Y-73750430D01*
X141241934Y-73750432D01*
X141241936Y-73750435D01*
X141387564Y-73896063D01*
X141387567Y-73896065D01*
X141387570Y-73896068D01*
X141554197Y-74017129D01*
X141737710Y-74110634D01*
X141933592Y-74174280D01*
X142137019Y-74206500D01*
X142137022Y-74206500D01*
X142342978Y-74206500D01*
X142342981Y-74206500D01*
X142546408Y-74174280D01*
X142742290Y-74110634D01*
X142854946Y-74053232D01*
X142912148Y-74039500D01*
X144869852Y-74039500D01*
X144927053Y-74053232D01*
X145039710Y-74110634D01*
X145235592Y-74174280D01*
X145439019Y-74206500D01*
X145439022Y-74206500D01*
X145644978Y-74206500D01*
X145644981Y-74206500D01*
X145848408Y-74174280D01*
X146044290Y-74110634D01*
X146227803Y-74017129D01*
X146394430Y-73896068D01*
X146540068Y-73750430D01*
X146661127Y-73583806D01*
X146661394Y-73583439D01*
X146717616Y-73540085D01*
X146763330Y-73531500D01*
X146874393Y-73531500D01*
X146874394Y-73531500D01*
X146996785Y-73507155D01*
X147112075Y-73459400D01*
X147215833Y-73390071D01*
X151856595Y-68749309D01*
X151918905Y-68715285D01*
X151989720Y-68720350D01*
X152046556Y-68762897D01*
X152047624Y-68764345D01*
X152163932Y-68924430D01*
X152163934Y-68924432D01*
X152163936Y-68924435D01*
X152309564Y-69070063D01*
X152309567Y-69070065D01*
X152309570Y-69070068D01*
X152476197Y-69191129D01*
X152659710Y-69284634D01*
X152855592Y-69348280D01*
X153059019Y-69380500D01*
X153059022Y-69380500D01*
X153264978Y-69380500D01*
X153264981Y-69380500D01*
X153468408Y-69348280D01*
X153664290Y-69284634D01*
X153847803Y-69191129D01*
X154014430Y-69070068D01*
X154160068Y-68924430D01*
X154281129Y-68757803D01*
X154374634Y-68574290D01*
X154438280Y-68378408D01*
X154470500Y-68174981D01*
X154470500Y-67969019D01*
X154438280Y-67765592D01*
X154374634Y-67569710D01*
X154281129Y-67386197D01*
X154160068Y-67219570D01*
X154160065Y-67219567D01*
X154160063Y-67219564D01*
X154014435Y-67073936D01*
X154014432Y-67073934D01*
X154014430Y-67073932D01*
X153847803Y-66952871D01*
X153664290Y-66859366D01*
X153664287Y-66859365D01*
X153664285Y-66859364D01*
X153468412Y-66795721D01*
X153468410Y-66795720D01*
X153468408Y-66795720D01*
X153264981Y-66763500D01*
X153059019Y-66763500D01*
X152855592Y-66795720D01*
X152855590Y-66795720D01*
X152855587Y-66795721D01*
X152659714Y-66859364D01*
X152659708Y-66859367D01*
X152476193Y-66952873D01*
X152309567Y-67073934D01*
X152309564Y-67073936D01*
X152163936Y-67219564D01*
X152163934Y-67219567D01*
X152042606Y-67386561D01*
X151986384Y-67429915D01*
X151940670Y-67438500D01*
X151575600Y-67438500D01*
X151453217Y-67462844D01*
X151453209Y-67462846D01*
X151419447Y-67476830D01*
X151419447Y-67476831D01*
X151352905Y-67504394D01*
X151337925Y-67510599D01*
X151234171Y-67579925D01*
X151234164Y-67579930D01*
X146740522Y-72073572D01*
X146678210Y-72107598D01*
X146607395Y-72102533D01*
X146550559Y-72059986D01*
X146549492Y-72058539D01*
X146540072Y-72045574D01*
X146540066Y-72045567D01*
X146394435Y-71899936D01*
X146394432Y-71899934D01*
X146394430Y-71899932D01*
X146227803Y-71778871D01*
X146044290Y-71685366D01*
X146044287Y-71685365D01*
X146044285Y-71685364D01*
X145848412Y-71621721D01*
X145848410Y-71621720D01*
X145848408Y-71621720D01*
X145644981Y-71589500D01*
X145439019Y-71589500D01*
X145235592Y-71621720D01*
X145235590Y-71621720D01*
X145235587Y-71621721D01*
X145039714Y-71685364D01*
X145039708Y-71685367D01*
X144856193Y-71778873D01*
X144689567Y-71899934D01*
X144689564Y-71899936D01*
X144543936Y-72045564D01*
X144543934Y-72045567D01*
X144422873Y-72212193D01*
X144329367Y-72395708D01*
X144329364Y-72395714D01*
X144265721Y-72591586D01*
X144265720Y-72591591D01*
X144265720Y-72591592D01*
X144256228Y-72651527D01*
X144253902Y-72666211D01*
X144223489Y-72730364D01*
X144163221Y-72767891D01*
X144129453Y-72772500D01*
X143652547Y-72772500D01*
X143584426Y-72752498D01*
X143537933Y-72698842D01*
X143528098Y-72666211D01*
X143526164Y-72654000D01*
X143516280Y-72591592D01*
X143452634Y-72395710D01*
X143359129Y-72212197D01*
X143238068Y-72045570D01*
X143238065Y-72045567D01*
X143238063Y-72045564D01*
X143092435Y-71899936D01*
X143092432Y-71899934D01*
X143092430Y-71899932D01*
X142925803Y-71778871D01*
X142742290Y-71685366D01*
X142742287Y-71685365D01*
X142742285Y-71685364D01*
X142546412Y-71621721D01*
X142546410Y-71621720D01*
X142546408Y-71621720D01*
X142342981Y-71589500D01*
X142137019Y-71589500D01*
X141933592Y-71621720D01*
X141933590Y-71621720D01*
X141933587Y-71621721D01*
X141737714Y-71685364D01*
X141737708Y-71685367D01*
X141554193Y-71778873D01*
X141387567Y-71899934D01*
X141387564Y-71899936D01*
X141241936Y-72045564D01*
X141241934Y-72045567D01*
X141120873Y-72212193D01*
X141027367Y-72395708D01*
X141027364Y-72395714D01*
X140963721Y-72591587D01*
X140963720Y-72591590D01*
X140963720Y-72591592D01*
X140931500Y-72795019D01*
X135928500Y-72795019D01*
X135896280Y-72591592D01*
X135832634Y-72395710D01*
X135739129Y-72212197D01*
X135618068Y-72045570D01*
X135618065Y-72045567D01*
X135618063Y-72045564D01*
X135472435Y-71899936D01*
X135472432Y-71899934D01*
X135472430Y-71899932D01*
X135305803Y-71778871D01*
X135122290Y-71685366D01*
X135122287Y-71685365D01*
X135122285Y-71685364D01*
X134926412Y-71621721D01*
X134926410Y-71621720D01*
X134926408Y-71621720D01*
X134722981Y-71589500D01*
X134517019Y-71589500D01*
X134313592Y-71621720D01*
X134313590Y-71621720D01*
X134313587Y-71621721D01*
X134117714Y-71685364D01*
X134117708Y-71685367D01*
X133934193Y-71778873D01*
X133767567Y-71899934D01*
X133767564Y-71899936D01*
X133621936Y-72045564D01*
X133621934Y-72045567D01*
X133500873Y-72212193D01*
X133407367Y-72395708D01*
X133407364Y-72395714D01*
X133343721Y-72591586D01*
X133343720Y-72591591D01*
X133343720Y-72591592D01*
X133334228Y-72651527D01*
X133331902Y-72666211D01*
X133301489Y-72730364D01*
X133241221Y-72767891D01*
X133207453Y-72772500D01*
X132730547Y-72772500D01*
X132662426Y-72752498D01*
X132615933Y-72698842D01*
X132606098Y-72666211D01*
X132604164Y-72654000D01*
X132594280Y-72591592D01*
X132530634Y-72395710D01*
X132437129Y-72212197D01*
X132316068Y-72045570D01*
X132316065Y-72045567D01*
X132316063Y-72045564D01*
X132170435Y-71899936D01*
X132170432Y-71899934D01*
X132170430Y-71899932D01*
X132003803Y-71778871D01*
X131820290Y-71685366D01*
X131820287Y-71685365D01*
X131820285Y-71685364D01*
X131624412Y-71621721D01*
X131624410Y-71621720D01*
X131624408Y-71621720D01*
X131420981Y-71589500D01*
X131215019Y-71589500D01*
X131011592Y-71621720D01*
X131011590Y-71621720D01*
X131011587Y-71621721D01*
X130815714Y-71685364D01*
X130815708Y-71685367D01*
X130632193Y-71778873D01*
X130465567Y-71899934D01*
X130465564Y-71899936D01*
X130319936Y-72045564D01*
X130319934Y-72045567D01*
X130198873Y-72212193D01*
X130105367Y-72395708D01*
X130105364Y-72395714D01*
X130041721Y-72591587D01*
X130041720Y-72591590D01*
X130041720Y-72591592D01*
X130009500Y-72795019D01*
X125006500Y-72795019D01*
X124974280Y-72591592D01*
X124910634Y-72395710D01*
X124817129Y-72212197D01*
X124696068Y-72045570D01*
X124696065Y-72045567D01*
X124696063Y-72045564D01*
X124550435Y-71899936D01*
X124550432Y-71899934D01*
X124550430Y-71899932D01*
X124383803Y-71778871D01*
X124200290Y-71685366D01*
X124200287Y-71685365D01*
X124200285Y-71685364D01*
X124004412Y-71621721D01*
X124004410Y-71621720D01*
X124004408Y-71621720D01*
X123800981Y-71589500D01*
X123595019Y-71589500D01*
X123391592Y-71621720D01*
X123391590Y-71621720D01*
X123391587Y-71621721D01*
X123195714Y-71685364D01*
X123195708Y-71685367D01*
X123012193Y-71778873D01*
X122845567Y-71899934D01*
X122845564Y-71899936D01*
X122699936Y-72045564D01*
X122699934Y-72045567D01*
X122578873Y-72212193D01*
X122485367Y-72395708D01*
X122485364Y-72395714D01*
X122421721Y-72591587D01*
X122421720Y-72591590D01*
X122421720Y-72591592D01*
X122397898Y-72742002D01*
X122389500Y-72795022D01*
X122389500Y-73004404D01*
X122369498Y-73072525D01*
X122352595Y-73093499D01*
X119946391Y-75499702D01*
X119884079Y-75533728D01*
X119813263Y-75528663D01*
X119768201Y-75499702D01*
X119734435Y-75465936D01*
X119734432Y-75465934D01*
X119734430Y-75465932D01*
X119567803Y-75344871D01*
X119492034Y-75306265D01*
X119440422Y-75257519D01*
X119423356Y-75188604D01*
X119446257Y-75121402D01*
X119492034Y-75081735D01*
X119567803Y-75043129D01*
X119734430Y-74922068D01*
X119880068Y-74776430D01*
X120001129Y-74609803D01*
X120013032Y-74586439D01*
X120061778Y-74534825D01*
X120077070Y-74527237D01*
X120178075Y-74485400D01*
X120281833Y-74416071D01*
X121396071Y-73301833D01*
X121465400Y-73198075D01*
X121513155Y-73082785D01*
X121537500Y-72960394D01*
X121537500Y-72835606D01*
X121537500Y-69402594D01*
X121557502Y-69334473D01*
X121574405Y-69313499D01*
X122145499Y-68742405D01*
X122172867Y-68727460D01*
X122199096Y-68710604D01*
X122205394Y-68709698D01*
X122207811Y-68708379D01*
X122234594Y-68705500D01*
X122476670Y-68705500D01*
X122544791Y-68725502D01*
X122578606Y-68757439D01*
X122609840Y-68800429D01*
X122699932Y-68924430D01*
X122699934Y-68924432D01*
X122699936Y-68924435D01*
X122845564Y-69070063D01*
X122845567Y-69070065D01*
X122845570Y-69070068D01*
X123012197Y-69191129D01*
X123195710Y-69284634D01*
X123391592Y-69348280D01*
X123595019Y-69380500D01*
X123595022Y-69380500D01*
X123800978Y-69380500D01*
X123800981Y-69380500D01*
X124004408Y-69348280D01*
X124200290Y-69284634D01*
X124383803Y-69191129D01*
X124550430Y-69070068D01*
X124696068Y-68924430D01*
X124817129Y-68757803D01*
X124910634Y-68574290D01*
X124974280Y-68378408D01*
X125006500Y-68174981D01*
X125006500Y-67969019D01*
X130009500Y-67969019D01*
X130009500Y-68174981D01*
X130040918Y-68373343D01*
X130041721Y-68378412D01*
X130105180Y-68573720D01*
X130105366Y-68574290D01*
X130198871Y-68757803D01*
X130319932Y-68924430D01*
X130319934Y-68924432D01*
X130319936Y-68924435D01*
X130465564Y-69070063D01*
X130465567Y-69070065D01*
X130465570Y-69070068D01*
X130632197Y-69191129D01*
X130815710Y-69284634D01*
X131011592Y-69348280D01*
X131215019Y-69380500D01*
X131215022Y-69380500D01*
X131420978Y-69380500D01*
X131420981Y-69380500D01*
X131624408Y-69348280D01*
X131624425Y-69348274D01*
X131629220Y-69347124D01*
X131629529Y-69348413D01*
X131654729Y-69347691D01*
X131685866Y-69344620D01*
X131690846Y-69346656D01*
X131694427Y-69346554D01*
X131719794Y-69356244D01*
X131726316Y-69359581D01*
X131779925Y-69395401D01*
X131861447Y-69429168D01*
X131895215Y-69443155D01*
X132017606Y-69467500D01*
X132017607Y-69467500D01*
X133920393Y-69467500D01*
X133920394Y-69467500D01*
X134042785Y-69443155D01*
X134158075Y-69395400D01*
X134205588Y-69363652D01*
X134273339Y-69342437D01*
X134308631Y-69347704D01*
X134308771Y-69347123D01*
X134313583Y-69348278D01*
X134313588Y-69348278D01*
X134313592Y-69348280D01*
X134517019Y-69380500D01*
X134517022Y-69380500D01*
X134722978Y-69380500D01*
X134722981Y-69380500D01*
X134926408Y-69348280D01*
X135122290Y-69284634D01*
X135305803Y-69191129D01*
X135472430Y-69070068D01*
X135618068Y-68924430D01*
X135739129Y-68757803D01*
X135832634Y-68574290D01*
X135896280Y-68378408D01*
X135928500Y-68174981D01*
X135928500Y-67969019D01*
X140931500Y-67969019D01*
X140931500Y-68174981D01*
X140962918Y-68373343D01*
X140963721Y-68378412D01*
X141027180Y-68573720D01*
X141027366Y-68574290D01*
X141120871Y-68757803D01*
X141241932Y-68924430D01*
X141241934Y-68924432D01*
X141241936Y-68924435D01*
X141387564Y-69070063D01*
X141387567Y-69070065D01*
X141387570Y-69070068D01*
X141554197Y-69191129D01*
X141737710Y-69284634D01*
X141933592Y-69348280D01*
X142137019Y-69380500D01*
X142137022Y-69380500D01*
X142342978Y-69380500D01*
X142342981Y-69380500D01*
X142546408Y-69348280D01*
X142546425Y-69348274D01*
X142551220Y-69347124D01*
X142551529Y-69348413D01*
X142576729Y-69347691D01*
X142607866Y-69344620D01*
X142612846Y-69346656D01*
X142616427Y-69346554D01*
X142641794Y-69356244D01*
X142648316Y-69359581D01*
X142701925Y-69395401D01*
X142783447Y-69429168D01*
X142817215Y-69443155D01*
X142939606Y-69467500D01*
X142939607Y-69467500D01*
X144842393Y-69467500D01*
X144842394Y-69467500D01*
X144964785Y-69443155D01*
X145080075Y-69395400D01*
X145127588Y-69363652D01*
X145195339Y-69342437D01*
X145230631Y-69347704D01*
X145230771Y-69347123D01*
X145235583Y-69348278D01*
X145235588Y-69348278D01*
X145235592Y-69348280D01*
X145439019Y-69380500D01*
X145439022Y-69380500D01*
X145644978Y-69380500D01*
X145644981Y-69380500D01*
X145848408Y-69348280D01*
X146044290Y-69284634D01*
X146227803Y-69191129D01*
X146394430Y-69070068D01*
X146540068Y-68924430D01*
X146661127Y-68757806D01*
X146661394Y-68757439D01*
X146717616Y-68714085D01*
X146763330Y-68705500D01*
X147636393Y-68705500D01*
X147636394Y-68705500D01*
X147758785Y-68681155D01*
X147874075Y-68633400D01*
X147977833Y-68564071D01*
X151856594Y-64685309D01*
X151918904Y-64651285D01*
X151989719Y-64656350D01*
X152046555Y-64698897D01*
X152047623Y-64700345D01*
X152163933Y-64860432D01*
X152309564Y-65006063D01*
X152309567Y-65006065D01*
X152309570Y-65006068D01*
X152476197Y-65127129D01*
X152659710Y-65220634D01*
X152855592Y-65284280D01*
X153059019Y-65316500D01*
X153059022Y-65316500D01*
X153264978Y-65316500D01*
X153264981Y-65316500D01*
X153468408Y-65284280D01*
X153664290Y-65220634D01*
X153847803Y-65127129D01*
X154014430Y-65006068D01*
X154160068Y-64860430D01*
X154281129Y-64693803D01*
X154374634Y-64510290D01*
X154438280Y-64314408D01*
X154470500Y-64110981D01*
X154470500Y-63905019D01*
X154438280Y-63701592D01*
X154374634Y-63505710D01*
X154281129Y-63322197D01*
X154160068Y-63155570D01*
X154160065Y-63155567D01*
X154160063Y-63155564D01*
X154014435Y-63009936D01*
X154014432Y-63009934D01*
X154014430Y-63009932D01*
X153876563Y-62909766D01*
X153847806Y-62888873D01*
X153847805Y-62888872D01*
X153847803Y-62888871D01*
X153664290Y-62795366D01*
X153664287Y-62795365D01*
X153664285Y-62795364D01*
X153468412Y-62731721D01*
X153468410Y-62731720D01*
X153468408Y-62731720D01*
X153264981Y-62699500D01*
X153059019Y-62699500D01*
X152855592Y-62731720D01*
X152855590Y-62731720D01*
X152855587Y-62731721D01*
X152659714Y-62795364D01*
X152659708Y-62795367D01*
X152476193Y-62888873D01*
X152309567Y-63009934D01*
X152309564Y-63009936D01*
X152163936Y-63155564D01*
X152163934Y-63155567D01*
X152042606Y-63322561D01*
X151986384Y-63365915D01*
X151940670Y-63374500D01*
X151575603Y-63374500D01*
X151502568Y-63389028D01*
X151453215Y-63398845D01*
X151453213Y-63398845D01*
X151453212Y-63398846D01*
X151337923Y-63446601D01*
X151234171Y-63515926D01*
X151234164Y-63515931D01*
X147348501Y-67401595D01*
X147286189Y-67435621D01*
X147259406Y-67438500D01*
X146763330Y-67438500D01*
X146695209Y-67418498D01*
X146661394Y-67386561D01*
X146560437Y-67247606D01*
X146540068Y-67219570D01*
X146540065Y-67219567D01*
X146540063Y-67219564D01*
X146394435Y-67073936D01*
X146394432Y-67073934D01*
X146394430Y-67073932D01*
X146227803Y-66952871D01*
X146044290Y-66859366D01*
X146044287Y-66859365D01*
X146044285Y-66859364D01*
X145848412Y-66795721D01*
X145848410Y-66795720D01*
X145848408Y-66795720D01*
X145644981Y-66763500D01*
X145439019Y-66763500D01*
X145235592Y-66795720D01*
X145235590Y-66795720D01*
X145235587Y-66795721D01*
X145039714Y-66859364D01*
X145039708Y-66859367D01*
X144856193Y-66952873D01*
X144689567Y-67073934D01*
X144689564Y-67073936D01*
X144543936Y-67219564D01*
X144543934Y-67219567D01*
X144422873Y-67386193D01*
X144329367Y-67569708D01*
X144329364Y-67569714D01*
X144265721Y-67765587D01*
X144265720Y-67765590D01*
X144265720Y-67765592D01*
X144252019Y-67852099D01*
X144233500Y-67969022D01*
X144233500Y-68074500D01*
X144213498Y-68142621D01*
X144159842Y-68189114D01*
X144107500Y-68200500D01*
X143674500Y-68200500D01*
X143606379Y-68180498D01*
X143559886Y-68126842D01*
X143548500Y-68074500D01*
X143548500Y-67969022D01*
X143548500Y-67969019D01*
X143516280Y-67765592D01*
X143452634Y-67569710D01*
X143359129Y-67386197D01*
X143238068Y-67219570D01*
X143238065Y-67219567D01*
X143238063Y-67219564D01*
X143092435Y-67073936D01*
X143092432Y-67073934D01*
X143092430Y-67073932D01*
X142925803Y-66952871D01*
X142742290Y-66859366D01*
X142742287Y-66859365D01*
X142742285Y-66859364D01*
X142546412Y-66795721D01*
X142546410Y-66795720D01*
X142546408Y-66795720D01*
X142342981Y-66763500D01*
X142137019Y-66763500D01*
X141933592Y-66795720D01*
X141933590Y-66795720D01*
X141933587Y-66795721D01*
X141737714Y-66859364D01*
X141737708Y-66859367D01*
X141554193Y-66952873D01*
X141387567Y-67073934D01*
X141387564Y-67073936D01*
X141241936Y-67219564D01*
X141241934Y-67219567D01*
X141120873Y-67386193D01*
X141027367Y-67569708D01*
X141027364Y-67569714D01*
X140963721Y-67765587D01*
X140963720Y-67765590D01*
X140963720Y-67765592D01*
X140931500Y-67969019D01*
X135928500Y-67969019D01*
X135896280Y-67765592D01*
X135832634Y-67569710D01*
X135739129Y-67386197D01*
X135618068Y-67219570D01*
X135618065Y-67219567D01*
X135618063Y-67219564D01*
X135472435Y-67073936D01*
X135472432Y-67073934D01*
X135472430Y-67073932D01*
X135305803Y-66952871D01*
X135122290Y-66859366D01*
X135122287Y-66859365D01*
X135122285Y-66859364D01*
X134926412Y-66795721D01*
X134926410Y-66795720D01*
X134926408Y-66795720D01*
X134722981Y-66763500D01*
X134517019Y-66763500D01*
X134313592Y-66795720D01*
X134313590Y-66795720D01*
X134313587Y-66795721D01*
X134117714Y-66859364D01*
X134117708Y-66859367D01*
X133934193Y-66952873D01*
X133767567Y-67073934D01*
X133767564Y-67073936D01*
X133621936Y-67219564D01*
X133621934Y-67219567D01*
X133500873Y-67386193D01*
X133407367Y-67569708D01*
X133407364Y-67569714D01*
X133343721Y-67765587D01*
X133343720Y-67765590D01*
X133343720Y-67765592D01*
X133330019Y-67852099D01*
X133311500Y-67969022D01*
X133311500Y-68074500D01*
X133291498Y-68142621D01*
X133237842Y-68189114D01*
X133185500Y-68200500D01*
X132752500Y-68200500D01*
X132684379Y-68180498D01*
X132637886Y-68126842D01*
X132626500Y-68074500D01*
X132626500Y-67969022D01*
X132626500Y-67969019D01*
X132594280Y-67765592D01*
X132530634Y-67569710D01*
X132437129Y-67386197D01*
X132316068Y-67219570D01*
X132316065Y-67219567D01*
X132316063Y-67219564D01*
X132170435Y-67073936D01*
X132170432Y-67073934D01*
X132170430Y-67073932D01*
X132003803Y-66952871D01*
X131820290Y-66859366D01*
X131820287Y-66859365D01*
X131820285Y-66859364D01*
X131624412Y-66795721D01*
X131624410Y-66795720D01*
X131624408Y-66795720D01*
X131420981Y-66763500D01*
X131215019Y-66763500D01*
X131011592Y-66795720D01*
X131011590Y-66795720D01*
X131011587Y-66795721D01*
X130815714Y-66859364D01*
X130815708Y-66859367D01*
X130632193Y-66952873D01*
X130465567Y-67073934D01*
X130465564Y-67073936D01*
X130319936Y-67219564D01*
X130319934Y-67219567D01*
X130198873Y-67386193D01*
X130105367Y-67569708D01*
X130105364Y-67569714D01*
X130041721Y-67765587D01*
X130041720Y-67765590D01*
X130041720Y-67765592D01*
X130009500Y-67969019D01*
X125006500Y-67969019D01*
X124974280Y-67765592D01*
X124910634Y-67569710D01*
X124817129Y-67386197D01*
X124696068Y-67219570D01*
X124696065Y-67219567D01*
X124696063Y-67219564D01*
X124550435Y-67073936D01*
X124550432Y-67073934D01*
X124550430Y-67073932D01*
X124383803Y-66952871D01*
X124200290Y-66859366D01*
X124200287Y-66859365D01*
X124200285Y-66859364D01*
X124004412Y-66795721D01*
X124004410Y-66795720D01*
X124004408Y-66795720D01*
X123800981Y-66763500D01*
X123595019Y-66763500D01*
X123391592Y-66795720D01*
X123391590Y-66795720D01*
X123391587Y-66795721D01*
X123195714Y-66859364D01*
X123195708Y-66859367D01*
X123012193Y-66952873D01*
X122845567Y-67073934D01*
X122845564Y-67073936D01*
X122699936Y-67219564D01*
X122699934Y-67219567D01*
X122578606Y-67386561D01*
X122522384Y-67429915D01*
X122476670Y-67438500D01*
X121857603Y-67438500D01*
X121785021Y-67452938D01*
X121735215Y-67462845D01*
X121735213Y-67462845D01*
X121735212Y-67462846D01*
X121701452Y-67476830D01*
X121619928Y-67510599D01*
X121619923Y-67510601D01*
X121516171Y-67579926D01*
X121516164Y-67579931D01*
X120411931Y-68684164D01*
X120411926Y-68684171D01*
X120342601Y-68787923D01*
X120294846Y-68903212D01*
X120270500Y-69025603D01*
X120270500Y-70702039D01*
X120250498Y-70770160D01*
X120196842Y-70816653D01*
X120126568Y-70826757D01*
X120061988Y-70797263D01*
X120032234Y-70759242D01*
X120001130Y-70698199D01*
X120001130Y-70698198D01*
X119970863Y-70656540D01*
X119880068Y-70531570D01*
X119880065Y-70531567D01*
X119880063Y-70531564D01*
X119734435Y-70385936D01*
X119734432Y-70385934D01*
X119734431Y-70385933D01*
X119734430Y-70385932D01*
X119567803Y-70264871D01*
X119567804Y-70264871D01*
X119567802Y-70264870D01*
X119565650Y-70263551D01*
X119565005Y-70262838D01*
X119563798Y-70261961D01*
X119563982Y-70261707D01*
X119518026Y-70210897D01*
X119505500Y-70156127D01*
X119505500Y-67624594D01*
X119525502Y-67556473D01*
X119542405Y-67535499D01*
X120940078Y-66137826D01*
X122392594Y-64685309D01*
X122454904Y-64651285D01*
X122525719Y-64656350D01*
X122582555Y-64698897D01*
X122583623Y-64700345D01*
X122699933Y-64860432D01*
X122845564Y-65006063D01*
X122845567Y-65006065D01*
X122845570Y-65006068D01*
X123012197Y-65127129D01*
X123195710Y-65220634D01*
X123391592Y-65284280D01*
X123595019Y-65316500D01*
X123595022Y-65316500D01*
X123800978Y-65316500D01*
X123800981Y-65316500D01*
X124004408Y-65284280D01*
X124200290Y-65220634D01*
X124383803Y-65127129D01*
X124550430Y-65006068D01*
X124696068Y-64860430D01*
X124817129Y-64693803D01*
X124910634Y-64510290D01*
X124974280Y-64314408D01*
X125006500Y-64110981D01*
X125006500Y-63905019D01*
X130009500Y-63905019D01*
X130009500Y-64110981D01*
X130041720Y-64314408D01*
X130041721Y-64314412D01*
X130072753Y-64409920D01*
X130105366Y-64510290D01*
X130198871Y-64693803D01*
X130319932Y-64860430D01*
X130319934Y-64860432D01*
X130319936Y-64860435D01*
X130465564Y-65006063D01*
X130465567Y-65006065D01*
X130465570Y-65006068D01*
X130632197Y-65127129D01*
X130815710Y-65220634D01*
X131011592Y-65284280D01*
X131215019Y-65316500D01*
X131215022Y-65316500D01*
X131420978Y-65316500D01*
X131420981Y-65316500D01*
X131624408Y-65284280D01*
X131820290Y-65220634D01*
X132003803Y-65127129D01*
X132170430Y-65006068D01*
X132244094Y-64932403D01*
X132306404Y-64898380D01*
X132333188Y-64895500D01*
X133604812Y-64895500D01*
X133672933Y-64915502D01*
X133693902Y-64932400D01*
X133767570Y-65006068D01*
X133934197Y-65127129D01*
X134117710Y-65220634D01*
X134313592Y-65284280D01*
X134517019Y-65316500D01*
X134517022Y-65316500D01*
X134722978Y-65316500D01*
X134722981Y-65316500D01*
X134926408Y-65284280D01*
X135122290Y-65220634D01*
X135305803Y-65127129D01*
X135472430Y-65006068D01*
X135618068Y-64860430D01*
X135739129Y-64693803D01*
X135832634Y-64510290D01*
X135896280Y-64314408D01*
X135928500Y-64110981D01*
X135928500Y-63905019D01*
X135896280Y-63701592D01*
X135832634Y-63505710D01*
X135739129Y-63322197D01*
X135618068Y-63155570D01*
X135618065Y-63155567D01*
X135618063Y-63155564D01*
X135472435Y-63009936D01*
X135472432Y-63009934D01*
X135472430Y-63009932D01*
X135334563Y-62909766D01*
X135305806Y-62888873D01*
X135305805Y-62888872D01*
X135305803Y-62888871D01*
X135122290Y-62795366D01*
X135122287Y-62795365D01*
X135122285Y-62795364D01*
X134926412Y-62731721D01*
X134926410Y-62731720D01*
X134926408Y-62731720D01*
X134722981Y-62699500D01*
X134517019Y-62699500D01*
X134313592Y-62731720D01*
X134313590Y-62731720D01*
X134313587Y-62731721D01*
X134117714Y-62795364D01*
X134117708Y-62795367D01*
X133934193Y-62888873D01*
X133767567Y-63009934D01*
X133767564Y-63009936D01*
X133621936Y-63155564D01*
X133621934Y-63155567D01*
X133500873Y-63322193D01*
X133407364Y-63505713D01*
X133395758Y-63541436D01*
X133355685Y-63600042D01*
X133290288Y-63627679D01*
X133275925Y-63628500D01*
X132662075Y-63628500D01*
X132593954Y-63608498D01*
X132547461Y-63554842D01*
X132542242Y-63541436D01*
X132538814Y-63530887D01*
X132530634Y-63505710D01*
X132437129Y-63322197D01*
X132316068Y-63155570D01*
X132316065Y-63155567D01*
X132316063Y-63155564D01*
X132170435Y-63009936D01*
X132170432Y-63009934D01*
X132170430Y-63009932D01*
X132032563Y-62909766D01*
X132003806Y-62888873D01*
X132003805Y-62888872D01*
X132003803Y-62888871D01*
X131820290Y-62795366D01*
X131820287Y-62795365D01*
X131820285Y-62795364D01*
X131624412Y-62731721D01*
X131624410Y-62731720D01*
X131624408Y-62731720D01*
X131420981Y-62699500D01*
X131215019Y-62699500D01*
X131011592Y-62731720D01*
X131011590Y-62731720D01*
X131011587Y-62731721D01*
X130815714Y-62795364D01*
X130815708Y-62795367D01*
X130632193Y-62888873D01*
X130465567Y-63009934D01*
X130465564Y-63009936D01*
X130319936Y-63155564D01*
X130319934Y-63155567D01*
X130198873Y-63322193D01*
X130105367Y-63505708D01*
X130105364Y-63505714D01*
X130041721Y-63701587D01*
X130041720Y-63701590D01*
X130041720Y-63701592D01*
X130009500Y-63905019D01*
X125006500Y-63905019D01*
X124974280Y-63701592D01*
X124910634Y-63505710D01*
X124817129Y-63322197D01*
X124696068Y-63155570D01*
X124696065Y-63155567D01*
X124696063Y-63155564D01*
X124550435Y-63009936D01*
X124550432Y-63009934D01*
X124550430Y-63009932D01*
X124412563Y-62909766D01*
X124383806Y-62888873D01*
X124383805Y-62888872D01*
X124383803Y-62888871D01*
X124200290Y-62795366D01*
X124200287Y-62795365D01*
X124200285Y-62795364D01*
X124004412Y-62731721D01*
X124004410Y-62731720D01*
X124004408Y-62731720D01*
X123800981Y-62699500D01*
X123595019Y-62699500D01*
X123391592Y-62731720D01*
X123391590Y-62731720D01*
X123391587Y-62731721D01*
X123195714Y-62795364D01*
X123195708Y-62795367D01*
X123012193Y-62888873D01*
X122845567Y-63009934D01*
X122845564Y-63009936D01*
X122699936Y-63155564D01*
X122699934Y-63155567D01*
X122578606Y-63322561D01*
X122522384Y-63365915D01*
X122476670Y-63374500D01*
X122111603Y-63374500D01*
X122038568Y-63389028D01*
X121989215Y-63398845D01*
X121989213Y-63398845D01*
X121989212Y-63398846D01*
X121873923Y-63446601D01*
X121770171Y-63515926D01*
X121770164Y-63515931D01*
X118379931Y-66906164D01*
X118379926Y-66906171D01*
X118310601Y-67009923D01*
X118262846Y-67125212D01*
X118238500Y-67247603D01*
X118238500Y-70169935D01*
X118218498Y-70238056D01*
X118186561Y-70271871D01*
X118029567Y-70385933D01*
X117883936Y-70531564D01*
X117883934Y-70531567D01*
X117762873Y-70698193D01*
X117669367Y-70881708D01*
X117669364Y-70881714D01*
X117605721Y-71077587D01*
X117605720Y-71077590D01*
X117605720Y-71077592D01*
X117573500Y-71281019D01*
X117573500Y-71486981D01*
X117605720Y-71690408D01*
X117669366Y-71886290D01*
X117762871Y-72069803D01*
X117883932Y-72236430D01*
X117883934Y-72236432D01*
X117883936Y-72236435D01*
X118029564Y-72382063D01*
X118029567Y-72382065D01*
X118029570Y-72382068D01*
X118196197Y-72503129D01*
X118271962Y-72541733D01*
X118323577Y-72590482D01*
X118340643Y-72659397D01*
X118317742Y-72726598D01*
X118271963Y-72766266D01*
X118215533Y-72795019D01*
X118196193Y-72804873D01*
X118029567Y-72925934D01*
X118029564Y-72925936D01*
X117883936Y-73071564D01*
X117883934Y-73071567D01*
X117762873Y-73238193D01*
X117669367Y-73421708D01*
X117669364Y-73421714D01*
X117605721Y-73617587D01*
X117605720Y-73617590D01*
X117605720Y-73617592D01*
X117573500Y-73821019D01*
X117573500Y-74026981D01*
X117605720Y-74230408D01*
X117605721Y-74230412D01*
X117666045Y-74416071D01*
X117669366Y-74426290D01*
X117762871Y-74609803D01*
X117883932Y-74776430D01*
X117883934Y-74776432D01*
X117883936Y-74776435D01*
X118029564Y-74922063D01*
X118029567Y-74922065D01*
X118029570Y-74922068D01*
X118196197Y-75043129D01*
X118271962Y-75081733D01*
X118323577Y-75130482D01*
X118340643Y-75199397D01*
X118317742Y-75266598D01*
X118271963Y-75306266D01*
X118226254Y-75329556D01*
X118196193Y-75344873D01*
X118029567Y-75465934D01*
X118029564Y-75465936D01*
X117883936Y-75611564D01*
X117883934Y-75611567D01*
X117762873Y-75778193D01*
X117669367Y-75961708D01*
X117669364Y-75961714D01*
X117605721Y-76157587D01*
X117605720Y-76157590D01*
X117605720Y-76157592D01*
X117573500Y-76361019D01*
X117573500Y-76566981D01*
X117604995Y-76765829D01*
X117605721Y-76770412D01*
X117666720Y-76958148D01*
X117669366Y-76966290D01*
X117762871Y-77149803D01*
X117762873Y-77149806D01*
X117784476Y-77179540D01*
X117883932Y-77316430D01*
X117883934Y-77316432D01*
X117883936Y-77316435D01*
X118029564Y-77462063D01*
X118029567Y-77462065D01*
X118029570Y-77462068D01*
X118196197Y-77583129D01*
X118271962Y-77621733D01*
X118323577Y-77670482D01*
X118340643Y-77739397D01*
X118317742Y-77806598D01*
X118271963Y-77846266D01*
X118217870Y-77873828D01*
X118196193Y-77884873D01*
X118029567Y-78005934D01*
X118029564Y-78005936D01*
X117883936Y-78151564D01*
X117883934Y-78151567D01*
X117762873Y-78318193D01*
X117669367Y-78501708D01*
X117669364Y-78501714D01*
X117605721Y-78697587D01*
X117605721Y-78697589D01*
X117605720Y-78697592D01*
X117573500Y-78901019D01*
X117573500Y-79106981D01*
X117605720Y-79310408D01*
X117605721Y-79310412D01*
X117605990Y-79311241D01*
X117669366Y-79506290D01*
X117762871Y-79689803D01*
X117883932Y-79856430D01*
X117883934Y-79856432D01*
X117883936Y-79856435D01*
X118029564Y-80002063D01*
X118029567Y-80002065D01*
X118029570Y-80002068D01*
X118196197Y-80123129D01*
X118271962Y-80161733D01*
X118323577Y-80210482D01*
X118340643Y-80279397D01*
X118317742Y-80346598D01*
X118271963Y-80386266D01*
X118215823Y-80414871D01*
X118196193Y-80424873D01*
X118029567Y-80545934D01*
X118029564Y-80545936D01*
X117883936Y-80691564D01*
X117883934Y-80691567D01*
X117762873Y-80858193D01*
X117669367Y-81041708D01*
X117669364Y-81041714D01*
X117605721Y-81237587D01*
X117605720Y-81237590D01*
X117605720Y-81237592D01*
X117573500Y-81441019D01*
X117573500Y-81646981D01*
X117604137Y-81840412D01*
X117605721Y-81850412D01*
X117666116Y-82036290D01*
X117669366Y-82046290D01*
X117762871Y-82229803D01*
X117883932Y-82396430D01*
X117883934Y-82396432D01*
X117883936Y-82396435D01*
X118029564Y-82542063D01*
X118029567Y-82542065D01*
X118029570Y-82542068D01*
X118196197Y-82663129D01*
X118271962Y-82701733D01*
X118323577Y-82750482D01*
X118340643Y-82819397D01*
X118317742Y-82886598D01*
X118271963Y-82926266D01*
X118203033Y-82961387D01*
X118196193Y-82964873D01*
X118029567Y-83085934D01*
X118029564Y-83085936D01*
X117883936Y-83231564D01*
X117883934Y-83231567D01*
X117762873Y-83398193D01*
X117669367Y-83581708D01*
X117669364Y-83581714D01*
X117605721Y-83777587D01*
X117605721Y-83777589D01*
X117605720Y-83777592D01*
X117573500Y-83981019D01*
X117573500Y-84186981D01*
X117604922Y-84385367D01*
X117605721Y-84390412D01*
X117669220Y-84585843D01*
X117669366Y-84586290D01*
X117762871Y-84769803D01*
X117883932Y-84936430D01*
X117883934Y-84936432D01*
X117883936Y-84936435D01*
X118029564Y-85082063D01*
X118029567Y-85082065D01*
X118029570Y-85082068D01*
X118100768Y-85133796D01*
X118196193Y-85203127D01*
X118272511Y-85242013D01*
X118324126Y-85290762D01*
X118341192Y-85359677D01*
X118318291Y-85426878D01*
X118272512Y-85466546D01*
X118196456Y-85505299D01*
X118196453Y-85505301D01*
X118153625Y-85536416D01*
X118841209Y-86224000D01*
X118829339Y-86224000D01*
X118727606Y-86251259D01*
X118636394Y-86303920D01*
X118561920Y-86378394D01*
X118509259Y-86469606D01*
X118482000Y-86571339D01*
X118482000Y-86583209D01*
X117794416Y-85895625D01*
X117763301Y-85938452D01*
X117669829Y-86121900D01*
X117669826Y-86121906D01*
X117606208Y-86317703D01*
X117574000Y-86521061D01*
X117574000Y-86726938D01*
X117606208Y-86930296D01*
X117669826Y-87126093D01*
X117669829Y-87126099D01*
X117763297Y-87309540D01*
X117763298Y-87309541D01*
X117794416Y-87352372D01*
X118482000Y-86664788D01*
X118482000Y-86676661D01*
X118509259Y-86778394D01*
X118561920Y-86869606D01*
X118636394Y-86944080D01*
X118727606Y-86996741D01*
X118829339Y-87024000D01*
X118841210Y-87024000D01*
X118153626Y-87711582D01*
X118153626Y-87711583D01*
X118196454Y-87742699D01*
X118272511Y-87781453D01*
X118324126Y-87830202D01*
X118341192Y-87899117D01*
X118318291Y-87966318D01*
X118272511Y-88005987D01*
X118196193Y-88044872D01*
X118029567Y-88165934D01*
X118029564Y-88165936D01*
X117883936Y-88311564D01*
X117883934Y-88311567D01*
X117762873Y-88478193D01*
X117669367Y-88661708D01*
X117669364Y-88661714D01*
X117605721Y-88857587D01*
X117605721Y-88857588D01*
X117605720Y-88857592D01*
X117573500Y-89061019D01*
X117573500Y-89266981D01*
X117600350Y-89436501D01*
X117604414Y-89462160D01*
X117595314Y-89532571D01*
X117549592Y-89586885D01*
X117481764Y-89607858D01*
X117413365Y-89588831D01*
X117390870Y-89570966D01*
X117256405Y-89436501D01*
X117222379Y-89374189D01*
X117219500Y-89347406D01*
X117219500Y-81217607D01*
X117219499Y-81217603D01*
X117195155Y-81095215D01*
X117147400Y-80979925D01*
X117078071Y-80876167D01*
X116989833Y-80787929D01*
X113433833Y-77231929D01*
X113433830Y-77231927D01*
X113433824Y-77231922D01*
X113379200Y-77195424D01*
X113333672Y-77140948D01*
X113324823Y-77070505D01*
X113355464Y-77006460D01*
X113379195Y-76985896D01*
X113423833Y-76956071D01*
X117078072Y-73301833D01*
X117147401Y-73198075D01*
X117185570Y-73105925D01*
X117195155Y-73082785D01*
X117219500Y-72960394D01*
X117219500Y-63509108D01*
X117239502Y-63440987D01*
X117288297Y-63396842D01*
X117298009Y-63391894D01*
X117471004Y-63266206D01*
X117622206Y-63115004D01*
X117747894Y-62942009D01*
X117747899Y-62941997D01*
X117748561Y-62940920D01*
X117748924Y-62940591D01*
X117750804Y-62938004D01*
X117751347Y-62938398D01*
X117801204Y-62893283D01*
X117871244Y-62881670D01*
X117936445Y-62909766D01*
X117961021Y-62938130D01*
X117961196Y-62938004D01*
X117962668Y-62940030D01*
X117963439Y-62940920D01*
X117964105Y-62942007D01*
X117964106Y-62942009D01*
X118089794Y-63115004D01*
X118089796Y-63115006D01*
X118089798Y-63115009D01*
X118240990Y-63266201D01*
X118240993Y-63266203D01*
X118240996Y-63266206D01*
X118413991Y-63391894D01*
X118604517Y-63488972D01*
X118807878Y-63555047D01*
X118807879Y-63555047D01*
X118807884Y-63555049D01*
X119019084Y-63588500D01*
X119019087Y-63588500D01*
X119232913Y-63588500D01*
X119232916Y-63588500D01*
X119444116Y-63555049D01*
X119647483Y-63488972D01*
X119838009Y-63391894D01*
X120011004Y-63266206D01*
X120162206Y-63115004D01*
X120287894Y-62942009D01*
X120384972Y-62751483D01*
X120451049Y-62548116D01*
X120484500Y-62336916D01*
X120484500Y-62123084D01*
X120463929Y-61993207D01*
X120473028Y-61922800D01*
X120518750Y-61868486D01*
X120586578Y-61847513D01*
X120588378Y-61847500D01*
X139131406Y-61847500D01*
X139199527Y-61867502D01*
X139220501Y-61884405D01*
X140928436Y-63592341D01*
X140962462Y-63654653D01*
X140963790Y-63701146D01*
X140942188Y-63837533D01*
X140931500Y-63905019D01*
X140931500Y-64110981D01*
X140963720Y-64314408D01*
X140963721Y-64314412D01*
X140994753Y-64409920D01*
X141027366Y-64510290D01*
X141120871Y-64693803D01*
X141241932Y-64860430D01*
X141241934Y-64860432D01*
X141241936Y-64860435D01*
X141387564Y-65006063D01*
X141387567Y-65006065D01*
X141387570Y-65006068D01*
X141554197Y-65127129D01*
X141737710Y-65220634D01*
X141933592Y-65284280D01*
X142137019Y-65316500D01*
X142137022Y-65316500D01*
X142342978Y-65316500D01*
X142342981Y-65316500D01*
X142546408Y-65284280D01*
X142742290Y-65220634D01*
X142925803Y-65127129D01*
X143092430Y-65006068D01*
X143166094Y-64932403D01*
X143228404Y-64898380D01*
X143255188Y-64895500D01*
X144526812Y-64895500D01*
X144594933Y-64915502D01*
X144615902Y-64932400D01*
X144689570Y-65006068D01*
X144856197Y-65127129D01*
X145039710Y-65220634D01*
X145235592Y-65284280D01*
X145439019Y-65316500D01*
X145439022Y-65316500D01*
X145644978Y-65316500D01*
X145644981Y-65316500D01*
X145848408Y-65284280D01*
X146044290Y-65220634D01*
X146227803Y-65127129D01*
X146394430Y-65006068D01*
X146540068Y-64860430D01*
X146661129Y-64693803D01*
X146754634Y-64510290D01*
X146818280Y-64314408D01*
X146850500Y-64110981D01*
X146850500Y-63905019D01*
X146818280Y-63701592D01*
X146754634Y-63505710D01*
X146661129Y-63322197D01*
X146540068Y-63155570D01*
X146540065Y-63155567D01*
X146540063Y-63155564D01*
X146394435Y-63009936D01*
X146394432Y-63009934D01*
X146394430Y-63009932D01*
X146256563Y-62909766D01*
X146227806Y-62888873D01*
X146227805Y-62888872D01*
X146227803Y-62888871D01*
X146044290Y-62795366D01*
X146044287Y-62795365D01*
X146044285Y-62795364D01*
X145848412Y-62731721D01*
X145848410Y-62731720D01*
X145848408Y-62731720D01*
X145644981Y-62699500D01*
X145439019Y-62699500D01*
X145235592Y-62731720D01*
X145235590Y-62731720D01*
X145235587Y-62731721D01*
X145039714Y-62795364D01*
X145039708Y-62795367D01*
X144856193Y-62888873D01*
X144689567Y-63009934D01*
X144689564Y-63009936D01*
X144543936Y-63155564D01*
X144543934Y-63155567D01*
X144422873Y-63322193D01*
X144329364Y-63505713D01*
X144317758Y-63541436D01*
X144277685Y-63600042D01*
X144212288Y-63627679D01*
X144197925Y-63628500D01*
X143584075Y-63628500D01*
X143515954Y-63608498D01*
X143469461Y-63554842D01*
X143464242Y-63541436D01*
X143460814Y-63530887D01*
X143452634Y-63505710D01*
X143359129Y-63322197D01*
X143238068Y-63155570D01*
X143238065Y-63155567D01*
X143238063Y-63155564D01*
X143092435Y-63009936D01*
X143092432Y-63009934D01*
X143092430Y-63009932D01*
X142954563Y-62909766D01*
X142925806Y-62888873D01*
X142925805Y-62888872D01*
X142925803Y-62888871D01*
X142742290Y-62795366D01*
X142742287Y-62795365D01*
X142742285Y-62795364D01*
X142546412Y-62731721D01*
X142546410Y-62731720D01*
X142546408Y-62731720D01*
X142342981Y-62699500D01*
X142137019Y-62699500D01*
X142069533Y-62710188D01*
X141933146Y-62731790D01*
X141862735Y-62722690D01*
X141824341Y-62696436D01*
X139849835Y-60721931D01*
X139849833Y-60721929D01*
X139746075Y-60652600D01*
X139630785Y-60604845D01*
X139557086Y-60590185D01*
X139508396Y-60580500D01*
X139508394Y-60580500D01*
X120204394Y-60580500D01*
X120079606Y-60580500D01*
X120079603Y-60580500D01*
X120006568Y-60595028D01*
X119957215Y-60604845D01*
X119957213Y-60604845D01*
X119957212Y-60604846D01*
X119841923Y-60652601D01*
X119738168Y-60721928D01*
X119738166Y-60721929D01*
X119582513Y-60877581D01*
X119520200Y-60911606D01*
X119454488Y-60908320D01*
X119444122Y-60904952D01*
X119444123Y-60904952D01*
X119404801Y-60898724D01*
X119232916Y-60871500D01*
X119019084Y-60871500D01*
X118807884Y-60904951D01*
X118807878Y-60904952D01*
X118604521Y-60971026D01*
X118604515Y-60971029D01*
X118413987Y-61068108D01*
X118240993Y-61193796D01*
X118240990Y-61193798D01*
X118089798Y-61344990D01*
X118089796Y-61344993D01*
X117964108Y-61517987D01*
X117963434Y-61519088D01*
X117963068Y-61519418D01*
X117961196Y-61521996D01*
X117960654Y-61521602D01*
X117910787Y-61566721D01*
X117840745Y-61578328D01*
X117775547Y-61550226D01*
X117750976Y-61521870D01*
X117750804Y-61521996D01*
X117749341Y-61519982D01*
X117748566Y-61519088D01*
X117747896Y-61517996D01*
X117747894Y-61517991D01*
X117622206Y-61344996D01*
X117622203Y-61344993D01*
X117622201Y-61344990D01*
X117471009Y-61193798D01*
X117471006Y-61193796D01*
X117471004Y-61193794D01*
X117298601Y-61068536D01*
X117298012Y-61068108D01*
X117298011Y-61068107D01*
X117298009Y-61068106D01*
X117107483Y-60971028D01*
X117107480Y-60971027D01*
X117107478Y-60971026D01*
X116904120Y-60904952D01*
X116904123Y-60904952D01*
X116864801Y-60898724D01*
X116692916Y-60871500D01*
X116479084Y-60871500D01*
X116267884Y-60904951D01*
X116267878Y-60904952D01*
X116064521Y-60971026D01*
X116064515Y-60971029D01*
X115873987Y-61068108D01*
X115700993Y-61193796D01*
X115700990Y-61193798D01*
X115549798Y-61344990D01*
X115549796Y-61344993D01*
X115424108Y-61517987D01*
X115423434Y-61519088D01*
X115423068Y-61519418D01*
X115421196Y-61521996D01*
X115420654Y-61521602D01*
X115370787Y-61566721D01*
X115300745Y-61578328D01*
X115235547Y-61550226D01*
X115210976Y-61521870D01*
X115210804Y-61521996D01*
X115209341Y-61519982D01*
X115208566Y-61519088D01*
X115207896Y-61517996D01*
X115207894Y-61517991D01*
X115082206Y-61344996D01*
X115082203Y-61344993D01*
X115082201Y-61344990D01*
X114931009Y-61193798D01*
X114931006Y-61193796D01*
X114931004Y-61193794D01*
X114758601Y-61068536D01*
X114758012Y-61068108D01*
X114758011Y-61068107D01*
X114758009Y-61068106D01*
X114567483Y-60971028D01*
X114567480Y-60971027D01*
X114567478Y-60971026D01*
X114364120Y-60904952D01*
X114364123Y-60904952D01*
X114324801Y-60898724D01*
X114152916Y-60871500D01*
X113939084Y-60871500D01*
X113727884Y-60904951D01*
X113727878Y-60904952D01*
X113524521Y-60971026D01*
X113524515Y-60971029D01*
X113333987Y-61068108D01*
X113160995Y-61193794D01*
X113057629Y-61297160D01*
X112995317Y-61331185D01*
X112924501Y-61326119D01*
X112867665Y-61283573D01*
X112850478Y-61252096D01*
X112806444Y-61134034D01*
X112718904Y-61017095D01*
X112601965Y-60929555D01*
X112465093Y-60878505D01*
X112404597Y-60872000D01*
X111760000Y-60872000D01*
X111760000Y-61799297D01*
X111698993Y-61764075D01*
X111571826Y-61730000D01*
X111440174Y-61730000D01*
X111313007Y-61764075D01*
X111252000Y-61799297D01*
X111252000Y-60872000D01*
X110607402Y-60872000D01*
X110546906Y-60878505D01*
X110410035Y-60929555D01*
X110410034Y-60929555D01*
X110293095Y-61017095D01*
X110205555Y-61134034D01*
X110205555Y-61134035D01*
X110154505Y-61270906D01*
X110148000Y-61331402D01*
X110148000Y-61976000D01*
X111075297Y-61976000D01*
X111040075Y-62037007D01*
X111006000Y-62164174D01*
X111006000Y-62295826D01*
X111040075Y-62422993D01*
X111075297Y-62484000D01*
X110148000Y-62484000D01*
X110148000Y-63128597D01*
X110154505Y-63189093D01*
X110205555Y-63325964D01*
X110205555Y-63325965D01*
X110293095Y-63442904D01*
X110410034Y-63530444D01*
X110546906Y-63581494D01*
X110607402Y-63587999D01*
X110607415Y-63588000D01*
X111252000Y-63588000D01*
X111252000Y-62660702D01*
X111313007Y-62695925D01*
X111440174Y-62730000D01*
X111571826Y-62730000D01*
X111698993Y-62695925D01*
X111760000Y-62660702D01*
X111760000Y-63588000D01*
X112404585Y-63588000D01*
X112404597Y-63587999D01*
X112465093Y-63581494D01*
X112601964Y-63530444D01*
X112601965Y-63530444D01*
X112718904Y-63442904D01*
X112806444Y-63325965D01*
X112850478Y-63207903D01*
X112893024Y-63151067D01*
X112959544Y-63126256D01*
X113028918Y-63141347D01*
X113057629Y-63162840D01*
X113160990Y-63266201D01*
X113160993Y-63266203D01*
X113160996Y-63266206D01*
X113280978Y-63353378D01*
X113333397Y-63391463D01*
X113333991Y-63391894D01*
X113343702Y-63396842D01*
X113395316Y-63445586D01*
X113412500Y-63509108D01*
X113412500Y-72837406D01*
X113392498Y-72905527D01*
X113375595Y-72926501D01*
X113048501Y-73253595D01*
X112986189Y-73287621D01*
X112959406Y-73290500D01*
X112483330Y-73290500D01*
X112415209Y-73270498D01*
X112381394Y-73238561D01*
X112299559Y-73125925D01*
X112260068Y-73071570D01*
X112260065Y-73071567D01*
X112260063Y-73071564D01*
X112114435Y-72925936D01*
X112114432Y-72925934D01*
X112114430Y-72925932D01*
X112036013Y-72868959D01*
X111992660Y-72812738D01*
X111986585Y-72742002D01*
X112019716Y-72679210D01*
X112070440Y-72647420D01*
X112134738Y-72626115D01*
X112285652Y-72533030D01*
X112411030Y-72407652D01*
X112504115Y-72256738D01*
X112559887Y-72088426D01*
X112570500Y-71984545D01*
X112570499Y-70783456D01*
X112568025Y-70759242D01*
X112559887Y-70679574D01*
X112554770Y-70664132D01*
X112504115Y-70511262D01*
X112411030Y-70360348D01*
X112411029Y-70360347D01*
X112411024Y-70360341D01*
X112285658Y-70234975D01*
X112285652Y-70234970D01*
X112282661Y-70233125D01*
X112134738Y-70141885D01*
X112050582Y-70113999D01*
X111966427Y-70086113D01*
X111966420Y-70086112D01*
X111862553Y-70075500D01*
X110661455Y-70075500D01*
X110557574Y-70086112D01*
X110389261Y-70141885D01*
X110238347Y-70234970D01*
X110238341Y-70234975D01*
X110112975Y-70360341D01*
X110112970Y-70360347D01*
X110024671Y-70503502D01*
X110019885Y-70511262D01*
X109969228Y-70664135D01*
X109928817Y-70722504D01*
X109863261Y-70749760D01*
X109849626Y-70750500D01*
X109290595Y-70750500D01*
X109222474Y-70730498D01*
X109201500Y-70713595D01*
X107845835Y-69357931D01*
X107845833Y-69357929D01*
X107742075Y-69288600D01*
X107626785Y-69240845D01*
X107553086Y-69226185D01*
X107504396Y-69216500D01*
X107504394Y-69216500D01*
X103329330Y-69216500D01*
X103261209Y-69196498D01*
X103227394Y-69164561D01*
X103179241Y-69098285D01*
X103106068Y-68997570D01*
X103106065Y-68997567D01*
X103106063Y-68997564D01*
X102960435Y-68851936D01*
X102960432Y-68851934D01*
X102960430Y-68851932D01*
X102793803Y-68730871D01*
X102756738Y-68711985D01*
X102705125Y-68663239D01*
X102688059Y-68594324D01*
X102710960Y-68527122D01*
X102756740Y-68487453D01*
X102793541Y-68468701D01*
X102836372Y-68437582D01*
X102836372Y-68437581D01*
X102148791Y-67750000D01*
X102160661Y-67750000D01*
X102262394Y-67722741D01*
X102353606Y-67670080D01*
X102428080Y-67595606D01*
X102480741Y-67504394D01*
X102508000Y-67402661D01*
X102508000Y-67390791D01*
X103195581Y-68078372D01*
X103195582Y-68078372D01*
X103226701Y-68035541D01*
X103320170Y-67852099D01*
X103320173Y-67852093D01*
X103383791Y-67656296D01*
X103416000Y-67452938D01*
X103416000Y-67247061D01*
X103383791Y-67043703D01*
X103320173Y-66847906D01*
X103320170Y-66847900D01*
X103226699Y-66664454D01*
X103195583Y-66621626D01*
X103195582Y-66621626D01*
X102508000Y-67309208D01*
X102508000Y-67297339D01*
X102480741Y-67195606D01*
X102428080Y-67104394D01*
X102353606Y-67029920D01*
X102262394Y-66977259D01*
X102160661Y-66950000D01*
X102148790Y-66950000D01*
X102836372Y-66262416D01*
X102793541Y-66231298D01*
X102793540Y-66231297D01*
X102610099Y-66137829D01*
X102610093Y-66137826D01*
X102414294Y-66074208D01*
X102414298Y-66074208D01*
X102210939Y-66042000D01*
X102005061Y-66042000D01*
X101801703Y-66074208D01*
X101605906Y-66137826D01*
X101605900Y-66137829D01*
X101422452Y-66231301D01*
X101379625Y-66262416D01*
X102067209Y-66950000D01*
X102055339Y-66950000D01*
X101953606Y-66977259D01*
X101862394Y-67029920D01*
X101787920Y-67104394D01*
X101735259Y-67195606D01*
X101708000Y-67297339D01*
X101708000Y-67309209D01*
X101020416Y-66621625D01*
X100989301Y-66664452D01*
X100895829Y-66847900D01*
X100895826Y-66847906D01*
X100832208Y-67043703D01*
X100800000Y-67247061D01*
X100800000Y-67452938D01*
X100832208Y-67656296D01*
X100895826Y-67852093D01*
X100895829Y-67852099D01*
X100989297Y-68035540D01*
X100989298Y-68035541D01*
X101020416Y-68078372D01*
X101708000Y-67390788D01*
X101708000Y-67402661D01*
X101735259Y-67504394D01*
X101787920Y-67595606D01*
X101862394Y-67670080D01*
X101953606Y-67722741D01*
X102055339Y-67750000D01*
X102067210Y-67750000D01*
X101379626Y-68437582D01*
X101379626Y-68437583D01*
X101422457Y-68468701D01*
X101459260Y-68487454D01*
X101510875Y-68536202D01*
X101527940Y-68605117D01*
X101505039Y-68672319D01*
X101459260Y-68711986D01*
X101422196Y-68730871D01*
X101255567Y-68851934D01*
X101255564Y-68851936D01*
X101109936Y-68997564D01*
X101109934Y-68997567D01*
X100988606Y-69164561D01*
X100932384Y-69207915D01*
X100886670Y-69216500D01*
X97741330Y-69216500D01*
X97673209Y-69196498D01*
X97639394Y-69164561D01*
X97591241Y-69098285D01*
X97518068Y-68997570D01*
X97518065Y-68997567D01*
X97518063Y-68997564D01*
X97372435Y-68851936D01*
X97372432Y-68851934D01*
X97372430Y-68851932D01*
X97205803Y-68730871D01*
X97022290Y-68637366D01*
X97022287Y-68637365D01*
X97022285Y-68637364D01*
X96826412Y-68573721D01*
X96826410Y-68573720D01*
X96826408Y-68573720D01*
X96622981Y-68541500D01*
X96417019Y-68541500D01*
X96213592Y-68573720D01*
X96213590Y-68573720D01*
X96213587Y-68573721D01*
X96017714Y-68637364D01*
X96017708Y-68637367D01*
X95834193Y-68730873D01*
X95667567Y-68851934D01*
X95667564Y-68851936D01*
X95521936Y-68997564D01*
X95521934Y-68997567D01*
X95400873Y-69164193D01*
X95307367Y-69347708D01*
X95307364Y-69347714D01*
X95243721Y-69543587D01*
X95243720Y-69543590D01*
X95243720Y-69543592D01*
X95211500Y-69747019D01*
X95211500Y-69952981D01*
X95243720Y-70156408D01*
X95243721Y-70156412D01*
X95278961Y-70264871D01*
X95307366Y-70352290D01*
X95400871Y-70535803D01*
X95521932Y-70702430D01*
X95521934Y-70702432D01*
X95521936Y-70702435D01*
X95667564Y-70848063D01*
X95667567Y-70848065D01*
X95667570Y-70848068D01*
X95834197Y-70969129D01*
X96017710Y-71062634D01*
X96213592Y-71126280D01*
X96417019Y-71158500D01*
X96417022Y-71158500D01*
X96622978Y-71158500D01*
X96622981Y-71158500D01*
X96826408Y-71126280D01*
X97022290Y-71062634D01*
X97205803Y-70969129D01*
X97372430Y-70848068D01*
X97518068Y-70702430D01*
X97639127Y-70535806D01*
X97639394Y-70535439D01*
X97695616Y-70492085D01*
X97741330Y-70483500D01*
X100886670Y-70483500D01*
X100954791Y-70503502D01*
X100988606Y-70535439D01*
X100988873Y-70535806D01*
X101109932Y-70702430D01*
X101109934Y-70702432D01*
X101109936Y-70702435D01*
X101255564Y-70848063D01*
X101255567Y-70848065D01*
X101255570Y-70848068D01*
X101422197Y-70969129D01*
X101605710Y-71062634D01*
X101801592Y-71126280D01*
X102005019Y-71158500D01*
X102005022Y-71158500D01*
X102210978Y-71158500D01*
X102210981Y-71158500D01*
X102414408Y-71126280D01*
X102610290Y-71062634D01*
X102793803Y-70969129D01*
X102960430Y-70848068D01*
X103106068Y-70702430D01*
X103227127Y-70535806D01*
X103227394Y-70535439D01*
X103283616Y-70492085D01*
X103329330Y-70483500D01*
X107127406Y-70483500D01*
X107195527Y-70503502D01*
X107216496Y-70520400D01*
X108572167Y-71876072D01*
X108675925Y-71945401D01*
X108757447Y-71979168D01*
X108791215Y-71993155D01*
X108913606Y-72017500D01*
X108913607Y-72017500D01*
X109038394Y-72017500D01*
X109428406Y-72017500D01*
X109496527Y-72037502D01*
X109543020Y-72091158D01*
X109553124Y-72161432D01*
X109523630Y-72226012D01*
X109517501Y-72232595D01*
X108727931Y-73022164D01*
X108727926Y-73022171D01*
X108658601Y-73125923D01*
X108621956Y-73214392D01*
X108610845Y-73241215D01*
X108605020Y-73270498D01*
X108586500Y-73363603D01*
X108586500Y-73363606D01*
X108586500Y-77407606D01*
X108586500Y-77532394D01*
X108610845Y-77654785D01*
X108658600Y-77770075D01*
X108727929Y-77873833D01*
X108727931Y-77873835D01*
X108999501Y-78145405D01*
X109033527Y-78207717D01*
X109028462Y-78278532D01*
X108985915Y-78335368D01*
X108919395Y-78360179D01*
X108910406Y-78360500D01*
X107139330Y-78360500D01*
X107071209Y-78340498D01*
X107037394Y-78308561D01*
X106970196Y-78216071D01*
X106916068Y-78141570D01*
X106916065Y-78141567D01*
X106916063Y-78141564D01*
X106770435Y-77995936D01*
X106770432Y-77995934D01*
X106770430Y-77995932D01*
X106603803Y-77874871D01*
X106566738Y-77855985D01*
X106515125Y-77807239D01*
X106498059Y-77738324D01*
X106520960Y-77671122D01*
X106566740Y-77631453D01*
X106603541Y-77612701D01*
X106646372Y-77581582D01*
X106646372Y-77581581D01*
X105958791Y-76894000D01*
X105970661Y-76894000D01*
X106072394Y-76866741D01*
X106163606Y-76814080D01*
X106238080Y-76739606D01*
X106290741Y-76648394D01*
X106318000Y-76546661D01*
X106318000Y-76534791D01*
X107005581Y-77222372D01*
X107005582Y-77222372D01*
X107036701Y-77179541D01*
X107130170Y-76996099D01*
X107130173Y-76996093D01*
X107193791Y-76800296D01*
X107226000Y-76596938D01*
X107226000Y-76391061D01*
X107193791Y-76187703D01*
X107130173Y-75991906D01*
X107130170Y-75991900D01*
X107036699Y-75808454D01*
X107005583Y-75765626D01*
X107005582Y-75765626D01*
X106318000Y-76453208D01*
X106318000Y-76441339D01*
X106290741Y-76339606D01*
X106238080Y-76248394D01*
X106163606Y-76173920D01*
X106072394Y-76121259D01*
X105970661Y-76094000D01*
X105958790Y-76094000D01*
X106646372Y-75406416D01*
X106603541Y-75375298D01*
X106603540Y-75375297D01*
X106420099Y-75281829D01*
X106420093Y-75281826D01*
X106224294Y-75218208D01*
X106224298Y-75218208D01*
X106020939Y-75186000D01*
X105815061Y-75186000D01*
X105611703Y-75218208D01*
X105415906Y-75281826D01*
X105415900Y-75281829D01*
X105232452Y-75375301D01*
X105189625Y-75406416D01*
X105877209Y-76094000D01*
X105865339Y-76094000D01*
X105763606Y-76121259D01*
X105672394Y-76173920D01*
X105597920Y-76248394D01*
X105545259Y-76339606D01*
X105518000Y-76441339D01*
X105518000Y-76453209D01*
X104830416Y-75765625D01*
X104799301Y-75808452D01*
X104705829Y-75991900D01*
X104705826Y-75991906D01*
X104642208Y-76187703D01*
X104610000Y-76391061D01*
X104610000Y-76596938D01*
X104642208Y-76800296D01*
X104705826Y-76996093D01*
X104705829Y-76996099D01*
X104799297Y-77179540D01*
X104799298Y-77179541D01*
X104830416Y-77222372D01*
X105518000Y-76534788D01*
X105518000Y-76546661D01*
X105545259Y-76648394D01*
X105597920Y-76739606D01*
X105672394Y-76814080D01*
X105763606Y-76866741D01*
X105865339Y-76894000D01*
X105877210Y-76894000D01*
X105189626Y-77581582D01*
X105189626Y-77581583D01*
X105232457Y-77612701D01*
X105269260Y-77631454D01*
X105320875Y-77680202D01*
X105337940Y-77749117D01*
X105315039Y-77816319D01*
X105269260Y-77855986D01*
X105232196Y-77874871D01*
X105065567Y-77995934D01*
X105065564Y-77995936D01*
X104919936Y-78141564D01*
X104919934Y-78141567D01*
X104824762Y-78272561D01*
X104768540Y-78315915D01*
X104722826Y-78324500D01*
X103249458Y-78324500D01*
X103181337Y-78304498D01*
X103137191Y-78255703D01*
X103120837Y-78223606D01*
X103092185Y-78167373D01*
X102952620Y-77975278D01*
X102952617Y-77975275D01*
X102952615Y-77975272D01*
X102784727Y-77807384D01*
X102784724Y-77807382D01*
X102784722Y-77807380D01*
X102609676Y-77680202D01*
X102592630Y-77667817D01*
X102592629Y-77667816D01*
X102592627Y-77667815D01*
X102381063Y-77560018D01*
X102381060Y-77560017D01*
X102381058Y-77560016D01*
X102155246Y-77486645D01*
X102155242Y-77486644D01*
X102155241Y-77486644D01*
X101920722Y-77449500D01*
X101683278Y-77449500D01*
X101448759Y-77486644D01*
X101448753Y-77486645D01*
X101222941Y-77560016D01*
X101222935Y-77560019D01*
X101011369Y-77667817D01*
X100819275Y-77807382D01*
X100819272Y-77807384D01*
X100651384Y-77975272D01*
X100651382Y-77975275D01*
X100511817Y-78167369D01*
X100511815Y-78167373D01*
X100458220Y-78272561D01*
X100454071Y-78280703D01*
X100405323Y-78332318D01*
X100341804Y-78349500D01*
X96762196Y-78349500D01*
X96694075Y-78329498D01*
X96649929Y-78280703D01*
X96648823Y-78278532D01*
X96592185Y-78167373D01*
X96452620Y-77975278D01*
X96452617Y-77975275D01*
X96452615Y-77975272D01*
X96284727Y-77807384D01*
X96284724Y-77807382D01*
X96284722Y-77807380D01*
X96109676Y-77680202D01*
X96092630Y-77667817D01*
X96092629Y-77667816D01*
X96092627Y-77667815D01*
X95881063Y-77560018D01*
X95881060Y-77560017D01*
X95881058Y-77560016D01*
X95655246Y-77486645D01*
X95655242Y-77486644D01*
X95655241Y-77486644D01*
X95420722Y-77449500D01*
X95183278Y-77449500D01*
X94948759Y-77486644D01*
X94948753Y-77486645D01*
X94722941Y-77560016D01*
X94722935Y-77560019D01*
X94511369Y-77667817D01*
X94319275Y-77807382D01*
X94319272Y-77807384D01*
X94151384Y-77975272D01*
X94151382Y-77975275D01*
X94011817Y-78167369D01*
X93904019Y-78378935D01*
X93904016Y-78378941D01*
X93830645Y-78604753D01*
X93830644Y-78604758D01*
X93830644Y-78604759D01*
X93793500Y-78839278D01*
X93793500Y-79076722D01*
X93811469Y-79190173D01*
X93830645Y-79311246D01*
X93904016Y-79537058D01*
X93904018Y-79537063D01*
X94011815Y-79748627D01*
X94151380Y-79940722D01*
X94151382Y-79940724D01*
X94151384Y-79940727D01*
X94319272Y-80108615D01*
X94319275Y-80108617D01*
X94319278Y-80108620D01*
X94511373Y-80248185D01*
X94722937Y-80355982D01*
X94948759Y-80429356D01*
X95183278Y-80466500D01*
X95183281Y-80466500D01*
X95420719Y-80466500D01*
X95420722Y-80466500D01*
X95655241Y-80429356D01*
X95881063Y-80355982D01*
X96092627Y-80248185D01*
X96284722Y-80108620D01*
X96452620Y-79940722D01*
X96592185Y-79748627D01*
X96649929Y-79635296D01*
X96698677Y-79583682D01*
X96762196Y-79566500D01*
X100341804Y-79566500D01*
X100409925Y-79586502D01*
X100454070Y-79635296D01*
X100511815Y-79748627D01*
X100651380Y-79940722D01*
X100651382Y-79940724D01*
X100651384Y-79940727D01*
X100819272Y-80108615D01*
X100819275Y-80108617D01*
X100819278Y-80108620D01*
X101011373Y-80248185D01*
X101222937Y-80355982D01*
X101448759Y-80429356D01*
X101683278Y-80466500D01*
X101683281Y-80466500D01*
X101920719Y-80466500D01*
X101920722Y-80466500D01*
X102155241Y-80429356D01*
X102381063Y-80355982D01*
X102592627Y-80248185D01*
X102784722Y-80108620D01*
X102952620Y-79940722D01*
X103092185Y-79748627D01*
X103137191Y-79660296D01*
X103185939Y-79608682D01*
X103249458Y-79591500D01*
X104676665Y-79591500D01*
X104744786Y-79611502D01*
X104788931Y-79660295D01*
X104798872Y-79679805D01*
X104848874Y-79748627D01*
X104919932Y-79846430D01*
X104919934Y-79846432D01*
X104919936Y-79846435D01*
X105065564Y-79992063D01*
X105065567Y-79992065D01*
X105065570Y-79992068D01*
X105232197Y-80113129D01*
X105415710Y-80206634D01*
X105611592Y-80270280D01*
X105815019Y-80302500D01*
X105815022Y-80302500D01*
X106020978Y-80302500D01*
X106020981Y-80302500D01*
X106224408Y-80270280D01*
X106420290Y-80206634D01*
X106603803Y-80113129D01*
X106770430Y-79992068D01*
X106916068Y-79846430D01*
X107006006Y-79722639D01*
X107037394Y-79679439D01*
X107093616Y-79636085D01*
X107139330Y-79627500D01*
X110034128Y-79627500D01*
X110102249Y-79647502D01*
X110139828Y-79685894D01*
X110139961Y-79685798D01*
X110140616Y-79686699D01*
X110141559Y-79687663D01*
X110142868Y-79689800D01*
X110185609Y-79748627D01*
X110263932Y-79856430D01*
X110263934Y-79856432D01*
X110263936Y-79856435D01*
X110409564Y-80002063D01*
X110409567Y-80002065D01*
X110409570Y-80002068D01*
X110576197Y-80123129D01*
X110651962Y-80161733D01*
X110703577Y-80210482D01*
X110720643Y-80279397D01*
X110697742Y-80346598D01*
X110651963Y-80386266D01*
X110595823Y-80414871D01*
X110576193Y-80424873D01*
X110409567Y-80545934D01*
X110409564Y-80545936D01*
X110263936Y-80691564D01*
X110263934Y-80691567D01*
X110142873Y-80858193D01*
X110049367Y-81041708D01*
X110049364Y-81041714D01*
X109985721Y-81237587D01*
X109985720Y-81237590D01*
X109985720Y-81237592D01*
X109953500Y-81441019D01*
X109953500Y-81646981D01*
X109984137Y-81840412D01*
X109985721Y-81850412D01*
X110011764Y-81930564D01*
X110013792Y-82001531D01*
X109977129Y-82062329D01*
X109913417Y-82093655D01*
X109891931Y-82095500D01*
X109404212Y-82095500D01*
X109335779Y-82109112D01*
X109335778Y-82109113D01*
X109290151Y-82118189D01*
X109267337Y-82122727D01*
X109267334Y-82122728D01*
X109229572Y-82138368D01*
X109229572Y-82138369D01*
X109218023Y-82143153D01*
X109138401Y-82176133D01*
X109138400Y-82176134D01*
X109022357Y-82253671D01*
X108764529Y-82511500D01*
X108201432Y-83074596D01*
X108139122Y-83108620D01*
X108112339Y-83111500D01*
X107338839Y-83111500D01*
X107270718Y-83091498D01*
X107236903Y-83059561D01*
X107170068Y-82967570D01*
X107170065Y-82967567D01*
X107170063Y-82967564D01*
X107024435Y-82821936D01*
X107024432Y-82821934D01*
X107024430Y-82821932D01*
X106898999Y-82730802D01*
X106857806Y-82700873D01*
X106857805Y-82700872D01*
X106857803Y-82700871D01*
X106674290Y-82607366D01*
X106674287Y-82607365D01*
X106674285Y-82607364D01*
X106478412Y-82543721D01*
X106478410Y-82543720D01*
X106478408Y-82543720D01*
X106274981Y-82511500D01*
X106069019Y-82511500D01*
X105865592Y-82543720D01*
X105865590Y-82543720D01*
X105865587Y-82543721D01*
X105669714Y-82607364D01*
X105669708Y-82607367D01*
X105486193Y-82700873D01*
X105319567Y-82821934D01*
X105319564Y-82821936D01*
X105173936Y-82967564D01*
X105173934Y-82967567D01*
X105107097Y-83059561D01*
X105050875Y-83102915D01*
X105005161Y-83111500D01*
X90515661Y-83111500D01*
X90447540Y-83091498D01*
X90426566Y-83074595D01*
X89645405Y-82293434D01*
X89611379Y-82231122D01*
X89608500Y-82204339D01*
X89608500Y-74339321D01*
X93794000Y-74339321D01*
X93794000Y-74576678D01*
X93831133Y-74811129D01*
X93904480Y-75036867D01*
X94012246Y-75248368D01*
X94071230Y-75329556D01*
X94071232Y-75329556D01*
X94777016Y-74623771D01*
X94789482Y-74670292D01*
X94861890Y-74795708D01*
X94964292Y-74898110D01*
X95089708Y-74970518D01*
X95136226Y-74982982D01*
X94430442Y-75688766D01*
X94511636Y-75747756D01*
X94511637Y-75747757D01*
X94723132Y-75855519D01*
X94948870Y-75928866D01*
X95183321Y-75966000D01*
X95420679Y-75966000D01*
X95655129Y-75928866D01*
X95880867Y-75855519D01*
X96092367Y-75747754D01*
X96173556Y-75688767D01*
X96173556Y-75688765D01*
X95467773Y-74982982D01*
X95514292Y-74970518D01*
X95639708Y-74898110D01*
X95742110Y-74795708D01*
X95814518Y-74670292D01*
X95826982Y-74623773D01*
X96532765Y-75329556D01*
X96532767Y-75329556D01*
X96591754Y-75248367D01*
X96699519Y-75036867D01*
X96772866Y-74811129D01*
X96810000Y-74576678D01*
X96810000Y-74339321D01*
X100294000Y-74339321D01*
X100294000Y-74576678D01*
X100331133Y-74811129D01*
X100404480Y-75036867D01*
X100512246Y-75248368D01*
X100571230Y-75329556D01*
X100571232Y-75329556D01*
X101277016Y-74623771D01*
X101289482Y-74670292D01*
X101361890Y-74795708D01*
X101464292Y-74898110D01*
X101589708Y-74970518D01*
X101636226Y-74982982D01*
X100930442Y-75688766D01*
X101011636Y-75747756D01*
X101011637Y-75747757D01*
X101223132Y-75855519D01*
X101448870Y-75928866D01*
X101683321Y-75966000D01*
X101920679Y-75966000D01*
X102155129Y-75928866D01*
X102380867Y-75855519D01*
X102592367Y-75747754D01*
X102673556Y-75688767D01*
X102673556Y-75688765D01*
X101967773Y-74982982D01*
X102014292Y-74970518D01*
X102139708Y-74898110D01*
X102242110Y-74795708D01*
X102314518Y-74670292D01*
X102326982Y-74623773D01*
X103032765Y-75329556D01*
X103032767Y-75329556D01*
X103091754Y-75248367D01*
X103199519Y-75036867D01*
X103272866Y-74811129D01*
X103310000Y-74576678D01*
X103310000Y-74339321D01*
X103272866Y-74104870D01*
X103199519Y-73879132D01*
X103091757Y-73667637D01*
X103091756Y-73667636D01*
X103032766Y-73586442D01*
X102326982Y-74292226D01*
X102314518Y-74245708D01*
X102242110Y-74120292D01*
X102139708Y-74017890D01*
X102014292Y-73945482D01*
X101967771Y-73933016D01*
X102673556Y-73227232D01*
X102673556Y-73227230D01*
X102592368Y-73168246D01*
X102380867Y-73060480D01*
X102155129Y-72987133D01*
X101920679Y-72950000D01*
X101683321Y-72950000D01*
X101448870Y-72987133D01*
X101223132Y-73060480D01*
X101011634Y-73168243D01*
X100930442Y-73227231D01*
X101636227Y-73933017D01*
X101589708Y-73945482D01*
X101464292Y-74017890D01*
X101361890Y-74120292D01*
X101289482Y-74245708D01*
X101277017Y-74292227D01*
X100571231Y-73586442D01*
X100512243Y-73667634D01*
X100404480Y-73879132D01*
X100331133Y-74104870D01*
X100294000Y-74339321D01*
X96810000Y-74339321D01*
X96772866Y-74104870D01*
X96699519Y-73879132D01*
X96591757Y-73667637D01*
X96591756Y-73667636D01*
X96532766Y-73586442D01*
X95826982Y-74292226D01*
X95814518Y-74245708D01*
X95742110Y-74120292D01*
X95639708Y-74017890D01*
X95514292Y-73945482D01*
X95467771Y-73933016D01*
X96173556Y-73227232D01*
X96173556Y-73227230D01*
X96092368Y-73168246D01*
X95880867Y-73060480D01*
X95655129Y-72987133D01*
X95420679Y-72950000D01*
X95183321Y-72950000D01*
X94948870Y-72987133D01*
X94723132Y-73060480D01*
X94511634Y-73168243D01*
X94430442Y-73227231D01*
X95136227Y-73933017D01*
X95089708Y-73945482D01*
X94964292Y-74017890D01*
X94861890Y-74120292D01*
X94789482Y-74245708D01*
X94777017Y-74292227D01*
X94071231Y-73586442D01*
X94012243Y-73667634D01*
X93904480Y-73879132D01*
X93831133Y-74104870D01*
X93794000Y-74339321D01*
X89608500Y-74339321D01*
X89608500Y-71016839D01*
X89628502Y-70948718D01*
X89660440Y-70914902D01*
X89752431Y-70848067D01*
X89898063Y-70702435D01*
X89898068Y-70702430D01*
X90019129Y-70535803D01*
X90112634Y-70352290D01*
X90176280Y-70156408D01*
X90208500Y-69952981D01*
X90208500Y-69747019D01*
X90176280Y-69543592D01*
X90112634Y-69347710D01*
X90019129Y-69164197D01*
X89898068Y-68997570D01*
X89898065Y-68997567D01*
X89898063Y-68997564D01*
X89780329Y-68879830D01*
X89746303Y-68817518D01*
X89751368Y-68746703D01*
X89780325Y-68701644D01*
X92752328Y-65729643D01*
X92829865Y-65613601D01*
X92883273Y-65484661D01*
X92910500Y-65347782D01*
X92910500Y-65208219D01*
X92910500Y-63714500D01*
X92930502Y-63646379D01*
X92984158Y-63599886D01*
X93036500Y-63588500D01*
X93100632Y-63588500D01*
X93100638Y-63588500D01*
X93100645Y-63588499D01*
X93100649Y-63588499D01*
X93161196Y-63581990D01*
X93161199Y-63581989D01*
X93161201Y-63581989D01*
X93298204Y-63530889D01*
X93298799Y-63530444D01*
X93415261Y-63443261D01*
X93502887Y-63326207D01*
X93502887Y-63326206D01*
X93502889Y-63326204D01*
X93553989Y-63189201D01*
X93557606Y-63155564D01*
X93560499Y-63128649D01*
X93560500Y-63128632D01*
X93560500Y-63064500D01*
X93580502Y-62996379D01*
X93634158Y-62949886D01*
X93686500Y-62938500D01*
X96910477Y-62938500D01*
X96978598Y-62958502D01*
X97025091Y-63012158D01*
X97030079Y-63024860D01*
X97047588Y-63077698D01*
X97055885Y-63102738D01*
X97148970Y-63253652D01*
X97148975Y-63253658D01*
X97274341Y-63379024D01*
X97274347Y-63379029D01*
X97274348Y-63379030D01*
X97425262Y-63472115D01*
X97485293Y-63492007D01*
X97543664Y-63532419D01*
X97570921Y-63597975D01*
X97571272Y-63621499D01*
X97569625Y-63642416D01*
X98257209Y-64330000D01*
X98245339Y-64330000D01*
X98143606Y-64357259D01*
X98052394Y-64409920D01*
X97977920Y-64484394D01*
X97925259Y-64575606D01*
X97898000Y-64677339D01*
X97898000Y-64689209D01*
X97210416Y-64001625D01*
X97179301Y-64044452D01*
X97085829Y-64227900D01*
X97085826Y-64227906D01*
X97022208Y-64423703D01*
X96990000Y-64627061D01*
X96990000Y-64832938D01*
X97022208Y-65036296D01*
X97085826Y-65232093D01*
X97085829Y-65232099D01*
X97179297Y-65415540D01*
X97179298Y-65415541D01*
X97210416Y-65458372D01*
X97898000Y-64770788D01*
X97898000Y-64782661D01*
X97925259Y-64884394D01*
X97977920Y-64975606D01*
X98052394Y-65050080D01*
X98143606Y-65102741D01*
X98245339Y-65130000D01*
X98257210Y-65130000D01*
X97569626Y-65817582D01*
X97569626Y-65817583D01*
X97612454Y-65848699D01*
X97795900Y-65942170D01*
X97795906Y-65942173D01*
X97991705Y-66005791D01*
X97991701Y-66005791D01*
X98195061Y-66038000D01*
X98400939Y-66038000D01*
X98604296Y-66005791D01*
X98800093Y-65942173D01*
X98800099Y-65942170D01*
X98983541Y-65848701D01*
X99026372Y-65817582D01*
X99026372Y-65817581D01*
X98338791Y-65130000D01*
X98350661Y-65130000D01*
X98452394Y-65102741D01*
X98543606Y-65050080D01*
X98618080Y-64975606D01*
X98670741Y-64884394D01*
X98698000Y-64782661D01*
X98698000Y-64770791D01*
X99385581Y-65458372D01*
X99385582Y-65458372D01*
X99416701Y-65415541D01*
X99510170Y-65232099D01*
X99510173Y-65232093D01*
X99573791Y-65036296D01*
X99606000Y-64832938D01*
X99606000Y-64627061D01*
X99573791Y-64423703D01*
X99510173Y-64227906D01*
X99510170Y-64227900D01*
X99416699Y-64044454D01*
X99385583Y-64001626D01*
X99385582Y-64001626D01*
X98698000Y-64689208D01*
X98698000Y-64677339D01*
X98670741Y-64575606D01*
X98618080Y-64484394D01*
X98543606Y-64409920D01*
X98452394Y-64357259D01*
X98350661Y-64330000D01*
X98338790Y-64330000D01*
X99026372Y-63642416D01*
X99024726Y-63621498D01*
X99039322Y-63552018D01*
X99089164Y-63501459D01*
X99110699Y-63492009D01*
X99170738Y-63472115D01*
X99321652Y-63379030D01*
X99447030Y-63253652D01*
X99540115Y-63102738D01*
X99595887Y-62934426D01*
X99600727Y-62887050D01*
X99606500Y-62830553D01*
X99606500Y-62431809D01*
X99606499Y-61629455D01*
X99598405Y-61550226D01*
X99595887Y-61525574D01*
X99595886Y-61525570D01*
X99595886Y-61525568D01*
X99559893Y-61416950D01*
X99540115Y-61357262D01*
X99447030Y-61206348D01*
X99447029Y-61206347D01*
X99447024Y-61206341D01*
X99321658Y-61080975D01*
X99321652Y-61080970D01*
X99300796Y-61068106D01*
X99170738Y-60987885D01*
X99086582Y-60959999D01*
X99002427Y-60932113D01*
X99002420Y-60932112D01*
X98898553Y-60921500D01*
X97697455Y-60921500D01*
X97593574Y-60932112D01*
X97425261Y-60987885D01*
X97274347Y-61080970D01*
X97274341Y-61080975D01*
X97148975Y-61206341D01*
X97148970Y-61206347D01*
X97055885Y-61357261D01*
X97043869Y-61393523D01*
X97033891Y-61423639D01*
X97030082Y-61435133D01*
X96989668Y-61493504D01*
X96924111Y-61520760D01*
X96910477Y-61521500D01*
X93686500Y-61521500D01*
X93618379Y-61501498D01*
X93571886Y-61447842D01*
X93560500Y-61395500D01*
X93560500Y-61331367D01*
X93560499Y-61331350D01*
X93553990Y-61270803D01*
X93553988Y-61270795D01*
X93502978Y-61134035D01*
X93502889Y-61133796D01*
X93502888Y-61133794D01*
X93502887Y-61133792D01*
X93415261Y-61016738D01*
X93298207Y-60929112D01*
X93298202Y-60929110D01*
X93161204Y-60878011D01*
X93161196Y-60878009D01*
X93100649Y-60871500D01*
X93100638Y-60871500D01*
X91303362Y-60871500D01*
X91303350Y-60871500D01*
X91242803Y-60878009D01*
X91242795Y-60878011D01*
X91105797Y-60929110D01*
X91105792Y-60929112D01*
X90988738Y-61016738D01*
X90901112Y-61133792D01*
X90901110Y-61133797D01*
X90850011Y-61270795D01*
X90850009Y-61270803D01*
X90843500Y-61331350D01*
X90843500Y-61355518D01*
X90823498Y-61423639D01*
X90806596Y-61444613D01*
X90146157Y-62105051D01*
X90127925Y-62037007D01*
X90062099Y-61922993D01*
X89969007Y-61829901D01*
X89854993Y-61764075D01*
X89786947Y-61745841D01*
X90426168Y-61106621D01*
X90426167Y-61106620D01*
X90373750Y-61068536D01*
X90373748Y-61068535D01*
X90183292Y-60971493D01*
X90183286Y-60971490D01*
X89980003Y-60905440D01*
X89768874Y-60872000D01*
X89555126Y-60872000D01*
X89343996Y-60905440D01*
X89140713Y-60971490D01*
X89140707Y-60971493D01*
X88950253Y-61068534D01*
X88897831Y-61106621D01*
X88897831Y-61106622D01*
X89537051Y-61745842D01*
X89469007Y-61764075D01*
X89354993Y-61829901D01*
X89261901Y-61922993D01*
X89196075Y-62037007D01*
X89177842Y-62105051D01*
X88538622Y-61465831D01*
X88538621Y-61465831D01*
X88500534Y-61518253D01*
X88403493Y-61708707D01*
X88403490Y-61708713D01*
X88337440Y-61911996D01*
X88304000Y-62123126D01*
X88304000Y-62336873D01*
X88337440Y-62548003D01*
X88403490Y-62751286D01*
X88403493Y-62751292D01*
X88500535Y-62941748D01*
X88500536Y-62941750D01*
X88538620Y-62994167D01*
X88538621Y-62994168D01*
X89177841Y-62354947D01*
X89196075Y-62422993D01*
X89261901Y-62537007D01*
X89354993Y-62630099D01*
X89469007Y-62695925D01*
X89537051Y-62714157D01*
X88897831Y-63353378D01*
X88950249Y-63391463D01*
X88950251Y-63391464D01*
X89140707Y-63488506D01*
X89140713Y-63488509D01*
X89343996Y-63554559D01*
X89555126Y-63588000D01*
X89768874Y-63588000D01*
X89980003Y-63554559D01*
X90183286Y-63488509D01*
X90183292Y-63488506D01*
X90373750Y-63391463D01*
X90426167Y-63353378D01*
X90426167Y-63353376D01*
X89786948Y-62714157D01*
X89854993Y-62695925D01*
X89969007Y-62630099D01*
X90062099Y-62537007D01*
X90127925Y-62422993D01*
X90146157Y-62354948D01*
X90806595Y-63015386D01*
X90840621Y-63077698D01*
X90843500Y-63104481D01*
X90843500Y-63128649D01*
X90850009Y-63189196D01*
X90850011Y-63189204D01*
X90901110Y-63326202D01*
X90901112Y-63326207D01*
X90988738Y-63443261D01*
X91105792Y-63530887D01*
X91105794Y-63530888D01*
X91105796Y-63530889D01*
X91164875Y-63552924D01*
X91242795Y-63581988D01*
X91242803Y-63581990D01*
X91303350Y-63588499D01*
X91303355Y-63588499D01*
X91303362Y-63588500D01*
X91367500Y-63588500D01*
X91435621Y-63608502D01*
X91482114Y-63662158D01*
X91493500Y-63714500D01*
X91493500Y-64932338D01*
X91473498Y-65000459D01*
X91456595Y-65021433D01*
X88349676Y-68128351D01*
X88349671Y-68128357D01*
X88272134Y-68244400D01*
X88272131Y-68244406D01*
X88234369Y-68335567D01*
X88234370Y-68335568D01*
X88219267Y-68372035D01*
X88219252Y-68372073D01*
X88218726Y-68373339D01*
X88218725Y-68373343D01*
X88197741Y-68478843D01*
X88191500Y-68510215D01*
X88191500Y-68683160D01*
X88171498Y-68751281D01*
X88139562Y-68785096D01*
X88047563Y-68851937D01*
X87901936Y-68997564D01*
X87901934Y-68997567D01*
X87780873Y-69164193D01*
X87687367Y-69347708D01*
X87687364Y-69347714D01*
X87623721Y-69543587D01*
X87623720Y-69543590D01*
X87623720Y-69543592D01*
X87591500Y-69747019D01*
X86116500Y-69747019D01*
X86116500Y-59572500D01*
X86136502Y-59504379D01*
X86190158Y-59457886D01*
X86242500Y-59446500D01*
X159629500Y-59446500D01*
X159697621Y-59466502D01*
G37*
%TD.AperFunction*%
%TD*%
M02*
